solid BreakoutBoard
facet normal 3.220240302933074e-19 -0.7071067811865483 0.7071067811865468
  outer loop
    vertex 72.1 66.10000000000001 5.0
    vertex 1.9999999999999998 65.10000000000001 3.9999999999999996
    vertex 71.1 65.10000000000001 3.9999999999999996
  endloop
endfacet
facet normal 3.220240302933074e-19 -0.7071067811865483 0.7071067811865468
  outer loop
    vertex 1.9999999999999998 65.10000000000001 3.9999999999999996
    vertex 72.1 66.10000000000001 5.0
    vertex 1.0000000000000009 66.10000000000001 5.0
  endloop
endfacet
facet normal 0.707106781186548 -1.2391574162748267e-33 0.707106781186547
  outer loop
    vertex 1.9999999999999998 1.9999999999999998 3.9999999999999996
    vertex 1.0000000000000009 66.10000000000001 5.0
    vertex 1.0000000000000009 1.0000000000000009 5.0
  endloop
endfacet
facet normal 0.707106781186548 -1.2391574162748267e-33 0.707106781186547
  outer loop
    vertex 1.0000000000000009 66.10000000000001 5.0
    vertex 1.9999999999999998 1.9999999999999998 3.9999999999999996
    vertex 1.9999999999999998 65.10000000000001 3.9999999999999996
  endloop
endfacet
facet normal 3.2202403029330746e-19 0.707106781186548 0.707106781186547
  outer loop
    vertex 1.0000000000000009 1.0000000000000009 5.0
    vertex 71.1 1.9999999999999998 3.9999999999999996
    vertex 1.9999999999999998 1.9999999999999998 3.9999999999999996
  endloop
endfacet
facet normal 3.2202403029330746e-19 0.707106781186548 0.707106781186547
  outer loop
    vertex 71.1 1.9999999999999998 3.9999999999999996
    vertex 1.0000000000000009 1.0000000000000009 5.0
    vertex 72.1 1.0000000000000009 5.0
  endloop
endfacet
facet normal -0.7071067811865482 3.8511545038138214e-19 0.7071067811865468
  outer loop
    vertex 72.1 66.10000000000001 5.0
    vertex 71.1 1.9999999999999998 3.9999999999999996
    vertex 72.1 1.0000000000000009 5.0
  endloop
endfacet
facet normal -0.7071067811865482 3.8511545038138214e-19 0.7071067811865468
  outer loop
    vertex 71.1 1.9999999999999998 3.9999999999999996
    vertex 72.1 66.10000000000001 5.0
    vertex 71.1 65.10000000000001 3.9999999999999996
  endloop
endfacet
facet normal 1.0 -0.0 -0.0
  outer loop
    vertex 73.1 67.1 0.0
    vertex 73.1 0.0 4.999999999999999
    vertex 73.1 0.0 0.0
  endloop
endfacet
facet normal 1.0 -0.0 -0.0
  outer loop
    vertex 73.1 0.0 4.999999999999999
    vertex 73.1 67.1 0.0
    vertex 73.1 67.1 4.999999999999999
  endloop
endfacet
facet normal -1.0 0.0 0.0
  outer loop
    vertex 71.1 65.10000000000001 3.9999999999999996
    vertex 71.1 1.9999999999999998 3.0
    vertex 71.1 1.9999999999999998 3.9999999999999996
  endloop
endfacet
facet normal -1.0 0.0 0.0
  outer loop
    vertex 71.1 1.9999999999999998 3.0
    vertex 71.1 65.10000000000001 3.9999999999999996
    vertex 71.1 65.10000000000001 3.0
  endloop
endfacet
facet normal -0.0 1.0 -0.0
  outer loop
    vertex 0.0 67.1 4.999999999999999
    vertex 73.1 67.1 0.0
    vertex 0.0 67.1 0.0
  endloop
endfacet
facet normal -0.0 1.0 -0.0
  outer loop
    vertex 73.1 67.1 0.0
    vertex 0.0 67.1 4.999999999999999
    vertex 73.1 67.1 4.999999999999999
  endloop
endfacet
facet normal -1.0 0.0 0.0
  outer loop
    vertex 0.0 67.1 4.999999999999999
    vertex 0.0 0.0 0.0
    vertex 0.0 0.0 4.999999999999999
  endloop
endfacet
facet normal -1.0 0.0 0.0
  outer loop
    vertex 0.0 0.0 0.0
    vertex 0.0 67.1 4.999999999999999
    vertex 0.0 67.1 0.0
  endloop
endfacet
facet normal 1.0 -0.0 -0.0
  outer loop
    vertex 1.9999999999999998 65.10000000000001 3.0
    vertex 1.9999999999999998 1.9999999999999998 3.9999999999999996
    vertex 1.9999999999999998 1.9999999999999998 3.0
  endloop
endfacet
facet normal 1.0 -0.0 -0.0
  outer loop
    vertex 1.9999999999999998 1.9999999999999998 3.9999999999999996
    vertex 1.9999999999999998 65.10000000000001 3.0
    vertex 1.9999999999999998 65.10000000000001 3.9999999999999996
  endloop
endfacet
facet normal 0.0 -1.0 0.0
  outer loop
    vertex 73.1 0.0 4.999999999999999
    vertex 0.0 0.0 0.0
    vertex 73.1 0.0 0.0
  endloop
endfacet
facet normal 0.0 -1.0 0.0
  outer loop
    vertex 0.0 0.0 0.0
    vertex 73.1 0.0 4.999999999999999
    vertex 0.0 0.0 4.999999999999999
  endloop
endfacet
facet normal -0.0 1.0 -0.0
  outer loop
    vertex 1.9999999999999998 1.9999999999999998 3.9999999999999996
    vertex 71.1 1.9999999999999998 3.0
    vertex 1.9999999999999998 1.9999999999999998 3.0
  endloop
endfacet
facet normal -0.0 1.0 -0.0
  outer loop
    vertex 71.1 1.9999999999999998 3.0
    vertex 1.9999999999999998 1.9999999999999998 3.9999999999999996
    vertex 71.1 1.9999999999999998 3.9999999999999996
  endloop
endfacet
facet normal -0.0 -0.0 1.0
  outer loop
    vertex 0.0 0.0 4.999999999999999
    vertex 1.0000000000000009 1.0000000000000009 5.0
    vertex 0.0 67.1 4.999999999999999
  endloop
endfacet
facet normal -0.0 -0.0 1.0
  outer loop
    vertex 1.0000000000000009 1.0000000000000009 5.0
    vertex 0.0 0.0 4.999999999999999
    vertex 73.1 0.0 4.999999999999999
  endloop
endfacet
facet normal -0.0 -0.0 1.0
  outer loop
    vertex 1.0000000000000009 1.0000000000000009 5.0
    vertex 73.1 0.0 4.999999999999999
    vertex 72.1 1.0000000000000009 5.0
  endloop
endfacet
facet normal -0.0 -0.0 1.0
  outer loop
    vertex 72.1 1.0000000000000009 5.0
    vertex 73.1 0.0 4.999999999999999
    vertex 72.1 66.10000000000001 5.0
  endloop
endfacet
facet normal -0.0 -0.0 1.0
  outer loop
    vertex 0.0 67.1 4.999999999999999
    vertex 1.0000000000000009 66.10000000000001 5.0
    vertex 73.1 67.1 4.999999999999999
  endloop
endfacet
facet normal -0.0 -0.0 1.0
  outer loop
    vertex 1.0000000000000009 66.10000000000001 5.0
    vertex 0.0 67.1 4.999999999999999
    vertex 1.0000000000000009 1.0000000000000009 5.0
  endloop
endfacet
facet normal -0.0 -0.0 1.0
  outer loop
    vertex 73.1 67.1 4.999999999999999
    vertex 1.0000000000000009 66.10000000000001 5.0
    vertex 72.1 66.10000000000001 5.0
  endloop
endfacet
facet normal -0.0 -0.0 1.0
  outer loop
    vertex 73.1 67.1 4.999999999999999
    vertex 72.1 66.10000000000001 5.0
    vertex 73.1 0.0 4.999999999999999
  endloop
endfacet
facet normal 0.0 0.0 -1.0
  outer loop
    vertex 73.1 67.1 0.0
    vertex 0.0 0.0 0.0
    vertex 0.0 67.1 0.0
  endloop
endfacet
facet normal 0.0 0.0 -1.0
  outer loop
    vertex 0.0 0.0 0.0
    vertex 73.1 67.1 0.0
    vertex 73.1 0.0 0.0
  endloop
endfacet
facet normal 0.0 -1.0 0.0
  outer loop
    vertex 71.1 65.10000000000001 3.9999999999999996
    vertex 1.9999999999999998 65.10000000000001 3.0
    vertex 71.1 65.10000000000001 3.0
  endloop
endfacet
facet normal 0.0 -1.0 0.0
  outer loop
    vertex 1.9999999999999998 65.10000000000001 3.0
    vertex 71.1 65.10000000000001 3.9999999999999996
    vertex 1.9999999999999998 65.10000000000001 3.9999999999999996
  endloop
endfacet
facet normal -0.0 -0.0 1.0
  outer loop
    vertex 67.1 6.0 0.49999999999999994
    vertex 5.999999999999997 61.1 0.49999999999999994
    vertex 5.999999999999997 6.0 0.49999999999999994
  endloop
endfacet
facet normal -0.0 -0.0 1.0
  outer loop
    vertex 5.999999999999997 61.1 0.49999999999999994
    vertex 67.1 6.0 0.49999999999999994
    vertex 67.1 61.1 0.49999999999999994
  endloop
endfacet
facet normal -1.0 0.0 0.0
  outer loop
    vertex 67.1 61.1 3.0
    vertex 67.1 6.0 0.49999999999999994
    vertex 67.1 6.0 3.0
  endloop
endfacet
facet normal -1.0 0.0 0.0
  outer loop
    vertex 67.1 6.0 0.49999999999999994
    vertex 67.1 61.1 3.0
    vertex 67.1 61.1 0.49999999999999994
  endloop
endfacet
facet normal -0.0 1.0 -0.0
  outer loop
    vertex 5.999999999999997 6.0 3.0
    vertex 67.1 6.0 0.49999999999999994
    vertex 5.999999999999997 6.0 0.49999999999999994
  endloop
endfacet
facet normal -0.0 1.0 -0.0
  outer loop
    vertex 67.1 6.0 0.49999999999999994
    vertex 5.999999999999997 6.0 3.0
    vertex 67.1 6.0 3.0
  endloop
endfacet
facet normal 0.0 -1.0 0.0
  outer loop
    vertex 67.1 61.1 3.0
    vertex 5.999999999999997 61.1 0.49999999999999994
    vertex 67.1 61.1 0.49999999999999994
  endloop
endfacet
facet normal 0.0 -1.0 0.0
  outer loop
    vertex 5.999999999999997 61.1 0.49999999999999994
    vertex 67.1 61.1 3.0
    vertex 5.999999999999997 61.1 3.0
  endloop
endfacet
facet normal 1.0 -0.0 -0.0
  outer loop
    vertex 5.999999999999997 61.1 0.49999999999999994
    vertex 5.999999999999997 6.0 3.0
    vertex 5.999999999999997 6.0 0.49999999999999994
  endloop
endfacet
facet normal 1.0 -0.0 -0.0
  outer loop
    vertex 5.999999999999997 6.0 3.0
    vertex 5.999999999999997 61.1 0.49999999999999994
    vertex 5.999999999999997 61.1 3.0
  endloop
endfacet
facet normal -0.0 -0.0 1.0
  outer loop
    vertex 1.9999999999999998 1.9999999999999998 3.0
    vertex 5.999999999999997 6.0 3.0
    vertex 1.9999999999999998 65.10000000000001 3.0
  endloop
endfacet
facet normal -0.0 -0.0 1.0
  outer loop
    vertex 5.999999999999997 6.0 3.0
    vertex 1.9999999999999998 1.9999999999999998 3.0
    vertex 71.1 1.9999999999999998 3.0
  endloop
endfacet
facet normal -0.0 -0.0 1.0
  outer loop
    vertex 5.999999999999997 6.0 3.0
    vertex 71.1 1.9999999999999998 3.0
    vertex 67.1 6.0 3.0
  endloop
endfacet
facet normal -0.0 -0.0 1.0
  outer loop
    vertex 67.1 6.0 3.0
    vertex 71.1 1.9999999999999998 3.0
    vertex 67.1 61.1 3.0
  endloop
endfacet
facet normal -0.0 -0.0 1.0
  outer loop
    vertex 1.9999999999999998 65.10000000000001 3.0
    vertex 5.999999999999997 61.1 3.0
    vertex 71.1 65.10000000000001 3.0
  endloop
endfacet
facet normal -0.0 -0.0 1.0
  outer loop
    vertex 5.999999999999997 61.1 3.0
    vertex 1.9999999999999998 65.10000000000001 3.0
    vertex 5.999999999999997 6.0 3.0
  endloop
endfacet
facet normal -0.0 -0.0 1.0
  outer loop
    vertex 71.1 65.10000000000001 3.0
    vertex 5.999999999999997 61.1 3.0
    vertex 67.1 61.1 3.0
  endloop
endfacet
facet normal -0.0 -0.0 1.0
  outer loop
    vertex 71.1 65.10000000000001 3.0
    vertex 67.1 61.1 3.0
    vertex 71.1 1.9999999999999998 3.0
  endloop
endfacet
endsolid BreakoutBoard
