solid Extra-Characters_1_export
facet normal -0.0 -0.0 1.0
  outer loop
    vertex 85.23585193617765 155.0222750460217 1.0000000000088702
    vertex 85.23585193617765 159.2546050982203 1.0000000000088702
    vertex 84.82367126347226 157.13840172259802 1.0000000000088702
  endloop
endfacet
facet normal -0.0 -0.0 1.0
  outer loop
    vertex 85.23585193617765 159.2546050982203 1.0000000000088702
    vertex 85.23585193617765 155.0222750460217 1.0000000000088702
    vertex 86.47239395429091 153.17766299195654 1.0000000000088702
  endloop
endfacet
facet normal -0.0 -0.0 1.0
  outer loop
    vertex 85.23585193617765 159.2546050982203 1.0000000000088702
    vertex 86.47239395429091 153.17766299195654 1.0000000000088702
    vertex 86.47239395429091 161.09944724942324 1.0000000000088702
  endloop
endfacet
facet normal -0.0 -0.0 1.0
  outer loop
    vertex 86.47239395429091 161.09944724942324 1.0000000000088702
    vertex 86.47239395429091 153.17766299195654 1.0000000000088702
    vertex 88.31209726941707 151.8960219348492 1.0000000000088702
  endloop
endfacet
facet normal -0.0 -0.0 1.0
  outer loop
    vertex 86.47239395429091 161.09944724942324 1.0000000000088702
    vertex 88.31209726941707 151.8960219348492 1.0000000000088702
    vertex 88.31209726941707 162.38131840366827 1.0000000000088702
  endloop
endfacet
facet normal -0.0 -0.0 1.0
  outer loop
    vertex 88.31209726941707 162.38131840366827 1.0000000000088702
    vertex 88.31209726941707 151.8960219348492 1.0000000000088702
    vertex 90.53376183316408 151.46880824914678 1.0000000000088702
  endloop
endfacet
facet normal -0.0 -0.0 1.0
  outer loop
    vertex 88.31209726941707 162.38131840366827 1.0000000000088702
    vertex 90.53376183316408 151.46880824914678 1.0000000000088702
    vertex 90.53376183316408 162.80860878841665 1.0000000000088702
  endloop
endfacet
facet normal -0.0 -0.0 1.0
  outer loop
    vertex 90.53376183316408 162.80860878841665 1.0000000000088702
    vertex 90.53376183316408 151.46880824914678 1.0000000000088702
    vertex 92.78035358682753 151.8960219348492 1.0000000000088702
  endloop
endfacet
facet normal -0.0 -0.0 1.0
  outer loop
    vertex 90.53376183316408 162.80860878841665 1.0000000000088702
    vertex 92.78035358682753 151.8960219348492 1.0000000000088702
    vertex 92.78035358682753 162.38131840366827 1.0000000000088702
  endloop
endfacet
facet normal -0.0 -0.0 1.0
  outer loop
    vertex 92.78035358682753 162.38131840366827 1.0000000000088702
    vertex 92.78035358682753 151.8960219348492 1.0000000000088702
    vertex 94.61507146397099 153.17766299195654 1.0000000000088702
  endloop
endfacet
facet normal -0.0 -0.0 1.0
  outer loop
    vertex 92.78035358682753 162.38131840366827 1.0000000000088702
    vertex 94.61507146397099 153.17766299195654 1.0000000000088702
    vertex 94.61507146397099 161.09944724942324 1.0000000000088702
  endloop
endfacet
facet normal -0.0 -0.0 1.0
  outer loop
    vertex 94.61507146397099 161.09944724942324 1.0000000000088702
    vertex 94.61507146397099 153.17766299195654 1.0000000000088702
    vertex 95.83665716813321 155.0222750460217 1.0000000000088702
  endloop
endfacet
facet normal -0.0 -0.0 1.0
  outer loop
    vertex 94.61507146397099 161.09944724942324 1.0000000000088702
    vertex 95.83665716813321 155.0222750460217 1.0000000000088702
    vertex 95.83665716813321 159.2546050982203 1.0000000000088702
  endloop
endfacet
facet normal -0.0 -0.0 1.0
  outer loop
    vertex 95.83665716813321 159.2546050982203 1.0000000000088702
    vertex 95.83665716813321 155.0222750460217 1.0000000000088702
    vertex 96.243852402853 157.13840172259802 1.0000000000088702
  endloop
endfacet
facet normal -1.6166931067212024e-16 -2.210019455041035e-15 1.0
  outer loop
    vertex 94.35398791170276 166.78959606717768 1.0000000000088702
    vertex 86.83379985860437 169.0414800550096 1.0000000000088702
    vertex 86.83379985860437 166.78959606717768 1.0000000000088702
  endloop
endfacet
facet normal -1.6166931067212024e-16 -2.210019455041035e-15 1.0
  outer loop
    vertex 86.83379985860437 169.0414800550096 1.0000000000088702
    vertex 94.35398791170276 166.78959606717768 1.0000000000088702
    vertex 87.13545720615645 172.8161469002806 1.0000000000088702
  endloop
endfacet
facet normal -1.6166931067212024e-16 -2.210019455041035e-15 1.0
  outer loop
    vertex 87.13545720615645 172.8161469002806 1.0000000000088702
    vertex 94.35398791170276 166.78959606717768 1.0000000000088702
    vertex 88.04042924881556 175.937644670607 1.0000000000088702
  endloop
endfacet
facet normal -1.6166931067212024e-16 -2.210019455041035e-15 1.0
  outer loop
    vertex 88.04042924881556 175.937644670607 1.0000000000088702
    vertex 94.35398791170276 166.78959606717768 1.0000000000088702
    vertex 90.68294531897082 180.09267094273042 1.0000000000089095
  endloop
endfacet
facet normal -1.6166931067212024e-16 -2.210019455041035e-15 1.0
  outer loop
    vertex 90.68294531897082 180.09267094273042 1.0000000000089095
    vertex 94.35398791170276 166.78959606717768 1.0000000000088702
    vertex 94.35398791170276 169.00098295877063 1.0000000000088702
  endloop
endfacet
facet normal -1.6166931067212024e-16 -2.210019455041035e-15 1.0
  outer loop
    vertex 90.68294531897082 180.09267094273042 1.0000000000089095
    vertex 94.35398791170276 169.00098295877063 1.0000000000088702
    vertex 94.6002685481112 171.72533306939016 1.0000000000088702
  endloop
endfacet
facet normal -1.6166931067212024e-16 -2.210019455041035e-15 1.0
  outer loop
    vertex 90.68294531897082 180.09267094273042 1.0000000000089095
    vertex 94.6002685481112 171.72533306939016 1.0000000000088702
    vertex 95.33911045733363 174.027531631337 1.0000000000088702
  endloop
endfacet
facet normal -1.6166931067212024e-16 -2.210019455041035e-15 1.0
  outer loop
    vertex 90.68294531897082 180.09267094273042 1.0000000000089095
    vertex 95.33911045733363 174.027531631337 1.0000000000088702
    vertex 97.91251684560827 177.727186809711 1.0000000000088702
  endloop
endfacet
facet normal -1.6166931067212024e-16 -2.210019455041035e-15 1.0
  outer loop
    vertex 90.68294531897082 180.09267094273042 1.0000000000089095
    vertex 97.91251684560827 177.727186809711 1.0000000000088702
    vertex 100.4467465028283 180.09267094273042 1.0000000000089095
  endloop
endfacet
facet normal -0.0 1.0 -0.0
  outer loop
    vertex 38.28394987501827 180.09267094273042 1.0000000000176394
    vertex 48.901201546368235 180.09267094273042 0.8000000000176395
    vertex 38.28394987501827 180.09267094273042 0.8000000000176395
  endloop
endfacet
facet normal -0.0 1.0 -0.0
  outer loop
    vertex 48.901201546368235 180.09267094273042 0.8000000000176395
    vertex 38.28394987501827 180.09267094273042 1.0000000000176394
    vertex 48.901201546368235 180.09267094273042 1.0000000000176394
  endloop
endfacet
facet normal -0.39749801021263775 0.9176030361092938 4.651735071544886e-15
  outer loop
    vertex 11.101457353892812 168.31744106164675 1.0000000000175493
    vertex 38.28394987501827 180.09267094273042 0.8000000000176395
    vertex 11.101457353892812 168.31744106164675 0.8000000000175493
  endloop
endfacet
facet normal -0.39749801021263775 0.9176030361092938 4.651735071544886e-15
  outer loop
    vertex 38.28394987501827 180.09267094273042 0.8000000000176395
    vertex 11.101457353892812 168.31744106164675 1.0000000000175493
    vertex 38.28394987501827 180.09267094273042 1.0000000000176394
  endloop
endfacet
facet normal 5.747162805537155e-16 7.0121835906737515e-15 1.0
  outer loop
    vertex 101.61641918545496 181.1926709427309 1.0000000000093072
    vertex 94.87676860860418 184.4027649692796 1.0000000000088702
    vertex 91.56090941166427 181.1926709427309 1.0000000000093072
  endloop
endfacet
facet normal 5.747162805537155e-16 7.0121835906737515e-15 1.0
  outer loop
    vertex 94.87676860860418 184.4027649692796 1.0000000000088702
    vertex 101.61641918545496 181.1926709427309 1.0000000000093072
    vertex 99.2194685878647 188.78565524859368 1.0000000000088702
  endloop
endfacet
facet normal 5.747162805537155e-16 7.0121835906737515e-15 1.0
  outer loop
    vertex 99.2194685878647 188.78565524859368 1.0000000000088702
    vertex 101.61641918545496 181.1926709427309 1.0000000000093072
    vertex 100.63709705336568 191.3492441589919 1.0000000000088702
  endloop
endfacet
facet normal 5.747162805537155e-16 7.0121835906737515e-15 1.0
  outer loop
    vertex 100.63709705336568 191.3492441589919 1.0000000000088702
    vertex 101.61641918545496 181.1926709427309 1.0000000000093072
    vertex 101.1096398751974 194.53624291452292 1.0000000000088702
  endloop
endfacet
facet normal 5.747162805537155e-16 7.0121835906737515e-15 1.0
  outer loop
    vertex 80.60092859201114 192.40462303067324 1.0000000000088702
    vertex 73.92090188778214 197.27531924195654 1.0000000000088702
    vertex 73.3629930278533 192.40462303067324 1.0000000000088702
  endloop
endfacet
facet normal 5.747162805537155e-16 7.0121835906737515e-15 1.0
  outer loop
    vertex 73.92090188778214 197.27531924195654 1.0000000000088702
    vertex 80.60092859201114 192.40462303067324 1.0000000000088702
    vertex 75.59462846756574 201.51278813023075 1.0000000000088702
  endloop
endfacet
facet normal 5.747162805537155e-16 7.0121835906737515e-15 1.0
  outer loop
    vertex 75.59462846756574 201.51278813023075 1.0000000000088702
    vertex 80.60092859201114 192.40462303067324 1.0000000000088702
    vertex 78.28875915409886 205.00129083522245 1.0000000000088702
  endloop
endfacet
facet normal 5.747162805537155e-16 7.0121835906737515e-15 1.0
  outer loop
    vertex 78.28875915409886 205.00129083522245 1.0000000000088702
    vertex 80.60092859201114 192.40462303067324 1.0000000000088702
    vertex 81.90788033427046 207.62508849665772 1.0000000000088702
  endloop
endfacet
facet normal 5.747162805537155e-16 7.0121835906737515e-15 1.0
  outer loop
    vertex 81.90788033427046 207.62508849665772 1.0000000000088702
    vertex 80.60092859201114 192.40462303067324 1.0000000000088702
    vertex 81.30970447524027 196.5918540438785 1.0000000000088702
  endloop
endfacet
facet normal 5.747162805537155e-16 7.0121835906737515e-15 1.0
  outer loop
    vertex 81.90788033427046 207.62508849665772 1.0000000000088702
    vertex 81.30970447524027 196.5918540438785 1.0000000000088702
    vertex 83.43603212492185 199.90425573946752 1.0000000000088702
  endloop
endfacet
facet normal 5.747162805537155e-16 7.0121835906737515e-15 1.0
  outer loop
    vertex 81.90788033427046 207.62508849665772 1.0000000000088702
    vertex 83.43603212492185 199.90425573946752 1.0000000000088702
    vertex 86.34645412091284 209.2686723514007 1.0000000000088702
  endloop
endfacet
facet normal 5.747162805537155e-16 7.0121835906737515e-15 1.0
  outer loop
    vertex 86.34645412091284 209.2686723514007 1.0000000000088702
    vertex 83.43603212492185 199.90425573946752 1.0000000000088702
    vertex 86.86931151685988 202.06049601705334 1.0000000000088702
  endloop
endfacet
facet normal 5.747162805537155e-16 7.0121835906737515e-15 1.0
  outer loop
    vertex 86.34645412091284 209.2686723514007 1.0000000000088702
    vertex 86.86931151685988 202.06049601705334 1.0000000000088702
    vertex 91.49894262685831 209.81653363631486 1.0000000000088702
  endloop
endfacet
facet normal 5.747162805537155e-16 7.0121835906737515e-15 1.0
  outer loop
    vertex 91.49894262685831 209.81653363631486 1.0000000000088702
    vertex 86.86931151685988 202.06049601705334 1.0000000000088702
    vertex 91.49894262685831 202.77924277624842 1.0000000000088702
  endloop
endfacet
facet normal 5.747162805537155e-16 7.0121835906737515e-15 1.0
  outer loop
    vertex 91.49894262685831 209.81653363631486 1.0000000000088702
    vertex 91.49894262685831 202.77924277624842 1.0000000000088702
    vertex 95.64053770774883 202.1811436162651 1.0000000000088702
  endloop
endfacet
facet normal 5.747162805537155e-16 7.0121835906737515e-15 1.0
  outer loop
    vertex 91.49894262685831 209.81653363631486 1.0000000000088702
    vertex 95.64053770774883 202.1811436162651 1.0000000000088702
    vertex 96.62098161157947 209.30387721347194 1.0000000000088702
  endloop
endfacet
facet normal 5.747162805537155e-16 7.0121835906737515e-15 1.0
  outer loop
    vertex 96.62098161157947 209.30387721347194 1.0000000000088702
    vertex 95.64053770774883 202.1811436162651 1.0000000000088702
    vertex 98.65649759090753 200.38684613631497 1.0000000000088702
  endloop
endfacet
facet normal 5.747162805537155e-16 7.0121835906737515e-15 1.0
  outer loop
    vertex 96.62098161157947 209.30387721347194 1.0000000000088702
    vertex 98.65649759090753 200.38684613631497 1.0000000000088702
    vertex 100.88843982680244 207.7659079449432 1.0000000000088702
  endloop
endfacet
facet normal 5.747162805537155e-16 7.0121835906737515e-15 1.0
  outer loop
    vertex 100.88843982680244 207.7659079449432 1.0000000000088702
    vertex 98.65649759090753 200.38684613631497 1.0000000000088702
    vertex 100.49635430412494 197.72799701090017 1.0000000000088702
  endloop
endfacet
facet normal 5.747162805537155e-16 7.0121835906737515e-15 1.0
  outer loop
    vertex 100.88843982680244 207.7659079449432 1.0000000000088702
    vertex 100.49635430412494 197.72799701090017 1.0000000000088702
    vertex 101.1096398751974 194.53624291452292 1.0000000000088702
  endloop
endfacet
facet normal 5.747162805537155e-16 7.0121835906737515e-15 1.0
  outer loop
    vertex 100.88843982680244 207.7659079449432 1.0000000000088702
    vertex 101.1096398751974 194.53624291452292 1.0000000000088702
    vertex 104.26112697247441 205.35326275689002 1.0000000000088702
  endloop
endfacet
facet normal 5.747162805537155e-16 7.0121835906737515e-15 1.0
  outer loop
    vertex 104.26112697247441 205.35326275689002 1.0000000000088702
    vertex 101.1096398751974 194.53624291452292 1.0000000000088702
    vertex 101.61641918545496 181.1926709427309 1.0000000000093072
  endloop
endfacet
facet normal 5.747162805537155e-16 7.0121835906737515e-15 1.0
  outer loop
    vertex 104.26112697247441 205.35326275689002 1.0000000000088702
    vertex 101.61641918545496 181.1926709427309 1.0000000000093072
    vertex 104.78904650545267 184.22144842475518 1.0000000000088702
  endloop
endfacet
facet normal 5.747162805537155e-16 7.0121835906737515e-15 1.0
  outer loop
    vertex 104.26112697247441 205.35326275689002 1.0000000000088702
    vertex 104.78904650545267 184.22144842475518 1.0000000000088702
    vertex 106.69885274853954 202.21657857547427 1.0000000000088702
  endloop
endfacet
facet normal 5.747162805537155e-16 7.0121835906737515e-15 1.0
  outer loop
    vertex 106.69885274853954 202.21657857547427 1.0000000000088702
    vertex 104.78904650545267 184.22144842475518 1.0000000000088702
    vertex 107.58365294212227 188.46382605196757 1.0000000000088702
  endloop
endfacet
facet normal 5.747162805537155e-16 7.0121835906737515e-15 1.0
  outer loop
    vertex 106.69885274853954 202.21657857547427 1.0000000000088702
    vertex 107.58365294212227 188.46382605196757 1.0000000000088702
    vertex 108.17653656698438 198.52704767116003 1.0000000000088702
  endloop
endfacet
facet normal 5.747162805537155e-16 7.0121835906737515e-15 1.0
  outer loop
    vertex 108.17653656698438 198.52704767116003 1.0000000000088702
    vertex 107.58365294212227 188.46382605196757 1.0000000000088702
    vertex 108.39773661538223 191.18825286163295 1.0000000000088702
  endloop
endfacet
facet normal 5.747162805537155e-16 7.0121835906737515e-15 1.0
  outer loop
    vertex 108.17653656698438 198.52704767116003 1.0000000000088702
    vertex 108.39773661538223 191.18825286163295 1.0000000000088702
    vertex 108.66909783980125 194.45586231441214 1.0000000000088702
  endloop
endfacet
facet normal 1.0 -0.0 -0.0
  outer loop
    vertex 48.901201546368235 180.09267094273042 0.8000000000176395
    vertex 48.901201546368235 177.36547410921293 1.0000000000175493
    vertex 48.901201546368235 177.36547410921293 0.8000000000175493
  endloop
endfacet
facet normal 1.0 -0.0 -0.0
  outer loop
    vertex 48.901201546368235 177.36547410921293 1.0000000000175493
    vertex 48.901201546368235 180.09267094273042 0.8000000000176395
    vertex 48.901201546368235 180.09267094273042 1.0000000000176394
  endloop
endfacet
facet normal 1.237825791107831e-15 -6.763479493025628e-15 1.0
  outer loop
    vertex 48.901201546368235 177.36547410921293 1.0000000000175493
    vertex 11.101457353892812 168.31744106164675 1.0000000000175493
    vertex 11.101457353892812 160.87824720102736 1.0000000000175493
  endloop
endfacet
facet normal 1.237825791107831e-15 -6.763479493025628e-15 1.0
  outer loop
    vertex 11.101457353892812 168.31744106164675 1.0000000000175493
    vertex 48.901201546368235 177.36547410921293 1.0000000000175493
    vertex 38.28394987501827 180.09267094273042 1.0000000000176394
  endloop
endfacet
facet normal 1.237825791107831e-15 -6.763479493025628e-15 1.0
  outer loop
    vertex 38.28394987501827 180.09267094273042 1.0000000000176394
    vertex 48.901201546368235 177.36547410921293 1.0000000000175493
    vertex 48.901201546368235 180.09267094273042 1.0000000000176394
  endloop
endfacet
facet normal 0.39979764459969697 -0.9166034275369772 0.0
  outer loop
    vertex 48.901201546368235 177.36547410921293 1.0000000000175493
    vertex 11.101457353892812 160.87824720102736 0.8000000000175493
    vertex 48.901201546368235 177.36547410921293 0.8000000000175493
  endloop
endfacet
facet normal 0.39979764459969697 -0.9166034275369772 0.0
  outer loop
    vertex 11.101457353892812 160.87824720102736 0.8000000000175493
    vertex 48.901201546368235 177.36547410921293 1.0000000000175493
    vertex 11.101457353892812 160.87824720102736 1.0000000000175493
  endloop
endfacet
facet normal -1.0 0.0 0.0
  outer loop
    vertex 11.101457353892812 168.31744106164675 1.0000000000175493
    vertex 11.101457353892812 160.87824720102736 0.8000000000175493
    vertex 11.101457353892812 160.87824720102736 1.0000000000175493
  endloop
endfacet
facet normal -1.0 0.0 0.0
  outer loop
    vertex 11.101457353892812 160.87824720102736 0.8000000000175493
    vertex 11.101457353892812 168.31744106164675 1.0000000000175493
    vertex 11.101457353892812 168.31744106164675 0.8000000000175493
  endloop
endfacet
facet normal -4.989038146439839e-15 -8.295107412212123e-15 -1.0
  outer loop
    vertex 21.44714329972281 180.09275667245782 1.867945798039728e-11
    vertex 11.100127903762933 177.40544334281205 1.904041369016341e-11
    vertex 11.100127903762933 180.09275667245782 1.867945798039728e-11
  endloop
endfacet
facet normal -4.989038146439839e-15 -8.295107412212123e-15 -1.0
  outer loop
    vertex 11.100127903762933 177.40544334281205 1.904041369016341e-11
    vertex 21.44714329972281 180.09275667245782 1.867945798039728e-11
    vertex 48.89987209624124 160.797952330644 1.867945798039728e-11
  endloop
endfacet
facet normal -4.989038146439839e-15 -8.295107412212123e-15 -1.0
  outer loop
    vertex 48.89987209624124 160.797952330644 1.867945798039728e-11
    vertex 21.44714329972281 180.09275667245782 1.867945798039728e-11
    vertex 48.89987209624124 168.27764328750231 1.8859935835280347e-11
  endloop
endfacet
facet normal 6.101851789459779e-15 3.347662209305356e-14 1.0
  outer loop
    vertex 38.55418615041074 181.1926709427309 1.0000000000180005
    vertex 11.101457353892812 200.48747528454487 1.0000000000175493
    vertex 11.101457353892812 193.00778432768632 1.0000000000175493
  endloop
endfacet
facet normal 6.101851789459779e-15 3.347662209305356e-14 1.0
  outer loop
    vertex 11.101457353892812 200.48747528454487 1.0000000000175493
    vertex 38.55418615041074 181.1926709427309 1.0000000000180005
    vertex 48.901201546368235 183.87998427237673 1.0000000000175493
  endloop
endfacet
facet normal 6.101851789459779e-15 3.347662209305356e-14 1.0
  outer loop
    vertex 48.901201546368235 183.87998427237673 1.0000000000175493
    vertex 38.55418615041074 181.1926709427309 1.0000000000180005
    vertex 48.901201546368235 181.1926709427309 1.0000000000180005
  endloop
endfacet
facet normal -1.237825791107834e-15 6.763479493025632e-15 -1.0
  outer loop
    vertex 38.28394987501827 180.09267094273042 0.8000000000176395
    vertex 11.101457353892812 160.87824720102736 0.8000000000175493
    vertex 11.101457353892812 168.31744106164675 0.8000000000175493
  endloop
endfacet
facet normal -1.237825791107834e-15 6.763479493025632e-15 -1.0
  outer loop
    vertex 11.101457353892812 160.87824720102736 0.8000000000175493
    vertex 38.28394987501827 180.09267094273042 0.8000000000176395
    vertex 48.901201546368235 177.36547410921293 0.8000000000175493
  endloop
endfacet
facet normal -1.237825791107834e-15 6.763479493025632e-15 -1.0
  outer loop
    vertex 48.901201546368235 177.36547410921293 0.8000000000175493
    vertex 38.28394987501827 180.09267094273042 0.8000000000176395
    vertex 48.901201546368235 180.09267094273042 0.8000000000176395
  endloop
endfacet
facet normal 0.0 1.217012092910917e-14 -1.0
  outer loop
    vertex 94.95703009353973 180.0927566724571 1.0026744570002742e-11
    vertex 103.02400716145931 146.784116254869 9.621374388136482e-12
    vertex 87.47733913668245 180.0927566724571 1.0026744570002742e-11
  endloop
endfacet
facet normal 0.0 1.217012092910917e-14 -1.0
  outer loop
    vertex 103.02400716145931 146.784116254869 9.621374388136482e-12
    vertex 94.95703009353973 180.0927566724571 1.0026744570002742e-11
    vertex 110.50369811831659 146.784116254869 9.621374388136482e-12
  endloop
endfacet
facet normal 0.0 3.2510096951498257e-14 -1.0
  outer loop
    vertex 17.896941688560748 214.50139709004603 1.831850227063115e-11
    vertex 25.963918756480467 181.1927566724576 1.7235635141332755e-11
    vertex 10.41725073170383 214.50139709004603 1.831850227063115e-11
  endloop
endfacet
facet normal 0.0 3.2510096951498257e-14 -1.0
  outer loop
    vertex 25.963918756480467 181.1927566724576 1.7235635141332755e-11
    vertex 17.896941688560748 214.50139709004603 1.831850227063115e-11
    vertex 33.44360971333775 181.1927566724576 1.7235635141332755e-11
  endloop
endfacet
facet normal 0.0 -1.0 0.0
  outer loop
    vertex 48.901201546368235 181.1926709427309 1.0000000000180005
    vertex 38.55418615041074 181.1926709427309 0.8000000000180005
    vertex 48.901201546368235 181.1926709427309 0.8000000000180005
  endloop
endfacet
facet normal 0.0 -1.0 0.0
  outer loop
    vertex 38.55418615041074 181.1926709427309 0.8000000000180005
    vertex 48.901201546368235 181.1926709427309 1.0000000000180005
    vertex 38.55418615041074 181.1926709427309 1.0000000000180005
  endloop
endfacet
facet normal 0.0 -1.0 0.0
  outer loop
    vertex 33.44360971333775 181.1927566724576 0.2000000000172359
    vertex 25.963918756480467 181.1927566724576 1.7235635141332755e-11
    vertex 33.44360971333775 181.1927566724576 1.7235635141332755e-11
  endloop
endfacet
facet normal 0.0 -1.0 0.0
  outer loop
    vertex 25.963918756480467 181.1927566724576 1.7235635141332755e-11
    vertex 33.44360971333775 181.1927566724576 0.2000000000172359
    vertex 25.963918756480467 181.1927566724576 0.2000000000172359
  endloop
endfacet
facet normal 0.40224350141664833 0.9155327222814458 -0.0
  outer loop
    vertex 11.101457353892812 200.48747528454487 1.0000000000175493
    vertex 48.901201546368235 183.87998427237673 0.8000000000175493
    vertex 11.101457353892812 200.48747528454487 0.8000000000175493
  endloop
endfacet
facet normal 0.40224350141664833 0.9155327222814458 -0.0
  outer loop
    vertex 48.901201546368235 183.87998427237673 0.8000000000175493
    vertex 11.101457353892812 200.48747528454487 1.0000000000175493
    vertex 48.901201546368235 183.87998427237673 1.0000000000175493
  endloop
endfacet
facet normal -0.4022435014166208 -0.9155327222814579 -3.62343280564679e-15
  outer loop
    vertex 48.89987209624124 160.797952330644 0.2000000000186797
    vertex 11.100127903762933 177.40544334281205 1.904041369016341e-11
    vertex 48.89987209624124 160.797952330644 1.867945798039728e-11
  endloop
endfacet
facet normal -0.4022435014166208 -0.9155327222814579 -3.62343280564679e-15
  outer loop
    vertex 11.100127903762933 177.40544334281205 1.904041369016341e-11
    vertex 48.89987209624124 160.797952330644 0.2000000000186797
    vertex 11.100127903762933 177.40544334281205 0.20000000001904067
  endloop
endfacet
facet normal 1.0 -0.0 -0.0
  outer loop
    vertex 48.901201546368235 183.87998427237673 0.8000000000175493
    vertex 48.901201546368235 181.1926709427309 1.0000000000180005
    vertex 48.901201546368235 181.1926709427309 0.8000000000180005
  endloop
endfacet
facet normal 1.0 -0.0 -0.0
  outer loop
    vertex 48.901201546368235 181.1926709427309 1.0000000000180005
    vertex 48.901201546368235 183.87998427237673 0.8000000000175493
    vertex 48.901201546368235 183.87998427237673 1.0000000000175493
  endloop
endfacet
facet normal -0.0 -3.2510096951498257e-14 1.0
  outer loop
    vertex 25.963918756480467 181.1927566724576 0.2000000000172359
    vertex 17.896941688560748 214.50139709004603 0.20000000001831875
    vertex 10.41725073170383 214.50139709004603 0.20000000001831875
  endloop
endfacet
facet normal -0.0 -3.2510096951498257e-14 1.0
  outer loop
    vertex 17.896941688560748 214.50139709004603 0.20000000001831875
    vertex 25.963918756480467 181.1927566724576 0.2000000000172359
    vertex 33.44360971333775 181.1927566724576 0.2000000000172359
  endloop
endfacet
facet normal 1.0 -0.0 -0.0
  outer loop
    vertex 48.89987209624124 168.27764328750231 1.8859935835280347e-11
    vertex 48.89987209624124 160.797952330644 0.2000000000186797
    vertex 48.89987209624124 160.797952330644 1.867945798039728e-11
  endloop
endfacet
facet normal 1.0 -0.0 -0.0
  outer loop
    vertex 48.89987209624124 160.797952330644 0.2000000000186797
    vertex 48.89987209624124 168.27764328750231 1.8859935835280347e-11
    vertex 48.89987209624124 168.27764328750231 0.20000000001886017
  endloop
endfacet
facet normal 0.0 -1.0 0.0
  outer loop
    vertex 94.35398791170276 166.78959606717768 1.0000000000088702
    vertex 86.83379985860437 166.78959606717768 0.8000000000088702
    vertex 94.35398791170276 166.78959606717768 0.8000000000088702
  endloop
endfacet
facet normal 0.0 -1.0 0.0
  outer loop
    vertex 86.83379985860437 166.78959606717768 0.8000000000088702
    vertex 94.35398791170276 166.78959606717768 1.0000000000088702
    vertex 86.83379985860437 166.78959606717768 1.0000000000088702
  endloop
endfacet
facet normal 4.989038146439828e-15 8.295107412212099e-15 1.0
  outer loop
    vertex 48.89987209624124 160.797952330644 0.2000000000186797
    vertex 11.100127903762933 180.09275667245782 0.2000000000186797
    vertex 11.100127903762933 177.40544334281205 0.20000000001904067
  endloop
endfacet
facet normal 4.989038146439828e-15 8.295107412212099e-15 1.0
  outer loop
    vertex 11.100127903762933 180.09275667245782 0.2000000000186797
    vertex 48.89987209624124 160.797952330644 0.2000000000186797
    vertex 21.44714329972281 180.09275667245782 0.2000000000186797
  endloop
endfacet
facet normal 4.989038146439828e-15 8.295107412212099e-15 1.0
  outer loop
    vertex 21.44714329972281 180.09275667245782 0.2000000000186797
    vertex 48.89987209624124 160.797952330644 0.2000000000186797
    vertex 48.89987209624124 168.27764328750231 0.20000000001886017
  endloop
endfacet
facet normal -0.9061556590129449 -0.4229443481580239 8.531086999264813e-16
  outer loop
    vertex 10.41725073170383 214.50139709004603 0.20000000001831875
    vertex 25.963918756480467 181.1927566724576 1.7235635141332755e-11
    vertex 25.963918756480467 181.1927566724576 0.2000000000172359
  endloop
endfacet
facet normal -0.9061556590129449 -0.4229443481580239 8.531086999264813e-16
  outer loop
    vertex 25.963918756480467 181.1927566724576 1.7235635141332755e-11
    vertex 10.41725073170383 214.50139709004603 0.20000000001831875
    vertex 10.41725073170383 214.50139709004603 1.831850227063115e-11
  endloop
endfacet
facet normal 1.0 -0.0 -0.0
  outer loop
    vertex 94.35398791170276 169.00098295877063 0.8000000000088702
    vertex 94.35398791170276 166.78959606717768 1.0000000000088702
    vertex 94.35398791170276 166.78959606717768 0.8000000000088702
  endloop
endfacet
facet normal 1.0 -0.0 -0.0
  outer loop
    vertex 94.35398791170276 166.78959606717768 1.0000000000088702
    vertex 94.35398791170276 169.00098295877063 0.8000000000088702
    vertex 94.35398791170276 169.00098295877063 1.0000000000088702
  endloop
endfacet
facet normal 0.8209329516933299 -0.5710245956384689 -0.0
  outer loop
    vertex 97.91251684560827 177.727186809711 0.8000000000088702
    vertex 95.33911045733363 174.027531631337 1.0000000000088702
    vertex 95.33911045733363 174.027531631337 0.8000000000088702
  endloop
endfacet
facet normal 0.8209329516933299 -0.5710245956384689 -0.0
  outer loop
    vertex 95.33911045733363 174.027531631337 1.0000000000088702
    vertex 97.91251684560827 177.727186809711 0.8000000000088702
    vertex 97.91251684560827 177.727186809711 1.0000000000088702
  endloop
endfacet
facet normal 0.906155659012941 0.42294434815803195 -8.531087087763751e-16
  outer loop
    vertex 17.896941688560748 214.50139709004603 1.831850227063115e-11
    vertex 33.44360971333775 181.1927566724576 0.2000000000172359
    vertex 33.44360971333775 181.1927566724576 1.7235635141332755e-11
  endloop
endfacet
facet normal 0.906155659012941 0.42294434815803195 -8.531087087763751e-16
  outer loop
    vertex 33.44360971333775 181.1927566724576 0.2000000000172359
    vertex 17.896941688560748 214.50139709004603 1.831850227063115e-11
    vertex 17.896941688560748 214.50139709004603 0.20000000001831875
  endloop
endfacet
facet normal -0.39532253378065374 -0.9185423747902128 -4.147688142908511e-16
  outer loop
    vertex 38.55418615041074 181.1926709427309 0.8000000000180005
    vertex 11.101457353892812 193.00778432768632 1.0000000000175493
    vertex 11.101457353892812 193.00778432768632 0.8000000000175493
  endloop
endfacet
facet normal -0.39532253378065374 -0.9185423747902128 -4.147688142908511e-16
  outer loop
    vertex 11.101457353892812 193.00778432768632 1.0000000000175493
    vertex 38.55418615041074 181.1926709427309 0.8000000000180005
    vertex 38.55418615041074 181.1926709427309 1.0000000000180005
  endloop
endfacet
facet normal -0.0 1.0 -0.0
  outer loop
    vertex 10.41725073170383 214.50139709004603 0.20000000001831875
    vertex 17.896941688560748 214.50139709004603 1.831850227063115e-11
    vertex 10.41725073170383 214.50139709004603 1.831850227063115e-11
  endloop
endfacet
facet normal -0.0 1.0 -0.0
  outer loop
    vertex 17.896941688560748 214.50139709004603 1.831850227063115e-11
    vertex 10.41725073170383 214.50139709004603 0.20000000001831875
    vertex 17.896941688560748 214.50139709004603 0.20000000001831875
  endloop
endfacet
facet normal -0.906155659012941 -0.42294434815803233 1.3870051938569075e-15
  outer loop
    vertex 87.47733913668245 180.0927566724571 0.200000000010027
    vertex 103.02400716145931 146.784116254869 9.621374388136482e-12
    vertex 103.02400716145931 146.784116254869 0.20000000000962162
  endloop
endfacet
facet normal -0.906155659012941 -0.42294434815803233 1.3870051938569075e-15
  outer loop
    vertex 103.02400716145931 146.784116254869 9.621374388136482e-12
    vertex 87.47733913668245 180.0927566724571 0.200000000010027
    vertex 87.47733913668245 180.0927566724571 1.0026744570002742e-11
  endloop
endfacet
facet normal -0.0 1.0 -0.0
  outer loop
    vertex 11.100127903762933 180.09275667245782 0.2000000000186797
    vertex 21.44714329972281 180.09275667245782 1.867945798039728e-11
    vertex 11.100127903762933 180.09275667245782 1.867945798039728e-11
  endloop
endfacet
facet normal -0.0 1.0 -0.0
  outer loop
    vertex 21.44714329972281 180.09275667245782 1.867945798039728e-11
    vertex 11.100127903762933 180.09275667245782 0.2000000000186797
    vertex 21.44714329972281 180.09275667245782 0.2000000000186797
  endloop
endfacet
facet normal 0.39532253378065013 0.9185423747902145 -1.1191036305297585e-15
  outer loop
    vertex 21.44714329972281 180.09275667245782 0.2000000000186797
    vertex 48.89987209624124 168.27764328750231 1.8859935835280347e-11
    vertex 21.44714329972281 180.09275667245782 1.867945798039728e-11
  endloop
endfacet
facet normal 0.39532253378065013 0.9185423747902145 -1.1191036305297585e-15
  outer loop
    vertex 48.89987209624124 168.27764328750231 1.8859935835280347e-11
    vertex 21.44714329972281 180.09275667245782 0.2000000000186797
    vertex 48.89987209624124 168.27764328750231 0.20000000001886017
  endloop
endfacet
facet normal -1.0 0.0 0.0
  outer loop
    vertex 11.100127903762933 180.09275667245782 0.2000000000186797
    vertex 11.100127903762933 177.40544334281205 1.904041369016341e-11
    vertex 11.100127903762933 177.40544334281205 0.20000000001904067
  endloop
endfacet
facet normal -1.0 0.0 0.0
  outer loop
    vertex 11.100127903762933 177.40544334281205 1.904041369016341e-11
    vertex 11.100127903762933 180.09275667245782 0.2000000000186797
    vertex 11.100127903762933 180.09275667245782 1.867945798039728e-11
  endloop
endfacet
facet normal -6.1018517894597865e-15 -3.3476622093053605e-14 -1.0
  outer loop
    vertex 48.901201546368235 183.87998427237673 0.8000000000175493
    vertex 11.101457353892812 193.00778432768632 0.8000000000175493
    vertex 11.101457353892812 200.48747528454487 0.8000000000175493
  endloop
endfacet
facet normal -6.1018517894597865e-15 -3.3476622093053605e-14 -1.0
  outer loop
    vertex 11.101457353892812 193.00778432768632 0.8000000000175493
    vertex 48.901201546368235 183.87998427237673 0.8000000000175493
    vertex 38.55418615041074 181.1926709427309 0.8000000000180005
  endloop
endfacet
facet normal -6.1018517894597865e-15 -3.3476622093053605e-14 -1.0
  outer loop
    vertex 38.55418615041074 181.1926709427309 0.8000000000180005
    vertex 48.901201546368235 183.87998427237673 0.8000000000175493
    vertex 48.901201546368235 181.1926709427309 0.8000000000180005
  endloop
endfacet
facet normal -1.0 0.0 0.0
  outer loop
    vertex 11.101457353892812 200.48747528454487 1.0000000000175493
    vertex 11.101457353892812 193.00778432768632 0.8000000000175493
    vertex 11.101457353892812 193.00778432768632 1.0000000000175493
  endloop
endfacet
facet normal -1.0 0.0 0.0
  outer loop
    vertex 11.101457353892812 193.00778432768632 0.8000000000175493
    vertex 11.101457353892812 200.48747528454487 1.0000000000175493
    vertex 11.101457353892812 200.48747528454487 0.8000000000175493
  endloop
endfacet
facet normal 0.952167086840015 -0.30557787671655706 -0.0
  outer loop
    vertex 95.33911045733363 174.027531631337 0.8000000000088702
    vertex 94.6002685481112 171.72533306939016 1.0000000000088702
    vertex 94.6002685481112 171.72533306939016 0.8000000000088702
  endloop
endfacet
facet normal 0.952167086840015 -0.30557787671655706 -0.0
  outer loop
    vertex 94.6002685481112 171.72533306939016 1.0000000000088702
    vertex 95.33911045733363 174.027531631337 0.8000000000088702
    vertex 95.33911045733363 174.027531631337 1.0000000000088702
  endloop
endfacet
facet normal -0.8306663209361245 0.5567705660884414 0.0
  outer loop
    vertex 86.47239395429091 161.09944724942324 1.0000000000088702
    vertex 85.23585193617765 159.2546050982203 0.8000000000088702
    vertex 85.23585193617765 159.2546050982203 1.0000000000088702
  endloop
endfacet
facet normal -0.8306663209361245 0.5567705660884414 0.0
  outer loop
    vertex 85.23585193617765 159.2546050982203 0.8000000000088702
    vertex 86.47239395429091 161.09944724942324 1.0000000000088702
    vertex 86.47239395429091 161.09944724942324 0.8000000000088702
  endloop
endfacet
facet normal -0.1888348193809046 -0.9820088650258619 0.0
  outer loop
    vertex 90.53376183316408 151.46880824914678 1.0000000000088702
    vertex 88.31209726941707 151.8960219348492 0.8000000000088702
    vertex 90.53376183316408 151.46880824914678 0.8000000000088702
  endloop
endfacet
facet normal -0.1888348193809046 -0.9820088650258619 0.0
  outer loop
    vertex 88.31209726941707 151.8960219348492 0.8000000000088702
    vertex 90.53376183316408 151.46880824914678 1.0000000000088702
    vertex 88.31209726941707 151.8960219348492 1.0000000000088702
  endloop
endfacet
facet normal -0.5716887065246214 0.8204706105840754 -0.0
  outer loop
    vertex 86.47239395429091 161.09944724942324 1.0000000000088702
    vertex 88.31209726941707 162.38131840366827 0.8000000000088702
    vertex 86.47239395429091 161.09944724942324 0.8000000000088702
  endloop
endfacet
facet normal -0.5716887065246214 0.8204706105840754 -0.0
  outer loop
    vertex 88.31209726941707 162.38131840366827 0.8000000000088702
    vertex 86.47239395429091 161.09944724942324 1.0000000000088702
    vertex 88.31209726941707 162.38131840366827 1.0000000000088702
  endloop
endfacet
facet normal -0.9815534960067767 -0.1911876943657061 0.0
  outer loop
    vertex 84.82367126347226 157.13840172259802 1.0000000000088702
    vertex 85.23585193617765 155.0222750460217 0.8000000000088702
    vertex 85.23585193617765 155.0222750460217 1.0000000000088702
  endloop
endfacet
facet normal -0.9815534960067767 -0.1911876943657061 0.0
  outer loop
    vertex 85.23585193617765 155.0222750460217 0.8000000000088702
    vertex 84.82367126347226 157.13840172259802 1.0000000000088702
    vertex 84.82367126347226 157.13840172259802 0.8000000000088702
  endloop
endfacet
facet normal 0.9061556590129408 0.4229443481580323 -1.3870051938837252e-15
  outer loop
    vertex 94.95703009353973 180.0927566724571 1.0026744570002742e-11
    vertex 110.50369811831659 146.784116254869 0.20000000000962162
    vertex 110.50369811831659 146.784116254869 9.621374388136482e-12
  endloop
endfacet
facet normal 0.9061556590129408 0.4229443481580323 -1.3870051938837252e-15
  outer loop
    vertex 110.50369811831659 146.784116254869 0.20000000000962162
    vertex 94.95703009353973 180.0927566724571 1.0026744570002742e-11
    vertex 94.95703009353973 180.0927566724571 0.200000000010027
  endloop
endfacet
facet normal -0.8306342000729229 -0.5568184853874875 0.0
  outer loop
    vertex 85.23585193617765 155.0222750460217 1.0000000000088702
    vertex 86.47239395429091 153.17766299195654 0.8000000000088702
    vertex 86.47239395429091 153.17766299195654 1.0000000000088702
  endloop
endfacet
facet normal -0.8306342000729229 -0.5568184853874875 0.0
  outer loop
    vertex 86.47239395429091 153.17766299195654 0.8000000000088702
    vertex 85.23585193617765 155.0222750460217 1.0000000000088702
    vertex 85.23585193617765 155.0222750460217 0.8000000000088702
  endloop
endfacet
facet normal 0.9819863867003188 0.1889516772491106 -0.0
  outer loop
    vertex 95.83665716813321 159.2546050982203 0.8000000000088702
    vertex 96.243852402853 157.13840172259802 1.0000000000088702
    vertex 96.243852402853 157.13840172259802 0.8000000000088702
  endloop
endfacet
facet normal 0.9819863867003188 0.1889516772491106 -0.0
  outer loop
    vertex 96.243852402853 157.13840172259802 1.0000000000088702
    vertex 95.83665716813321 159.2546050982203 0.8000000000088702
    vertex 95.83665716813321 159.2546050982203 1.0000000000088702
  endloop
endfacet
facet normal -0.9604507260988636 0.2784500004240718 0.0
  outer loop
    vertex 88.04042924881556 175.937644670607 1.0000000000088702
    vertex 87.13545720615645 172.8161469002806 0.8000000000088702
    vertex 87.13545720615645 172.8161469002806 1.0000000000088702
  endloop
endfacet
facet normal -0.9604507260988636 0.2784500004240718 0.0
  outer loop
    vertex 87.13545720615645 172.8161469002806 0.8000000000088702
    vertex 88.04042924881556 175.937644670607 1.0000000000088702
    vertex 88.04042924881556 175.937644670607 0.8000000000088702
  endloop
endfacet
facet normal 0.0 -1.0 0.0
  outer loop
    vertex 110.50369811831659 146.784116254869 0.20000000000962162
    vertex 103.02400716145931 146.784116254869 9.621374388136482e-12
    vertex 110.50369811831659 146.784116254869 9.621374388136482e-12
  endloop
endfacet
facet normal 0.0 -1.0 0.0
  outer loop
    vertex 103.02400716145931 146.784116254869 9.621374388136482e-12
    vertex 110.50369811831659 146.784116254869 0.20000000000962162
    vertex 103.02400716145931 146.784116254869 0.20000000000962162
  endloop
endfacet
facet normal 0.9959388148450784 -0.0900326445517439 -0.0
  outer loop
    vertex 94.6002685481112 171.72533306939016 0.8000000000088702
    vertex 94.35398791170276 169.00098295877063 1.0000000000088702
    vertex 94.35398791170276 169.00098295877063 0.8000000000088702
  endloop
endfacet
facet normal 0.9959388148450784 -0.0900326445517439 -0.0
  outer loop
    vertex 94.35398791170276 169.00098295877063 1.0000000000088702
    vertex 94.6002685481112 171.72533306939016 0.8000000000088702
    vertex 94.6002685481112 171.72533306939016 1.0000000000088702
  endloop
endfacet
facet normal -0.0 1.0 -0.0
  outer loop
    vertex 87.47733913668245 180.0927566724571 0.200000000010027
    vertex 94.95703009353973 180.0927566724571 1.0026744570002742e-11
    vertex 87.47733913668245 180.0927566724571 1.0026744570002742e-11
  endloop
endfacet
facet normal -0.0 1.0 -0.0
  outer loop
    vertex 94.95703009353973 180.0927566724571 1.0026744570002742e-11
    vertex 87.47733913668245 180.0927566724571 0.200000000010027
    vertex 94.95703009353973 180.0927566724571 0.200000000010027
  endloop
endfacet
facet normal -0.0 -1.2170120929109168e-14 1.0
  outer loop
    vertex 103.02400716145931 146.784116254869 0.20000000000962162
    vertex 94.95703009353973 180.0927566724571 0.200000000010027
    vertex 87.47733913668245 180.0927566724571 0.200000000010027
  endloop
endfacet
facet normal -0.0 -1.2170120929109168e-14 1.0
  outer loop
    vertex 94.95703009353973 180.0927566724571 0.200000000010027
    vertex 103.02400716145931 146.784116254869 0.20000000000962162
    vertex 110.50369811831659 146.784116254869 0.20000000000962162
  endloop
endfacet
facet normal 0.572663955142089 -0.8197902137016639 0.0
  outer loop
    vertex 94.61507146397099 153.17766299195654 1.0000000000088702
    vertex 92.78035358682753 151.8960219348492 0.8000000000088702
    vertex 94.61507146397099 153.17766299195654 0.8000000000088702
  endloop
endfacet
facet normal 0.572663955142089 -0.8197902137016639 0.0
  outer loop
    vertex 92.78035358682753 151.8960219348492 0.8000000000088702
    vertex 94.61507146397099 153.17766299195654 1.0000000000088702
    vertex 92.78035358682753 151.8960219348492 1.0000000000088702
  endloop
endfacet
facet normal -0.9968219086293689 0.0796623027316061 0.0
  outer loop
    vertex 87.13545720615645 172.8161469002806 1.0000000000088702
    vertex 86.83379985860437 169.0414800550096 0.8000000000088702
    vertex 86.83379985860437 169.0414800550096 1.0000000000088702
  endloop
endfacet
facet normal -0.9968219086293689 0.0796623027316061 0.0
  outer loop
    vertex 86.83379985860437 169.0414800550096 0.8000000000088702
    vertex 87.13545720615645 172.8161469002806 1.0000000000088702
    vertex 87.13545720615645 172.8161469002806 0.8000000000088702
  endloop
endfacet
facet normal 1.6166931067212053e-16 2.2100194550410346e-15 -1.0
  outer loop
    vertex 90.68294531897082 180.09267094273042 0.8000000000089096
    vertex 94.6002685481112 171.72533306939016 0.8000000000088702
    vertex 94.35398791170276 169.00098295877063 0.8000000000088702
  endloop
endfacet
facet normal 1.6166931067212053e-16 2.2100194550410346e-15 -1.0
  outer loop
    vertex 94.6002685481112 171.72533306939016 0.8000000000088702
    vertex 90.68294531897082 180.09267094273042 0.8000000000089096
    vertex 95.33911045733363 174.027531631337 0.8000000000088702
  endloop
endfacet
facet normal 1.6166931067212053e-16 2.2100194550410346e-15 -1.0
  outer loop
    vertex 95.33911045733363 174.027531631337 0.8000000000088702
    vertex 90.68294531897082 180.09267094273042 0.8000000000089096
    vertex 97.91251684560827 177.727186809711 0.8000000000088702
  endloop
endfacet
facet normal 1.6166931067212053e-16 2.2100194550410346e-15 -1.0
  outer loop
    vertex 97.91251684560827 177.727186809711 0.8000000000088702
    vertex 90.68294531897082 180.09267094273042 0.8000000000089096
    vertex 100.4467465028283 180.09267094273042 0.8000000000089096
  endloop
endfacet
facet normal 1.6166931067212053e-16 2.2100194550410346e-15 -1.0
  outer loop
    vertex 87.13545720615645 172.8161469002806 0.8000000000088702
    vertex 86.83379985860437 166.78959606717768 0.8000000000088702
    vertex 86.83379985860437 169.0414800550096 0.8000000000088702
  endloop
endfacet
facet normal 1.6166931067212053e-16 2.2100194550410346e-15 -1.0
  outer loop
    vertex 86.83379985860437 166.78959606717768 0.8000000000088702
    vertex 87.13545720615645 172.8161469002806 0.8000000000088702
    vertex 94.35398791170276 166.78959606717768 0.8000000000088702
  endloop
endfacet
facet normal 1.6166931067212053e-16 2.2100194550410346e-15 -1.0
  outer loop
    vertex 94.35398791170276 166.78959606717768 0.8000000000088702
    vertex 87.13545720615645 172.8161469002806 0.8000000000088702
    vertex 88.04042924881556 175.937644670607 0.8000000000088702
  endloop
endfacet
facet normal 1.6166931067212053e-16 2.2100194550410346e-15 -1.0
  outer loop
    vertex 94.35398791170276 166.78959606717768 0.8000000000088702
    vertex 88.04042924881556 175.937644670607 0.8000000000088702
    vertex 90.68294531897082 180.09267094273042 0.8000000000089096
  endloop
endfacet
facet normal 1.6166931067212053e-16 2.2100194550410346e-15 -1.0
  outer loop
    vertex 94.35398791170276 166.78959606717768 0.8000000000088702
    vertex 90.68294531897082 180.09267094273042 0.8000000000089096
    vertex 94.35398791170276 169.00098295877063 0.8000000000088702
  endloop
endfacet
facet normal -1.0 0.0 0.0
  outer loop
    vertex 86.83379985860437 169.0414800550096 1.0000000000088702
    vertex 86.83379985860437 166.78959606717768 0.8000000000088702
    vertex 86.83379985860437 166.78959606717768 1.0000000000088702
  endloop
endfacet
facet normal -1.0 0.0 0.0
  outer loop
    vertex 86.83379985860437 166.78959606717768 0.8000000000088702
    vertex 86.83379985860437 169.0414800550096 1.0000000000088702
    vertex 86.83379985860437 169.0414800550096 0.8000000000088702
  endloop
endfacet
facet normal 0.8337477432838414 -0.5521455429224271 -0.0
  outer loop
    vertex 95.83665716813321 155.0222750460217 0.8000000000088702
    vertex 94.61507146397099 153.17766299195654 1.0000000000088702
    vertex 94.61507146397099 153.17766299195654 0.8000000000088702
  endloop
endfacet
facet normal 0.8337477432838414 -0.5521455429224271 -0.0
  outer loop
    vertex 94.61507146397099 153.17766299195654 1.0000000000088702
    vertex 95.83665716813321 155.0222750460217 0.8000000000088702
    vertex 95.83665716813321 155.0222750460217 1.0000000000088702
  endloop
endfacet
facet normal -0.0 1.0 -0.0
  outer loop
    vertex 90.68294531897082 180.09267094273042 1.0000000000089095
    vertex 100.4467465028283 180.09267094273042 0.8000000000089096
    vertex 90.68294531897082 180.09267094273042 0.8000000000089096
  endloop
endfacet
facet normal -0.0 1.0 -0.0
  outer loop
    vertex 100.4467465028283 180.09267094273042 0.8000000000089096
    vertex 90.68294531897082 180.09267094273042 1.0000000000089095
    vertex 100.4467465028283 180.09267094273042 1.0000000000089095
  endloop
endfacet
facet normal -0.8438078539612971 0.5366454188691359 1.852004831013389e-16
  outer loop
    vertex 90.68294531897082 180.09267094273042 1.0000000000089095
    vertex 88.04042924881556 175.937644670607 0.8000000000088702
    vertex 88.04042924881556 175.937644670607 1.0000000000088702
  endloop
endfacet
facet normal -0.8438078539612971 0.5366454188691359 1.852004831013389e-16
  outer loop
    vertex 88.04042924881556 175.937644670607 0.8000000000088702
    vertex 90.68294531897082 180.09267094273042 1.0000000000089095
    vertex 90.68294531897082 180.09267094273042 0.8000000000089096
  endloop
endfacet
facet normal 0.18684547737261992 0.9823893156917974 -0.0
  outer loop
    vertex 90.53376183316408 162.80860878841665 1.0000000000088702
    vertex 92.78035358682753 162.38131840366827 0.8000000000088702
    vertex 90.53376183316408 162.80860878841665 0.8000000000088702
  endloop
endfacet
facet normal 0.18684547737261992 0.9823893156917974 -0.0
  outer loop
    vertex 92.78035358682753 162.38131840366827 0.8000000000088702
    vertex 90.53376183316408 162.80860878841665 1.0000000000088702
    vertex 92.78035358682753 162.38131840366827 1.0000000000088702
  endloop
endfacet
facet normal 0.6823495637785351 -0.731026041130713 -3.170167161382046e-16
  outer loop
    vertex 100.4467465028283 180.09267094273042 0.8000000000089096
    vertex 97.91251684560827 177.727186809711 1.0000000000088702
    vertex 97.91251684560827 177.727186809711 0.8000000000088702
  endloop
endfacet
facet normal 0.6823495637785351 -0.731026041130713 -3.170167161382046e-16
  outer loop
    vertex 97.91251684560827 177.727186809711 1.0000000000088702
    vertex 100.4467465028283 180.09267094273042 0.8000000000089096
    vertex 100.4467465028283 180.09267094273042 1.0000000000089095
  endloop
endfacet
facet normal 0.8337794456371622 0.552097668925514 -0.0
  outer loop
    vertex 94.61507146397099 161.09944724942324 0.8000000000088702
    vertex 95.83665716813321 159.2546050982203 1.0000000000088702
    vertex 95.83665716813321 159.2546050982203 0.8000000000088702
  endloop
endfacet
facet normal 0.8337794456371622 0.552097668925514 -0.0
  outer loop
    vertex 95.83665716813321 159.2546050982203 1.0000000000088702
    vertex 94.61507146397099 161.09944724942324 0.8000000000088702
    vertex 94.61507146397099 161.09944724942324 1.0000000000088702
  endloop
endfacet
facet normal 0.33904815641141206 0.9407690192783896 -0.0
  outer loop
    vertex 96.62098161157947 209.30387721347194 1.0000000000088702
    vertex 100.88843982680244 207.7659079449432 0.8000000000088702
    vertex 96.62098161157947 209.30387721347194 0.8000000000088702
  endloop
endfacet
facet normal 0.33904815641141206 0.9407690192783896 -0.0
  outer loop
    vertex 100.88843982680244 207.7659079449432 0.8000000000088702
    vertex 96.62098161157947 209.30387721347194 1.0000000000088702
    vertex 100.88843982680244 207.7659079449432 1.0000000000088702
  endloop
endfacet
facet normal 0.9927604328284446 0.12011129426610637 -0.0
  outer loop
    vertex 108.17653656698438 198.52704767116003 0.8000000000088702
    vertex 108.66909783980125 194.45586231441214 1.0000000000088702
    vertex 108.66909783980125 194.45586231441214 0.8000000000088702
  endloop
endfacet
facet normal 0.9927604328284446 0.12011129426610637 -0.0
  outer loop
    vertex 108.66909783980125 194.45586231441214 1.0000000000088702
    vertex 108.17653656698438 198.52704767116003 0.8000000000088702
    vertex 108.17653656698438 198.52704767116003 1.0000000000088702
  endloop
endfacet
facet normal 0.5727330445955706 0.819741946973734 -0.0
  outer loop
    vertex 92.78035358682753 162.38131840366827 1.0000000000088702
    vertex 94.61507146397099 161.09944724942324 0.8000000000088702
    vertex 92.78035358682753 162.38131840366827 0.8000000000088702
  endloop
endfacet
facet normal 0.5727330445955706 0.819741946973734 -0.0
  outer loop
    vertex 94.61507146397099 161.09944724942324 0.8000000000088702
    vertex 92.78035358682753 162.38131840366827 1.0000000000088702
    vertex 94.61507146397099 161.09944724942324 1.0000000000088702
  endloop
endfacet
facet normal 0.7895860738885548 0.6136398226331613 -0.0
  outer loop
    vertex 104.26112697247441 205.35326275689002 0.8000000000088702
    vertex 106.69885274853954 202.21657857547427 1.0000000000088702
    vertex 106.69885274853954 202.21657857547427 0.8000000000088702
  endloop
endfacet
facet normal 0.7895860738885548 0.6136398226331613 -0.0
  outer loop
    vertex 106.69885274853954 202.21657857547427 1.0000000000088702
    vertex 104.26112697247441 205.35326275689002 0.8000000000088702
    vertex 104.26112697247441 205.35326275689002 1.0000000000088702
  endloop
endfacet
facet normal 0.9819851159439434 -0.18895828128071038 -0.0
  outer loop
    vertex 96.243852402853 157.13840172259802 0.8000000000088702
    vertex 95.83665716813321 155.0222750460217 1.0000000000088702
    vertex 95.83665716813321 155.0222750460217 0.8000000000088702
  endloop
endfacet
facet normal 0.9819851159439434 -0.18895828128071038 -0.0
  outer loop
    vertex 95.83665716813321 155.0222750460217 1.0000000000088702
    vertex 96.243852402853 157.13840172259802 0.8000000000088702
    vertex 96.243852402853 157.13840172259802 1.0000000000088702
  endloop
endfacet
facet normal 0.9965694322624544 -0.08276090067229476 -0.0
  outer loop
    vertex 108.66909783980125 194.45586231441214 0.8000000000088702
    vertex 108.39773661538223 191.18825286163295 1.0000000000088702
    vertex 108.39773661538223 191.18825286163295 0.8000000000088702
  endloop
endfacet
facet normal 0.9965694322624544 -0.08276090067229476 -0.0
  outer loop
    vertex 108.39773661538223 191.18825286163295 1.0000000000088702
    vertex 108.66909783980125 194.45586231441214 0.8000000000088702
    vertex 108.66909783980125 194.45586231441214 1.0000000000088702
  endloop
endfacet
facet normal -0.5716196204161778 -0.820518744182767 0.0
  outer loop
    vertex 88.31209726941707 151.8960219348492 1.0000000000088702
    vertex 86.47239395429091 153.17766299195654 0.8000000000088702
    vertex 88.31209726941707 151.8960219348492 0.8000000000088702
  endloop
endfacet
facet normal -0.5716196204161778 -0.820518744182767 0.0
  outer loop
    vertex 86.47239395429091 153.17766299195654 0.8000000000088702
    vertex 88.31209726941707 151.8960219348492 1.0000000000088702
    vertex 86.47239395429091 153.17766299195654 1.0000000000088702
  endloop
endfacet
facet normal 0.9581397487556023 -0.2863009288398337 -0.0
  outer loop
    vertex 108.39773661538223 191.18825286163295 0.8000000000088702
    vertex 107.58365294212227 188.46382605196757 1.0000000000088702
    vertex 107.58365294212227 188.46382605196757 0.8000000000088702
  endloop
endfacet
facet normal 0.9581397487556023 -0.2863009288398337 -0.0
  outer loop
    vertex 107.58365294212227 188.46382605196757 1.0000000000088702
    vertex 108.39773661538223 191.18825286163295 0.8000000000088702
    vertex 108.39773661538223 191.18825286163295 1.0000000000088702
  endloop
endfacet
facet normal -5.747162805537158e-16 -7.0121835906737515e-15 -1.0
  outer loop
    vertex 73.92090188778214 197.27531924195654 0.8000000000088702
    vertex 80.60092859201114 192.40462303067324 0.8000000000088702
    vertex 73.3629930278533 192.40462303067324 0.8000000000088702
  endloop
endfacet
facet normal -5.747162805537158e-16 -7.0121835906737515e-15 -1.0
  outer loop
    vertex 80.60092859201114 192.40462303067324 0.8000000000088702
    vertex 73.92090188778214 197.27531924195654 0.8000000000088702
    vertex 75.59462846756574 201.51278813023075 0.8000000000088702
  endloop
endfacet
facet normal -5.747162805537158e-16 -7.0121835906737515e-15 -1.0
  outer loop
    vertex 80.60092859201114 192.40462303067324 0.8000000000088702
    vertex 75.59462846756574 201.51278813023075 0.8000000000088702
    vertex 78.28875915409886 205.00129083522245 0.8000000000088702
  endloop
endfacet
facet normal -5.747162805537158e-16 -7.0121835906737515e-15 -1.0
  outer loop
    vertex 80.60092859201114 192.40462303067324 0.8000000000088702
    vertex 78.28875915409886 205.00129083522245 0.8000000000088702
    vertex 81.90788033427046 207.62508849665772 0.8000000000088702
  endloop
endfacet
facet normal -5.747162805537158e-16 -7.0121835906737515e-15 -1.0
  outer loop
    vertex 80.60092859201114 192.40462303067324 0.8000000000088702
    vertex 81.90788033427046 207.62508849665772 0.8000000000088702
    vertex 81.30970447524027 196.5918540438785 0.8000000000088702
  endloop
endfacet
facet normal -5.747162805537158e-16 -7.0121835906737515e-15 -1.0
  outer loop
    vertex 81.30970447524027 196.5918540438785 0.8000000000088702
    vertex 81.90788033427046 207.62508849665772 0.8000000000088702
    vertex 83.43603212492185 199.90425573946752 0.8000000000088702
  endloop
endfacet
facet normal -5.747162805537158e-16 -7.0121835906737515e-15 -1.0
  outer loop
    vertex 83.43603212492185 199.90425573946752 0.8000000000088702
    vertex 81.90788033427046 207.62508849665772 0.8000000000088702
    vertex 86.34645412091284 209.2686723514007 0.8000000000088702
  endloop
endfacet
facet normal -5.747162805537158e-16 -7.0121835906737515e-15 -1.0
  outer loop
    vertex 83.43603212492185 199.90425573946752 0.8000000000088702
    vertex 86.34645412091284 209.2686723514007 0.8000000000088702
    vertex 86.86931151685988 202.06049601705334 0.8000000000088702
  endloop
endfacet
facet normal -5.747162805537158e-16 -7.0121835906737515e-15 -1.0
  outer loop
    vertex 86.86931151685988 202.06049601705334 0.8000000000088702
    vertex 86.34645412091284 209.2686723514007 0.8000000000088702
    vertex 91.49894262685831 209.81653363631486 0.8000000000088702
  endloop
endfacet
facet normal -5.747162805537158e-16 -7.0121835906737515e-15 -1.0
  outer loop
    vertex 86.86931151685988 202.06049601705334 0.8000000000088702
    vertex 91.49894262685831 209.81653363631486 0.8000000000088702
    vertex 91.49894262685831 202.77924277624842 0.8000000000088702
  endloop
endfacet
facet normal -5.747162805537158e-16 -7.0121835906737515e-15 -1.0
  outer loop
    vertex 91.49894262685831 202.77924277624842 0.8000000000088702
    vertex 91.49894262685831 209.81653363631486 0.8000000000088702
    vertex 96.62098161157947 209.30387721347194 0.8000000000088702
  endloop
endfacet
facet normal -5.747162805537158e-16 -7.0121835906737515e-15 -1.0
  outer loop
    vertex 91.49894262685831 202.77924277624842 0.8000000000088702
    vertex 96.62098161157947 209.30387721347194 0.8000000000088702
    vertex 95.64053770774883 202.1811436162651 0.8000000000088702
  endloop
endfacet
facet normal -5.747162805537158e-16 -7.0121835906737515e-15 -1.0
  outer loop
    vertex 95.64053770774883 202.1811436162651 0.8000000000088702
    vertex 96.62098161157947 209.30387721347194 0.8000000000088702
    vertex 98.65649759090753 200.38684613631497 0.8000000000088702
  endloop
endfacet
facet normal -5.747162805537158e-16 -7.0121835906737515e-15 -1.0
  outer loop
    vertex 98.65649759090753 200.38684613631497 0.8000000000088702
    vertex 96.62098161157947 209.30387721347194 0.8000000000088702
    vertex 100.88843982680244 207.7659079449432 0.8000000000088702
  endloop
endfacet
facet normal -5.747162805537158e-16 -7.0121835906737515e-15 -1.0
  outer loop
    vertex 98.65649759090753 200.38684613631497 0.8000000000088702
    vertex 100.88843982680244 207.7659079449432 0.8000000000088702
    vertex 100.49635430412494 197.72799701090017 0.8000000000088702
  endloop
endfacet
facet normal -5.747162805537158e-16 -7.0121835906737515e-15 -1.0
  outer loop
    vertex 100.49635430412494 197.72799701090017 0.8000000000088702
    vertex 100.88843982680244 207.7659079449432 0.8000000000088702
    vertex 101.1096398751974 194.53624291452292 0.8000000000088702
  endloop
endfacet
facet normal -5.747162805537158e-16 -7.0121835906737515e-15 -1.0
  outer loop
    vertex 101.1096398751974 194.53624291452292 0.8000000000088702
    vertex 100.88843982680244 207.7659079449432 0.8000000000088702
    vertex 104.26112697247441 205.35326275689002 0.8000000000088702
  endloop
endfacet
facet normal -5.747162805537158e-16 -7.0121835906737515e-15 -1.0
  outer loop
    vertex 101.1096398751974 194.53624291452292 0.8000000000088702
    vertex 104.26112697247441 205.35326275689002 0.8000000000088702
    vertex 101.61641918545496 181.1926709427309 0.8000000000093073
  endloop
endfacet
facet normal -5.747162805537158e-16 -7.0121835906737515e-15 -1.0
  outer loop
    vertex 101.61641918545496 181.1926709427309 0.8000000000093073
    vertex 104.26112697247441 205.35326275689002 0.8000000000088702
    vertex 104.78904650545267 184.22144842475518 0.8000000000088702
  endloop
endfacet
facet normal -5.747162805537158e-16 -7.0121835906737515e-15 -1.0
  outer loop
    vertex 104.78904650545267 184.22144842475518 0.8000000000088702
    vertex 104.26112697247441 205.35326275689002 0.8000000000088702
    vertex 106.69885274853954 202.21657857547427 0.8000000000088702
  endloop
endfacet
facet normal -5.747162805537158e-16 -7.0121835906737515e-15 -1.0
  outer loop
    vertex 104.78904650545267 184.22144842475518 0.8000000000088702
    vertex 106.69885274853954 202.21657857547427 0.8000000000088702
    vertex 107.58365294212227 188.46382605196757 0.8000000000088702
  endloop
endfacet
facet normal -5.747162805537158e-16 -7.0121835906737515e-15 -1.0
  outer loop
    vertex 107.58365294212227 188.46382605196757 0.8000000000088702
    vertex 106.69885274853954 202.21657857547427 0.8000000000088702
    vertex 108.17653656698438 198.52704767116003 0.8000000000088702
  endloop
endfacet
facet normal -5.747162805537158e-16 -7.0121835906737515e-15 -1.0
  outer loop
    vertex 107.58365294212227 188.46382605196757 0.8000000000088702
    vertex 108.17653656698438 198.52704767116003 0.8000000000088702
    vertex 108.39773661538223 191.18825286163295 0.8000000000088702
  endloop
endfacet
facet normal -5.747162805537158e-16 -7.0121835906737515e-15 -1.0
  outer loop
    vertex 108.39773661538223 191.18825286163295 0.8000000000088702
    vertex 108.17653656698438 198.52704767116003 0.8000000000088702
    vertex 108.66909783980125 194.45586231441214 0.8000000000088702
  endloop
endfacet
facet normal -5.747162805537158e-16 -7.0121835906737515e-15 -1.0
  outer loop
    vertex 94.87676860860418 184.4027649692796 0.8000000000088702
    vertex 101.61641918545496 181.1926709427309 0.8000000000093073
    vertex 91.56090941166427 181.1926709427309 0.8000000000093073
  endloop
endfacet
facet normal -5.747162805537158e-16 -7.0121835906737515e-15 -1.0
  outer loop
    vertex 101.61641918545496 181.1926709427309 0.8000000000093073
    vertex 94.87676860860418 184.4027649692796 0.8000000000088702
    vertex 99.2194685878647 188.78565524859368 0.8000000000088702
  endloop
endfacet
facet normal -5.747162805537158e-16 -7.0121835906737515e-15 -1.0
  outer loop
    vertex 101.61641918545496 181.1926709427309 0.8000000000093073
    vertex 99.2194685878647 188.78565524859368 0.8000000000088702
    vertex 100.63709705336568 191.3492441589919 0.8000000000088702
  endloop
endfacet
facet normal -5.747162805537158e-16 -7.0121835906737515e-15 -1.0
  outer loop
    vertex 101.61641918545496 181.1926709427309 0.8000000000093073
    vertex 100.63709705336568 191.3492441589919 0.8000000000088702
    vertex 101.1096398751974 194.53624291452292 0.8000000000088702
  endloop
endfacet
facet normal 0.690518749643714 -0.7233144934193438 1.4708262873774392e-16
  outer loop
    vertex 104.78904650545267 184.22144842475518 1.0000000000088702
    vertex 101.61641918545496 181.1926709427309 0.8000000000093073
    vertex 104.78904650545267 184.22144842475518 0.8000000000088702
  endloop
endfacet
facet normal 0.690518749643714 -0.7233144934193438 1.4708262873774392e-16
  outer loop
    vertex 101.61641918545496 181.1926709427309 0.8000000000093073
    vertex 104.78904650545267 184.22144842475518 1.0000000000088702
    vertex 101.61641918545496 181.1926709427309 1.0000000000093072
  endloop
endfacet
facet normal -0.9815547963541893 0.19118101828917544 0.0
  outer loop
    vertex 85.23585193617765 159.2546050982203 1.0000000000088702
    vertex 84.82367126347226 157.13840172259802 0.8000000000088702
    vertex 84.82367126347226 157.13840172259802 1.0000000000088702
  endloop
endfacet
facet normal -0.9815547963541893 0.19118101828917544 0.0
  outer loop
    vertex 84.82367126347226 157.13840172259802 0.8000000000088702
    vertex 85.23585193617765 159.2546050982203 1.0000000000088702
    vertex 85.23585193617765 159.2546050982203 0.8000000000088702
  endloop
endfacet
facet normal 0.0 0.0 -1.0
  outer loop
    vertex 85.23585193617765 159.2546050982203 0.8000000000088702
    vertex 85.23585193617765 155.0222750460217 0.8000000000088702
    vertex 84.82367126347226 157.13840172259802 0.8000000000088702
  endloop
endfacet
facet normal 0.0 0.0 -1.0
  outer loop
    vertex 85.23585193617765 155.0222750460217 0.8000000000088702
    vertex 85.23585193617765 159.2546050982203 0.8000000000088702
    vertex 86.47239395429091 161.09944724942324 0.8000000000088702
  endloop
endfacet
facet normal 0.0 0.0 -1.0
  outer loop
    vertex 85.23585193617765 155.0222750460217 0.8000000000088702
    vertex 86.47239395429091 161.09944724942324 0.8000000000088702
    vertex 86.47239395429091 153.17766299195654 0.8000000000088702
  endloop
endfacet
facet normal 0.0 0.0 -1.0
  outer loop
    vertex 86.47239395429091 153.17766299195654 0.8000000000088702
    vertex 86.47239395429091 161.09944724942324 0.8000000000088702
    vertex 88.31209726941707 162.38131840366827 0.8000000000088702
  endloop
endfacet
facet normal 0.0 0.0 -1.0
  outer loop
    vertex 86.47239395429091 153.17766299195654 0.8000000000088702
    vertex 88.31209726941707 162.38131840366827 0.8000000000088702
    vertex 88.31209726941707 151.8960219348492 0.8000000000088702
  endloop
endfacet
facet normal 0.0 0.0 -1.0
  outer loop
    vertex 88.31209726941707 151.8960219348492 0.8000000000088702
    vertex 88.31209726941707 162.38131840366827 0.8000000000088702
    vertex 90.53376183316408 162.80860878841665 0.8000000000088702
  endloop
endfacet
facet normal 0.0 0.0 -1.0
  outer loop
    vertex 88.31209726941707 151.8960219348492 0.8000000000088702
    vertex 90.53376183316408 162.80860878841665 0.8000000000088702
    vertex 90.53376183316408 151.46880824914678 0.8000000000088702
  endloop
endfacet
facet normal 0.0 0.0 -1.0
  outer loop
    vertex 90.53376183316408 151.46880824914678 0.8000000000088702
    vertex 90.53376183316408 162.80860878841665 0.8000000000088702
    vertex 92.78035358682753 162.38131840366827 0.8000000000088702
  endloop
endfacet
facet normal 0.0 0.0 -1.0
  outer loop
    vertex 90.53376183316408 151.46880824914678 0.8000000000088702
    vertex 92.78035358682753 162.38131840366827 0.8000000000088702
    vertex 92.78035358682753 151.8960219348492 0.8000000000088702
  endloop
endfacet
facet normal 0.0 0.0 -1.0
  outer loop
    vertex 92.78035358682753 151.8960219348492 0.8000000000088702
    vertex 92.78035358682753 162.38131840366827 0.8000000000088702
    vertex 94.61507146397099 161.09944724942324 0.8000000000088702
  endloop
endfacet
facet normal 0.0 0.0 -1.0
  outer loop
    vertex 92.78035358682753 151.8960219348492 0.8000000000088702
    vertex 94.61507146397099 161.09944724942324 0.8000000000088702
    vertex 94.61507146397099 153.17766299195654 0.8000000000088702
  endloop
endfacet
facet normal 0.0 0.0 -1.0
  outer loop
    vertex 94.61507146397099 153.17766299195654 0.8000000000088702
    vertex 94.61507146397099 161.09944724942324 0.8000000000088702
    vertex 95.83665716813321 159.2546050982203 0.8000000000088702
  endloop
endfacet
facet normal 0.0 0.0 -1.0
  outer loop
    vertex 94.61507146397099 153.17766299195654 0.8000000000088702
    vertex 95.83665716813321 159.2546050982203 0.8000000000088702
    vertex 95.83665716813321 155.0222750460217 0.8000000000088702
  endloop
endfacet
facet normal 0.0 0.0 -1.0
  outer loop
    vertex 95.83665716813321 155.0222750460217 0.8000000000088702
    vertex 95.83665716813321 159.2546050982203 0.8000000000088702
    vertex 96.243852402853 157.13840172259802 0.8000000000088702
  endloop
endfacet
facet normal 0.5818101763271402 0.8133246084572765 -0.0
  outer loop
    vertex 100.88843982680244 207.7659079449432 1.0000000000088702
    vertex 104.26112697247441 205.35326275689002 0.8000000000088702
    vertex 100.88843982680244 207.7659079449432 0.8000000000088702
  endloop
endfacet
facet normal 0.5818101763271402 0.8133246084572765 -0.0
  outer loop
    vertex 104.26112697247441 205.35326275689002 0.8000000000088702
    vertex 100.88843982680244 207.7659079449432 1.0000000000088702
    vertex 104.26112697247441 205.35326275689002 1.0000000000088702
  endloop
endfacet
facet normal 0.8350944025473391 -0.5501066613249679 -0.0
  outer loop
    vertex 107.58365294212227 188.46382605196757 0.8000000000088702
    vertex 104.78904650545267 184.22144842475518 1.0000000000088702
    vertex 104.78904650545267 184.22144842475518 0.8000000000088702
  endloop
endfacet
facet normal 0.8350944025473391 -0.5501066613249679 -0.0
  outer loop
    vertex 104.78904650545267 184.22144842475518 1.0000000000088702
    vertex 107.58365294212227 188.46382605196757 0.8000000000088702
    vertex 107.58365294212227 188.46382605196757 1.0000000000088702
  endloop
endfacet
facet normal -0.1888675122871105 0.9820025777982857 -0.0
  outer loop
    vertex 88.31209726941707 162.38131840366827 1.0000000000088702
    vertex 90.53376183316408 162.80860878841665 0.8000000000088702
    vertex 88.31209726941707 162.38131840366827 0.8000000000088702
  endloop
endfacet
facet normal -0.1888675122871105 0.9820025777982857 -0.0
  outer loop
    vertex 90.53376183316408 162.80860878841665 0.8000000000088702
    vertex 88.31209726941707 162.38131840366827 1.0000000000088702
    vertex 90.53376183316408 162.80860878841665 1.0000000000088702
  endloop
endfacet
facet normal 0.9283142322052398 0.37179656572539266 -0.0
  outer loop
    vertex 106.69885274853954 202.21657857547427 0.8000000000088702
    vertex 108.17653656698438 198.52704767116003 1.0000000000088702
    vertex 108.17653656698438 198.52704767116003 0.8000000000088702
  endloop
endfacet
facet normal 0.9283142322052398 0.37179656572539266 -0.0
  outer loop
    vertex 108.17653656698438 198.52704767116003 1.0000000000088702
    vertex 106.69885274853954 202.21657857547427 0.8000000000088702
    vertex 106.69885274853954 202.21657857547427 1.0000000000088702
  endloop
endfacet
facet normal 0.18681310900669046 -0.9823954714386943 0.0
  outer loop
    vertex 92.78035358682753 151.8960219348492 1.0000000000088702
    vertex 90.53376183316408 151.46880824914678 0.8000000000088702
    vertex 92.78035358682753 151.8960219348492 0.8000000000088702
  endloop
endfacet
facet normal 0.18681310900669046 -0.9823954714386943 0.0
  outer loop
    vertex 90.53376183316408 151.46880824914678 0.8000000000088702
    vertex 92.78035358682753 151.8960219348492 1.0000000000088702
    vertex 90.53376183316408 151.46880824914678 1.0000000000088702
  endloop
endfacet
facet normal 0.8415334702169938 -0.5402049782300642 -0.0
  outer loop
    vertex 83.43603212492185 199.90425573946752 0.8000000000088702
    vertex 81.30970447524027 196.5918540438785 1.0000000000088702
    vertex 81.30970447524027 196.5918540438785 0.8000000000088702
  endloop
endfacet
facet normal 0.8415334702169938 -0.5402049782300642 -0.0
  outer loop
    vertex 81.30970447524027 196.5918540438785 1.0000000000088702
    vertex 83.43603212492185 199.90425573946752 0.8000000000088702
    vertex 83.43603212492185 199.90425573946752 1.0000000000088702
  endloop
endfacet
facet normal -0.6955554628624933 0.7184724059295129 1.131891575566316e-15
  outer loop
    vertex 91.56090941166427 181.1926709427309 0.8000000000093073
    vertex 94.87676860860418 184.4027649692796 1.0000000000088702
    vertex 94.87676860860418 184.4027649692796 0.8000000000088702
  endloop
endfacet
facet normal -0.6955554628624933 0.7184724059295129 1.131891575566316e-15
  outer loop
    vertex 94.87676860860418 184.4027649692796 1.0000000000088702
    vertex 91.56090941166427 181.1926709427309 0.8000000000093073
    vertex 91.56090941166427 181.1926709427309 1.0000000000093072
  endloop
endfacet
facet normal -0.7103561985327028 0.7038423624691593 0.0
  outer loop
    vertex 99.2194685878647 188.78565524859368 1.0000000000088702
    vertex 94.87676860860418 184.4027649692796 0.8000000000088702
    vertex 94.87676860860418 184.4027649692796 1.0000000000088702
  endloop
endfacet
facet normal -0.7103561985327028 0.7038423624691593 0.0
  outer loop
    vertex 94.87676860860418 184.4027649692796 0.8000000000088702
    vertex 99.2194685878647 188.78565524859368 1.0000000000088702
    vertex 99.2194685878647 188.78565524859368 0.8000000000088702
  endloop
endfacet
facet normal -0.9820357231265724 -0.18869509400954232 0.0
  outer loop
    vertex 100.49635430412494 197.72799701090017 1.0000000000088702
    vertex 101.1096398751974 194.53624291452292 0.8000000000088702
    vertex 101.1096398751974 194.53624291452292 1.0000000000088702
  endloop
endfacet
facet normal -0.9820357231265724 -0.18869509400954232 0.0
  outer loop
    vertex 101.1096398751974 194.53624291452292 0.8000000000088702
    vertex 100.49635430412494 197.72799701090017 1.0000000000088702
    vertex 100.49635430412494 197.72799701090017 0.8000000000088702
  endloop
endfacet
facet normal 0.9859743935867848 -0.16689666021575122 -0.0
  outer loop
    vertex 81.30970447524027 196.5918540438785 0.8000000000088702
    vertex 80.60092859201114 192.40462303067324 1.0000000000088702
    vertex 80.60092859201114 192.40462303067324 0.8000000000088702
  endloop
endfacet
facet normal 0.9859743935867848 -0.16689666021575122 -0.0
  outer loop
    vertex 80.60092859201114 192.40462303067324 1.0000000000088702
    vertex 81.30970447524027 196.5918540438785 0.8000000000088702
    vertex 81.30970447524027 196.5918540438785 1.0000000000088702
  endloop
endfacet
facet normal -0.9935036957121571 0.11379985327884122 0.0
  outer loop
    vertex 73.92090188778214 197.27531924195654 1.0000000000088702
    vertex 73.3629930278533 192.40462303067324 0.8000000000088702
    vertex 73.3629930278533 192.40462303067324 1.0000000000088702
  endloop
endfacet
facet normal -0.9935036957121571 0.11379985327884122 0.0
  outer loop
    vertex 73.3629930278533 192.40462303067324 0.8000000000088702
    vertex 73.92090188778214 197.27531924195654 1.0000000000088702
    vertex 73.92090188778214 197.27531924195654 0.8000000000088702
  endloop
endfacet
facet normal -0.7914529717863046 0.611230065892236 0.0
  outer loop
    vertex 78.28875915409886 205.00129083522245 1.0000000000088702
    vertex 75.59462846756574 201.51278813023075 0.8000000000088702
    vertex 75.59462846756574 201.51278813023075 1.0000000000088702
  endloop
endfacet
facet normal -0.7914529717863046 0.611230065892236 0.0
  outer loop
    vertex 75.59462846756574 201.51278813023075 0.8000000000088702
    vertex 78.28875915409886 205.00129083522245 1.0000000000088702
    vertex 78.28875915409886 205.00129083522245 0.8000000000088702
  endloop
endfacet
facet normal -0.5869580118626058 0.8096173740170708 -0.0
  outer loop
    vertex 78.28875915409886 205.00129083522245 1.0000000000088702
    vertex 81.90788033427046 207.62508849665772 0.8000000000088702
    vertex 78.28875915409886 205.00129083522245 0.8000000000088702
  endloop
endfacet
facet normal -0.5869580118626058 0.8096173740170708 -0.0
  outer loop
    vertex 81.90788033427046 207.62508849665772 0.8000000000088702
    vertex 78.28875915409886 205.00129083522245 1.0000000000088702
    vertex 81.90788033427046 207.62508849665772 1.0000000000088702
  endloop
endfacet
facet normal 0.15341147116896475 -0.9881623958205322 0.0
  outer loop
    vertex 91.49894262685831 202.77924277624842 1.0000000000088702
    vertex 86.86931151685988 202.06049601705334 0.8000000000088702
    vertex 91.49894262685831 202.77924277624842 0.8000000000088702
  endloop
endfacet
facet normal 0.15341147116896475 -0.9881623958205322 0.0
  outer loop
    vertex 86.86931151685988 202.06049601705334 0.8000000000088702
    vertex 91.49894262685831 202.77924277624842 1.0000000000088702
    vertex 86.86931151685988 202.06049601705334 1.0000000000088702
  endloop
endfacet
facet normal -0.9300771297924151 0.3673643050666506 0.0
  outer loop
    vertex 75.59462846756574 201.51278813023075 1.0000000000088702
    vertex 73.92090188778214 197.27531924195654 0.8000000000088702
    vertex 73.92090188778214 197.27531924195654 1.0000000000088702
  endloop
endfacet
facet normal -0.9300771297924151 0.3673643050666506 0.0
  outer loop
    vertex 73.92090188778214 197.27531924195654 0.8000000000088702
    vertex 75.59462846756574 201.51278813023075 1.0000000000088702
    vertex 75.59462846756574 201.51278813023075 0.8000000000088702
  endloop
endfacet
facet normal -0.9891856884809872 0.1466685845857781 0.0
  outer loop
    vertex 101.1096398751974 194.53624291452292 1.0000000000088702
    vertex 100.63709705336568 191.3492441589919 0.8000000000088702
    vertex 100.63709705336568 191.3492441589919 1.0000000000088702
  endloop
endfacet
facet normal -0.9891856884809872 0.1466685845857781 0.0
  outer loop
    vertex 100.63709705336568 191.3492441589919 0.8000000000088702
    vertex 101.1096398751974 194.53624291452292 1.0000000000088702
    vertex 101.1096398751974 194.53624291452292 0.8000000000088702
  endloop
endfacet
facet normal 0.09959075750796817 0.9950284825164499 -0.0
  outer loop
    vertex 91.49894262685831 209.81653363631486 1.0000000000088702
    vertex 96.62098161157947 209.30387721347194 0.8000000000088702
    vertex 91.49894262685831 209.81653363631486 0.8000000000088702
  endloop
endfacet
facet normal 0.09959075750796817 0.9950284825164499 -0.0
  outer loop
    vertex 96.62098161157947 209.30387721347194 0.8000000000088702
    vertex 91.49894262685831 209.81653363631486 1.0000000000088702
    vertex 96.62098161157947 209.30387721347194 1.0000000000088702
  endloop
endfacet
facet normal -0.8751102455091994 0.4839236078192805 0.0
  outer loop
    vertex 100.63709705336568 191.3492441589919 1.0000000000088702
    vertex 99.2194685878647 188.78565524859368 0.8000000000088702
    vertex 99.2194685878647 188.78565524859368 1.0000000000088702
  endloop
endfacet
facet normal -0.8751102455091994 0.4839236078192805 0.0
  outer loop
    vertex 99.2194685878647 188.78565524859368 0.8000000000088702
    vertex 100.63709705336568 191.3492441589919 1.0000000000088702
    vertex 100.63709705336568 191.3492441589919 0.8000000000088702
  endloop
endfacet
facet normal -0.8223202654835469 -0.5690249387988802 0.0
  outer loop
    vertex 98.65649759090753 200.38684613631497 1.0000000000088702
    vertex 100.49635430412494 197.72799701090017 0.8000000000088702
    vertex 100.49635430412494 197.72799701090017 1.0000000000088702
  endloop
endfacet
facet normal -0.8223202654835469 -0.5690249387988802 0.0
  outer loop
    vertex 100.49635430412494 197.72799701090017 0.8000000000088702
    vertex 98.65649759090753 200.38684613631497 1.0000000000088702
    vertex 98.65649759090753 200.38684613631497 0.8000000000088702
  endloop
endfacet
facet normal 0.0 -1.0 0.0
  outer loop
    vertex 101.61641918545496 181.1926709427309 1.0000000000093072
    vertex 91.56090941166427 181.1926709427309 0.8000000000093073
    vertex 101.61641918545496 181.1926709427309 0.8000000000093073
  endloop
endfacet
facet normal 0.0 -1.0 0.0
  outer loop
    vertex 91.56090941166427 181.1926709427309 0.8000000000093073
    vertex 101.61641918545496 181.1926709427309 1.0000000000093072
    vertex 91.56090941166427 181.1926709427309 1.0000000000093072
  endloop
endfacet
facet normal -0.14293004051280692 -0.9897327939999803 0.0
  outer loop
    vertex 95.64053770774883 202.1811436162651 1.0000000000088702
    vertex 91.49894262685831 202.77924277624842 0.8000000000088702
    vertex 95.64053770774883 202.1811436162651 0.8000000000088702
  endloop
endfacet
facet normal -0.14293004051280692 -0.9897327939999803 0.0
  outer loop
    vertex 91.49894262685831 202.77924277624842 0.8000000000088702
    vertex 95.64053770774883 202.1811436162651 1.0000000000088702
    vertex 91.49894262685831 202.77924277624842 1.0000000000088702
  endloop
endfacet
facet normal 0.5318495417827696 -0.8468388659629755 0.0
  outer loop
    vertex 86.86931151685988 202.06049601705334 1.0000000000088702
    vertex 83.43603212492185 199.90425573946752 0.8000000000088702
    vertex 86.86931151685988 202.06049601705334 0.8000000000088702
  endloop
endfacet
facet normal 0.5318495417827696 -0.8468388659629755 0.0
  outer loop
    vertex 83.43603212492185 199.90425573946752 0.8000000000088702
    vertex 86.86931151685988 202.06049601705334 1.0000000000088702
    vertex 83.43603212492185 199.90425573946752 1.0000000000088702
  endloop
endfacet
facet normal 0.0 -1.0 0.0
  outer loop
    vertex 80.60092859201114 192.40462303067324 1.0000000000088702
    vertex 73.3629930278533 192.40462303067324 0.8000000000088702
    vertex 80.60092859201114 192.40462303067324 0.8000000000088702
  endloop
endfacet
facet normal 0.0 -1.0 0.0
  outer loop
    vertex 73.3629930278533 192.40462303067324 0.8000000000088702
    vertex 80.60092859201114 192.40462303067324 1.0000000000088702
    vertex 73.3629930278533 192.40462303067324 1.0000000000088702
  endloop
endfacet
facet normal -0.10573342448509752 0.9943945107182834 -0.0
  outer loop
    vertex 86.34645412091284 209.2686723514007 1.0000000000088702
    vertex 91.49894262685831 209.81653363631486 0.8000000000088702
    vertex 86.34645412091284 209.2686723514007 0.8000000000088702
  endloop
endfacet
facet normal -0.10573342448509752 0.9943945107182834 -0.0
  outer loop
    vertex 91.49894262685831 209.81653363631486 0.8000000000088702
    vertex 86.34645412091284 209.2686723514007 1.0000000000088702
    vertex 91.49894262685831 209.81653363631486 1.0000000000088702
  endloop
endfacet
facet normal -0.5112909609791229 -0.8594076757983055 0.0
  outer loop
    vertex 98.65649759090753 200.38684613631497 1.0000000000088702
    vertex 95.64053770774883 202.1811436162651 0.8000000000088702
    vertex 98.65649759090753 200.38684613631497 0.8000000000088702
  endloop
endfacet
facet normal -0.5112909609791229 -0.8594076757983055 0.0
  outer loop
    vertex 95.64053770774883 202.1811436162651 0.8000000000088702
    vertex 98.65649759090753 200.38684613631497 1.0000000000088702
    vertex 95.64053770774883 202.1811436162651 1.0000000000088702
  endloop
endfacet
facet normal -0.347252604823133 0.9377716291526148 -0.0
  outer loop
    vertex 81.90788033427046 207.62508849665772 1.0000000000088702
    vertex 86.34645412091284 209.2686723514007 0.8000000000088702
    vertex 81.90788033427046 207.62508849665772 0.8000000000088702
  endloop
endfacet
facet normal -0.347252604823133 0.9377716291526148 -0.0
  outer loop
    vertex 86.34645412091284 209.2686723514007 0.8000000000088702
    vertex 81.90788033427046 207.62508849665772 1.0000000000088702
    vertex 86.34645412091284 209.2686723514007 1.0000000000088702
  endloop
endfacet
endsolid Extra-Characters_1_export
