solid 55_drum_export
facet normal 0.0 0.0 1.0
  outer loop
    vertex 67.35081593296074 10.283617641284035 10.000000000000002
    vertex 76.84174134709089 10.383617641284035 10.000000000000002
    vertex 67.33092469622275 10.383617641284035 10.000000000000002
  endloop
endfacet
facet normal 0.0 0.0 1.0
  outer loop
    vertex 76.84174134709089 10.383617641284035 10.000000000000002
    vertex 67.35081593296074 10.283617641284035 10.000000000000002
    vertex 67.40159276415486 10.02834527253681 10.000000000000002
  endloop
endfacet
facet normal 0.0 0.0 1.0
  outer loop
    vertex 76.84174134709089 10.383617641284035 10.000000000000002
    vertex 67.40159276415486 10.02834527253681 10.000000000000002
    vertex 67.60551728897708 9.427602994313359 10.000000000000002
  endloop
endfacet
facet normal 0.0 0.0 1.0
  outer loop
    vertex 76.84174134709089 10.383617641284035 10.000000000000002
    vertex 67.60551728897708 9.427602994313359 10.000000000000002
    vertex 67.88610981330234 8.858617641284043 10.000000000000002
  endloop
endfacet
facet normal 0.0 0.0 1.0
  outer loop
    vertex 76.84174134709089 10.383617641284035 10.000000000000002
    vertex 67.88610981330234 8.858617641284043 10.000000000000002
    vertex 68.23856932124434 8.331124710591741 10.000000000000002
  endloop
endfacet
facet normal 0.0 0.0 1.0
  outer loop
    vertex 76.84174134709089 10.383617641284035 10.000000000000002
    vertex 68.23856932124434 8.331124710591741 10.000000000000002
    vertex 68.6568651329021 7.854149752529268 10.000000000000002
  endloop
endfacet
facet normal 0.0 0.0 1.0
  outer loop
    vertex 76.84174134709089 10.383617641284035 10.000000000000002
    vertex 68.6568651329021 7.854149752529268 10.000000000000002
    vertex 69.13384009096453 7.4358539408715485 10.000000000000002
  endloop
endfacet
facet normal 0.0 0.0 1.0
  outer loop
    vertex 76.84174134709089 10.383617641284035 10.000000000000002
    vertex 69.13384009096453 7.4358539408715485 10.000000000000002
    vertex 69.66133302165683 7.083394432929507 10.000000000000002
  endloop
endfacet
facet normal 0.0 0.0 1.0
  outer loop
    vertex 76.84174134709089 10.383617641284035 10.000000000000002
    vertex 69.66133302165683 7.083394432929507 10.000000000000002
    vertex 70.23031837468616 6.802801908604297 10.000000000000002
  endloop
endfacet
facet normal 0.0 0.0 1.0
  outer loop
    vertex 76.84174134709089 10.383617641284035 10.000000000000002
    vertex 70.23031837468616 6.802801908604297 10.000000000000002
    vertex 70.83106065290961 6.598877383782045 10.000000000000002
  endloop
endfacet
facet normal 0.0 0.0 1.0
  outer loop
    vertex 76.84174134709089 10.383617641284035 10.000000000000002
    vertex 70.83106065290961 6.598877383782045 10.000000000000002
    vertex 71.45328098938957 6.475110063621044 10.000000000000002
  endloop
endfacet
facet normal 0.0 0.0 1.0
  outer loop
    vertex 76.84174134709089 10.383617641284035 10.000000000000002
    vertex 71.45328098938957 6.475110063621044 10.000000000000002
    vertex 72.08633302165683 6.433617641284031 10.000000000000002
  endloop
endfacet
facet normal 0.0 0.0 1.0
  outer loop
    vertex 76.84174134709089 10.383617641284035 10.000000000000002
    vertex 72.08633302165683 6.433617641284031 10.000000000000002
    vertex 72.71938505392407 6.475110063621044 10.000000000000002
  endloop
endfacet
facet normal 0.0 0.0 1.0
  outer loop
    vertex 76.84174134709089 10.383617641284035 10.000000000000002
    vertex 72.71938505392407 6.475110063621044 10.000000000000002
    vertex 73.34160539040407 6.598877383782045 10.000000000000002
  endloop
endfacet
facet normal 0.0 0.0 1.0
  outer loop
    vertex 76.84174134709089 10.383617641284035 10.000000000000002
    vertex 73.34160539040407 6.598877383782045 10.000000000000002
    vertex 73.94234766862756 6.802801908604297 10.000000000000002
  endloop
endfacet
facet normal 0.0 0.0 1.0
  outer loop
    vertex 76.84174134709089 10.383617641284035 10.000000000000002
    vertex 73.94234766862756 6.802801908604297 10.000000000000002
    vertex 74.51133302165681 7.083394432929507 10.000000000000002
  endloop
endfacet
facet normal 0.0 0.0 1.0
  outer loop
    vertex 76.84174134709089 10.383617641284035 10.000000000000002
    vertex 74.51133302165681 7.083394432929507 10.000000000000002
    vertex 75.03882595234911 7.4358539408715485 10.000000000000002
  endloop
endfacet
facet normal 0.0 0.0 1.0
  outer loop
    vertex 76.84174134709089 10.383617641284035 10.000000000000002
    vertex 75.03882595234911 7.4358539408715485 10.000000000000002
    vertex 75.51580091041163 7.854149752529268 10.000000000000002
  endloop
endfacet
facet normal 0.0 0.0 1.0
  outer loop
    vertex 76.84174134709089 10.383617641284035 10.000000000000002
    vertex 75.51580091041163 7.854149752529268 10.000000000000002
    vertex 75.9340967220693 8.331124710591741 10.000000000000002
  endloop
endfacet
facet normal 0.0 0.0 1.0
  outer loop
    vertex 76.84174134709089 10.383617641284035 10.000000000000002
    vertex 75.9340967220693 8.331124710591741 10.000000000000002
    vertex 76.2865562300114 8.858617641284022 10.000000000000002
  endloop
endfacet
facet normal 0.0 0.0 1.0
  outer loop
    vertex 76.84174134709089 10.383617641284035 10.000000000000002
    vertex 76.2865562300114 8.858617641284022 10.000000000000002
    vertex 76.56714875433656 9.427602994313338 10.000000000000002
  endloop
endfacet
facet normal 0.0 0.0 1.0
  outer loop
    vertex 76.84174134709089 10.383617641284035 10.000000000000002
    vertex 76.56714875433656 9.427602994313338 10.000000000000002
    vertex 76.82185011035294 10.283617641284035 10.000000000000002
  endloop
endfacet
facet normal 0.0 0.0 1.0
  outer loop
    vertex 76.82185011035294 10.283617641284035 10.000000000000002
    vertex 76.56714875433656 9.427602994313338 10.000000000000002
    vertex 76.77107327915887 10.02834527253681 10.000000000000002
  endloop
endfacet
facet normal 0.8314696123025339 -0.5555702330196192 0.0
  outer loop
    vertex 76.2865562300114 8.858617641284022 0.0
    vertex 75.9340967220693 8.331124710591741 10.000000000000002
    vertex 75.9340967220693 8.331124710591741 0.0
  endloop
endfacet
facet normal 0.8314696123025339 -0.5555702330196192 0.0
  outer loop
    vertex 75.9340967220693 8.331124710591741 10.000000000000002
    vertex 76.2865562300114 8.858617641284022 0.0
    vertex 76.2865562300114 8.858617641284022 10.000000000000002
  endloop
endfacet
facet normal 0.997858923238602 -0.06540312923016817 0.0
  outer loop
    vertex 76.93633302165689 11.283617641284033 0.0
    vertex 76.89484059931985 10.650565609016782 10.95
    vertex 76.89484059931985 10.650565609016782 0.0
  endloop
endfacet
facet normal 0.997858923238602 -0.06540312923016817 0.0
  outer loop
    vertex 76.89484059931985 10.650565609016782 10.95
    vertex 76.93633302165689 11.283617641284033 0.0
    vertex 76.93633302165689 11.283617641284033 10.95
  endloop
endfacet
facet normal -0.8968727415326913 0.4422886902189956 0.0
  outer loop
    vertex 67.88610981330234 13.708617641284047 10.000000000000002
    vertex 67.60551728897713 13.139632288254731 0.0
    vertex 67.60551728897713 13.139632288254731 10.000000000000002
  endloop
endfacet
facet normal -0.8968727415326913 0.4422886902189956 0.0
  outer loop
    vertex 67.60551728897713 13.139632288254731 0.0
    vertex 67.88610981330234 13.708617641284047 10.000000000000002
    vertex 67.88610981330234 13.708617641284047 0.0
  endloop
endfacet
facet normal 0.4422886902190097 0.8968727415326843 0.0
  outer loop
    vertex 73.94234766862756 15.76443337396377 10.000000000000002
    vertex 74.51133302165681 15.483840849638561 0.0
    vertex 73.94234766862756 15.76443337396377 0.0
  endloop
endfacet
facet normal 0.4422886902190097 0.8968727415326843 0.0
  outer loop
    vertex 74.51133302165681 15.483840849638561 0.0
    vertex 73.94234766862756 15.76443337396377 10.000000000000002
    vertex 74.51133302165681 15.483840849638561 10.000000000000002
  endloop
endfacet
facet normal -0.5555702330196028 0.8314696123025448 0.0
  outer loop
    vertex 69.13384009096453 15.13138134169652 10.000000000000002
    vertex 69.66133302165683 15.483840849638561 0.0
    vertex 69.13384009096453 15.13138134169652 0.0
  endloop
endfacet
facet normal -0.5555702330196028 0.8314696123025448 0.0
  outer loop
    vertex 69.66133302165683 15.483840849638561 0.0
    vertex 69.13384009096453 15.13138134169652 10.000000000000002
    vertex 69.66133302165683 15.483840849638561 10.000000000000002
  endloop
endfacet
facet normal -0.7518398074789817 0.6593458151000638 -1.1957577518447547e-31
  outer loop
    vertex 68.6568651329021 14.7130855300388 10.000000000000002
    vertex 68.23856932124434 14.236110571976326 0.0
    vertex 68.23856932124434 14.236110571976326 10.000000000000002
  endloop
endfacet
facet normal -0.7518398074789817 0.6593458151000638 -1.1957577518447547e-31
  outer loop
    vertex 68.23856932124434 14.236110571976326 0.0
    vertex 68.6568651329021 14.7130855300388 10.000000000000002
    vertex 68.6568651329021 14.7130855300388 0.0
  endloop
endfacet
facet normal 0.06540312923013274 0.9978589232386043 0.0
  outer loop
    vertex 72.08633302165683 16.133617641284037 10.000000000000002
    vertex 72.71938505392407 16.09212521894702 0.0
    vertex 72.08633302165683 16.133617641284037 0.0
  endloop
endfacet
facet normal 0.06540312923013274 0.9978589232386043 0.0
  outer loop
    vertex 72.71938505392407 16.09212521894702 0.0
    vertex 72.08633302165683 16.133617641284037 10.000000000000002
    vertex 72.71938505392407 16.09212521894702 10.000000000000002
  endloop
endfacet
facet normal -0.6593458151000614 0.7518398074789839 -1.048651403808966e-31
  outer loop
    vertex 68.6568651329021 14.7130855300388 10.000000000000002
    vertex 69.13384009096453 15.13138134169652 0.0
    vertex 68.6568651329021 14.7130855300388 0.0
  endloop
endfacet
facet normal -0.6593458151000614 0.7518398074789839 -1.048651403808966e-31
  outer loop
    vertex 69.13384009096453 15.13138134169652 0.0
    vertex 68.6568651329021 14.7130855300388 10.000000000000002
    vertex 69.13384009096453 15.13138134169652 10.000000000000002
  endloop
endfacet
facet normal -0.19509032201613857 0.9807852804032285 0.0
  outer loop
    vertex 70.83106065290967 15.968357898786023 10.000000000000002
    vertex 71.45328098938957 16.09212521894702 0.0
    vertex 70.83106065290967 15.968357898786023 0.0
  endloop
endfacet
facet normal -0.19509032201613857 0.9807852804032285 0.0
  outer loop
    vertex 71.45328098938957 16.09212521894702 0.0
    vertex 70.83106065290967 15.968357898786023 10.000000000000002
    vertex 71.45328098938957 16.09212521894702 10.000000000000002
  endloop
endfacet
facet normal 0.19509032201612495 0.9807852804032311 0.0
  outer loop
    vertex 72.71938505392407 16.09212521894702 10.000000000000002
    vertex 73.34160539040407 15.968357898786023 0.0
    vertex 72.71938505392407 16.09212521894702 0.0
  endloop
endfacet
facet normal 0.19509032201612495 0.9807852804032311 0.0
  outer loop
    vertex 73.34160539040407 15.968357898786023 0.0
    vertex 72.71938505392407 16.09212521894702 10.000000000000002
    vertex 73.34160539040407 15.968357898786023 10.000000000000002
  endloop
endfacet
facet normal -0.32143946530317086 0.9469301294951027 5.112308879652462e-32
  outer loop
    vertex 70.23031837468616 15.76443337396377 10.000000000000002
    vertex 70.83106065290967 15.968357898786023 0.0
    vertex 70.23031837468616 15.76443337396377 0.0
  endloop
endfacet
facet normal -0.32143946530317086 0.9469301294951027 5.112308879652462e-32
  outer loop
    vertex 70.83106065290967 15.968357898786023 0.0
    vertex 70.23031837468616 15.76443337396377 10.000000000000002
    vertex 70.83106065290967 15.968357898786023 10.000000000000002
  endloop
endfacet
facet normal -0.9469301294951027 0.32143946530317086 1.5060376313351577e-31
  outer loop
    vertex 67.60551728897713 13.139632288254731 10.000000000000002
    vertex 67.40159276415486 12.538890010031256 0.0
    vertex 67.40159276415486 12.538890010031256 10.000000000000002
  endloop
endfacet
facet normal -0.9469301294951027 0.32143946530317086 1.5060376313351577e-31
  outer loop
    vertex 67.40159276415486 12.538890010031256 0.0
    vertex 67.60551728897713 13.139632288254731 10.000000000000002
    vertex 67.60551728897713 13.139632288254731 0.0
  endloop
endfacet
facet normal -0.06540312923013274 0.9978589232386043 0.0
  outer loop
    vertex 71.45328098938957 16.09212521894702 10.000000000000002
    vertex 72.08633302165683 16.133617641284037 0.0
    vertex 71.45328098938957 16.09212521894702 0.0
  endloop
endfacet
facet normal -0.06540312923013274 0.9978589232386043 0.0
  outer loop
    vertex 72.08633302165683 16.133617641284037 0.0
    vertex 71.45328098938957 16.09212521894702 10.000000000000002
    vertex 72.08633302165683 16.133617641284037 10.000000000000002
  endloop
endfacet
facet normal 0.6593458151000439 0.7518398074789994 0.0
  outer loop
    vertex 75.03882595234911 15.13138134169652 10.000000000000002
    vertex 75.51580091041163 14.7130855300388 0.0
    vertex 75.03882595234911 15.13138134169652 0.0
  endloop
endfacet
facet normal 0.6593458151000439 0.7518398074789994 0.0
  outer loop
    vertex 75.51580091041163 14.7130855300388 0.0
    vertex 75.03882595234911 15.13138134169652 10.000000000000002
    vertex 75.51580091041163 14.7130855300388 10.000000000000002
  endloop
endfacet
facet normal 0.9807852804032379 0.19509032201609203 3.3387772719357302e-16
  outer loop
    vertex 76.82185011035294 12.283617641284032 0.0
    vertex 76.84174134709089 12.183617641284032 10.000000000000002
    vertex 76.84174134709089 12.183617641284032 0.0
  endloop
endfacet
facet normal 0.9807852804032379 0.19509032201609203 3.3387772719357302e-16
  outer loop
    vertex 76.84174134709089 12.183617641284032 10.000000000000002
    vertex 76.82185011035294 12.283617641284032 0.0
    vertex 76.82185011035294 12.283617641284032 10.000000000000002
  endloop
endfacet
facet normal 0.9807852804032379 0.19509032201609203 3.3387772719357302e-16
  outer loop
    vertex 76.82185011035294 12.283617641284032 10.000000000000002
    vertex 76.82185011035294 12.283617641284032 0.0
    vertex 76.77107327915887 12.538890010031256 0.0
  endloop
endfacet
facet normal 0.9807852804032379 0.19509032201609203 3.3387772719357302e-16
  outer loop
    vertex 76.82185011035294 12.283617641284032 10.000000000000002
    vertex 76.77107327915887 12.538890010031256 0.0
    vertex 76.77107327915887 12.538890010031256 10.000000000000002
  endloop
endfacet
facet normal 0.9807852804032379 0.19509032201609203 3.3387772719357302e-16
  outer loop
    vertex 76.84174134709089 12.183617641284032 0.0
    vertex 76.89484059931985 11.916669673551286 10.95
    vertex 76.89484059931985 11.916669673551286 0.0
  endloop
endfacet
facet normal 0.9807852804032379 0.19509032201609203 3.3387772719357302e-16
  outer loop
    vertex 76.89484059931985 11.916669673551286 10.95
    vertex 76.84174134709089 12.183617641284032 0.0
    vertex 76.84174134709089 12.183617641284032 10.95
  endloop
endfacet
facet normal 0.9807852804032379 0.19509032201609203 3.3387772719357302e-16
  outer loop
    vertex 76.84174134709089 12.183617641284032 10.95
    vertex 76.84174134709089 12.183617641284032 0.0
    vertex 76.84174134709089 12.183617641284032 10.000000000000002
  endloop
endfacet
facet normal 0.9469301294950881 0.32143946530321355 0.0
  outer loop
    vertex 76.56714875433656 13.139632288254708 0.0
    vertex 76.77107327915887 12.538890010031256 10.000000000000002
    vertex 76.77107327915887 12.538890010031256 0.0
  endloop
endfacet
facet normal 0.9469301294950881 0.32143946530321355 0.0
  outer loop
    vertex 76.77107327915887 12.538890010031256 10.000000000000002
    vertex 76.56714875433656 13.139632288254708 0.0
    vertex 76.56714875433656 13.139632288254708 10.000000000000002
  endloop
endfacet
facet normal 0.5555702330196028 0.8314696123025448 0.0
  outer loop
    vertex 74.51133302165681 15.483840849638561 10.000000000000002
    vertex 75.03882595234911 15.13138134169652 0.0
    vertex 74.51133302165681 15.483840849638561 0.0
  endloop
endfacet
facet normal 0.5555702330196028 0.8314696123025448 0.0
  outer loop
    vertex 75.03882595234911 15.13138134169652 0.0
    vertex 74.51133302165681 15.483840849638561 10.000000000000002
    vertex 75.03882595234911 15.13138134169652 10.000000000000002
  endloop
endfacet
facet normal 0.9807852804032379 -0.19509032201609203 3.3404706500956303e-16
  outer loop
    vertex 76.82185011035294 10.283617641284035 0.0
    vertex 76.77107327915887 10.02834527253681 10.000000000000002
    vertex 76.77107327915887 10.02834527253681 0.0
  endloop
endfacet
facet normal 0.9807852804032379 -0.19509032201609203 3.3404706500956303e-16
  outer loop
    vertex 76.77107327915887 10.02834527253681 10.000000000000002
    vertex 76.82185011035294 10.283617641284035 0.0
    vertex 76.82185011035294 10.283617641284035 10.000000000000002
  endloop
endfacet
facet normal 0.9807852804032379 -0.19509032201609203 3.3404706500956303e-16
  outer loop
    vertex 76.82185011035294 10.283617641284035 10.000000000000002
    vertex 76.82185011035294 10.283617641284035 0.0
    vertex 76.84174134709089 10.383617641284035 0.0
  endloop
endfacet
facet normal 0.9807852804032379 -0.19509032201609203 3.3404706500956303e-16
  outer loop
    vertex 76.82185011035294 10.283617641284035 10.000000000000002
    vertex 76.84174134709089 10.383617641284035 0.0
    vertex 76.84174134709089 10.383617641284035 10.000000000000002
  endloop
endfacet
facet normal 0.9807852804032379 -0.19509032201609203 3.3404706500956303e-16
  outer loop
    vertex 76.84174134709089 10.383617641284035 10.000000000000002
    vertex 76.84174134709089 10.383617641284035 0.0
    vertex 76.89484059931985 10.650565609016782 0.0
  endloop
endfacet
facet normal 0.9807852804032379 -0.19509032201609203 3.3404706500956303e-16
  outer loop
    vertex 76.84174134709089 10.383617641284035 10.000000000000002
    vertex 76.89484059931985 10.650565609016782 0.0
    vertex 76.84174134709089 10.383617641284035 10.95
  endloop
endfacet
facet normal 0.9807852804032379 -0.19509032201609203 3.3404706500956303e-16
  outer loop
    vertex 76.84174134709089 10.383617641284035 10.95
    vertex 76.89484059931985 10.650565609016782 0.0
    vertex 76.89484059931985 10.650565609016782 10.95
  endloop
endfacet
facet normal 0.19509032201612495 -0.9807852804032311 0.0
  outer loop
    vertex 73.34160539040407 6.598877383782045 10.000000000000002
    vertex 72.71938505392407 6.475110063621044 0.0
    vertex 73.34160539040407 6.598877383782045 0.0
  endloop
endfacet
facet normal 0.19509032201612495 -0.9807852804032311 0.0
  outer loop
    vertex 72.71938505392407 6.475110063621044 0.0
    vertex 73.34160539040407 6.598877383782045 10.000000000000002
    vertex 72.71938505392407 6.475110063621044 10.000000000000002
  endloop
endfacet
facet normal 0.7518398074789994 0.6593458151000439 0.0
  outer loop
    vertex 75.51580091041163 14.7130855300388 0.0
    vertex 75.9340967220693 14.236110571976326 10.000000000000002
    vertex 75.9340967220693 14.236110571976326 0.0
  endloop
endfacet
facet normal 0.7518398074789994 0.6593458151000439 0.0
  outer loop
    vertex 75.9340967220693 14.236110571976326 10.000000000000002
    vertex 75.51580091041163 14.7130855300388 0.0
    vertex 75.51580091041163 14.7130855300388 10.000000000000002
  endloop
endfacet
facet normal 0.8968727415326913 0.4422886902189956 0.0
  outer loop
    vertex 76.2865562300114 13.708617641284023 0.0
    vertex 76.56714875433656 13.139632288254708 10.000000000000002
    vertex 76.56714875433656 13.139632288254708 0.0
  endloop
endfacet
facet normal 0.8968727415326913 0.4422886902189956 0.0
  outer loop
    vertex 76.56714875433656 13.139632288254708 10.000000000000002
    vertex 76.2865562300114 13.708617641284023 0.0
    vertex 76.2865562300114 13.708617641284023 10.000000000000002
  endloop
endfacet
facet normal 0.3214394653031817 -0.9469301294950989 0.0
  outer loop
    vertex 73.94234766862756 6.802801908604297 10.000000000000002
    vertex 73.34160539040407 6.598877383782045 0.0
    vertex 73.94234766862756 6.802801908604297 0.0
  endloop
endfacet
facet normal 0.3214394653031817 -0.9469301294950989 0.0
  outer loop
    vertex 73.34160539040407 6.598877383782045 0.0
    vertex 73.94234766862756 6.802801908604297 10.000000000000002
    vertex 73.34160539040407 6.598877383782045 10.000000000000002
  endloop
endfacet
facet normal -0.8968727415326772 -0.44228869021902417 -1.4264242494714366e-31
  outer loop
    vertex 67.60551728897708 9.427602994313359 10.000000000000002
    vertex 67.88610981330234 8.858617641284043 0.0
    vertex 67.88610981330234 8.858617641284043 10.000000000000002
  endloop
endfacet
facet normal -0.8968727415326772 -0.44228869021902417 -1.4264242494714366e-31
  outer loop
    vertex 67.88610981330234 8.858617641284043 0.0
    vertex 67.60551728897708 9.427602994313359 10.000000000000002
    vertex 67.60551728897708 9.427602994313359 0.0
  endloop
endfacet
facet normal -0.3214394653031817 -0.9469301294950989 0.0
  outer loop
    vertex 70.83106065290961 6.598877383782045 10.000000000000002
    vertex 70.23031837468616 6.802801908604297 0.0
    vertex 70.83106065290961 6.598877383782045 0.0
  endloop
endfacet
facet normal -0.3214394653031817 -0.9469301294950989 0.0
  outer loop
    vertex 70.23031837468616 6.802801908604297 0.0
    vertex 70.83106065290961 6.598877383782045 10.000000000000002
    vertex 70.23031837468616 6.802801908604297 10.000000000000002
  endloop
endfacet
facet normal 0.6593458151000439 -0.7518398074789994 0.0
  outer loop
    vertex 75.51580091041163 7.854149752529268 10.000000000000002
    vertex 75.03882595234911 7.4358539408715485 0.0
    vertex 75.51580091041163 7.854149752529268 0.0
  endloop
endfacet
facet normal 0.6593458151000439 -0.7518398074789994 0.0
  outer loop
    vertex 75.03882595234911 7.4358539408715485 0.0
    vertex 75.51580091041163 7.854149752529268 10.000000000000002
    vertex 75.03882595234911 7.4358539408715485 10.000000000000002
  endloop
endfacet
facet normal -0.8314696123025503 0.5555702330195946 1.1631991703892676e-18
  outer loop
    vertex 68.23856932124434 14.236110571976326 10.000000000000002
    vertex 67.88610981330234 13.708617641284047 0.0
    vertex 67.88610981330234 13.708617641284047 10.000000000000002
  endloop
endfacet
facet normal -0.8314696123025503 0.5555702330195946 1.1631991703892676e-18
  outer loop
    vertex 67.88610981330234 13.708617641284047 0.0
    vertex 68.23856932124434 14.236110571976326 10.000000000000002
    vertex 68.23856932124434 14.236110571976326 0.0
  endloop
endfacet
facet normal -0.6593458151000614 -0.7518398074789839 -1.048651403808966e-31
  outer loop
    vertex 69.13384009096453 7.4358539408715485 10.000000000000002
    vertex 68.6568651329021 7.854149752529268 0.0
    vertex 69.13384009096453 7.4358539408715485 0.0
  endloop
endfacet
facet normal -0.6593458151000614 -0.7518398074789839 -1.048651403808966e-31
  outer loop
    vertex 68.6568651329021 7.854149752529268 0.0
    vertex 69.13384009096453 7.4358539408715485 10.000000000000002
    vertex 68.6568651329021 7.854149752529268 10.000000000000002
  endloop
endfacet
facet normal -0.4422886902189956 -0.8968727415326913 -7.034345942069746e-32
  outer loop
    vertex 70.23031837468616 6.802801908604297 10.000000000000002
    vertex 69.66133302165683 7.083394432929507 0.0
    vertex 70.23031837468616 6.802801908604297 0.0
  endloop
endfacet
facet normal -0.4422886902189956 -0.8968727415326913 -7.034345942069746e-32
  outer loop
    vertex 69.66133302165683 7.083394432929507 0.0
    vertex 70.23031837468616 6.802801908604297 10.000000000000002
    vertex 69.66133302165683 7.083394432929507 10.000000000000002
  endloop
endfacet
facet normal 0.3214394653031817 0.9469301294950989 0.0
  outer loop
    vertex 73.34160539040407 15.968357898786023 10.000000000000002
    vertex 73.94234766862756 15.76443337396377 0.0
    vertex 73.34160539040407 15.968357898786023 0.0
  endloop
endfacet
facet normal 0.3214394653031817 0.9469301294950989 0.0
  outer loop
    vertex 73.94234766862756 15.76443337396377 0.0
    vertex 73.34160539040407 15.968357898786023 10.000000000000002
    vertex 73.94234766862756 15.76443337396377 10.000000000000002
  endloop
endfacet
facet normal -0.8314696123025613 -0.5555702330195782 1.1631991703892834e-18
  outer loop
    vertex 67.88610981330234 8.858617641284043 10.000000000000002
    vertex 68.23856932124434 8.331124710591741 0.0
    vertex 68.23856932124434 8.331124710591741 10.000000000000002
  endloop
endfacet
facet normal -0.8314696123025613 -0.5555702330195782 1.1631991703892834e-18
  outer loop
    vertex 68.23856932124434 8.331124710591741 0.0
    vertex 67.88610981330234 8.858617641284043 10.000000000000002
    vertex 67.88610981330234 8.858617641284043 0.0
  endloop
endfacet
facet normal -0.4422886902189956 0.8968727415326913 -7.034345942069746e-32
  outer loop
    vertex 69.66133302165683 15.483840849638561 10.000000000000002
    vertex 70.23031837468616 15.76443337396377 0.0
    vertex 69.66133302165683 15.483840849638561 0.0
  endloop
endfacet
facet normal -0.4422886902189956 0.8968727415326913 -7.034345942069746e-32
  outer loop
    vertex 70.23031837468616 15.76443337396377 0.0
    vertex 69.66133302165683 15.483840849638561 10.000000000000002
    vertex 70.23031837468616 15.76443337396377 10.000000000000002
  endloop
endfacet
facet normal -0.5555702330196028 -0.8314696123025448 0.0
  outer loop
    vertex 69.66133302165683 7.083394432929507 10.000000000000002
    vertex 69.13384009096453 7.4358539408715485 0.0
    vertex 69.66133302165683 7.083394432929507 0.0
  endloop
endfacet
facet normal -0.5555702330196028 -0.8314696123025448 0.0
  outer loop
    vertex 69.13384009096453 7.4358539408715485 0.0
    vertex 69.66133302165683 7.083394432929507 10.000000000000002
    vertex 69.13384009096453 7.4358539408715485 10.000000000000002
  endloop
endfacet
facet normal 0.8314696123025448 0.5555702330196028 0.0
  outer loop
    vertex 75.9340967220693 14.236110571976326 0.0
    vertex 76.2865562300114 13.708617641284023 10.000000000000002
    vertex 76.2865562300114 13.708617641284023 0.0
  endloop
endfacet
facet normal 0.8314696123025448 0.5555702330196028 0.0
  outer loop
    vertex 76.2865562300114 13.708617641284023 10.000000000000002
    vertex 75.9340967220693 14.236110571976326 0.0
    vertex 75.9340967220693 14.236110571976326 10.000000000000002
  endloop
endfacet
facet normal 0.9469301294950917 -0.3214394653032027 0.0
  outer loop
    vertex 76.77107327915887 10.02834527253681 0.0
    vertex 76.56714875433656 9.427602994313338 10.000000000000002
    vertex 76.56714875433656 9.427602994313338 0.0
  endloop
endfacet
facet normal 0.9469301294950917 -0.3214394653032027 0.0
  outer loop
    vertex 76.56714875433656 9.427602994313338 10.000000000000002
    vertex 76.77107327915887 10.02834527253681 0.0
    vertex 76.77107327915887 10.02834527253681 10.000000000000002
  endloop
endfacet
facet normal -0.19509032201613172 -0.9807852804032298 3.1027987949041995e-32
  outer loop
    vertex 71.45328098938957 6.475110063621044 10.000000000000002
    vertex 70.83106065290961 6.598877383782045 0.0
    vertex 71.45328098938957 6.475110063621044 0.0
  endloop
endfacet
facet normal -0.19509032201613172 -0.9807852804032298 3.1027987949041995e-32
  outer loop
    vertex 70.83106065290961 6.598877383782045 0.0
    vertex 71.45328098938957 6.475110063621044 10.000000000000002
    vertex 70.83106065290961 6.598877383782045 10.000000000000002
  endloop
endfacet
facet normal 0.5555702330196028 -0.8314696123025448 0.0
  outer loop
    vertex 75.03882595234911 7.4358539408715485 10.000000000000002
    vertex 74.51133302165681 7.083394432929507 0.0
    vertex 75.03882595234911 7.4358539408715485 0.0
  endloop
endfacet
facet normal 0.5555702330196028 -0.8314696123025448 0.0
  outer loop
    vertex 74.51133302165681 7.083394432929507 0.0
    vertex 75.03882595234911 7.4358539408715485 10.000000000000002
    vertex 74.51133302165681 7.083394432929507 10.000000000000002
  endloop
endfacet
facet normal 0.8968727415326913 -0.4422886902189956 0.0
  outer loop
    vertex 76.56714875433656 9.427602994313338 0.0
    vertex 76.2865562300114 8.858617641284022 10.000000000000002
    vertex 76.2865562300114 8.858617641284022 0.0
  endloop
endfacet
facet normal 0.8968727415326913 -0.4422886902189956 0.0
  outer loop
    vertex 76.2865562300114 8.858617641284022 10.000000000000002
    vertex 76.56714875433656 9.427602994313338 0.0
    vertex 76.56714875433656 9.427602994313338 10.000000000000002
  endloop
endfacet
facet normal -0.997858923238602 0.06540312923016817 0.0
  outer loop
    vertex 67.27782544399388 11.916669673551286 10.95
    vertex 67.23633302165685 11.283617641284033 0.0
    vertex 67.23633302165685 11.283617641284033 10.95
  endloop
endfacet
facet normal -0.997858923238602 0.06540312923016817 0.0
  outer loop
    vertex 67.23633302165685 11.283617641284033 0.0
    vertex 67.27782544399388 11.916669673551286 10.95
    vertex 67.27782544399388 11.916669673551286 0.0
  endloop
endfacet
facet normal 0.4422886902190097 -0.8968727415326843 0.0
  outer loop
    vertex 74.51133302165681 7.083394432929507 10.000000000000002
    vertex 73.94234766862756 6.802801908604297 0.0
    vertex 74.51133302165681 7.083394432929507 0.0
  endloop
endfacet
facet normal 0.4422886902190097 -0.8968727415326843 0.0
  outer loop
    vertex 73.94234766862756 6.802801908604297 0.0
    vertex 74.51133302165681 7.083394432929507 10.000000000000002
    vertex 73.94234766862756 6.802801908604297 10.000000000000002
  endloop
endfacet
facet normal 0.0 0.0 -1.0
  outer loop
    vertex 67.27782544399388 11.916669673551286 0.0
    vertex 67.27782544399388 10.650565609016782 0.0
    vertex 67.23633302165685 11.283617641284033 0.0
  endloop
endfacet
facet normal 0.0 0.0 -1.0
  outer loop
    vertex 67.27782544399388 10.650565609016782 0.0
    vertex 67.27782544399388 11.916669673551286 0.0
    vertex 67.33092469622281 12.183617641284032 0.0
  endloop
endfacet
facet normal 0.0 0.0 -1.0
  outer loop
    vertex 67.27782544399388 10.650565609016782 0.0
    vertex 67.33092469622281 12.183617641284032 0.0
    vertex 67.33092469622275 10.383617641284035 0.0
  endloop
endfacet
facet normal 0.0 0.0 -1.0
  outer loop
    vertex 67.33092469622275 10.383617641284035 0.0
    vertex 67.33092469622281 12.183617641284032 0.0
    vertex 67.35081593296074 10.283617641284035 0.0
  endloop
endfacet
facet normal 0.0 0.0 -1.0
  outer loop
    vertex 67.35081593296074 10.283617641284035 0.0
    vertex 67.33092469622281 12.183617641284032 0.0
    vertex 67.35081593296074 12.283617641284032 0.0
  endloop
endfacet
facet normal 0.0 0.0 -1.0
  outer loop
    vertex 67.35081593296074 10.283617641284035 0.0
    vertex 67.35081593296074 12.283617641284032 0.0
    vertex 67.40159276415486 12.538890010031256 0.0
  endloop
endfacet
facet normal 0.0 0.0 -1.0
  outer loop
    vertex 67.35081593296074 10.283617641284035 0.0
    vertex 67.40159276415486 12.538890010031256 0.0
    vertex 67.40159276415486 10.02834527253681 0.0
  endloop
endfacet
facet normal 0.0 0.0 -1.0
  outer loop
    vertex 67.40159276415486 10.02834527253681 0.0
    vertex 67.40159276415486 12.538890010031256 0.0
    vertex 67.60551728897713 13.139632288254731 0.0
  endloop
endfacet
facet normal 0.0 0.0 -1.0
  outer loop
    vertex 67.40159276415486 10.02834527253681 0.0
    vertex 67.60551728897713 13.139632288254731 0.0
    vertex 67.60551728897708 9.427602994313359 0.0
  endloop
endfacet
facet normal 0.0 0.0 -1.0
  outer loop
    vertex 67.60551728897708 9.427602994313359 0.0
    vertex 67.60551728897713 13.139632288254731 0.0
    vertex 67.88610981330234 8.858617641284043 0.0
  endloop
endfacet
facet normal 0.0 0.0 -1.0
  outer loop
    vertex 67.88610981330234 8.858617641284043 0.0
    vertex 67.60551728897713 13.139632288254731 0.0
    vertex 67.88610981330234 13.708617641284047 0.0
  endloop
endfacet
facet normal 0.0 0.0 -1.0
  outer loop
    vertex 67.88610981330234 8.858617641284043 0.0
    vertex 67.88610981330234 13.708617641284047 0.0
    vertex 68.23856932124434 14.236110571976326 0.0
  endloop
endfacet
facet normal 0.0 0.0 -1.0
  outer loop
    vertex 67.88610981330234 8.858617641284043 0.0
    vertex 68.23856932124434 14.236110571976326 0.0
    vertex 68.23856932124434 8.331124710591741 0.0
  endloop
endfacet
facet normal 0.0 0.0 -1.0
  outer loop
    vertex 68.23856932124434 8.331124710591741 0.0
    vertex 68.23856932124434 14.236110571976326 0.0
    vertex 68.6568651329021 14.7130855300388 0.0
  endloop
endfacet
facet normal 0.0 0.0 -1.0
  outer loop
    vertex 68.23856932124434 8.331124710591741 0.0
    vertex 68.6568651329021 14.7130855300388 0.0
    vertex 68.6568651329021 7.854149752529268 0.0
  endloop
endfacet
facet normal 0.0 0.0 -1.0
  outer loop
    vertex 68.6568651329021 7.854149752529268 0.0
    vertex 68.6568651329021 14.7130855300388 0.0
    vertex 69.13384009096453 15.13138134169652 0.0
  endloop
endfacet
facet normal 0.0 0.0 -1.0
  outer loop
    vertex 68.6568651329021 7.854149752529268 0.0
    vertex 69.13384009096453 15.13138134169652 0.0
    vertex 69.13384009096453 7.4358539408715485 0.0
  endloop
endfacet
facet normal 0.0 0.0 -1.0
  outer loop
    vertex 69.13384009096453 7.4358539408715485 0.0
    vertex 69.13384009096453 15.13138134169652 0.0
    vertex 69.66133302165683 15.483840849638561 0.0
  endloop
endfacet
facet normal 0.0 0.0 -1.0
  outer loop
    vertex 69.13384009096453 7.4358539408715485 0.0
    vertex 69.66133302165683 15.483840849638561 0.0
    vertex 69.66133302165683 7.083394432929507 0.0
  endloop
endfacet
facet normal 0.0 0.0 -1.0
  outer loop
    vertex 69.66133302165683 7.083394432929507 0.0
    vertex 69.66133302165683 15.483840849638561 0.0
    vertex 70.23031837468616 15.76443337396377 0.0
  endloop
endfacet
facet normal 0.0 0.0 -1.0
  outer loop
    vertex 69.66133302165683 7.083394432929507 0.0
    vertex 70.23031837468616 15.76443337396377 0.0
    vertex 70.23031837468616 6.802801908604297 0.0
  endloop
endfacet
facet normal 0.0 0.0 -1.0
  outer loop
    vertex 70.23031837468616 6.802801908604297 0.0
    vertex 70.23031837468616 15.76443337396377 0.0
    vertex 70.83106065290967 15.968357898786023 0.0
  endloop
endfacet
facet normal 0.0 0.0 -1.0
  outer loop
    vertex 70.23031837468616 6.802801908604297 0.0
    vertex 70.83106065290967 15.968357898786023 0.0
    vertex 70.83106065290961 6.598877383782045 0.0
  endloop
endfacet
facet normal 0.0 0.0 -1.0
  outer loop
    vertex 70.83106065290961 6.598877383782045 0.0
    vertex 70.83106065290967 15.968357898786023 0.0
    vertex 71.45328098938957 6.475110063621044 0.0
  endloop
endfacet
facet normal 0.0 0.0 -1.0
  outer loop
    vertex 71.45328098938957 6.475110063621044 0.0
    vertex 70.83106065290967 15.968357898786023 0.0
    vertex 71.45328098938957 16.09212521894702 0.0
  endloop
endfacet
facet normal 0.0 0.0 -1.0
  outer loop
    vertex 71.45328098938957 6.475110063621044 0.0
    vertex 71.45328098938957 16.09212521894702 0.0
    vertex 72.08633302165683 16.133617641284037 0.0
  endloop
endfacet
facet normal 0.0 0.0 -1.0
  outer loop
    vertex 71.45328098938957 6.475110063621044 0.0
    vertex 72.08633302165683 16.133617641284037 0.0
    vertex 72.08633302165683 6.433617641284031 0.0
  endloop
endfacet
facet normal 0.0 0.0 -1.0
  outer loop
    vertex 72.08633302165683 6.433617641284031 0.0
    vertex 72.08633302165683 16.133617641284037 0.0
    vertex 72.71938505392407 16.09212521894702 0.0
  endloop
endfacet
facet normal 0.0 0.0 -1.0
  outer loop
    vertex 72.08633302165683 6.433617641284031 0.0
    vertex 72.71938505392407 16.09212521894702 0.0
    vertex 72.71938505392407 6.475110063621044 0.0
  endloop
endfacet
facet normal 0.0 0.0 -1.0
  outer loop
    vertex 72.71938505392407 6.475110063621044 0.0
    vertex 72.71938505392407 16.09212521894702 0.0
    vertex 73.34160539040407 15.968357898786023 0.0
  endloop
endfacet
facet normal 0.0 0.0 -1.0
  outer loop
    vertex 72.71938505392407 6.475110063621044 0.0
    vertex 73.34160539040407 15.968357898786023 0.0
    vertex 73.34160539040407 6.598877383782045 0.0
  endloop
endfacet
facet normal 0.0 0.0 -1.0
  outer loop
    vertex 73.34160539040407 6.598877383782045 0.0
    vertex 73.34160539040407 15.968357898786023 0.0
    vertex 73.94234766862756 15.76443337396377 0.0
  endloop
endfacet
facet normal 0.0 0.0 -1.0
  outer loop
    vertex 73.34160539040407 6.598877383782045 0.0
    vertex 73.94234766862756 15.76443337396377 0.0
    vertex 73.94234766862756 6.802801908604297 0.0
  endloop
endfacet
facet normal 0.0 0.0 -1.0
  outer loop
    vertex 73.94234766862756 6.802801908604297 0.0
    vertex 73.94234766862756 15.76443337396377 0.0
    vertex 74.51133302165681 15.483840849638561 0.0
  endloop
endfacet
facet normal 0.0 0.0 -1.0
  outer loop
    vertex 73.94234766862756 6.802801908604297 0.0
    vertex 74.51133302165681 15.483840849638561 0.0
    vertex 74.51133302165681 7.083394432929507 0.0
  endloop
endfacet
facet normal 0.0 0.0 -1.0
  outer loop
    vertex 74.51133302165681 7.083394432929507 0.0
    vertex 74.51133302165681 15.483840849638561 0.0
    vertex 75.03882595234911 15.13138134169652 0.0
  endloop
endfacet
facet normal 0.0 0.0 -1.0
  outer loop
    vertex 74.51133302165681 7.083394432929507 0.0
    vertex 75.03882595234911 15.13138134169652 0.0
    vertex 75.03882595234911 7.4358539408715485 0.0
  endloop
endfacet
facet normal 0.0 0.0 -1.0
  outer loop
    vertex 75.03882595234911 7.4358539408715485 0.0
    vertex 75.03882595234911 15.13138134169652 0.0
    vertex 75.51580091041163 14.7130855300388 0.0
  endloop
endfacet
facet normal 0.0 0.0 -1.0
  outer loop
    vertex 75.03882595234911 7.4358539408715485 0.0
    vertex 75.51580091041163 14.7130855300388 0.0
    vertex 75.51580091041163 7.854149752529268 0.0
  endloop
endfacet
facet normal 0.0 0.0 -1.0
  outer loop
    vertex 75.51580091041163 7.854149752529268 0.0
    vertex 75.51580091041163 14.7130855300388 0.0
    vertex 75.9340967220693 14.236110571976326 0.0
  endloop
endfacet
facet normal 0.0 0.0 -1.0
  outer loop
    vertex 75.51580091041163 7.854149752529268 0.0
    vertex 75.9340967220693 14.236110571976326 0.0
    vertex 75.9340967220693 8.331124710591741 0.0
  endloop
endfacet
facet normal 0.0 0.0 -1.0
  outer loop
    vertex 75.9340967220693 8.331124710591741 0.0
    vertex 75.9340967220693 14.236110571976326 0.0
    vertex 76.2865562300114 13.708617641284023 0.0
  endloop
endfacet
facet normal 0.0 0.0 -1.0
  outer loop
    vertex 75.9340967220693 8.331124710591741 0.0
    vertex 76.2865562300114 13.708617641284023 0.0
    vertex 76.2865562300114 8.858617641284022 0.0
  endloop
endfacet
facet normal 0.0 0.0 -1.0
  outer loop
    vertex 76.2865562300114 8.858617641284022 0.0
    vertex 76.2865562300114 13.708617641284023 0.0
    vertex 76.56714875433656 13.139632288254708 0.0
  endloop
endfacet
facet normal 0.0 0.0 -1.0
  outer loop
    vertex 76.2865562300114 8.858617641284022 0.0
    vertex 76.56714875433656 13.139632288254708 0.0
    vertex 76.56714875433656 9.427602994313338 0.0
  endloop
endfacet
facet normal 0.0 0.0 -1.0
  outer loop
    vertex 76.56714875433656 9.427602994313338 0.0
    vertex 76.56714875433656 13.139632288254708 0.0
    vertex 76.77107327915887 12.538890010031256 0.0
  endloop
endfacet
facet normal 0.0 0.0 -1.0
  outer loop
    vertex 76.56714875433656 9.427602994313338 0.0
    vertex 76.77107327915887 12.538890010031256 0.0
    vertex 76.77107327915887 10.02834527253681 0.0
  endloop
endfacet
facet normal 0.0 0.0 -1.0
  outer loop
    vertex 76.77107327915887 10.02834527253681 0.0
    vertex 76.77107327915887 12.538890010031256 0.0
    vertex 76.82185011035294 12.283617641284032 0.0
  endloop
endfacet
facet normal 0.0 0.0 -1.0
  outer loop
    vertex 76.77107327915887 10.02834527253681 0.0
    vertex 76.82185011035294 12.283617641284032 0.0
    vertex 76.82185011035294 10.283617641284035 0.0
  endloop
endfacet
facet normal 0.0 0.0 -1.0
  outer loop
    vertex 76.82185011035294 10.283617641284035 0.0
    vertex 76.82185011035294 12.283617641284032 0.0
    vertex 76.84174134709089 12.183617641284032 0.0
  endloop
endfacet
facet normal 0.0 0.0 -1.0
  outer loop
    vertex 76.82185011035294 10.283617641284035 0.0
    vertex 76.84174134709089 12.183617641284032 0.0
    vertex 76.84174134709089 10.383617641284035 0.0
  endloop
endfacet
facet normal 0.0 0.0 -1.0
  outer loop
    vertex 76.84174134709089 10.383617641284035 0.0
    vertex 76.84174134709089 12.183617641284032 0.0
    vertex 76.89484059931985 11.916669673551286 0.0
  endloop
endfacet
facet normal 0.0 0.0 -1.0
  outer loop
    vertex 76.84174134709089 10.383617641284035 0.0
    vertex 76.89484059931985 11.916669673551286 0.0
    vertex 76.89484059931985 10.650565609016782 0.0
  endloop
endfacet
facet normal 0.0 0.0 -1.0
  outer loop
    vertex 76.89484059931985 10.650565609016782 0.0
    vertex 76.89484059931985 11.916669673551286 0.0
    vertex 76.93633302165689 11.283617641284033 0.0
  endloop
endfacet
facet normal 0.0 0.0 1.0
  outer loop
    vertex 67.27782544399388 10.650565609016782 10.95
    vertex 67.27782544399388 11.916669673551286 10.95
    vertex 67.23633302165685 11.283617641284033 10.95
  endloop
endfacet
facet normal 0.0 0.0 1.0
  outer loop
    vertex 67.27782544399388 11.916669673551286 10.95
    vertex 67.27782544399388 10.650565609016782 10.95
    vertex 67.33092469622275 10.383617641284035 10.95
  endloop
endfacet
facet normal 0.0 0.0 1.0
  outer loop
    vertex 67.27782544399388 11.916669673551286 10.95
    vertex 67.33092469622275 10.383617641284035 10.95
    vertex 67.33092469622281 12.183617641284032 10.95
  endloop
endfacet
facet normal 0.0 0.0 1.0
  outer loop
    vertex 67.33092469622281 12.183617641284032 10.95
    vertex 67.33092469622275 10.383617641284035 10.95
    vertex 76.84174134709089 10.383617641284035 10.95
  endloop
endfacet
facet normal 0.0 0.0 1.0
  outer loop
    vertex 67.33092469622281 12.183617641284032 10.95
    vertex 76.84174134709089 10.383617641284035 10.95
    vertex 76.84174134709089 12.183617641284032 10.95
  endloop
endfacet
facet normal 0.0 0.0 1.0
  outer loop
    vertex 76.84174134709089 12.183617641284032 10.95
    vertex 76.84174134709089 10.383617641284035 10.95
    vertex 76.89484059931985 10.650565609016782 10.95
  endloop
endfacet
facet normal 0.0 0.0 1.0
  outer loop
    vertex 76.84174134709089 12.183617641284032 10.95
    vertex 76.89484059931985 10.650565609016782 10.95
    vertex 76.89484059931985 11.916669673551286 10.95
  endloop
endfacet
facet normal 0.0 0.0 1.0
  outer loop
    vertex 76.89484059931985 11.916669673551286 10.95
    vertex 76.89484059931985 10.650565609016782 10.95
    vertex 76.93633302165689 11.283617641284033 10.95
  endloop
endfacet
facet normal -0.7518398074789817 -0.6593458151000638 -1.1957577518447547e-31
  outer loop
    vertex 68.23856932124434 8.331124710591741 10.000000000000002
    vertex 68.6568651329021 7.854149752529268 0.0
    vertex 68.6568651329021 7.854149752529268 10.000000000000002
  endloop
endfacet
facet normal -0.7518398074789817 -0.6593458151000638 -1.1957577518447547e-31
  outer loop
    vertex 68.6568651329021 7.854149752529268 0.0
    vertex 68.23856932124434 8.331124710591741 10.000000000000002
    vertex 68.23856932124434 8.331124710591741 0.0
  endloop
endfacet
facet normal 0.0 0.0 1.0
  outer loop
    vertex 76.84174134709089 12.183617641284032 10.000000000000002
    vertex 67.35081593296074 12.283617641284032 10.000000000000002
    vertex 67.33092469622281 12.183617641284032 10.000000000000002
  endloop
endfacet
facet normal 0.0 0.0 1.0
  outer loop
    vertex 67.35081593296074 12.283617641284032 10.000000000000002
    vertex 76.84174134709089 12.183617641284032 10.000000000000002
    vertex 67.40159276415486 12.538890010031256 10.000000000000002
  endloop
endfacet
facet normal 0.0 0.0 1.0
  outer loop
    vertex 67.40159276415486 12.538890010031256 10.000000000000002
    vertex 76.84174134709089 12.183617641284032 10.000000000000002
    vertex 67.60551728897713 13.139632288254731 10.000000000000002
  endloop
endfacet
facet normal 0.0 0.0 1.0
  outer loop
    vertex 67.60551728897713 13.139632288254731 10.000000000000002
    vertex 76.84174134709089 12.183617641284032 10.000000000000002
    vertex 67.88610981330234 13.708617641284047 10.000000000000002
  endloop
endfacet
facet normal 0.0 0.0 1.0
  outer loop
    vertex 67.88610981330234 13.708617641284047 10.000000000000002
    vertex 76.84174134709089 12.183617641284032 10.000000000000002
    vertex 68.23856932124434 14.236110571976326 10.000000000000002
  endloop
endfacet
facet normal 0.0 0.0 1.0
  outer loop
    vertex 68.23856932124434 14.236110571976326 10.000000000000002
    vertex 76.84174134709089 12.183617641284032 10.000000000000002
    vertex 68.6568651329021 14.7130855300388 10.000000000000002
  endloop
endfacet
facet normal 0.0 0.0 1.0
  outer loop
    vertex 68.6568651329021 14.7130855300388 10.000000000000002
    vertex 76.84174134709089 12.183617641284032 10.000000000000002
    vertex 69.13384009096453 15.13138134169652 10.000000000000002
  endloop
endfacet
facet normal 0.0 0.0 1.0
  outer loop
    vertex 69.13384009096453 15.13138134169652 10.000000000000002
    vertex 76.84174134709089 12.183617641284032 10.000000000000002
    vertex 69.66133302165683 15.483840849638561 10.000000000000002
  endloop
endfacet
facet normal 0.0 0.0 1.0
  outer loop
    vertex 69.66133302165683 15.483840849638561 10.000000000000002
    vertex 76.84174134709089 12.183617641284032 10.000000000000002
    vertex 70.23031837468616 15.76443337396377 10.000000000000002
  endloop
endfacet
facet normal 0.0 0.0 1.0
  outer loop
    vertex 70.23031837468616 15.76443337396377 10.000000000000002
    vertex 76.84174134709089 12.183617641284032 10.000000000000002
    vertex 70.83106065290967 15.968357898786023 10.000000000000002
  endloop
endfacet
facet normal 0.0 0.0 1.0
  outer loop
    vertex 70.83106065290967 15.968357898786023 10.000000000000002
    vertex 76.84174134709089 12.183617641284032 10.000000000000002
    vertex 71.45328098938957 16.09212521894702 10.000000000000002
  endloop
endfacet
facet normal 0.0 0.0 1.0
  outer loop
    vertex 71.45328098938957 16.09212521894702 10.000000000000002
    vertex 76.84174134709089 12.183617641284032 10.000000000000002
    vertex 72.08633302165683 16.133617641284037 10.000000000000002
  endloop
endfacet
facet normal 0.0 0.0 1.0
  outer loop
    vertex 72.08633302165683 16.133617641284037 10.000000000000002
    vertex 76.84174134709089 12.183617641284032 10.000000000000002
    vertex 72.71938505392407 16.09212521894702 10.000000000000002
  endloop
endfacet
facet normal 0.0 0.0 1.0
  outer loop
    vertex 72.71938505392407 16.09212521894702 10.000000000000002
    vertex 76.84174134709089 12.183617641284032 10.000000000000002
    vertex 73.34160539040407 15.968357898786023 10.000000000000002
  endloop
endfacet
facet normal 0.0 0.0 1.0
  outer loop
    vertex 73.34160539040407 15.968357898786023 10.000000000000002
    vertex 76.84174134709089 12.183617641284032 10.000000000000002
    vertex 73.94234766862756 15.76443337396377 10.000000000000002
  endloop
endfacet
facet normal 0.0 0.0 1.0
  outer loop
    vertex 73.94234766862756 15.76443337396377 10.000000000000002
    vertex 76.84174134709089 12.183617641284032 10.000000000000002
    vertex 74.51133302165681 15.483840849638561 10.000000000000002
  endloop
endfacet
facet normal 0.0 0.0 1.0
  outer loop
    vertex 74.51133302165681 15.483840849638561 10.000000000000002
    vertex 76.84174134709089 12.183617641284032 10.000000000000002
    vertex 75.03882595234911 15.13138134169652 10.000000000000002
  endloop
endfacet
facet normal 0.0 0.0 1.0
  outer loop
    vertex 75.03882595234911 15.13138134169652 10.000000000000002
    vertex 76.84174134709089 12.183617641284032 10.000000000000002
    vertex 75.51580091041163 14.7130855300388 10.000000000000002
  endloop
endfacet
facet normal 0.0 0.0 1.0
  outer loop
    vertex 75.51580091041163 14.7130855300388 10.000000000000002
    vertex 76.84174134709089 12.183617641284032 10.000000000000002
    vertex 75.9340967220693 14.236110571976326 10.000000000000002
  endloop
endfacet
facet normal 0.0 0.0 1.0
  outer loop
    vertex 75.9340967220693 14.236110571976326 10.000000000000002
    vertex 76.84174134709089 12.183617641284032 10.000000000000002
    vertex 76.2865562300114 13.708617641284023 10.000000000000002
  endloop
endfacet
facet normal 0.0 0.0 1.0
  outer loop
    vertex 76.2865562300114 13.708617641284023 10.000000000000002
    vertex 76.84174134709089 12.183617641284032 10.000000000000002
    vertex 76.56714875433656 13.139632288254708 10.000000000000002
  endloop
endfacet
facet normal 0.0 0.0 1.0
  outer loop
    vertex 76.56714875433656 13.139632288254708 10.000000000000002
    vertex 76.84174134709089 12.183617641284032 10.000000000000002
    vertex 76.82185011035294 12.283617641284032 10.000000000000002
  endloop
endfacet
facet normal 0.0 0.0 1.0
  outer loop
    vertex 76.56714875433656 13.139632288254708 10.000000000000002
    vertex 76.82185011035294 12.283617641284032 10.000000000000002
    vertex 76.77107327915887 12.538890010031256 10.000000000000002
  endloop
endfacet
facet normal 0.0 -1.0 0.0
  outer loop
    vertex 76.84174134709089 10.383617641284035 10.95
    vertex 67.33092469622275 10.383617641284035 10.000000000000002
    vertex 76.84174134709089 10.383617641284035 10.000000000000002
  endloop
endfacet
facet normal 0.0 -1.0 0.0
  outer loop
    vertex 67.33092469622275 10.383617641284035 10.000000000000002
    vertex 76.84174134709089 10.383617641284035 10.95
    vertex 67.33092469622275 10.383617641284035 10.95
  endloop
endfacet
facet normal 0.7518398074789994 -0.6593458151000439 0.0
  outer loop
    vertex 75.9340967220693 8.331124710591741 0.0
    vertex 75.51580091041163 7.854149752529268 10.000000000000002
    vertex 75.51580091041163 7.854149752529268 0.0
  endloop
endfacet
facet normal 0.7518398074789994 -0.6593458151000439 0.0
  outer loop
    vertex 75.51580091041163 7.854149752529268 10.000000000000002
    vertex 75.9340967220693 8.331124710591741 0.0
    vertex 75.9340967220693 8.331124710591741 10.000000000000002
  endloop
endfacet
facet normal -0.9469301294950989 -0.3214394653031817 -1.5060376313351518e-31
  outer loop
    vertex 67.40159276415486 10.02834527253681 10.000000000000002
    vertex 67.60551728897708 9.427602994313359 0.0
    vertex 67.60551728897708 9.427602994313359 10.000000000000002
  endloop
endfacet
facet normal -0.9469301294950989 -0.3214394653031817 -1.5060376313351518e-31
  outer loop
    vertex 67.60551728897708 9.427602994313359 0.0
    vertex 67.40159276415486 10.02834527253681 10.000000000000002
    vertex 67.40159276415486 10.02834527253681 0.0
  endloop
endfacet
facet normal 0.06540312923013274 -0.9978589232386043 0.0
  outer loop
    vertex 72.71938505392407 6.475110063621044 10.000000000000002
    vertex 72.08633302165683 6.433617641284031 0.0
    vertex 72.71938505392407 6.475110063621044 0.0
  endloop
endfacet
facet normal 0.06540312923013274 -0.9978589232386043 0.0
  outer loop
    vertex 72.08633302165683 6.433617641284031 0.0
    vertex 72.71938505392407 6.475110063621044 10.000000000000002
    vertex 72.08633302165683 6.433617641284031 10.000000000000002
  endloop
endfacet
facet normal -0.9807852804032364 -0.19509032201609822 1.2530998383258343e-17
  outer loop
    vertex 67.27782544399388 10.650565609016782 10.95
    vertex 67.33092469622275 10.383617641284035 10.000000000000002
    vertex 67.33092469622275 10.383617641284035 10.95
  endloop
endfacet
facet normal -0.9807852804032364 -0.19509032201609822 1.2530998383258343e-17
  outer loop
    vertex 67.33092469622275 10.383617641284035 10.000000000000002
    vertex 67.27782544399388 10.650565609016782 10.95
    vertex 67.33092469622275 10.383617641284035 0.0
  endloop
endfacet
facet normal -0.9807852804032364 -0.19509032201609822 1.2530998383258343e-17
  outer loop
    vertex 67.33092469622275 10.383617641284035 0.0
    vertex 67.27782544399388 10.650565609016782 10.95
    vertex 67.27782544399388 10.650565609016782 0.0
  endloop
endfacet
facet normal -0.9807852804032364 -0.19509032201609822 1.2530998383258343e-17
  outer loop
    vertex 67.35081593296074 10.283617641284035 10.000000000000002
    vertex 67.40159276415486 10.02834527253681 0.0
    vertex 67.40159276415486 10.02834527253681 10.000000000000002
  endloop
endfacet
facet normal -0.9807852804032364 -0.19509032201609822 1.2530998383258343e-17
  outer loop
    vertex 67.40159276415486 10.02834527253681 0.0
    vertex 67.35081593296074 10.283617641284035 10.000000000000002
    vertex 67.35081593296074 10.283617641284035 0.0
  endloop
endfacet
facet normal -0.9807852804032364 -0.19509032201609822 1.2530998383258343e-17
  outer loop
    vertex 67.35081593296074 10.283617641284035 0.0
    vertex 67.35081593296074 10.283617641284035 10.000000000000002
    vertex 67.33092469622275 10.383617641284035 10.000000000000002
  endloop
endfacet
facet normal -0.9807852804032364 -0.19509032201609822 1.2530998383258343e-17
  outer loop
    vertex 67.35081593296074 10.283617641284035 0.0
    vertex 67.33092469622275 10.383617641284035 10.000000000000002
    vertex 67.33092469622275 10.383617641284035 0.0
  endloop
endfacet
facet normal 0.0 1.0 0.0
  outer loop
    vertex 67.33092469622281 12.183617641284032 10.95
    vertex 76.84174134709089 12.183617641284032 10.000000000000002
    vertex 67.33092469622281 12.183617641284032 10.000000000000002
  endloop
endfacet
facet normal 0.0 1.0 0.0
  outer loop
    vertex 76.84174134709089 12.183617641284032 10.000000000000002
    vertex 67.33092469622281 12.183617641284032 10.95
    vertex 76.84174134709089 12.183617641284032 10.95
  endloop
endfacet
facet normal -0.06540312923013274 -0.9978589232386043 0.0
  outer loop
    vertex 72.08633302165683 6.433617641284031 10.000000000000002
    vertex 71.45328098938957 6.475110063621044 0.0
    vertex 72.08633302165683 6.433617641284031 0.0
  endloop
endfacet
facet normal -0.06540312923013274 -0.9978589232386043 0.0
  outer loop
    vertex 71.45328098938957 6.475110063621044 0.0
    vertex 72.08633302165683 6.433617641284031 10.000000000000002
    vertex 71.45328098938957 6.475110063621044 10.000000000000002
  endloop
endfacet
facet normal 0.997858923238602 0.06540312923016817 0.0
  outer loop
    vertex 76.89484059931985 11.916669673551286 0.0
    vertex 76.93633302165689 11.283617641284033 10.95
    vertex 76.93633302165689 11.283617641284033 0.0
  endloop
endfacet
facet normal 0.997858923238602 0.06540312923016817 0.0
  outer loop
    vertex 76.93633302165689 11.283617641284033 10.95
    vertex 76.89484059931985 11.916669673551286 0.0
    vertex 76.89484059931985 11.916669673551286 10.95
  endloop
endfacet
facet normal -0.9807852804032311 0.1950903220161253 2.7077116776797274e-16
  outer loop
    vertex 67.33092469622281 12.183617641284032 10.95
    vertex 67.27782544399388 11.916669673551286 0.0
    vertex 67.27782544399388 11.916669673551286 10.95
  endloop
endfacet
facet normal -0.9807852804032311 0.1950903220161253 2.7077116776797274e-16
  outer loop
    vertex 67.27782544399388 11.916669673551286 0.0
    vertex 67.33092469622281 12.183617641284032 10.95
    vertex 67.33092469622281 12.183617641284032 0.0
  endloop
endfacet
facet normal -0.9807852804032311 0.1950903220161253 2.7077116776797274e-16
  outer loop
    vertex 67.33092469622281 12.183617641284032 0.0
    vertex 67.33092469622281 12.183617641284032 10.95
    vertex 67.33092469622281 12.183617641284032 10.000000000000002
  endloop
endfacet
facet normal -0.9807852804032311 0.1950903220161253 2.7077116776797274e-16
  outer loop
    vertex 67.33092469622281 12.183617641284032 0.0
    vertex 67.33092469622281 12.183617641284032 10.000000000000002
    vertex 67.35081593296074 12.283617641284032 10.000000000000002
  endloop
endfacet
facet normal -0.9807852804032311 0.1950903220161253 2.7077116776797274e-16
  outer loop
    vertex 67.33092469622281 12.183617641284032 0.0
    vertex 67.35081593296074 12.283617641284032 10.000000000000002
    vertex 67.35081593296074 12.283617641284032 0.0
  endloop
endfacet
facet normal -0.9807852804032311 0.1950903220161253 2.7077116776797274e-16
  outer loop
    vertex 67.35081593296074 12.283617641284032 0.0
    vertex 67.35081593296074 12.283617641284032 10.000000000000002
    vertex 67.40159276415486 12.538890010031256 10.000000000000002
  endloop
endfacet
facet normal -0.9807852804032311 0.1950903220161253 2.7077116776797274e-16
  outer loop
    vertex 67.35081593296074 12.283617641284032 0.0
    vertex 67.40159276415486 12.538890010031256 10.000000000000002
    vertex 67.40159276415486 12.538890010031256 0.0
  endloop
endfacet
facet normal -0.997858923238602 -0.06540312923016817 0.0
  outer loop
    vertex 67.23633302165685 11.283617641284033 10.95
    vertex 67.27782544399388 10.650565609016782 0.0
    vertex 67.27782544399388 10.650565609016782 10.95
  endloop
endfacet
facet normal -0.997858923238602 -0.06540312923016817 0.0
  outer loop
    vertex 67.27782544399388 10.650565609016782 0.0
    vertex 67.23633302165685 11.283617641284033 10.95
    vertex 67.23633302165685 11.283617641284033 0.0
  endloop
endfacet
endsolid 55_drum_export
