solid Untitled-68748f23
facet normal -1.0 1.0954531355151004e-15 0.0
  outer loop
    vertex 5.1464388306499126e-14 46.979999999999734 3.0
    vertex 0.0 0.0 0.0
    vertex 0.0 0.0 3.0
  endloop
endfacet
facet normal -1.0 1.0954531355151004e-15 0.0
  outer loop
    vertex 0.0 0.0 0.0
    vertex 5.1464388306499126e-14 46.979999999999734 3.0
    vertex 5.1464388306499126e-14 46.979999999999734 0.0
  endloop
endfacet
facet normal 7.528066024988149e-16 1.0 -0.0
  outer loop
    vertex 5.1464388306499126e-14 46.979999999999734 3.0
    vertex 239.73999999999947 46.979999999999556 0.0
    vertex 5.1464388306499126e-14 46.979999999999734 0.0
  endloop
endfacet
facet normal 7.528066024988149e-16 1.0 -0.0
  outer loop
    vertex 239.73999999999947 46.979999999999556 0.0
    vertex 5.1464388306499126e-14 46.979999999999734 3.0
    vertex 239.73999999999947 46.979999999999556 3.0
  endloop
endfacet
facet normal -0.0 -0.0 1.0
  outer loop
    vertex 0.0 0.0 3.0
    vertex 3.000000000000003 2.999999999999998 3.0
    vertex 5.1464388306499126e-14 46.979999999999734 3.0
  endloop
endfacet
facet normal -0.0 -0.0 1.0
  outer loop
    vertex 3.000000000000003 2.999999999999998 3.0
    vertex 0.0 0.0 3.0
    vertex 239.73999999999955 -2.0797252808790745e-13 3.0
  endloop
endfacet
facet normal -0.0 -0.0 1.0
  outer loop
    vertex 3.000000000000003 2.999999999999998 3.0
    vertex 239.73999999999955 -2.0797252808790745e-13 3.0
    vertex 236.73999999999955 2.999999999999795 3.0
  endloop
endfacet
facet normal -0.0 -0.0 1.0
  outer loop
    vertex 236.73999999999955 2.999999999999795 3.0
    vertex 239.73999999999955 -2.0797252808790745e-13 3.0
    vertex 239.73999999999947 46.979999999999556 3.0
  endloop
endfacet
facet normal -0.0 -0.0 1.0
  outer loop
    vertex 5.1464388306499126e-14 46.979999999999734 3.0
    vertex 3.0000000000000484 43.97999999999974 3.0
    vertex 239.73999999999947 46.979999999999556 3.0
  endloop
endfacet
facet normal -0.0 -0.0 1.0
  outer loop
    vertex 3.0000000000000484 43.97999999999974 3.0
    vertex 5.1464388306499126e-14 46.979999999999734 3.0
    vertex 3.000000000000003 2.999999999999998 3.0
  endloop
endfacet
facet normal -0.0 -0.0 1.0
  outer loop
    vertex 239.73999999999947 46.979999999999556 3.0
    vertex 3.0000000000000484 43.97999999999974 3.0
    vertex 236.73999999999947 43.97999999999956 3.0
  endloop
endfacet
facet normal -0.0 -0.0 1.0
  outer loop
    vertex 239.73999999999947 46.979999999999556 3.0
    vertex 236.73999999999947 43.97999999999956 3.0
    vertex 236.73999999999955 2.999999999999795 3.0
  endloop
endfacet
facet normal 1.0 2.2020236076508846e-15 1.2126701019994035e-45
  outer loop
    vertex 236.73999999999947 43.97999999999956 3.0
    vertex 236.73999999999955 2.999999999999795 4.9
    vertex 236.73999999999955 2.999999999999795 3.0
  endloop
endfacet
facet normal 1.0 2.2020236076508846e-15 1.2126701019994035e-45
  outer loop
    vertex 236.73999999999955 2.999999999999795 4.9
    vertex 236.73999999999947 43.97999999999956 3.0
    vertex 236.73999999999947 43.97999999999956 4.9
  endloop
endfacet
facet normal 0.0 0.0 -1.0
  outer loop
    vertex 5.1464388306499126e-14 46.979999999999734 0.0
    vertex 239.73999999999955 -2.0797252808790745e-13 0.0
    vertex 0.0 0.0 0.0
  endloop
endfacet
facet normal 0.0 0.0 -1.0
  outer loop
    vertex 239.73999999999955 -2.0797252808790745e-13 0.0
    vertex 5.1464388306499126e-14 46.979999999999734 0.0
    vertex 239.73999999999947 46.979999999999556 0.0
  endloop
endfacet
facet normal -8.686471581391675e-16 -1.0 4.308775562760988e-30
  outer loop
    vertex 236.73999999999955 2.999999999999795 4.9
    vertex 3.000000000000003 2.999999999999998 3.0
    vertex 236.73999999999955 2.999999999999795 3.0
  endloop
endfacet
facet normal -8.686471581391675e-16 -1.0 4.308775562760988e-30
  outer loop
    vertex 3.000000000000003 2.999999999999998 3.0
    vertex 236.73999999999955 2.999999999999795 4.9
    vertex 3.000000000000003 2.999999999999998 4.9
  endloop
endfacet
facet normal -8.674919833482431e-16 -1.0 0.0
  outer loop
    vertex 239.73999999999955 -2.0797252808790745e-13 3.0
    vertex 0.0 0.0 0.0
    vertex 239.73999999999955 -2.0797252808790745e-13 0.0
  endloop
endfacet
facet normal -8.674919833482431e-16 -1.0 0.0
  outer loop
    vertex 0.0 0.0 0.0
    vertex 239.73999999999955 -2.0797252808790745e-13 3.0
    vertex 0.0 0.0 3.0
  endloop
endfacet
facet normal -0.0 -0.0 1.0
  outer loop
    vertex 236.73999999999955 2.999999999999795 4.9
    vertex 3.0000000000000484 43.97999999999974 4.9
    vertex 3.000000000000003 2.999999999999998 4.9
  endloop
endfacet
facet normal -0.0 -0.0 1.0
  outer loop
    vertex 3.0000000000000484 43.97999999999974 4.9
    vertex 236.73999999999955 2.999999999999795 4.9
    vertex 236.73999999999947 43.97999999999956 4.9
  endloop
endfacet
facet normal 7.72130807234816e-16 1.0 -0.0
  outer loop
    vertex 3.0000000000000484 43.97999999999974 4.9
    vertex 236.73999999999947 43.97999999999956 3.0
    vertex 3.0000000000000484 43.97999999999974 3.0
  endloop
endfacet
facet normal 7.72130807234816e-16 1.0 -0.0
  outer loop
    vertex 236.73999999999947 43.97999999999956 3.0
    vertex 3.0000000000000484 43.97999999999974 4.9
    vertex 236.73999999999947 43.97999999999956 4.9
  endloop
endfacet
facet normal 1.0 1.9207945389853803e-15 -0.0
  outer loop
    vertex 239.73999999999947 46.979999999999556 0.0
    vertex 239.73999999999955 -2.0797252808790745e-13 3.0
    vertex 239.73999999999955 -2.0797252808790745e-13 0.0
  endloop
endfacet
facet normal 1.0 1.9207945389853803e-15 -0.0
  outer loop
    vertex 239.73999999999955 -2.0797252808790745e-13 3.0
    vertex 239.73999999999947 46.979999999999556 0.0
    vertex 239.73999999999947 46.979999999999556 3.0
  endloop
endfacet
facet normal -1.0 1.1010118038254427e-15 -6.06335050999702e-46
  outer loop
    vertex 3.0000000000000484 43.97999999999974 4.9
    vertex 3.000000000000003 2.999999999999998 3.0
    vertex 3.000000000000003 2.999999999999998 4.9
  endloop
endfacet
facet normal -1.0 1.1010118038254427e-15 -6.06335050999702e-46
  outer loop
    vertex 3.000000000000003 2.999999999999998 3.0
    vertex 3.0000000000000484 43.97999999999974 4.9
    vertex 3.0000000000000484 43.97999999999974 3.0
  endloop
endfacet
endsolid Untitled-68748f23
