solid Untitled-685c1d49
facet normal -0.0 -0.0 1.0
  outer loop
    vertex 69.37370814388942 176.37322438744783 1.6000000000000003
    vertex 65.37370814388942 216.37322438744783 1.6000000000000003
    vertex 65.37370814388942 176.37322438744783 1.6000000000000003
  endloop
endfacet
facet normal -0.0 -0.0 1.0
  outer loop
    vertex 65.37370814388942 216.37322438744783 1.6000000000000003
    vertex 69.37370814388942 176.37322438744783 1.6000000000000003
    vertex 69.37370814388942 216.37322438744783 1.6000000000000003
  endloop
endfacet
facet normal -0.0 1.0 -0.0
  outer loop
    vertex 1.3737081438894134 216.37322438744783 1.6000000000000003
    vertex 5.373708143889413 216.37322438744783 0.0
    vertex 1.3737081438894134 216.37322438744783 0.0
  endloop
endfacet
facet normal -0.0 1.0 -0.0
  outer loop
    vertex 5.373708143889413 216.37322438744783 0.0
    vertex 1.3737081438894134 216.37322438744783 1.6000000000000003
    vertex 5.373708143889413 216.37322438744783 1.6000000000000003
  endloop
endfacet
facet normal -1.0 -0.0 -0.0
  outer loop
    vertex 1.3737081438894134 216.37322438744783 1.6000000000000003
    vertex 1.3737081438894134 105.37322438744785 0.0
    vertex 1.3737081438894134 105.37322438744785 1.6000000000000003
  endloop
endfacet
facet normal -1.0 -0.0 -0.0
  outer loop
    vertex 1.3737081438894134 105.37322438744785 0.0
    vertex 1.3737081438894134 216.37322438744783 1.6000000000000003
    vertex 1.3737081438894134 216.37322438744783 0.0
  endloop
endfacet
facet normal 1.0 -0.0 -0.0
  outer loop
    vertex 65.37370814388942 176.37322438744783 2.8199664825478975e-15
    vertex 65.37370814388942 145.37322438744783 1.6000000000000003
    vertex 65.37370814388942 145.37322438744783 2.8199664825478975e-15
  endloop
endfacet
facet normal 1.0 -0.0 -0.0
  outer loop
    vertex 65.37370814388942 145.37322438744783 1.6000000000000003
    vertex 65.37370814388942 105.37322438744785 3.9999999999999996
    vertex 65.37370814388942 105.37322438744785 1.6000000000000003
  endloop
endfacet
facet normal 1.0 -0.0 -0.0
  outer loop
    vertex 65.37370814388942 105.37322438744785 3.9999999999999996
    vertex 65.37370814388942 145.37322438744783 1.6000000000000003
    vertex 65.37370814388942 216.37322438744783 3.9999999999999996
  endloop
endfacet
facet normal 1.0 -0.0 -0.0
  outer loop
    vertex 65.37370814388942 216.37322438744783 3.9999999999999996
    vertex 65.37370814388942 145.37322438744783 1.6000000000000003
    vertex 65.37370814388942 176.37322438744783 1.6000000000000003
  endloop
endfacet
facet normal 1.0 -0.0 -0.0
  outer loop
    vertex 65.37370814388942 176.37322438744783 1.6000000000000003
    vertex 65.37370814388942 145.37322438744783 1.6000000000000003
    vertex 65.37370814388942 176.37322438744783 2.8199664825478975e-15
  endloop
endfacet
facet normal 1.0 -0.0 -0.0
  outer loop
    vertex 65.37370814388942 216.37322438744783 3.9999999999999996
    vertex 65.37370814388942 176.37322438744783 1.6000000000000003
    vertex 65.37370814388942 216.37322438744783 1.6000000000000003
  endloop
endfacet
facet normal 1.7217468353709727e-17 -3.559283286040052e-18 -1.0
  outer loop
    vertex 69.37370814388942 216.37322438744783 0.0
    vertex 65.37370814388942 176.37322438744783 2.8199664825478975e-15
    vertex 65.37370814388942 216.37322438744783 0.0
  endloop
endfacet
facet normal 1.7217468353709727e-17 -3.559283286040052e-18 -1.0
  outer loop
    vertex 65.37370814388942 176.37322438744783 2.8199664825478975e-15
    vertex 69.37370814388942 216.37322438744783 0.0
    vertex 69.37370814388942 176.37322438744783 2.8199664825478975e-15
  endloop
endfacet
facet normal 1.7217468353709727e-17 -3.559283286040052e-18 -1.0
  outer loop
    vertex 5.373708143889413 216.37322438744783 0.0
    vertex 1.3737081438894134 105.37322438744785 0.0
    vertex 1.3737081438894134 216.37322438744783 0.0
  endloop
endfacet
facet normal 1.7217468353709727e-17 -3.559283286040052e-18 -1.0
  outer loop
    vertex 1.3737081438894134 105.37322438744785 0.0
    vertex 5.373708143889413 216.37322438744783 0.0
    vertex 69.37370814388942 105.37322438744785 0.0
  endloop
endfacet
facet normal 1.7217468353709727e-17 -3.559283286040052e-18 -1.0
  outer loop
    vertex 69.37370814388942 105.37322438744785 0.0
    vertex 5.373708143889413 216.37322438744783 0.0
    vertex 65.37370814388942 145.37322438744783 2.8199664825478975e-15
  endloop
endfacet
facet normal 1.7217468353709727e-17 -3.559283286040052e-18 -1.0
  outer loop
    vertex 65.37370814388942 145.37322438744783 2.8199664825478975e-15
    vertex 5.373708143889413 216.37322438744783 0.0
    vertex 65.37370814388942 216.37322438744783 0.0
  endloop
endfacet
facet normal 1.7217468353709727e-17 -3.559283286040052e-18 -1.0
  outer loop
    vertex 65.37370814388942 145.37322438744783 2.8199664825478975e-15
    vertex 65.37370814388942 216.37322438744783 0.0
    vertex 65.37370814388942 176.37322438744783 2.8199664825478975e-15
  endloop
endfacet
facet normal 1.7217468353709727e-17 -3.559283286040052e-18 -1.0
  outer loop
    vertex 69.37370814388942 105.37322438744785 0.0
    vertex 65.37370814388942 145.37322438744783 2.8199664825478975e-15
    vertex 69.37370814388942 145.37322438744783 2.8199664825478975e-15
  endloop
endfacet
facet normal -1.0 0.0 0.0
  outer loop
    vertex 5.373708143889413 216.37322438744783 3.9999999999999996
    vertex 5.373708143889413 105.37322438744785 1.6000000000000003
    vertex 5.373708143889413 105.37322438744785 3.9999999999999996
  endloop
endfacet
facet normal -1.0 0.0 0.0
  outer loop
    vertex 5.373708143889413 105.37322438744785 1.6000000000000003
    vertex 5.373708143889413 216.37322438744783 3.9999999999999996
    vertex 5.373708143889413 216.37322438744783 1.6000000000000003
  endloop
endfacet
facet normal -0.0 -0.0 1.0
  outer loop
    vertex 65.37370814388942 105.37322438744785 3.9999999999999996
    vertex 5.373708143889413 216.37322438744783 3.9999999999999996
    vertex 5.373708143889413 105.37322438744785 3.9999999999999996
  endloop
endfacet
facet normal -0.0 -0.0 1.0
  outer loop
    vertex 5.373708143889413 216.37322438744783 3.9999999999999996
    vertex 65.37370814388942 105.37322438744785 3.9999999999999996
    vertex 65.37370814388942 216.37322438744783 3.9999999999999996
  endloop
endfacet
facet normal -0.0 1.0 -0.0
  outer loop
    vertex 5.373708143889413 216.37322438744783 1.6000000000000003
    vertex 65.37370814388942 216.37322438744783 0.0
    vertex 5.373708143889413 216.37322438744783 0.0
  endloop
endfacet
facet normal -0.0 1.0 -0.0
  outer loop
    vertex 65.37370814388942 216.37322438744783 0.0
    vertex 5.373708143889413 216.37322438744783 1.6000000000000003
    vertex 65.37370814388942 216.37322438744783 1.6000000000000003
  endloop
endfacet
facet normal -0.0 1.0 -0.0
  outer loop
    vertex 65.37370814388942 216.37322438744783 1.6000000000000003
    vertex 5.373708143889413 216.37322438744783 1.6000000000000003
    vertex 5.373708143889413 216.37322438744783 3.9999999999999996
  endloop
endfacet
facet normal -0.0 1.0 -0.0
  outer loop
    vertex 65.37370814388942 216.37322438744783 1.6000000000000003
    vertex 5.373708143889413 216.37322438744783 3.9999999999999996
    vertex 65.37370814388942 216.37322438744783 3.9999999999999996
  endloop
endfacet
facet normal 0.0 -1.0 0.0
  outer loop
    vertex 65.37370814388942 105.37322438744785 3.9999999999999996
    vertex 5.373708143889413 105.37322438744785 1.6000000000000003
    vertex 65.37370814388942 105.37322438744785 1.6000000000000003
  endloop
endfacet
facet normal 0.0 -1.0 0.0
  outer loop
    vertex 5.373708143889413 105.37322438744785 1.6000000000000003
    vertex 65.37370814388942 105.37322438744785 3.9999999999999996
    vertex 5.373708143889413 105.37322438744785 3.9999999999999996
  endloop
endfacet
facet normal 0.0 -1.0 0.0
  outer loop
    vertex 69.37370814388942 105.37322438744785 1.6000000000000003
    vertex 1.3737081438894134 105.37322438744785 0.0
    vertex 69.37370814388942 105.37322438744785 0.0
  endloop
endfacet
facet normal 0.0 -1.0 0.0
  outer loop
    vertex 1.3737081438894134 105.37322438744785 0.0
    vertex 69.37370814388942 105.37322438744785 1.6000000000000003
    vertex 1.3737081438894134 105.37322438744785 1.6000000000000003
  endloop
endfacet
facet normal 0.0 -1.0 0.0
  outer loop
    vertex 1.3737081438894134 105.37322438744785 1.6000000000000003
    vertex 69.37370814388942 105.37322438744785 1.6000000000000003
    vertex 65.37370814388942 105.37322438744785 1.6000000000000003
  endloop
endfacet
facet normal 0.0 -1.0 0.0
  outer loop
    vertex 1.3737081438894134 105.37322438744785 1.6000000000000003
    vertex 65.37370814388942 105.37322438744785 1.6000000000000003
    vertex 5.373708143889413 105.37322438744785 1.6000000000000003
  endloop
endfacet
facet normal -0.0 -0.0 1.0
  outer loop
    vertex 5.373708143889413 105.37322438744785 1.6000000000000003
    vertex 1.3737081438894134 216.37322438744783 1.6000000000000003
    vertex 1.3737081438894134 105.37322438744785 1.6000000000000003
  endloop
endfacet
facet normal -0.0 -0.0 1.0
  outer loop
    vertex 1.3737081438894134 216.37322438744783 1.6000000000000003
    vertex 5.373708143889413 105.37322438744785 1.6000000000000003
    vertex 5.373708143889413 216.37322438744783 1.6000000000000003
  endloop
endfacet
facet normal -0.0 1.0 -0.0
  outer loop
    vertex 65.37370814388942 216.37322438744783 1.6000000000000003
    vertex 69.37370814388942 216.37322438744783 0.0
    vertex 65.37370814388942 216.37322438744783 0.0
  endloop
endfacet
facet normal -0.0 1.0 -0.0
  outer loop
    vertex 69.37370814388942 216.37322438744783 0.0
    vertex 65.37370814388942 216.37322438744783 1.6000000000000003
    vertex 69.37370814388942 216.37322438744783 1.6000000000000003
  endloop
endfacet
facet normal 1.0 -0.0 -0.0
  outer loop
    vertex 69.37370814388942 145.37322438744783 2.8199664825478975e-15
    vertex 69.37370814388942 105.37322438744785 1.6000000000000003
    vertex 69.37370814388942 105.37322438744785 0.0
  endloop
endfacet
facet normal 1.0 -0.0 -0.0
  outer loop
    vertex 69.37370814388942 105.37322438744785 1.6000000000000003
    vertex 69.37370814388942 145.37322438744783 2.8199664825478975e-15
    vertex 69.37370814388942 145.37322438744783 1.6000000000000003
  endloop
endfacet
facet normal -0.0 -0.0 1.0
  outer loop
    vertex 69.37370814388942 105.37322438744785 1.6000000000000003
    vertex 65.37370814388942 145.37322438744783 1.6000000000000003
    vertex 65.37370814388942 105.37322438744785 1.6000000000000003
  endloop
endfacet
facet normal -0.0 -0.0 1.0
  outer loop
    vertex 65.37370814388942 145.37322438744783 1.6000000000000003
    vertex 69.37370814388942 105.37322438744785 1.6000000000000003
    vertex 69.37370814388942 145.37322438744783 1.6000000000000003
  endloop
endfacet
facet normal -0.0 1.0 -0.0
  outer loop
    vertex 65.37370814388942 145.37322438744783 1.6000000000000003
    vertex 69.37370814388942 145.37322438744783 2.8199664825478975e-15
    vertex 65.37370814388942 145.37322438744783 2.8199664825478975e-15
  endloop
endfacet
facet normal -0.0 1.0 -0.0
  outer loop
    vertex 69.37370814388942 145.37322438744783 2.8199664825478975e-15
    vertex 65.37370814388942 145.37322438744783 1.6000000000000003
    vertex 69.37370814388942 145.37322438744783 1.6000000000000003
  endloop
endfacet
facet normal 1.0 -0.0 -0.0
  outer loop
    vertex 69.37370814388942 216.37322438744783 0.0
    vertex 69.37370814388942 176.37322438744783 1.6000000000000003
    vertex 69.37370814388942 176.37322438744783 2.8199664825478975e-15
  endloop
endfacet
facet normal 1.0 -0.0 -0.0
  outer loop
    vertex 69.37370814388942 176.37322438744783 1.6000000000000003
    vertex 69.37370814388942 216.37322438744783 0.0
    vertex 69.37370814388942 216.37322438744783 1.6000000000000003
  endloop
endfacet
facet normal 0.0 -1.0 0.0
  outer loop
    vertex 69.37370814388942 176.37322438744783 1.6000000000000003
    vertex 65.37370814388942 176.37322438744783 2.8199664825478975e-15
    vertex 69.37370814388942 176.37322438744783 2.8199664825478975e-15
  endloop
endfacet
facet normal 0.0 -1.0 0.0
  outer loop
    vertex 65.37370814388942 176.37322438744783 2.8199664825478975e-15
    vertex 69.37370814388942 176.37322438744783 1.6000000000000003
    vertex 65.37370814388942 176.37322438744783 1.6000000000000003
  endloop
endfacet
endsolid Untitled-685c1d49
