solid Extra-Characters_2_export
facet normal 1.7384839964640143e-30 1.273619909215379e-14 -1.0
  outer loop
    vertex 143.05935687127055 25.317581581858537 -1.8712169591594828e-10
    vertex 150.57893133200054 3.1208776963494946 -1.8740439755582372e-10
    vertex 141.53151187680146 3.1208776963494946 -1.8740439755582372e-10
  endloop
endfacet
facet normal 1.7384839964640143e-30 1.273619909215379e-14 -1.0
  outer loop
    vertex 150.57893133200054 3.1208776963494946 -1.8740439755582372e-10
    vertex 143.05935687127055 25.317581581858537 -1.8712169591594828e-10
    vertex 148.97070573742087 25.317581581858537 -1.8712169591594828e-10
  endloop
endfacet
facet normal -0.0 1.0 -0.0
  outer loop
    vertex 148.97068869318863 67.7362935564158 1.0000000000028464
    vertex 158.0984887484983 67.7362935564158 0.6000000000028464
    vertex 148.97068869318863 67.7362935564158 0.6000000000028464
  endloop
endfacet
facet normal -0.0 1.0 -0.0
  outer loop
    vertex 158.0984887484983 67.7362935564158 0.6000000000028464
    vertex 148.97068869318863 67.7362935564158 1.0000000000028464
    vertex 158.0984887484983 67.7362935564158 1.0000000000028464
  endloop
endfacet
facet normal 0.9973855448316884 -0.07226392572228793 -7.632260056827851e-17
  outer loop
    vertex 158.0984887484983 67.7362935564158 0.6000000000028464
    vertex 156.4902631539187 45.53958967090694 1.0000000000028457
    vertex 156.4902631539187 45.53958967090694 0.6000000000028464
  endloop
endfacet
facet normal 0.9973855448316884 -0.07226392572228793 -7.632260056827851e-17
  outer loop
    vertex 156.4902631539187 45.53958967090694 1.0000000000028457
    vertex 158.0984887484983 67.7362935564158 0.6000000000028464
    vertex 158.0984887484983 67.7362935564158 1.0000000000028464
  endloop
endfacet
facet normal -0.0 1.0 -0.0
  outer loop
    vertex 134.0113067794717 67.7362935564158 1.0000000000028464
    vertex 143.05933982703812 67.7362935564158 0.6000000000028464
    vertex 134.0113067794717 67.7362935564158 0.6000000000028464
  endloop
endfacet
facet normal -0.0 1.0 -0.0
  outer loop
    vertex 143.05933982703812 67.7362935564158 0.6000000000028464
    vertex 134.0113067794717 67.7362935564158 1.0000000000028464
    vertex 143.05933982703812 67.7362935564158 1.0000000000028464
  endloop
endfacet
facet normal -0.9976375682605028 -0.0686970333804235 0.0
  outer loop
    vertex 134.0113067794717 67.7362935564158 1.0000000000028464
    vertex 135.53976536630796 45.53958967090694 0.6000000000028464
    vertex 135.53976536630796 45.53958967090694 1.0000000000028464
  endloop
endfacet
facet normal -0.9976375682605028 -0.0686970333804235 0.0
  outer loop
    vertex 135.53976536630796 45.53958967090694 0.6000000000028464
    vertex 134.0113067794717 67.7362935564158 1.0000000000028464
    vertex 134.0113067794717 67.7362935564158 0.6000000000028464
  endloop
endfacet
facet normal 3.60724664788573e-17 -3.1084852815226374e-14 -1.0
  outer loop
    vertex 140.7721572338566 57.95992636891612 -1.8780818150654354e-10
    vertex 140.7721572338566 53.72759631671799 -1.8752442237923716e-10
    vertex 140.36503869818188 55.87371232024389 -1.8761924375221282e-10
  endloop
endfacet
facet normal 3.60724664788573e-17 -3.1084852815226374e-14 -1.0
  outer loop
    vertex 140.7721572338566 53.72759631671799 -1.8752442237923716e-10
    vertex 140.7721572338566 57.95992636891612 -1.8780818150654354e-10
    vertex 141.99351284088104 59.79456754701364 -1.8796116468822176e-10
  endloop
endfacet
facet normal 3.60724664788573e-17 -3.1084852815226374e-14 -1.0
  outer loop
    vertex 140.7721572338566 53.72759631671799 -1.8752442237923716e-10
    vertex 141.99351284088104 59.79456754701364 -1.8796116468822176e-10
    vertex 141.99351284088104 51.872783289546845 -1.8764726716913315e-10
  endloop
endfacet
facet normal 3.60724664788573e-17 -3.1084852815226374e-14 -1.0
  outer loop
    vertex 141.99351284088104 51.872783289546845 -1.8764726716913315e-10
    vertex 141.99351284088104 59.79456754701364 -1.8796116468822176e-10
    vertex 143.82815401897835 61.076208604120815 -1.879333175192066e-10
  endloop
endfacet
facet normal 3.60724664788573e-17 -3.1084852815226374e-14 -1.0
  outer loop
    vertex 141.99351284088104 51.872783289546845 -1.8764726716913315e-10
    vertex 143.82815401897835 61.076208604120815 -1.879333175192066e-10
    vertex 143.81818314301037 50.59091213530195 -1.8762435494146245e-10
  endloop
endfacet
facet normal 3.60724664788573e-17 -3.1084852815226374e-14 -1.0
  outer loop
    vertex 143.81818314301037 50.59091213530195 -1.8762435494146245e-10
    vertex 143.82815401897835 61.076208604120815 -1.879333175192066e-10
    vertex 146.03524576400042 50.163621750553524 -1.8765043963142601e-10
  endloop
endfacet
facet normal 3.60724664788573e-17 -3.1084852815226374e-14 -1.0
  outer loop
    vertex 146.03524576400042 50.163621750553524 -1.8765043963142601e-10
    vertex 143.82815401897835 61.076208604120815 -1.879333175192066e-10
    vertex 146.07512926787226 61.50342228982339 -1.878282737677317e-10
  endloop
endfacet
facet normal 3.60724664788573e-17 -3.1084852815226374e-14 -1.0
  outer loop
    vertex 146.03524576400042 50.163621750553524 -1.8765043963142601e-10
    vertex 146.07512926787226 61.50342228982339 -1.878282737677317e-10
    vertex 148.2868229556486 50.59091213530195 -1.8762435494146245e-10
  endloop
endfacet
facet normal 3.60724664788573e-17 -3.1084852815226374e-14 -1.0
  outer loop
    vertex 148.2868229556486 50.59091213530195 -1.8762435494146245e-10
    vertex 146.07512926787226 61.50342228982339 -1.878282737677317e-10
    vertex 148.29679383161655 61.076208604120815 -1.879333175192066e-10
  endloop
endfacet
facet normal 3.60724664788573e-17 -3.1084852815226374e-14 -1.0
  outer loop
    vertex 148.2868229556486 50.59091213530195 -1.8762435494146245e-10
    vertex 148.29679383161655 61.076208604120815 -1.879333175192066e-10
    vertex 150.1364971467438 51.872783289546845 -1.8764726716913315e-10
  endloop
endfacet
facet normal 3.60724664788573e-17 -3.1084852815226374e-14 -1.0
  outer loop
    vertex 150.1364971467438 51.872783289546845 -1.8764726716913315e-10
    vertex 148.29679383161655 61.076208604120815 -1.879333175192066e-10
    vertex 150.1364971467438 59.79456754701364 -1.8796116468822176e-10
  endloop
endfacet
facet normal 3.60724664788573e-17 -3.1084852815226374e-14 -1.0
  outer loop
    vertex 150.1364971467438 51.872783289546845 -1.8764726716913315e-10
    vertex 150.1364971467438 59.79456754701364 -1.8796116468822176e-10
    vertex 151.37303916485786 57.95992636891612 -1.8780818150654354e-10
  endloop
endfacet
facet normal 3.60724664788573e-17 -3.1084852815226374e-14 -1.0
  outer loop
    vertex 150.1364971467438 51.872783289546845 -1.8764726716913315e-10
    vertex 151.37303916485786 57.95992636891612 -1.8780818150654354e-10
    vertex 151.37303916485786 53.72759631671799 -1.8752442237923716e-10
  endloop
endfacet
facet normal 3.60724664788573e-17 -3.1084852815226374e-14 -1.0
  outer loop
    vertex 151.37303916485786 53.72759631671799 -1.8752442237923716e-10
    vertex 151.37303916485786 57.95992636891612 -1.8780818150654354e-10
    vertex 151.78521983756252 55.87371232024389 -1.8761924375221282e-10
  endloop
endfacet
facet normal 0.0 -1.0 0.0
  outer loop
    vertex 141.45111423245845 45.53958967090694 1.0000000000028464
    vertex 135.53976536630796 45.53958967090694 0.6000000000028464
    vertex 141.45111423245845 45.53958967090694 0.6000000000028464
  endloop
endfacet
facet normal 0.0 -1.0 0.0
  outer loop
    vertex 135.53976536630796 45.53958967090694 0.6000000000028464
    vertex 141.45111423245845 45.53958967090694 1.0000000000028464
    vertex 135.53976536630796 45.53958967090694 1.0000000000028464
  endloop
endfacet
facet normal 0.997385544831688 -0.07226392572229193 -0.0
  outer loop
    vertex 143.05933982703812 67.7362935564158 0.6000000000028464
    vertex 141.45111423245845 45.53958967090694 1.0000000000028464
    vertex 141.45111423245845 45.53958967090694 0.6000000000028464
  endloop
endfacet
facet normal 0.997385544831688 -0.07226392572229193 -0.0
  outer loop
    vertex 141.45111423245845 45.53958967090694 1.0000000000028464
    vertex 143.05933982703812 67.7362935564158 0.6000000000028464
    vertex 143.05933982703812 67.7362935564158 1.0000000000028464
  endloop
endfacet
facet normal -0.0 1.0 -0.0
  outer loop
    vertex 143.05935687127055 25.317581581858537 0.39999999981290013
    vertex 148.97070573742087 25.317581581858537 -1.8712169591594828e-10
    vertex 143.05935687127055 25.317581581858537 -1.8712169591594828e-10
  endloop
endfacet
facet normal -0.0 1.0 -0.0
  outer loop
    vertex 148.97070573742087 25.317581581858537 -1.8712169591594828e-10
    vertex 143.05935687127055 25.317581581858537 0.39999999981290013
    vertex 148.97070573742087 25.317581581858537 0.39999999981290013
  endloop
endfacet
facet normal -2.472493521207154e-17 1.2688507920694882e-17 1.0
  outer loop
    vertex 86.17033127309743 4.427250823862752 1.0000000000028457
    vertex 84.22072369108652 9.821057382052793 1.0000000000028464
    vertex 82.55499963020844 7.047580520892317 1.0000000000028457
  endloop
endfacet
facet normal -2.472493521207154e-17 1.2688507920694882e-17 1.0
  outer loop
    vertex 84.22072369108652 9.821057382052793 1.0000000000028464
    vertex 86.17033127309743 4.427250823862752 1.0000000000028457
    vertex 84.73726818517099 20.083117542402455 1.0000000000028464
  endloop
endfacet
facet normal -2.472493521207154e-17 1.2688507920694882e-17 1.0
  outer loop
    vertex 84.73726818517099 20.083117542402455 1.0000000000028464
    vertex 86.17033127309743 4.427250823862752 1.0000000000028457
    vertex 86.89947398951192 20.492135762660627 1.0000000000028464
  endloop
endfacet
facet normal -2.472493521207154e-17 1.2688507920694882e-17 1.0
  outer loop
    vertex 86.89947398951192 20.492135762660627 1.0000000000028464
    vertex 86.17033127309743 4.427250823862752 1.0000000000028457
    vertex 88.2203422012407 5.771945332463238 1.0000000000028484
  endloop
endfacet
facet normal -2.472493521207154e-17 1.2688507920694882e-17 1.0
  outer loop
    vertex 86.89947398951192 20.492135762660627 1.0000000000028464
    vertex 88.2203422012407 5.771945332463238 1.0000000000028484
    vertex 89.01604177818173 20.0758259789342 1.0000000000028464
  endloop
endfacet
facet normal -2.472493521207154e-17 1.2688507920694882e-17 1.0
  outer loop
    vertex 89.01604177818173 20.0758259789342 1.0000000000028464
    vertex 88.2203422012407 5.771945332463238 1.0000000000028484
    vertex 90.342650545251 7.792021393640996 1.0000000000028464
  endloop
endfacet
facet normal -2.472493521207154e-17 1.2688507920694882e-17 1.0
  outer loop
    vertex 89.01604177818173 20.0758259789342 1.0000000000028464
    vertex 90.342650545251 7.792021393640996 1.0000000000028464
    vertex 90.98260758104 18.816032137020592 1.0000000000028464
  endloop
endfacet
facet normal -2.472493521207154e-17 1.2688507920694882e-17 1.0
  outer loop
    vertex 90.98260758104 18.816032137020592 1.0000000000028464
    vertex 90.342650545251 7.792021393640996 1.0000000000028464
    vertex 91.9823771702647 11.073217635139681 1.0000000000028464
  endloop
endfacet
facet normal -2.472493521207154e-17 1.2688507920694882e-17 1.0
  outer loop
    vertex 90.98260758104 18.816032137020592 1.0000000000028464
    vertex 91.9823771702647 11.073217635139681 1.0000000000028464
    vertex 92.32055696466908 16.84277442343332 1.0000000000028464
  endloop
endfacet
facet normal -2.472493521207154e-17 1.2688507920694882e-17 1.0
  outer loop
    vertex 92.32055696466908 16.84277442343332 1.0000000000028464
    vertex 91.9823771702647 11.073217635139681 1.0000000000028464
    vertex 92.74783260307511 14.235390401647663 1.0000000000028464
  endloop
endfacet
facet normal -2.472493521207154e-17 1.2688507920694882e-17 1.0
  outer loop
    vertex 81.51830034018913 12.772168183115525 1.0000000000028464
    vertex 81.57509334655917 16.79343607604083 1.0000000000028464
    vertex 81.13161316587743 14.703876716440016 1.0000000000028464
  endloop
endfacet
facet normal -2.472493521207154e-17 1.2688507920694882e-17 1.0
  outer loop
    vertex 81.57509334655917 16.79343607604083 1.0000000000028464
    vertex 81.51830034018913 12.772168183115525 1.0000000000028464
    vertex 82.5947916038177 11.10799892275644 1.0000000000028464
  endloop
endfacet
facet normal -2.472493521207154e-17 1.2688507920694882e-17 1.0
  outer loop
    vertex 81.57509334655917 16.79343607604083 1.0000000000028464
    vertex 82.5947916038177 11.10799892275644 1.0000000000028464
    vertex 82.85421206942995 18.849856064687053 1.0000000000028464
  endloop
endfacet
facet normal -2.472493521207154e-17 1.2688507920694882e-17 1.0
  outer loop
    vertex 82.85421206942995 18.849856064687053 1.0000000000028464
    vertex 82.5947916038177 11.10799892275644 1.0000000000028464
    vertex 84.22072369108652 9.821057382052793 1.0000000000028464
  endloop
endfacet
facet normal -2.472493521207154e-17 1.2688507920694882e-17 1.0
  outer loop
    vertex 82.85421206942995 18.849856064687053 1.0000000000028464
    vertex 84.22072369108652 9.821057382052793 1.0000000000028464
    vertex 84.73726818517099 20.083117542402455 1.0000000000028464
  endloop
endfacet
facet normal -0.9814859597468986 0.1915340983211852 4.316791403064856e-14
  outer loop
    vertex 140.7721572338566 57.95992636891608 0.3999999998121911
    vertex 140.36503869818188 55.87371232024389 -1.8761924375221282e-10
    vertex 140.36503869818188 55.873712320243754 0.3999999998122559
  endloop
endfacet
facet normal -0.9814859597468986 0.1915340983211852 4.316791403064856e-14
  outer loop
    vertex 140.36503869818188 55.87371232024389 -1.8761924375221282e-10
    vertex 140.7721572338566 57.95992636891608 0.3999999998121911
    vertex 140.7721572338566 57.95992636891612 -1.8780818150654354e-10
  endloop
endfacet
facet normal -0.5748465654100546 -0.8182612212712171 -9.231620920890921e-14
  outer loop
    vertex 143.81818314301037 50.59091213530195 -1.8762435494146245e-10
    vertex 141.99351284088104 51.8727832895468 0.39999999981217715
    vertex 141.99351284088104 51.872783289546845 -1.8764726716913315e-10
  endloop
endfacet
facet normal -0.5748465654100546 -0.8182612212712171 -9.231620920890921e-14
  outer loop
    vertex 141.99351284088104 51.8727832895468 0.39999999981217715
    vertex 143.81818314301037 50.59091213530195 -1.8762435494146245e-10
    vertex 143.81818314301037 50.5909121353019 0.3999999998124426
  endloop
endfacet
facet normal -0.982478432933117 -0.1863763097104537 -6.309316617168781e-14
  outer loop
    vertex 140.36503869818188 55.873712320243754 0.3999999998122559
    vertex 140.7721572338566 53.72759631671799 -1.8752442237923716e-10
    vertex 140.7721572338566 53.72759631671786 0.39999999981230566
  endloop
endfacet
facet normal -0.982478432933117 -0.1863763097104537 -6.309316617168781e-14
  outer loop
    vertex 140.7721572338566 53.72759631671799 -1.8752442237923716e-10
    vertex 140.36503869818188 55.873712320243754 0.3999999998122559
    vertex 140.36503869818188 55.87371232024389 -1.8761924375221282e-10
  endloop
endfacet
facet normal 0.18644616142795056 -0.9824651794790401 -1.1082622272263696e-13
  outer loop
    vertex 148.2868229556486 50.59091213530195 -1.8762435494146245e-10
    vertex 146.03524576400042 50.16362175055348 0.3999999998123996
    vertex 146.03524576400042 50.163621750553524 -1.8765043963142601e-10
  endloop
endfacet
facet normal 0.18644616142795056 -0.9824651794790401 -1.1082622272263696e-13
  outer loop
    vertex 146.03524576400042 50.16362175055348 0.3999999998123996
    vertex 148.2868229556486 50.59091213530195 -1.8762435494146245e-10
    vertex 148.2868229556486 50.5909121353019 0.3999999998124426
  endloop
endfacet
facet normal -0.8351929186986026 -0.5499570788304388 -1.2413343691671462e-13
  outer loop
    vertex 140.7721572338566 53.72759631671786 0.39999999981230566
    vertex 141.99351284088104 51.872783289546845 -1.8764726716913315e-10
    vertex 141.99351284088104 51.8727832895468 0.39999999981217715
  endloop
endfacet
facet normal -0.8351929186986026 -0.5499570788304388 -1.2413343691671462e-13
  outer loop
    vertex 141.99351284088104 51.872783289546845 -1.8764726716913315e-10
    vertex 140.7721572338566 53.72759631671786 0.39999999981230566
    vertex 140.7721572338566 53.72759631671799 -1.8752442237923716e-10
  endloop
endfacet
facet normal -0.18924551725174668 -0.9819298010551055 -1.1076962883629974e-13
  outer loop
    vertex 146.03524576400042 50.16362175055348 0.3999999998123996
    vertex 143.81818314301037 50.59091213530195 -1.8762435494146245e-10
    vertex 146.03524576400042 50.163621750553524 -1.8765043963142601e-10
  endloop
endfacet
facet normal -0.18924551725174668 -0.9819298010551055 -1.1076962883629974e-13
  outer loop
    vertex 143.81818314301037 50.59091213530195 -1.8762435494146245e-10
    vertex 146.03524576400042 50.16362175055348 0.3999999998123996
    vertex 143.81818314301037 50.5909121353019 0.3999999998124426
  endloop
endfacet
facet normal -0.8324141758732726 0.5541539856440811 1.249973124314496e-13
  outer loop
    vertex 141.99351284088104 59.79456754701351 0.39999999981199297
    vertex 140.7721572338566 57.95992636891612 -1.8780818150654354e-10
    vertex 140.7721572338566 57.95992636891608 0.3999999998121911
  endloop
endfacet
facet normal -0.8324141758732726 0.5541539856440811 1.249973124314496e-13
  outer loop
    vertex 140.7721572338566 57.95992636891612 -1.8780818150654354e-10
    vertex 141.99351284088104 59.79456754701351 0.39999999981199297
    vertex 141.99351284088104 59.79456754701364 -1.8796116468822176e-10
  endloop
endfacet
facet normal -0.0 -0.0 1.0
  outer loop
    vertex 135.53976536630796 45.53958967090694 1.0000000000028464
    vertex 143.05933982703812 67.7362935564158 1.0000000000028464
    vertex 134.0113067794717 67.7362935564158 1.0000000000028464
  endloop
endfacet
facet normal -0.0 -0.0 1.0
  outer loop
    vertex 143.05933982703812 67.7362935564158 1.0000000000028464
    vertex 135.53976536630796 45.53958967090694 1.0000000000028464
    vertex 141.45111423245845 45.53958967090694 1.0000000000028464
  endloop
endfacet
facet normal 5.686285276828515e-18 2.991521923018799e-14 1.0
  outer loop
    vertex 140.7721572338566 53.72759631671786 0.39999999981230566
    vertex 140.7721572338566 57.95992636891608 0.3999999998121911
    vertex 140.36503869818188 55.873712320243754 0.3999999998122559
  endloop
endfacet
facet normal 5.686285276828515e-18 2.991521923018799e-14 1.0
  outer loop
    vertex 140.7721572338566 57.95992636891608 0.3999999998121911
    vertex 140.7721572338566 53.72759631671786 0.39999999981230566
    vertex 141.99351284088104 51.8727832895468 0.39999999981217715
  endloop
endfacet
facet normal 5.686285276828515e-18 2.991521923018799e-14 1.0
  outer loop
    vertex 140.7721572338566 57.95992636891608 0.3999999998121911
    vertex 141.99351284088104 51.8727832895468 0.39999999981217715
    vertex 141.99351284088104 59.79456754701351 0.39999999981199297
  endloop
endfacet
facet normal 5.686285276828515e-18 2.991521923018799e-14 1.0
  outer loop
    vertex 141.99351284088104 59.79456754701351 0.39999999981199297
    vertex 141.99351284088104 51.8727832895468 0.39999999981217715
    vertex 143.81818314301037 50.5909121353019 0.3999999998124426
  endloop
endfacet
facet normal 5.686285276828515e-18 2.991521923018799e-14 1.0
  outer loop
    vertex 141.99351284088104 59.79456754701351 0.39999999981199297
    vertex 143.81818314301037 50.5909121353019 0.3999999998124426
    vertex 143.82815401897835 61.076208604120815 0.39999999981213363
  endloop
endfacet
facet normal 5.686285276828515e-18 2.991521923018799e-14 1.0
  outer loop
    vertex 143.82815401897835 61.076208604120815 0.39999999981213363
    vertex 143.81818314301037 50.5909121353019 0.3999999998124426
    vertex 146.03524576400042 50.16362175055348 0.3999999998123996
  endloop
endfacet
facet normal 5.686285276828515e-18 2.991521923018799e-14 1.0
  outer loop
    vertex 143.82815401897835 61.076208604120815 0.39999999981213363
    vertex 146.03524576400042 50.16362175055348 0.3999999998123996
    vertex 146.07512926787226 61.503422289823206 0.39999999981196793
  endloop
endfacet
facet normal 5.686285276828515e-18 2.991521923018799e-14 1.0
  outer loop
    vertex 146.07512926787226 61.503422289823206 0.39999999981196793
    vertex 146.03524576400042 50.16362175055348 0.3999999998123996
    vertex 148.2868229556486 50.5909121353019 0.3999999998124426
  endloop
endfacet
facet normal 5.686285276828515e-18 2.991521923018799e-14 1.0
  outer loop
    vertex 146.07512926787226 61.503422289823206 0.39999999981196793
    vertex 148.2868229556486 50.5909121353019 0.3999999998124426
    vertex 148.29679383161655 61.076208604120815 0.39999999981213363
  endloop
endfacet
facet normal 5.686285276828515e-18 2.991521923018799e-14 1.0
  outer loop
    vertex 148.29679383161655 61.076208604120815 0.39999999981213363
    vertex 148.2868229556486 50.5909121353019 0.3999999998124426
    vertex 150.1364971467438 51.8727832895468 0.39999999981217715
  endloop
endfacet
facet normal 5.686285276828515e-18 2.991521923018799e-14 1.0
  outer loop
    vertex 148.29679383161655 61.076208604120815 0.39999999981213363
    vertex 150.1364971467438 51.8727832895468 0.39999999981217715
    vertex 150.1364971467438 59.79456754701351 0.39999999981199297
  endloop
endfacet
facet normal 5.686285276828515e-18 2.991521923018799e-14 1.0
  outer loop
    vertex 150.1364971467438 59.79456754701351 0.39999999981199297
    vertex 150.1364971467438 51.8727832895468 0.39999999981217715
    vertex 151.37303916485786 53.72759631671786 0.39999999981230566
  endloop
endfacet
facet normal 5.686285276828515e-18 2.991521923018799e-14 1.0
  outer loop
    vertex 150.1364971467438 59.79456754701351 0.39999999981199297
    vertex 151.37303916485786 53.72759631671786 0.39999999981230566
    vertex 151.37303916485786 57.95992636891608 0.3999999998121911
  endloop
endfacet
facet normal 5.686285276828515e-18 2.991521923018799e-14 1.0
  outer loop
    vertex 151.37303916485786 57.95992636891608 0.3999999998121911
    vertex 151.37303916485786 53.72759631671786 0.39999999981230566
    vertex 151.78521983756252 55.873712320243754 0.3999999998122559
  endloop
endfacet
facet normal -0.9973855448316886 -0.07226392572228388 -7.632260056847022e-17
  outer loop
    vertex 148.97068869318863 67.7362935564158 1.0000000000028464
    vertex 150.57891428776813 45.53958967090694 0.6000000000028464
    vertex 150.57891428776813 45.53958967090694 1.0000000000028457
  endloop
endfacet
facet normal -0.9973855448316886 -0.07226392572228388 -7.632260056847022e-17
  outer loop
    vertex 150.57891428776813 45.53958967090694 0.6000000000028464
    vertex 148.97068869318863 67.7362935564158 1.0000000000028464
    vertex 148.97068869318863 67.7362935564158 0.6000000000028464
  endloop
endfacet
facet normal 0.0 -1.0 0.0
  outer loop
    vertex 150.57893133200054 3.1208776963494946 0.3999999998125956
    vertex 141.53151187680146 3.1208776963494946 -1.8740439755582372e-10
    vertex 150.57893133200054 3.1208776963494946 -1.8740439755582372e-10
  endloop
endfacet
facet normal 0.0 -1.0 0.0
  outer loop
    vertex 141.53151187680146 3.1208776963494946 -1.8740439755582372e-10
    vertex 150.57893133200054 3.1208776963494946 0.3999999998125956
    vertex 141.53151187680146 3.1208776963494946 0.3999999998125956
  endloop
endfacet
facet normal 6.857652261584478e-34 -3.1761094992902474e-17 1.0
  outer loop
    vertex 150.57891428776813 45.53958967090694 1.0000000000028457
    vertex 158.0984887484983 67.7362935564158 1.0000000000028464
    vertex 148.97068869318863 67.7362935564158 1.0000000000028464
  endloop
endfacet
facet normal 6.857652261584478e-34 -3.1761094992902474e-17 1.0
  outer loop
    vertex 158.0984887484983 67.7362935564158 1.0000000000028464
    vertex 150.57891428776813 45.53958967090694 1.0000000000028457
    vertex 156.4902631539187 45.53958967090694 1.0000000000028457
  endloop
endfacet
facet normal 0.0 -1.0 0.0
  outer loop
    vertex 156.4902631539187 45.53958967090694 1.0000000000028457
    vertex 150.57891428776813 45.53958967090694 0.6000000000028464
    vertex 156.4902631539187 45.53958967090694 0.6000000000028464
  endloop
endfacet
facet normal 0.0 -1.0 0.0
  outer loop
    vertex 150.57891428776813 45.53958967090694 0.6000000000028464
    vertex 156.4902631539187 45.53958967090694 1.0000000000028457
    vertex 150.57891428776813 45.53958967090694 1.0000000000028457
  endloop
endfacet
facet normal 0.9973855448316882 0.07226392572229137 -8.86533050269512e-17
  outer loop
    vertex 148.97070573742087 25.317581581858537 -1.8712169591594828e-10
    vertex 150.57893133200054 3.1208776963494946 0.3999999998125956
    vertex 150.57893133200054 3.1208776963494946 -1.8740439755582372e-10
  endloop
endfacet
facet normal 0.9973855448316882 0.07226392572229137 -8.86533050269512e-17
  outer loop
    vertex 150.57893133200054 3.1208776963494946 0.3999999998125956
    vertex 148.97070573742087 25.317581581858537 -1.8712169591594828e-10
    vertex 148.97070573742087 25.317581581858537 0.39999999981290013
  endloop
endfacet
facet normal -0.9782112825856539 0.2076118653211562 0.0
  outer loop
    vertex 81.57509334655917 16.79343607604083 1.0000000000028464
    vertex 81.13161316587743 14.703876716440016 0.6000000000028465
    vertex 81.13161316587743 14.703876716440016 1.0000000000028464
  endloop
endfacet
facet normal -0.9782112825856539 0.2076118653211562 0.0
  outer loop
    vertex 81.13161316587743 14.703876716440016 0.6000000000028465
    vertex 81.57509334655917 16.79343607604083 1.0000000000028464
    vertex 81.57509334655917 16.79343607604083 0.6000000000028465
  endloop
endfacet
facet normal 0.0 0.0 -1.0
  outer loop
    vertex 158.0984887484983 67.7362935564158 0.6000000000028464
    vertex 150.57891428776813 45.53958967090694 0.6000000000028464
    vertex 148.97068869318863 67.7362935564158 0.6000000000028464
  endloop
endfacet
facet normal 0.0 0.0 -1.0
  outer loop
    vertex 150.57891428776813 45.53958967090694 0.6000000000028464
    vertex 158.0984887484983 67.7362935564158 0.6000000000028464
    vertex 156.4902631539187 45.53958967090694 0.6000000000028464
  endloop
endfacet
facet normal -7.132242036775443e-31 -1.3720793036933756e-14 1.0
  outer loop
    vertex 150.57893133200054 3.1208776963494946 0.3999999998125956
    vertex 143.05935687127055 25.317581581858537 0.39999999981290013
    vertex 141.53151187680146 3.1208776963494946 0.3999999998125956
  endloop
endfacet
facet normal -7.132242036775443e-31 -1.3720793036933756e-14 1.0
  outer loop
    vertex 143.05935687127055 25.317581581858537 0.39999999981290013
    vertex 150.57893133200054 3.1208776963494946 0.3999999998125956
    vertex 148.97070573742087 25.317581581858537 0.39999999981290013
  endloop
endfacet
facet normal 0.8320502943378437 -0.5547001962252291 -1.2519186462693837e-13
  outer loop
    vertex 150.1364971467438 51.872783289546845 -1.8764726716913315e-10
    vertex 151.37303916485786 53.72759631671786 0.39999999981230566
    vertex 150.1364971467438 51.8727832895468 0.39999999981217715
  endloop
endfacet
facet normal 0.8320502943378437 -0.5547001962252291 -1.2519186462693837e-13
  outer loop
    vertex 151.37303916485786 53.72759631671786 0.39999999981230566
    vertex 150.1364971467438 51.872783289546845 -1.8764726716913315e-10
    vertex 151.37303916485786 53.72759631671799 -1.8752442237923716e-10
  endloop
endfacet
facet normal 0.9810357839890372 0.19382670232198437 4.3709971646452866e-14
  outer loop
    vertex 151.78521983756252 55.87371232024389 -1.8761924375221282e-10
    vertex 151.37303916485786 57.95992636891608 0.3999999998121911
    vertex 151.78521983756252 55.873712320243754 0.3999999998122559
  endloop
endfacet
facet normal 0.9810357839890372 0.19382670232198437 4.3709971646452866e-14
  outer loop
    vertex 151.37303916485786 57.95992636891608 0.3999999998121911
    vertex 151.78521983756252 55.87371232024389 -1.8761924375221282e-10
    vertex 151.37303916485786 57.95992636891612 -1.8780818150654354e-10
  endloop
endfacet
facet normal 0.8292342941948433 0.558901140928501 1.2601749245714295e-13
  outer loop
    vertex 151.37303916485786 57.95992636891612 -1.8780818150654354e-10
    vertex 150.1364971467438 59.79456754701351 0.39999999981199297
    vertex 151.37303916485786 57.95992636891608 0.3999999998121911
  endloop
endfacet
facet normal 0.8292342941948433 0.558901140928501 1.2601749245714295e-13
  outer loop
    vertex 150.1364971467438 59.79456754701351 0.39999999981199297
    vertex 151.37303916485786 57.95992636891612 -1.8780818150654354e-10
    vertex 150.1364971467438 59.79456754701364 -1.8796116468822176e-10
  endloop
endfacet
facet normal 0.18883481938116498 0.9820088650258119 2.2155530272008934e-13
  outer loop
    vertex 146.07512926787226 61.50342228982339 -1.878282737677317e-10
    vertex 148.29679383161655 61.076208604120815 0.39999999981213363
    vertex 148.29679383161655 61.076208604120815 -1.879333175192066e-10
  endloop
endfacet
facet normal 0.18883481938116498 0.9820088650258119 2.2155530272008934e-13
  outer loop
    vertex 148.29679383161655 61.076208604120815 0.39999999981213363
    vertex 146.07512926787226 61.50342228982339 -1.878282737677317e-10
    vertex 146.07512926787226 61.503422289823206 0.39999999981196793
  endloop
endfacet
facet normal 0.9820517295108504 -0.1886117720736112 -6.378704047803282e-14
  outer loop
    vertex 151.37303916485786 53.72759631671799 -1.8752442237923716e-10
    vertex 151.78521983756252 55.873712320243754 0.3999999998122559
    vertex 151.37303916485786 53.72759631671786 0.39999999981230566
  endloop
endfacet
facet normal 0.9820517295108504 -0.1886117720736112 -6.378704047803282e-14
  outer loop
    vertex 151.78521983756252 55.873712320243754 0.3999999998122559
    vertex 151.37303916485786 53.72759631671799 -1.8752442237923716e-10
    vertex 151.78521983756252 55.87371232024389 -1.8761924375221282e-10
  endloop
endfacet
facet normal 0.5696086686278516 -0.8219160325872749 -9.273797607463802e-14
  outer loop
    vertex 150.1364971467438 51.8727832895468 0.39999999981217715
    vertex 148.2868229556486 50.59091213530195 -1.8762435494146245e-10
    vertex 150.1364971467438 51.872783289546845 -1.8764726716913315e-10
  endloop
endfacet
facet normal 0.5696086686278516 -0.8219160325872749 -9.273797607463802e-14
  outer loop
    vertex 148.2868229556486 50.59091213530195 -1.8762435494146245e-10
    vertex 150.1364971467438 51.8727832895468 0.39999999981217715
    vertex 148.2868229556486 50.5909121353019 0.3999999998124426
  endloop
endfacet
facet normal 0.5716196204159173 0.8205187441829486 1.3892586976674372e-13
  outer loop
    vertex 148.29679383161655 61.076208604120815 -1.879333175192066e-10
    vertex 150.1364971467438 59.79456754701351 0.39999999981199297
    vertex 150.1364971467438 59.79456754701364 -1.8796116468822176e-10
  endloop
endfacet
facet normal 0.5716196204159173 0.8205187441829486 1.3892586976674372e-13
  outer loop
    vertex 150.1364971467438 59.79456754701351 0.39999999981199297
    vertex 148.29679383161655 61.076208604120815 -1.879333175192066e-10
    vertex 148.29679383161655 61.076208604120815 0.39999999981213363
  endloop
endfacet
facet normal 0.6894457546682078 -0.7243373187748823 1.6075489304052323e-16
  outer loop
    vertex 90.342650545251 7.792021393640996 1.0000000000028464
    vertex 88.2203422012407 5.771945332463238 0.6000000000028491
    vertex 90.342650545251 7.792021393640996 0.6000000000028465
  endloop
endfacet
facet normal 0.6894457546682078 -0.7243373187748823 1.6075489304052323e-16
  outer loop
    vertex 88.2203422012407 5.771945332463238 0.6000000000028491
    vertex 90.342650545251 7.792021393640996 1.0000000000028464
    vertex 88.2203422012407 5.771945332463238 1.0000000000028484
  endloop
endfacet
facet normal 0.5484781947008004 -0.8361648581097815 -2.5463824776564492e-17
  outer loop
    vertex 88.2203422012407 5.771945332463238 0.6000000000028491
    vertex 86.17033127309743 4.427250823862752 1.0000000000028457
    vertex 86.17033127309743 4.427250823862752 0.6000000000028466
  endloop
endfacet
facet normal 0.5484781947008004 -0.8361648581097815 -2.5463824776564492e-17
  outer loop
    vertex 86.17033127309743 4.427250823862752 1.0000000000028457
    vertex 88.2203422012407 5.771945332463238 0.6000000000028491
    vertex 88.2203422012407 5.771945332463238 1.0000000000028484
  endloop
endfacet
facet normal -0.839644740616369 -0.5431359954516647 0.0
  outer loop
    vertex 81.51830034018913 12.772168183115525 1.0000000000028464
    vertex 82.5947916038177 11.10799892275644 0.6000000000028463
    vertex 82.5947916038177 11.10799892275644 1.0000000000028464
  endloop
endfacet
facet normal -0.839644740616369 -0.5431359954516647 0.0
  outer loop
    vertex 82.5947916038177 11.10799892275644 0.6000000000028463
    vertex 81.51830034018913 12.772168183115525 1.0000000000028464
    vertex 81.51830034018913 12.772168183115525 0.6000000000028463
  endloop
endfacet
facet normal -0.6206274365155383 -0.784105595595486 -7.146895997647562e-17
  outer loop
    vertex 84.22072369108652 9.821057382052793 0.6000000000028464
    vertex 82.5947916038177 11.10799892275644 1.0000000000028464
    vertex 82.5947916038177 11.10799892275644 0.6000000000028463
  endloop
endfacet
facet normal -0.6206274365155383 -0.784105595595486 -7.146895997647562e-17
  outer loop
    vertex 82.5947916038177 11.10799892275644 1.0000000000028464
    vertex 84.22072369108652 9.821057382052793 0.6000000000028464
    vertex 84.22072369108652 9.821057382052793 1.0000000000028464
  endloop
endfacet
facet normal -0.9805469378344436 -0.19628474903439624 1.9166018526950926e-19
  outer loop
    vertex 81.13161316587743 14.703876716440016 1.0000000000028464
    vertex 81.51830034018913 12.772168183115525 0.6000000000028463
    vertex 81.51830034018913 12.772168183115525 1.0000000000028464
  endloop
endfacet
facet normal -0.9805469378344436 -0.19628474903439624 1.9166018526950926e-19
  outer loop
    vertex 81.51830034018913 12.772168183115525 0.6000000000028463
    vertex 81.13161316587743 14.703876716440016 1.0000000000028464
    vertex 81.13161316587743 14.703876716440016 0.6000000000028465
  endloop
endfacet
facet normal -0.8572694854939901 0.514867972630722 -2.2840867395107225e-16
  outer loop
    vertex 84.22072369108652 9.821057382052793 1.0000000000028464
    vertex 82.55499963020844 7.047580520892317 0.6000000000028463
    vertex 82.55499963020844 7.047580520892317 1.0000000000028457
  endloop
endfacet
facet normal -0.8572694854939901 0.514867972630722 -2.2840867395107225e-16
  outer loop
    vertex 82.55499963020844 7.047580520892317 0.6000000000028463
    vertex 84.22072369108652 9.821057382052793 1.0000000000028464
    vertex 84.22072369108652 9.821057382052793 0.6000000000028464
  endloop
endfacet
facet normal -0.5868522185513146 -0.8096940617180047 2.600996739631209e-17
  outer loop
    vertex 86.17033127309743 4.427250823862752 0.6000000000028466
    vertex 82.55499963020844 7.047580520892317 1.0000000000028457
    vertex 82.55499963020844 7.047580520892317 0.6000000000028463
  endloop
endfacet
facet normal -0.5868522185513146 -0.8096940617180047 2.600996739631209e-17
  outer loop
    vertex 82.55499963020844 7.047580520892317 1.0000000000028457
    vertex 86.17033127309743 4.427250823862752 0.6000000000028466
    vertex 86.17033127309743 4.427250823862752 1.0000000000028457
  endloop
endfacet
facet normal 0.9868375944811758 0.1617144462273124 -0.0
  outer loop
    vertex 92.32055696466908 16.84277442343332 0.6000000000028465
    vertex 92.74783260307511 14.235390401647663 1.0000000000028464
    vertex 92.74783260307511 14.235390401647663 0.6000000000028465
  endloop
endfacet
facet normal 0.9868375944811758 0.1617144462273124 -0.0
  outer loop
    vertex 92.74783260307511 14.235390401647663 1.0000000000028464
    vertex 92.32055696466908 16.84277442343332 0.6000000000028465
    vertex 92.32055696466908 16.84277442343332 1.0000000000028464
  endloop
endfacet
facet normal -0.84913651443877 0.5281734372786807 0.0
  outer loop
    vertex 82.85421206942995 18.849856064687053 1.0000000000028464
    vertex 81.57509334655917 16.79343607604083 0.6000000000028465
    vertex 81.57509334655917 16.79343607604083 1.0000000000028464
  endloop
endfacet
facet normal -0.84913651443877 0.5281734372786807 0.0
  outer loop
    vertex 81.57509334655917 16.79343607604083 0.6000000000028465
    vertex 82.85421206942995 18.849856064687053 1.0000000000028464
    vertex 82.85421206942995 18.849856064687053 0.6000000000028465
  endloop
endfacet
facet normal 0.5394156439439878 0.8420396445942988 -0.0
  outer loop
    vertex 89.01604177818173 20.0758259789342 1.0000000000028464
    vertex 90.98260758104 18.816032137020592 0.6000000000028465
    vertex 89.01604177818173 20.0758259789342 0.6000000000028465
  endloop
endfacet
facet normal 0.5394156439439878 0.8420396445942988 -0.0
  outer loop
    vertex 90.98260758104 18.816032137020592 0.6000000000028465
    vertex 89.01604177818173 20.0758259789342 1.0000000000028464
    vertex 90.98260758104 18.816032137020592 1.0000000000028464
  endloop
endfacet
facet normal 0.8945222059356311 -0.4470235151399222 5.557366634698561e-30
  outer loop
    vertex 91.9823771702647 11.073217635139681 0.6000000000028465
    vertex 90.342650545251 7.792021393640996 1.0000000000028464
    vertex 90.342650545251 7.792021393640996 0.6000000000028465
  endloop
endfacet
facet normal 0.8945222059356311 -0.4470235151399222 5.557366634698561e-30
  outer loop
    vertex 90.342650545251 7.792021393640996 1.0000000000028464
    vertex 91.9823771702647 11.073217635139681 0.6000000000028465
    vertex 91.9823771702647 11.073217635139681 1.0000000000028464
  endloop
endfacet
facet normal 0.1929932038364758 0.9812000933922359 4.218613556192284e-17
  outer loop
    vertex 86.89947398951192 20.492135762660627 1.0000000000028464
    vertex 89.01604177818173 20.0758259789342 0.6000000000028465
    vertex 86.89947398951192 20.492135762660627 0.6000000000028465
  endloop
endfacet
facet normal 0.1929932038364758 0.9812000933922359 4.218613556192284e-17
  outer loop
    vertex 89.01604177818173 20.0758259789342 0.6000000000028465
    vertex 86.89947398951192 20.492135762660627 1.0000000000028464
    vertex 89.01604177818173 20.0758259789342 1.0000000000028464
  endloop
endfacet
facet normal 0.8276797520988509 0.561200702035898 -5.142096873624981e-30
  outer loop
    vertex 90.98260758104 18.816032137020592 0.6000000000028465
    vertex 92.32055696466908 16.84277442343332 1.0000000000028464
    vertex 92.32055696466908 16.84277442343332 0.6000000000028465
  endloop
endfacet
facet normal 0.8276797520988509 0.561200702035898 -5.142096873624981e-30
  outer loop
    vertex 92.32055696466908 16.84277442343332 1.0000000000028464
    vertex 90.98260758104 18.816032137020592 0.6000000000028465
    vertex 90.98260758104 18.816032137020592 1.0000000000028464
  endloop
endfacet
facet normal 0.9719297089236218 -0.2352714196659765 -6.038273504898431e-30
  outer loop
    vertex 92.74783260307511 14.235390401647663 0.6000000000028465
    vertex 91.9823771702647 11.073217635139681 1.0000000000028464
    vertex 91.9823771702647 11.073217635139681 0.6000000000028465
  endloop
endfacet
facet normal 0.9719297089236218 -0.2352714196659765 -6.038273504898431e-30
  outer loop
    vertex 91.9823771702647 11.073217635139681 1.0000000000028464
    vertex 92.74783260307511 14.235390401647663 0.6000000000028465
    vertex 92.74783260307511 14.235390401647663 1.0000000000028464
  endloop
endfacet
facet normal -0.5478817308324652 0.8365558014980364 -0.0
  outer loop
    vertex 82.85421206942995 18.849856064687053 1.0000000000028464
    vertex 84.73726818517099 20.083117542402455 0.6000000000028465
    vertex 82.85421206942995 18.849856064687053 0.6000000000028465
  endloop
endfacet
facet normal -0.5478817308324652 0.8365558014980364 -0.0
  outer loop
    vertex 84.73726818517099 20.083117542402455 0.6000000000028465
    vertex 82.85421206942995 18.849856064687053 1.0000000000028464
    vertex 84.73726818517099 20.083117542402455 1.0000000000028464
  endloop
endfacet
facet normal -0.18587072198278767 0.982574208245666 -0.0
  outer loop
    vertex 84.73726818517099 20.083117542402455 1.0000000000028464
    vertex 86.89947398951192 20.492135762660627 0.6000000000028465
    vertex 84.73726818517099 20.083117542402455 0.6000000000028465
  endloop
endfacet
facet normal -0.18587072198278767 0.982574208245666 -0.0
  outer loop
    vertex 86.89947398951192 20.492135762660627 0.6000000000028465
    vertex 84.73726818517099 20.083117542402455 1.0000000000028464
    vertex 86.89947398951192 20.492135762660627 1.0000000000028464
  endloop
endfacet
facet normal -0.9976394579440664 0.06866958535676042 -9.569881149256308e-18
  outer loop
    vertex 143.05935687127055 25.317581581858537 0.39999999981290013
    vertex 141.53151187680146 3.1208776963494946 -1.8740439755582372e-10
    vertex 141.53151187680146 3.1208776963494946 0.3999999998125956
  endloop
endfacet
facet normal -0.9976394579440664 0.06866958535676042 -9.569881149256308e-18
  outer loop
    vertex 141.53151187680146 3.1208776963494946 -1.8740439755582372e-10
    vertex 143.05935687127055 25.317581581858537 0.39999999981290013
    vertex 143.05935687127055 25.317581581858537 -1.8712169591594828e-10
  endloop
endfacet
facet normal -0.5726800443699196 0.8197789743464191 1.386998590993688e-13
  outer loop
    vertex 141.99351284088104 59.79456754701351 0.39999999981199297
    vertex 143.82815401897835 61.076208604120815 -1.879333175192066e-10
    vertex 141.99351284088104 59.79456754701364 -1.8796116468822176e-10
  endloop
endfacet
facet normal -0.5726800443699196 0.8197789743464191 1.386998590993688e-13
  outer loop
    vertex 143.82815401897835 61.076208604120815 -1.879333175192066e-10
    vertex 141.99351284088104 59.79456754701351 0.39999999981199297
    vertex 143.82815401897835 61.076208604120815 0.39999999981213363
  endloop
endfacet
facet normal 0.0 0.0 -1.0
  outer loop
    vertex 143.05933982703812 67.7362935564158 0.6000000000028464
    vertex 135.53976536630796 45.53958967090694 0.6000000000028464
    vertex 134.0113067794717 67.7362935564158 0.6000000000028464
  endloop
endfacet
facet normal 0.0 0.0 -1.0
  outer loop
    vertex 135.53976536630796 45.53958967090694 0.6000000000028464
    vertex 143.05933982703812 67.7362935564158 0.6000000000028464
    vertex 141.45111423245845 45.53958967090694 0.6000000000028464
  endloop
endfacet
facet normal -0.18678233772331604 0.9824013224312217 2.2164149000902144e-13
  outer loop
    vertex 143.82815401897835 61.076208604120815 0.39999999981213363
    vertex 146.07512926787226 61.50342228982339 -1.878282737677317e-10
    vertex 143.82815401897835 61.076208604120815 -1.879333175192066e-10
  endloop
endfacet
facet normal -0.18678233772331604 0.9824013224312217 2.2164149000902144e-13
  outer loop
    vertex 146.07512926787226 61.50342228982339 -1.878282737677317e-10
    vertex 143.82815401897835 61.076208604120815 0.39999999981213363
    vertex 146.07512926787226 61.503422289823206 0.39999999981196793
  endloop
endfacet
facet normal 2.77172509053105e-17 -4.316321651238412e-17 -1.0
  outer loop
    vertex 81.57509334655917 16.79343607604083 0.6000000000028465
    vertex 81.51830034018913 12.772168183115525 0.6000000000028463
    vertex 81.13161316587743 14.703876716440016 0.6000000000028465
  endloop
endfacet
facet normal 2.77172509053105e-17 -4.316321651238412e-17 -1.0
  outer loop
    vertex 81.51830034018913 12.772168183115525 0.6000000000028463
    vertex 81.57509334655917 16.79343607604083 0.6000000000028465
    vertex 82.5947916038177 11.10799892275644 0.6000000000028463
  endloop
endfacet
facet normal 2.77172509053105e-17 -4.316321651238412e-17 -1.0
  outer loop
    vertex 82.5947916038177 11.10799892275644 0.6000000000028463
    vertex 81.57509334655917 16.79343607604083 0.6000000000028465
    vertex 82.85421206942995 18.849856064687053 0.6000000000028465
  endloop
endfacet
facet normal 2.77172509053105e-17 -4.316321651238412e-17 -1.0
  outer loop
    vertex 82.5947916038177 11.10799892275644 0.6000000000028463
    vertex 82.85421206942995 18.849856064687053 0.6000000000028465
    vertex 84.22072369108652 9.821057382052793 0.6000000000028464
  endloop
endfacet
facet normal 2.77172509053105e-17 -4.316321651238412e-17 -1.0
  outer loop
    vertex 84.22072369108652 9.821057382052793 0.6000000000028464
    vertex 82.85421206942995 18.849856064687053 0.6000000000028465
    vertex 84.73726818517099 20.083117542402455 0.6000000000028465
  endloop
endfacet
facet normal 2.77172509053105e-17 -4.316321651238412e-17 -1.0
  outer loop
    vertex 84.22072369108652 9.821057382052793 0.6000000000028464
    vertex 86.17033127309743 4.427250823862752 0.6000000000028466
    vertex 82.55499963020844 7.047580520892317 0.6000000000028463
  endloop
endfacet
facet normal 2.77172509053105e-17 -4.316321651238412e-17 -1.0
  outer loop
    vertex 86.17033127309743 4.427250823862752 0.6000000000028466
    vertex 84.22072369108652 9.821057382052793 0.6000000000028464
    vertex 84.73726818517099 20.083117542402455 0.6000000000028465
  endloop
endfacet
facet normal 2.77172509053105e-17 -4.316321651238412e-17 -1.0
  outer loop
    vertex 86.17033127309743 4.427250823862752 0.6000000000028466
    vertex 84.73726818517099 20.083117542402455 0.6000000000028465
    vertex 86.89947398951192 20.492135762660627 0.6000000000028465
  endloop
endfacet
facet normal 2.77172509053105e-17 -4.316321651238412e-17 -1.0
  outer loop
    vertex 86.17033127309743 4.427250823862752 0.6000000000028466
    vertex 86.89947398951192 20.492135762660627 0.6000000000028465
    vertex 88.2203422012407 5.771945332463238 0.6000000000028491
  endloop
endfacet
facet normal 2.77172509053105e-17 -4.316321651238412e-17 -1.0
  outer loop
    vertex 88.2203422012407 5.771945332463238 0.6000000000028491
    vertex 86.89947398951192 20.492135762660627 0.6000000000028465
    vertex 89.01604177818173 20.0758259789342 0.6000000000028465
  endloop
endfacet
facet normal 2.77172509053105e-17 -4.316321651238412e-17 -1.0
  outer loop
    vertex 88.2203422012407 5.771945332463238 0.6000000000028491
    vertex 89.01604177818173 20.0758259789342 0.6000000000028465
    vertex 90.342650545251 7.792021393640996 0.6000000000028465
  endloop
endfacet
facet normal 2.77172509053105e-17 -4.316321651238412e-17 -1.0
  outer loop
    vertex 90.342650545251 7.792021393640996 0.6000000000028465
    vertex 89.01604177818173 20.0758259789342 0.6000000000028465
    vertex 90.98260758104 18.816032137020592 0.6000000000028465
  endloop
endfacet
facet normal 2.77172509053105e-17 -4.316321651238412e-17 -1.0
  outer loop
    vertex 90.342650545251 7.792021393640996 0.6000000000028465
    vertex 90.98260758104 18.816032137020592 0.6000000000028465
    vertex 91.9823771702647 11.073217635139681 0.6000000000028465
  endloop
endfacet
facet normal 2.77172509053105e-17 -4.316321651238412e-17 -1.0
  outer loop
    vertex 91.9823771702647 11.073217635139681 0.6000000000028465
    vertex 90.98260758104 18.816032137020592 0.6000000000028465
    vertex 92.32055696466908 16.84277442343332 0.6000000000028465
  endloop
endfacet
facet normal 2.77172509053105e-17 -4.316321651238412e-17 -1.0
  outer loop
    vertex 91.9823771702647 11.073217635139681 0.6000000000028465
    vertex 92.32055696466908 16.84277442343332 0.6000000000028465
    vertex 92.74783260307511 14.235390401647663 0.6000000000028465
  endloop
endfacet
endsolid Extra-Characters_2_export
