solid Flaps_2-2
facet normal 0.0 -1.0 0.0
  outer loop
    vertex 1105.8056872027905 181.19267094273118 1.0000000000187805
    vertex 1095.458671806833 181.19267094273118 0.600000000018826
    vertex 1105.8056872027905 181.19267094273118 0.600000000018826
  endloop
endfacet
facet normal 0.0 -1.0 0.0
  outer loop
    vertex 1095.458671806833 181.19267094273118 0.600000000018826
    vertex 1105.8056872027905 181.19267094273118 1.0000000000187805
    vertex 1095.458671806833 181.19267094273118 1.0000000000187805
  endloop
endfacet
facet normal -7.390597059296127e-16 -1.0102946080187715e-14 1.0
  outer loop
    vertex 1147.0584735681277 166.789596067178 1.0000000000095761
    vertex 1139.5382855150294 169.0414800550099 1.0000000000095761
    vertex 1139.5382855150294 166.789596067178 1.0000000000095761
  endloop
endfacet
facet normal -7.390597059296127e-16 -1.0102946080187715e-14 1.0
  outer loop
    vertex 1139.5382855150294 169.0414800550099 1.0000000000095761
    vertex 1147.0584735681277 166.789596067178 1.0000000000095761
    vertex 1139.8399428625814 172.81614690028078 1.0000000000095761
  endloop
endfacet
facet normal -7.390597059296127e-16 -1.0102946080187715e-14 1.0
  outer loop
    vertex 1139.8399428625814 172.81614690028078 1.0000000000095761
    vertex 1147.0584735681277 166.789596067178 1.0000000000095761
    vertex 1140.7449149052406 175.93764467060717 1.0000000000095761
  endloop
endfacet
facet normal -7.390597059296127e-16 -1.0102946080187715e-14 1.0
  outer loop
    vertex 1140.7449149052406 175.93764467060717 1.0000000000095761
    vertex 1147.0584735681277 166.789596067178 1.0000000000095761
    vertex 1143.3874309753958 180.0926709427307 1.0000000000097566
  endloop
endfacet
facet normal -7.390597059296127e-16 -1.0102946080187715e-14 1.0
  outer loop
    vertex 1143.3874309753958 180.0926709427307 1.0000000000097566
    vertex 1147.0584735681277 166.789596067178 1.0000000000095761
    vertex 1147.0584735681277 169.00098295877098 1.0000000000095761
  endloop
endfacet
facet normal -7.390597059296127e-16 -1.0102946080187715e-14 1.0
  outer loop
    vertex 1143.3874309753958 180.0926709427307 1.0000000000097566
    vertex 1147.0584735681277 169.00098295877098 1.0000000000095761
    vertex 1147.3047542045363 171.72533306939042 1.0000000000095761
  endloop
endfacet
facet normal -7.390597059296127e-16 -1.0102946080187715e-14 1.0
  outer loop
    vertex 1143.3874309753958 180.0926709427307 1.0000000000097566
    vertex 1147.3047542045363 171.72533306939042 1.0000000000095761
    vertex 1148.0435961137587 174.02753163133727 1.0000000000095761
  endloop
endfacet
facet normal -7.390597059296127e-16 -1.0102946080187715e-14 1.0
  outer loop
    vertex 1143.3874309753958 180.0926709427307 1.0000000000097566
    vertex 1148.0435961137587 174.02753163133727 1.0000000000095761
    vertex 1150.6170025020333 177.72718680971127 1.0000000000095761
  endloop
endfacet
facet normal -7.390597059296127e-16 -1.0102946080187715e-14 1.0
  outer loop
    vertex 1143.3874309753958 180.0926709427307 1.0000000000097566
    vertex 1150.6170025020333 177.72718680971127 1.0000000000095761
    vertex 1153.1512321592534 180.0926709427307 1.0000000000097566
  endloop
endfacet
facet normal -0.0 -0.0 1.0
  outer loop
    vertex 1137.9403375926026 155.02227504602192 1.0000000000095761
    vertex 1137.9403375926026 159.25460509822054 1.0000000000095761
    vertex 1137.5281569198974 157.13840172259833 1.0000000000095761
  endloop
endfacet
facet normal -0.0 -0.0 1.0
  outer loop
    vertex 1137.9403375926026 159.25460509822054 1.0000000000095761
    vertex 1137.9403375926026 155.02227504602192 1.0000000000095761
    vertex 1139.176879610716 153.17766299195694 1.0000000000095761
  endloop
endfacet
facet normal -0.0 -0.0 1.0
  outer loop
    vertex 1137.9403375926026 159.25460509822054 1.0000000000095761
    vertex 1139.176879610716 153.17766299195694 1.0000000000095761
    vertex 1139.176879610716 161.09944724942355 1.0000000000095761
  endloop
endfacet
facet normal -0.0 -0.0 1.0
  outer loop
    vertex 1139.176879610716 161.09944724942355 1.0000000000095761
    vertex 1139.176879610716 153.17766299195694 1.0000000000095761
    vertex 1141.0165829258422 151.8960219348495 1.0000000000095761
  endloop
endfacet
facet normal -0.0 -0.0 1.0
  outer loop
    vertex 1139.176879610716 161.09944724942355 1.0000000000095761
    vertex 1141.0165829258422 151.8960219348495 1.0000000000095761
    vertex 1141.0165829258422 162.3813184036685 1.0000000000095761
  endloop
endfacet
facet normal -0.0 -0.0 1.0
  outer loop
    vertex 1141.0165829258422 162.3813184036685 1.0000000000095761
    vertex 1141.0165829258422 151.8960219348495 1.0000000000095761
    vertex 1143.2382474895892 151.46880824914712 1.0000000000095761
  endloop
endfacet
facet normal -0.0 -0.0 1.0
  outer loop
    vertex 1141.0165829258422 162.3813184036685 1.0000000000095761
    vertex 1143.2382474895892 151.46880824914712 1.0000000000095761
    vertex 1143.2382474895892 162.80860878841688 1.0000000000095761
  endloop
endfacet
facet normal -0.0 -0.0 1.0
  outer loop
    vertex 1143.2382474895892 162.80860878841688 1.0000000000095761
    vertex 1143.2382474895892 151.46880824914712 1.0000000000095761
    vertex 1145.4848392432525 151.8960219348495 1.0000000000095761
  endloop
endfacet
facet normal -0.0 -0.0 1.0
  outer loop
    vertex 1143.2382474895892 162.80860878841688 1.0000000000095761
    vertex 1145.4848392432525 151.8960219348495 1.0000000000095761
    vertex 1145.4848392432525 162.3813184036685 1.0000000000095761
  endloop
endfacet
facet normal -0.0 -0.0 1.0
  outer loop
    vertex 1145.4848392432525 162.3813184036685 1.0000000000095761
    vertex 1145.4848392432525 151.8960219348495 1.0000000000095761
    vertex 1147.319557120396 153.17766299195694 1.0000000000095761
  endloop
endfacet
facet normal -0.0 -0.0 1.0
  outer loop
    vertex 1145.4848392432525 162.3813184036685 1.0000000000095761
    vertex 1147.319557120396 153.17766299195694 1.0000000000095761
    vertex 1147.319557120396 161.09944724942355 1.0000000000095761
  endloop
endfacet
facet normal -0.0 -0.0 1.0
  outer loop
    vertex 1147.319557120396 161.09944724942355 1.0000000000095761
    vertex 1147.319557120396 153.17766299195694 1.0000000000095761
    vertex 1148.5411428245582 155.02227504602192 1.0000000000095761
  endloop
endfacet
facet normal -0.0 -0.0 1.0
  outer loop
    vertex 1147.319557120396 161.09944724942355 1.0000000000095761
    vertex 1148.5411428245582 155.02227504602192 1.0000000000095761
    vertex 1148.5411428245582 159.25460509822054 1.0000000000095761
  endloop
endfacet
facet normal -0.0 -0.0 1.0
  outer loop
    vertex 1148.5411428245582 159.25460509822054 1.0000000000095761
    vertex 1148.5411428245582 155.02227504602192 1.0000000000095761
    vertex 1148.948338059278 157.13840172259833 1.0000000000095761
  endloop
endfacet
facet normal -0.0 1.0 -0.0
  outer loop
    vertex 1095.1884355314405 180.0926709427307 1.0000000000184195
    vertex 1105.8056872027905 180.0926709427307 0.6000000000184651
    vertex 1095.1884355314405 180.0926709427307 0.6000000000184651
  endloop
endfacet
facet normal -0.0 1.0 -0.0
  outer loop
    vertex 1105.8056872027905 180.0926709427307 0.6000000000184651
    vertex 1095.1884355314405 180.0926709427307 1.0000000000184195
    vertex 1105.8056872027905 180.0926709427307 1.0000000000184195
  endloop
endfacet
facet normal -1.0 0.0 0.0
  outer loop
    vertex 1068.0059430103154 168.3174410616471 1.0000000000183293
    vertex 1068.0059430103154 160.8782472010277 0.6000000000182846
    vertex 1068.0059430103154 160.8782472010277 1.0000000000183293
  endloop
endfacet
facet normal -1.0 0.0 0.0
  outer loop
    vertex 1068.0059430103154 160.8782472010277 0.6000000000182846
    vertex 1068.0059430103154 168.3174410616471 1.0000000000183293
    vertex 1068.0059430103154 168.3174410616471 0.6000000000182846
  endloop
endfacet
facet normal -4.989038146439937e-15 -8.295107412212326e-15 -1.0
  outer loop
    vertex 1078.351628956145 180.0927566724581 1.9459178712821766e-11
    vertex 1068.0046135601854 177.40544334281236 1.9820134422587898e-11
    vertex 1068.0046135601854 180.0927566724581 1.9459178712821766e-11
  endloop
endfacet
facet normal -4.989038146439937e-15 -8.295107412212326e-15 -1.0
  outer loop
    vertex 1068.0046135601854 177.40544334281236 1.9820134422587898e-11
    vertex 1078.351628956145 180.0927566724581 1.9459178712821766e-11
    vertex 1105.8043577526637 160.79795233064434 1.9459178712821766e-11
  endloop
endfacet
facet normal -4.989038146439937e-15 -8.295107412212326e-15 -1.0
  outer loop
    vertex 1105.8043577526637 160.79795233064434 1.9459178712821766e-11
    vertex 1078.351628956145 180.0927566724581 1.9459178712821766e-11
    vertex 1105.8043577526637 168.2776432875025 1.9639656567704832e-11
  endloop
endfacet
facet normal 0.0 -1.0 0.0
  outer loop
    vertex 1090.3480953697601 181.19275667245785 0.4000000000180601
    vertex 1082.8684044129027 181.19275667245785 1.8015355873757243e-11
    vertex 1090.3480953697601 181.19275667245785 1.8015355873757243e-11
  endloop
endfacet
facet normal 0.0 -1.0 0.0
  outer loop
    vertex 1082.8684044129027 181.19275667245785 1.8015355873757243e-11
    vertex 1090.3480953697601 181.19275667245785 0.4000000000180601
    vertex 1082.8684044129027 181.19275667245785 0.4000000000180601
  endloop
endfacet
facet normal 0.39979764459969636 -0.9166034275369774 0.0
  outer loop
    vertex 1105.8056872027905 177.36547410921315 1.0000000000183293
    vertex 1068.0059430103154 160.8782472010277 0.6000000000182846
    vertex 1105.8056872027905 177.36547410921315 0.6000000000182846
  endloop
endfacet
facet normal 0.39979764459969636 -0.9166034275369774 0.0
  outer loop
    vertex 1068.0059430103154 160.8782472010277 0.6000000000182846
    vertex 1105.8056872027905 177.36547410921315 1.0000000000183293
    vertex 1068.0059430103154 160.8782472010277 1.0000000000183293
  endloop
endfacet
facet normal -0.39749801021263736 0.9176030361092938 -6.348784986749814e-16
  outer loop
    vertex 1068.0059430103154 168.3174410616471 1.0000000000183293
    vertex 1095.1884355314405 180.0926709427307 0.6000000000184651
    vertex 1068.0059430103154 168.3174410616471 0.6000000000182846
  endloop
endfacet
facet normal -0.39749801021263736 0.9176030361092938 -6.348784986749814e-16
  outer loop
    vertex 1095.1884355314405 180.0926709427307 0.6000000000184651
    vertex 1068.0059430103154 168.3174410616471 1.0000000000183293
    vertex 1095.1884355314405 180.0926709427307 1.0000000000184195
  endloop
endfacet
facet normal 0.9061556590129425 0.42294434815802884 1.3713259997740585e-15
  outer loop
    vertex 1074.8014273449833 214.5013970900462 1.9098223003055637e-11
    vertex 1090.3480953697601 181.19275667245785 0.4000000000180601
    vertex 1090.3480953697601 181.19275667245785 1.8015355873757243e-11
  endloop
endfacet
facet normal 0.9061556590129425 0.42294434815802884 1.3713259997740585e-15
  outer loop
    vertex 1090.3480953697601 181.19275667245785 0.4000000000180601
    vertex 1074.8014273449833 214.5013970900462 1.9098223003055637e-11
    vertex 1074.8014273449833 214.5013970900462 0.400000000019143
  endloop
endfacet
facet normal -1.0 0.0 0.0
  outer loop
    vertex 1068.0046135601854 180.0927566724581 0.4000000000195039
    vertex 1068.0046135601854 177.40544334281236 1.9820134422587898e-11
    vertex 1068.0046135601854 177.40544334281236 0.40000000001986485
  endloop
endfacet
facet normal -1.0 0.0 0.0
  outer loop
    vertex 1068.0046135601854 177.40544334281236 1.9820134422587898e-11
    vertex 1068.0046135601854 180.0927566724581 0.4000000000195039
    vertex 1068.0046135601854 180.0927566724581 1.9459178712821766e-11
  endloop
endfacet
facet normal 0.0 3.2510096951498314e-14 -1.0
  outer loop
    vertex 1074.8014273449833 214.5013970900462 1.9098223003055637e-11
    vertex 1082.8684044129027 181.19275667245785 1.8015355873757243e-11
    vertex 1067.3217363881263 214.5013970900462 1.9098223003055637e-11
  endloop
endfacet
facet normal 0.0 3.2510096951498314e-14 -1.0
  outer loop
    vertex 1082.8684044129027 181.19275667245785 1.8015355873757243e-11
    vertex 1074.8014273449833 214.5013970900462 1.9098223003055637e-11
    vertex 1090.3480953697601 181.19275667245785 1.8015355873757243e-11
  endloop
endfacet
facet normal 7.1190661849231275e-16 8.686059673608797e-15 1.0
  outer loop
    vertex 1154.32090484188 181.19267094273118 1.0000000000101177
    vertex 1147.5812542650292 184.40276496927996 1.0000000000095761
    vertex 1144.2653950680892 181.19267094273118 1.0000000000101177
  endloop
endfacet
facet normal 7.1190661849231275e-16 8.686059673608797e-15 1.0
  outer loop
    vertex 1147.5812542650292 184.40276496927996 1.0000000000095761
    vertex 1154.32090484188 181.19267094273118 1.0000000000101177
    vertex 1151.9239542442897 188.78565524859405 1.0000000000095761
  endloop
endfacet
facet normal 7.1190661849231275e-16 8.686059673608797e-15 1.0
  outer loop
    vertex 1151.9239542442897 188.78565524859405 1.0000000000095761
    vertex 1154.32090484188 181.19267094273118 1.0000000000101177
    vertex 1153.3415827097906 191.34924415899215 1.0000000000095761
  endloop
endfacet
facet normal 7.1190661849231275e-16 8.686059673608797e-15 1.0
  outer loop
    vertex 1153.3415827097906 191.34924415899215 1.0000000000095761
    vertex 1154.32090484188 181.19267094273118 1.0000000000101177
    vertex 1153.8141255316225 194.5362429145232 1.0000000000095761
  endloop
endfacet
facet normal 7.1190661849231275e-16 8.686059673608797e-15 1.0
  outer loop
    vertex 1133.3054142484357 192.40462303067352 1.0000000000095761
    vertex 1126.625387544207 197.27531924195682 1.0000000000095761
    vertex 1126.067478684278 192.40462303067352 1.0000000000095761
  endloop
endfacet
facet normal 7.1190661849231275e-16 8.686059673608797e-15 1.0
  outer loop
    vertex 1126.625387544207 197.27531924195682 1.0000000000095761
    vertex 1133.3054142484357 192.40462303067352 1.0000000000095761
    vertex 1128.2991141239904 201.512788130231 1.0000000000095761
  endloop
endfacet
facet normal 7.1190661849231275e-16 8.686059673608797e-15 1.0
  outer loop
    vertex 1128.2991141239904 201.512788130231 1.0000000000095761
    vertex 1133.3054142484357 192.40462303067352 1.0000000000095761
    vertex 1130.993244810524 205.00129083522282 1.0000000000095761
  endloop
endfacet
facet normal 7.1190661849231275e-16 8.686059673608797e-15 1.0
  outer loop
    vertex 1130.993244810524 205.00129083522282 1.0000000000095761
    vertex 1133.3054142484357 192.40462303067352 1.0000000000095761
    vertex 1134.6123659906955 207.6250884966578 1.0000000000095761
  endloop
endfacet
facet normal 7.1190661849231275e-16 8.686059673608797e-15 1.0
  outer loop
    vertex 1134.6123659906955 207.6250884966578 1.0000000000095761
    vertex 1133.3054142484357 192.40462303067352 1.0000000000095761
    vertex 1134.0141901316654 196.59185404387875 1.0000000000095761
  endloop
endfacet
facet normal 7.1190661849231275e-16 8.686059673608797e-15 1.0
  outer loop
    vertex 1134.6123659906955 207.6250884966578 1.0000000000095761
    vertex 1134.0141901316654 196.59185404387875 1.0000000000095761
    vertex 1136.140517781347 199.90425573946777 1.0000000000095761
  endloop
endfacet
facet normal 7.1190661849231275e-16 8.686059673608797e-15 1.0
  outer loop
    vertex 1134.6123659906955 207.6250884966578 1.0000000000095761
    vertex 1136.140517781347 199.90425573946777 1.0000000000095761
    vertex 1139.0509397773378 209.26867235140088 1.0000000000095761
  endloop
endfacet
facet normal 7.1190661849231275e-16 8.686059673608797e-15 1.0
  outer loop
    vertex 1139.0509397773378 209.26867235140088 1.0000000000095761
    vertex 1136.140517781347 199.90425573946777 1.0000000000095761
    vertex 1139.573797173285 202.06049601705354 1.0000000000095761
  endloop
endfacet
facet normal 7.1190661849231275e-16 8.686059673608797e-15 1.0
  outer loop
    vertex 1139.0509397773378 209.26867235140088 1.0000000000095761
    vertex 1139.573797173285 202.06049601705354 1.0000000000095761
    vertex 1144.2034282832833 209.81653363631506 1.0000000000095761
  endloop
endfacet
facet normal 7.1190661849231275e-16 8.686059673608797e-15 1.0
  outer loop
    vertex 1144.2034282832833 209.81653363631506 1.0000000000095761
    vertex 1139.573797173285 202.06049601705354 1.0000000000095761
    vertex 1144.2034282832833 202.77924277624857 1.0000000000095761
  endloop
endfacet
facet normal 7.1190661849231275e-16 8.686059673608797e-15 1.0
  outer loop
    vertex 1144.2034282832833 209.81653363631506 1.0000000000095761
    vertex 1144.2034282832833 202.77924277624857 1.0000000000095761
    vertex 1148.3450233641738 202.18114361626533 1.0000000000095761
  endloop
endfacet
facet normal 7.1190661849231275e-16 8.686059673608797e-15 1.0
  outer loop
    vertex 1144.2034282832833 209.81653363631506 1.0000000000095761
    vertex 1148.3450233641738 202.18114361626533 1.0000000000095761
    vertex 1149.3254672680046 209.3038772134721 1.0000000000095761
  endloop
endfacet
facet normal 7.1190661849231275e-16 8.686059673608797e-15 1.0
  outer loop
    vertex 1149.3254672680046 209.3038772134721 1.0000000000095761
    vertex 1148.3450233641738 202.18114361626533 1.0000000000095761
    vertex 1151.3609832473326 200.38684613631526 1.0000000000095761
  endloop
endfacet
facet normal 7.1190661849231275e-16 8.686059673608797e-15 1.0
  outer loop
    vertex 1149.3254672680046 209.3038772134721 1.0000000000095761
    vertex 1151.3609832473326 200.38684613631526 1.0000000000095761
    vertex 1153.5929254832274 207.76590794494345 1.0000000000095761
  endloop
endfacet
facet normal 7.1190661849231275e-16 8.686059673608797e-15 1.0
  outer loop
    vertex 1153.5929254832274 207.76590794494345 1.0000000000095761
    vertex 1151.3609832473326 200.38684613631526 1.0000000000095761
    vertex 1153.20083996055 197.72799701090042 1.0000000000095761
  endloop
endfacet
facet normal 7.1190661849231275e-16 8.686059673608797e-15 1.0
  outer loop
    vertex 1153.5929254832274 207.76590794494345 1.0000000000095761
    vertex 1153.20083996055 197.72799701090042 1.0000000000095761
    vertex 1153.8141255316225 194.5362429145232 1.0000000000095761
  endloop
endfacet
facet normal 7.1190661849231275e-16 8.686059673608797e-15 1.0
  outer loop
    vertex 1153.5929254832274 207.76590794494345 1.0000000000095761
    vertex 1153.8141255316225 194.5362429145232 1.0000000000095761
    vertex 1156.9656126288994 205.35326275689036 1.0000000000095761
  endloop
endfacet
facet normal 7.1190661849231275e-16 8.686059673608797e-15 1.0
  outer loop
    vertex 1156.9656126288994 205.35326275689036 1.0000000000095761
    vertex 1153.8141255316225 194.5362429145232 1.0000000000095761
    vertex 1154.32090484188 181.19267094273118 1.0000000000101177
  endloop
endfacet
facet normal 7.1190661849231275e-16 8.686059673608797e-15 1.0
  outer loop
    vertex 1156.9656126288994 205.35326275689036 1.0000000000095761
    vertex 1154.32090484188 181.19267094273118 1.0000000000101177
    vertex 1157.4935321618777 184.22144842475538 1.0000000000095761
  endloop
endfacet
facet normal 7.1190661849231275e-16 8.686059673608797e-15 1.0
  outer loop
    vertex 1156.9656126288994 205.35326275689036 1.0000000000095761
    vertex 1157.4935321618777 184.22144842475538 1.0000000000095761
    vertex 1159.4033384049644 202.2165785754745 1.0000000000095761
  endloop
endfacet
facet normal 7.1190661849231275e-16 8.686059673608797e-15 1.0
  outer loop
    vertex 1159.4033384049644 202.2165785754745 1.0000000000095761
    vertex 1157.4935321618777 184.22144842475538 1.0000000000095761
    vertex 1160.2881385985472 188.46382605196777 1.0000000000095761
  endloop
endfacet
facet normal 7.1190661849231275e-16 8.686059673608797e-15 1.0
  outer loop
    vertex 1159.4033384049644 202.2165785754745 1.0000000000095761
    vertex 1160.2881385985472 188.46382605196777 1.0000000000095761
    vertex 1160.8810222234094 198.52704767116032 1.0000000000095761
  endloop
endfacet
facet normal 7.1190661849231275e-16 8.686059673608797e-15 1.0
  outer loop
    vertex 1160.8810222234094 198.52704767116032 1.0000000000095761
    vertex 1160.2881385985472 188.46382605196777 1.0000000000095761
    vertex 1161.1022222718072 191.1882528616332 1.0000000000095761
  endloop
endfacet
facet normal 7.1190661849231275e-16 8.686059673608797e-15 1.0
  outer loop
    vertex 1160.8810222234094 198.52704767116032 1.0000000000095761
    vertex 1161.1022222718072 191.1882528616332 1.0000000000095761
    vertex 1161.3735834962263 194.45586231441243 1.0000000000095761
  endloop
endfacet
facet normal 1.237825791107818e-15 -6.763479493025615e-15 1.0
  outer loop
    vertex 1105.8056872027905 177.36547410921315 1.0000000000183293
    vertex 1068.0059430103154 168.3174410616471 1.0000000000183293
    vertex 1068.0059430103154 160.8782472010277 1.0000000000183293
  endloop
endfacet
facet normal 1.237825791107818e-15 -6.763479493025615e-15 1.0
  outer loop
    vertex 1068.0059430103154 168.3174410616471 1.0000000000183293
    vertex 1105.8056872027905 177.36547410921315 1.0000000000183293
    vertex 1095.1884355314405 180.0926709427307 1.0000000000184195
  endloop
endfacet
facet normal 1.237825791107818e-15 -6.763479493025615e-15 1.0
  outer loop
    vertex 1095.1884355314405 180.0926709427307 1.0000000000184195
    vertex 1105.8056872027905 177.36547410921315 1.0000000000183293
    vertex 1105.8056872027905 180.0926709427307 1.0000000000184195
  endloop
endfacet
facet normal 0.40224350141664783 0.9155327222814461 -0.0
  outer loop
    vertex 1068.0059430103154 200.48747528454516 1.0000000000183293
    vertex 1105.8056872027905 183.8799842723771 0.6000000000182846
    vertex 1068.0059430103154 200.48747528454516 0.6000000000182846
  endloop
endfacet
facet normal 0.40224350141664783 0.9155327222814461 -0.0
  outer loop
    vertex 1105.8056872027905 183.8799842723771 0.6000000000182846
    vertex 1068.0059430103154 200.48747528454516 1.0000000000183293
    vertex 1105.8056872027905 183.8799842723771 1.0000000000183293
  endloop
endfacet
facet normal -2.4756515822156322e-15 1.3526958986051226e-14 -1.0
  outer loop
    vertex 1095.1884355314405 180.0926709427307 0.6000000000184651
    vertex 1068.0059430103154 160.8782472010277 0.6000000000182846
    vertex 1068.0059430103154 168.3174410616471 0.6000000000182846
  endloop
endfacet
facet normal -2.4756515822156322e-15 1.3526958986051226e-14 -1.0
  outer loop
    vertex 1068.0059430103154 160.8782472010277 0.6000000000182846
    vertex 1095.1884355314405 180.0926709427307 0.6000000000184651
    vertex 1105.8056872027905 177.36547410921315 0.6000000000182846
  endloop
endfacet
facet normal -2.4756515822156322e-15 1.3526958986051226e-14 -1.0
  outer loop
    vertex 1105.8056872027905 177.36547410921315 0.6000000000182846
    vertex 1095.1884355314405 180.0926709427307 0.6000000000184651
    vertex 1105.8056872027905 180.0926709427307 0.6000000000184651
  endloop
endfacet
facet normal 6.101851789459881e-15 3.347662209305382e-14 1.0
  outer loop
    vertex 1095.458671806833 181.19267094273118 1.0000000000187805
    vertex 1068.0059430103154 200.48747528454516 1.0000000000183293
    vertex 1068.0059430103154 193.0077843276866 1.0000000000183293
  endloop
endfacet
facet normal 6.101851789459881e-15 3.347662209305382e-14 1.0
  outer loop
    vertex 1068.0059430103154 200.48747528454516 1.0000000000183293
    vertex 1095.458671806833 181.19267094273118 1.0000000000187805
    vertex 1105.8056872027905 183.8799842723771 1.0000000000183293
  endloop
endfacet
facet normal 6.101851789459881e-15 3.347662209305382e-14 1.0
  outer loop
    vertex 1105.8056872027905 183.8799842723771 1.0000000000183293
    vertex 1095.458671806833 181.19267094273118 1.0000000000187805
    vertex 1105.8056872027905 181.19267094273118 1.0000000000187805
  endloop
endfacet
facet normal 0.0 -1.0 0.0
  outer loop
    vertex 1147.0584735681277 166.789596067178 1.0000000000095761
    vertex 1139.5382855150294 166.789596067178 0.6000000000096217
    vertex 1147.0584735681277 166.789596067178 0.6000000000096217
  endloop
endfacet
facet normal 0.0 -1.0 0.0
  outer loop
    vertex 1139.5382855150294 166.789596067178 0.6000000000096217
    vertex 1147.0584735681277 166.789596067178 1.0000000000095761
    vertex 1139.5382855150294 166.789596067178 1.0000000000095761
  endloop
endfacet
facet normal 0.0 1.3545873729791109e-14 -1.0
  outer loop
    vertex 1147.661515749965 180.0927566724574 1.0796241678434625e-11
    vertex 1155.7284928178842 146.7841162548694 1.0345047041226962e-11
    vertex 1140.1818247931078 180.0927566724574 1.0796241678434625e-11
  endloop
endfacet
facet normal 0.0 1.3545873729791109e-14 -1.0
  outer loop
    vertex 1155.7284928178842 146.7841162548694 1.0345047041226962e-11
    vertex 1147.661515749965 180.0927566724574 1.0796241678434625e-11
    vertex 1163.2081837747417 146.7841162548694 1.0345047041226962e-11
  endloop
endfacet
facet normal -0.0 1.0 -0.0
  outer loop
    vertex 1067.3217363881263 214.5013970900462 0.400000000019143
    vertex 1074.8014273449833 214.5013970900462 1.9098223003055637e-11
    vertex 1067.3217363881263 214.5013970900462 1.9098223003055637e-11
  endloop
endfacet
facet normal -0.0 1.0 -0.0
  outer loop
    vertex 1074.8014273449833 214.5013970900462 1.9098223003055637e-11
    vertex 1067.3217363881263 214.5013970900462 0.400000000019143
    vertex 1074.8014273449833 214.5013970900462 0.400000000019143
  endloop
endfacet
facet normal 1.0 -0.0 -0.0
  outer loop
    vertex 1105.8056872027905 180.0926709427307 0.6000000000184651
    vertex 1105.8056872027905 177.36547410921315 1.0000000000183293
    vertex 1105.8056872027905 177.36547410921315 0.6000000000182846
  endloop
endfacet
facet normal 1.0 -0.0 -0.0
  outer loop
    vertex 1105.8056872027905 177.36547410921315 1.0000000000183293
    vertex 1105.8056872027905 180.0926709427307 0.6000000000184651
    vertex 1105.8056872027905 180.0926709427307 1.0000000000184195
  endloop
endfacet
facet normal -0.402243501416622 -0.9155327222814573 -1.1000449265017105e-15
  outer loop
    vertex 1105.8043577526637 160.79795233064434 0.4000000000195039
    vertex 1068.0046135601854 177.40544334281236 1.9820134422587898e-11
    vertex 1105.8043577526637 160.79795233064434 1.9459178712821766e-11
  endloop
endfacet
facet normal -0.402243501416622 -0.9155327222814573 -1.1000449265017105e-15
  outer loop
    vertex 1068.0046135601854 177.40544334281236 1.9820134422587898e-11
    vertex 1105.8043577526637 160.79795233064434 0.4000000000195039
    vertex 1068.0046135601854 177.40544334281236 0.40000000001986485
  endloop
endfacet
facet normal 1.0 -0.0 -0.0
  outer loop
    vertex 1105.8043577526637 168.2776432875025 1.9639656567704832e-11
    vertex 1105.8043577526637 160.79795233064434 0.4000000000195039
    vertex 1105.8043577526637 160.79795233064434 1.9459178712821766e-11
  endloop
endfacet
facet normal 1.0 -0.0 -0.0
  outer loop
    vertex 1105.8043577526637 160.79795233064434 0.4000000000195039
    vertex 1105.8043577526637 168.2776432875025 1.9639656567704832e-11
    vertex 1105.8043577526637 168.2776432875025 0.4000000000196844
  endloop
endfacet
facet normal -0.1429300405127911 -0.9897327939999827 0.0
  outer loop
    vertex 1148.3450233641738 202.18114361626533 1.0000000000095761
    vertex 1144.2034282832833 202.77924277624857 0.6000000000096217
    vertex 1148.3450233641738 202.18114361626533 0.6000000000096217
  endloop
endfacet
facet normal -0.1429300405127911 -0.9897327939999827 0.0
  outer loop
    vertex 1144.2034282832833 202.77924277624857 0.6000000000096217
    vertex 1148.3450233641738 202.18114361626533 1.0000000000095761
    vertex 1144.2034282832833 202.77924277624857 1.0000000000095761
  endloop
endfacet
facet normal -0.9061556590129464 -0.4229443481580209 -1.3713260019865386e-15
  outer loop
    vertex 1067.3217363881263 214.5013970900462 0.400000000019143
    vertex 1082.8684044129027 181.19275667245785 1.8015355873757243e-11
    vertex 1082.8684044129027 181.19275667245785 0.4000000000180601
  endloop
endfacet
facet normal -0.9061556590129464 -0.4229443481580209 -1.3713260019865386e-15
  outer loop
    vertex 1082.8684044129027 181.19275667245785 1.8015355873757243e-11
    vertex 1067.3217363881263 214.5013970900462 0.400000000019143
    vertex 1067.3217363881263 214.5013970900462 1.9098223003055637e-11
  endloop
endfacet
facet normal 1.0 -0.0 -0.0
  outer loop
    vertex 1105.8056872027905 183.8799842723771 0.6000000000182846
    vertex 1105.8056872027905 181.19267094273118 1.0000000000187805
    vertex 1105.8056872027905 181.19267094273118 0.600000000018826
  endloop
endfacet
facet normal 1.0 -0.0 -0.0
  outer loop
    vertex 1105.8056872027905 181.19267094273118 1.0000000000187805
    vertex 1105.8056872027905 183.8799842723771 0.6000000000182846
    vertex 1105.8056872027905 183.8799842723771 1.0000000000183293
  endloop
endfacet
facet normal 4.9890381464399305e-15 8.295107412212314e-15 1.0
  outer loop
    vertex 1105.8043577526637 160.79795233064434 0.4000000000195039
    vertex 1068.0046135601854 180.0927566724581 0.4000000000195039
    vertex 1068.0046135601854 177.40544334281236 0.40000000001986485
  endloop
endfacet
facet normal 4.9890381464399305e-15 8.295107412212314e-15 1.0
  outer loop
    vertex 1068.0046135601854 180.0927566724581 0.4000000000195039
    vertex 1105.8043577526637 160.79795233064434 0.4000000000195039
    vertex 1078.351628956145 180.0927566724581 0.4000000000195039
  endloop
endfacet
facet normal 4.9890381464399305e-15 8.295107412212314e-15 1.0
  outer loop
    vertex 1078.351628956145 180.0927566724581 0.4000000000195039
    vertex 1105.8043577526637 160.79795233064434 0.4000000000195039
    vertex 1105.8043577526637 168.2776432875025 0.4000000000196844
  endloop
endfacet
facet normal 0.952167086840015 -0.3055778767165571 -0.0
  outer loop
    vertex 1148.0435961137587 174.02753163133727 0.6000000000096217
    vertex 1147.3047542045363 171.72533306939042 1.0000000000095761
    vertex 1147.3047542045363 171.72533306939042 0.6000000000096217
  endloop
endfacet
facet normal 0.952167086840015 -0.3055778767165571 -0.0
  outer loop
    vertex 1147.3047542045363 171.72533306939042 1.0000000000095761
    vertex 1148.0435961137587 174.02753163133727 0.6000000000096217
    vertex 1148.0435961137587 174.02753163133727 1.0000000000095761
  endloop
endfacet
facet normal -0.0 1.0 -0.0
  outer loop
    vertex 1068.0046135601854 180.0927566724581 0.4000000000195039
    vertex 1078.351628956145 180.0927566724581 1.9459178712821766e-11
    vertex 1068.0046135601854 180.0927566724581 1.9459178712821766e-11
  endloop
endfacet
facet normal -0.0 1.0 -0.0
  outer loop
    vertex 1078.351628956145 180.0927566724581 1.9459178712821766e-11
    vertex 1068.0046135601854 180.0927566724581 0.4000000000195039
    vertex 1078.351628956145 180.0927566724581 0.4000000000195039
  endloop
endfacet
facet normal 0.39532253378065224 0.9185423747902137 -3.0449932802093554e-15
  outer loop
    vertex 1078.351628956145 180.0927566724581 0.4000000000195039
    vertex 1105.8043577526637 168.2776432875025 1.9639656567704832e-11
    vertex 1078.351628956145 180.0927566724581 1.9459178712821766e-11
  endloop
endfacet
facet normal 0.39532253378065224 0.9185423747902137 -3.0449932802093554e-15
  outer loop
    vertex 1105.8043577526637 168.2776432875025 1.9639656567704832e-11
    vertex 1078.351628956145 180.0927566724581 0.4000000000195039
    vertex 1105.8043577526637 168.2776432875025 0.4000000000196844
  endloop
endfacet
facet normal -7.322222147351838e-15 -4.017194651166455e-14 -1.0
  outer loop
    vertex 1105.8056872027905 183.8799842723771 0.6000000000182846
    vertex 1068.0059430103154 193.0077843276866 0.6000000000182846
    vertex 1068.0059430103154 200.48747528454516 0.6000000000182846
  endloop
endfacet
facet normal -7.322222147351838e-15 -4.017194651166455e-14 -1.0
  outer loop
    vertex 1068.0059430103154 193.0077843276866 0.6000000000182846
    vertex 1105.8056872027905 183.8799842723771 0.6000000000182846
    vertex 1095.458671806833 181.19267094273118 0.600000000018826
  endloop
endfacet
facet normal -7.322222147351838e-15 -4.017194651166455e-14 -1.0
  outer loop
    vertex 1095.458671806833 181.19267094273118 0.600000000018826
    vertex 1105.8056872027905 183.8799842723771 0.6000000000182846
    vertex 1105.8056872027905 181.19267094273118 0.600000000018826
  endloop
endfacet
facet normal 0.82093295169333 -0.5710245956384689 -0.0
  outer loop
    vertex 1150.6170025020333 177.72718680971127 0.6000000000096217
    vertex 1148.0435961137587 174.02753163133727 1.0000000000095761
    vertex 1148.0435961137587 174.02753163133727 0.6000000000096217
  endloop
endfacet
facet normal 0.82093295169333 -0.5710245956384689 -0.0
  outer loop
    vertex 1148.0435961137587 174.02753163133727 1.0000000000095761
    vertex 1150.6170025020333 177.72718680971127 0.6000000000096217
    vertex 1150.6170025020333 177.72718680971127 1.0000000000095761
  endloop
endfacet
facet normal -1.0 0.0 0.0
  outer loop
    vertex 1068.0059430103154 200.48747528454516 1.0000000000183293
    vertex 1068.0059430103154 193.0077843276866 0.6000000000182846
    vertex 1068.0059430103154 193.0077843276866 1.0000000000183293
  endloop
endfacet
facet normal -1.0 0.0 0.0
  outer loop
    vertex 1068.0059430103154 193.0077843276866 0.6000000000182846
    vertex 1068.0059430103154 200.48747528454516 1.0000000000183293
    vertex 1068.0059430103154 200.48747528454516 0.6000000000182846
  endloop
endfacet
facet normal -0.3953225337806559 -0.9185423747902121 -3.234865830531611e-16
  outer loop
    vertex 1095.458671806833 181.19267094273118 0.600000000018826
    vertex 1068.0059430103154 193.0077843276866 1.0000000000183293
    vertex 1068.0059430103154 193.0077843276866 0.6000000000182846
  endloop
endfacet
facet normal -0.3953225337806559 -0.9185423747902121 -3.234865830531611e-16
  outer loop
    vertex 1068.0059430103154 193.0077843276866 1.0000000000183293
    vertex 1095.458671806833 181.19267094273118 0.600000000018826
    vertex 1095.458671806833 181.19267094273118 1.0000000000187805
  endloop
endfacet
facet normal 1.0 -0.0 -0.0
  outer loop
    vertex 1147.0584735681277 169.00098295877098 0.6000000000096217
    vertex 1147.0584735681277 166.789596067178 1.0000000000095761
    vertex 1147.0584735681277 166.789596067178 0.6000000000096217
  endloop
endfacet
facet normal 1.0 -0.0 -0.0
  outer loop
    vertex 1147.0584735681277 166.789596067178 1.0000000000095761
    vertex 1147.0584735681277 169.00098295877098 0.6000000000096217
    vertex 1147.0584735681277 169.00098295877098 1.0000000000095761
  endloop
endfacet
facet normal 0.15341147116895062 -0.9881623958205343 0.0
  outer loop
    vertex 1144.2034282832833 202.77924277624857 1.0000000000095761
    vertex 1139.573797173285 202.06049601705354 0.6000000000096217
    vertex 1144.2034282832833 202.77924277624857 0.6000000000096217
  endloop
endfacet
facet normal 0.15341147116895062 -0.9881623958205343 0.0
  outer loop
    vertex 1139.573797173285 202.06049601705354 0.6000000000096217
    vertex 1144.2034282832833 202.77924277624857 1.0000000000095761
    vertex 1139.573797173285 202.06049601705354 1.0000000000095761
  endloop
endfacet
facet normal -0.9935036957121571 0.11379985327884123 0.0
  outer loop
    vertex 1126.625387544207 197.27531924195682 1.0000000000095761
    vertex 1126.067478684278 192.40462303067352 0.6000000000096217
    vertex 1126.067478684278 192.40462303067352 1.0000000000095761
  endloop
endfacet
facet normal -0.9935036957121571 0.11379985327884123 0.0
  outer loop
    vertex 1126.067478684278 192.40462303067352 0.6000000000096217
    vertex 1126.625387544207 197.27531924195682 1.0000000000095761
    vertex 1126.625387544207 197.27531924195682 0.6000000000096217
  endloop
endfacet
facet normal -0.0 -3.2510096951498314e-14 1.0
  outer loop
    vertex 1082.8684044129027 181.19275667245785 0.4000000000180601
    vertex 1074.8014273449833 214.5013970900462 0.400000000019143
    vertex 1067.3217363881263 214.5013970900462 0.400000000019143
  endloop
endfacet
facet normal -0.0 -3.2510096951498314e-14 1.0
  outer loop
    vertex 1074.8014273449833 214.5013970900462 0.400000000019143
    vertex 1082.8684044129027 181.19275667245785 0.4000000000180601
    vertex 1090.3480953697601 181.19275667245785 0.4000000000180601
  endloop
endfacet
facet normal -0.8751102455091923 0.4839236078192935 0.0
  outer loop
    vertex 1153.3415827097906 191.34924415899215 1.0000000000095761
    vertex 1151.9239542442897 188.78565524859405 0.6000000000096217
    vertex 1151.9239542442897 188.78565524859405 1.0000000000095761
  endloop
endfacet
facet normal -0.8751102455091923 0.4839236078192935 0.0
  outer loop
    vertex 1151.9239542442897 188.78565524859405 0.6000000000096217
    vertex 1153.3415827097906 191.34924415899215 1.0000000000095761
    vertex 1153.3415827097906 191.34924415899215 0.6000000000096217
  endloop
endfacet
facet normal -0.34725260482314985 0.9377716291526085 -0.0
  outer loop
    vertex 1134.6123659906955 207.6250884966578 1.0000000000095761
    vertex 1139.0509397773378 209.26867235140088 0.6000000000096217
    vertex 1134.6123659906955 207.6250884966578 0.6000000000096217
  endloop
endfacet
facet normal -0.34725260482314985 0.9377716291526085 -0.0
  outer loop
    vertex 1139.0509397773378 209.26867235140088 0.6000000000096217
    vertex 1134.6123659906955 207.6250884966578 1.0000000000095761
    vertex 1139.0509397773378 209.26867235140088 1.0000000000095761
  endloop
endfacet
facet normal -1.0 0.0 0.0
  outer loop
    vertex 1139.5382855150294 169.0414800550099 1.0000000000095761
    vertex 1139.5382855150294 166.789596067178 0.6000000000096217
    vertex 1139.5382855150294 166.789596067178 1.0000000000095761
  endloop
endfacet
facet normal -1.0 0.0 0.0
  outer loop
    vertex 1139.5382855150294 166.789596067178 0.6000000000096217
    vertex 1139.5382855150294 169.0414800550099 1.0000000000095761
    vertex 1139.5382855150294 169.0414800550099 0.6000000000096217
  endloop
endfacet
facet normal -0.7103561985327027 0.7038423624691593 0.0
  outer loop
    vertex 1151.9239542442897 188.78565524859405 1.0000000000095761
    vertex 1147.5812542650292 184.40276496927996 0.6000000000096217
    vertex 1147.5812542650292 184.40276496927996 1.0000000000095761
  endloop
endfacet
facet normal -0.7103561985327027 0.7038423624691593 0.0
  outer loop
    vertex 1147.5812542650292 184.40276496927996 0.6000000000096217
    vertex 1151.9239542442897 188.78565524859405 1.0000000000095761
    vertex 1151.9239542442897 188.78565524859405 0.6000000000096217
  endloop
endfacet
facet normal -0.5112909609791132 -0.859407675798311 0.0
  outer loop
    vertex 1151.3609832473326 200.38684613631526 1.0000000000095761
    vertex 1148.3450233641738 202.18114361626533 0.6000000000096217
    vertex 1151.3609832473326 200.38684613631526 0.6000000000096217
  endloop
endfacet
facet normal -0.5112909609791132 -0.859407675798311 0.0
  outer loop
    vertex 1148.3450233641738 202.18114361626533 0.6000000000096217
    vertex 1151.3609832473326 200.38684613631526 1.0000000000095761
    vertex 1148.3450233641738 202.18114361626533 1.0000000000095761
  endloop
endfacet
facet normal -0.830666320936137 0.5567705660884227 0.0
  outer loop
    vertex 1139.176879610716 161.09944724942355 1.0000000000095761
    vertex 1137.9403375926026 159.25460509822054 0.6000000000096217
    vertex 1137.9403375926026 159.25460509822054 1.0000000000095761
  endloop
endfacet
facet normal -0.830666320936137 0.5567705660884227 0.0
  outer loop
    vertex 1137.9403375926026 159.25460509822054 0.6000000000096217
    vertex 1139.176879610716 161.09944724942355 1.0000000000095761
    vertex 1139.176879610716 161.09944724942355 0.6000000000096217
  endloop
endfacet
facet normal 0.5318495417827616 -0.8468388659629804 0.0
  outer loop
    vertex 1139.573797173285 202.06049601705354 1.0000000000095761
    vertex 1136.140517781347 199.90425573946777 0.6000000000096217
    vertex 1139.573797173285 202.06049601705354 0.6000000000096217
  endloop
endfacet
facet normal 0.5318495417827616 -0.8468388659629804 0.0
  outer loop
    vertex 1136.140517781347 199.90425573946777 0.6000000000096217
    vertex 1139.573797173285 202.06049601705354 1.0000000000095761
    vertex 1136.140517781347 199.90425573946777 1.0000000000095761
  endloop
endfacet
facet normal 0.0 -1.0 0.0
  outer loop
    vertex 1154.32090484188 181.19267094273118 1.0000000000101177
    vertex 1144.2653950680892 181.19267094273118 0.6000000000101631
    vertex 1154.32090484188 181.19267094273118 0.6000000000101631
  endloop
endfacet
facet normal 0.0 -1.0 0.0
  outer loop
    vertex 1144.2653950680892 181.19267094273118 0.6000000000101631
    vertex 1154.32090484188 181.19267094273118 1.0000000000101177
    vertex 1144.2653950680892 181.19267094273118 1.0000000000101177
  endloop
endfacet
facet normal -0.9891856884809872 0.1466685845857781 0.0
  outer loop
    vertex 1153.8141255316225 194.5362429145232 1.0000000000095761
    vertex 1153.3415827097906 191.34924415899215 0.6000000000096217
    vertex 1153.3415827097906 191.34924415899215 1.0000000000095761
  endloop
endfacet
facet normal -0.9891856884809872 0.1466685845857781 0.0
  outer loop
    vertex 1153.3415827097906 191.34924415899215 0.6000000000096217
    vertex 1153.8141255316225 194.5362429145232 1.0000000000095761
    vertex 1153.8141255316225 194.5362429145232 0.6000000000096217
  endloop
endfacet
facet normal -0.6955554628625034 0.7184724059295031 -4.201765111723715e-16
  outer loop
    vertex 1144.2653950680892 181.19267094273118 0.6000000000101631
    vertex 1147.5812542650292 184.40276496927996 1.0000000000095761
    vertex 1147.5812542650292 184.40276496927996 0.6000000000096217
  endloop
endfacet
facet normal -0.6955554628625034 0.7184724059295031 -4.201765111723715e-16
  outer loop
    vertex 1147.5812542650292 184.40276496927996 1.0000000000095761
    vertex 1144.2653950680892 181.19267094273118 0.6000000000101631
    vertex 1144.2653950680892 181.19267094273118 1.0000000000101177
  endloop
endfacet
facet normal 0.841533470216994 -0.5402049782300642 -0.0
  outer loop
    vertex 1136.140517781347 199.90425573946777 0.6000000000096217
    vertex 1134.0141901316654 196.59185404387875 1.0000000000095761
    vertex 1134.0141901316654 196.59185404387875 0.6000000000096217
  endloop
endfacet
facet normal 0.841533470216994 -0.5402049782300642 -0.0
  outer loop
    vertex 1134.0141901316654 196.59185404387875 1.0000000000095761
    vertex 1136.140517781347 199.90425573946777 0.6000000000096217
    vertex 1136.140517781347 199.90425573946777 1.0000000000095761
  endloop
endfacet
facet normal -0.7914529717862744 0.6112300658922749 0.0
  outer loop
    vertex 1130.993244810524 205.00129083522282 1.0000000000095761
    vertex 1128.2991141239904 201.512788130231 0.6000000000096217
    vertex 1128.2991141239904 201.512788130231 1.0000000000095761
  endloop
endfacet
facet normal -0.7914529717862744 0.6112300658922749 0.0
  outer loop
    vertex 1128.2991141239904 201.512788130231 0.6000000000096217
    vertex 1130.993244810524 205.00129083522282 1.0000000000095761
    vertex 1130.993244810524 205.00129083522282 0.6000000000096217
  endloop
endfacet
facet normal -0.9300771297924145 0.3673643050666523 0.0
  outer loop
    vertex 1128.2991141239904 201.512788130231 1.0000000000095761
    vertex 1126.625387544207 197.27531924195682 0.6000000000096217
    vertex 1126.625387544207 197.27531924195682 1.0000000000095761
  endloop
endfacet
facet normal -0.9300771297924145 0.3673643050666523 0.0
  outer loop
    vertex 1126.625387544207 197.27531924195682 0.6000000000096217
    vertex 1128.2991141239904 201.512788130231 1.0000000000095761
    vertex 1128.2991141239904 201.512788130231 0.6000000000096217
  endloop
endfacet
facet normal 0.09959075750796816 0.9950284825164499 -0.0
  outer loop
    vertex 1144.2034282832833 209.81653363631506 1.0000000000095761
    vertex 1149.3254672680046 209.3038772134721 0.6000000000096217
    vertex 1144.2034282832833 209.81653363631506 0.6000000000096217
  endloop
endfacet
facet normal 0.09959075750796816 0.9950284825164499 -0.0
  outer loop
    vertex 1149.3254672680046 209.3038772134721 0.6000000000096217
    vertex 1144.2034282832833 209.81653363631506 1.0000000000095761
    vertex 1149.3254672680046 209.3038772134721 1.0000000000095761
  endloop
endfacet
facet normal -0.586958011862566 0.8096173740170994 -0.0
  outer loop
    vertex 1130.993244810524 205.00129083522282 1.0000000000095761
    vertex 1134.6123659906955 207.6250884966578 0.6000000000096217
    vertex 1130.993244810524 205.00129083522282 0.6000000000096217
  endloop
endfacet
facet normal -0.586958011862566 0.8096173740170994 -0.0
  outer loop
    vertex 1134.6123659906955 207.6250884966578 0.6000000000096217
    vertex 1130.993244810524 205.00129083522282 1.0000000000095761
    vertex 1134.6123659906955 207.6250884966578 1.0000000000095761
  endloop
endfacet
facet normal 0.0 0.0 -1.0
  outer loop
    vertex 1143.3874309753958 180.0926709427307 0.6000000000096217
    vertex 1147.3047542045363 171.72533306939042 0.6000000000096217
    vertex 1147.0584735681277 169.00098295877098 0.6000000000096217
  endloop
endfacet
facet normal 0.0 0.0 -1.0
  outer loop
    vertex 1147.3047542045363 171.72533306939042 0.6000000000096217
    vertex 1143.3874309753958 180.0926709427307 0.6000000000096217
    vertex 1148.0435961137587 174.02753163133727 0.6000000000096217
  endloop
endfacet
facet normal 0.0 0.0 -1.0
  outer loop
    vertex 1148.0435961137587 174.02753163133727 0.6000000000096217
    vertex 1143.3874309753958 180.0926709427307 0.6000000000096217
    vertex 1150.6170025020333 177.72718680971127 0.6000000000096217
  endloop
endfacet
facet normal 0.0 0.0 -1.0
  outer loop
    vertex 1150.6170025020333 177.72718680971127 0.6000000000096217
    vertex 1143.3874309753958 180.0926709427307 0.6000000000096217
    vertex 1153.1512321592534 180.0926709427307 0.6000000000096217
  endloop
endfacet
facet normal 0.0 0.0 -1.0
  outer loop
    vertex 1139.8399428625814 172.81614690028078 0.6000000000096217
    vertex 1139.5382855150294 166.789596067178 0.6000000000096217
    vertex 1139.5382855150294 169.0414800550099 0.6000000000096217
  endloop
endfacet
facet normal 0.0 0.0 -1.0
  outer loop
    vertex 1139.5382855150294 166.789596067178 0.6000000000096217
    vertex 1139.8399428625814 172.81614690028078 0.6000000000096217
    vertex 1147.0584735681277 166.789596067178 0.6000000000096217
  endloop
endfacet
facet normal 0.0 0.0 -1.0
  outer loop
    vertex 1147.0584735681277 166.789596067178 0.6000000000096217
    vertex 1139.8399428625814 172.81614690028078 0.6000000000096217
    vertex 1140.7449149052406 175.93764467060717 0.6000000000096217
  endloop
endfacet
facet normal 0.0 0.0 -1.0
  outer loop
    vertex 1147.0584735681277 166.789596067178 0.6000000000096217
    vertex 1140.7449149052406 175.93764467060717 0.6000000000096217
    vertex 1143.3874309753958 180.0926709427307 0.6000000000096217
  endloop
endfacet
facet normal 0.0 0.0 -1.0
  outer loop
    vertex 1147.0584735681277 166.789596067178 0.6000000000096217
    vertex 1143.3874309753958 180.0926709427307 0.6000000000096217
    vertex 1147.0584735681277 169.00098295877098 0.6000000000096217
  endloop
endfacet
facet normal -0.10573342448509751 0.9943945107182834 -0.0
  outer loop
    vertex 1139.0509397773378 209.26867235140088 1.0000000000095761
    vertex 1144.2034282832833 209.81653363631506 0.6000000000096217
    vertex 1139.0509397773378 209.26867235140088 0.6000000000096217
  endloop
endfacet
facet normal -0.10573342448509751 0.9943945107182834 -0.0
  outer loop
    vertex 1144.2034282832833 209.81653363631506 0.6000000000096217
    vertex 1139.0509397773378 209.26867235140088 1.0000000000095761
    vertex 1144.2034282832833 209.81653363631506 1.0000000000095761
  endloop
endfacet
facet normal 0.9859743935867709 -0.16689666021583385 -0.0
  outer loop
    vertex 1134.0141901316654 196.59185404387875 0.6000000000096217
    vertex 1133.3054142484357 192.40462303067352 1.0000000000095761
    vertex 1133.3054142484357 192.40462303067352 0.6000000000096217
  endloop
endfacet
facet normal 0.9859743935867709 -0.16689666021583385 -0.0
  outer loop
    vertex 1133.3054142484357 192.40462303067352 1.0000000000095761
    vertex 1134.0141901316654 196.59185404387875 0.6000000000096217
    vertex 1134.0141901316654 196.59185404387875 1.0000000000095761
  endloop
endfacet
facet normal 0.9959388148450784 -0.0900326445517454 -0.0
  outer loop
    vertex 1147.3047542045363 171.72533306939042 0.6000000000096217
    vertex 1147.0584735681277 169.00098295877098 1.0000000000095761
    vertex 1147.0584735681277 169.00098295877098 0.6000000000096217
  endloop
endfacet
facet normal 0.9959388148450784 -0.0900326445517454 -0.0
  outer loop
    vertex 1147.0584735681277 169.00098295877098 1.0000000000095761
    vertex 1147.3047542045363 171.72533306939042 0.6000000000096217
    vertex 1147.3047542045363 171.72533306939042 1.0000000000095761
  endloop
endfacet
facet normal 0.18681310900669043 -0.9823954714386943 0.0
  outer loop
    vertex 1145.4848392432525 151.8960219348495 1.0000000000095761
    vertex 1143.2382474895892 151.46880824914712 0.6000000000096217
    vertex 1145.4848392432525 151.8960219348495 0.6000000000096217
  endloop
endfacet
facet normal 0.18681310900669043 -0.9823954714386943 0.0
  outer loop
    vertex 1143.2382474895892 151.46880824914712 0.6000000000096217
    vertex 1145.4848392432525 151.8960219348495 1.0000000000095761
    vertex 1143.2382474895892 151.46880824914712 1.0000000000095761
  endloop
endfacet
facet normal 0.0 -1.0 0.0
  outer loop
    vertex 1133.3054142484357 192.40462303067352 1.0000000000095761
    vertex 1126.067478684278 192.40462303067352 0.6000000000096217
    vertex 1133.3054142484357 192.40462303067352 0.6000000000096217
  endloop
endfacet
facet normal 0.0 -1.0 0.0
  outer loop
    vertex 1126.067478684278 192.40462303067352 0.6000000000096217
    vertex 1133.3054142484357 192.40462303067352 1.0000000000095761
    vertex 1126.067478684278 192.40462303067352 1.0000000000095761
  endloop
endfacet
facet normal -0.9820357231265724 -0.18869509400954235 0.0
  outer loop
    vertex 1153.20083996055 197.72799701090042 1.0000000000095761
    vertex 1153.8141255316225 194.5362429145232 0.6000000000096217
    vertex 1153.8141255316225 194.5362429145232 1.0000000000095761
  endloop
endfacet
facet normal -0.9820357231265724 -0.18869509400954235 0.0
  outer loop
    vertex 1153.8141255316225 194.5362429145232 0.6000000000096217
    vertex 1153.20083996055 197.72799701090042 1.0000000000095761
    vertex 1153.20083996055 197.72799701090042 0.6000000000096217
  endloop
endfacet
facet normal 0.5726639551421161 -0.819790213701645 0.0
  outer loop
    vertex 1147.319557120396 153.17766299195694 1.0000000000095761
    vertex 1145.4848392432525 151.8960219348495 0.6000000000096217
    vertex 1147.319557120396 153.17766299195694 0.6000000000096217
  endloop
endfacet
facet normal 0.5726639551421161 -0.819790213701645 0.0
  outer loop
    vertex 1145.4848392432525 151.8960219348495 0.6000000000096217
    vertex 1147.319557120396 153.17766299195694 1.0000000000095761
    vertex 1145.4848392432525 151.8960219348495 1.0000000000095761
  endloop
endfacet
facet normal -0.8223202654835469 -0.5690249387988802 0.0
  outer loop
    vertex 1151.3609832473326 200.38684613631526 1.0000000000095761
    vertex 1153.20083996055 197.72799701090042 0.6000000000096217
    vertex 1153.20083996055 197.72799701090042 1.0000000000095761
  endloop
endfacet
facet normal -0.8223202654835469 -0.5690249387988802 0.0
  outer loop
    vertex 1153.20083996055 197.72799701090042 0.6000000000096217
    vertex 1151.3609832473326 200.38684613631526 1.0000000000095761
    vertex 1151.3609832473326 200.38684613631526 0.6000000000096217
  endloop
endfacet
facet normal -0.9061556590129445 -0.4229443481580246 6.742051317429856e-16
  outer loop
    vertex 1140.1818247931078 180.0927566724574 0.40000000001084096
    vertex 1155.7284928178842 146.7841162548694 1.0345047041226962e-11
    vertex 1155.7284928178842 146.7841162548694 0.40000000001048003
  endloop
endfacet
facet normal -0.9061556590129445 -0.4229443481580246 6.742051317429856e-16
  outer loop
    vertex 1155.7284928178842 146.7841162548694 1.0345047041226962e-11
    vertex 1140.1818247931078 180.0927566724574 0.40000000001084096
    vertex 1140.1818247931078 180.0927566724574 1.0796241678434625e-11
  endloop
endfacet
facet normal 0.0 0.0 -1.0
  outer loop
    vertex 1137.9403375926026 159.25460509822054 0.6000000000096217
    vertex 1137.9403375926026 155.02227504602192 0.6000000000096217
    vertex 1137.5281569198974 157.13840172259833 0.6000000000096217
  endloop
endfacet
facet normal 0.0 0.0 -1.0
  outer loop
    vertex 1137.9403375926026 155.02227504602192 0.6000000000096217
    vertex 1137.9403375926026 159.25460509822054 0.6000000000096217
    vertex 1139.176879610716 161.09944724942355 0.6000000000096217
  endloop
endfacet
facet normal 0.0 0.0 -1.0
  outer loop
    vertex 1137.9403375926026 155.02227504602192 0.6000000000096217
    vertex 1139.176879610716 161.09944724942355 0.6000000000096217
    vertex 1139.176879610716 153.17766299195694 0.6000000000096217
  endloop
endfacet
facet normal 0.0 0.0 -1.0
  outer loop
    vertex 1139.176879610716 153.17766299195694 0.6000000000096217
    vertex 1139.176879610716 161.09944724942355 0.6000000000096217
    vertex 1141.0165829258422 162.3813184036685 0.6000000000096217
  endloop
endfacet
facet normal 0.0 0.0 -1.0
  outer loop
    vertex 1139.176879610716 153.17766299195694 0.6000000000096217
    vertex 1141.0165829258422 162.3813184036685 0.6000000000096217
    vertex 1141.0165829258422 151.8960219348495 0.6000000000096217
  endloop
endfacet
facet normal 0.0 0.0 -1.0
  outer loop
    vertex 1141.0165829258422 151.8960219348495 0.6000000000096217
    vertex 1141.0165829258422 162.3813184036685 0.6000000000096217
    vertex 1143.2382474895892 162.80860878841688 0.6000000000096217
  endloop
endfacet
facet normal 0.0 0.0 -1.0
  outer loop
    vertex 1141.0165829258422 151.8960219348495 0.6000000000096217
    vertex 1143.2382474895892 162.80860878841688 0.6000000000096217
    vertex 1143.2382474895892 151.46880824914712 0.6000000000096217
  endloop
endfacet
facet normal 0.0 0.0 -1.0
  outer loop
    vertex 1143.2382474895892 151.46880824914712 0.6000000000096217
    vertex 1143.2382474895892 162.80860878841688 0.6000000000096217
    vertex 1145.4848392432525 162.3813184036685 0.6000000000096217
  endloop
endfacet
facet normal 0.0 0.0 -1.0
  outer loop
    vertex 1143.2382474895892 151.46880824914712 0.6000000000096217
    vertex 1145.4848392432525 162.3813184036685 0.6000000000096217
    vertex 1145.4848392432525 151.8960219348495 0.6000000000096217
  endloop
endfacet
facet normal 0.0 0.0 -1.0
  outer loop
    vertex 1145.4848392432525 151.8960219348495 0.6000000000096217
    vertex 1145.4848392432525 162.3813184036685 0.6000000000096217
    vertex 1147.319557120396 161.09944724942355 0.6000000000096217
  endloop
endfacet
facet normal 0.0 0.0 -1.0
  outer loop
    vertex 1145.4848392432525 151.8960219348495 0.6000000000096217
    vertex 1147.319557120396 161.09944724942355 0.6000000000096217
    vertex 1147.319557120396 153.17766299195694 0.6000000000096217
  endloop
endfacet
facet normal 0.0 0.0 -1.0
  outer loop
    vertex 1147.319557120396 153.17766299195694 0.6000000000096217
    vertex 1147.319557120396 161.09944724942355 0.6000000000096217
    vertex 1148.5411428245582 159.25460509822054 0.6000000000096217
  endloop
endfacet
facet normal 0.0 0.0 -1.0
  outer loop
    vertex 1147.319557120396 153.17766299195694 0.6000000000096217
    vertex 1148.5411428245582 159.25460509822054 0.6000000000096217
    vertex 1148.5411428245582 155.02227504602192 0.6000000000096217
  endloop
endfacet
facet normal 0.0 0.0 -1.0
  outer loop
    vertex 1148.5411428245582 155.02227504602192 0.6000000000096217
    vertex 1148.5411428245582 159.25460509822054 0.6000000000096217
    vertex 1148.948338059278 157.13840172259833 0.6000000000096217
  endloop
endfacet
facet normal -0.5716887065245942 0.8204706105840942 -0.0
  outer loop
    vertex 1139.176879610716 161.09944724942355 1.0000000000095761
    vertex 1141.0165829258422 162.3813184036685 0.6000000000096217
    vertex 1139.176879610716 161.09944724942355 0.6000000000096217
  endloop
endfacet
facet normal -0.5716887065245942 0.8204706105840942 -0.0
  outer loop
    vertex 1141.0165829258422 162.3813184036685 0.6000000000096217
    vertex 1139.176879610716 161.09944724942355 1.0000000000095761
    vertex 1141.0165829258422 162.3813184036685 1.0000000000095761
  endloop
endfacet
facet normal -0.0 1.0 -0.0
  outer loop
    vertex 1140.1818247931078 180.0927566724574 0.40000000001084096
    vertex 1147.661515749965 180.0927566724574 1.0796241678434625e-11
    vertex 1140.1818247931078 180.0927566724574 1.0796241678434625e-11
  endloop
endfacet
facet normal -0.0 1.0 -0.0
  outer loop
    vertex 1147.661515749965 180.0927566724574 1.0796241678434625e-11
    vertex 1140.1818247931078 180.0927566724574 0.40000000001084096
    vertex 1147.661515749965 180.0927566724574 0.40000000001084096
  endloop
endfacet
facet normal -0.0 1.0 -0.0
  outer loop
    vertex 1143.3874309753958 180.0926709427307 1.0000000000097566
    vertex 1153.1512321592534 180.0926709427307 0.6000000000096217
    vertex 1143.3874309753958 180.0926709427307 0.6000000000096217
  endloop
endfacet
facet normal -0.0 1.0 -0.0
  outer loop
    vertex 1153.1512321592534 180.0926709427307 0.6000000000096217
    vertex 1143.3874309753958 180.0926709427307 1.0000000000097566
    vertex 1153.1512321592534 180.0926709427307 1.0000000000097566
  endloop
endfacet
facet normal 0.8337477432838165 -0.5521455429224646 -0.0
  outer loop
    vertex 1148.5411428245582 155.02227504602192 0.6000000000096217
    vertex 1147.319557120396 153.17766299195694 1.0000000000095761
    vertex 1147.319557120396 153.17766299195694 0.6000000000096217
  endloop
endfacet
facet normal 0.8337477432838165 -0.5521455429224646 -0.0
  outer loop
    vertex 1147.319557120396 153.17766299195694 1.0000000000095761
    vertex 1148.5411428245582 155.02227504602192 0.6000000000096217
    vertex 1148.5411428245582 155.02227504602192 1.0000000000095761
  endloop
endfacet
facet normal -0.8438078539613025 0.5366454188691276 5.3129741597378225e-17
  outer loop
    vertex 1143.3874309753958 180.0926709427307 1.0000000000097566
    vertex 1140.7449149052406 175.93764467060717 0.6000000000096217
    vertex 1140.7449149052406 175.93764467060717 1.0000000000095761
  endloop
endfacet
facet normal -0.8438078539613025 0.5366454188691276 5.3129741597378225e-17
  outer loop
    vertex 1140.7449149052406 175.93764467060717 0.6000000000096217
    vertex 1143.3874309753958 180.0926709427307 1.0000000000097566
    vertex 1143.3874309753958 180.0926709427307 0.6000000000096217
  endloop
endfacet
facet normal -0.9815534960067782 -0.1911876943656982 0.0
  outer loop
    vertex 1137.5281569198974 157.13840172259833 1.0000000000095761
    vertex 1137.9403375926026 155.02227504602192 0.6000000000096217
    vertex 1137.9403375926026 155.02227504602192 1.0000000000095761
  endloop
endfacet
facet normal -0.9815534960067782 -0.1911876943656982 0.0
  outer loop
    vertex 1137.9403375926026 155.02227504602192 0.6000000000096217
    vertex 1137.5281569198974 157.13840172259833 1.0000000000095761
    vertex 1137.5281569198974 157.13840172259833 0.6000000000096217
  endloop
endfacet
facet normal 0.7895860738885677 0.6136398226331448 -0.0
  outer loop
    vertex 1156.9656126288994 205.35326275689036 0.6000000000096217
    vertex 1159.4033384049644 202.2165785754745 1.0000000000095761
    vertex 1159.4033384049644 202.2165785754745 0.6000000000096217
  endloop
endfacet
facet normal 0.7895860738885677 0.6136398226331448 -0.0
  outer loop
    vertex 1159.4033384049644 202.2165785754745 1.0000000000095761
    vertex 1156.9656126288994 205.35326275689036 0.6000000000096217
    vertex 1156.9656126288994 205.35326275689036 1.0000000000095761
  endloop
endfacet
facet normal 0.9965694322624544 -0.08276090067229477 -0.0
  outer loop
    vertex 1161.3735834962263 194.45586231441243 0.6000000000096217
    vertex 1161.1022222718072 191.1882528616332 1.0000000000095761
    vertex 1161.1022222718072 191.1882528616332 0.6000000000096217
  endloop
endfacet
facet normal 0.9965694322624544 -0.08276090067229477 -0.0
  outer loop
    vertex 1161.1022222718072 191.1882528616332 1.0000000000095761
    vertex 1161.3735834962263 194.45586231441243 0.6000000000096217
    vertex 1161.3735834962263 194.45586231441243 1.0000000000095761
  endloop
endfacet
facet normal 0.9581397487556049 -0.28630092883982505 -0.0
  outer loop
    vertex 1161.1022222718072 191.1882528616332 0.6000000000096217
    vertex 1160.2881385985472 188.46382605196777 1.0000000000095761
    vertex 1160.2881385985472 188.46382605196777 0.6000000000096217
  endloop
endfacet
facet normal 0.9581397487556049 -0.28630092883982505 -0.0
  outer loop
    vertex 1160.2881385985472 188.46382605196777 1.0000000000095761
    vertex 1161.1022222718072 191.1882528616332 0.6000000000096217
    vertex 1161.1022222718072 191.1882528616332 1.0000000000095761
  endloop
endfacet
facet normal 0.581810176327131 0.813324608457283 -0.0
  outer loop
    vertex 1153.5929254832274 207.76590794494345 1.0000000000095761
    vertex 1156.9656126288994 205.35326275689036 0.6000000000096217
    vertex 1153.5929254832274 207.76590794494345 0.6000000000096217
  endloop
endfacet
facet normal 0.581810176327131 0.813324608457283 -0.0
  outer loop
    vertex 1156.9656126288994 205.35326275689036 0.6000000000096217
    vertex 1153.5929254832274 207.76590794494345 1.0000000000095761
    vertex 1156.9656126288994 205.35326275689036 1.0000000000095761
  endloop
endfacet
facet normal -0.8306342000728977 -0.556818485387525 0.0
  outer loop
    vertex 1137.9403375926026 155.02227504602192 1.0000000000095761
    vertex 1139.176879610716 153.17766299195694 0.6000000000096217
    vertex 1139.176879610716 153.17766299195694 1.0000000000095761
  endloop
endfacet
facet normal -0.8306342000728977 -0.556818485387525 0.0
  outer loop
    vertex 1139.176879610716 153.17766299195694 0.6000000000096217
    vertex 1137.9403375926026 155.02227504602192 1.0000000000095761
    vertex 1137.9403375926026 155.02227504602192 0.6000000000096217
  endloop
endfacet
facet normal -0.1888348193809046 -0.9820088650258619 0.0
  outer loop
    vertex 1143.2382474895892 151.46880824914712 1.0000000000095761
    vertex 1141.0165829258422 151.8960219348495 0.6000000000096217
    vertex 1143.2382474895892 151.46880824914712 0.6000000000096217
  endloop
endfacet
facet normal -0.1888348193809046 -0.9820088650258619 0.0
  outer loop
    vertex 1141.0165829258422 151.8960219348495 0.6000000000096217
    vertex 1143.2382474895892 151.46880824914712 1.0000000000095761
    vertex 1141.0165829258422 151.8960219348495 1.0000000000095761
  endloop
endfacet
facet normal 0.9061556590129445 0.4229443481580246 -6.742051317429856e-16
  outer loop
    vertex 1147.661515749965 180.0927566724574 1.0796241678434625e-11
    vertex 1163.2081837747417 146.7841162548694 0.40000000001048003
    vertex 1163.2081837747417 146.7841162548694 1.0345047041226962e-11
  endloop
endfacet
facet normal 0.9061556590129445 0.4229443481580246 -6.742051317429856e-16
  outer loop
    vertex 1163.2081837747417 146.7841162548694 0.40000000001048003
    vertex 1147.661515749965 180.0927566724574 1.0796241678434625e-11
    vertex 1147.661515749965 180.0927566724574 0.40000000001084096
  endloop
endfacet
facet normal -0.9604507260988636 0.2784500004240718 0.0
  outer loop
    vertex 1140.7449149052406 175.93764467060717 1.0000000000095761
    vertex 1139.8399428625814 172.81614690028078 0.6000000000096217
    vertex 1139.8399428625814 172.81614690028078 1.0000000000095761
  endloop
endfacet
facet normal -0.9604507260988636 0.2784500004240718 0.0
  outer loop
    vertex 1139.8399428625814 172.81614690028078 0.6000000000096217
    vertex 1140.7449149052406 175.93764467060717 1.0000000000095761
    vertex 1140.7449149052406 175.93764467060717 0.6000000000096217
  endloop
endfacet
facet normal 0.6905187496437084 -0.7233144934193492 1.6370984063123928e-16
  outer loop
    vertex 1157.4935321618777 184.22144842475538 1.0000000000095761
    vertex 1154.32090484188 181.19267094273118 0.6000000000101631
    vertex 1157.4935321618777 184.22144842475538 0.6000000000096217
  endloop
endfacet
facet normal 0.6905187496437084 -0.7233144934193492 1.6370984063123928e-16
  outer loop
    vertex 1154.32090484188 181.19267094273118 0.6000000000101631
    vertex 1157.4935321618777 184.22144842475538 1.0000000000095761
    vertex 1154.32090484188 181.19267094273118 1.0000000000101177
  endloop
endfacet
facet normal 0.6823495637785351 -0.731026041130713 -9.440158444424643e-17
  outer loop
    vertex 1153.1512321592534 180.0926709427307 1.0000000000097566
    vertex 1150.6170025020333 177.72718680971127 0.6000000000096217
    vertex 1153.1512321592534 180.0926709427307 0.6000000000096217
  endloop
endfacet
facet normal 0.6823495637785351 -0.731026041130713 -9.440158444424643e-17
  outer loop
    vertex 1150.6170025020333 177.72718680971127 0.6000000000096217
    vertex 1153.1512321592534 180.0926709427307 1.0000000000097566
    vertex 1150.6170025020333 177.72718680971127 1.0000000000095761
  endloop
endfacet
facet normal 0.1868454773726199 0.9823893156917974 -0.0
  outer loop
    vertex 1143.2382474895892 162.80860878841688 1.0000000000095761
    vertex 1145.4848392432525 162.3813184036685 0.6000000000096217
    vertex 1143.2382474895892 162.80860878841688 0.6000000000096217
  endloop
endfacet
facet normal 0.1868454773726199 0.9823893156917974 -0.0
  outer loop
    vertex 1145.4848392432525 162.3813184036685 0.6000000000096217
    vertex 1143.2382474895892 162.80860878841688 1.0000000000095761
    vertex 1145.4848392432525 162.3813184036685 1.0000000000095761
  endloop
endfacet
facet normal 0.9819863867003173 0.18895167724911838 -0.0
  outer loop
    vertex 1148.5411428245582 159.25460509822054 0.6000000000096217
    vertex 1148.948338059278 157.13840172259833 1.0000000000095761
    vertex 1148.948338059278 157.13840172259833 0.6000000000096217
  endloop
endfacet
facet normal 0.9819863867003173 0.18895167724911838 -0.0
  outer loop
    vertex 1148.948338059278 157.13840172259833 1.0000000000095761
    vertex 1148.5411428245582 159.25460509822054 0.6000000000096217
    vertex 1148.5411428245582 159.25460509822054 1.0000000000095761
  endloop
endfacet
facet normal -0.9968219086293687 0.07966230273160893 0.0
  outer loop
    vertex 1139.8399428625814 172.81614690028078 1.0000000000095761
    vertex 1139.5382855150294 169.0414800550099 0.6000000000096217
    vertex 1139.5382855150294 169.0414800550099 1.0000000000095761
  endloop
endfacet
facet normal -0.9968219086293687 0.07966230273160893 0.0
  outer loop
    vertex 1139.5382855150294 169.0414800550099 0.6000000000096217
    vertex 1139.8399428625814 172.81614690028078 1.0000000000095761
    vertex 1139.8399428625814 172.81614690028078 0.6000000000096217
  endloop
endfacet
facet normal 0.33904815641139446 0.9407690192783958 -0.0
  outer loop
    vertex 1149.3254672680046 209.3038772134721 1.0000000000095761
    vertex 1153.5929254832274 207.76590794494345 0.6000000000096217
    vertex 1149.3254672680046 209.3038772134721 0.6000000000096217
  endloop
endfacet
facet normal 0.33904815641139446 0.9407690192783958 -0.0
  outer loop
    vertex 1153.5929254832274 207.76590794494345 0.6000000000096217
    vertex 1149.3254672680046 209.3038772134721 1.0000000000095761
    vertex 1153.5929254832274 207.76590794494345 1.0000000000095761
  endloop
endfacet
facet normal -0.0 -1.0836698983832891e-14 1.0
  outer loop
    vertex 1155.7284928178842 146.7841162548694 0.40000000001048003
    vertex 1147.661515749965 180.0927566724574 0.40000000001084096
    vertex 1140.1818247931078 180.0927566724574 0.40000000001084096
  endloop
endfacet
facet normal -0.0 -1.0836698983832891e-14 1.0
  outer loop
    vertex 1147.661515749965 180.0927566724574 0.40000000001084096
    vertex 1155.7284928178842 146.7841162548694 0.40000000001048003
    vertex 1163.2081837747417 146.7841162548694 0.40000000001048003
  endloop
endfacet
facet normal -0.9815547963541879 0.1911810182891833 0.0
  outer loop
    vertex 1137.9403375926026 159.25460509822054 1.0000000000095761
    vertex 1137.5281569198974 157.13840172259833 0.6000000000096217
    vertex 1137.5281569198974 157.13840172259833 1.0000000000095761
  endloop
endfacet
facet normal -0.9815547963541879 0.1911810182891833 0.0
  outer loop
    vertex 1137.5281569198974 157.13840172259833 0.6000000000096217
    vertex 1137.9403375926026 159.25460509822054 1.0000000000095761
    vertex 1137.9403375926026 159.25460509822054 0.6000000000096217
  endloop
endfacet
facet normal 0.0 -1.0 0.0
  outer loop
    vertex 1163.2081837747417 146.7841162548694 0.40000000001048003
    vertex 1155.7284928178842 146.7841162548694 1.0345047041226962e-11
    vertex 1163.2081837747417 146.7841162548694 1.0345047041226962e-11
  endloop
endfacet
facet normal 0.0 -1.0 0.0
  outer loop
    vertex 1155.7284928178842 146.7841162548694 1.0345047041226962e-11
    vertex 1163.2081837747417 146.7841162548694 0.40000000001048003
    vertex 1155.7284928178842 146.7841162548694 0.40000000001048003
  endloop
endfacet
facet normal 0.8337794456371747 0.5520976689254952 -0.0
  outer loop
    vertex 1147.319557120396 161.09944724942355 0.6000000000096217
    vertex 1148.5411428245582 159.25460509822054 1.0000000000095761
    vertex 1148.5411428245582 159.25460509822054 0.6000000000096217
  endloop
endfacet
facet normal 0.8337794456371747 0.5520976689254952 -0.0
  outer loop
    vertex 1148.5411428245582 159.25460509822054 1.0000000000095761
    vertex 1147.319557120396 161.09944724942355 0.6000000000096217
    vertex 1147.319557120396 161.09944724942355 1.0000000000095761
  endloop
endfacet
facet normal -7.119066184923134e-16 -8.686059673608802e-15 -1.0
  outer loop
    vertex 1126.625387544207 197.27531924195682 0.6000000000096217
    vertex 1133.3054142484357 192.40462303067352 0.6000000000096217
    vertex 1126.067478684278 192.40462303067352 0.6000000000096217
  endloop
endfacet
facet normal -7.119066184923134e-16 -8.686059673608802e-15 -1.0
  outer loop
    vertex 1133.3054142484357 192.40462303067352 0.6000000000096217
    vertex 1126.625387544207 197.27531924195682 0.6000000000096217
    vertex 1128.2991141239904 201.512788130231 0.6000000000096217
  endloop
endfacet
facet normal -7.119066184923134e-16 -8.686059673608802e-15 -1.0
  outer loop
    vertex 1133.3054142484357 192.40462303067352 0.6000000000096217
    vertex 1128.2991141239904 201.512788130231 0.6000000000096217
    vertex 1130.993244810524 205.00129083522282 0.6000000000096217
  endloop
endfacet
facet normal -7.119066184923134e-16 -8.686059673608802e-15 -1.0
  outer loop
    vertex 1133.3054142484357 192.40462303067352 0.6000000000096217
    vertex 1130.993244810524 205.00129083522282 0.6000000000096217
    vertex 1134.6123659906955 207.6250884966578 0.6000000000096217
  endloop
endfacet
facet normal -7.119066184923134e-16 -8.686059673608802e-15 -1.0
  outer loop
    vertex 1133.3054142484357 192.40462303067352 0.6000000000096217
    vertex 1134.6123659906955 207.6250884966578 0.6000000000096217
    vertex 1134.0141901316654 196.59185404387875 0.6000000000096217
  endloop
endfacet
facet normal -7.119066184923134e-16 -8.686059673608802e-15 -1.0
  outer loop
    vertex 1134.0141901316654 196.59185404387875 0.6000000000096217
    vertex 1134.6123659906955 207.6250884966578 0.6000000000096217
    vertex 1136.140517781347 199.90425573946777 0.6000000000096217
  endloop
endfacet
facet normal -7.119066184923134e-16 -8.686059673608802e-15 -1.0
  outer loop
    vertex 1136.140517781347 199.90425573946777 0.6000000000096217
    vertex 1134.6123659906955 207.6250884966578 0.6000000000096217
    vertex 1139.0509397773378 209.26867235140088 0.6000000000096217
  endloop
endfacet
facet normal -7.119066184923134e-16 -8.686059673608802e-15 -1.0
  outer loop
    vertex 1136.140517781347 199.90425573946777 0.6000000000096217
    vertex 1139.0509397773378 209.26867235140088 0.6000000000096217
    vertex 1139.573797173285 202.06049601705354 0.6000000000096217
  endloop
endfacet
facet normal -7.119066184923134e-16 -8.686059673608802e-15 -1.0
  outer loop
    vertex 1139.573797173285 202.06049601705354 0.6000000000096217
    vertex 1139.0509397773378 209.26867235140088 0.6000000000096217
    vertex 1144.2034282832833 209.81653363631506 0.6000000000096217
  endloop
endfacet
facet normal -7.119066184923134e-16 -8.686059673608802e-15 -1.0
  outer loop
    vertex 1139.573797173285 202.06049601705354 0.6000000000096217
    vertex 1144.2034282832833 209.81653363631506 0.6000000000096217
    vertex 1144.2034282832833 202.77924277624857 0.6000000000096217
  endloop
endfacet
facet normal -7.119066184923134e-16 -8.686059673608802e-15 -1.0
  outer loop
    vertex 1144.2034282832833 202.77924277624857 0.6000000000096217
    vertex 1144.2034282832833 209.81653363631506 0.6000000000096217
    vertex 1149.3254672680046 209.3038772134721 0.6000000000096217
  endloop
endfacet
facet normal -7.119066184923134e-16 -8.686059673608802e-15 -1.0
  outer loop
    vertex 1144.2034282832833 202.77924277624857 0.6000000000096217
    vertex 1149.3254672680046 209.3038772134721 0.6000000000096217
    vertex 1148.3450233641738 202.18114361626533 0.6000000000096217
  endloop
endfacet
facet normal -7.119066184923134e-16 -8.686059673608802e-15 -1.0
  outer loop
    vertex 1148.3450233641738 202.18114361626533 0.6000000000096217
    vertex 1149.3254672680046 209.3038772134721 0.6000000000096217
    vertex 1151.3609832473326 200.38684613631526 0.6000000000096217
  endloop
endfacet
facet normal -7.119066184923134e-16 -8.686059673608802e-15 -1.0
  outer loop
    vertex 1151.3609832473326 200.38684613631526 0.6000000000096217
    vertex 1149.3254672680046 209.3038772134721 0.6000000000096217
    vertex 1153.5929254832274 207.76590794494345 0.6000000000096217
  endloop
endfacet
facet normal -7.119066184923134e-16 -8.686059673608802e-15 -1.0
  outer loop
    vertex 1151.3609832473326 200.38684613631526 0.6000000000096217
    vertex 1153.5929254832274 207.76590794494345 0.6000000000096217
    vertex 1153.20083996055 197.72799701090042 0.6000000000096217
  endloop
endfacet
facet normal -7.119066184923134e-16 -8.686059673608802e-15 -1.0
  outer loop
    vertex 1153.20083996055 197.72799701090042 0.6000000000096217
    vertex 1153.5929254832274 207.76590794494345 0.6000000000096217
    vertex 1153.8141255316225 194.5362429145232 0.6000000000096217
  endloop
endfacet
facet normal -7.119066184923134e-16 -8.686059673608802e-15 -1.0
  outer loop
    vertex 1153.8141255316225 194.5362429145232 0.6000000000096217
    vertex 1153.5929254832274 207.76590794494345 0.6000000000096217
    vertex 1156.9656126288994 205.35326275689036 0.6000000000096217
  endloop
endfacet
facet normal -7.119066184923134e-16 -8.686059673608802e-15 -1.0
  outer loop
    vertex 1153.8141255316225 194.5362429145232 0.6000000000096217
    vertex 1156.9656126288994 205.35326275689036 0.6000000000096217
    vertex 1154.32090484188 181.19267094273118 0.6000000000101631
  endloop
endfacet
facet normal -7.119066184923134e-16 -8.686059673608802e-15 -1.0
  outer loop
    vertex 1154.32090484188 181.19267094273118 0.6000000000101631
    vertex 1156.9656126288994 205.35326275689036 0.6000000000096217
    vertex 1157.4935321618777 184.22144842475538 0.6000000000096217
  endloop
endfacet
facet normal -7.119066184923134e-16 -8.686059673608802e-15 -1.0
  outer loop
    vertex 1157.4935321618777 184.22144842475538 0.6000000000096217
    vertex 1156.9656126288994 205.35326275689036 0.6000000000096217
    vertex 1159.4033384049644 202.2165785754745 0.6000000000096217
  endloop
endfacet
facet normal -7.119066184923134e-16 -8.686059673608802e-15 -1.0
  outer loop
    vertex 1157.4935321618777 184.22144842475538 0.6000000000096217
    vertex 1159.4033384049644 202.2165785754745 0.6000000000096217
    vertex 1160.2881385985472 188.46382605196777 0.6000000000096217
  endloop
endfacet
facet normal -7.119066184923134e-16 -8.686059673608802e-15 -1.0
  outer loop
    vertex 1160.2881385985472 188.46382605196777 0.6000000000096217
    vertex 1159.4033384049644 202.2165785754745 0.6000000000096217
    vertex 1160.8810222234094 198.52704767116032 0.6000000000096217
  endloop
endfacet
facet normal -7.119066184923134e-16 -8.686059673608802e-15 -1.0
  outer loop
    vertex 1160.2881385985472 188.46382605196777 0.6000000000096217
    vertex 1160.8810222234094 198.52704767116032 0.6000000000096217
    vertex 1161.1022222718072 191.1882528616332 0.6000000000096217
  endloop
endfacet
facet normal -7.119066184923134e-16 -8.686059673608802e-15 -1.0
  outer loop
    vertex 1161.1022222718072 191.1882528616332 0.6000000000096217
    vertex 1160.8810222234094 198.52704767116032 0.6000000000096217
    vertex 1161.3735834962263 194.45586231441243 0.6000000000096217
  endloop
endfacet
facet normal -7.119066184923134e-16 -8.686059673608802e-15 -1.0
  outer loop
    vertex 1147.5812542650292 184.40276496927996 0.6000000000096217
    vertex 1154.32090484188 181.19267094273118 0.6000000000101631
    vertex 1144.2653950680892 181.19267094273118 0.6000000000101631
  endloop
endfacet
facet normal -7.119066184923134e-16 -8.686059673608802e-15 -1.0
  outer loop
    vertex 1154.32090484188 181.19267094273118 0.6000000000101631
    vertex 1147.5812542650292 184.40276496927996 0.6000000000096217
    vertex 1151.9239542442897 188.78565524859405 0.6000000000096217
  endloop
endfacet
facet normal -7.119066184923134e-16 -8.686059673608802e-15 -1.0
  outer loop
    vertex 1154.32090484188 181.19267094273118 0.6000000000101631
    vertex 1151.9239542442897 188.78565524859405 0.6000000000096217
    vertex 1153.3415827097906 191.34924415899215 0.6000000000096217
  endloop
endfacet
facet normal -7.119066184923134e-16 -8.686059673608802e-15 -1.0
  outer loop
    vertex 1154.32090484188 181.19267094273118 0.6000000000101631
    vertex 1153.3415827097906 191.34924415899215 0.6000000000096217
    vertex 1153.8141255316225 194.5362429145232 0.6000000000096217
  endloop
endfacet
facet normal 0.9283142322052382 0.3717965657253966 -0.0
  outer loop
    vertex 1159.4033384049644 202.2165785754745 0.6000000000096217
    vertex 1160.8810222234094 198.52704767116032 1.0000000000095761
    vertex 1160.8810222234094 198.52704767116032 0.6000000000096217
  endloop
endfacet
facet normal 0.9283142322052382 0.3717965657253966 -0.0
  outer loop
    vertex 1160.8810222234094 198.52704767116032 1.0000000000095761
    vertex 1159.4033384049644 202.2165785754745 0.6000000000096217
    vertex 1159.4033384049644 202.2165785754745 1.0000000000095761
  endloop
endfacet
facet normal -0.1888675122871105 0.9820025777982857 -0.0
  outer loop
    vertex 1141.0165829258422 162.3813184036685 1.0000000000095761
    vertex 1143.2382474895892 162.80860878841688 0.6000000000096217
    vertex 1141.0165829258422 162.3813184036685 0.6000000000096217
  endloop
endfacet
facet normal -0.1888675122871105 0.9820025777982857 -0.0
  outer loop
    vertex 1143.2382474895892 162.80860878841688 0.6000000000096217
    vertex 1141.0165829258422 162.3813184036685 1.0000000000095761
    vertex 1143.2382474895892 162.80860878841688 1.0000000000095761
  endloop
endfacet
facet normal -0.5716196204162046 -0.8205187441827482 0.0
  outer loop
    vertex 1141.0165829258422 151.8960219348495 1.0000000000095761
    vertex 1139.176879610716 153.17766299195694 0.6000000000096217
    vertex 1141.0165829258422 151.8960219348495 0.6000000000096217
  endloop
endfacet
facet normal -0.5716196204162046 -0.8205187441827482 0.0
  outer loop
    vertex 1139.176879610716 153.17766299195694 0.6000000000096217
    vertex 1141.0165829258422 151.8960219348495 1.0000000000095761
    vertex 1139.176879610716 153.17766299195694 1.0000000000095761
  endloop
endfacet
facet normal 0.9819851159439449 -0.1889582812807026 -0.0
  outer loop
    vertex 1148.948338059278 157.13840172259833 0.6000000000096217
    vertex 1148.5411428245582 155.02227504602192 1.0000000000095761
    vertex 1148.5411428245582 155.02227504602192 0.6000000000096217
  endloop
endfacet
facet normal 0.9819851159439449 -0.1889582812807026 -0.0
  outer loop
    vertex 1148.5411428245582 155.02227504602192 1.0000000000095761
    vertex 1148.948338059278 157.13840172259833 0.6000000000096217
    vertex 1148.948338059278 157.13840172259833 1.0000000000095761
  endloop
endfacet
facet normal 0.8350944025473391 -0.550106661324968 -0.0
  outer loop
    vertex 1160.2881385985472 188.46382605196777 0.6000000000096217
    vertex 1157.4935321618777 184.22144842475538 1.0000000000095761
    vertex 1157.4935321618777 184.22144842475538 0.6000000000096217
  endloop
endfacet
facet normal 0.8350944025473391 -0.550106661324968 -0.0
  outer loop
    vertex 1157.4935321618777 184.22144842475538 1.0000000000095761
    vertex 1160.2881385985472 188.46382605196777 0.6000000000096217
    vertex 1160.2881385985472 188.46382605196777 1.0000000000095761
  endloop
endfacet
facet normal 0.5727330445955435 0.8197419469737531 -0.0
  outer loop
    vertex 1145.4848392432525 162.3813184036685 1.0000000000095761
    vertex 1147.319557120396 161.09944724942355 0.6000000000096217
    vertex 1145.4848392432525 162.3813184036685 0.6000000000096217
  endloop
endfacet
facet normal 0.5727330445955435 0.8197419469737531 -0.0
  outer loop
    vertex 1147.319557120396 161.09944724942355 0.6000000000096217
    vertex 1145.4848392432525 162.3813184036685 1.0000000000095761
    vertex 1147.319557120396 161.09944724942355 1.0000000000095761
  endloop
endfacet
facet normal 0.9927604328284446 0.12011129426610637 -0.0
  outer loop
    vertex 1160.8810222234094 198.52704767116032 0.6000000000096217
    vertex 1161.3735834962263 194.45586231441243 1.0000000000095761
    vertex 1161.3735834962263 194.45586231441243 0.6000000000096217
  endloop
endfacet
facet normal 0.9927604328284446 0.12011129426610637 -0.0
  outer loop
    vertex 1161.3735834962263 194.45586231441243 1.0000000000095761
    vertex 1160.8810222234094 198.52704767116032 0.6000000000096217
    vertex 1160.8810222234094 198.52704767116032 1.0000000000095761
  endloop
endfacet
endsolid Flaps_2-2
