solid Untitled-68411238
facet normal 0.0 -0.7071067811865482 0.7071067811865468
  outer loop
    vertex 70.1 64.1 5.0
    vertex 0.0 63.099999999999994 3.9999999999999996
    vertex 69.1 63.099999999999994 3.9999999999999996
  endloop
endfacet
facet normal 0.0 -0.7071067811865482 0.7071067811865468
  outer loop
    vertex 0.0 63.099999999999994 3.9999999999999996
    vertex 70.1 64.1 5.0
    vertex -0.999999999999999 64.1 5.0
  endloop
endfacet
facet normal 0.7071067811865479 -0.0 0.7071067811865472
  outer loop
    vertex 0.0 0.0 3.9999999999999996
    vertex -0.999999999999999 64.1 5.0
    vertex -0.999999999999999 -0.999999999999999 5.0
  endloop
endfacet
facet normal 0.7071067811865479 -0.0 0.7071067811865472
  outer loop
    vertex -0.999999999999999 64.1 5.0
    vertex 0.0 0.0 3.9999999999999996
    vertex 0.0 63.099999999999994 3.9999999999999996
  endloop
endfacet
facet normal -0.0 0.7071067811865479 0.7071067811865472
  outer loop
    vertex -0.999999999999999 -0.999999999999999 5.0
    vertex 69.1 0.0 3.9999999999999996
    vertex 0.0 0.0 3.9999999999999996
  endloop
endfacet
facet normal -0.0 0.7071067811865479 0.7071067811865472
  outer loop
    vertex 69.1 0.0 3.9999999999999996
    vertex -0.999999999999999 -0.999999999999999 5.0
    vertex 70.1 -0.999999999999999 5.0
  endloop
endfacet
facet normal -0.7071067811865482 0.0 0.7071067811865468
  outer loop
    vertex 70.1 64.1 5.0
    vertex 69.1 0.0 3.9999999999999996
    vertex 70.1 -0.999999999999999 5.0
  endloop
endfacet
facet normal -0.7071067811865482 0.0 0.7071067811865468
  outer loop
    vertex 69.1 0.0 3.9999999999999996
    vertex 70.1 64.1 5.0
    vertex 69.1 63.099999999999994 3.9999999999999996
  endloop
endfacet
facet normal 1.0 0.0 0.0
  outer loop
    vertex 71.1 65.1 0.0
    vertex 71.1 -1.9999999999999998 4.999999999999999
    vertex 71.1 -1.9999999999999998 0.0
  endloop
endfacet
facet normal 1.0 0.0 0.0
  outer loop
    vertex 71.1 -1.9999999999999998 4.999999999999999
    vertex 71.1 65.1 0.0
    vertex 71.1 65.1 4.999999999999999
  endloop
endfacet
facet normal -1.0 0.0 0.0
  outer loop
    vertex 69.1 63.099999999999994 3.9999999999999996
    vertex 69.1 0.0 3.0
    vertex 69.1 0.0 3.9999999999999996
  endloop
endfacet
facet normal -1.0 0.0 0.0
  outer loop
    vertex 69.1 0.0 3.0
    vertex 69.1 63.099999999999994 3.9999999999999996
    vertex 69.1 63.099999999999994 3.0
  endloop
endfacet
facet normal -0.0 1.0 0.0
  outer loop
    vertex -1.9999999999999998 65.1 4.999999999999999
    vertex 71.1 65.1 0.0
    vertex -1.9999999999999998 65.1 0.0
  endloop
endfacet
facet normal -0.0 1.0 0.0
  outer loop
    vertex 71.1 65.1 0.0
    vertex -1.9999999999999998 65.1 4.999999999999999
    vertex 71.1 65.1 4.999999999999999
  endloop
endfacet
facet normal -1.0 0.0 0.0
  outer loop
    vertex -1.9999999999999998 65.1 4.999999999999999
    vertex -1.9999999999999998 -1.9999999999999998 0.0
    vertex -1.9999999999999998 -1.9999999999999998 4.999999999999999
  endloop
endfacet
facet normal -1.0 0.0 0.0
  outer loop
    vertex -1.9999999999999998 -1.9999999999999998 0.0
    vertex -1.9999999999999998 65.1 4.999999999999999
    vertex -1.9999999999999998 65.1 0.0
  endloop
endfacet
facet normal 1.0 -0.0 -0.0
  outer loop
    vertex 0.0 63.099999999999994 3.0
    vertex 0.0 0.0 3.9999999999999996
    vertex 0.0 0.0 3.0
  endloop
endfacet
facet normal 1.0 -0.0 -0.0
  outer loop
    vertex 0.0 0.0 3.9999999999999996
    vertex 0.0 63.099999999999994 3.0
    vertex 0.0 63.099999999999994 3.9999999999999996
  endloop
endfacet
facet normal -0.0 -1.0 -0.0
  outer loop
    vertex 71.1 -1.9999999999999998 4.999999999999999
    vertex -1.9999999999999998 -1.9999999999999998 0.0
    vertex 71.1 -1.9999999999999998 0.0
  endloop
endfacet
facet normal -0.0 -1.0 -0.0
  outer loop
    vertex -1.9999999999999998 -1.9999999999999998 0.0
    vertex 71.1 -1.9999999999999998 4.999999999999999
    vertex -1.9999999999999998 -1.9999999999999998 4.999999999999999
  endloop
endfacet
facet normal -0.0 1.0 -0.0
  outer loop
    vertex 0.0 0.0 3.9999999999999996
    vertex 69.1 0.0 3.0
    vertex 0.0 0.0 3.0
  endloop
endfacet
facet normal -0.0 1.0 -0.0
  outer loop
    vertex 69.1 0.0 3.0
    vertex 0.0 0.0 3.9999999999999996
    vertex 69.1 0.0 3.9999999999999996
  endloop
endfacet
facet normal -0.0 -0.0 1.0
  outer loop
    vertex -1.9999999999999998 -1.9999999999999998 4.999999999999999
    vertex -0.999999999999999 -0.999999999999999 5.0
    vertex -1.9999999999999998 65.1 4.999999999999999
  endloop
endfacet
facet normal -0.0 -0.0 1.0
  outer loop
    vertex -0.999999999999999 -0.999999999999999 5.0
    vertex -1.9999999999999998 -1.9999999999999998 4.999999999999999
    vertex 71.1 -1.9999999999999998 4.999999999999999
  endloop
endfacet
facet normal -0.0 -0.0 1.0
  outer loop
    vertex -0.999999999999999 -0.999999999999999 5.0
    vertex 71.1 -1.9999999999999998 4.999999999999999
    vertex 70.1 -0.999999999999999 5.0
  endloop
endfacet
facet normal -0.0 -0.0 1.0
  outer loop
    vertex 70.1 -0.999999999999999 5.0
    vertex 71.1 -1.9999999999999998 4.999999999999999
    vertex 70.1 64.1 5.0
  endloop
endfacet
facet normal -0.0 -0.0 1.0
  outer loop
    vertex -1.9999999999999998 65.1 4.999999999999999
    vertex -0.999999999999999 64.1 5.0
    vertex 71.1 65.1 4.999999999999999
  endloop
endfacet
facet normal -0.0 -0.0 1.0
  outer loop
    vertex -0.999999999999999 64.1 5.0
    vertex -1.9999999999999998 65.1 4.999999999999999
    vertex -0.999999999999999 -0.999999999999999 5.0
  endloop
endfacet
facet normal -0.0 -0.0 1.0
  outer loop
    vertex 71.1 65.1 4.999999999999999
    vertex -0.999999999999999 64.1 5.0
    vertex 70.1 64.1 5.0
  endloop
endfacet
facet normal -0.0 -0.0 1.0
  outer loop
    vertex 71.1 65.1 4.999999999999999
    vertex 70.1 64.1 5.0
    vertex 71.1 -1.9999999999999998 4.999999999999999
  endloop
endfacet
facet normal 0.0 0.0 -1.0
  outer loop
    vertex 71.1 65.1 0.0
    vertex -1.9999999999999998 -1.9999999999999998 0.0
    vertex -1.9999999999999998 65.1 0.0
  endloop
endfacet
facet normal 0.0 0.0 -1.0
  outer loop
    vertex -1.9999999999999998 -1.9999999999999998 0.0
    vertex 71.1 65.1 0.0
    vertex 71.1 -1.9999999999999998 0.0
  endloop
endfacet
facet normal 0.0 -1.0 0.0
  outer loop
    vertex 69.1 63.099999999999994 3.9999999999999996
    vertex 0.0 63.099999999999994 3.0
    vertex 69.1 63.099999999999994 3.0
  endloop
endfacet
facet normal 0.0 -1.0 0.0
  outer loop
    vertex 0.0 63.099999999999994 3.0
    vertex 69.1 63.099999999999994 3.9999999999999996
    vertex 0.0 63.099999999999994 3.9999999999999996
  endloop
endfacet
facet normal -0.0 -0.0 1.0
  outer loop
    vertex 65.1 3.9999999999999996 0.49999999999999994
    vertex 3.9999999999999996 59.099999999999994 0.49999999999999994
    vertex 3.9999999999999996 3.9999999999999996 0.49999999999999994
  endloop
endfacet
facet normal -0.0 -0.0 1.0
  outer loop
    vertex 3.9999999999999996 59.099999999999994 0.49999999999999994
    vertex 65.1 3.9999999999999996 0.49999999999999994
    vertex 65.1 59.099999999999994 0.49999999999999994
  endloop
endfacet
facet normal -1.0 -0.0 -0.0
  outer loop
    vertex 65.1 59.099999999999994 3.0
    vertex 65.1 3.9999999999999996 0.49999999999999994
    vertex 65.1 3.9999999999999996 3.0
  endloop
endfacet
facet normal -1.0 -0.0 -0.0
  outer loop
    vertex 65.1 3.9999999999999996 0.49999999999999994
    vertex 65.1 59.099999999999994 3.0
    vertex 65.1 59.099999999999994 0.49999999999999994
  endloop
endfacet
facet normal 0.0 1.0 0.0
  outer loop
    vertex 3.9999999999999996 3.9999999999999996 3.0
    vertex 65.1 3.9999999999999996 0.49999999999999994
    vertex 3.9999999999999996 3.9999999999999996 0.49999999999999994
  endloop
endfacet
facet normal 0.0 1.0 0.0
  outer loop
    vertex 65.1 3.9999999999999996 0.49999999999999994
    vertex 3.9999999999999996 3.9999999999999996 3.0
    vertex 65.1 3.9999999999999996 3.0
  endloop
endfacet
facet normal 0.0 -1.0 0.0
  outer loop
    vertex 65.1 59.099999999999994 3.0
    vertex 3.9999999999999996 59.099999999999994 0.49999999999999994
    vertex 65.1 59.099999999999994 0.49999999999999994
  endloop
endfacet
facet normal 0.0 -1.0 0.0
  outer loop
    vertex 3.9999999999999996 59.099999999999994 0.49999999999999994
    vertex 65.1 59.099999999999994 3.0
    vertex 3.9999999999999996 59.099999999999994 3.0
  endloop
endfacet
facet normal 1.0 -0.0 0.0
  outer loop
    vertex 3.9999999999999996 59.099999999999994 0.49999999999999994
    vertex 3.9999999999999996 3.9999999999999996 3.0
    vertex 3.9999999999999996 3.9999999999999996 0.49999999999999994
  endloop
endfacet
facet normal 1.0 -0.0 0.0
  outer loop
    vertex 3.9999999999999996 3.9999999999999996 3.0
    vertex 3.9999999999999996 59.099999999999994 0.49999999999999994
    vertex 3.9999999999999996 59.099999999999994 3.0
  endloop
endfacet
facet normal -0.0 -0.0 1.0
  outer loop
    vertex 0.0 0.0 3.0
    vertex 3.9999999999999996 3.9999999999999996 3.0
    vertex 0.0 63.099999999999994 3.0
  endloop
endfacet
facet normal -0.0 -0.0 1.0
  outer loop
    vertex 3.9999999999999996 3.9999999999999996 3.0
    vertex 0.0 0.0 3.0
    vertex 69.1 0.0 3.0
  endloop
endfacet
facet normal -0.0 -0.0 1.0
  outer loop
    vertex 3.9999999999999996 3.9999999999999996 3.0
    vertex 69.1 0.0 3.0
    vertex 65.1 3.9999999999999996 3.0
  endloop
endfacet
facet normal -0.0 -0.0 1.0
  outer loop
    vertex 65.1 3.9999999999999996 3.0
    vertex 69.1 0.0 3.0
    vertex 65.1 59.099999999999994 3.0
  endloop
endfacet
facet normal -0.0 -0.0 1.0
  outer loop
    vertex 0.0 63.099999999999994 3.0
    vertex 3.9999999999999996 59.099999999999994 3.0
    vertex 69.1 63.099999999999994 3.0
  endloop
endfacet
facet normal -0.0 -0.0 1.0
  outer loop
    vertex 3.9999999999999996 59.099999999999994 3.0
    vertex 0.0 63.099999999999994 3.0
    vertex 3.9999999999999996 3.9999999999999996 3.0
  endloop
endfacet
facet normal -0.0 -0.0 1.0
  outer loop
    vertex 69.1 63.099999999999994 3.0
    vertex 3.9999999999999996 59.099999999999994 3.0
    vertex 65.1 59.099999999999994 3.0
  endloop
endfacet
facet normal -0.0 -0.0 1.0
  outer loop
    vertex 69.1 63.099999999999994 3.0
    vertex 65.1 59.099999999999994 3.0
    vertex 69.1 0.0 3.0
  endloop
endfacet
endsolid Untitled-68411238
