solid Flaps_v2004_export
facet normal 0.0 0.0 1.0
  outer loop
    vertex 88.67614162103962 -89.49362261476831 0.9999999999947927
    vertex 81.1565671603098 -86.87335851078593 0.9999999999947927
    vertex 81.1565671603098 -89.49362261476831 0.9999999999947927
  endloop
endfacet
facet normal 0.0 0.0 1.0
  outer loop
    vertex 81.1565671603098 -86.87335851078593 0.9999999999947927
    vertex 88.67614162103962 -89.49362261476831 0.9999999999947927
    vertex 81.49833810887236 -79.57950934216042 0.9999999999947927
  endloop
endfacet
facet normal 0.0 0.0 1.0
  outer loop
    vertex 81.49833810887236 -79.57950934216042 0.9999999999947927
    vertex 88.67614162103962 -89.49362261476831 0.9999999999947927
    vertex 85.4191933356413 -80.15759005116203 0.9999999999947927
  endloop
endfacet
facet normal 0.0 0.0 1.0
  outer loop
    vertex 85.4191933356413 -80.15759005116203 0.9999999999947927
    vertex 88.67614162103962 -89.49362261476831 0.9999999999947927
    vertex 88.67614162103962 -86.99362261476853 0.9999999999947927
  endloop
endfacet
facet normal 0.0 0.0 1.0
  outer loop
    vertex 85.4191933356413 -80.15759005116203 0.9999999999947927
    vertex 88.67614162103962 -86.99362261476853 0.9999999999947927
    vertex 89.49045539143572 -79.58457147919056 0.9999999999947927
  endloop
endfacet
facet normal 0.0 0.0 1.0
  outer loop
    vertex 89.49045539143572 -79.58457147919056 0.9999999999947927
    vertex 88.67614162103962 -86.99362261476853 0.9999999999947927
    vertex 92.62713957285145 -86.06893891731252 0.9999999999947927
  endloop
endfacet
facet normal 0.0 0.0 1.0
  outer loop
    vertex 89.49045539143572 -79.58457147919056 0.9999999999947927
    vertex 92.62713957285145 -86.06893891731252 0.9999999999947927
    vertex 92.61693859974555 -77.8655157632751 0.9999999999947927
  endloop
endfacet
facet normal 0.0 0.0 1.0
  outer loop
    vertex 92.61693859974555 -77.8655157632751 0.9999999999947927
    vertex 92.62713957285145 -86.06893891731252 0.9999999999947927
    vertex 94.607508938172 -75.05058407943932 0.9999999999947927
  endloop
endfacet
facet normal 0.0 0.0 1.0
  outer loop
    vertex 94.607508938172 -75.05058407943932 0.9999999999947927
    vertex 92.62713957285145 -86.06893891731252 0.9999999999947927
    vertex 96.1156422778426 -84.42021622649389 0.9999999999947927
  endloop
endfacet
facet normal 0.0 0.0 1.0
  outer loop
    vertex 94.607508938172 -75.05058407943932 0.9999999999947927
    vertex 96.1156422778426 -84.42021622649389 0.9999999999947927
    vertex 95.27103238431417 -71.18993760370634 0.9999999999947927
  endloop
endfacet
facet normal 0.0 0.0 1.0
  outer loop
    vertex 83.85085124493344 -59.649492360343075 0.9999999999947927
    vertex 97.156856740753 -58.201414373617084 0.9999999999947927
    vertex 80.56315642614544 -58.201414373617084 0.9999999999947927
  endloop
endfacet
facet normal 0.0 0.0 1.0
  outer loop
    vertex 97.156856740753 -58.201414373617084 0.9999999999947927
    vertex 83.85085124493344 -59.649492360343075 0.9999999999947927
    vertex 89.46031266639392 -62.34346964878351 0.9999999999947927
  endloop
endfacet
facet normal 0.0 0.0 1.0
  outer loop
    vertex 97.156856740753 -58.201414373617084 0.9999999999947927
    vertex 89.46031266639392 -62.34346964878351 0.9999999999947927
    vertex 91.80768696637922 -64.02241176368958 0.9999999999947927
  endloop
endfacet
facet normal 0.0 0.0 1.0
  outer loop
    vertex 97.156856740753 -58.201414373617084 0.9999999999947927
    vertex 91.80768696637922 -64.02241176368958 0.9999999999947927
    vertex 93.66249999355055 -66.0029345271021 0.9999999999947927
  endloop
endfacet
facet normal 0.0 0.0 1.0
  outer loop
    vertex 97.156856740753 -58.201414373617084 0.9999999999947927
    vertex 93.66249999355055 -66.0029345271021 0.9999999999947927
    vertex 94.86889928662345 -68.36534184008623 0.9999999999947927
  endloop
endfacet
facet normal 0.0 0.0 1.0
  outer loop
    vertex 97.156856740753 -58.201414373617084 0.9999999999947927
    vertex 94.86889928662345 -68.36534184008623 0.9999999999947927
    vertex 95.27103238431417 -71.18993760370634 0.9999999999947927
  endloop
endfacet
facet normal 0.0 0.0 1.0
  outer loop
    vertex 97.156856740753 -58.201414373617084 0.9999999999947927
    vertex 95.27103238431417 -71.18993760370634 0.9999999999947927
    vertex 96.1156422778426 -84.42021622649389 0.9999999999947927
  endloop
endfacet
facet normal 0.0 0.0 1.0
  outer loop
    vertex 97.156856740753 -58.201414373617084 0.9999999999947927
    vertex 96.1156422778426 -84.42021622649389 0.9999999999947927
    vertex 99.02606427383286 -82.06770309043209 0.9999999999947927
  endloop
endfacet
facet normal 0.0 0.0 1.0
  outer loop
    vertex 97.156856740753 -58.201414373617084 0.9999999999947927
    vertex 99.02606427383286 -82.06770309043209 0.9999999999947927
    vertex 97.86468732070792 -58.68431156664849 0.9999999999947927
  endloop
endfacet
facet normal 0.0 0.0 1.0
  outer loop
    vertex 97.86468732070792 -58.68431156664849 0.9999999999947927
    vertex 99.02606427383286 -82.06770309043209 0.9999999999947927
    vertex 99.99101497039022 -61.011667415652994 0.9999999999947927
  endloop
endfacet
facet normal 0.0 0.0 1.0
  outer loop
    vertex 99.99101497039022 -61.011667415652994 0.9999999999947927
    vertex 99.02606427383286 -82.06770309043209 0.9999999999947927
    vertex 101.24282009863916 -79.03164805724626 0.9999999999947927
  endloop
endfacet
facet normal 0.0 0.0 1.0
  outer loop
    vertex 99.99101497039022 -61.011667415652994 0.9999999999947927
    vertex 101.24282009863916 -79.03164805724626 0.9999999999947927
    vertex 101.66497164731142 -63.81148938744505 0.9999999999947927
  endloop
endfacet
facet normal 0.0 0.0 1.0
  outer loop
    vertex 101.66497164731142 -63.81148938744505 0.9999999999947927
    vertex 101.24282009863916 -79.03164805724626 0.9999999999947927
    vertex 102.64526215305008 -75.35224142699175 0.9999999999947927
  endloop
endfacet
facet normal 0.0 0.0 1.0
  outer loop
    vertex 101.66497164731142 -63.81148938744505 0.9999999999947927
    vertex 102.64526215305008 -75.35224142699175 0.9999999999947927
    vertex 102.75080004021851 -67.14406293210757 0.9999999999947927
  endloop
endfacet
facet normal 0.0 0.0 1.0
  outer loop
    vertex 102.75080004021851 -67.14406293210757 0.9999999999947927
    vertex 102.64526215305008 -75.35224142699175 0.9999999999947927
    vertex 103.11274283785349 -71.06967349972376 0.9999999999947927
  endloop
endfacet
facet normal 0.0 0.0 1.0
  outer loop
    vertex 68.44945272965417 -78.75530139484307 0.9999999999947927
    vertex 73.31485670676994 -71.8335959969587 0.9999999999947927
    vertex 66.27817943907026 -74.40700238523316 0.9999999999947927
  endloop
endfacet
facet normal 0.0 0.0 1.0
  outer loop
    vertex 73.31485670676994 -71.8335959969587 0.9999999999947927
    vertex 68.44945272965417 -78.75530139484307 0.9999999999947927
    vertex 71.74682141224528 -82.4699128871688 0.9999999999947927
  endloop
endfacet
facet normal 0.0 0.0 1.0
  outer loop
    vertex 73.31485670676994 -71.8335959969587 0.9999999999947927
    vertex 71.74682141224528 -82.4699128871688 0.9999999999947927
    vertex 76.02946603855904 -85.26965815991488 0.9999999999947927
  endloop
endfacet
facet normal 0.0 0.0 1.0
  outer loop
    vertex 73.31485670676994 -71.8335959969587 0.9999999999947927
    vertex 76.02946603855904 -85.26965815991488 0.9999999999947927
    vertex 75.33556977023821 -75.18618799260284 0.9999999999947927
  endloop
endfacet
facet normal 0.0 0.0 1.0
  outer loop
    vertex 75.33556977023821 -75.18618799260284 0.9999999999947927
    vertex 76.02946603855904 -85.26965815991488 0.9999999999947927
    vertex 78.1002635790043 -77.84526721515562 0.9999999999947927
  endloop
endfacet
facet normal 0.0 0.0 1.0
  outer loop
    vertex 78.1002635790043 -77.84526721515562 0.9999999999947927
    vertex 76.02946603855904 -85.26965815991488 0.9999999999947927
    vertex 81.1565671603098 -86.87335851078593 0.9999999999947927
  endloop
endfacet
facet normal 0.0 0.0 1.0
  outer loop
    vertex 78.1002635790043 -77.84526721515562 0.9999999999947927
    vertex 81.1565671603098 -86.87335851078593 0.9999999999947927
    vertex 81.49833810887236 -79.57950934216042 0.9999999999947927
  endloop
endfacet
facet normal 0.8582947591652103 0.5131569997471865 0.0
  outer loop
    vertex 99.99101497039022 -61.011667415652994 0.5999999999947926
    vertex 101.66497164731142 -63.81148938744505 0.9999999999947927
    vertex 101.66497164731142 -63.81148938744505 0.5999999999947926
  endloop
endfacet
facet normal 0.8582947591652103 0.5131569997471865 0.0
  outer loop
    vertex 101.66497164731142 -63.81148938744505 0.9999999999947927
    vertex 99.99101497039022 -61.011667415652994 0.5999999999947926
    vertex 99.99101497039022 -61.011667415652994 0.9999999999947927
  endloop
endfacet
facet normal 0.6286261604139716 -0.7777076252957714 0.0
  outer loop
    vertex 99.02606427383286 -82.06770309043209 0.9999999999947927
    vertex 96.1156422778426 -84.42021622649389 0.5999999999947926
    vertex 99.02606427383286 -82.06770309043209 0.5999999999947926
  endloop
endfacet
facet normal 0.6286261604139716 -0.7777076252957714 0.0
  outer loop
    vertex 96.1156422778426 -84.42021622649389 0.5999999999947926
    vertex 99.02606427383286 -82.06770309043209 0.9999999999947927
    vertex 96.1156422778426 -84.42021622649389 0.9999999999947927
  endloop
endfacet
facet normal -0.2985261837740924 -0.9544014446768598 0.0
  outer loop
    vertex 81.1565671603098 -86.87335851078593 0.9999999999947927
    vertex 76.02946603855904 -85.26965815991488 0.5999999999947926
    vertex 81.1565671603098 -86.87335851078593 0.5999999999947926
  endloop
endfacet
facet normal -0.2985261837740924 -0.9544014446768598 0.0
  outer loop
    vertex 76.02946603855904 -85.26965815991488 0.5999999999947926
    vertex 81.1565671603098 -86.87335851078593 0.9999999999947927
    vertex 76.02946603855904 -85.26965815991488 0.9999999999947927
  endloop
endfacet
facet normal 0.5635642048997273 0.8260722649718598 0.0
  outer loop
    vertex 97.156856740753 -58.201414373617084 0.9999999999947927
    vertex 97.86468732070792 -58.68431156664849 0.5999999999947926
    vertex 97.156856740753 -58.201414373617084 0.5999999999947926
  endloop
endfacet
facet normal 0.5635642048997273 0.8260722649718598 0.0
  outer loop
    vertex 97.86468732070792 -58.68431156664849 0.5999999999947926
    vertex 97.156856740753 -58.201414373617084 0.9999999999947927
    vertex 97.86468732070792 -58.68431156664849 0.9999999999947927
  endloop
endfacet
facet normal 0.8076317984778176 -0.5896871018493502 0.0
  outer loop
    vertex 101.24282009863916 -79.03164805724626 0.5999999999947926
    vertex 99.02606427383286 -82.06770309043209 0.9999999999947927
    vertex 99.02606427383286 -82.06770309043209 0.5999999999947926
  endloop
endfacet
facet normal 0.8076317984778176 -0.5896871018493502 0.0
  outer loop
    vertex 99.02606427383286 -82.06770309043209 0.9999999999947927
    vertex 101.24282009863916 -79.03164805724626 0.5999999999947926
    vertex 101.24282009863916 -79.03164805724626 0.9999999999947927
  endloop
endfacet
facet normal 0.9344232283596308 -0.3561646112431237 0.0
  outer loop
    vertex 102.64526215305008 -75.35224142699175 0.5999999999947926
    vertex 101.24282009863916 -79.03164805724626 0.9999999999947927
    vertex 101.24282009863916 -79.03164805724626 0.5999999999947926
  endloop
endfacet
facet normal 0.9344232283596308 -0.3561646112431237 0.0
  outer loop
    vertex 101.24282009863916 -79.03164805724626 0.9999999999947927
    vertex 102.64526215305008 -75.35224142699175 0.5999999999947926
    vertex 102.64526215305008 -75.35224142699175 0.9999999999947927
  endloop
endfacet
facet normal 0.4545806998223454 0.8907055559212745 0.0
  outer loop
    vertex 78.1002635790043 -77.84526721515562 0.9999999999947927
    vertex 81.49833810887236 -79.57950934216042 0.5999999999947926
    vertex 78.1002635790043 -77.84526721515562 0.5999999999947926
  endloop
endfacet
facet normal 0.4545806998223454 0.8907055559212745 0.0
  outer loop
    vertex 81.49833810887236 -79.57950934216042 0.5999999999947926
    vertex 78.1002635790043 -77.84526721515562 0.9999999999947927
    vertex 81.49833810887236 -79.57950934216042 0.9999999999947927
  endloop
endfacet
facet normal 0.4272974928326855 -0.9041110842252192 0.0
  outer loop
    vertex 96.1156422778426 -84.42021622649389 0.9999999999947927
    vertex 92.62713957285145 -86.06893891731252 0.5999999999947926
    vertex 96.1156422778426 -84.42021622649389 0.5999999999947926
  endloop
endfacet
facet normal 0.4272974928326855 -0.9041110842252192 0.0
  outer loop
    vertex 92.62713957285145 -86.06893891731252 0.5999999999947926
    vertex 96.1156422778426 -84.42021622649389 0.9999999999947927
    vertex 92.62713957285145 -86.06893891731252 0.9999999999947927
  endloop
endfacet
facet normal -0.7478598330834205 -0.6638566637915436 0.0
  outer loop
    vertex 68.44945272965417 -78.75530139484307 0.9999999999947927
    vertex 71.74682141224528 -82.4699128871688 0.5999999999947926
    vertex 71.74682141224528 -82.4699128871688 0.9999999999947927
  endloop
endfacet
facet normal -0.7478598330834205 -0.6638566637915436 0.0
  outer loop
    vertex 71.74682141224528 -82.4699128871688 0.5999999999947926
    vertex 68.44945272965417 -78.75530139484307 0.9999999999947927
    vertex 68.44945272965417 -78.75530139484307 0.5999999999947926
  endloop
endfacet
facet normal 0.995776453689082 0.09181097035973214 0.0
  outer loop
    vertex 102.75080004021851 -67.14406293210757 0.5999999999947926
    vertex 103.11274283785349 -71.06967349972376 0.9999999999947927
    vertex 103.11274283785349 -71.06967349972376 0.5999999999947926
  endloop
endfacet
facet normal 0.995776453689082 0.09181097035973214 0.0
  outer loop
    vertex 103.11274283785349 -71.06967349972376 0.9999999999947927
    vertex 102.75080004021851 -67.14406293210757 0.5999999999947926
    vertex 102.75080004021851 -67.14406293210757 0.9999999999947927
  endloop
endfacet
facet normal -0.40308659695930693 -0.9151618410706194 0.0
  outer loop
    vertex 83.85085124493344 -59.649492360343075 0.9999999999947927
    vertex 80.56315642614544 -58.201414373617084 0.5999999999947926
    vertex 83.85085124493344 -59.649492360343075 0.5999999999947926
  endloop
endfacet
facet normal -0.40308659695930693 -0.9151618410706194 0.0
  outer loop
    vertex 80.56315642614544 -58.201414373617084 0.5999999999947926
    vertex 83.85085124493344 -59.649492360343075 0.9999999999947927
    vertex 80.56315642614544 -58.201414373617084 0.9999999999947927
  endloop
endfacet
facet normal 0.693206210448502 0.7207393077914005 0.0
  outer loop
    vertex 75.33556977023821 -75.18618799260284 0.9999999999947927
    vertex 78.1002635790043 -77.84526721515562 0.5999999999947926
    vertex 75.33556977023821 -75.18618799260284 0.5999999999947926
  endloop
endfacet
facet normal 0.693206210448502 0.7207393077914005 0.0
  outer loop
    vertex 78.1002635790043 -77.84526721515562 0.5999999999947926
    vertex 75.33556977023821 -75.18618799260284 0.9999999999947927
    vertex 78.1002635790043 -77.84526721515562 0.9999999999947927
  endloop
endfacet
facet normal -0.7298914629176879 -0.6835630566084431 0.0
  outer loop
    vertex 91.80768696637922 -64.02241176368958 0.9999999999947927
    vertex 93.66249999355055 -66.0029345271021 0.5999999999947926
    vertex 93.66249999355055 -66.0029345271021 0.9999999999947927
  endloop
endfacet
facet normal -0.7298914629176879 -0.6835630566084431 0.0
  outer loop
    vertex 93.66249999355055 -66.0029345271021 0.5999999999947926
    vertex 91.80768696637922 -64.02241176368958 0.9999999999947927
    vertex 91.80768696637922 -64.02241176368958 0.5999999999947926
  endloop
endfacet
facet normal -0.8946637784694985 -0.4467401073271576 0.0
  outer loop
    vertex 66.27817943907026 -74.40700238523316 0.9999999999947927
    vertex 68.44945272965417 -78.75530139484307 0.5999999999947926
    vertex 68.44945272965417 -78.75530139484307 0.9999999999947927
  endloop
endfacet
facet normal -0.8946637784694985 -0.4467401073271576 0.0
  outer loop
    vertex 68.44945272965417 -78.75530139484307 0.5999999999947926
    vertex 66.27817943907026 -74.40700238523316 0.9999999999947927
    vertex 66.27817943907026 -74.40700238523316 0.5999999999947926
  endloop
endfacet
facet normal 0.22788027328224517 -0.9736891603837486 0.0
  outer loop
    vertex 92.62713957285145 -86.06893891731252 0.9999999999947927
    vertex 88.67614162103962 -86.99362261476853 0.5999999999947926
    vertex 92.62713957285145 -86.06893891731252 0.5999999999947926
  endloop
endfacet
facet normal 0.22788027328224517 -0.9736891603837486 0.0
  outer loop
    vertex 88.67614162103962 -86.99362261476853 0.5999999999947926
    vertex 92.62713957285145 -86.06893891731252 0.9999999999947927
    vertex 88.67614162103962 -86.99362261476853 0.9999999999947927
  endloop
endfacet
facet normal -0.9855499632885281 0.16938497531357688 0.0
  outer loop
    vertex 95.27103238431417 -71.18993760370634 0.9999999999947927
    vertex 94.607508938172 -75.05058407943932 0.5999999999947926
    vertex 94.607508938172 -75.05058407943932 0.9999999999947927
  endloop
endfacet
facet normal -0.9855499632885281 0.16938497531357688 0.0
  outer loop
    vertex 94.607508938172 -75.05058407943932 0.5999999999947926
    vertex 95.27103238431417 -71.18993760370634 0.9999999999947927
    vertex 95.27103238431417 -71.18993760370634 0.5999999999947926
  endloop
endfacet
facet normal 0.9508038452999124 0.3097935566839642 0.0
  outer loop
    vertex 101.66497164731142 -63.81148938744505 0.5999999999947926
    vertex 102.75080004021851 -67.14406293210757 0.9999999999947927
    vertex 102.75080004021851 -67.14406293210757 0.5999999999947926
  endloop
endfacet
facet normal 0.9508038452999124 0.3097935566839642 0.0
  outer loop
    vertex 102.75080004021851 -67.14406293210757 0.9999999999947927
    vertex 101.66497164731142 -63.81148938744505 0.5999999999947926
    vertex 101.66497164731142 -63.81148938744505 0.9999999999947927
  endloop
endfacet
facet normal 0.14586058209302669 0.9893051554457216 0.0
  outer loop
    vertex 81.49833810887236 -79.57950934216042 0.9999999999947927
    vertex 85.4191933356413 -80.15759005116203 0.5999999999947926
    vertex 81.49833810887236 -79.57950934216042 0.5999999999947926
  endloop
endfacet
facet normal 0.14586058209302669 0.9893051554457216 0.0
  outer loop
    vertex 85.4191933356413 -80.15759005116203 0.5999999999947926
    vertex 81.49833810887236 -79.57950934216042 0.9999999999947927
    vertex 85.4191933356413 -80.15759005116203 0.9999999999947927
  endloop
endfacet
facet normal 0.9940948806622151 -0.10851436882356412 0.0
  outer loop
    vertex 103.11274283785349 -71.06967349972376 0.5999999999947926
    vertex 102.64526215305008 -75.35224142699175 0.9999999999947927
    vertex 102.64526215305008 -75.35224142699175 0.5999999999947926
  endloop
endfacet
facet normal 0.9940948806622151 -0.10851436882356412 0.0
  outer loop
    vertex 102.64526215305008 -75.35224142699175 0.9999999999947927
    vertex 103.11274283785349 -71.06967349972376 0.5999999999947926
    vertex 103.11274283785349 -71.06967349972376 0.9999999999947927
  endloop
endfacet
facet normal -0.48180899237921326 0.8762762662896487 0.0
  outer loop
    vertex 89.49045539143572 -79.58457147919056 0.9999999999947927
    vertex 92.61693859974555 -77.8655157632751 0.5999999999947926
    vertex 89.49045539143572 -79.58457147919056 0.5999999999947926
  endloop
endfacet
facet normal -0.48180899237921326 0.8762762662896487 0.0
  outer loop
    vertex 92.61693859974555 -77.8655157632751 0.5999999999947926
    vertex 89.49045539143572 -79.58457147919056 0.9999999999947927
    vertex 92.61693859974555 -77.8655157632751 0.9999999999947927
  endloop
endfacet
facet normal 2.5386884040886628e-14 1.4117614706056249e-14 -1.0
  outer loop
    vertex 75.02396504064907 -85.59802067832241 -5.001386804703855e-12
    vertex 77.93914237748518 -89.73641437361603 -5.689458626445542e-12
    vertex 70.70120681332591 -89.73641437361603 -5.644339162724776e-12
  endloop
endfacet
facet normal 2.5386884040886628e-14 1.4117614706056249e-14 -1.0
  outer loop
    vertex 77.93914237748518 -89.73641437361603 -5.689458626445542e-12
    vertex 75.02396504064907 -85.59802067832241 -5.001386804703855e-12
    vertex 80.19102636531746 -78.55706514109106 -4.888588145401939e-12
  endloop
endfacet
facet normal 2.5386884040886628e-14 1.4117614706056249e-14 -1.0
  outer loop
    vertex 77.93914237748518 -89.73641437361603 -5.689458626445542e-12
    vertex 80.19102636531746 -78.55706514109106 -4.888588145401939e-12
    vertex 81.82463934409238 -86.34223433429118 -5.1254653299359625e-12
  endloop
endfacet
facet normal 2.5386884040886628e-14 1.4117614706056249e-14 -1.0
  outer loop
    vertex 81.82463934409238 -86.34223433429118 -5.1254653299359625e-12
    vertex 80.19102636531746 -78.55706514109106 -4.888588145401939e-12
    vertex 82.55841911628575 -74.10492731285288 -4.5501921674961916e-12
  endloop
endfacet
facet normal 2.5386884040886628e-14 1.4117614706056249e-14 -1.0
  outer loop
    vertex 81.82463934409238 -86.34223433429118 -5.1254653299359625e-12
    vertex 82.55841911628575 -74.10492731285288 -4.5501921674961916e-12
    vertex 85.51915568639059 -82.15226430384635 -4.832188815750981e-12
  endloop
endfacet
facet normal 2.5386884040886628e-14 1.4117614706056249e-14 -1.0
  outer loop
    vertex 85.51915568639059 -82.15226430384635 -4.832188815750981e-12
    vertex 82.55841911628575 -74.10492731285288 -4.5501921674961916e-12
    vertex 84.5137845926399 -69.1001654835999 -4.685550558658491e-12
  endloop
endfacet
facet normal 2.5386884040886628e-14 1.4117614706056249e-14 -1.0
  outer loop
    vertex 85.51915568639059 -82.15226430384635 -4.832188815750981e-12
    vertex 84.5137845926399 -69.1001654835999 -4.685550558658491e-12
    vertex 85.82579847192683 -63.59449885921863 -4.561472033426383e-12
  endloop
endfacet
facet normal 2.5386884040886628e-14 1.4117614706056249e-14 -1.0
  outer loop
    vertex 85.51915568639059 -82.15226430384635 -4.832188815750981e-12
    vertex 85.82579847192683 -63.59449885921863 -4.561472033426383e-12
    vertex 88.78645834298605 -77.18050561426095 -4.775789486100023e-12
  endloop
endfacet
facet normal 2.5386884040886628e-14 1.4117614706056249e-14 -1.0
  outer loop
    vertex 88.78645834298605 -77.18050561426095 -4.775789486100023e-12
    vertex 85.82579847192683 -63.59449885921863 -4.561472033426383e-12
    vertex 86.2218789255046 -58.20141437361688 -4.741949888309449e-12
  endloop
endfacet
facet normal 2.5386884040886628e-14 1.4117614706056249e-14 -1.0
  outer loop
    vertex 88.78645834298605 -77.18050561426095 -4.775789486100023e-12
    vertex 86.2218789255046 -58.20141437361688 -4.741949888309449e-12
    vertex 87.82583580827972 -58.20141437361715 -4.7193901564490654e-12
  endloop
endfacet
facet normal 2.5386884040886628e-14 1.4117614706056249e-14 -1.0
  outer loop
    vertex 88.78645834298605 -77.18050561426095 -4.775789486100023e-12
    vertex 87.82583580827972 -58.20141437361715 -4.7193901564490654e-12
    vertex 93.61866971507591 -58.20141437361715 -4.572751899356575e-12
  endloop
endfacet
facet normal 2.5386884040886628e-14 1.4117614706056249e-14 -1.0
  outer loop
    vertex 88.78645834298605 -77.18050561426095 -4.775789486100023e-12
    vertex 93.61866971507591 -58.20141437361715 -4.572751899356575e-12
    vertex 91.39031425248571 -71.44095959751614 -4.685550558658491e-12
  endloop
endfacet
facet normal 2.5386884040886628e-14 1.4117614706056249e-14 -1.0
  outer loop
    vertex 91.39031425248571 -71.44095959751614 -4.685550558658491e-12
    vertex 93.61866971507591 -58.20141437361715 -4.572751899356575e-12
    vertex 93.0944136544487 -64.92891151937322 -4.493792837845234e-12
  endloop
endfacet
facet normal -0.3434652608751778 0.939165381906694 0.0
  outer loop
    vertex 66.27817943907026 -74.40700238523316 0.9999999999947927
    vertex 73.31485670676994 -71.8335959969587 0.5999999999947926
    vertex 66.27817943907026 -74.40700238523316 0.5999999999947926
  endloop
endfacet
facet normal -0.3434652608751778 0.939165381906694 0.0
  outer loop
    vertex 73.31485670676994 -71.8335959969587 0.5999999999947926
    vertex 66.27817943907026 -74.40700238523316 0.9999999999947927
    vertex 73.31485670676994 -71.8335959969587 0.9999999999947927
  endloop
endfacet
facet normal -0.43291858434953456 -0.9014330254238498 0.0
  outer loop
    vertex 89.46031266639392 -62.34346964878351 0.9999999999947927
    vertex 83.85085124493344 -59.649492360343075 0.5999999999947926
    vertex 89.46031266639392 -62.34346964878351 0.5999999999947926
  endloop
endfacet
facet normal -0.43291858434953456 -0.9014330254238498 0.0
  outer loop
    vertex 83.85085124493344 -59.649492360343075 0.5999999999947926
    vertex 89.46031266639392 -62.34346964878351 0.9999999999947927
    vertex 83.85085124493344 -59.649492360343075 0.9999999999947927
  endloop
endfacet
facet normal -0.9900171250266394 -0.14094712538390988 0.0
  outer loop
    vertex 94.86889928662345 -68.36534184008623 0.9999999999947927
    vertex 95.27103238431417 -71.18993760370634 0.5999999999947926
    vertex 95.27103238431417 -71.18993760370634 0.9999999999947927
  endloop
endfacet
facet normal -0.9900171250266394 -0.14094712538390988 0.0
  outer loop
    vertex 95.27103238431417 -71.18993760370634 0.5999999999947926
    vertex 94.86889928662345 -68.36534184008623 0.9999999999947927
    vertex 94.86889928662345 -68.36534184008623 0.5999999999947926
  endloop
endfacet
facet normal 0.0 1.0 0.0
  outer loop
    vertex 80.56315642614544 -58.201414373617084 0.9999999999947927
    vertex 97.156856740753 -58.201414373617084 0.5999999999947926
    vertex 80.56315642614544 -58.201414373617084 0.5999999999947926
  endloop
endfacet
facet normal 0.0 1.0 0.0
  outer loop
    vertex 97.156856740753 -58.201414373617084 0.5999999999947926
    vertex 80.56315642614544 -58.201414373617084 0.9999999999947927
    vertex 97.156856740753 -58.201414373617084 0.9999999999947927
  endloop
endfacet
facet normal 7.211529373488083e-33 -6.84651883395601e-33 -1.0
  outer loop
    vertex 97.156856740753 -58.201414373617084 0.5999999999947926
    vertex 83.85085124493344 -59.649492360343075 0.5999999999947926
    vertex 80.56315642614544 -58.201414373617084 0.5999999999947926
  endloop
endfacet
facet normal 7.211529373488083e-33 -6.84651883395601e-33 -1.0
  outer loop
    vertex 83.85085124493344 -59.649492360343075 0.5999999999947926
    vertex 97.156856740753 -58.201414373617084 0.5999999999947926
    vertex 89.46031266639392 -62.34346964878351 0.5999999999947926
  endloop
endfacet
facet normal 7.211529373488083e-33 -6.84651883395601e-33 -1.0
  outer loop
    vertex 89.46031266639392 -62.34346964878351 0.5999999999947926
    vertex 97.156856740753 -58.201414373617084 0.5999999999947926
    vertex 91.80768696637922 -64.02241176368958 0.5999999999947926
  endloop
endfacet
facet normal 7.211529373488083e-33 -6.84651883395601e-33 -1.0
  outer loop
    vertex 91.80768696637922 -64.02241176368958 0.5999999999947926
    vertex 97.156856740753 -58.201414373617084 0.5999999999947926
    vertex 93.66249999355055 -66.0029345271021 0.5999999999947926
  endloop
endfacet
facet normal 7.211529373488083e-33 -6.84651883395601e-33 -1.0
  outer loop
    vertex 93.66249999355055 -66.0029345271021 0.5999999999947926
    vertex 97.156856740753 -58.201414373617084 0.5999999999947926
    vertex 94.86889928662345 -68.36534184008623 0.5999999999947926
  endloop
endfacet
facet normal 7.211529373488083e-33 -6.84651883395601e-33 -1.0
  outer loop
    vertex 94.86889928662345 -68.36534184008623 0.5999999999947926
    vertex 97.156856740753 -58.201414373617084 0.5999999999947926
    vertex 95.27103238431417 -71.18993760370634 0.5999999999947926
  endloop
endfacet
facet normal 7.211529373488083e-33 -6.84651883395601e-33 -1.0
  outer loop
    vertex 95.27103238431417 -71.18993760370634 0.5999999999947926
    vertex 97.156856740753 -58.201414373617084 0.5999999999947926
    vertex 96.1156422778426 -84.42021622649389 0.5999999999947926
  endloop
endfacet
facet normal 7.211529373488083e-33 -6.84651883395601e-33 -1.0
  outer loop
    vertex 96.1156422778426 -84.42021622649389 0.5999999999947926
    vertex 97.156856740753 -58.201414373617084 0.5999999999947926
    vertex 99.02606427383286 -82.06770309043209 0.5999999999947926
  endloop
endfacet
facet normal 7.211529373488083e-33 -6.84651883395601e-33 -1.0
  outer loop
    vertex 99.02606427383286 -82.06770309043209 0.5999999999947926
    vertex 97.156856740753 -58.201414373617084 0.5999999999947926
    vertex 97.86468732070792 -58.68431156664849 0.5999999999947926
  endloop
endfacet
facet normal 7.211529373488083e-33 -6.84651883395601e-33 -1.0
  outer loop
    vertex 99.02606427383286 -82.06770309043209 0.5999999999947926
    vertex 97.86468732070792 -58.68431156664849 0.5999999999947926
    vertex 99.99101497039022 -61.011667415652994 0.5999999999947926
  endloop
endfacet
facet normal 7.211529373488083e-33 -6.84651883395601e-33 -1.0
  outer loop
    vertex 99.02606427383286 -82.06770309043209 0.5999999999947926
    vertex 99.99101497039022 -61.011667415652994 0.5999999999947926
    vertex 101.24282009863916 -79.03164805724626 0.5999999999947926
  endloop
endfacet
facet normal 7.211529373488083e-33 -6.84651883395601e-33 -1.0
  outer loop
    vertex 101.24282009863916 -79.03164805724626 0.5999999999947926
    vertex 99.99101497039022 -61.011667415652994 0.5999999999947926
    vertex 101.66497164731142 -63.81148938744505 0.5999999999947926
  endloop
endfacet
facet normal 7.211529373488083e-33 -6.84651883395601e-33 -1.0
  outer loop
    vertex 101.24282009863916 -79.03164805724626 0.5999999999947926
    vertex 101.66497164731142 -63.81148938744505 0.5999999999947926
    vertex 102.64526215305008 -75.35224142699175 0.5999999999947926
  endloop
endfacet
facet normal 7.211529373488083e-33 -6.84651883395601e-33 -1.0
  outer loop
    vertex 102.64526215305008 -75.35224142699175 0.5999999999947926
    vertex 101.66497164731142 -63.81148938744505 0.5999999999947926
    vertex 102.75080004021851 -67.14406293210757 0.5999999999947926
  endloop
endfacet
facet normal 7.211529373488083e-33 -6.84651883395601e-33 -1.0
  outer loop
    vertex 102.64526215305008 -75.35224142699175 0.5999999999947926
    vertex 102.75080004021851 -67.14406293210757 0.5999999999947926
    vertex 103.11274283785349 -71.06967349972376 0.5999999999947926
  endloop
endfacet
facet normal 7.211529373488083e-33 -6.84651883395601e-33 -1.0
  outer loop
    vertex 89.49045539143572 -79.58457147919056 0.5999999999947926
    vertex 88.67614162103962 -86.99362261476853 0.5999999999947926
    vertex 85.4191933356413 -80.15759005116203 0.5999999999947926
  endloop
endfacet
facet normal 7.211529373488083e-33 -6.84651883395601e-33 -1.0
  outer loop
    vertex 88.67614162103962 -86.99362261476853 0.5999999999947926
    vertex 89.49045539143572 -79.58457147919056 0.5999999999947926
    vertex 92.62713957285145 -86.06893891731252 0.5999999999947926
  endloop
endfacet
facet normal 7.211529373488083e-33 -6.84651883395601e-33 -1.0
  outer loop
    vertex 92.62713957285145 -86.06893891731252 0.5999999999947926
    vertex 89.49045539143572 -79.58457147919056 0.5999999999947926
    vertex 92.61693859974555 -77.8655157632751 0.5999999999947926
  endloop
endfacet
facet normal 7.211529373488083e-33 -6.84651883395601e-33 -1.0
  outer loop
    vertex 92.62713957285145 -86.06893891731252 0.5999999999947926
    vertex 92.61693859974555 -77.8655157632751 0.5999999999947926
    vertex 94.607508938172 -75.05058407943932 0.5999999999947926
  endloop
endfacet
facet normal 7.211529373488083e-33 -6.84651883395601e-33 -1.0
  outer loop
    vertex 92.62713957285145 -86.06893891731252 0.5999999999947926
    vertex 94.607508938172 -75.05058407943932 0.5999999999947926
    vertex 96.1156422778426 -84.42021622649389 0.5999999999947926
  endloop
endfacet
facet normal 7.211529373488083e-33 -6.84651883395601e-33 -1.0
  outer loop
    vertex 96.1156422778426 -84.42021622649389 0.5999999999947926
    vertex 94.607508938172 -75.05058407943932 0.5999999999947926
    vertex 95.27103238431417 -71.18993760370634 0.5999999999947926
  endloop
endfacet
facet normal 7.211529373488083e-33 -6.84651883395601e-33 -1.0
  outer loop
    vertex 73.31485670676994 -71.8335959969587 0.5999999999947926
    vertex 68.44945272965417 -78.75530139484307 0.5999999999947926
    vertex 66.27817943907026 -74.40700238523316 0.5999999999947926
  endloop
endfacet
facet normal 7.211529373488083e-33 -6.84651883395601e-33 -1.0
  outer loop
    vertex 68.44945272965417 -78.75530139484307 0.5999999999947926
    vertex 73.31485670676994 -71.8335959969587 0.5999999999947926
    vertex 71.74682141224528 -82.4699128871688 0.5999999999947926
  endloop
endfacet
facet normal 7.211529373488083e-33 -6.84651883395601e-33 -1.0
  outer loop
    vertex 71.74682141224528 -82.4699128871688 0.5999999999947926
    vertex 73.31485670676994 -71.8335959969587 0.5999999999947926
    vertex 76.02946603855904 -85.26965815991488 0.5999999999947926
  endloop
endfacet
facet normal 7.211529373488083e-33 -6.84651883395601e-33 -1.0
  outer loop
    vertex 76.02946603855904 -85.26965815991488 0.5999999999947926
    vertex 73.31485670676994 -71.8335959969587 0.5999999999947926
    vertex 75.33556977023821 -75.18618799260284 0.5999999999947926
  endloop
endfacet
facet normal 7.211529373488083e-33 -6.84651883395601e-33 -1.0
  outer loop
    vertex 76.02946603855904 -85.26965815991488 0.5999999999947926
    vertex 75.33556977023821 -75.18618799260284 0.5999999999947926
    vertex 78.1002635790043 -77.84526721515562 0.5999999999947926
  endloop
endfacet
facet normal 7.211529373488083e-33 -6.84651883395601e-33 -1.0
  outer loop
    vertex 76.02946603855904 -85.26965815991488 0.5999999999947926
    vertex 78.1002635790043 -77.84526721515562 0.5999999999947926
    vertex 81.1565671603098 -86.87335851078593 0.5999999999947926
  endloop
endfacet
facet normal 7.211529373488083e-33 -6.84651883395601e-33 -1.0
  outer loop
    vertex 81.1565671603098 -86.87335851078593 0.5999999999947926
    vertex 78.1002635790043 -77.84526721515562 0.5999999999947926
    vertex 81.49833810887236 -79.57950934216042 0.5999999999947926
  endloop
endfacet
facet normal 7.211529373488083e-33 -6.84651883395601e-33 -1.0
  outer loop
    vertex 81.1565671603098 -86.87335851078593 0.5999999999947926
    vertex 81.49833810887236 -79.57950934216042 0.5999999999947926
    vertex 81.1565671603098 -89.49362261476831 0.5999999999947926
  endloop
endfacet
facet normal 7.211529373488083e-33 -6.84651883395601e-33 -1.0
  outer loop
    vertex 81.1565671603098 -89.49362261476831 0.5999999999947926
    vertex 81.49833810887236 -79.57950934216042 0.5999999999947926
    vertex 88.67614162103962 -89.49362261476831 0.5999999999947926
  endloop
endfacet
facet normal 7.211529373488083e-33 -6.84651883395601e-33 -1.0
  outer loop
    vertex 88.67614162103962 -89.49362261476831 0.5999999999947926
    vertex 81.49833810887236 -79.57950934216042 0.5999999999947926
    vertex 85.4191933356413 -80.15759005116203 0.5999999999947926
  endloop
endfacet
facet normal 7.211529373488083e-33 -6.84651883395601e-33 -1.0
  outer loop
    vertex 88.67614162103962 -89.49362261476831 0.5999999999947926
    vertex 85.4191933356413 -80.15759005116203 0.5999999999947926
    vertex 88.67614162103962 -86.99362261476853 0.5999999999947926
  endloop
endfacet
facet normal -0.8905955469403426 -0.4547961870662859 0.0
  outer loop
    vertex 93.66249999355055 -66.0029345271021 0.9999999999947927
    vertex 94.86889928662345 -68.36534184008623 0.5999999999947926
    vertex 94.86889928662345 -68.36534184008623 0.9999999999947927
  endloop
endfacet
facet normal -0.8905955469403426 -0.4547961870662859 0.0
  outer loop
    vertex 94.86889928662345 -68.36534184008623 0.5999999999947926
    vertex 93.66249999355055 -66.0029345271021 0.9999999999947927
    vertex 93.66249999355055 -66.0029345271021 0.5999999999947926
  endloop
endfacet
facet normal -0.8164811221670489 0.5773721305577857 0.0
  outer loop
    vertex 94.607508938172 -75.05058407943932 0.9999999999947927
    vertex 92.61693859974555 -77.8655157632751 0.5999999999947926
    vertex 92.61693859974555 -77.8655157632751 0.9999999999947927
  endloop
endfacet
facet normal -0.8164811221670489 0.5773721305577857 0.0
  outer loop
    vertex 92.61693859974555 -77.8655157632751 0.5999999999947926
    vertex 94.607508938172 -75.05058407943932 0.9999999999947927
    vertex 94.607508938172 -75.05058407943932 0.5999999999947926
  endloop
endfacet
facet normal -0.581753440320736 -0.8133651914576797 0.0
  outer loop
    vertex 91.80768696637922 -64.02241176368958 0.9999999999947927
    vertex 89.46031266639392 -62.34346964878351 0.5999999999947926
    vertex 91.80768696637922 -64.02241176368958 0.5999999999947926
  endloop
endfacet
facet normal -0.581753440320736 -0.8133651914576797 0.0
  outer loop
    vertex 89.46031266639392 -62.34346964878351 0.5999999999947926
    vertex 91.80768696637922 -64.02241176368958 0.9999999999947927
    vertex 89.46031266639392 -62.34346964878351 0.9999999999947927
  endloop
endfacet
facet normal -0.13937345231102605 0.9902398905269906 0.0
  outer loop
    vertex 85.4191933356413 -80.15759005116203 0.9999999999947927
    vertex 89.49045539143572 -79.58457147919056 0.5999999999947926
    vertex 85.4191933356413 -80.15759005116203 0.5999999999947926
  endloop
endfacet
facet normal -0.13937345231102605 0.9902398905269906 0.0
  outer loop
    vertex 89.49045539143572 -79.58457147919056 0.5999999999947926
    vertex 85.4191933356413 -80.15759005116203 0.9999999999947927
    vertex 89.49045539143572 -79.58457147919056 0.9999999999947927
  endloop
endfacet
facet normal -1.0 0.0 0.0
  outer loop
    vertex 81.1565671603098 -86.87335851078593 0.9999999999947927
    vertex 81.1565671603098 -89.49362261476831 0.5999999999947926
    vertex 81.1565671603098 -89.49362261476831 0.9999999999947927
  endloop
endfacet
facet normal -1.0 0.0 0.0
  outer loop
    vertex 81.1565671603098 -89.49362261476831 0.5999999999947926
    vertex 81.1565671603098 -86.87335851078593 0.9999999999947927
    vertex 81.1565671603098 -86.87335851078593 0.5999999999947926
  endloop
endfacet
facet normal 0.8564590746814047 0.5162149294585271 0.0
  outer loop
    vertex 73.31485670676994 -71.8335959969587 0.5999999999947926
    vertex 75.33556977023821 -75.18618799260284 0.9999999999947927
    vertex 75.33556977023821 -75.18618799260284 0.5999999999947926
  endloop
endfacet
facet normal 0.8564590746814047 0.5162149294585271 0.0
  outer loop
    vertex 75.33556977023821 -75.18618799260284 0.9999999999947927
    vertex 73.31485670676994 -71.8335959969587 0.5999999999947926
    vertex 73.31485670676994 -71.8335959969587 0.9999999999947927
  endloop
endfacet
facet normal 1.0 0.0 0.0
  outer loop
    vertex 88.67614162103962 -86.99362261476853 0.5999999999947926
    vertex 88.67614162103962 -89.49362261476831 0.9999999999947927
    vertex 88.67614162103962 -89.49362261476831 0.5999999999947926
  endloop
endfacet
facet normal 1.0 0.0 0.0
  outer loop
    vertex 88.67614162103962 -89.49362261476831 0.9999999999947927
    vertex 88.67614162103962 -86.99362261476853 0.5999999999947926
    vertex 88.67614162103962 -86.99362261476853 0.9999999999947927
  endloop
endfacet
facet normal 0.0 -1.0 0.0
  outer loop
    vertex 88.67614162103962 -89.49362261476831 0.9999999999947927
    vertex 81.1565671603098 -89.49362261476831 0.5999999999947926
    vertex 88.67614162103962 -89.49362261476831 0.5999999999947926
  endloop
endfacet
facet normal 0.0 -1.0 0.0
  outer loop
    vertex 81.1565671603098 -89.49362261476831 0.5999999999947926
    vertex 88.67614162103962 -89.49362261476831 0.9999999999947927
    vertex 81.1565671603098 -89.49362261476831 0.9999999999947927
  endloop
endfacet
facet normal -0.5471883753703003 -0.8370094873175642 0.0
  outer loop
    vertex 76.02946603855904 -85.26965815991488 0.9999999999947927
    vertex 71.74682141224528 -82.4699128871688 0.5999999999947926
    vertex 76.02946603855904 -85.26965815991488 0.5999999999947926
  endloop
endfacet
facet normal -0.5471883753703003 -0.8370094873175642 0.0
  outer loop
    vertex 71.74682141224528 -82.4699128871688 0.5999999999947926
    vertex 76.02946603855904 -85.26965815991488 0.9999999999947927
    vertex 71.74682141224528 -82.4699128871688 0.9999999999947927
  endloop
endfacet
facet normal 0.0 -1.0 0.0
  outer loop
    vertex 77.93914237748518 -89.73641437361603 0.3999999999943104
    vertex 70.70120681332591 -89.73641437361603 -5.644339162724776e-12
    vertex 77.93914237748518 -89.73641437361603 -5.689458626445542e-12
  endloop
endfacet
facet normal 0.0 -1.0 0.0
  outer loop
    vertex 70.70120681332591 -89.73641437361603 -5.644339162724776e-12
    vertex 77.93914237748518 -89.73641437361603 0.3999999999943104
    vertex 70.70120681332591 -89.73641437361603 0.39999999999435554
  endloop
endfacet
facet normal 0.7382721297702001 0.6745029743482033 0.0
  outer loop
    vertex 97.86468732070792 -58.68431156664849 0.5999999999947926
    vertex 99.99101497039022 -61.011667415652994 0.9999999999947927
    vertex 99.99101497039022 -61.011667415652994 0.5999999999947926
  endloop
endfacet
facet normal 0.7382721297702001 0.6745029743482033 0.0
  outer loop
    vertex 99.99101497039022 -61.011667415652994 0.9999999999947927
    vertex 97.86468732070792 -58.68431156664849 0.5999999999947926
    vertex 97.86468732070792 -58.68431156664849 0.9999999999947927
  endloop
endfacet
facet normal -0.8829353375358646 0.4694946109705936 1.2393530187688376e-16
  outer loop
    vertex 82.55841911628575 -74.10492731285288 0.3999999999954497
    vertex 80.19102636531746 -78.55706514109106 -4.888588145401939e-12
    vertex 80.19102636531746 -78.55706514109106 0.3999999999951113
  endloop
endfacet
facet normal -0.8829353375358646 0.4694946109705936 1.2393530187688376e-16
  outer loop
    vertex 80.19102636531746 -78.55706514109106 -4.888588145401939e-12
    vertex 82.55841911628575 -74.10492731285288 0.3999999999954497
    vertex 82.55841911628575 -74.10492731285288 -4.5501921674961916e-12
  endloop
endfacet
facet normal -0.997313976282097 0.07324501834522851 -5.407819330725999e-17
  outer loop
    vertex 86.2218789255046 -58.20141437361688 0.3999999999952579
    vertex 85.82579847192683 -63.59449885921863 -4.561472033426383e-12
    vertex 85.82579847192683 -63.59449885921863 0.3999999999954384
  endloop
endfacet
facet normal -0.997313976282097 0.07324501834522851 -5.407819330725999e-17
  outer loop
    vertex 85.82579847192683 -63.59449885921863 -4.561472033426383e-12
    vertex 86.2218789255046 -58.20141437361688 0.3999999999952579
    vertex 86.2218789255046 -58.20141437361688 -4.741949888309449e-12
  endloop
endfacet
facet normal -0.6915351107599427 0.7223428483665039 4.2792008877433487e-16
  outer loop
    vertex 70.70120681332591 -89.73641437361603 0.39999999999435554
    vertex 75.02396504064907 -85.59802067832241 -5.001386804703855e-12
    vertex 70.70120681332591 -89.73641437361603 -5.644339162724776e-12
  endloop
endfacet
facet normal -0.6915351107599427 0.7223428483665039 4.2792008877433487e-16
  outer loop
    vertex 75.02396504064907 -85.59802067832241 -5.001386804703855e-12
    vertex 70.70120681332591 -89.73641437361603 0.39999999999435554
    vertex 75.02396504064907 -85.59802067832241 0.3999999999949985
  endloop
endfacet
facet normal -0.8062032472624143 0.5916386769841356 1.1434819448256805e-15
  outer loop
    vertex 80.19102636531746 -78.55706514109106 0.3999999999951113
    vertex 75.02396504064907 -85.59802067832241 -5.001386804703855e-12
    vertex 75.02396504064907 -85.59802067832241 0.3999999999949985
  endloop
endfacet
facet normal -0.8062032472624143 0.5916386769841356 1.1434819448256805e-15
  outer loop
    vertex 75.02396504064907 -85.59802067832241 -5.001386804703855e-12
    vertex 80.19102636531746 -78.55706514109106 0.3999999999951113
    vertex 80.19102636531746 -78.55706514109106 -4.888588145401939e-12
  endloop
endfacet
facet normal 0.8356941434601641 -0.5491951370745947 -7.500446515798509e-16
  outer loop
    vertex 88.78645834298605 -77.18050561426095 -4.775789486100023e-12
    vertex 85.51915568639059 -82.15226430384635 0.3999999999951677
    vertex 85.51915568639059 -82.15226430384635 -4.832188815750981e-12
  endloop
endfacet
facet normal 0.8356941434601641 -0.5491951370745947 -7.500446515798509e-16
  outer loop
    vertex 85.51915568639059 -82.15226430384635 0.3999999999951677
    vertex 88.78645834298605 -77.18050561426095 -4.775789486100023e-12
    vertex 88.78645834298605 -77.18050561426095 0.3999999999952241
  endloop
endfacet
facet normal 1.6878058583234065e-13 1.0 2.2701965468508657e-29
  outer loop
    vertex 86.2218789255046 -58.20141437361688 0.3999999999952579
    vertex 87.82583580827972 -58.20141437361715 -4.7193901564490654e-12
    vertex 86.2218789255046 -58.20141437361688 -4.741949888309449e-12
  endloop
endfacet
facet normal 1.6878058583234065e-13 1.0 2.2701965468508657e-29
  outer loop
    vertex 87.82583580827972 -58.20141437361715 -4.7193901564490654e-12
    vertex 86.2218789255046 -58.20141437361688 0.3999999999952579
    vertex 87.82583580827972 -58.20141437361715 0.3999999999952805
  endloop
endfacet
facet normal 0.9969774230398432 -0.07769181391133756 -8.11525393589026e-17
  outer loop
    vertex 93.61866971507591 -58.20141437361715 -4.572751899356575e-12
    vertex 93.0944136544487 -64.92891151937322 0.3999999999955061
    vertex 93.0944136544487 -64.92891151937322 -4.493792837845234e-12
  endloop
endfacet
facet normal 0.9969774230398432 -0.07769181391133756 -8.11525393589026e-17
  outer loop
    vertex 93.0944136544487 -64.92891151937322 0.3999999999955061
    vertex 93.61866971507591 -58.20141437361715 -4.572751899356575e-12
    vertex 93.61866971507591 -58.20141437361715 0.3999999999954271
  endloop
endfacet
facet normal 0.750061262412358 -0.661368356234542 2.0561659014797975e-16
  outer loop
    vertex 85.51915568639059 -82.15226430384635 -4.832188815750981e-12
    vertex 81.82463934409238 -86.34223433429118 0.3999999999948744
    vertex 81.82463934409238 -86.34223433429118 -5.1254653299359625e-12
  endloop
endfacet
facet normal 0.750061262412358 -0.661368356234542 2.0561659014797975e-16
  outer loop
    vertex 81.82463934409238 -86.34223433429118 0.3999999999948744
    vertex 85.51915568639059 -82.15226430384635 -4.832188815750981e-12
    vertex 85.51915568639059 -82.15226430384635 0.3999999999951677
  endloop
endfacet
facet normal 0.6578863537679583 -0.7531172189811497 4.583185488104302e-16
  outer loop
    vertex 81.82463934409238 -86.34223433429118 -5.1254653299359625e-12
    vertex 77.93914237748518 -89.73641437361603 0.3999999999943104
    vertex 77.93914237748518 -89.73641437361603 -5.689458626445542e-12
  endloop
endfacet
facet normal 0.6578863537679583 -0.7531172189811497 4.583185488104302e-16
  outer loop
    vertex 77.93914237748518 -89.73641437361603 0.3999999999943104
    vertex 81.82463934409238 -86.34223433429118 -5.1254653299359625e-12
    vertex 81.82463934409238 -86.34223433429118 0.3999999999948744
  endloop
endfacet
facet normal -0.9314333547174974 0.3639119477561965 1.343497432290034e-16
  outer loop
    vertex 84.5137845926399 -69.1001654835999 0.3999999999953143
    vertex 82.55841911628575 -74.10492731285288 -4.5501921674961916e-12
    vertex 82.55841911628575 -74.10492731285288 0.3999999999954497
  endloop
endfacet
facet normal -0.9314333547174974 0.3639119477561965 1.343497432290034e-16
  outer loop
    vertex 82.55841911628575 -74.10492731285288 -4.5501921674961916e-12
    vertex 84.5137845926399 -69.1001654835999 0.3999999999953143
    vertex 84.5137845926399 -69.1001654835999 -4.685550558658491e-12
  endloop
endfacet
facet normal 0.9106668052492816 -0.41314158567864706 -1.2896064003794129e-17
  outer loop
    vertex 91.39031425248571 -71.44095959751614 -4.685550558658491e-12
    vertex 88.78645834298605 -77.18050561426095 0.3999999999952241
    vertex 88.78645834298605 -77.18050561426095 -4.775789486100023e-12
  endloop
endfacet
facet normal 0.9106668052492816 -0.41314158567864706 -1.2896064003794129e-17
  outer loop
    vertex 88.78645834298605 -77.18050561426095 0.3999999999952241
    vertex 91.39031425248571 -71.44095959751614 -4.685550558658491e-12
    vertex 91.39031425248571 -71.44095959751614 0.3999999999953143
  endloop
endfacet
facet normal 0.9674245250390281 -0.25315961042988494 -1.7575213797826897e-16
  outer loop
    vertex 93.0944136544487 -64.92891151937322 -4.493792837845234e-12
    vertex 91.39031425248571 -71.44095959751614 0.3999999999953143
    vertex 91.39031425248571 -71.44095959751614 -4.685550558658491e-12
  endloop
endfacet
facet normal 0.9674245250390281 -0.25315961042988494 -1.7575213797826897e-16
  outer loop
    vertex 91.39031425248571 -71.44095959751614 0.3999999999953143
    vertex 93.0944136544487 -64.92891151937322 -4.493792837845234e-12
    vertex 93.0944136544487 -64.92891151937322 0.3999999999955061
  endloop
endfacet
facet normal -0.9727607770406937 0.2318112824070171 -1.1132977167270756e-16
  outer loop
    vertex 85.82579847192683 -63.59449885921863 0.3999999999954384
    vertex 84.5137845926399 -69.1001654835999 -4.685550558658491e-12
    vertex 84.5137845926399 -69.1001654835999 0.3999999999953143
  endloop
endfacet
facet normal -0.9727607770406937 0.2318112824070171 -1.1132977167270756e-16
  outer loop
    vertex 84.5137845926399 -69.1001654835999 -4.685550558658491e-12
    vertex 85.82579847192683 -63.59449885921863 0.3999999999954384
    vertex 85.82579847192683 -63.59449885921863 -4.561472033426383e-12
  endloop
endfacet
facet normal -2.5386884040886653e-14 -1.4117614706056236e-14 1.0
  outer loop
    vertex 77.93914237748518 -89.73641437361603 0.3999999999943104
    vertex 75.02396504064907 -85.59802067832241 0.3999999999949985
    vertex 70.70120681332591 -89.73641437361603 0.39999999999435554
  endloop
endfacet
facet normal -2.5386884040886653e-14 -1.4117614706056236e-14 1.0
  outer loop
    vertex 75.02396504064907 -85.59802067832241 0.3999999999949985
    vertex 77.93914237748518 -89.73641437361603 0.3999999999943104
    vertex 80.19102636531746 -78.55706514109106 0.3999999999951113
  endloop
endfacet
facet normal -2.5386884040886653e-14 -1.4117614706056236e-14 1.0
  outer loop
    vertex 80.19102636531746 -78.55706514109106 0.3999999999951113
    vertex 77.93914237748518 -89.73641437361603 0.3999999999943104
    vertex 81.82463934409238 -86.34223433429118 0.3999999999948744
  endloop
endfacet
facet normal -2.5386884040886653e-14 -1.4117614706056236e-14 1.0
  outer loop
    vertex 80.19102636531746 -78.55706514109106 0.3999999999951113
    vertex 81.82463934409238 -86.34223433429118 0.3999999999948744
    vertex 82.55841911628575 -74.10492731285288 0.3999999999954497
  endloop
endfacet
facet normal -2.5386884040886653e-14 -1.4117614706056236e-14 1.0
  outer loop
    vertex 82.55841911628575 -74.10492731285288 0.3999999999954497
    vertex 81.82463934409238 -86.34223433429118 0.3999999999948744
    vertex 85.51915568639059 -82.15226430384635 0.3999999999951677
  endloop
endfacet
facet normal -2.5386884040886653e-14 -1.4117614706056236e-14 1.0
  outer loop
    vertex 82.55841911628575 -74.10492731285288 0.3999999999954497
    vertex 85.51915568639059 -82.15226430384635 0.3999999999951677
    vertex 84.5137845926399 -69.1001654835999 0.3999999999953143
  endloop
endfacet
facet normal -2.5386884040886653e-14 -1.4117614706056236e-14 1.0
  outer loop
    vertex 84.5137845926399 -69.1001654835999 0.3999999999953143
    vertex 85.51915568639059 -82.15226430384635 0.3999999999951677
    vertex 85.82579847192683 -63.59449885921863 0.3999999999954384
  endloop
endfacet
facet normal -2.5386884040886653e-14 -1.4117614706056236e-14 1.0
  outer loop
    vertex 85.82579847192683 -63.59449885921863 0.3999999999954384
    vertex 85.51915568639059 -82.15226430384635 0.3999999999951677
    vertex 88.78645834298605 -77.18050561426095 0.3999999999952241
  endloop
endfacet
facet normal -2.5386884040886653e-14 -1.4117614706056236e-14 1.0
  outer loop
    vertex 85.82579847192683 -63.59449885921863 0.3999999999954384
    vertex 88.78645834298605 -77.18050561426095 0.3999999999952241
    vertex 86.2218789255046 -58.20141437361688 0.3999999999952579
  endloop
endfacet
facet normal -2.5386884040886653e-14 -1.4117614706056236e-14 1.0
  outer loop
    vertex 86.2218789255046 -58.20141437361688 0.3999999999952579
    vertex 88.78645834298605 -77.18050561426095 0.3999999999952241
    vertex 87.82583580827972 -58.20141437361715 0.3999999999952805
  endloop
endfacet
facet normal -2.5386884040886653e-14 -1.4117614706056236e-14 1.0
  outer loop
    vertex 87.82583580827972 -58.20141437361715 0.3999999999952805
    vertex 88.78645834298605 -77.18050561426095 0.3999999999952241
    vertex 93.61866971507591 -58.20141437361715 0.3999999999954271
  endloop
endfacet
facet normal -2.5386884040886653e-14 -1.4117614706056236e-14 1.0
  outer loop
    vertex 93.61866971507591 -58.20141437361715 0.3999999999954271
    vertex 88.78645834298605 -77.18050561426095 0.3999999999952241
    vertex 91.39031425248571 -71.44095959751614 0.3999999999953143
  endloop
endfacet
facet normal -2.5386884040886653e-14 -1.4117614706056236e-14 1.0
  outer loop
    vertex 93.61866971507591 -58.20141437361715 0.3999999999954271
    vertex 91.39031425248571 -71.44095959751614 0.3999999999953143
    vertex 93.0944136544487 -64.92891151937322 0.3999999999955061
  endloop
endfacet
facet normal 0.0 1.0 0.0
  outer loop
    vertex 87.82583580827972 -58.20141437361715 0.3999999999952805
    vertex 93.61866971507591 -58.20141437361715 -4.572751899356575e-12
    vertex 87.82583580827972 -58.20141437361715 -4.7193901564490654e-12
  endloop
endfacet
facet normal 0.0 1.0 0.0
  outer loop
    vertex 93.61866971507591 -58.20141437361715 -4.572751899356575e-12
    vertex 87.82583580827972 -58.20141437361715 0.3999999999952805
    vertex 93.61866971507591 -58.20141437361715 0.3999999999954271
  endloop
endfacet
endsolid Flaps_v2004_export
