solid Flaps_v2004_export
facet normal -0.910666805249283 0.41314158567864406 -9.354628151616345e-14
  outer loop
    vertex 88.78645834298605 -77.18050561426098 0.3999999999951991
    vertex 91.39031425248568 -71.44095959751627 -5.070475983526279e-12
    vertex 88.78645834298605 -77.18050561426107 -5.160714910967811e-12
  endloop
endfacet
facet normal -0.910666805249283 0.41314158567864406 -9.354628151616345e-14
  outer loop
    vertex 91.39031425248568 -71.44095959751627 -5.070475983526279e-12
    vertex 88.78645834298605 -77.18050561426098 0.3999999999951991
    vertex 91.39031425248568 -71.44095959751618 0.3999999999952893
  endloop
endfacet
facet normal 0.0 0.301756487508759 -0.9533850335758247
  outer loop
    vertex 59.69551434357741 -59.02162252642173 0.12020815279612906
    vertex 56.800000000003074 -59.40141437361988 -5.611909548175475e-12
    vertex 56.800000000003074 -59.02162252642173 0.12020815279612906
  endloop
endfacet
facet normal 0.0 0.301756487508759 -0.9533850335758247
  outer loop
    vertex 56.800000000003074 -59.40141437361988 -5.611909548175475e-12
    vertex 59.69551434357741 -59.02162252642173 0.12020815279612906
    vertex 59.69551434357741 -59.40141437361988 -5.611909548175475e-12
  endloop
endfacet
facet normal 1.0 0.0 0.0
  outer loop
    vertex 109.69551434357747 -58.785488547328775 0.7588190450971689
    vertex 109.69551434357747 -58.201414373617716 0.9999999999948829
    vertex 109.69551434357747 -58.885388969833606 0.9999999999946122
  endloop
endfacet
facet normal 1.0 0.0 0.0
  outer loop
    vertex 109.69551434357747 -58.201414373617716 0.9999999999948829
    vertex 109.69551434357747 -58.785488547328775 0.7588190450971689
    vertex 109.69551434357747 -58.75141437361768 0.49999999999454464
  endloop
endfacet
facet normal 1.0 0.0 0.0
  outer loop
    vertex 109.69551434357747 -58.201414373617716 0.9999999999948829
    vertex 109.69551434357747 -58.75141437361768 0.49999999999454464
    vertex 109.69551434357747 -58.201414373617354 0.49999999999490563
  endloop
endfacet
facet normal 1.0 0.0 0.0
  outer loop
    vertex 109.69551434357747 -60.6174397774022 -5.341192765850877e-12
    vertex 109.69551434357747 -60.4812062208138 0.12020815279612906
    vertex 109.69551434357747 -60.6014143736159 0.4999999999943642
  endloop
endfacet
facet normal 1.0 0.0 0.0
  outer loop
    vertex 109.69551434357747 -60.4812062208138 0.12020815279612906
    vertex 109.69551434357747 -60.6174397774022 -5.341192765850877e-12
    vertex 109.69551434357747 -60.101414373615654 -5.611909548175475e-12
  endloop
endfacet
facet normal 1.0 0.0 0.0
  outer loop
    vertex 109.69551434357747 -60.71734019990685 0.24118095489210128
    vertex 109.69551434357747 -60.71734019990703 0.7588190450970786
    vertex 109.69551434357747 -60.751414373617855 0.4999999999946349
  endloop
endfacet
facet normal 1.0 0.0 0.0
  outer loop
    vertex 109.69551434357747 -60.71734019990703 0.7588190450970786
    vertex 109.69551434357747 -60.71734019990685 0.24118095489210128
    vertex 109.69551434357747 -60.61743977740229 0.9999999999946122
  endloop
endfacet
facet normal 1.0 0.0 0.0
  outer loop
    vertex 109.69551434357747 -60.61743977740229 0.9999999999946122
    vertex 109.69551434357747 -60.71734019990685 0.24118095489210128
    vertex 109.69551434357747 -60.6174397774022 -5.341192765850877e-12
  endloop
endfacet
facet normal 1.0 0.0 0.0
  outer loop
    vertex 109.69551434357747 -60.61743977740229 0.9999999999946122
    vertex 109.69551434357747 -60.6174397774022 -5.341192765850877e-12
    vertex 109.69551434357747 -60.6014143736159 0.4999999999943642
  endloop
endfacet
facet normal 1.0 0.0 0.0
  outer loop
    vertex 109.69551434357747 -60.61743977740229 0.9999999999946122
    vertex 109.69551434357747 -60.6014143736159 0.4999999999943642
    vertex 109.69551434357747 -60.48120622081398 0.8797918471924201
  endloop
endfacet
facet normal 1.0 0.0 0.0
  outer loop
    vertex 109.69551434357747 -60.61743977740229 0.9999999999946122
    vertex 109.69551434357747 -60.48120622081398 0.8797918471924201
    vertex 109.69551434357747 -60.10141437361584 0.999999999994161
  endloop
endfacet
facet normal -2.0581442188578276e-15 1.1252840523269367e-14 1.0
  outer loop
    vertex 59.69551434357741 -60.10141437361602 0.999999999994161
    vertex 56.800000000003074 -59.401414373619964 0.999999999994161
    vertex 56.800000000003074 -60.10141437361602 0.999999999994161
  endloop
endfacet
facet normal -2.0581442188578276e-15 1.1252840523269367e-14 1.0
  outer loop
    vertex 56.800000000003074 -59.401414373619964 0.999999999994161
    vertex 59.69551434357741 -60.10141437361602 0.999999999994161
    vertex 59.69551434357741 -59.401414373619964 0.999999999994161
  endloop
endfacet
facet normal -2.0581442188578276e-15 1.1252840523269367e-14 1.0
  outer loop
    vertex 59.69551434357741 -93.13000000000072 0.9999999999948829
    vertex 66.27817943907026 -74.4070023852328 0.9999999999947927
    vertex 59.69551434357741 -60.10141437361602 0.999999999994161
  endloop
endfacet
facet normal -2.0581442188578276e-15 1.1252840523269367e-14 1.0
  outer loop
    vertex 66.27817943907026 -74.4070023852328 0.9999999999947927
    vertex 59.69551434357741 -93.13000000000072 0.9999999999948829
    vertex 68.44945272965417 -78.75530139484289 0.9999999999947927
  endloop
endfacet
facet normal -2.0581442188578276e-15 1.1252840523269367e-14 1.0
  outer loop
    vertex 68.44945272965417 -78.75530139484289 0.9999999999947927
    vertex 59.69551434357741 -93.13000000000072 0.9999999999948829
    vertex 71.74682141224528 -82.4699128871688 0.9999999999947927
  endloop
endfacet
facet normal -2.0581442188578276e-15 1.1252840523269367e-14 1.0
  outer loop
    vertex 71.74682141224528 -82.4699128871688 0.9999999999947927
    vertex 59.69551434357741 -93.13000000000072 0.9999999999948829
    vertex 81.1565671603098 -89.49362261476831 0.9999999999947927
  endloop
endfacet
facet normal -2.0581442188578276e-15 1.1252840523269367e-14 1.0
  outer loop
    vertex 81.1565671603098 -89.49362261476831 0.9999999999947927
    vertex 59.69551434357741 -93.13000000000072 0.9999999999948829
    vertex 109.69551434357747 -93.13000000000054 0.9999999999948829
  endloop
endfacet
facet normal -2.0581442188578276e-15 1.1252840523269367e-14 1.0
  outer loop
    vertex 59.69551434357741 -60.10141437361602 0.999999999994161
    vertex 66.27817943907026 -74.4070023852328 0.9999999999947927
    vertex 59.69551434357741 -59.401414373619964 0.999999999994161
  endloop
endfacet
facet normal -2.0581442188578276e-15 1.1252840523269367e-14 1.0
  outer loop
    vertex 59.69551434357741 -59.401414373619964 0.999999999994161
    vertex 66.27817943907026 -74.4070023852328 0.9999999999947927
    vertex 59.69551434357741 -58.201414373617894 0.9999999999947927
  endloop
endfacet
facet normal -2.0581442188578276e-15 1.1252840523269367e-14 1.0
  outer loop
    vertex 71.74682141224528 -82.4699128871688 0.9999999999947927
    vertex 81.1565671603098 -89.49362261476831 0.9999999999947927
    vertex 76.02946603855904 -85.26965815991488 0.9999999999947927
  endloop
endfacet
facet normal -2.0581442188578276e-15 1.1252840523269367e-14 1.0
  outer loop
    vertex 81.1565671603098 -89.49362261476831 0.9999999999947927
    vertex 109.69551434357747 -93.13000000000054 0.9999999999948829
    vertex 88.67614162103962 -89.49362261476831 0.9999999999947927
  endloop
endfacet
facet normal -2.0581442188578276e-15 1.1252840523269367e-14 1.0
  outer loop
    vertex 88.67614162103962 -89.49362261476831 0.9999999999947927
    vertex 109.69551434357747 -93.13000000000054 0.9999999999948829
    vertex 88.67614162103962 -86.99362261476834 0.9999999999947927
  endloop
endfacet
facet normal -2.0581442188578276e-15 1.1252840523269367e-14 1.0
  outer loop
    vertex 88.67614162103962 -86.99362261476834 0.9999999999947927
    vertex 109.69551434357747 -93.13000000000054 0.9999999999948829
    vertex 92.62713957285143 -86.06893891731252 0.9999999999947927
  endloop
endfacet
facet normal -2.0581442188578276e-15 1.1252840523269367e-14 1.0
  outer loop
    vertex 92.62713957285143 -86.06893891731252 0.9999999999947927
    vertex 109.69551434357747 -93.13000000000054 0.9999999999948829
    vertex 96.11564227784257 -84.42021622649389 0.9999999999947927
  endloop
endfacet
facet normal -2.0581442188578276e-15 1.1252840523269367e-14 1.0
  outer loop
    vertex 96.11564227784257 -84.42021622649389 0.9999999999947927
    vertex 109.69551434357747 -93.13000000000054 0.9999999999948829
    vertex 99.02606427383284 -82.06770309043209 0.9999999999947927
  endloop
endfacet
facet normal -2.0581442188578276e-15 1.1252840523269367e-14 1.0
  outer loop
    vertex 99.02606427383284 -82.06770309043209 0.9999999999947927
    vertex 109.69551434357747 -93.13000000000054 0.9999999999948829
    vertex 101.2428200986391 -79.03164805724626 0.9999999999947927
  endloop
endfacet
facet normal -2.0581442188578276e-15 1.1252840523269367e-14 1.0
  outer loop
    vertex 101.2428200986391 -79.03164805724626 0.9999999999947927
    vertex 109.69551434357747 -93.13000000000054 0.9999999999948829
    vertex 102.64526215305001 -75.35224142699167 0.9999999999947927
  endloop
endfacet
facet normal -2.0581442188578276e-15 1.1252840523269367e-14 1.0
  outer loop
    vertex 102.64526215305001 -75.35224142699167 0.9999999999947927
    vertex 109.69551434357747 -93.13000000000054 0.9999999999948829
    vertex 103.11274283785342 -71.06967349972398 0.9999999999947927
  endloop
endfacet
facet normal -2.0581442188578276e-15 1.1252840523269367e-14 1.0
  outer loop
    vertex 112.60000000000399 -60.10141437361584 0.999999999994161
    vertex 109.69551434357747 -59.40141437361988 0.999999999994161
    vertex 109.69551434357747 -60.10141437361584 0.999999999994161
  endloop
endfacet
facet normal -2.0581442188578276e-15 1.1252840523269367e-14 1.0
  outer loop
    vertex 109.69551434357747 -59.40141437361988 0.999999999994161
    vertex 112.60000000000399 -60.10141437361584 0.999999999994161
    vertex 112.60000000000399 -59.40141437361979 0.999999999994161
  endloop
endfacet
facet normal -2.0581442188578276e-15 1.1252840523269367e-14 1.0
  outer loop
    vertex 97.86468732070789 -58.68431156664876 0.9999999999947927
    vertex 109.69551434357747 -58.201414373617716 0.9999999999948829
    vertex 97.1568567407537 -58.201414373617716 0.9999999999947927
  endloop
endfacet
facet normal -2.0581442188578276e-15 1.1252840523269367e-14 1.0
  outer loop
    vertex 109.69551434357747 -58.201414373617716 0.9999999999948829
    vertex 97.86468732070789 -58.68431156664876 0.9999999999947927
    vertex 99.99101497039021 -61.01166741565317 0.9999999999947927
  endloop
endfacet
facet normal -2.0581442188578276e-15 1.1252840523269367e-14 1.0
  outer loop
    vertex 109.69551434357747 -58.201414373617716 0.9999999999948829
    vertex 99.99101497039021 -61.01166741565317 0.9999999999947927
    vertex 101.66497164731135 -63.811489387445235 0.9999999999947927
  endloop
endfacet
facet normal -2.0581442188578276e-15 1.1252840523269367e-14 1.0
  outer loop
    vertex 109.69551434357747 -58.201414373617716 0.9999999999948829
    vertex 101.66497164731135 -63.811489387445235 0.9999999999947927
    vertex 102.75080004021844 -67.14406293210784 0.9999999999947927
  endloop
endfacet
facet normal -2.0581442188578276e-15 1.1252840523269367e-14 1.0
  outer loop
    vertex 109.69551434357747 -58.201414373617716 0.9999999999948829
    vertex 102.75080004021844 -67.14406293210784 0.9999999999947927
    vertex 103.11274283785342 -71.06967349972398 0.9999999999947927
  endloop
endfacet
facet normal -2.0581442188578276e-15 1.1252840523269367e-14 1.0
  outer loop
    vertex 109.69551434357747 -58.201414373617716 0.9999999999948829
    vertex 103.11274283785342 -71.06967349972398 0.9999999999947927
    vertex 109.69551434357747 -93.13000000000054 0.9999999999948829
  endloop
endfacet
facet normal -2.0581442188578276e-15 1.1252840523269367e-14 1.0
  outer loop
    vertex 109.69551434357747 -58.201414373617716 0.9999999999948829
    vertex 109.69551434357747 -93.13000000000054 0.9999999999948829
    vertex 109.69551434357747 -60.61743977740229 0.9999999999946122
  endloop
endfacet
facet normal -2.0581442188578276e-15 1.1252840523269367e-14 1.0
  outer loop
    vertex 109.69551434357747 -58.201414373617716 0.9999999999948829
    vertex 109.69551434357747 -60.61743977740229 0.9999999999946122
    vertex 109.69551434357747 -60.10141437361584 0.999999999994161
  endloop
endfacet
facet normal -2.0581442188578276e-15 1.1252840523269367e-14 1.0
  outer loop
    vertex 109.69551434357747 -58.201414373617716 0.9999999999948829
    vertex 109.69551434357747 -60.10141437361584 0.999999999994161
    vertex 109.69551434357747 -59.40141437361988 0.999999999994161
  endloop
endfacet
facet normal -2.0581442188578276e-15 1.1252840523269367e-14 1.0
  outer loop
    vertex 109.69551434357747 -58.201414373617716 0.9999999999948829
    vertex 109.69551434357747 -59.40141437361988 0.999999999994161
    vertex 109.69551434357747 -58.885388969833606 0.9999999999946122
  endloop
endfacet
facet normal -2.0581442188578276e-15 1.1252840523269367e-14 1.0
  outer loop
    vertex 81.1565671603098 -86.87335851078593 0.9999999999947927
    vertex 76.02946603855904 -85.26965815991488 0.9999999999947927
    vertex 81.1565671603098 -89.49362261476831 0.9999999999947927
  endloop
endfacet
facet normal -2.0581442188578276e-15 1.1252840523269367e-14 1.0
  outer loop
    vertex 66.27817943907026 -74.4070023852328 0.9999999999947927
    vertex 80.56315642614689 -58.2014143736178 0.9999999999947927
    vertex 59.69551434357741 -58.201414373617894 0.9999999999947927
  endloop
endfacet
facet normal -2.0581442188578276e-15 1.1252840523269367e-14 1.0
  outer loop
    vertex 80.56315642614689 -58.2014143736178 0.9999999999947927
    vertex 66.27817943907026 -74.4070023852328 0.9999999999947927
    vertex 73.31485670676994 -71.83359599695852 0.9999999999947927
  endloop
endfacet
facet normal -2.0581442188578276e-15 1.1252840523269367e-14 1.0
  outer loop
    vertex 80.56315642614689 -58.2014143736178 0.9999999999947927
    vertex 73.31485670676994 -71.83359599695852 0.9999999999947927
    vertex 75.33556977023821 -75.18618799260284 0.9999999999947927
  endloop
endfacet
facet normal -2.0581442188578276e-15 1.1252840523269367e-14 1.0
  outer loop
    vertex 80.56315642614689 -58.2014143736178 0.9999999999947927
    vertex 75.33556977023821 -75.18618799260284 0.9999999999947927
    vertex 78.1002635790043 -77.84526721515543 0.9999999999947927
  endloop
endfacet
facet normal -2.0581442188578276e-15 1.1252840523269367e-14 1.0
  outer loop
    vertex 80.56315642614689 -58.2014143736178 0.9999999999947927
    vertex 78.1002635790043 -77.84526721515543 0.9999999999947927
    vertex 81.49833810887236 -79.57950934216042 0.9999999999947927
  endloop
endfacet
facet normal -2.0581442188578276e-15 1.1252840523269367e-14 1.0
  outer loop
    vertex 80.56315642614689 -58.2014143736178 0.9999999999947927
    vertex 81.49833810887236 -79.57950934216042 0.9999999999947927
    vertex 83.85085124493344 -59.64949236034344 0.9999999999947927
  endloop
endfacet
facet normal -2.0581442188578276e-15 1.1252840523269367e-14 1.0
  outer loop
    vertex 83.85085124493344 -59.64949236034344 0.9999999999947927
    vertex 81.49833810887236 -79.57950934216042 0.9999999999947927
    vertex 85.4191933356413 -80.15759005116203 0.9999999999947927
  endloop
endfacet
facet normal -2.0581442188578276e-15 1.1252840523269367e-14 1.0
  outer loop
    vertex 83.85085124493344 -59.64949236034344 0.9999999999947927
    vertex 85.4191933356413 -80.15759005116203 0.9999999999947927
    vertex 89.46031266639392 -62.34346964878369 0.9999999999947927
  endloop
endfacet
facet normal -2.0581442188578276e-15 1.1252840523269367e-14 1.0
  outer loop
    vertex 89.46031266639392 -62.34346964878369 0.9999999999947927
    vertex 85.4191933356413 -80.15759005116203 0.9999999999947927
    vertex 89.49045539143572 -79.58457147919039 0.9999999999947927
  endloop
endfacet
facet normal -2.0581442188578276e-15 1.1252840523269367e-14 1.0
  outer loop
    vertex 89.46031266639392 -62.34346964878369 0.9999999999947927
    vertex 89.49045539143572 -79.58457147919039 0.9999999999947927
    vertex 91.80768696637921 -64.02241176368966 0.9999999999947927
  endloop
endfacet
facet normal -2.0581442188578276e-15 1.1252840523269367e-14 1.0
  outer loop
    vertex 91.80768696637921 -64.02241176368966 0.9999999999947927
    vertex 89.49045539143572 -79.58457147919039 0.9999999999947927
    vertex 92.61693859974552 -77.86551576327491 0.9999999999947927
  endloop
endfacet
facet normal -2.0581442188578276e-15 1.1252840523269367e-14 1.0
  outer loop
    vertex 91.80768696637921 -64.02241176368966 0.9999999999947927
    vertex 92.61693859974552 -77.86551576327491 0.9999999999947927
    vertex 93.66249999355053 -66.00293452710228 0.9999999999947927
  endloop
endfacet
facet normal -2.0581442188578276e-15 1.1252840523269367e-14 1.0
  outer loop
    vertex 93.66249999355053 -66.00293452710228 0.9999999999947927
    vertex 92.61693859974552 -77.86551576327491 0.9999999999947927
    vertex 94.60750893817199 -75.05058407943913 0.9999999999947927
  endloop
endfacet
facet normal -2.0581442188578276e-15 1.1252840523269367e-14 1.0
  outer loop
    vertex 93.66249999355053 -66.00293452710228 0.9999999999947927
    vertex 94.60750893817199 -75.05058407943913 0.9999999999947927
    vertex 94.86889928662342 -68.36534184008632 0.9999999999947927
  endloop
endfacet
facet normal -2.0581442188578276e-15 1.1252840523269367e-14 1.0
  outer loop
    vertex 94.86889928662342 -68.36534184008632 0.9999999999947927
    vertex 94.60750893817199 -75.05058407943913 0.9999999999947927
    vertex 95.27103238431414 -71.1899376037063 0.9999999999947927
  endloop
endfacet
facet normal -5.624359257533294e-27 1.0 -9.023892744158387e-13
  outer loop
    vertex 70.70120681332591 -89.73641437361606 0.3999999999943869
    vertex 77.93914237748537 -89.73641437361643 -5.4314316932924096e-12
    vertex 70.70120681332591 -89.73641437361643 -5.4314316932924096e-12
  endloop
endfacet
facet normal -5.624359257533294e-27 1.0 -9.023892744158387e-13
  outer loop
    vertex 77.93914237748537 -89.73641437361643 -5.4314316932924096e-12
    vertex 70.70120681332591 -89.73641437361606 0.3999999999943869
    vertex 77.93914237748537 -89.73641437361606 0.3999999999942967
  endloop
endfacet
facet normal -0.6578863537679954 0.7531172189811172 -3.3999834414370876e-13
  outer loop
    vertex 77.93914237748537 -89.73641437361643 -5.4314316932924096e-12
    vertex 81.82463934409238 -86.3422343342912 0.3999999999948381
    vertex 81.82463934409238 -86.3422343342912 -5.521670620733943e-12
  endloop
endfacet
facet normal -0.6578863537679954 0.7531172189811172 -3.3999834414370876e-13
  outer loop
    vertex 81.82463934409238 -86.3422343342912 0.3999999999948381
    vertex 77.93914237748537 -89.73641437361643 -5.4314316932924096e-12
    vertex 77.93914237748537 -89.73641437361606 0.3999999999942967
  endloop
endfacet
facet normal -2.4932833846480324e-14 0.9533850335757255 0.30175648750907225
  outer loop
    vertex 109.69551434357747 -58.9014143736199 0.4999999999943642
    vertex 112.60000000000399 -59.02162252642173 0.8797918471926006
    vertex 112.60000000000399 -58.90141437361981 0.4999999999942739
  endloop
endfacet
facet normal -2.4932833846480324e-14 0.9533850335757255 0.30175648750907225
  outer loop
    vertex 112.60000000000399 -59.02162252642173 0.8797918471926006
    vertex 109.69551434357747 -58.9014143736199 0.4999999999943642
    vertex 109.69551434357747 -59.02162252642182 0.8797918471926006
  endloop
endfacet
facet normal -1.0 0.0 0.0
  outer loop
    vertex 59.69551434357741 -60.10141437361602 0.999999999994161
    vertex 59.69551434357741 -93.13000000000027 -5.250953838409344e-12
    vertex 59.69551434357741 -93.13000000000072 0.9999999999948829
  endloop
endfacet
facet normal -1.0 0.0 0.0
  outer loop
    vertex 59.69551434357741 -93.13000000000027 -5.250953838409344e-12
    vertex 59.69551434357741 -60.10141437361602 0.999999999994161
    vertex 59.69551434357741 -60.48120622081407 0.8797918471923298
  endloop
endfacet
facet normal -1.0 0.0 0.0
  outer loop
    vertex 59.69551434357741 -93.13000000000027 -5.250953838409344e-12
    vertex 59.69551434357741 -60.48120622081407 0.8797918471923298
    vertex 59.69551434357741 -60.601414373615995 0.4999999999942739
  endloop
endfacet
facet normal -1.0 0.0 0.0
  outer loop
    vertex 59.69551434357741 -93.13000000000027 -5.250953838409344e-12
    vertex 59.69551434357741 -60.48120622081398 0.12020815279612906
    vertex 59.69551434357741 -60.10141437361584 -5.611909548175475e-12
  endloop
endfacet
facet normal -1.0 0.0 0.0
  outer loop
    vertex 59.69551434357741 -60.48120622081398 0.12020815279612906
    vertex 59.69551434357741 -93.13000000000027 -5.250953838409344e-12
    vertex 59.69551434357741 -60.601414373615995 0.4999999999942739
  endloop
endfacet
facet normal 0.0 0.3017564875086181 0.9533850335758691
  outer loop
    vertex 59.69551434357741 -59.401414373619964 0.999999999994161
    vertex 56.800000000003074 -59.021622526421915 0.8797918471925104
    vertex 56.800000000003074 -59.401414373619964 0.999999999994161
  endloop
endfacet
facet normal 0.0 0.3017564875086181 0.9533850335758691
  outer loop
    vertex 56.800000000003074 -59.021622526421915 0.8797918471925104
    vertex 59.69551434357741 -59.401414373619964 0.999999999994161
    vertex 59.69551434357741 -59.021622526421915 0.8797918471925104
  endloop
endfacet
facet normal 1.481021153675261e-14 -0.9533850335757065 0.3017564875091323
  outer loop
    vertex 112.60000000000399 -60.48120622081398 0.8797918471924201
    vertex 109.69551434357747 -60.6014143736159 0.4999999999943642
    vertex 112.60000000000399 -60.60141437361581 0.4999999999943642
  endloop
endfacet
facet normal 1.481021153675261e-14 -0.9533850335757065 0.3017564875091323
  outer loop
    vertex 109.69551434357747 -60.6014143736159 0.4999999999943642
    vertex 112.60000000000399 -60.48120622081398 0.8797918471924201
    vertex 109.69551434357747 -60.48120622081398 0.8797918471924201
  endloop
endfacet
facet normal -0.9674245250390281 0.2531596104298845 -5.6809534795114106e-14
  outer loop
    vertex 91.39031425248568 -71.44095959751618 0.3999999999952893
    vertex 93.09441365444869 -64.92891151937333 -4.889998128643214e-12
    vertex 91.39031425248568 -71.44095959751627 -5.070475983526279e-12
  endloop
endfacet
facet normal -0.9674245250390281 0.2531596104298845 -5.6809534795114106e-14
  outer loop
    vertex 93.09441365444869 -64.92891151937333 -4.889998128643214e-12
    vertex 91.39031425248568 -71.44095959751618 0.3999999999952893
    vertex 93.09441365444869 -64.92891151937324 0.39999999999546976
  endloop
endfacet
facet normal 0.0 -0.953385033575629 -0.30175648750937695
  outer loop
    vertex 59.69551434357741 -60.601414373615995 0.4999999999942739
    vertex 56.800000000003074 -60.48120622081398 0.12020815279612906
    vertex 59.69551434357741 -60.48120622081398 0.12020815279612906
  endloop
endfacet
facet normal 0.0 -0.953385033575629 -0.30175648750937695
  outer loop
    vertex 56.800000000003074 -60.48120622081398 0.12020815279612906
    vertex 59.69551434357741 -60.601414373615995 0.4999999999942739
    vertex 56.800000000003074 -60.601414373615995 0.4999999999942739
  endloop
endfacet
facet normal 0.0 -0.301756487508759 -0.9533850335758247
  outer loop
    vertex 112.60000000000399 -60.101414373615654 -5.611909548175475e-12
    vertex 109.69551434357747 -60.4812062208138 0.12020815279612906
    vertex 109.69551434357747 -60.101414373615654 -5.611909548175475e-12
  endloop
endfacet
facet normal 0.0 -0.301756487508759 -0.9533850335758247
  outer loop
    vertex 109.69551434357747 -60.4812062208138 0.12020815279612906
    vertex 112.60000000000399 -60.101414373615654 -5.611909548175475e-12
    vertex 112.60000000000399 -60.4812062208138 0.12020815279612906
  endloop
endfacet
facet normal 1.481021153675122e-14 -0.953385033575617 -0.3017564875094147
  outer loop
    vertex 112.60000000000399 -60.60141437361581 0.4999999999943642
    vertex 109.69551434357747 -60.4812062208138 0.12020815279612906
    vertex 112.60000000000399 -60.4812062208138 0.12020815279612906
  endloop
endfacet
facet normal 1.481021153675122e-14 -0.953385033575617 -0.3017564875094147
  outer loop
    vertex 109.69551434357747 -60.4812062208138 0.12020815279612906
    vertex 112.60000000000399 -60.60141437361581 0.4999999999943642
    vertex 109.69551434357747 -60.6014143736159 0.4999999999943642
  endloop
endfacet
facet normal -3.430801230052969e-14 0.9533850335758143 -0.3017564875087918
  outer loop
    vertex 109.69551434357747 -58.9014143736199 0.4999999999943642
    vertex 112.60000000000399 -59.02162252642155 0.1202081527962193
    vertex 109.69551434357747 -59.02162252642164 0.1202081527962193
  endloop
endfacet
facet normal -3.430801230052969e-14 0.9533850335758143 -0.3017564875087918
  outer loop
    vertex 112.60000000000399 -59.02162252642155 0.1202081527962193
    vertex 109.69551434357747 -58.9014143736199 0.4999999999943642
    vertex 112.60000000000399 -58.90141437361981 0.4999999999942739
  endloop
endfacet
facet normal 1.8971063533885343e-15 -2.4570072914463837e-15 -1.0
  outer loop
    vertex 59.69551434357741 -59.40141437361988 -5.611909548175475e-12
    vertex 56.800000000003074 -60.10141437361584 -5.611909548175475e-12
    vertex 56.800000000003074 -59.40141437361988 -5.611909548175475e-12
  endloop
endfacet
facet normal 1.8971063533885343e-15 -2.4570072914463837e-15 -1.0
  outer loop
    vertex 56.800000000003074 -60.10141437361584 -5.611909548175475e-12
    vertex 59.69551434357741 -59.40141437361988 -5.611909548175475e-12
    vertex 59.69551434357741 -60.10141437361584 -5.611909548175475e-12
  endloop
endfacet
facet normal 1.8971063533885343e-15 -2.4570072914463837e-15 -1.0
  outer loop
    vertex 81.23094504500553 -58.20141437361744 -4.980237056084746e-12
    vertex 59.69551434357741 -59.40141437361988 -5.611909548175475e-12
    vertex 59.69551434357741 -58.20141437361753 -5.341192765850877e-12
  endloop
endfacet
facet normal 1.8971063533885343e-15 -2.4570072914463837e-15 -1.0
  outer loop
    vertex 59.69551434357741 -59.40141437361988 -5.611909548175475e-12
    vertex 81.23094504500553 -58.20141437361744 -4.980237056084746e-12
    vertex 59.69551434357741 -60.10141437361584 -5.611909548175475e-12
  endloop
endfacet
facet normal 1.8971063533885343e-15 -2.4570072914463837e-15 -1.0
  outer loop
    vertex 59.69551434357741 -60.10141437361584 -5.611909548175475e-12
    vertex 81.23094504500553 -58.20141437361744 -4.980237056084746e-12
    vertex 59.69551434357741 -93.13000000000027 -5.250953838409344e-12
  endloop
endfacet
facet normal 1.8971063533885343e-15 -2.4570072914463837e-15 -1.0
  outer loop
    vertex 59.69551434357741 -93.13000000000027 -5.250953838409344e-12
    vertex 81.23094504500553 -58.20141437361744 -4.980237056084746e-12
    vertex 70.70120681332591 -89.73641437361643 -5.4314316932924096e-12
  endloop
endfacet
facet normal 1.8971063533885343e-15 -2.4570072914463837e-15 -1.0
  outer loop
    vertex 70.70120681332591 -89.73641437361643 -5.4314316932924096e-12
    vertex 81.23094504500553 -58.20141437361744 -4.980237056084746e-12
    vertex 75.02396504064926 -85.59802067832254 -5.341192765850877e-12
  endloop
endfacet
facet normal 1.8971063533885343e-15 -2.4570072914463837e-15 -1.0
  outer loop
    vertex 75.02396504064926 -85.59802067832254 -5.341192765850877e-12
    vertex 81.23094504500553 -58.20141437361744 -4.980237056084746e-12
    vertex 80.19102636531764 -78.55706514109109 -5.250953838409344e-12
  endloop
endfacet
facet normal 1.8971063533885343e-15 -2.4570072914463837e-15 -1.0
  outer loop
    vertex 80.19102636531764 -78.55706514109109 -5.250953838409344e-12
    vertex 81.23094504500553 -58.20141437361744 -4.980237056084746e-12
    vertex 82.55841911628575 -74.10492731285292 -4.889998128643214e-12
  endloop
endfacet
facet normal 1.8971063533885343e-15 -2.4570072914463837e-15 -1.0
  outer loop
    vertex 82.55841911628575 -74.10492731285292 -4.889998128643214e-12
    vertex 81.23094504500553 -58.20141437361744 -4.980237056084746e-12
    vertex 86.2218789255046 -58.20141437361717 -4.980237056084746e-12
  endloop
endfacet
facet normal 1.8971063533885343e-15 -2.4570072914463837e-15 -1.0
  outer loop
    vertex 82.55841911628575 -74.10492731285292 -4.889998128643214e-12
    vertex 86.2218789255046 -58.20141437361717 -4.980237056084746e-12
    vertex 84.5137845926399 -69.10016548359994 -5.070475983526279e-12
  endloop
endfacet
facet normal 1.8971063533885343e-15 -2.4570072914463837e-15 -1.0
  outer loop
    vertex 84.5137845926399 -69.10016548359994 -5.070475983526279e-12
    vertex 86.2218789255046 -58.20141437361717 -4.980237056084746e-12
    vertex 85.82579847192683 -63.594498859218746 -4.980237056084746e-12
  endloop
endfacet
facet normal 1.8971063533885343e-15 -2.4570072914463837e-15 -1.0
  outer loop
    vertex 112.60000000000399 -59.40141437361979 -5.521670620733943e-12
    vertex 109.69551434357747 -60.101414373615654 -5.611909548175475e-12
    vertex 109.69551434357747 -59.40141437361979 -5.521670620733943e-12
  endloop
endfacet
facet normal 1.8971063533885343e-15 -2.4570072914463837e-15 -1.0
  outer loop
    vertex 109.69551434357747 -60.101414373615654 -5.611909548175475e-12
    vertex 112.60000000000399 -59.40141437361979 -5.521670620733943e-12
    vertex 112.60000000000399 -60.101414373615654 -5.611909548175475e-12
  endloop
endfacet
facet normal 1.8971063533885343e-15 -2.4570072914463837e-15 -1.0
  outer loop
    vertex 70.70120681332591 -89.73641437361643 -5.4314316932924096e-12
    vertex 109.69551434357747 -93.1300000000001 -5.160714910967811e-12
    vertex 59.69551434357741 -93.13000000000027 -5.250953838409344e-12
  endloop
endfacet
facet normal 1.8971063533885343e-15 -2.4570072914463837e-15 -1.0
  outer loop
    vertex 109.69551434357747 -93.1300000000001 -5.160714910967811e-12
    vertex 70.70120681332591 -89.73641437361643 -5.4314316932924096e-12
    vertex 77.93914237748537 -89.73641437361643 -5.4314316932924096e-12
  endloop
endfacet
facet normal 1.8971063533885343e-15 -2.4570072914463837e-15 -1.0
  outer loop
    vertex 109.69551434357747 -93.1300000000001 -5.160714910967811e-12
    vertex 77.93914237748537 -89.73641437361643 -5.4314316932924096e-12
    vertex 81.82463934409238 -86.3422343342912 -5.521670620733943e-12
  endloop
endfacet
facet normal 1.8971063533885343e-15 -2.4570072914463837e-15 -1.0
  outer loop
    vertex 109.69551434357747 -93.1300000000001 -5.160714910967811e-12
    vertex 81.82463934409238 -86.3422343342912 -5.521670620733943e-12
    vertex 85.51915568639059 -82.15226430384638 -5.250953838409344e-12
  endloop
endfacet
facet normal 1.8971063533885343e-15 -2.4570072914463837e-15 -1.0
  outer loop
    vertex 109.69551434357747 -93.1300000000001 -5.160714910967811e-12
    vertex 85.51915568639059 -82.15226430384638 -5.250953838409344e-12
    vertex 88.78645834298605 -77.18050561426107 -5.160714910967811e-12
  endloop
endfacet
facet normal 1.8971063533885343e-15 -2.4570072914463837e-15 -1.0
  outer loop
    vertex 109.69551434357747 -93.1300000000001 -5.160714910967811e-12
    vertex 88.78645834298605 -77.18050561426107 -5.160714910967811e-12
    vertex 91.39031425248568 -71.44095959751627 -5.070475983526279e-12
  endloop
endfacet
facet normal 1.8971063533885343e-15 -2.4570072914463837e-15 -1.0
  outer loop
    vertex 109.69551434357747 -93.1300000000001 -5.160714910967811e-12
    vertex 91.39031425248568 -71.44095959751627 -5.070475983526279e-12
    vertex 93.09441365444869 -64.92891151937333 -4.889998128643214e-12
  endloop
endfacet
facet normal 1.8971063533885343e-15 -2.4570072914463837e-15 -1.0
  outer loop
    vertex 109.69551434357747 -93.1300000000001 -5.160714910967811e-12
    vertex 93.09441365444869 -64.92891151937333 -4.889998128643214e-12
    vertex 93.6186697150759 -58.20141437361717 -4.980237056084746e-12
  endloop
endfacet
facet normal 1.8971063533885343e-15 -2.4570072914463837e-15 -1.0
  outer loop
    vertex 109.69551434357747 -93.1300000000001 -5.160714910967811e-12
    vertex 93.6186697150759 -58.20141437361717 -4.980237056084746e-12
    vertex 109.69551434357747 -58.20141437361744 -5.160714910967811e-12
  endloop
endfacet
facet normal 1.8971063533885343e-15 -2.4570072914463837e-15 -1.0
  outer loop
    vertex 109.69551434357747 -93.1300000000001 -5.160714910967811e-12
    vertex 109.69551434357747 -58.20141437361744 -5.160714910967811e-12
    vertex 109.69551434357747 -58.88538896983342 -5.521670620733943e-12
  endloop
endfacet
facet normal 1.8971063533885343e-15 -2.4570072914463837e-15 -1.0
  outer loop
    vertex 109.69551434357747 -93.1300000000001 -5.160714910967811e-12
    vertex 109.69551434357747 -58.88538896983342 -5.521670620733943e-12
    vertex 109.69551434357747 -59.40141437361979 -5.521670620733943e-12
  endloop
endfacet
facet normal 1.8971063533885343e-15 -2.4570072914463837e-15 -1.0
  outer loop
    vertex 109.69551434357747 -93.1300000000001 -5.160714910967811e-12
    vertex 109.69551434357747 -59.40141437361979 -5.521670620733943e-12
    vertex 109.69551434357747 -60.101414373615654 -5.611909548175475e-12
  endloop
endfacet
facet normal 1.8971063533885343e-15 -2.4570072914463837e-15 -1.0
  outer loop
    vertex 109.69551434357747 -93.1300000000001 -5.160714910967811e-12
    vertex 109.69551434357747 -60.101414373615654 -5.611909548175475e-12
    vertex 109.69551434357747 -60.6174397774022 -5.341192765850877e-12
  endloop
endfacet
facet normal -1.0 0.0 0.0
  outer loop
    vertex 59.69551434357741 -58.201414373617894 0.9999999999947927
    vertex 59.69551434357741 -59.021622526421915 0.8797918471925104
    vertex 59.69551434357741 -59.401414373619964 0.999999999994161
  endloop
endfacet
facet normal -1.0 0.0 0.0
  outer loop
    vertex 59.69551434357741 -59.021622526421915 0.8797918471925104
    vertex 59.69551434357741 -58.201414373617894 0.9999999999947927
    vertex 59.69551434357741 -58.90141437362008 0.4999999999942739
  endloop
endfacet
facet normal -1.0 0.0 0.0
  outer loop
    vertex 59.69551434357741 -59.02162252642173 0.12020815279612906
    vertex 59.69551434357741 -58.20141437361753 -5.341192765850877e-12
    vertex 59.69551434357741 -59.40141437361988 -5.611909548175475e-12
  endloop
endfacet
facet normal -1.0 0.0 0.0
  outer loop
    vertex 59.69551434357741 -58.20141437361753 -5.341192765850877e-12
    vertex 59.69551434357741 -59.02162252642173 0.12020815279612906
    vertex 59.69551434357741 -58.90141437362008 0.4999999999942739
  endloop
endfacet
facet normal -1.0 0.0 0.0
  outer loop
    vertex 59.69551434357741 -58.20141437361753 -5.341192765850877e-12
    vertex 59.69551434357741 -58.90141437362008 0.4999999999942739
    vertex 59.69551434357741 -58.201414373617894 0.9999999999947927
  endloop
endfacet
facet normal 1.0 0.0 0.0
  outer loop
    vertex 109.69551434357747 -93.1300000000001 -5.160714910967811e-12
    vertex 109.69551434357747 -60.71734019990685 0.24118095489210128
    vertex 109.69551434357747 -60.751414373617855 0.4999999999946349
  endloop
endfacet
facet normal 1.0 0.0 0.0
  outer loop
    vertex 109.69551434357747 -60.71734019990685 0.24118095489210128
    vertex 109.69551434357747 -93.1300000000001 -5.160714910967811e-12
    vertex 109.69551434357747 -60.6174397774022 -5.341192765850877e-12
  endloop
endfacet
facet normal 1.0 0.0 0.0
  outer loop
    vertex 109.69551434357747 -93.1300000000001 -5.160714910967811e-12
    vertex 109.69551434357747 -60.61743977740229 0.9999999999946122
    vertex 109.69551434357747 -93.13000000000054 0.9999999999948829
  endloop
endfacet
facet normal 1.0 0.0 0.0
  outer loop
    vertex 109.69551434357747 -60.61743977740229 0.9999999999946122
    vertex 109.69551434357747 -93.1300000000001 -5.160714910967811e-12
    vertex 109.69551434357747 -60.71734019990703 0.7588190450970786
  endloop
endfacet
facet normal 1.0 0.0 0.0
  outer loop
    vertex 109.69551434357747 -60.71734019990703 0.7588190450970786
    vertex 109.69551434357747 -93.1300000000001 -5.160714910967811e-12
    vertex 109.69551434357747 -60.751414373617855 0.4999999999946349
  endloop
endfacet
facet normal 0.5471883753703002 0.8370094873175642 0.0
  outer loop
    vertex 71.74682141224528 -82.4699128871688 0.9999999999947927
    vertex 76.02946603855904 -85.26965815991488 0.5999999999947926
    vertex 71.74682141224528 -82.4699128871688 0.5999999999947926
  endloop
endfacet
facet normal 0.5471883753703002 0.8370094873175642 0.0
  outer loop
    vertex 76.02946603855904 -85.26965815991488 0.5999999999947926
    vertex 71.74682141224528 -82.4699128871688 0.9999999999947927
    vertex 76.02946603855904 -85.26965815991488 0.9999999999947927
  endloop
endfacet
facet normal 0.4329185843495109 0.9014330254238611 0.0
  outer loop
    vertex 83.85085124493344 -59.64949236034344 0.9999999999947927
    vertex 89.46031266639392 -62.34346964878369 0.5999999999947926
    vertex 83.85085124493344 -59.64949236034344 0.5999999999947926
  endloop
endfacet
facet normal 0.4329185843495109 0.9014330254238611 0.0
  outer loop
    vertex 89.46031266639392 -62.34346964878369 0.5999999999947926
    vertex 83.85085124493344 -59.64949236034344 0.9999999999947927
    vertex 89.46031266639392 -62.34346964878369 0.9999999999947927
  endloop
endfacet
facet normal 0.3434652608751565 -0.9391653819067016 0.0
  outer loop
    vertex 73.31485670676994 -71.83359599695852 0.9999999999947927
    vertex 66.27817943907026 -74.4070023852328 0.5999999999947926
    vertex 73.31485670676994 -71.83359599695852 0.5999999999947926
  endloop
endfacet
facet normal 0.3434652608751565 -0.9391653819067016 0.0
  outer loop
    vertex 66.27817943907026 -74.4070023852328 0.5999999999947926
    vertex 73.31485670676994 -71.83359599695852 0.9999999999947927
    vertex 66.27817943907026 -74.4070023852328 0.9999999999947927
  endloop
endfacet
facet normal 0.9900171250266385 0.14094712538391652 0.0
  outer loop
    vertex 94.86889928662342 -68.36534184008632 0.5999999999947926
    vertex 95.27103238431414 -71.1899376037063 0.9999999999947927
    vertex 95.27103238431414 -71.1899376037063 0.5999999999947926
  endloop
endfacet
facet normal 0.9900171250266385 0.14094712538391652 0.0
  outer loop
    vertex 95.27103238431414 -71.1899376037063 0.9999999999947927
    vertex 94.86889928662342 -68.36534184008632 0.5999999999947926
    vertex 94.86889928662342 -68.36534184008632 0.9999999999947927
  endloop
endfacet
facet normal 0.0 -0.3017564875087589 0.9533850335758247
  outer loop
    vertex 112.60000000000399 -60.48120622081398 0.8797918471924201
    vertex 109.69551434357747 -60.10141437361584 0.999999999994161
    vertex 109.69551434357747 -60.48120622081398 0.8797918471924201
  endloop
endfacet
facet normal 0.0 -0.3017564875087589 0.9533850335758247
  outer loop
    vertex 109.69551434357747 -60.10141437361584 0.999999999994161
    vertex 112.60000000000399 -60.48120622081398 0.8797918471924201
    vertex 112.60000000000399 -60.10141437361584 0.999999999994161
  endloop
endfacet
facet normal 1.0 0.0 0.0
  outer loop
    vertex 112.60000000000399 -60.4812062208138 0.12020815279612906
    vertex 112.60000000000399 -60.48120622081398 0.8797918471924201
    vertex 112.60000000000399 -60.60141437361581 0.4999999999943642
  endloop
endfacet
facet normal 1.0 0.0 0.0
  outer loop
    vertex 112.60000000000399 -60.48120622081398 0.8797918471924201
    vertex 112.60000000000399 -60.4812062208138 0.12020815279612906
    vertex 112.60000000000399 -60.10141437361584 0.999999999994161
  endloop
endfacet
facet normal 1.0 0.0 0.0
  outer loop
    vertex 112.60000000000399 -60.10141437361584 0.999999999994161
    vertex 112.60000000000399 -60.4812062208138 0.12020815279612906
    vertex 112.60000000000399 -60.101414373615654 -5.611909548175475e-12
  endloop
endfacet
facet normal 1.0 0.0 0.0
  outer loop
    vertex 112.60000000000399 -60.10141437361584 0.999999999994161
    vertex 112.60000000000399 -60.101414373615654 -5.611909548175475e-12
    vertex 112.60000000000399 -59.40141437361979 0.999999999994161
  endloop
endfacet
facet normal 1.0 0.0 0.0
  outer loop
    vertex 112.60000000000399 -59.40141437361979 0.999999999994161
    vertex 112.60000000000399 -60.101414373615654 -5.611909548175475e-12
    vertex 112.60000000000399 -59.40141437361979 -5.521670620733943e-12
  endloop
endfacet
facet normal 1.0 0.0 0.0
  outer loop
    vertex 112.60000000000399 -59.40141437361979 0.999999999994161
    vertex 112.60000000000399 -59.40141437361979 -5.521670620733943e-12
    vertex 112.60000000000399 -59.02162252642155 0.1202081527962193
  endloop
endfacet
facet normal 1.0 0.0 0.0
  outer loop
    vertex 112.60000000000399 -59.40141437361979 0.999999999994161
    vertex 112.60000000000399 -59.02162252642155 0.1202081527962193
    vertex 112.60000000000399 -59.02162252642173 0.8797918471926006
  endloop
endfacet
facet normal 1.0 0.0 0.0
  outer loop
    vertex 112.60000000000399 -59.02162252642173 0.8797918471926006
    vertex 112.60000000000399 -59.02162252642155 0.1202081527962193
    vertex 112.60000000000399 -58.90141437361981 0.4999999999942739
  endloop
endfacet
facet normal 1.0 0.0 0.0
  outer loop
    vertex 109.69551434357747 -58.88538896983342 -5.521670620733943e-12
    vertex 109.69551434357747 -59.02162252642164 0.1202081527962193
    vertex 109.69551434357747 -59.40141437361979 -5.521670620733943e-12
  endloop
endfacet
facet normal 1.0 0.0 0.0
  outer loop
    vertex 109.69551434357747 -59.02162252642164 0.1202081527962193
    vertex 109.69551434357747 -58.88538896983342 -5.521670620733943e-12
    vertex 109.69551434357747 -58.9014143736199 0.4999999999943642
  endloop
endfacet
facet normal 1.0 0.0 0.0
  outer loop
    vertex 109.69551434357747 -58.9014143736199 0.4999999999943642
    vertex 109.69551434357747 -58.88538896983342 -5.521670620733943e-12
    vertex 109.69551434357747 -58.885388969833606 0.9999999999946122
  endloop
endfacet
facet normal 1.0 0.0 0.0
  outer loop
    vertex 109.69551434357747 -58.885388969833606 0.9999999999946122
    vertex 109.69551434357747 -58.88538896983342 -5.521670620733943e-12
    vertex 109.69551434357747 -58.785488547328775 0.7588190450971689
  endloop
endfacet
facet normal 1.0 0.0 0.0
  outer loop
    vertex 109.69551434357747 -58.785488547328775 0.7588190450971689
    vertex 109.69551434357747 -58.88538896983342 -5.521670620733943e-12
    vertex 109.69551434357747 -58.78548854732868 0.24118095489192082
  endloop
endfacet
facet normal 1.0 0.0 0.0
  outer loop
    vertex 109.69551434357747 -58.785488547328775 0.7588190450971689
    vertex 109.69551434357747 -58.78548854732868 0.24118095489192082
    vertex 109.69551434357747 -58.75141437361768 0.49999999999454464
  endloop
endfacet
facet normal 1.0 0.0 0.0
  outer loop
    vertex 109.69551434357747 -59.02162252642182 0.8797918471926006
    vertex 109.69551434357747 -58.885388969833606 0.9999999999946122
    vertex 109.69551434357747 -59.40141437361988 0.999999999994161
  endloop
endfacet
facet normal 1.0 0.0 0.0
  outer loop
    vertex 109.69551434357747 -58.885388969833606 0.9999999999946122
    vertex 109.69551434357747 -59.02162252642182 0.8797918471926006
    vertex 109.69551434357747 -58.9014143736199 0.4999999999943642
  endloop
endfacet
facet normal 0.0 0.9533850335757803 0.30175648750889905
  outer loop
    vertex 56.800000000003074 -59.021622526421915 0.8797918471925104
    vertex 59.69551434357741 -58.90141437362008 0.4999999999942739
    vertex 56.800000000003074 -58.90141437362008 0.4999999999942739
  endloop
endfacet
facet normal 0.0 0.9533850335757803 0.30175648750889905
  outer loop
    vertex 59.69551434357741 -58.90141437362008 0.4999999999942739
    vertex 56.800000000003074 -59.021622526421915 0.8797918471925104
    vertex 59.69551434357741 -59.021622526421915 0.8797918471925104
  endloop
endfacet
facet normal 0.8905955469403355 0.4547961870662997 0.0
  outer loop
    vertex 93.66249999355053 -66.00293452710228 0.5999999999947926
    vertex 94.86889928662342 -68.36534184008632 0.9999999999947927
    vertex 94.86889928662342 -68.36534184008632 0.5999999999947926
  endloop
endfacet
facet normal 0.8905955469403355 0.4547961870662997 0.0
  outer loop
    vertex 94.86889928662342 -68.36534184008632 0.9999999999947927
    vertex 93.66249999355053 -66.00293452710228 0.5999999999947926
    vertex 93.66249999355053 -66.00293452710228 0.9999999999947927
  endloop
endfacet
facet normal 0.0 0.9533850335758897 -0.3017564875085534
  outer loop
    vertex 56.800000000003074 -58.90141437362008 0.4999999999942739
    vertex 59.69551434357741 -59.02162252642173 0.12020815279612906
    vertex 56.800000000003074 -59.02162252642173 0.12020815279612906
  endloop
endfacet
facet normal 0.0 0.9533850335758897 -0.3017564875085534
  outer loop
    vertex 59.69551434357741 -59.02162252642173 0.12020815279612906
    vertex 56.800000000003074 -58.90141437362008 0.4999999999942739
    vertex 59.69551434357741 -58.90141437362008 0.4999999999942739
  endloop
endfacet
facet normal 0.29852618377409235 0.9544014446768598 0.0
  outer loop
    vertex 76.02946603855904 -85.26965815991488 0.9999999999947927
    vertex 81.1565671603098 -86.87335851078593 0.5999999999947926
    vertex 76.02946603855904 -85.26965815991488 0.5999999999947926
  endloop
endfacet
facet normal 0.29852618377409235 0.9544014446768598 0.0
  outer loop
    vertex 81.1565671603098 -86.87335851078593 0.5999999999947926
    vertex 76.02946603855904 -85.26965815991488 0.9999999999947927
    vertex 81.1565671603098 -86.87335851078593 0.9999999999947927
  endloop
endfacet
facet normal -1.0 0.0 0.0
  outer loop
    vertex 56.800000000003074 -60.48120622081407 0.8797918471923298
    vertex 56.800000000003074 -60.48120622081398 0.12020815279612906
    vertex 56.800000000003074 -60.601414373615995 0.4999999999942739
  endloop
endfacet
facet normal -1.0 0.0 0.0
  outer loop
    vertex 56.800000000003074 -60.48120622081398 0.12020815279612906
    vertex 56.800000000003074 -60.48120622081407 0.8797918471923298
    vertex 56.800000000003074 -60.10141437361602 0.999999999994161
  endloop
endfacet
facet normal -1.0 0.0 0.0
  outer loop
    vertex 56.800000000003074 -60.48120622081398 0.12020815279612906
    vertex 56.800000000003074 -60.10141437361602 0.999999999994161
    vertex 56.800000000003074 -60.10141437361584 -5.611909548175475e-12
  endloop
endfacet
facet normal -1.0 0.0 0.0
  outer loop
    vertex 56.800000000003074 -60.10141437361584 -5.611909548175475e-12
    vertex 56.800000000003074 -60.10141437361602 0.999999999994161
    vertex 56.800000000003074 -59.401414373619964 0.999999999994161
  endloop
endfacet
facet normal -1.0 0.0 0.0
  outer loop
    vertex 56.800000000003074 -60.10141437361584 -5.611909548175475e-12
    vertex 56.800000000003074 -59.401414373619964 0.999999999994161
    vertex 56.800000000003074 -59.40141437361988 -5.611909548175475e-12
  endloop
endfacet
facet normal -1.0 0.0 0.0
  outer loop
    vertex 56.800000000003074 -59.40141437361988 -5.611909548175475e-12
    vertex 56.800000000003074 -59.401414373619964 0.999999999994161
    vertex 56.800000000003074 -59.021622526421915 0.8797918471925104
  endloop
endfacet
facet normal -1.0 0.0 0.0
  outer loop
    vertex 56.800000000003074 -59.40141437361988 -5.611909548175475e-12
    vertex 56.800000000003074 -59.021622526421915 0.8797918471925104
    vertex 56.800000000003074 -59.02162252642173 0.12020815279612906
  endloop
endfacet
facet normal -1.0 0.0 0.0
  outer loop
    vertex 56.800000000003074 -59.02162252642173 0.12020815279612906
    vertex 56.800000000003074 -59.021622526421915 0.8797918471925104
    vertex 56.800000000003074 -58.90141437362008 0.4999999999942739
  endloop
endfacet
facet normal -0.8564590746814169 -0.5162149294585067 0.0
  outer loop
    vertex 73.31485670676994 -71.83359599695852 0.9999999999947927
    vertex 75.33556977023821 -75.18618799260284 0.5999999999947926
    vertex 75.33556977023821 -75.18618799260284 0.9999999999947927
  endloop
endfacet
facet normal -0.8564590746814169 -0.5162149294585067 0.0
  outer loop
    vertex 75.33556977023821 -75.18618799260284 0.5999999999947926
    vertex 73.31485670676994 -71.83359599695852 0.9999999999947927
    vertex 73.31485670676994 -71.83359599695852 0.5999999999947926
  endloop
endfacet
facet normal 0.0 -0.301756487508759 -0.9533850335758247
  outer loop
    vertex 59.69551434357741 -60.10141437361584 -5.611909548175475e-12
    vertex 56.800000000003074 -60.48120622081398 0.12020815279612906
    vertex 56.800000000003074 -60.10141437361584 -5.611909548175475e-12
  endloop
endfacet
facet normal 0.0 -0.301756487508759 -0.9533850335758247
  outer loop
    vertex 56.800000000003074 -60.48120622081398 0.12020815279612906
    vertex 59.69551434357741 -60.10141437361584 -5.611909548175475e-12
    vertex 59.69551434357741 -60.48120622081398 0.12020815279612906
  endloop
endfacet
facet normal 1.0 0.0 0.0
  outer loop
    vertex 109.69551434357747 -58.20141437361744 -5.160714910967811e-12
    vertex 109.69551434357747 -58.78548854732868 0.24118095489192082
    vertex 109.69551434357747 -58.88538896983342 -5.521670620733943e-12
  endloop
endfacet
facet normal 1.0 0.0 0.0
  outer loop
    vertex 109.69551434357747 -58.78548854732868 0.24118095489192082
    vertex 109.69551434357747 -58.20141437361744 -5.160714910967811e-12
    vertex 109.69551434357747 -58.75141437361768 0.49999999999454464
  endloop
endfacet
facet normal 1.0 0.0 0.0
  outer loop
    vertex 109.69551434357747 -58.75141437361768 0.49999999999454464
    vertex 109.69551434357747 -58.20141437361744 -5.160714910967811e-12
    vertex 109.69551434357747 -58.201414373617354 0.49999999999490563
  endloop
endfacet
facet normal 0.0 -0.953385033575674 0.3017564875092352
  outer loop
    vertex 59.69551434357741 -60.48120622081407 0.8797918471923298
    vertex 56.800000000003074 -60.601414373615995 0.4999999999942739
    vertex 59.69551434357741 -60.601414373615995 0.4999999999942739
  endloop
endfacet
facet normal 0.0 -0.953385033575674 0.3017564875092352
  outer loop
    vertex 56.800000000003074 -60.601414373615995 0.4999999999942739
    vertex 59.69551434357741 -60.48120622081407 0.8797918471923298
    vertex 56.800000000003074 -60.48120622081407 0.8797918471923298
  endloop
endfacet
facet normal -3.717489736950934e-15 1.0 4.023735768510041e-13
  outer loop
    vertex 93.6186697150759 -58.20141437361717 -4.980237056084746e-12
    vertex 109.69551434357747 -58.201414373617354 0.49999999999490563
    vertex 109.69551434357747 -58.20141437361744 -5.160714910967811e-12
  endloop
endfacet
facet normal -3.717489736950934e-15 1.0 4.023735768510041e-13
  outer loop
    vertex 109.69551434357747 -58.201414373617354 0.49999999999490563
    vertex 93.6186697150759 -58.20141437361717 -4.980237056084746e-12
    vertex 93.6186697150759 -58.20141437361717 0.39999999999537955
  endloop
endfacet
facet normal -3.717489736950934e-15 1.0 4.023735768510041e-13
  outer loop
    vertex 59.69551434357741 -58.201414373617894 0.9999999999947927
    vertex 81.23094504500553 -58.20141437361744 -4.980237056084746e-12
    vertex 59.69551434357741 -58.20141437361753 -5.341192765850877e-12
  endloop
endfacet
facet normal -3.717489736950934e-15 1.0 4.023735768510041e-13
  outer loop
    vertex 81.23094504500553 -58.20141437361744 -4.980237056084746e-12
    vertex 59.69551434357741 -58.201414373617894 0.9999999999947927
    vertex 81.23094504500553 -58.20141437361717 0.3999999999952893
  endloop
endfacet
facet normal -3.717489736950934e-15 1.0 4.023735768510041e-13
  outer loop
    vertex 81.23094504500553 -58.20141437361717 0.3999999999952893
    vertex 59.69551434357741 -58.201414373617894 0.9999999999947927
    vertex 86.2218789255046 -58.2014143736169 0.3999999999952893
  endloop
endfacet
facet normal -3.717489736950934e-15 1.0 4.023735768510041e-13
  outer loop
    vertex 86.2218789255046 -58.2014143736169 0.3999999999952893
    vertex 59.69551434357741 -58.201414373617894 0.9999999999947927
    vertex 80.56315642614544 -58.20141437361717 0.5999999999947926
  endloop
endfacet
facet normal -3.717489736950934e-15 1.0 4.023735768510041e-13
  outer loop
    vertex 86.2218789255046 -58.2014143736169 0.3999999999952893
    vertex 80.56315642614544 -58.20141437361717 0.5999999999947926
    vertex 93.6186697150759 -58.20141437361717 0.39999999999537955
  endloop
endfacet
facet normal -3.717489736950934e-15 1.0 4.023735768510041e-13
  outer loop
    vertex 93.6186697150759 -58.20141437361717 0.39999999999537955
    vertex 80.56315642614544 -58.20141437361717 0.5999999999947926
    vertex 109.69551434357747 -58.201414373617354 0.49999999999490563
  endloop
endfacet
facet normal -3.717489736950934e-15 1.0 4.023735768510041e-13
  outer loop
    vertex 80.56315642614544 -58.20141437361717 0.5999999999947926
    vertex 59.69551434357741 -58.201414373617894 0.9999999999947927
    vertex 80.56315642614689 -58.2014143736178 0.9999999999947927
  endloop
endfacet
facet normal -3.717489736950934e-15 1.0 4.023735768510041e-13
  outer loop
    vertex 109.69551434357747 -58.201414373617354 0.49999999999490563
    vertex 97.15685674075297 -58.20141437361717 0.5999999999947926
    vertex 109.69551434357747 -58.201414373617716 0.9999999999948829
  endloop
endfacet
facet normal -3.717489736950934e-15 1.0 4.023735768510041e-13
  outer loop
    vertex 97.15685674075297 -58.20141437361717 0.5999999999947926
    vertex 109.69551434357747 -58.201414373617354 0.49999999999490563
    vertex 80.56315642614544 -58.20141437361717 0.5999999999947926
  endloop
endfacet
facet normal -3.717489736950934e-15 1.0 4.023735768510041e-13
  outer loop
    vertex 109.69551434357747 -58.201414373617716 0.9999999999948829
    vertex 97.15685674075297 -58.20141437361717 0.5999999999947926
    vertex 97.1568567407537 -58.201414373617716 0.9999999999947927
  endloop
endfacet
facet normal -9.375178454030453e-15 0.3017564875084123 0.9533850335759343
  outer loop
    vertex 112.60000000000399 -59.40141437361979 0.999999999994161
    vertex 109.69551434357747 -59.02162252642182 0.8797918471926006
    vertex 109.69551434357747 -59.40141437361988 0.999999999994161
  endloop
endfacet
facet normal -9.375178454030453e-15 0.3017564875084123 0.9533850335759343
  outer loop
    vertex 109.69551434357747 -59.02162252642182 0.8797918471926006
    vertex 112.60000000000399 -59.40141437361979 0.999999999994161
    vertex 112.60000000000399 -59.02162252642173 0.8797918471926006
  endloop
endfacet
facet normal 0.7478598330834364 0.6638566637915255 0.0
  outer loop
    vertex 68.44945272965417 -78.75530139484289 0.5999999999947926
    vertex 71.74682141224528 -82.4699128871688 0.9999999999947927
    vertex 71.74682141224528 -82.4699128871688 0.5999999999947926
  endloop
endfacet
facet normal 0.7478598330834364 0.6638566637915255 0.0
  outer loop
    vertex 71.74682141224528 -82.4699128871688 0.9999999999947927
    vertex 68.44945272965417 -78.75530139484289 0.5999999999947926
    vertex 68.44945272965417 -78.75530139484289 0.9999999999947927
  endloop
endfacet
facet normal 0.0 -0.30175648750902995 0.9533850335757389
  outer loop
    vertex 59.69551434357741 -60.48120622081407 0.8797918471923298
    vertex 56.800000000003074 -60.10141437361602 0.999999999994161
    vertex 56.800000000003074 -60.48120622081407 0.8797918471923298
  endloop
endfacet
facet normal 0.0 -0.30175648750902995 0.9533850335757389
  outer loop
    vertex 56.800000000003074 -60.10141437361602 0.999999999994161
    vertex 59.69551434357741 -60.48120622081407 0.8797918471923298
    vertex 59.69551434357741 -60.10141437361602 0.999999999994161
  endloop
endfacet
facet normal 3.6095570976617105e-15 -1.0 -4.511946372076236e-13
  outer loop
    vertex 109.69551434357747 -93.1300000000001 -5.160714910967811e-12
    vertex 59.69551434357741 -93.13000000000072 0.9999999999948829
    vertex 59.69551434357741 -93.13000000000027 -5.250953838409344e-12
  endloop
endfacet
facet normal 3.6095570976617105e-15 -1.0 -4.511946372076236e-13
  outer loop
    vertex 59.69551434357741 -93.13000000000072 0.9999999999948829
    vertex 109.69551434357747 -93.1300000000001 -5.160714910967811e-12
    vertex 109.69551434357747 -93.13000000000054 0.9999999999948829
  endloop
endfacet
facet normal -4.687589227020107e-15 0.30175648750872647 -0.953385033575835
  outer loop
    vertex 112.60000000000399 -59.02162252642155 0.1202081527962193
    vertex 109.69551434357747 -59.40141437361979 -5.521670620733943e-12
    vertex 109.69551434357747 -59.02162252642164 0.1202081527962193
  endloop
endfacet
facet normal -4.687589227020107e-15 0.30175648750872647 -0.953385033575835
  outer loop
    vertex 109.69551434357747 -59.40141437361979 -5.521670620733943e-12
    vertex 112.60000000000399 -59.02162252642155 0.1202081527962193
    vertex 112.60000000000399 -59.40141437361979 -5.521670620733943e-12
  endloop
endfacet
facet normal -0.8356941434601619 0.5491951370745979 -6.234798533342161e-14
  outer loop
    vertex 88.78645834298605 -77.18050561426098 0.3999999999951991
    vertex 85.51915568639059 -82.15226430384638 -5.250953838409344e-12
    vertex 85.51915568639059 -82.15226430384638 0.3999999999951088
  endloop
endfacet
facet normal -0.8356941434601619 0.5491951370745979 -6.234798533342161e-14
  outer loop
    vertex 85.51915568639059 -82.15226430384638 -5.250953838409344e-12
    vertex 88.78645834298605 -77.18050561426098 0.3999999999951991
    vertex 88.78645834298605 -77.18050561426107 -5.160714910967811e-12
  endloop
endfacet
facet normal 0.9855499632885272 -0.1693849753135827 0.0
  outer loop
    vertex 95.27103238431414 -71.1899376037063 0.5999999999947926
    vertex 94.60750893817199 -75.05058407943913 0.9999999999947927
    vertex 94.60750893817199 -75.05058407943913 0.5999999999947926
  endloop
endfacet
facet normal 0.9855499632885272 -0.1693849753135827 0.0
  outer loop
    vertex 94.60750893817199 -75.05058407943913 0.9999999999947927
    vertex 95.27103238431414 -71.1899376037063 0.5999999999947926
    vertex 95.27103238431414 -71.1899376037063 0.9999999999947927
  endloop
endfacet
facet normal -0.45458069982238297 -0.8907055559212554 0.0
  outer loop
    vertex 81.49833810887236 -79.57950934216042 0.9999999999947927
    vertex 78.1002635790043 -77.84526721515543 0.5999999999947926
    vertex 81.49833810887236 -79.57950934216042 0.5999999999947926
  endloop
endfacet
facet normal -0.45458069982238297 -0.8907055559212554 0.0
  outer loop
    vertex 78.1002635790043 -77.84526721515543 0.5999999999947926
    vertex 81.49833810887236 -79.57950934216042 0.9999999999947927
    vertex 78.1002635790043 -77.84526721515543 0.9999999999947927
  endloop
endfacet
facet normal -0.14586058209302666 -0.9893051554457216 0.0
  outer loop
    vertex 85.4191933356413 -80.15759005116203 0.9999999999947927
    vertex 81.49833810887236 -79.57950934216042 0.5999999999947926
    vertex 85.4191933356413 -80.15759005116203 0.5999999999947926
  endloop
endfacet
facet normal -0.14586058209302666 -0.9893051554457216 0.0
  outer loop
    vertex 81.49833810887236 -79.57950934216042 0.5999999999947926
    vertex 85.4191933356413 -80.15759005116203 0.9999999999947927
    vertex 81.49833810887236 -79.57950934216042 0.9999999999947927
  endloop
endfacet
facet normal 0.40308659695937055 0.9151618410705911 -4.878544713255701e-15
  outer loop
    vertex 80.56315642614689 -58.2014143736178 0.9999999999947927
    vertex 83.85085124493344 -59.64949236034344 0.5999999999947926
    vertex 80.56315642614544 -58.20141437361717 0.5999999999947926
  endloop
endfacet
facet normal 0.40308659695937055 0.9151618410705911 -4.878544713255701e-15
  outer loop
    vertex 83.85085124493344 -59.64949236034344 0.5999999999947926
    vertex 80.56315642614689 -58.2014143736178 0.9999999999947927
    vertex 83.85085124493344 -59.64949236034344 0.9999999999947927
  endloop
endfacet
facet normal -5.424170882775304e-14 1.0 -6.767919558110393e-13
  outer loop
    vertex 81.23094504500553 -58.20141437361717 0.3999999999952893
    vertex 86.2218789255046 -58.20141437361717 -4.980237056084746e-12
    vertex 81.23094504500553 -58.20141437361744 -4.980237056084746e-12
  endloop
endfacet
facet normal -5.424170882775304e-14 1.0 -6.767919558110393e-13
  outer loop
    vertex 86.2218789255046 -58.20141437361717 -4.980237056084746e-12
    vertex 81.23094504500553 -58.20141437361717 0.3999999999952893
    vertex 86.2218789255046 -58.2014143736169 0.3999999999952893
  endloop
endfacet
facet normal -0.5635642048998515 -0.8260722649717749 -5.0550376767799365e-14
  outer loop
    vertex 97.86468732070789 -58.68431156664876 0.9999999999947927
    vertex 97.15685674075297 -58.20141437361717 0.5999999999947926
    vertex 97.86468732070789 -58.68431156664876 0.5999999999947926
  endloop
endfacet
facet normal -0.5635642048998515 -0.8260722649717749 -5.0550376767799365e-14
  outer loop
    vertex 97.15685674075297 -58.20141437361717 0.5999999999947926
    vertex 97.86468732070789 -58.68431156664876 0.9999999999947927
    vertex 97.1568567407537 -58.201414373617716 0.9999999999947927
  endloop
endfacet
facet normal 0.0 0.0 1.0
  outer loop
    vertex 88.67614162103962 -89.49362261476831 0.5999999999947926
    vertex 81.1565671603098 -86.87335851078593 0.5999999999947926
    vertex 81.1565671603098 -89.49362261476831 0.5999999999947926
  endloop
endfacet
facet normal 0.0 0.0 1.0
  outer loop
    vertex 81.1565671603098 -86.87335851078593 0.5999999999947926
    vertex 88.67614162103962 -89.49362261476831 0.5999999999947926
    vertex 81.49833810887236 -79.57950934216042 0.5999999999947926
  endloop
endfacet
facet normal 0.0 0.0 1.0
  outer loop
    vertex 81.49833810887236 -79.57950934216042 0.5999999999947926
    vertex 88.67614162103962 -89.49362261476831 0.5999999999947926
    vertex 85.4191933356413 -80.15759005116203 0.5999999999947926
  endloop
endfacet
facet normal 0.0 0.0 1.0
  outer loop
    vertex 85.4191933356413 -80.15759005116203 0.5999999999947926
    vertex 88.67614162103962 -89.49362261476831 0.5999999999947926
    vertex 88.67614162103962 -86.99362261476834 0.5999999999947926
  endloop
endfacet
facet normal 0.0 0.0 1.0
  outer loop
    vertex 85.4191933356413 -80.15759005116203 0.5999999999947926
    vertex 88.67614162103962 -86.99362261476834 0.5999999999947926
    vertex 89.49045539143572 -79.58457147919039 0.5999999999947926
  endloop
endfacet
facet normal 0.0 0.0 1.0
  outer loop
    vertex 89.49045539143572 -79.58457147919039 0.5999999999947926
    vertex 88.67614162103962 -86.99362261476834 0.5999999999947926
    vertex 92.62713957285143 -86.06893891731252 0.5999999999947926
  endloop
endfacet
facet normal 0.0 0.0 1.0
  outer loop
    vertex 89.49045539143572 -79.58457147919039 0.5999999999947926
    vertex 92.62713957285143 -86.06893891731252 0.5999999999947926
    vertex 92.61693859974552 -77.86551576327491 0.5999999999947926
  endloop
endfacet
facet normal 0.0 0.0 1.0
  outer loop
    vertex 92.61693859974552 -77.86551576327491 0.5999999999947926
    vertex 92.62713957285143 -86.06893891731252 0.5999999999947926
    vertex 94.60750893817199 -75.05058407943913 0.5999999999947926
  endloop
endfacet
facet normal 0.0 0.0 1.0
  outer loop
    vertex 94.60750893817199 -75.05058407943913 0.5999999999947926
    vertex 92.62713957285143 -86.06893891731252 0.5999999999947926
    vertex 96.11564227784257 -84.42021622649389 0.5999999999947926
  endloop
endfacet
facet normal 0.0 0.0 1.0
  outer loop
    vertex 94.60750893817199 -75.05058407943913 0.5999999999947926
    vertex 96.11564227784257 -84.42021622649389 0.5999999999947926
    vertex 95.27103238431414 -71.1899376037063 0.5999999999947926
  endloop
endfacet
facet normal 0.0 0.0 1.0
  outer loop
    vertex 83.85085124493344 -59.64949236034344 0.5999999999947926
    vertex 97.15685674075297 -58.20141437361717 0.5999999999947926
    vertex 80.56315642614544 -58.20141437361717 0.5999999999947926
  endloop
endfacet
facet normal 0.0 0.0 1.0
  outer loop
    vertex 97.15685674075297 -58.20141437361717 0.5999999999947926
    vertex 83.85085124493344 -59.64949236034344 0.5999999999947926
    vertex 89.46031266639392 -62.34346964878369 0.5999999999947926
  endloop
endfacet
facet normal 0.0 0.0 1.0
  outer loop
    vertex 97.15685674075297 -58.20141437361717 0.5999999999947926
    vertex 89.46031266639392 -62.34346964878369 0.5999999999947926
    vertex 91.80768696637921 -64.02241176368966 0.5999999999947926
  endloop
endfacet
facet normal 0.0 0.0 1.0
  outer loop
    vertex 97.15685674075297 -58.20141437361717 0.5999999999947926
    vertex 91.80768696637921 -64.02241176368966 0.5999999999947926
    vertex 93.66249999355053 -66.00293452710228 0.5999999999947926
  endloop
endfacet
facet normal 0.0 0.0 1.0
  outer loop
    vertex 97.15685674075297 -58.20141437361717 0.5999999999947926
    vertex 93.66249999355053 -66.00293452710228 0.5999999999947926
    vertex 94.86889928662342 -68.36534184008632 0.5999999999947926
  endloop
endfacet
facet normal 0.0 0.0 1.0
  outer loop
    vertex 97.15685674075297 -58.20141437361717 0.5999999999947926
    vertex 94.86889928662342 -68.36534184008632 0.5999999999947926
    vertex 95.27103238431414 -71.1899376037063 0.5999999999947926
  endloop
endfacet
facet normal 0.0 0.0 1.0
  outer loop
    vertex 97.15685674075297 -58.20141437361717 0.5999999999947926
    vertex 95.27103238431414 -71.1899376037063 0.5999999999947926
    vertex 96.11564227784257 -84.42021622649389 0.5999999999947926
  endloop
endfacet
facet normal 0.0 0.0 1.0
  outer loop
    vertex 97.15685674075297 -58.20141437361717 0.5999999999947926
    vertex 96.11564227784257 -84.42021622649389 0.5999999999947926
    vertex 99.02606427383284 -82.06770309043209 0.5999999999947926
  endloop
endfacet
facet normal 0.0 0.0 1.0
  outer loop
    vertex 97.15685674075297 -58.20141437361717 0.5999999999947926
    vertex 99.02606427383284 -82.06770309043209 0.5999999999947926
    vertex 97.86468732070789 -58.68431156664876 0.5999999999947926
  endloop
endfacet
facet normal 0.0 0.0 1.0
  outer loop
    vertex 97.86468732070789 -58.68431156664876 0.5999999999947926
    vertex 99.02606427383284 -82.06770309043209 0.5999999999947926
    vertex 99.99101497039021 -61.01166741565317 0.5999999999947926
  endloop
endfacet
facet normal 0.0 0.0 1.0
  outer loop
    vertex 99.99101497039021 -61.01166741565317 0.5999999999947926
    vertex 99.02606427383284 -82.06770309043209 0.5999999999947926
    vertex 101.2428200986391 -79.03164805724626 0.5999999999947926
  endloop
endfacet
facet normal 0.0 0.0 1.0
  outer loop
    vertex 99.99101497039021 -61.01166741565317 0.5999999999947926
    vertex 101.2428200986391 -79.03164805724626 0.5999999999947926
    vertex 101.66497164731135 -63.811489387445235 0.5999999999947926
  endloop
endfacet
facet normal 0.0 0.0 1.0
  outer loop
    vertex 101.66497164731135 -63.811489387445235 0.5999999999947926
    vertex 101.2428200986391 -79.03164805724626 0.5999999999947926
    vertex 102.64526215305001 -75.35224142699167 0.5999999999947926
  endloop
endfacet
facet normal 0.0 0.0 1.0
  outer loop
    vertex 101.66497164731135 -63.811489387445235 0.5999999999947926
    vertex 102.64526215305001 -75.35224142699167 0.5999999999947926
    vertex 102.75080004021844 -67.14406293210784 0.5999999999947926
  endloop
endfacet
facet normal 0.0 0.0 1.0
  outer loop
    vertex 102.75080004021844 -67.14406293210784 0.5999999999947926
    vertex 102.64526215305001 -75.35224142699167 0.5999999999947926
    vertex 103.11274283785342 -71.06967349972398 0.5999999999947926
  endloop
endfacet
facet normal 0.0 0.0 1.0
  outer loop
    vertex 68.44945272965417 -78.75530139484289 0.5999999999947926
    vertex 73.31485670676994 -71.83359599695852 0.5999999999947926
    vertex 66.27817943907026 -74.4070023852328 0.5999999999947926
  endloop
endfacet
facet normal 0.0 0.0 1.0
  outer loop
    vertex 73.31485670676994 -71.83359599695852 0.5999999999947926
    vertex 68.44945272965417 -78.75530139484289 0.5999999999947926
    vertex 71.74682141224528 -82.4699128871688 0.5999999999947926
  endloop
endfacet
facet normal 0.0 0.0 1.0
  outer loop
    vertex 73.31485670676994 -71.83359599695852 0.5999999999947926
    vertex 71.74682141224528 -82.4699128871688 0.5999999999947926
    vertex 76.02946603855904 -85.26965815991488 0.5999999999947926
  endloop
endfacet
facet normal 0.0 0.0 1.0
  outer loop
    vertex 73.31485670676994 -71.83359599695852 0.5999999999947926
    vertex 76.02946603855904 -85.26965815991488 0.5999999999947926
    vertex 75.33556977023821 -75.18618799260284 0.5999999999947926
  endloop
endfacet
facet normal 0.0 0.0 1.0
  outer loop
    vertex 75.33556977023821 -75.18618799260284 0.5999999999947926
    vertex 76.02946603855904 -85.26965815991488 0.5999999999947926
    vertex 78.1002635790043 -77.84526721515543 0.5999999999947926
  endloop
endfacet
facet normal 0.0 0.0 1.0
  outer loop
    vertex 78.1002635790043 -77.84526721515543 0.5999999999947926
    vertex 76.02946603855904 -85.26965815991488 0.5999999999947926
    vertex 81.1565671603098 -86.87335851078593 0.5999999999947926
  endloop
endfacet
facet normal 0.0 0.0 1.0
  outer loop
    vertex 78.1002635790043 -77.84526721515543 0.5999999999947926
    vertex 81.1565671603098 -86.87335851078593 0.5999999999947926
    vertex 81.49833810887236 -79.57950934216042 0.5999999999947926
  endloop
endfacet
facet normal 0.8164811221670487 -0.5773721305577857 0.0
  outer loop
    vertex 94.60750893817199 -75.05058407943913 0.5999999999947926
    vertex 92.61693859974552 -77.86551576327491 0.9999999999947927
    vertex 92.61693859974552 -77.86551576327491 0.5999999999947926
  endloop
endfacet
facet normal 0.8164811221670487 -0.5773721305577857 0.0
  outer loop
    vertex 92.61693859974552 -77.86551576327491 0.9999999999947927
    vertex 94.60750893817199 -75.05058407943913 0.5999999999947926
    vertex 94.60750893817199 -75.05058407943913 0.9999999999947927
  endloop
endfacet
facet normal 0.4818089923792158 -0.8762762662896472 -5.986635548628654e-30
  outer loop
    vertex 92.61693859974552 -77.86551576327491 0.9999999999947927
    vertex 89.49045539143572 -79.58457147919039 0.5999999999947926
    vertex 92.61693859974552 -77.86551576327491 0.5999999999947926
  endloop
endfacet
facet normal 0.4818089923792158 -0.8762762662896472 -5.986635548628654e-30
  outer loop
    vertex 89.49045539143572 -79.58457147919039 0.5999999999947926
    vertex 92.61693859974552 -77.86551576327491 0.9999999999947927
    vertex 89.49045539143572 -79.58457147919039 0.9999999999947927
  endloop
endfacet
facet normal -0.9940948806622142 0.10851436882357204 0.0
  outer loop
    vertex 103.11274283785342 -71.06967349972398 0.9999999999947927
    vertex 102.64526215305001 -75.35224142699167 0.5999999999947926
    vertex 102.64526215305001 -75.35224142699167 0.9999999999947927
  endloop
endfacet
facet normal -0.9940948806622142 0.10851436882357204 0.0
  outer loop
    vertex 102.64526215305001 -75.35224142699167 0.5999999999947926
    vertex 103.11274283785342 -71.06967349972398 0.9999999999947927
    vertex 103.11274283785342 -71.06967349972398 0.5999999999947926
  endloop
endfacet
facet normal -0.6932062104484775 -0.720739307791424 0.0
  outer loop
    vertex 78.1002635790043 -77.84526721515543 0.9999999999947927
    vertex 75.33556977023821 -75.18618799260284 0.5999999999947926
    vertex 78.1002635790043 -77.84526721515543 0.5999999999947926
  endloop
endfacet
facet normal -0.6932062104484775 -0.720739307791424 0.0
  outer loop
    vertex 75.33556977023821 -75.18618799260284 0.5999999999947926
    vertex 78.1002635790043 -77.84526721515543 0.9999999999947927
    vertex 75.33556977023821 -75.18618799260284 0.9999999999947927
  endloop
endfacet
facet normal 0.581753440320719 0.8133651914576919 0.0
  outer loop
    vertex 89.46031266639392 -62.34346964878369 0.9999999999947927
    vertex 91.80768696637921 -64.02241176368966 0.5999999999947926
    vertex 89.46031266639392 -62.34346964878369 0.5999999999947926
  endloop
endfacet
facet normal 0.581753440320719 0.8133651914576919 0.0
  outer loop
    vertex 91.80768696637921 -64.02241176368966 0.5999999999947926
    vertex 89.46031266639392 -62.34346964878369 0.9999999999947927
    vertex 91.80768696637921 -64.02241176368966 0.9999999999947927
  endloop
endfacet
facet normal 1.0 0.0 0.0
  outer loop
    vertex 81.1565671603098 -86.87335851078593 0.5999999999947926
    vertex 81.1565671603098 -89.49362261476831 0.9999999999947927
    vertex 81.1565671603098 -89.49362261476831 0.5999999999947926
  endloop
endfacet
facet normal 1.0 0.0 0.0
  outer loop
    vertex 81.1565671603098 -89.49362261476831 0.9999999999947927
    vertex 81.1565671603098 -86.87335851078593 0.5999999999947926
    vertex 81.1565671603098 -86.87335851078593 0.9999999999947927
  endloop
endfacet
facet normal 1.7709717432686103e-14 1.871875018978991e-14 -1.0
  outer loop
    vertex 75.02396504064926 -85.59802067832244 0.39999999999501856
    vertex 77.93914237748537 -89.73641437361606 0.3999999999942967
    vertex 70.70120681332591 -89.73641437361606 0.3999999999943869
  endloop
endfacet
facet normal 1.7709717432686103e-14 1.871875018978991e-14 -1.0
  outer loop
    vertex 77.93914237748537 -89.73641437361606 0.3999999999942967
    vertex 75.02396504064926 -85.59802067832244 0.39999999999501856
    vertex 80.19102636531764 -78.55706514109109 0.3999999999951088
  endloop
endfacet
facet normal 1.7709717432686103e-14 1.871875018978991e-14 -1.0
  outer loop
    vertex 77.93914237748537 -89.73641437361606 0.3999999999942967
    vertex 80.19102636531764 -78.55706514109109 0.3999999999951088
    vertex 81.82463934409238 -86.3422343342912 0.3999999999948381
  endloop
endfacet
facet normal 1.7709717432686103e-14 1.871875018978991e-14 -1.0
  outer loop
    vertex 81.82463934409238 -86.3422343342912 0.3999999999948381
    vertex 80.19102636531764 -78.55706514109109 0.3999999999951088
    vertex 82.55841911628575 -74.10492731285292 0.39999999999546976
  endloop
endfacet
facet normal 1.7709717432686103e-14 1.871875018978991e-14 -1.0
  outer loop
    vertex 81.82463934409238 -86.3422343342912 0.3999999999948381
    vertex 82.55841911628575 -74.10492731285292 0.39999999999546976
    vertex 85.51915568639059 -82.15226430384638 0.3999999999951088
  endloop
endfacet
facet normal 1.7709717432686103e-14 1.871875018978991e-14 -1.0
  outer loop
    vertex 85.51915568639059 -82.15226430384638 0.3999999999951088
    vertex 82.55841911628575 -74.10492731285292 0.39999999999546976
    vertex 84.5137845926399 -69.10016548359994 0.3999999999952893
  endloop
endfacet
facet normal 1.7709717432686103e-14 1.871875018978991e-14 -1.0
  outer loop
    vertex 85.51915568639059 -82.15226430384638 0.3999999999951088
    vertex 84.5137845926399 -69.10016548359994 0.3999999999952893
    vertex 85.82579847192683 -63.59449885921865 0.39999999999537955
  endloop
endfacet
facet normal 1.7709717432686103e-14 1.871875018978991e-14 -1.0
  outer loop
    vertex 85.51915568639059 -82.15226430384638 0.3999999999951088
    vertex 85.82579847192683 -63.59449885921865 0.39999999999537955
    vertex 88.78645834298605 -77.18050561426098 0.3999999999951991
  endloop
endfacet
facet normal 1.7709717432686103e-14 1.871875018978991e-14 -1.0
  outer loop
    vertex 88.78645834298605 -77.18050561426098 0.3999999999951991
    vertex 85.82579847192683 -63.59449885921865 0.39999999999537955
    vertex 86.2218789255046 -58.2014143736169 0.3999999999952893
  endloop
endfacet
facet normal 1.7709717432686103e-14 1.871875018978991e-14 -1.0
  outer loop
    vertex 88.78645834298605 -77.18050561426098 0.3999999999951991
    vertex 86.2218789255046 -58.2014143736169 0.3999999999952893
    vertex 93.6186697150759 -58.20141437361717 0.39999999999537955
  endloop
endfacet
facet normal 1.7709717432686103e-14 1.871875018978991e-14 -1.0
  outer loop
    vertex 88.78645834298605 -77.18050561426098 0.3999999999951991
    vertex 93.6186697150759 -58.20141437361717 0.39999999999537955
    vertex 91.39031425248568 -71.44095959751618 0.3999999999952893
  endloop
endfacet
facet normal 1.7709717432686103e-14 1.871875018978991e-14 -1.0
  outer loop
    vertex 91.39031425248568 -71.44095959751618 0.3999999999952893
    vertex 93.6186697150759 -58.20141437361717 0.39999999999537955
    vertex 93.09441365444869 -64.92891151937324 0.39999999999546976
  endloop
endfacet
facet normal 0.8946637784695058 0.4467401073271426 0.0
  outer loop
    vertex 66.27817943907026 -74.4070023852328 0.5999999999947926
    vertex 68.44945272965417 -78.75530139484289 0.9999999999947927
    vertex 68.44945272965417 -78.75530139484289 0.5999999999947926
  endloop
endfacet
facet normal 0.8946637784695058 0.4467401073271426 0.0
  outer loop
    vertex 68.44945272965417 -78.75530139484289 0.9999999999947927
    vertex 66.27817943907026 -74.4070023852328 0.5999999999947926
    vertex 66.27817943907026 -74.4070023852328 0.9999999999947927
  endloop
endfacet
facet normal 0.0 1.0 0.0
  outer loop
    vertex 81.1565671603098 -89.49362261476831 0.9999999999947927
    vertex 88.67614162103962 -89.49362261476831 0.5999999999947926
    vertex 81.1565671603098 -89.49362261476831 0.5999999999947926
  endloop
endfacet
facet normal 0.0 1.0 0.0
  outer loop
    vertex 88.67614162103962 -89.49362261476831 0.5999999999947926
    vertex 81.1565671603098 -89.49362261476831 0.9999999999947927
    vertex 88.67614162103962 -89.49362261476831 0.9999999999947927
  endloop
endfacet
facet normal -0.4272974928326853 0.904111084225219 0.0
  outer loop
    vertex 92.62713957285143 -86.06893891731252 0.9999999999947927
    vertex 96.11564227784257 -84.42021622649389 0.5999999999947926
    vertex 92.62713957285143 -86.06893891731252 0.5999999999947926
  endloop
endfacet
facet normal -0.4272974928326853 0.904111084225219 0.0
  outer loop
    vertex 96.11564227784257 -84.42021622649389 0.5999999999947926
    vertex 92.62713957285143 -86.06893891731252 0.9999999999947927
    vertex 96.11564227784257 -84.42021622649389 0.9999999999947927
  endloop
endfacet
facet normal -0.22788027328220425 0.9736891603837581 0.0
  outer loop
    vertex 88.67614162103962 -86.99362261476834 0.9999999999947927
    vertex 92.62713957285143 -86.06893891731252 0.5999999999947926
    vertex 88.67614162103962 -86.99362261476834 0.5999999999947926
  endloop
endfacet
facet normal -0.22788027328220425 0.9736891603837581 0.0
  outer loop
    vertex 92.62713957285143 -86.06893891731252 0.5999999999947926
    vertex 88.67614162103962 -86.99362261476834 0.9999999999947927
    vertex 92.62713957285143 -86.06893891731252 0.9999999999947927
  endloop
endfacet
facet normal 0.9314333547174971 -0.3639119477561973 1.0938402984955341e-16
  outer loop
    vertex 84.5137845926399 -69.10016548359994 -5.070475983526279e-12
    vertex 82.55841911628575 -74.10492731285292 0.39999999999546976
    vertex 82.55841911628575 -74.10492731285292 -4.889998128643214e-12
  endloop
endfacet
facet normal 0.9314333547174971 -0.3639119477561973 1.0938402984955341e-16
  outer loop
    vertex 82.55841911628575 -74.10492731285292 0.39999999999546976
    vertex 84.5137845926399 -69.10016548359994 -5.070475983526279e-12
    vertex 84.5137845926399 -69.10016548359994 0.3999999999952893
  endloop
endfacet
facet normal -0.8582947591652162 -0.5131569997471763 0.0
  outer loop
    vertex 99.99101497039021 -61.01166741565317 0.9999999999947927
    vertex 101.66497164731135 -63.811489387445235 0.5999999999947926
    vertex 101.66497164731135 -63.811489387445235 0.9999999999947927
  endloop
endfacet
facet normal -0.8582947591652162 -0.5131569997471763 0.0
  outer loop
    vertex 101.66497164731135 -63.811489387445235 0.5999999999947926
    vertex 99.99101497039021 -61.01166741565317 0.9999999999947927
    vertex 99.99101497039021 -61.01166741565317 0.5999999999947926
  endloop
endfacet
facet normal -0.995776453689082 -0.09181097035973317 0.0
  outer loop
    vertex 102.75080004021844 -67.14406293210784 0.9999999999947927
    vertex 103.11274283785342 -71.06967349972398 0.5999999999947926
    vertex 103.11274283785342 -71.06967349972398 0.9999999999947927
  endloop
endfacet
facet normal -0.995776453689082 -0.09181097035973317 0.0
  outer loop
    vertex 103.11274283785342 -71.06967349972398 0.5999999999947926
    vertex 102.75080004021844 -67.14406293210784 0.9999999999947927
    vertex 102.75080004021844 -67.14406293210784 0.5999999999947926
  endloop
endfacet
facet normal 0.8829353375358793 -0.4694946109705657 1.010356800775362e-16
  outer loop
    vertex 82.55841911628575 -74.10492731285292 -4.889998128643214e-12
    vertex 80.19102636531764 -78.55706514109109 0.3999999999951088
    vertex 80.19102636531764 -78.55706514109109 -5.250953838409344e-12
  endloop
endfacet
facet normal 0.8829353375358793 -0.4694946109705657 1.010356800775362e-16
  outer loop
    vertex 80.19102636531764 -78.55706514109109 0.3999999999951088
    vertex 82.55841911628575 -74.10492731285292 -4.889998128643214e-12
    vertex 82.55841911628575 -74.10492731285292 0.39999999999546976
  endloop
endfacet
facet normal -1.0 0.0 0.0
  outer loop
    vertex 88.67614162103962 -86.99362261476834 0.9999999999947927
    vertex 88.67614162103962 -89.49362261476831 0.5999999999947926
    vertex 88.67614162103962 -89.49362261476831 0.9999999999947927
  endloop
endfacet
facet normal -1.0 0.0 0.0
  outer loop
    vertex 88.67614162103962 -89.49362261476831 0.5999999999947926
    vertex 88.67614162103962 -86.99362261476834 0.9999999999947927
    vertex 88.67614162103962 -86.99362261476834 0.5999999999947926
  endloop
endfacet
facet normal 0.6915351107599395 -0.722342848366507 4.077964592861138e-13
  outer loop
    vertex 75.02396504064926 -85.59802067832254 -5.341192765850877e-12
    vertex 70.70120681332591 -89.73641437361606 0.3999999999943869
    vertex 70.70120681332591 -89.73641437361643 -5.4314316932924096e-12
  endloop
endfacet
facet normal 0.6915351107599395 -0.722342848366507 4.077964592861138e-13
  outer loop
    vertex 70.70120681332591 -89.73641437361606 0.3999999999943869
    vertex 75.02396504064926 -85.59802067832254 -5.341192765850877e-12
    vertex 75.02396504064926 -85.59802067832244 0.39999999999501856
  endloop
endfacet
facet normal 0.997313976282097 -0.07324501834522973 3.3043251418543355e-14
  outer loop
    vertex 86.2218789255046 -58.20141437361717 -4.980237056084746e-12
    vertex 85.82579847192683 -63.59449885921865 0.39999999999537955
    vertex 85.82579847192683 -63.594498859218746 -4.980237056084746e-12
  endloop
endfacet
facet normal 0.997313976282097 -0.07324501834522973 3.3043251418543355e-14
  outer loop
    vertex 85.82579847192683 -63.59449885921865 0.39999999999537955
    vertex 86.2218789255046 -58.20141437361717 -4.980237056084746e-12
    vertex 86.2218789255046 -58.2014143736169 0.3999999999952893
  endloop
endfacet
facet normal -0.9344232283596337 0.35616461124311605 0.0
  outer loop
    vertex 102.64526215305001 -75.35224142699167 0.9999999999947927
    vertex 101.2428200986391 -79.03164805724626 0.5999999999947926
    vertex 101.2428200986391 -79.03164805724626 0.9999999999947927
  endloop
endfacet
facet normal -0.9344232283596337 0.35616461124311605 0.0
  outer loop
    vertex 101.2428200986391 -79.03164805724626 0.5999999999947926
    vertex 102.64526215305001 -75.35224142699167 0.9999999999947927
    vertex 102.64526215305001 -75.35224142699167 0.5999999999947926
  endloop
endfacet
facet normal -0.6286261604139715 0.7777076252957714 0.0
  outer loop
    vertex 96.11564227784257 -84.42021622649389 0.9999999999947927
    vertex 99.02606427383284 -82.06770309043209 0.5999999999947926
    vertex 96.11564227784257 -84.42021622649389 0.5999999999947926
  endloop
endfacet
facet normal -0.6286261604139715 0.7777076252957714 0.0
  outer loop
    vertex 99.02606427383284 -82.06770309043209 0.5999999999947926
    vertex 96.11564227784257 -84.42021622649389 0.9999999999947927
    vertex 99.02606427383284 -82.06770309043209 0.9999999999947927
  endloop
endfacet
facet normal -0.9969774230398432 0.07769181391133705 -8.761432997336434e-15
  outer loop
    vertex 93.09441365444869 -64.92891151937324 0.39999999999546976
    vertex 93.6186697150759 -58.20141437361717 -4.980237056084746e-12
    vertex 93.09441365444869 -64.92891151937333 -4.889998128643214e-12
  endloop
endfacet
facet normal -0.9969774230398432 0.07769181391133705 -8.761432997336434e-15
  outer loop
    vertex 93.6186697150759 -58.20141437361717 -4.980237056084746e-12
    vertex 93.09441365444869 -64.92891151937324 0.39999999999546976
    vertex 93.6186697150759 -58.20141437361717 0.39999999999537955
  endloop
endfacet
facet normal 0.7298914629177035 0.6835630566084264 0.0
  outer loop
    vertex 91.80768696637921 -64.02241176368966 0.5999999999947926
    vertex 93.66249999355053 -66.00293452710228 0.9999999999947927
    vertex 93.66249999355053 -66.00293452710228 0.5999999999947926
  endloop
endfacet
facet normal 0.7298914629177035 0.6835630566084264 0.0
  outer loop
    vertex 93.66249999355053 -66.00293452710228 0.9999999999947927
    vertex 91.80768696637921 -64.02241176368966 0.5999999999947926
    vertex 91.80768696637921 -64.02241176368966 0.9999999999947927
  endloop
endfacet
facet normal -0.7382721297701869 -0.6745029743482176 0.0
  outer loop
    vertex 97.86468732070789 -58.68431156664876 0.9999999999947927
    vertex 99.99101497039021 -61.01166741565317 0.5999999999947926
    vertex 99.99101497039021 -61.01166741565317 0.9999999999947927
  endloop
endfacet
facet normal -0.7382721297701869 -0.6745029743482176 0.0
  outer loop
    vertex 99.99101497039021 -61.01166741565317 0.5999999999947926
    vertex 97.86468732070789 -58.68431156664876 0.9999999999947927
    vertex 97.86468732070789 -58.68431156664876 0.5999999999947926
  endloop
endfacet
facet normal -0.750061262412358 0.661368356234542 -1.6321351331211031e-16
  outer loop
    vertex 85.51915568639059 -82.15226430384638 0.3999999999951088
    vertex 81.82463934409238 -86.3422343342912 -5.521670620733943e-12
    vertex 81.82463934409238 -86.3422343342912 0.3999999999948381
  endloop
endfacet
facet normal -0.750061262412358 0.661368356234542 -1.6321351331211031e-16
  outer loop
    vertex 81.82463934409238 -86.3422343342912 -5.521670620733943e-12
    vertex 85.51915568639059 -82.15226430384638 0.3999999999951088
    vertex 85.51915568639059 -82.15226430384638 -5.250953838409344e-12
  endloop
endfacet
facet normal 0.13937345231106912 -0.9902398905269845 0.0
  outer loop
    vertex 89.49045539143572 -79.58457147919039 0.9999999999947927
    vertex 85.4191933356413 -80.15759005116203 0.5999999999947926
    vertex 89.49045539143572 -79.58457147919039 0.5999999999947926
  endloop
endfacet
facet normal 0.13937345231106912 -0.9902398905269845 0.0
  outer loop
    vertex 85.4191933356413 -80.15759005116203 0.5999999999947926
    vertex 89.49045539143572 -79.58457147919039 0.9999999999947927
    vertex 85.4191933356413 -80.15759005116203 0.9999999999947927
  endloop
endfacet
facet normal -0.8076317984778233 0.5896871018493425 0.0
  outer loop
    vertex 101.2428200986391 -79.03164805724626 0.9999999999947927
    vertex 99.02606427383284 -82.06770309043209 0.5999999999947926
    vertex 99.02606427383284 -82.06770309043209 0.9999999999947927
  endloop
endfacet
facet normal -0.8076317984778233 0.5896871018493425 0.0
  outer loop
    vertex 99.02606427383284 -82.06770309043209 0.5999999999947926
    vertex 101.2428200986391 -79.03164805724626 0.9999999999947927
    vertex 101.2428200986391 -79.03164805724626 0.5999999999947926
  endloop
endfacet
facet normal -0.9508038452999148 -0.3097935566839566 0.0
  outer loop
    vertex 101.66497164731135 -63.811489387445235 0.9999999999947927
    vertex 102.75080004021844 -67.14406293210784 0.5999999999947926
    vertex 102.75080004021844 -67.14406293210784 0.9999999999947927
  endloop
endfacet
facet normal -0.9508038452999148 -0.3097935566839566 0.0
  outer loop
    vertex 102.75080004021844 -67.14406293210784 0.5999999999947926
    vertex 101.66497164731135 -63.811489387445235 0.9999999999947927
    vertex 101.66497164731135 -63.811489387445235 0.5999999999947926
  endloop
endfacet
facet normal 0.8062032472624161 -0.5916386769841332 6.68608979518136e-14
  outer loop
    vertex 80.19102636531764 -78.55706514109109 -5.250953838409344e-12
    vertex 75.02396504064926 -85.59802067832244 0.39999999999501856
    vertex 75.02396504064926 -85.59802067832254 -5.341192765850877e-12
  endloop
endfacet
facet normal 0.8062032472624161 -0.5916386769841332 6.68608979518136e-14
  outer loop
    vertex 75.02396504064926 -85.59802067832244 0.39999999999501856
    vertex 80.19102636531764 -78.55706514109109 -5.250953838409344e-12
    vertex 80.19102636531764 -78.55706514109109 0.3999999999951088
  endloop
endfacet
facet normal 0.9727607770406935 -0.231811282407018 2.6316789295451825e-14
  outer loop
    vertex 85.82579847192683 -63.594498859218746 -4.980237056084746e-12
    vertex 84.5137845926399 -69.10016548359994 0.3999999999952893
    vertex 84.5137845926399 -69.10016548359994 -5.070475983526279e-12
  endloop
endfacet
facet normal 0.9727607770406935 -0.231811282407018 2.6316789295451825e-14
  outer loop
    vertex 84.5137845926399 -69.10016548359994 0.3999999999952893
    vertex 85.82579847192683 -63.594498859218746 -4.980237056084746e-12
    vertex 85.82579847192683 -63.59449885921865 0.39999999999537955
  endloop
endfacet
endsolid Flaps_v2004_export
