solid v1_flaps_250mmbed
facet normal -0.15031638819124618 0.9886379435572655 8.922406925810943e-13
  outer loop
    vertex 222.00398186877786 536.6555229794667 0.1999999999654002
    vertex 224.9797514518808 537.1079706512727 -3.451501149103935e-11
    vertex 222.00398186877786 536.6555229794668 -3.463345008330636e-11
  endloop
endfacet
facet normal -0.15031638819124618 0.9886379435572655 8.922406925810943e-13
  outer loop
    vertex 224.9797514518808 537.1079706512727 -3.451501149103935e-11
    vertex 222.00398186877786 536.6555229794667 0.1999999999654002
    vertex 224.9797514518808 537.1079706512725 0.19999999996532122
  endloop
endfacet
facet normal -0.6486740779992732 -0.7610663180904754 -3.440716133939246e-13
  outer loop
    vertex 237.53101342125268 538.8116865580065 0.19999999996538326
    vertex 234.12810685149333 541.712060978983 -3.452065142400445e-11
    vertex 237.53101342125268 538.8116865580065 -3.464472994923656e-11
  endloop
endfacet
facet normal -0.6486740779992732 -0.7610663180904754 -3.440716133939246e-13
  outer loop
    vertex 234.12810685149333 541.712060978983 -3.452065142400445e-11
    vertex 237.53101342125268 538.8116865580065 0.19999999996538326
    vertex 234.12810685149333 541.7120609789828 0.19999999996547915
  endloop
endfacet
facet normal 0.9621941441310508 -0.27236451494259445 -9.647565664729786e-17
  outer loop
    vertex 207.75874477150234 530.6232197179206 -3.4577050753655405e-11
    vertex 206.36151825221225 525.6871759195246 0.1999999999653438
    vertex 206.36151825221225 525.6871759195246 -3.465600981516675e-11
  endloop
endfacet
facet normal 0.9621941441310508 -0.27236451494259445 -9.647565664729786e-17
  outer loop
    vertex 206.36151825221225 525.6871759195246 0.1999999999653438
    vertex 207.75874477150234 530.6232197179206 -3.4577050753655405e-11
    vertex 207.75874477150234 530.6232197179206 0.19999999996536635
  endloop
endfacet
facet normal 0.4074809813744488 -0.9132136934026539 -4.119013364800901e-13
  outer loop
    vertex 220.02875133953341 543.5668740061537 0.19999999996543966
    vertex 215.87189314850647 541.712060978983 -3.452065142400445e-11
    vertex 220.02875133953341 543.5668740061537 -3.4548851088829926e-11
  endloop
endfacet
facet normal 0.4074809813744488 -0.9132136934026539 -4.119013364800901e-13
  outer loop
    vertex 215.87189314850647 541.712060978983 -3.452065142400445e-11
    vertex 220.02875133953341 543.5668740061537 0.19999999996543966
    vertex 215.87189314850647 541.7120609789828 0.19999999996547915
  endloop
endfacet
facet normal 0.0 -1.0 0.0
  outer loop
    vertex 242.45210090569657 543.2199642215159 0.999999999967017
    vertex 235.21355174917088 543.2199642215159 0.7999999999670174
    vertex 242.45210090569657 543.2199642215159 0.7999999999670174
  endloop
endfacet
facet normal 0.0 -1.0 0.0
  outer loop
    vertex 235.21355174917088 543.2199642215159 0.7999999999670174
    vertex 242.45210090569657 543.2199642215159 0.999999999967017
    vertex 235.21355174917088 543.2199642215159 0.999999999967017
  endloop
endfacet
facet normal -0.9604928238372248 0.2783047526672769 1.2598185352756235e-13
  outer loop
    vertex 215.87158635232328 530.3719536435291 0.19999999996538326
    vertex 213.8209606609513 523.294779279591 -3.465600981516675e-11
    vertex 213.8209606609513 523.2947792795909 0.1999999999654002
  endloop
endfacet
facet normal -0.9604928238372248 0.2783047526672769 1.2598185352756235e-13
  outer loop
    vertex 213.8209606609513 523.294779279591 -3.465600981516675e-11
    vertex 215.87158635232328 530.3719536435291 0.19999999996538326
    vertex 215.87158635232328 530.3719536435291 -3.463909001627146e-11
  endloop
endfacet
facet normal 0.5021663232173758 0.8647710586197609 3.901097509476059e-13
  outer loop
    vertex 227.95552103498372 536.6253802544252 0.19999999996535506
    vertex 230.44870022123956 535.1776090638833 -3.464472994923656e-11
    vertex 227.95552103498372 536.6253802544252 -3.464472994923656e-11
  endloop
endfacet
facet normal 0.5021663232173758 0.8647710586197609 3.901097509476059e-13
  outer loop
    vertex 230.44870022123956 535.1776090638833 -3.464472994923656e-11
    vertex 227.95552103498372 536.6253802544252 0.19999999996535506
    vertex 230.44870022123956 535.1776090638831 0.1999999999653438
  endloop
endfacet
facet normal 0.8717639469691097 0.48992613807066787 4.4218005988552036e-13
  outer loop
    vertex 234.10816509955743 530.0504312430868 -3.463345008330636e-11
    vertex 232.48950843473497 532.9306338149893 0.19999999996533252
    vertex 234.10816509955743 530.0504312430866 0.19999999996537762
  endloop
endfacet
facet normal 0.8717639469691097 0.48992613807066787 4.4218005988552036e-13
  outer loop
    vertex 232.48950843473497 532.9306338149893 0.19999999996533252
    vertex 234.10816509955743 530.0504312430868 -3.463345008330636e-11
    vertex 232.48950843473497 532.9306338149894 -3.468984941295732e-11
  endloop
endfacet
facet normal -0.8669935846161901 0.49831929948013154 2.2468730315716615e-13
  outer loop
    vertex 217.4750566060571 533.1617280403073 0.1999999999652874
    vertex 215.87158635232328 530.3719536435291 -3.463909001627146e-11
    vertex 215.87158635232328 530.3719536435291 0.19999999996538326
  endloop
endfacet
facet normal -0.8669935846161901 0.49831929948013154 2.2468730315716615e-13
  outer loop
    vertex 215.87158635232328 530.3719536435291 -3.463909001627146e-11
    vertex 217.4750566060571 533.1617280403073 0.1999999999652874
    vertex 217.4750566060571 533.1617280403075 -3.473496887667809e-11
  endloop
endfacet
facet normal 0.16008187864433795 0.987103739294761 4.453529788301331e-13
  outer loop
    vertex 224.9797514518808 537.1079706512727 -3.451501149103935e-11
    vertex 227.95552103498372 536.6253802544252 0.19999999996535506
    vertex 227.95552103498372 536.6253802544252 -3.464472994923656e-11
  endloop
endfacet
facet normal 0.16008187864433795 0.987103739294761 4.453529788301331e-13
  outer loop
    vertex 227.95552103498372 536.6253802544252 0.19999999996535506
    vertex 224.9797514518808 537.1079706512727 -3.451501149103935e-11
    vertex 224.9797514518808 537.1079706512725 0.19999999996532122
  endloop
endfacet
facet normal -0.9621863073912772 -0.27239219861945185 -1.1949550268438573e-16
  outer loop
    vertex 242.24079503422286 530.6232197179206 0.19999999996536635
    vertex 243.63817495160328 525.6871759195246 -3.465600981516675e-11
    vertex 243.63817495160328 525.6871759195246 0.1999999999653438
  endloop
endfacet
facet normal -0.9621863073912772 -0.27239219861945185 -1.1949550268438573e-16
  outer loop
    vertex 243.63817495160328 525.6871759195246 -3.465600981516675e-11
    vertex 242.24079503422286 530.6232197179206 0.19999999996536635
    vertex 242.24079503422286 530.6232197179206 -3.4577050753655405e-11
  endloop
endfacet
facet normal 0.0 -0.9238795325109672 0.38268343236586155
  outer loop
    vertex 200.00000000000017 515.7553889698333 0.9999999999661767
    vertex 195.00000000000006 515.6554885473284 0.7588190450685651
    vertex 200.00000000000017 515.6554885473284 0.7588190450685651
  endloop
endfacet
facet normal 0.0 -0.9238795325109672 0.38268343236586155
  outer loop
    vertex 195.00000000000006 515.6554885473284 0.7588190450685651
    vertex 200.00000000000017 515.7553889698333 0.9999999999661767
    vertex 195.00000000000006 515.7553889698333 0.9999999999661767
  endloop
endfacet
facet normal -0.4781534459171877 0.8782763131028408 3.9637949740845227e-13
  outer loop
    vertex 219.51080268252275 535.2981799640492 0.19999999996535506
    vertex 222.00398186877786 536.6555229794668 -3.463345008330636e-11
    vertex 219.51080268252275 535.2981799640492 -3.465600981516675e-11
  endloop
endfacet
facet normal -0.4781534459171877 0.8782763131028408 3.9637949740845227e-13
  outer loop
    vertex 222.00398186877786 536.6555229794668 -3.463345008330636e-11
    vertex 219.51080268252275 535.2981799640492 0.19999999996535506
    vertex 222.00398186877786 536.6555229794667 0.1999999999654002
  endloop
endfacet
facet normal -0.7239636081907208 0.6898381650905323 3.116139020004833e-13
  outer loop
    vertex 219.51080268252275 535.2981799640492 0.19999999996535506
    vertex 217.4750566060571 533.1617280403075 -3.473496887667809e-11
    vertex 217.4750566060571 533.1617280403073 0.1999999999652874
  endloop
endfacet
facet normal -0.7239636081907208 0.6898381650905323 3.116139020004833e-13
  outer loop
    vertex 217.4750566060571 533.1617280403075 -3.473496887667809e-11
    vertex 219.51080268252275 535.2981799640492 0.19999999996535506
    vertex 219.51080268252275 535.2981799640492 -3.465600981516675e-11
  endloop
endfacet
facet normal 0.0 -0.9238795325114213 -0.3826834323647651
  outer loop
    vertex 200.00000000000017 515.6554885473286 0.24118095486362698
    vertex 195.00000000000006 515.7553889698331 -3.3922818529704294e-11
    vertex 200.00000000000017 515.7553889698331 -3.3922818529704294e-11
  endloop
endfacet
facet normal 0.0 -0.9238795325114213 -0.3826834323647651
  outer loop
    vertex 195.00000000000006 515.7553889698331 -3.3922818529704294e-11
    vertex 200.00000000000017 515.6554885473286 0.24118095486362698
    vertex 195.00000000000006 515.6554885473286 0.24118095486362698
  endloop
endfacet
facet normal 0.0 0.923879532511358 0.38268343236491814
  outer loop
    vertex 250.0 517.487439777402 0.9999999999659962
    vertex 254.99999999999886 517.5873401999065 0.7588190450685595
    vertex 250.0 517.5873401999065 0.7588190450685595
  endloop
endfacet
facet normal 0.0 0.923879532511358 0.38268343236491814
  outer loop
    vertex 254.99999999999886 517.5873401999065 0.7588190450685595
    vertex 250.0 517.487439777402 0.9999999999659962
    vertex 254.99999999999886 517.487439777402 0.9999999999659962
  endloop
endfacet
facet normal -0.9881729977613009 -0.15334316579308088 2.1878803556004824e-17
  outer loop
    vertex 243.63817495160328 525.6871759195246 0.1999999999653438
    vertex 244.45248872199866 520.4395805966543 -3.473496887667809e-11
    vertex 244.45248872199866 520.4395805966543 0.19999999996530995
  endloop
endfacet
facet normal -0.9881729977613009 -0.15334316579308088 2.1878803556004824e-17
  outer loop
    vertex 244.45248872199866 520.4395805966543 -3.473496887667809e-11
    vertex 243.63817495160328 525.6871759195246 0.1999999999653438
    vertex 243.63817495160328 525.6871759195246 -3.465600981516675e-11
  endloop
endfacet
facet normal 0.0 -0.9914448613738645 0.13052619221964162
  outer loop
    vertex 200.00000000000017 515.6554885473284 0.7588190450685651
    vertex 195.00000000000006 515.6214143736175 0.499999999966031
    vertex 200.00000000000017 515.6214143736175 0.499999999966031
  endloop
endfacet
facet normal 0.0 -0.9914448613738645 0.13052619221964162
  outer loop
    vertex 195.00000000000006 515.6214143736175 0.499999999966031
    vertex 200.00000000000017 515.6554885473284 0.7588190450685651
    vertex 195.00000000000006 515.6554885473284 0.7588190450685651
  endloop
endfacet
facet normal -3.3473728796000455e-16 -3.9358056422525455e-14 1.0
  outer loop
    vertex 220.93492627881557 515.6214143736175 0.9999999999665828
    vertex 214.82633175470147 524.9238670146573 0.999999999967017
    vertex 214.82633175470147 515.6214143736175 0.9999999999665828
  endloop
endfacet
facet normal -3.3473728796000455e-16 -3.9358056422525455e-14 1.0
  outer loop
    vertex 214.82633175470147 524.9238670146573 0.999999999967017
    vertex 220.93492627881557 515.6214143736175 0.9999999999665828
    vertex 214.82633175470147 526.4317702571905 0.999999999967017
  endloop
endfacet
facet normal -3.3473728796000455e-16 -3.9358056422525455e-14 1.0
  outer loop
    vertex 214.82633175470147 526.4317702571905 0.999999999967017
    vertex 220.93492627881557 515.6214143736175 0.9999999999665828
    vertex 216.31367965293143 524.8833699184183 0.999999999967017
  endloop
endfacet
facet normal -3.3473728796000455e-16 -3.9358056422525455e-14 1.0
  outer loop
    vertex 214.82633175470147 526.4317702571905 0.999999999967017
    vertex 216.31367965293143 524.8833699184183 0.999999999967017
    vertex 215.50956685564194 526.5121508573011 0.999999999967017
  endloop
endfacet
facet normal -3.3473728796000455e-16 -3.9358056422525455e-14 1.0
  outer loop
    vertex 215.50956685564194 526.5121508573011 0.999999999967017
    vertex 214.6649569621135 528.1808153000557 0.999999999967017
    vertex 214.82633175470147 526.4317702571905 0.999999999967017
  endloop
endfacet
facet normal 0.0 0.923879532511279 -0.3826834323651088
  outer loop
    vertex 195.00000000000006 517.5873401999065 0.24118095486332805
    vertex 200.00000000000017 517.487439777402 -3.396793799342506e-11
    vertex 195.00000000000006 517.487439777402 -3.396793799342506e-11
  endloop
endfacet
facet normal 0.0 0.923879532511279 -0.3826834323651088
  outer loop
    vertex 200.00000000000017 517.487439777402 -3.396793799342506e-11
    vertex 195.00000000000006 517.5873401999065 0.24118095486332805
    vertex 200.00000000000017 517.5873401999065 0.24118095486332805
  endloop
endfacet
facet normal 5.890807790145744e-16 -1.840872638324223e-15 1.0
  outer loop
    vertex 250.0 515.6214143736175 0.9999999999661429
    vertex 242.45210090569657 543.2199642215159 0.999999999967017
    vertex 242.45210090569657 515.6214143736175 0.9999999999665828
  endloop
endfacet
facet normal 5.890807790145744e-16 -1.840872638324223e-15 1.0
  outer loop
    vertex 254.99999999999886 515.7553889698333 0.9999999999661767
    vertex 250.0 517.487439777402 0.9999999999659962
    vertex 250.0 515.7553889698333 0.9999999999661767
  endloop
endfacet
facet normal 5.890807790145744e-16 -1.840872638324223e-15 1.0
  outer loop
    vertex 250.0 517.487439777402 0.9999999999659962
    vertex 254.99999999999886 515.7553889698333 0.9999999999661767
    vertex 254.99999999999886 517.487439777402 0.9999999999659962
  endloop
endfacet
facet normal 5.890807790145744e-16 -1.840872638324223e-15 1.0
  outer loop
    vertex 207.54789909430377 515.6214143736175 0.9999999999665828
    vertex 200.00000000000017 515.7553889698333 0.9999999999661767
    vertex 200.00000000000017 515.6214143736175 0.9999999999661429
  endloop
endfacet
facet normal 5.890807790145744e-16 -1.840872638324223e-15 1.0
  outer loop
    vertex 200.00000000000017 515.7553889698333 0.9999999999661767
    vertex 207.54789909430377 515.6214143736175 0.9999999999665828
    vertex 200.00000000000017 517.4874397774021 0.9999999999661767
  endloop
endfacet
facet normal 5.890807790145744e-16 -1.840872638324223e-15 1.0
  outer loop
    vertex 200.00000000000017 517.4874397774021 0.9999999999661767
    vertex 207.54789909430377 515.6214143736175 0.9999999999665828
    vertex 200.00000000000017 550.0000000000001 0.9999999999653251
  endloop
endfacet
facet normal 5.890807790145744e-16 -1.840872638324223e-15 1.0
  outer loop
    vertex 200.00000000000017 550.0000000000001 0.9999999999653251
    vertex 207.54789909430377 515.6214143736175 0.9999999999665828
    vertex 207.54789909430377 543.2199642215159 0.999999999967017
  endloop
endfacet
facet normal 5.890807790145744e-16 -1.840872638324223e-15 1.0
  outer loop
    vertex 200.00000000000017 550.0000000000001 0.9999999999653251
    vertex 207.54789909430377 543.2199642215159 0.999999999967017
    vertex 250.0 550.0000000000001 0.9999999999653251
  endloop
endfacet
facet normal 5.890807790145744e-16 -1.840872638324223e-15 1.0
  outer loop
    vertex 250.0 550.0000000000001 0.9999999999653251
    vertex 207.54789909430377 543.2199642215159 0.999999999967017
    vertex 214.94659585868405 543.2199642215159 0.999999999967017
  endloop
endfacet
facet normal 5.890807790145744e-16 -1.840872638324223e-15 1.0
  outer loop
    vertex 250.0 550.0000000000001 0.9999999999653251
    vertex 214.94659585868405 543.2199642215159 0.999999999967017
    vertex 235.21355174917088 543.2199642215159 0.999999999967017
  endloop
endfacet
facet normal 5.890807790145744e-16 -1.840872638324223e-15 1.0
  outer loop
    vertex 235.21355174917088 543.2199642215159 0.999999999967017
    vertex 214.94659585868405 543.2199642215159 0.999999999967017
    vertex 228.51407658291672 515.6214143736175 0.9999999999665828
  endloop
endfacet
facet normal 5.890807790145744e-16 -1.840872638324223e-15 1.0
  outer loop
    vertex 235.21355174917088 543.2199642215159 0.999999999967017
    vertex 228.51407658291672 515.6214143736175 0.9999999999665828
    vertex 235.21355174917088 515.6214143736175 0.9999999999665828
  endloop
endfacet
facet normal 5.890807790145744e-16 -1.840872638324223e-15 1.0
  outer loop
    vertex 250.0 550.0000000000001 0.9999999999653251
    vertex 235.21355174917088 543.2199642215159 0.999999999967017
    vertex 242.45210090569657 543.2199642215159 0.999999999967017
  endloop
endfacet
facet normal 5.890807790145744e-16 -1.840872638324223e-15 1.0
  outer loop
    vertex 250.0 550.0000000000001 0.9999999999653251
    vertex 242.45210090569657 543.2199642215159 0.999999999967017
    vertex 250.0 515.6214143736175 0.9999999999661429
  endloop
endfacet
facet normal 5.890807790145744e-16 -1.840872638324223e-15 1.0
  outer loop
    vertex 250.0 550.0000000000001 0.9999999999653251
    vertex 250.0 515.6214143736175 0.9999999999661429
    vertex 250.0 515.7553889698333 0.9999999999661767
  endloop
endfacet
facet normal 5.890807790145744e-16 -1.840872638324223e-15 1.0
  outer loop
    vertex 250.0 550.0000000000001 0.9999999999653251
    vertex 250.0 515.7553889698333 0.9999999999661767
    vertex 250.0 517.487439777402 0.9999999999659962
  endloop
endfacet
facet normal 5.890807790145744e-16 -1.840872638324223e-15 1.0
  outer loop
    vertex 200.00000000000017 515.7553889698333 0.9999999999661767
    vertex 195.00000000000006 517.4874397774021 0.9999999999661767
    vertex 195.00000000000006 515.7553889698333 0.9999999999661767
  endloop
endfacet
facet normal 5.890807790145744e-16 -1.840872638324223e-15 1.0
  outer loop
    vertex 195.00000000000006 517.4874397774021 0.9999999999661767
    vertex 200.00000000000017 515.7553889698333 0.9999999999661767
    vertex 200.00000000000017 517.4874397774021 0.9999999999661767
  endloop
endfacet
facet normal 1.0 0.0 0.0
  outer loop
    vertex 254.99999999999886 515.6554885473286 0.24118095486362698
    vertex 254.99999999999886 515.6554885473284 0.7588190450685651
    vertex 254.99999999999886 515.6214143736175 0.499999999966031
  endloop
endfacet
facet normal 1.0 0.0 0.0
  outer loop
    vertex 254.99999999999886 515.6554885473284 0.7588190450685651
    vertex 254.99999999999886 515.6554885473286 0.24118095486362698
    vertex 254.99999999999886 515.7553889698333 0.9999999999661767
  endloop
endfacet
facet normal 1.0 0.0 0.0
  outer loop
    vertex 254.99999999999886 515.7553889698333 0.9999999999661767
    vertex 254.99999999999886 515.6554885473286 0.24118095486362698
    vertex 254.99999999999886 515.7553889698331 -3.3922818529704294e-11
  endloop
endfacet
facet normal 1.0 0.0 0.0
  outer loop
    vertex 254.99999999999886 515.7553889698333 0.9999999999661767
    vertex 254.99999999999886 515.7553889698331 -3.3922818529704294e-11
    vertex 254.99999999999886 517.487439777402 -3.396793799342506e-11
  endloop
endfacet
facet normal 1.0 0.0 0.0
  outer loop
    vertex 254.99999999999886 515.7553889698333 0.9999999999661767
    vertex 254.99999999999886 517.487439777402 -3.396793799342506e-11
    vertex 254.99999999999886 517.487439777402 0.9999999999659962
  endloop
endfacet
facet normal 1.0 0.0 0.0
  outer loop
    vertex 254.99999999999886 517.487439777402 0.9999999999659962
    vertex 254.99999999999886 517.487439777402 -3.396793799342506e-11
    vertex 254.99999999999886 517.5873401999065 0.24118095486332805
  endloop
endfacet
facet normal 1.0 0.0 0.0
  outer loop
    vertex 254.99999999999886 517.487439777402 0.9999999999659962
    vertex 254.99999999999886 517.5873401999065 0.24118095486332805
    vertex 254.99999999999886 517.5873401999065 0.7588190450685595
  endloop
endfacet
facet normal 1.0 0.0 0.0
  outer loop
    vertex 254.99999999999886 517.5873401999065 0.7588190450685595
    vertex 254.99999999999886 517.5873401999065 0.24118095486332805
    vertex 254.99999999999886 517.6214143736177 0.49999999996606487
  endloop
endfacet
facet normal -1.0 0.0 0.0
  outer loop
    vertex 214.82633175470147 526.4317702571905 0.999999999967017
    vertex 214.82633175470147 524.9238670146573 0.7999999999670174
    vertex 214.82633175470147 524.9238670146573 0.999999999967017
  endloop
endfacet
facet normal -1.0 0.0 0.0
  outer loop
    vertex 214.82633175470147 524.9238670146573 0.7999999999670174
    vertex 214.82633175470147 526.4317702571905 0.999999999967017
    vertex 214.82633175470147 526.4317702571905 0.7999999999670174
  endloop
endfacet
facet normal -1.0 0.0 0.0
  outer loop
    vertex 200.00000000000017 515.6554885473286 0.24118095486362698
    vertex 200.00000000000017 515.6214143736178 -3.3911538663774105e-11
    vertex 200.00000000000017 515.6214143736175 0.499999999966031
  endloop
endfacet
facet normal -1.0 0.0 0.0
  outer loop
    vertex 200.00000000000017 515.6214143736178 -3.3911538663774105e-11
    vertex 200.00000000000017 515.6554885473286 0.24118095486362698
    vertex 200.00000000000017 515.7553889698331 -3.3922818529704294e-11
  endloop
endfacet
facet normal -1.8005724523030185e-19 -1.95884765275629e-14 -1.0
  outer loop
    vertex 254.99999999999886 517.487439777402 -3.396793799342506e-11
    vertex 250.0 515.7553889698331 -3.3922818529704294e-11
    vertex 250.0 517.487439777402 -3.396793799342506e-11
  endloop
endfacet
facet normal -1.8005724523030185e-19 -1.95884765275629e-14 -1.0
  outer loop
    vertex 250.0 515.7553889698331 -3.3922818529704294e-11
    vertex 254.99999999999886 517.487439777402 -3.396793799342506e-11
    vertex 254.99999999999886 515.7553889698331 -3.3922818529704294e-11
  endloop
endfacet
facet normal -1.8005724523030185e-19 -1.95884765275629e-14 -1.0
  outer loop
    vertex 200.00000000000017 550.0000000000001 -3.4622170217376174e-11
    vertex 209.77953453401548 535.0567313675338 -3.461089035144598e-11
    vertex 200.00000000000017 517.487439777402 -3.396793799342506e-11
  endloop
endfacet
facet normal -1.8005724523030185e-19 -1.95884765275629e-14 -1.0
  outer loop
    vertex 209.77953453401548 535.0567313675338 -3.461089035144598e-11
    vertex 200.00000000000017 550.0000000000001 -3.4622170217376174e-11
    vertex 212.46890987970133 538.8116865580065 -3.464472994923656e-11
  endloop
endfacet
facet normal -1.8005724523030185e-19 -1.95884765275629e-14 -1.0
  outer loop
    vertex 212.46890987970133 538.8116865580065 -3.464472994923656e-11
    vertex 200.00000000000017 550.0000000000001 -3.4622170217376174e-11
    vertex 215.87189314850647 541.712060978983 -3.452065142400445e-11
  endloop
endfacet
facet normal -1.8005724523030185e-19 -1.95884765275629e-14 -1.0
  outer loop
    vertex 215.87189314850647 541.712060978983 -3.452065142400445e-11
    vertex 200.00000000000017 550.0000000000001 -3.4622170217376174e-11
    vertex 220.02875133953341 543.5668740061537 -3.4548851088829926e-11
  endloop
endfacet
facet normal -1.8005724523030185e-19 -1.95884765275629e-14 -1.0
  outer loop
    vertex 220.02875133953341 543.5668740061537 -3.4548851088829926e-11
    vertex 200.00000000000017 550.0000000000001 -3.4622170217376174e-11
    vertex 250.0 550.0000000000001 -3.4622170217376174e-11
  endloop
endfacet
facet normal -1.8005724523030185e-19 -1.95884765275629e-14 -1.0
  outer loop
    vertex 200.00000000000017 517.487439777402 -3.396793799342506e-11
    vertex 209.77953453401548 535.0567313675338 -3.461089035144598e-11
    vertex 200.00000000000017 515.7553889698331 -3.3922818529704294e-11
  endloop
endfacet
facet normal -1.8005724523030185e-19 -1.95884765275629e-14 -1.0
  outer loop
    vertex 200.00000000000017 515.7553889698331 -3.3922818529704294e-11
    vertex 209.77953453401548 535.0567313675338 -3.461089035144598e-11
    vertex 200.00000000000017 515.6214143736178 -3.3911538663774105e-11
  endloop
endfacet
facet normal -1.8005724523030185e-19 -1.95884765275629e-14 -1.0
  outer loop
    vertex 200.00000000000017 515.6214143736178 -3.3911538663774105e-11
    vertex 209.77953453401548 535.0567313675338 -3.461089035144598e-11
    vertex 207.75874477150234 530.6232197179206 -3.4577050753655405e-11
  endloop
endfacet
facet normal -1.8005724523030185e-19 -1.95884765275629e-14 -1.0
  outer loop
    vertex 200.00000000000017 515.6214143736178 -3.3911538663774105e-11
    vertex 207.75874477150234 530.6232197179206 -3.4577050753655405e-11
    vertex 206.36151825221225 525.6871759195246 -3.465600981516675e-11
  endloop
endfacet
facet normal -1.8005724523030185e-19 -1.95884765275629e-14 -1.0
  outer loop
    vertex 200.00000000000017 515.6214143736178 -3.3911538663774105e-11
    vertex 206.36151825221225 525.6871759195246 -3.465600981516675e-11
    vertex 205.54743457895447 520.4395805966543 -3.473496887667809e-11
  endloop
endfacet
facet normal -1.8005724523030185e-19 -1.95884765275629e-14 -1.0
  outer loop
    vertex 200.00000000000017 515.6214143736178 -3.3911538663774105e-11
    vertex 205.54743457895447 520.4395805966543 -3.473496887667809e-11
    vertex 205.3038758977559 515.6214143736178 -3.4193535312028895e-11
  endloop
endfacet
facet normal -1.8005724523030185e-19 -1.95884765275629e-14 -1.0
  outer loop
    vertex 220.02875133953341 543.5668740061537 -3.4548851088829926e-11
    vertex 250.0 550.0000000000001 -3.4622170217376174e-11
    vertex 224.9797514518808 544.1851450152108 -3.459961048551579e-11
  endloop
endfacet
facet normal -1.8005724523030185e-19 -1.95884765275629e-14 -1.0
  outer loop
    vertex 224.9797514518808 544.1851450152108 -3.459961048551579e-11
    vertex 250.0 550.0000000000001 -3.4622170217376174e-11
    vertex 229.96112438640756 543.5668740061537 -3.4548851088829926e-11
  endloop
endfacet
facet normal -1.8005724523030185e-19 -1.95884765275629e-14 -1.0
  outer loop
    vertex 229.96112438640756 543.5668740061537 -3.4548851088829926e-11
    vertex 250.0 550.0000000000001 -3.4622170217376174e-11
    vertex 234.12810685149333 541.712060978983 -3.452065142400445e-11
  endloop
endfacet
facet normal -1.8005724523030185e-19 -1.95884765275629e-14 -1.0
  outer loop
    vertex 234.12810685149333 541.712060978983 -3.452065142400445e-11
    vertex 250.0 550.0000000000001 -3.4622170217376174e-11
    vertex 237.53101342125268 538.8116865580065 -3.464472994923656e-11
  endloop
endfacet
facet normal -1.8005724523030185e-19 -1.95884765275629e-14 -1.0
  outer loop
    vertex 237.53101342125268 538.8116865580065 -3.464472994923656e-11
    vertex 250.0 550.0000000000001 -3.4622170217376174e-11
    vertex 240.22015866980092 535.0567313675338 -3.461089035144598e-11
  endloop
endfacet
facet normal -1.8005724523030185e-19 -1.95884765275629e-14 -1.0
  outer loop
    vertex 240.22015866980092 535.0567313675338 -3.461089035144598e-11
    vertex 250.0 550.0000000000001 -3.4622170217376174e-11
    vertex 242.24079503422286 530.6232197179206 -3.4577050753655405e-11
  endloop
endfacet
facet normal -1.8005724523030185e-19 -1.95884765275629e-14 -1.0
  outer loop
    vertex 242.24079503422286 530.6232197179206 -3.4577050753655405e-11
    vertex 250.0 550.0000000000001 -3.4622170217376174e-11
    vertex 243.63817495160328 525.6871759195246 -3.465600981516675e-11
  endloop
endfacet
facet normal -1.8005724523030185e-19 -1.95884765275629e-14 -1.0
  outer loop
    vertex 243.63817495160328 525.6871759195246 -3.465600981516675e-11
    vertex 250.0 550.0000000000001 -3.4622170217376174e-11
    vertex 244.45248872199866 520.4395805966543 -3.473496887667809e-11
  endloop
endfacet
facet normal -1.8005724523030185e-19 -1.95884765275629e-14 -1.0
  outer loop
    vertex 244.45248872199866 520.4395805966543 -3.473496887667809e-11
    vertex 250.0 550.0000000000001 -3.4622170217376174e-11
    vertex 244.6961162439786 515.6214143736178 -3.4193535312028895e-11
  endloop
endfacet
facet normal -1.8005724523030185e-19 -1.95884765275629e-14 -1.0
  outer loop
    vertex 244.6961162439786 515.6214143736178 -3.4193535312028895e-11
    vertex 250.0 550.0000000000001 -3.4622170217376174e-11
    vertex 250.0 515.6214143736178 -3.3911538663774105e-11
  endloop
endfacet
facet normal -1.8005724523030185e-19 -1.95884765275629e-14 -1.0
  outer loop
    vertex 250.0 515.6214143736178 -3.3911538663774105e-11
    vertex 250.0 550.0000000000001 -3.4622170217376174e-11
    vertex 250.0 517.487439777402 -3.396793799342506e-11
  endloop
endfacet
facet normal -1.8005724523030185e-19 -1.95884765275629e-14 -1.0
  outer loop
    vertex 250.0 515.6214143736178 -3.3911538663774105e-11
    vertex 250.0 517.487439777402 -3.396793799342506e-11
    vertex 250.0 515.7553889698331 -3.3922818529704294e-11
  endloop
endfacet
facet normal -1.8005724523030185e-19 -1.95884765275629e-14 -1.0
  outer loop
    vertex 200.00000000000017 517.487439777402 -3.396793799342506e-11
    vertex 195.00000000000006 515.7553889698331 -3.3922818529704294e-11
    vertex 195.00000000000006 517.487439777402 -3.396793799342506e-11
  endloop
endfacet
facet normal -1.8005724523030185e-19 -1.95884765275629e-14 -1.0
  outer loop
    vertex 195.00000000000006 515.7553889698331 -3.3922818529704294e-11
    vertex 200.00000000000017 517.487439777402 -3.396793799342506e-11
    vertex 200.00000000000017 515.7553889698331 -3.3922818529704294e-11
  endloop
endfacet
facet normal 0.0 -0.9914448613738645 0.13052619221964162
  outer loop
    vertex 254.99999999999886 515.6554885473284 0.7588190450685651
    vertex 250.0 515.6214143736175 0.499999999966031
    vertex 254.99999999999886 515.6214143736175 0.499999999966031
  endloop
endfacet
facet normal 0.0 -0.9914448613738645 0.13052619221964162
  outer loop
    vertex 250.0 515.6214143736175 0.499999999966031
    vertex 254.99999999999886 515.6554885473284 0.7588190450685651
    vertex 250.0 515.6554885473284 0.7588190450685651
  endloop
endfacet
facet normal 0.0 -0.9914448613737664 -0.1305261922203857
  outer loop
    vertex 254.99999999999886 515.6214143736175 0.499999999966031
    vertex 250.0 515.6554885473286 0.24118095486362698
    vertex 254.99999999999886 515.6554885473286 0.24118095486362698
  endloop
endfacet
facet normal 0.0 -0.9914448613737664 -0.1305261922203857
  outer loop
    vertex 250.0 515.6554885473286 0.24118095486362698
    vertex 254.99999999999886 515.6214143736175 0.499999999966031
    vertex 250.0 515.6214143736175 0.499999999966031
  endloop
endfacet
facet normal 0.8966789692032288 0.44268140483719787 0.0
  outer loop
    vertex 215.50956685564194 526.5121508573011 0.7999999999670174
    vertex 216.31367965293143 524.8833699184183 0.999999999967017
    vertex 216.31367965293143 524.8833699184183 0.7999999999670174
  endloop
endfacet
facet normal 0.8966789692032288 0.44268140483719787 0.0
  outer loop
    vertex 216.31367965293143 524.8833699184183 0.999999999967017
    vertex 215.50956685564194 526.5121508573011 0.7999999999670174
    vertex 215.50956685564194 526.5121508573011 0.999999999967017
  endloop
endfacet
facet normal 0.0 0.991444861373683 0.13052619222102035
  outer loop
    vertex 195.00000000000006 517.5873401999065 0.7588190450685595
    vertex 200.00000000000017 517.6214143736177 0.49999999996606487
    vertex 195.00000000000006 517.6214143736177 0.49999999996606487
  endloop
endfacet
facet normal 0.0 0.991444861373683 0.13052619222102035
  outer loop
    vertex 200.00000000000017 517.6214143736177 0.49999999996606487
    vertex 195.00000000000006 517.5873401999065 0.7588190450685595
    vertex 200.00000000000017 517.5873401999065 0.7588190450685595
  endloop
endfacet
facet normal -0.9957706133158699 -0.09187429268591038 0.0
  outer loop
    vertex 214.6649569621135 528.1808153000557 0.999999999967017
    vertex 214.82633175470147 526.4317702571905 0.7999999999670174
    vertex 214.82633175470147 526.4317702571905 0.999999999967017
  endloop
endfacet
facet normal -0.9957706133158699 -0.09187429268591038 0.0
  outer loop
    vertex 214.82633175470147 526.4317702571905 0.7999999999670174
    vertex 214.6649569621135 528.1808153000557 0.999999999967017
    vertex 214.6649569621135 528.1808153000557 0.7999999999670174
  endloop
endfacet
facet normal 0.8922182390562396 0.4516044883472514 0.0
  outer loop
    vertex 214.6649569621135 528.1808153000557 0.7999999999670174
    vertex 215.50956685564194 526.5121508573011 0.999999999967017
    vertex 215.50956685564194 526.5121508573011 0.7999999999670174
  endloop
endfacet
facet normal 0.8922182390562396 0.4516044883472514 0.0
  outer loop
    vertex 215.50956685564194 526.5121508573011 0.999999999967017
    vertex 214.6649569621135 528.1808153000557 0.7999999999670174
    vertex 214.6649569621135 528.1808153000557 0.999999999967017
  endloop
endfacet
facet normal 1.0 0.0 0.0
  outer loop
    vertex 250.0 550.0000000000001 -3.4622170217376174e-11
    vertex 250.0 517.5873401999065 0.24118095486332805
    vertex 250.0 517.487439777402 -3.396793799342506e-11
  endloop
endfacet
facet normal 1.0 0.0 0.0
  outer loop
    vertex 250.0 517.5873401999065 0.24118095486332805
    vertex 250.0 550.0000000000001 -3.4622170217376174e-11
    vertex 250.0 517.6214143736177 0.49999999996606487
  endloop
endfacet
facet normal 1.0 0.0 0.0
  outer loop
    vertex 250.0 517.5873401999065 0.7588190450685595
    vertex 250.0 550.0000000000001 0.9999999999653251
    vertex 250.0 517.487439777402 0.9999999999659962
  endloop
endfacet
facet normal 1.0 0.0 0.0
  outer loop
    vertex 250.0 550.0000000000001 0.9999999999653251
    vertex 250.0 517.5873401999065 0.7588190450685595
    vertex 250.0 517.6214143736177 0.49999999996606487
  endloop
endfacet
facet normal 1.0 0.0 0.0
  outer loop
    vertex 250.0 550.0000000000001 0.9999999999653251
    vertex 250.0 517.6214143736177 0.49999999996606487
    vertex 250.0 550.0000000000001 -3.4622170217376174e-11
  endloop
endfacet
facet normal 1.0 0.0 0.0
  outer loop
    vertex 250.0 515.6214143736178 -3.3911538663774105e-11
    vertex 250.0 515.6554885473286 0.24118095486362698
    vertex 250.0 515.6214143736175 0.499999999966031
  endloop
endfacet
facet normal 1.0 0.0 0.0
  outer loop
    vertex 250.0 515.6554885473286 0.24118095486362698
    vertex 250.0 515.6214143736178 -3.3911538663774105e-11
    vertex 250.0 515.7553889698331 -3.3922818529704294e-11
  endloop
endfacet
facet normal 0.0 -0.9238795325114213 -0.3826834323647651
  outer loop
    vertex 254.99999999999886 515.6554885473286 0.24118095486362698
    vertex 250.0 515.7553889698331 -3.3922818529704294e-11
    vertex 254.99999999999886 515.7553889698331 -3.3922818529704294e-11
  endloop
endfacet
facet normal 0.0 -0.9238795325114213 -0.3826834323647651
  outer loop
    vertex 250.0 515.7553889698331 -3.3922818529704294e-11
    vertex 254.99999999999886 515.6554885473286 0.24118095486362698
    vertex 250.0 515.6554885473286 0.24118095486362698
  endloop
endfacet
facet normal 1.0 0.0 0.0
  outer loop
    vertex 250.0 515.6554885473284 0.7588190450685651
    vertex 250.0 515.6214143736175 0.9999999999661429
    vertex 250.0 515.6214143736175 0.499999999966031
  endloop
endfacet
facet normal 1.0 0.0 0.0
  outer loop
    vertex 250.0 515.6214143736175 0.9999999999661429
    vertex 250.0 515.6554885473284 0.7588190450685651
    vertex 250.0 515.7553889698333 0.9999999999661767
  endloop
endfacet
facet normal -0.9987240685909208 -0.050499849675004566 -2.2771245867606585e-14
  outer loop
    vertex 244.45248872199866 520.4395805966543 0.19999999996530995
    vertex 244.6961162439786 515.6214143736178 -3.4193535312028895e-11
    vertex 244.6961162439786 515.6214143736175 0.19999999996530995
  endloop
endfacet
facet normal -0.9987240685909208 -0.050499849675004566 -2.2771245867606585e-14
  outer loop
    vertex 244.6961162439786 515.6214143736178 -3.4193535312028895e-11
    vertex 244.45248872199866 520.4395805966543 0.19999999996530995
    vertex 244.45248872199866 520.4395805966543 -3.473496887667809e-11
  endloop
endfacet
facet normal 0.0 0.9914448613736988 -0.1305261922209003
  outer loop
    vertex 250.0 517.6214143736177 0.49999999996606487
    vertex 254.99999999999886 517.5873401999065 0.24118095486332805
    vertex 250.0 517.5873401999065 0.24118095486332805
  endloop
endfacet
facet normal 0.0 0.9914448613736988 -0.1305261922209003
  outer loop
    vertex 254.99999999999886 517.5873401999065 0.24118095486332805
    vertex 250.0 517.6214143736177 0.49999999996606487
    vertex 254.99999999999886 517.6214143736177 0.49999999996606487
  endloop
endfacet
facet normal 0.0 -0.9238795325109672 0.3826834323658616
  outer loop
    vertex 254.99999999999886 515.7553889698333 0.9999999999661767
    vertex 250.0 515.6554885473284 0.7588190450685651
    vertex 254.99999999999886 515.6554885473284 0.7588190450685651
  endloop
endfacet
facet normal 0.0 -0.9238795325109672 0.3826834323658616
  outer loop
    vertex 250.0 515.6554885473284 0.7588190450685651
    vertex 254.99999999999886 515.7553889698333 0.9999999999661767
    vertex 250.0 515.7553889698333 0.9999999999661767
  endloop
endfacet
facet normal 0.0 0.0 1.0
  outer loop
    vertex 242.45210090569657 515.6214143736175 0.7999999999670174
    vertex 235.21355174917088 543.2199642215159 0.7999999999670174
    vertex 235.21355174917088 515.6214143736175 0.7999999999670174
  endloop
endfacet
facet normal 0.0 0.0 1.0
  outer loop
    vertex 235.21355174917088 543.2199642215159 0.7999999999670174
    vertex 242.45210090569657 515.6214143736175 0.7999999999670174
    vertex 242.45210090569657 543.2199642215159 0.7999999999670174
  endloop
endfacet
facet normal 0.0 0.991444861373683 0.13052619222102033
  outer loop
    vertex 250.0 517.5873401999065 0.7588190450685595
    vertex 254.99999999999886 517.6214143736177 0.49999999996606487
    vertex 250.0 517.6214143736177 0.49999999996606487
  endloop
endfacet
facet normal 0.0 0.991444861373683 0.13052619222102033
  outer loop
    vertex 254.99999999999886 517.6214143736177 0.49999999996606487
    vertex 250.0 517.5873401999065 0.7588190450685595
    vertex 254.99999999999886 517.5873401999065 0.7588190450685595
  endloop
endfacet
facet normal -1.0 0.0 0.0
  outer loop
    vertex 242.45210090569657 543.2199642215159 0.999999999967017
    vertex 242.45210090569657 515.6214143736175 0.7999999999670174
    vertex 242.45210090569657 515.6214143736175 0.9999999999665828
  endloop
endfacet
facet normal -1.0 0.0 0.0
  outer loop
    vertex 242.45210090569657 515.6214143736175 0.7999999999670174
    vertex 242.45210090569657 543.2199642215159 0.999999999967017
    vertex 242.45210090569657 543.2199642215159 0.7999999999670174
  endloop
endfacet
facet normal 0.894802927481259 0.44646133199972515 3.2463021795211105e-16
  outer loop
    vertex 216.31367965293143 524.8833699184183 0.7999999999670174
    vertex 220.93492627881557 515.6214143736175 0.9999999999665828
    vertex 220.93492627881557 515.6214143736175 0.7999999999670174
  endloop
endfacet
facet normal 0.894802927481259 0.44646133199972515 3.2463021795211105e-16
  outer loop
    vertex 220.93492627881557 515.6214143736175 0.9999999999665828
    vertex 216.31367965293143 524.8833699184183 0.7999999999670174
    vertex 216.31367965293143 524.8833699184183 0.999999999967017
  endloop
endfacet
facet normal -0.12317148933523904 -0.9923854010488763 9.449416120500477e-17
  outer loop
    vertex 229.96112438640756 543.5668740061537 -3.4548851088829926e-11
    vertex 224.9797514518808 544.1851450152108 0.19999999996535506
    vertex 224.9797514518808 544.1851450152108 -3.459961048551579e-11
  endloop
endfacet
facet normal -0.12317148933523904 -0.9923854010488763 9.449416120500477e-17
  outer loop
    vertex 224.9797514518808 544.1851450152108 0.19999999996535506
    vertex 229.96112438640756 543.5668740061537 -3.4548851088829926e-11
    vertex 229.96112438640756 543.5668740061537 0.19999999996543966
  endloop
endfacet
facet normal 0.0 0.0 1.0
  outer loop
    vertex 214.82633175470147 515.6214143736175 0.7999999999670174
    vertex 207.54789909430377 543.2199642215159 0.7999999999670174
    vertex 207.54789909430377 515.6214143736175 0.7999999999670174
  endloop
endfacet
facet normal 0.0 0.0 1.0
  outer loop
    vertex 207.54789909430377 543.2199642215159 0.7999999999670174
    vertex 214.82633175470147 515.6214143736175 0.7999999999670174
    vertex 214.6649569621135 528.1808153000557 0.7999999999670174
  endloop
endfacet
facet normal 0.0 0.0 1.0
  outer loop
    vertex 214.6649569621135 528.1808153000557 0.7999999999670174
    vertex 214.82633175470147 515.6214143736175 0.7999999999670174
    vertex 214.82633175470147 526.4317702571905 0.7999999999670174
  endloop
endfacet
facet normal 0.0 0.0 1.0
  outer loop
    vertex 214.82633175470147 526.4317702571905 0.7999999999670174
    vertex 214.82633175470147 515.6214143736175 0.7999999999670174
    vertex 214.82633175470147 524.9238670146573 0.7999999999670174
  endloop
endfacet
facet normal 0.0 0.0 1.0
  outer loop
    vertex 214.6649569621135 528.1808153000557 0.7999999999670174
    vertex 214.94659585868405 543.2199642215159 0.7999999999670174
    vertex 207.54789909430377 543.2199642215159 0.7999999999670174
  endloop
endfacet
facet normal 0.0 0.0 1.0
  outer loop
    vertex 214.94659585868405 543.2199642215159 0.7999999999670174
    vertex 214.6649569621135 528.1808153000557 0.7999999999670174
    vertex 215.50956685564194 526.5121508573011 0.7999999999670174
  endloop
endfacet
facet normal 0.0 0.0 1.0
  outer loop
    vertex 214.94659585868405 543.2199642215159 0.7999999999670174
    vertex 215.50956685564194 526.5121508573011 0.7999999999670174
    vertex 228.51407658291672 515.6214143736175 0.7999999999670174
  endloop
endfacet
facet normal 0.0 0.0 1.0
  outer loop
    vertex 228.51407658291672 515.6214143736175 0.7999999999670174
    vertex 215.50956685564194 526.5121508573011 0.7999999999670174
    vertex 216.31367965293143 524.8833699184183 0.7999999999670174
  endloop
endfacet
facet normal 0.0 0.0 1.0
  outer loop
    vertex 228.51407658291672 515.6214143736175 0.7999999999670174
    vertex 216.31367965293143 524.8833699184183 0.7999999999670174
    vertex 220.93492627881557 515.6214143736175 0.7999999999670174
  endloop
endfacet
facet normal -0.8130124760638013 -0.5822462655651874 -2.628229123846119e-13
  outer loop
    vertex 237.53101342125268 538.8116865580065 0.19999999996538326
    vertex 240.22015866980092 535.0567313675338 -3.461089035144598e-11
    vertex 240.22015866980092 535.0567313675336 0.19999999996529302
  endloop
endfacet
facet normal -0.8130124760638013 -0.5822462655651874 -2.628229123846119e-13
  outer loop
    vertex 240.22015866980092 535.0567313675338 -3.461089035144598e-11
    vertex 237.53101342125268 538.8116865580065 0.19999999996538326
    vertex 237.53101342125268 538.8116865580065 -3.464472994923656e-11
  endloop
endfacet
facet normal -0.8974217656151198 -0.4411736331652663 -2.417457611768222e-15
  outer loop
    vertex 214.94659585868405 543.2199642215159 0.999999999967017
    vertex 228.51407658291672 515.6214143736175 0.7999999999670174
    vertex 228.51407658291672 515.6214143736175 0.9999999999665828
  endloop
endfacet
facet normal -0.8974217656151198 -0.4411736331652663 -2.417457611768222e-15
  outer loop
    vertex 228.51407658291672 515.6214143736175 0.7999999999670174
    vertex 214.94659585868405 543.2199642215159 0.999999999967017
    vertex 214.94659585868405 543.2199642215159 0.7999999999670174
  endloop
endfacet
facet normal 0.9881795626026459 -0.15330085470878285 1.3326268937587608e-16
  outer loop
    vertex 206.36151825221225 525.6871759195246 -3.465600981516675e-11
    vertex 205.54743457895447 520.4395805966543 0.19999999996530995
    vertex 205.54743457895447 520.4395805966543 -3.473496887667809e-11
  endloop
endfacet
facet normal 0.9881795626026459 -0.15330085470878285 1.3326268937587608e-16
  outer loop
    vertex 205.54743457895447 520.4395805966543 0.19999999996530995
    vertex 206.36151825221225 525.6871759195246 -3.465600981516675e-11
    vertex 206.36151825221225 525.6871759195246 0.1999999999653438
  endloop
endfacet
facet normal 0.0 0.923879532511279 -0.3826834323651088
  outer loop
    vertex 250.0 517.5873401999065 0.24118095486332805
    vertex 254.99999999999886 517.487439777402 -3.396793799342506e-11
    vertex 250.0 517.487439777402 -3.396793799342506e-11
  endloop
endfacet
facet normal 0.0 0.923879532511279 -0.3826834323651088
  outer loop
    vertex 254.99999999999886 517.487439777402 -3.396793799342506e-11
    vertex 250.0 517.5873401999065 0.24118095486332805
    vertex 254.99999999999886 517.5873401999065 0.24118095486332805
  endloop
endfacet
facet normal -1.0 0.0 0.0
  outer loop
    vertex 200.00000000000017 515.6214143736175 0.9999999999661429
    vertex 200.00000000000017 515.6554885473284 0.7588190450685651
    vertex 200.00000000000017 515.6214143736175 0.499999999966031
  endloop
endfacet
facet normal -1.0 0.0 0.0
  outer loop
    vertex 200.00000000000017 515.6554885473284 0.7588190450685651
    vertex 200.00000000000017 515.6214143736175 0.9999999999661429
    vertex 200.00000000000017 515.7553889698333 0.9999999999661767
  endloop
endfacet
facet normal 1.0 0.0 0.0
  outer loop
    vertex 207.54789909430377 543.2199642215159 0.7999999999670174
    vertex 207.54789909430377 515.6214143736175 0.9999999999665828
    vertex 207.54789909430377 515.6214143736175 0.7999999999670174
  endloop
endfacet
facet normal 1.0 0.0 0.0
  outer loop
    vertex 207.54789909430377 515.6214143736175 0.9999999999665828
    vertex 207.54789909430377 543.2199642215159 0.7999999999670174
    vertex 207.54789909430377 543.2199642215159 0.999999999967017
  endloop
endfacet
facet normal 0.0 1.0 0.0
  outer loop
    vertex 200.00000000000017 550.0000000000001 0.9999999999653251
    vertex 250.0 550.0000000000001 -3.4622170217376174e-11
    vertex 200.00000000000017 550.0000000000001 -3.4622170217376174e-11
  endloop
endfacet
facet normal 0.0 1.0 0.0
  outer loop
    vertex 250.0 550.0000000000001 -3.4622170217376174e-11
    vertex 200.00000000000017 550.0000000000001 0.9999999999653251
    vertex 250.0 550.0000000000001 0.9999999999653251
  endloop
endfacet
facet normal 0.0 -0.9914448613737664 -0.13052619222038572
  outer loop
    vertex 200.00000000000017 515.6214143736175 0.499999999966031
    vertex 195.00000000000006 515.6554885473286 0.24118095486362698
    vertex 200.00000000000017 515.6554885473286 0.24118095486362698
  endloop
endfacet
facet normal 0.0 -0.9914448613737664 -0.13052619222038572
  outer loop
    vertex 195.00000000000006 515.6554885473286 0.24118095486362698
    vertex 200.00000000000017 515.6214143736175 0.499999999966031
    vertex 195.00000000000006 515.6214143736175 0.499999999966031
  endloop
endfacet
facet normal -1.0 0.0 0.0
  outer loop
    vertex 200.00000000000017 550.0000000000001 0.9999999999653251
    vertex 200.00000000000017 517.5873401999065 0.7588190450685595
    vertex 200.00000000000017 517.4874397774021 0.9999999999661767
  endloop
endfacet
facet normal -1.0 0.0 0.0
  outer loop
    vertex 200.00000000000017 517.5873401999065 0.7588190450685595
    vertex 200.00000000000017 550.0000000000001 0.9999999999653251
    vertex 200.00000000000017 517.6214143736177 0.49999999996606487
  endloop
endfacet
facet normal -1.0 0.0 0.0
  outer loop
    vertex 200.00000000000017 517.5873401999065 0.24118095486332805
    vertex 200.00000000000017 550.0000000000001 -3.4622170217376174e-11
    vertex 200.00000000000017 517.487439777402 -3.396793799342506e-11
  endloop
endfacet
facet normal -1.0 0.0 0.0
  outer loop
    vertex 200.00000000000017 550.0000000000001 -3.4622170217376174e-11
    vertex 200.00000000000017 517.5873401999065 0.24118095486332805
    vertex 200.00000000000017 517.6214143736177 0.49999999996606487
  endloop
endfacet
facet normal -1.0 0.0 0.0
  outer loop
    vertex 200.00000000000017 550.0000000000001 -3.4622170217376174e-11
    vertex 200.00000000000017 517.6214143736177 0.49999999996606487
    vertex 200.00000000000017 550.0000000000001 0.9999999999653251
  endloop
endfacet
facet normal 0.0 0.9238795325117035 0.38268343236408353
  outer loop
    vertex 195.00000000000006 517.4874397774021 0.9999999999661767
    vertex 200.00000000000017 517.5873401999065 0.7588190450685595
    vertex 195.00000000000006 517.5873401999065 0.7588190450685595
  endloop
endfacet
facet normal 0.0 0.9238795325117035 0.38268343236408353
  outer loop
    vertex 200.00000000000017 517.5873401999065 0.7588190450685595
    vertex 195.00000000000006 517.4874397774021 0.9999999999661767
    vertex 200.00000000000017 517.4874397774021 0.9999999999661767
  endloop
endfacet
facet normal -6.608183024727332e-19 -1.0 -1.413614573595233e-13
  outer loop
    vertex 250.0 515.6214143736178 -3.3911538663774105e-11
    vertex 244.6961162439786 515.6214143736175 0.19999999996530995
    vertex 244.6961162439786 515.6214143736178 -3.4193535312028895e-11
  endloop
endfacet
facet normal -6.608183024727332e-19 -1.0 -1.413614573595233e-13
  outer loop
    vertex 244.6961162439786 515.6214143736175 0.19999999996530995
    vertex 250.0 515.6214143736178 -3.3911538663774105e-11
    vertex 250.0 515.6214143736175 0.499999999966031
  endloop
endfacet
facet normal -6.608183024727332e-19 -1.0 -1.413614573595233e-13
  outer loop
    vertex 244.6961162439786 515.6214143736175 0.19999999996530995
    vertex 250.0 515.6214143736175 0.499999999966031
    vertex 236.75755428344155 515.6214143736175 0.19999999996530995
  endloop
endfacet
facet normal -6.608183024727332e-19 -1.0 -1.413614573595233e-13
  outer loop
    vertex 236.75755428344155 515.6214143736175 0.19999999996530995
    vertex 250.0 515.6214143736175 0.499999999966031
    vertex 213.20203009362123 515.6214143736175 0.19999999996530995
  endloop
endfacet
facet normal -6.608183024727332e-19 -1.0 -1.413614573595233e-13
  outer loop
    vertex 213.20203009362123 515.6214143736175 0.19999999996530995
    vertex 250.0 515.6214143736175 0.499999999966031
    vertex 205.3038758977559 515.6214143736175 0.19999999996530995
  endloop
endfacet
facet normal -6.608183024727332e-19 -1.0 -1.413614573595233e-13
  outer loop
    vertex 236.75755428344155 515.6214143736175 0.19999999996530995
    vertex 213.20203009362123 515.6214143736178 -3.4193535312028895e-11
    vertex 236.75755428344226 515.6214143736178 -3.4193535312028895e-11
  endloop
endfacet
facet normal -6.608183024727332e-19 -1.0 -1.413614573595233e-13
  outer loop
    vertex 213.20203009362123 515.6214143736178 -3.4193535312028895e-11
    vertex 236.75755428344155 515.6214143736175 0.19999999996530995
    vertex 213.20203009362123 515.6214143736175 0.19999999996530995
  endloop
endfacet
facet normal -6.608183024727332e-19 -1.0 -1.413614573595233e-13
  outer loop
    vertex 205.3038758977559 515.6214143736175 0.19999999996530995
    vertex 200.00000000000017 515.6214143736178 -3.3911538663774105e-11
    vertex 205.3038758977559 515.6214143736178 -3.4193535312028895e-11
  endloop
endfacet
facet normal -6.608183024727332e-19 -1.0 -1.413614573595233e-13
  outer loop
    vertex 200.00000000000017 515.6214143736178 -3.3911538663774105e-11
    vertex 205.3038758977559 515.6214143736175 0.19999999996530995
    vertex 200.00000000000017 515.6214143736175 0.499999999966031
  endloop
endfacet
facet normal -6.608183024727332e-19 -1.0 -1.413614573595233e-13
  outer loop
    vertex 200.00000000000017 515.6214143736175 0.499999999966031
    vertex 205.3038758977559 515.6214143736175 0.19999999996530995
    vertex 250.0 515.6214143736175 0.499999999966031
  endloop
endfacet
facet normal -6.608183024727332e-19 -1.0 -1.413614573595233e-13
  outer loop
    vertex 200.00000000000017 515.6214143736175 0.499999999966031
    vertex 250.0 515.6214143736175 0.499999999966031
    vertex 242.45210090569657 515.6214143736175 0.7999999999670174
  endloop
endfacet
facet normal -6.608183024727332e-19 -1.0 -1.413614573595233e-13
  outer loop
    vertex 242.45210090569657 515.6214143736175 0.7999999999670174
    vertex 250.0 515.6214143736175 0.499999999966031
    vertex 250.0 515.6214143736175 0.9999999999661429
  endloop
endfacet
facet normal -6.608183024727332e-19 -1.0 -1.413614573595233e-13
  outer loop
    vertex 242.45210090569657 515.6214143736175 0.7999999999670174
    vertex 250.0 515.6214143736175 0.9999999999661429
    vertex 242.45210090569657 515.6214143736175 0.9999999999665828
  endloop
endfacet
facet normal -6.608183024727332e-19 -1.0 -1.413614573595233e-13
  outer loop
    vertex 235.21355174917088 515.6214143736175 0.9999999999665828
    vertex 228.51407658291672 515.6214143736175 0.7999999999670174
    vertex 235.21355174917088 515.6214143736175 0.7999999999670174
  endloop
endfacet
facet normal -6.608183024727332e-19 -1.0 -1.413614573595233e-13
  outer loop
    vertex 228.51407658291672 515.6214143736175 0.7999999999670174
    vertex 235.21355174917088 515.6214143736175 0.9999999999665828
    vertex 228.51407658291672 515.6214143736175 0.9999999999665828
  endloop
endfacet
facet normal -6.608183024727332e-19 -1.0 -1.413614573595233e-13
  outer loop
    vertex 220.93492627881557 515.6214143736175 0.9999999999665828
    vertex 214.82633175470147 515.6214143736175 0.7999999999670174
    vertex 220.93492627881557 515.6214143736175 0.7999999999670174
  endloop
endfacet
facet normal -6.608183024727332e-19 -1.0 -1.413614573595233e-13
  outer loop
    vertex 214.82633175470147 515.6214143736175 0.7999999999670174
    vertex 220.93492627881557 515.6214143736175 0.9999999999665828
    vertex 214.82633175470147 515.6214143736175 0.9999999999665828
  endloop
endfacet
facet normal -6.608183024727332e-19 -1.0 -1.413614573595233e-13
  outer loop
    vertex 200.00000000000017 515.6214143736175 0.499999999966031
    vertex 207.54789909430377 515.6214143736175 0.7999999999670174
    vertex 200.00000000000017 515.6214143736175 0.9999999999661429
  endloop
endfacet
facet normal -6.608183024727332e-19 -1.0 -1.413614573595233e-13
  outer loop
    vertex 207.54789909430377 515.6214143736175 0.7999999999670174
    vertex 200.00000000000017 515.6214143736175 0.499999999966031
    vertex 242.45210090569657 515.6214143736175 0.7999999999670174
  endloop
endfacet
facet normal -6.608183024727332e-19 -1.0 -1.413614573595233e-13
  outer loop
    vertex 207.54789909430377 515.6214143736175 0.7999999999670174
    vertex 242.45210090569657 515.6214143736175 0.7999999999670174
    vertex 235.21355174917088 515.6214143736175 0.7999999999670174
  endloop
endfacet
facet normal -6.608183024727332e-19 -1.0 -1.413614573595233e-13
  outer loop
    vertex 207.54789909430377 515.6214143736175 0.7999999999670174
    vertex 235.21355174917088 515.6214143736175 0.7999999999670174
    vertex 228.51407658291672 515.6214143736175 0.7999999999670174
  endloop
endfacet
facet normal -6.608183024727332e-19 -1.0 -1.413614573595233e-13
  outer loop
    vertex 207.54789909430377 515.6214143736175 0.7999999999670174
    vertex 228.51407658291672 515.6214143736175 0.7999999999670174
    vertex 220.93492627881557 515.6214143736175 0.7999999999670174
  endloop
endfacet
facet normal -6.608183024727332e-19 -1.0 -1.413614573595233e-13
  outer loop
    vertex 207.54789909430377 515.6214143736175 0.7999999999670174
    vertex 220.93492627881557 515.6214143736175 0.7999999999670174
    vertex 214.82633175470147 515.6214143736175 0.7999999999670174
  endloop
endfacet
facet normal -6.608183024727332e-19 -1.0 -1.413614573595233e-13
  outer loop
    vertex 200.00000000000017 515.6214143736175 0.9999999999661429
    vertex 207.54789909430377 515.6214143736175 0.7999999999670174
    vertex 207.54789909430377 515.6214143736175 0.9999999999665828
  endloop
endfacet
facet normal 0.0 -1.0 0.0
  outer loop
    vertex 214.94659585868405 543.2199642215159 0.999999999967017
    vertex 207.54789909430377 543.2199642215159 0.7999999999670174
    vertex 214.94659585868405 543.2199642215159 0.7999999999670174
  endloop
endfacet
facet normal 0.0 -1.0 0.0
  outer loop
    vertex 207.54789909430377 543.2199642215159 0.7999999999670174
    vertex 214.94659585868405 543.2199642215159 0.999999999967017
    vertex 207.54789909430377 543.2199642215159 0.999999999967017
  endloop
endfacet
facet normal -1.0 0.0 0.0
  outer loop
    vertex 214.82633175470147 524.9238670146573 0.999999999967017
    vertex 214.82633175470147 515.6214143736175 0.7999999999670174
    vertex 214.82633175470147 515.6214143736175 0.9999999999665828
  endloop
endfacet
facet normal -1.0 0.0 0.0
  outer loop
    vertex 214.82633175470147 515.6214143736175 0.7999999999670174
    vertex 214.82633175470147 524.9238670146573 0.999999999967017
    vertex 214.82633175470147 524.9238670146573 0.7999999999670174
  endloop
endfacet
facet normal 1.0 0.0 0.0
  outer loop
    vertex 235.21355174917088 543.2199642215159 0.7999999999670174
    vertex 235.21355174917088 515.6214143736175 0.9999999999665828
    vertex 235.21355174917088 515.6214143736175 0.7999999999670174
  endloop
endfacet
facet normal 1.0 0.0 0.0
  outer loop
    vertex 235.21355174917088 515.6214143736175 0.9999999999665828
    vertex 235.21355174917088 543.2199642215159 0.7999999999670174
    vertex 235.21355174917088 543.2199642215159 0.999999999967017
  endloop
endfacet
facet normal -1.0 0.0 0.0
  outer loop
    vertex 195.00000000000006 515.6554885473284 0.7588190450685651
    vertex 195.00000000000006 515.6554885473286 0.24118095486362698
    vertex 195.00000000000006 515.6214143736175 0.499999999966031
  endloop
endfacet
facet normal -1.0 0.0 0.0
  outer loop
    vertex 195.00000000000006 515.6554885473286 0.24118095486362698
    vertex 195.00000000000006 515.6554885473284 0.7588190450685651
    vertex 195.00000000000006 515.7553889698333 0.9999999999661767
  endloop
endfacet
facet normal -1.0 0.0 0.0
  outer loop
    vertex 195.00000000000006 515.6554885473286 0.24118095486362698
    vertex 195.00000000000006 515.7553889698333 0.9999999999661767
    vertex 195.00000000000006 515.7553889698331 -3.3922818529704294e-11
  endloop
endfacet
facet normal -1.0 0.0 0.0
  outer loop
    vertex 195.00000000000006 515.7553889698331 -3.3922818529704294e-11
    vertex 195.00000000000006 515.7553889698333 0.9999999999661767
    vertex 195.00000000000006 517.487439777402 -3.396793799342506e-11
  endloop
endfacet
facet normal -1.0 0.0 0.0
  outer loop
    vertex 195.00000000000006 517.487439777402 -3.396793799342506e-11
    vertex 195.00000000000006 515.7553889698333 0.9999999999661767
    vertex 195.00000000000006 517.4874397774021 0.9999999999661767
  endloop
endfacet
facet normal -1.0 0.0 0.0
  outer loop
    vertex 195.00000000000006 517.487439777402 -3.396793799342506e-11
    vertex 195.00000000000006 517.4874397774021 0.9999999999661767
    vertex 195.00000000000006 517.5873401999065 0.24118095486332805
  endloop
endfacet
facet normal -1.0 0.0 0.0
  outer loop
    vertex 195.00000000000006 517.5873401999065 0.24118095486332805
    vertex 195.00000000000006 517.4874397774021 0.9999999999661767
    vertex 195.00000000000006 517.5873401999065 0.7588190450685595
  endloop
endfacet
facet normal -1.0 0.0 0.0
  outer loop
    vertex 195.00000000000006 517.5873401999065 0.24118095486332805
    vertex 195.00000000000006 517.5873401999065 0.7588190450685595
    vertex 195.00000000000006 517.6214143736177 0.49999999996606487
  endloop
endfacet
facet normal 0.812988892617377 -0.5822791946143803 -2.630613320679277e-13
  outer loop
    vertex 209.77953453401548 535.0567313675338 -3.461089035144598e-11
    vertex 212.46890987970133 538.8116865580065 0.19999999996538326
    vertex 209.77953453401548 535.0567313675336 0.19999999996529302
  endloop
endfacet
facet normal 0.812988892617377 -0.5822791946143803 -2.630613320679277e-13
  outer loop
    vertex 212.46890987970133 538.8116865580065 0.19999999996538326
    vertex 209.77953453401548 535.0567313675338 -3.461089035144598e-11
    vertex 212.46890987970133 538.8116865580065 -3.464472994923656e-11
  endloop
endfacet
facet normal 0.9099363231009432 -0.41474798119042866 -1.865527181175521e-13
  outer loop
    vertex 209.77953453401548 535.0567313675338 -3.461089035144598e-11
    vertex 207.75874477150234 530.6232197179206 0.19999999996536635
    vertex 207.75874477150234 530.6232197179206 -3.4577050753655405e-11
  endloop
endfacet
facet normal 0.9099363231009432 -0.41474798119042866 -1.865527181175521e-13
  outer loop
    vertex 207.75874477150234 530.6232197179206 0.19999999996536635
    vertex 209.77953453401548 535.0567313675338 -3.461089035144598e-11
    vertex 209.77953453401548 535.0567313675336 0.19999999996529302
  endloop
endfacet
facet normal 0.9987247881794584 -0.050485616524870144 -2.2790705547930885e-14
  outer loop
    vertex 205.3038758977559 515.6214143736178 -3.4193535312028895e-11
    vertex 205.54743457895447 520.4395805966543 0.19999999996530995
    vertex 205.3038758977559 515.6214143736175 0.19999999996530995
  endloop
endfacet
facet normal 0.9987247881794584 -0.050485616524870144 -2.2790705547930885e-14
  outer loop
    vertex 205.54743457895447 520.4395805966543 0.19999999996530995
    vertex 205.3038758977559 515.6214143736178 -3.4193535312028895e-11
    vertex 205.54743457895447 520.4395805966543 -3.473496887667809e-11
  endloop
endfacet
facet normal 0.6486656094723453 -0.761073535926635 -3.428037400592269e-13
  outer loop
    vertex 215.87189314850647 541.712060978983 -3.452065142400445e-11
    vertex 212.46890987970133 538.8116865580065 0.19999999996538326
    vertex 212.46890987970133 538.8116865580065 -3.464472994923656e-11
  endloop
endfacet
facet normal 0.6486656094723453 -0.761073535926635 -3.428037400592269e-13
  outer loop
    vertex 212.46890987970133 538.8116865580065 0.19999999996538326
    vertex 215.87189314850647 541.712060978983 -3.452065142400445e-11
    vertex 215.87189314850647 541.7120609789828 0.19999999996547915
  endloop
endfacet
facet normal 0.12391553979390273 -0.9922927687923488 -3.7938290133193685e-17
  outer loop
    vertex 224.9797514518808 544.1851450152108 0.19999999996535506
    vertex 220.02875133953341 543.5668740061537 -3.4548851088829926e-11
    vertex 224.9797514518808 544.1851450152108 -3.459961048551579e-11
  endloop
endfacet
facet normal 0.12391553979390273 -0.9922927687923488 -3.7938290133193685e-17
  outer loop
    vertex 220.02875133953341 543.5668740061537 -3.4548851088829926e-11
    vertex 224.9797514518808 544.1851450152108 0.19999999996535506
    vertex 220.02875133953341 543.5668740061537 0.19999999996543966
  endloop
endfacet
facet normal 0.9966850652510313 0.08135650376919795 1.835402421364344e-12
  outer loop
    vertex 236.75755428344226 515.6214143736178 -3.4193535312028895e-11
    vertex 236.15909758711314 522.953008331029 0.19999999996533252
    vertex 236.75755428344155 515.6214143736175 0.19999999996530995
  endloop
endfacet
facet normal 0.9966850652510313 0.08135650376919795 1.835402421364344e-12
  outer loop
    vertex 236.15909758711314 522.953008331029 0.19999999996533252
    vertex 236.75755428344226 515.6214143736178 -3.4193535312028895e-11
    vertex 236.15909758711314 522.953008331029 -3.45883306195856e-11
  endloop
endfacet
facet normal 0.0 0.9914448613736988 -0.13052619222090034
  outer loop
    vertex 195.00000000000006 517.6214143736177 0.49999999996606487
    vertex 200.00000000000017 517.5873401999065 0.24118095486332805
    vertex 195.00000000000006 517.5873401999065 0.24118095486332805
  endloop
endfacet
facet normal 0.0 0.9914448613736988 -0.13052619222090034
  outer loop
    vertex 200.00000000000017 517.5873401999065 0.24118095486332805
    vertex 195.00000000000006 517.6214143736177 0.49999999996606487
    vertex 200.00000000000017 517.6214143736177 0.49999999996606487
  endloop
endfacet
facet normal 0.7402509849434992 0.6723306324199273 6.064797477982692e-13
  outer loop
    vertex 232.48950843473497 532.9306338149894 -3.468984941295732e-11
    vertex 230.44870022123956 535.1776090638831 0.1999999999653438
    vertex 232.48950843473497 532.9306338149893 0.19999999996533252
  endloop
endfacet
facet normal 0.7402509849434992 0.6723306324199273 6.064797477982692e-13
  outer loop
    vertex 230.44870022123956 535.1776090638831 0.1999999999653438
    vertex 232.48950843473497 532.9306338149894 -3.468984941295732e-11
    vertex 230.44870022123956 535.1776090638833 -3.464472994923656e-11
  endloop
endfacet
facet normal -0.40665483484686704 -0.9135818766239111 -4.1199480529090245e-13
  outer loop
    vertex 234.12810685149333 541.712060978983 -3.452065142400445e-11
    vertex 229.96112438640756 543.5668740061537 0.19999999996543966
    vertex 229.96112438640756 543.5668740061537 -3.4548851088829926e-11
  endloop
endfacet
facet normal -0.40665483484686704 -0.9135818766239111 -4.1199480529090245e-13
  outer loop
    vertex 229.96112438640756 543.5668740061537 0.19999999996543966
    vertex 234.12810685149333 541.712060978983 -3.452065142400445e-11
    vertex 234.12810685149333 541.7120609789828 0.19999999996547915
  endloop
endfacet
facet normal -0.9967628015230972 0.08039849190020346 7.243119028136852e-14
  outer loop
    vertex 213.8209606609513 523.2947792795909 0.1999999999654002
    vertex 213.20203009362123 515.6214143736178 -3.4193535312028895e-11
    vertex 213.20203009362123 515.6214143736175 0.19999999996530995
  endloop
endfacet
facet normal -0.9967628015230972 0.08039849190020346 7.243119028136852e-14
  outer loop
    vertex 213.20203009362123 515.6214143736178 -3.4193535312028895e-11
    vertex 213.8209606609513 523.2947792795909 0.1999999999654002
    vertex 213.8209606609513 523.294779279591 -3.465600981516675e-11
  endloop
endfacet
facet normal -0.9099482045772945 -0.41472191283625 -1.8714959617127817e-13
  outer loop
    vertex 240.22015866980092 535.0567313675336 0.19999999996529302
    vertex 242.24079503422286 530.6232197179206 -3.4577050753655405e-11
    vertex 242.24079503422286 530.6232197179206 0.19999999996536635
  endloop
endfacet
facet normal -0.9099482045772945 -0.41472191283625 -1.8714959617127817e-13
  outer loop
    vertex 242.24079503422286 530.6232197179206 -3.4577050753655405e-11
    vertex 240.22015866980092 535.0567313675336 0.19999999996529302
    vertex 240.22015866980092 535.0567313675338 -3.461089035144598e-11
  endloop
endfacet
facet normal 0.9606937572625626 0.27761034699149884 1.2524865475813622e-13
  outer loop
    vertex 234.10816509955743 530.0504312430868 -3.463345008330636e-11
    vertex 236.15909758711314 522.953008331029 0.19999999996533252
    vertex 236.15909758711314 522.953008331029 -3.45883306195856e-11
  endloop
endfacet
facet normal 0.9606937572625626 0.27761034699149884 1.2524865475813622e-13
  outer loop
    vertex 236.15909758711314 522.953008331029 0.19999999996533252
    vertex 234.10816509955743 530.0504312430868 -3.463345008330636e-11
    vertex 234.10816509955743 530.0504312430866 0.19999999996537762
  endloop
endfacet
facet normal 1.143393072623965e-15 -1.724018762808683e-14 -1.0
  outer loop
    vertex 213.8209606609513 523.294779279591 -3.465600981516675e-11
    vertex 236.75755428344226 515.6214143736178 -3.4193535312028895e-11
    vertex 213.20203009362123 515.6214143736178 -3.4193535312028895e-11
  endloop
endfacet
facet normal 1.143393072623965e-15 -1.724018762808683e-14 -1.0
  outer loop
    vertex 236.75755428344226 515.6214143736178 -3.4193535312028895e-11
    vertex 213.8209606609513 523.294779279591 -3.465600981516675e-11
    vertex 215.87158635232328 530.3719536435291 -3.463909001627146e-11
  endloop
endfacet
facet normal 1.143393072623965e-15 -1.724018762808683e-14 -1.0
  outer loop
    vertex 236.75755428344226 515.6214143736178 -3.4193535312028895e-11
    vertex 215.87158635232328 530.3719536435291 -3.463909001627146e-11
    vertex 217.4750566060571 533.1617280403075 -3.473496887667809e-11
  endloop
endfacet
facet normal 1.143393072623965e-15 -1.724018762808683e-14 -1.0
  outer loop
    vertex 236.75755428344226 515.6214143736178 -3.4193535312028895e-11
    vertex 217.4750566060571 533.1617280403075 -3.473496887667809e-11
    vertex 219.51080268252275 535.2981799640492 -3.465600981516675e-11
  endloop
endfacet
facet normal 1.143393072623965e-15 -1.724018762808683e-14 -1.0
  outer loop
    vertex 236.75755428344226 515.6214143736178 -3.4193535312028895e-11
    vertex 219.51080268252275 535.2981799640492 -3.465600981516675e-11
    vertex 222.00398186877786 536.6555229794668 -3.463345008330636e-11
  endloop
endfacet
facet normal 1.143393072623965e-15 -1.724018762808683e-14 -1.0
  outer loop
    vertex 236.75755428344226 515.6214143736178 -3.4193535312028895e-11
    vertex 222.00398186877786 536.6555229794668 -3.463345008330636e-11
    vertex 224.9797514518808 537.1079706512727 -3.451501149103935e-11
  endloop
endfacet
facet normal 1.143393072623965e-15 -1.724018762808683e-14 -1.0
  outer loop
    vertex 236.75755428344226 515.6214143736178 -3.4193535312028895e-11
    vertex 224.9797514518808 537.1079706512727 -3.451501149103935e-11
    vertex 227.95552103498372 536.6253802544252 -3.464472994923656e-11
  endloop
endfacet
facet normal 1.143393072623965e-15 -1.724018762808683e-14 -1.0
  outer loop
    vertex 236.75755428344226 515.6214143736178 -3.4193535312028895e-11
    vertex 227.95552103498372 536.6253802544252 -3.464472994923656e-11
    vertex 230.44870022123956 535.1776090638833 -3.464472994923656e-11
  endloop
endfacet
facet normal 1.143393072623965e-15 -1.724018762808683e-14 -1.0
  outer loop
    vertex 236.75755428344226 515.6214143736178 -3.4193535312028895e-11
    vertex 230.44870022123956 535.1776090638833 -3.464472994923656e-11
    vertex 232.48950843473497 532.9306338149894 -3.468984941295732e-11
  endloop
endfacet
facet normal 1.143393072623965e-15 -1.724018762808683e-14 -1.0
  outer loop
    vertex 236.75755428344226 515.6214143736178 -3.4193535312028895e-11
    vertex 232.48950843473497 532.9306338149894 -3.468984941295732e-11
    vertex 234.10816509955743 530.0504312430868 -3.463345008330636e-11
  endloop
endfacet
facet normal 1.143393072623965e-15 -1.724018762808683e-14 -1.0
  outer loop
    vertex 236.75755428344226 515.6214143736178 -3.4193535312028895e-11
    vertex 234.10816509955743 530.0504312430868 -3.463345008330636e-11
    vertex 236.15909758711314 522.953008331029 -3.45883306195856e-11
  endloop
endfacet
facet normal -1.340371138121302e-16 3.443293211630994e-15 -1.0
  outer loop
    vertex 205.54743457895447 520.4395805966543 0.19999999996530995
    vertex 213.20203009362123 515.6214143736175 0.19999999996530995
    vertex 205.3038758977559 515.6214143736175 0.19999999996530995
  endloop
endfacet
facet normal -1.340371138121302e-16 3.443293211630994e-15 -1.0
  outer loop
    vertex 213.20203009362123 515.6214143736175 0.19999999996530995
    vertex 205.54743457895447 520.4395805966543 0.19999999996530995
    vertex 206.36151825221225 525.6871759195246 0.1999999999653438
  endloop
endfacet
facet normal -1.340371138121302e-16 3.443293211630994e-15 -1.0
  outer loop
    vertex 213.20203009362123 515.6214143736175 0.19999999996530995
    vertex 206.36151825221225 525.6871759195246 0.1999999999653438
    vertex 207.75874477150234 530.6232197179206 0.19999999996536635
  endloop
endfacet
facet normal -1.340371138121302e-16 3.443293211630994e-15 -1.0
  outer loop
    vertex 213.20203009362123 515.6214143736175 0.19999999996530995
    vertex 207.75874477150234 530.6232197179206 0.19999999996536635
    vertex 209.77953453401548 535.0567313675336 0.19999999996529302
  endloop
endfacet
facet normal -1.340371138121302e-16 3.443293211630994e-15 -1.0
  outer loop
    vertex 213.20203009362123 515.6214143736175 0.19999999996530995
    vertex 209.77953453401548 535.0567313675336 0.19999999996529302
    vertex 212.46890987970133 538.8116865580065 0.19999999996538326
  endloop
endfacet
facet normal -1.340371138121302e-16 3.443293211630994e-15 -1.0
  outer loop
    vertex 213.20203009362123 515.6214143736175 0.19999999996530995
    vertex 212.46890987970133 538.8116865580065 0.19999999996538326
    vertex 213.8209606609513 523.2947792795909 0.1999999999654002
  endloop
endfacet
facet normal -1.340371138121302e-16 3.443293211630994e-15 -1.0
  outer loop
    vertex 213.8209606609513 523.2947792795909 0.1999999999654002
    vertex 212.46890987970133 538.8116865580065 0.19999999996538326
    vertex 215.87189314850647 541.7120609789828 0.19999999996547915
  endloop
endfacet
facet normal -1.340371138121302e-16 3.443293211630994e-15 -1.0
  outer loop
    vertex 213.8209606609513 523.2947792795909 0.1999999999654002
    vertex 215.87189314850647 541.7120609789828 0.19999999996547915
    vertex 215.87158635232328 530.3719536435291 0.19999999996538326
  endloop
endfacet
facet normal -1.340371138121302e-16 3.443293211630994e-15 -1.0
  outer loop
    vertex 215.87158635232328 530.3719536435291 0.19999999996538326
    vertex 215.87189314850647 541.7120609789828 0.19999999996547915
    vertex 217.4750566060571 533.1617280403073 0.1999999999652874
  endloop
endfacet
facet normal -1.340371138121302e-16 3.443293211630994e-15 -1.0
  outer loop
    vertex 217.4750566060571 533.1617280403073 0.1999999999652874
    vertex 215.87189314850647 541.7120609789828 0.19999999996547915
    vertex 220.02875133953341 543.5668740061537 0.19999999996543966
  endloop
endfacet
facet normal -1.340371138121302e-16 3.443293211630994e-15 -1.0
  outer loop
    vertex 217.4750566060571 533.1617280403073 0.1999999999652874
    vertex 220.02875133953341 543.5668740061537 0.19999999996543966
    vertex 219.51080268252275 535.2981799640492 0.19999999996535506
  endloop
endfacet
facet normal -1.340371138121302e-16 3.443293211630994e-15 -1.0
  outer loop
    vertex 219.51080268252275 535.2981799640492 0.19999999996535506
    vertex 220.02875133953341 543.5668740061537 0.19999999996543966
    vertex 222.00398186877786 536.6555229794667 0.1999999999654002
  endloop
endfacet
facet normal -1.340371138121302e-16 3.443293211630994e-15 -1.0
  outer loop
    vertex 222.00398186877786 536.6555229794667 0.1999999999654002
    vertex 220.02875133953341 543.5668740061537 0.19999999996543966
    vertex 224.9797514518808 544.1851450152108 0.19999999996535506
  endloop
endfacet
facet normal -1.340371138121302e-16 3.443293211630994e-15 -1.0
  outer loop
    vertex 222.00398186877786 536.6555229794667 0.1999999999654002
    vertex 224.9797514518808 544.1851450152108 0.19999999996535506
    vertex 224.9797514518808 537.1079706512725 0.19999999996532122
  endloop
endfacet
facet normal -1.340371138121302e-16 3.443293211630994e-15 -1.0
  outer loop
    vertex 224.9797514518808 537.1079706512725 0.19999999996532122
    vertex 224.9797514518808 544.1851450152108 0.19999999996535506
    vertex 229.96112438640756 543.5668740061537 0.19999999996543966
  endloop
endfacet
facet normal -1.340371138121302e-16 3.443293211630994e-15 -1.0
  outer loop
    vertex 224.9797514518808 537.1079706512725 0.19999999996532122
    vertex 229.96112438640756 543.5668740061537 0.19999999996543966
    vertex 227.95552103498372 536.6253802544252 0.19999999996535506
  endloop
endfacet
facet normal -1.340371138121302e-16 3.443293211630994e-15 -1.0
  outer loop
    vertex 227.95552103498372 536.6253802544252 0.19999999996535506
    vertex 229.96112438640756 543.5668740061537 0.19999999996543966
    vertex 230.44870022123956 535.1776090638831 0.1999999999653438
  endloop
endfacet
facet normal -1.340371138121302e-16 3.443293211630994e-15 -1.0
  outer loop
    vertex 230.44870022123956 535.1776090638831 0.1999999999653438
    vertex 229.96112438640756 543.5668740061537 0.19999999996543966
    vertex 234.12810685149333 541.7120609789828 0.19999999996547915
  endloop
endfacet
facet normal -1.340371138121302e-16 3.443293211630994e-15 -1.0
  outer loop
    vertex 230.44870022123956 535.1776090638831 0.1999999999653438
    vertex 234.12810685149333 541.7120609789828 0.19999999996547915
    vertex 232.48950843473497 532.9306338149893 0.19999999996533252
  endloop
endfacet
facet normal -1.340371138121302e-16 3.443293211630994e-15 -1.0
  outer loop
    vertex 232.48950843473497 532.9306338149893 0.19999999996533252
    vertex 234.12810685149333 541.7120609789828 0.19999999996547915
    vertex 234.10816509955743 530.0504312430866 0.19999999996537762
  endloop
endfacet
facet normal -1.340371138121302e-16 3.443293211630994e-15 -1.0
  outer loop
    vertex 234.10816509955743 530.0504312430866 0.19999999996537762
    vertex 234.12810685149333 541.7120609789828 0.19999999996547915
    vertex 236.15909758711314 522.953008331029 0.19999999996533252
  endloop
endfacet
facet normal -1.340371138121302e-16 3.443293211630994e-15 -1.0
  outer loop
    vertex 236.15909758711314 522.953008331029 0.19999999996533252
    vertex 234.12810685149333 541.7120609789828 0.19999999996547915
    vertex 237.53101342125268 538.8116865580065 0.19999999996538326
  endloop
endfacet
facet normal -1.340371138121302e-16 3.443293211630994e-15 -1.0
  outer loop
    vertex 236.15909758711314 522.953008331029 0.19999999996533252
    vertex 237.53101342125268 538.8116865580065 0.19999999996538326
    vertex 236.75755428344155 515.6214143736175 0.19999999996530995
  endloop
endfacet
facet normal -1.340371138121302e-16 3.443293211630994e-15 -1.0
  outer loop
    vertex 236.75755428344155 515.6214143736175 0.19999999996530995
    vertex 237.53101342125268 538.8116865580065 0.19999999996538326
    vertex 244.6961162439786 515.6214143736175 0.19999999996530995
  endloop
endfacet
facet normal -1.340371138121302e-16 3.443293211630994e-15 -1.0
  outer loop
    vertex 244.6961162439786 515.6214143736175 0.19999999996530995
    vertex 237.53101342125268 538.8116865580065 0.19999999996538326
    vertex 240.22015866980092 535.0567313675336 0.19999999996529302
  endloop
endfacet
facet normal -1.340371138121302e-16 3.443293211630994e-15 -1.0
  outer loop
    vertex 244.6961162439786 515.6214143736175 0.19999999996530995
    vertex 240.22015866980092 535.0567313675336 0.19999999996529302
    vertex 242.24079503422286 530.6232197179206 0.19999999996536635
  endloop
endfacet
facet normal -1.340371138121302e-16 3.443293211630994e-15 -1.0
  outer loop
    vertex 244.6961162439786 515.6214143736175 0.19999999996530995
    vertex 242.24079503422286 530.6232197179206 0.19999999996536635
    vertex 243.63817495160328 525.6871759195246 0.1999999999653438
  endloop
endfacet
facet normal -1.340371138121302e-16 3.443293211630994e-15 -1.0
  outer loop
    vertex 244.6961162439786 515.6214143736175 0.19999999996530995
    vertex 243.63817495160328 525.6871759195246 0.1999999999653438
    vertex 244.45248872199866 520.4395805966543 0.19999999996530995
  endloop
endfacet
endsolid v1_flaps_250mmbed
