solid v1_flaps_250mmbed
facet normal -0.8717639469690966 -0.48992613807069124 -4.228482305133224e-16
  outer loop
    vertex 232.48950843473426 532.930633814989 0.19999999996362752
    vertex 234.10816509955671 530.0504312430866 -3.631570461015698e-11
    vertex 234.10816509955671 530.0504312430866 0.19999999996369522
  endloop
endfacet
facet normal -0.8717639469690966 -0.48992613807069124 -4.228482305133224e-16
  outer loop
    vertex 234.10816509955671 530.0504312430866 -3.631570461015698e-11
    vertex 232.48950843473426 532.930633814989 0.19999999996362752
    vertex 232.48950843473426 532.930633814989 -3.638338380573813e-11
  endloop
endfacet
facet normal -0.9987247881794584 0.0504856165248692 -8.264213033958558e-17
  outer loop
    vertex 205.5474345789541 520.4395805966541 0.19999999996358242
    vertex 205.30387589775552 515.6214143736174 -3.58870697048097e-11
    vertex 205.30387589775552 515.6214143736174 0.19999999996412385
  endloop
endfacet
facet normal -0.9987247881794584 0.0504856165248692 -8.264213033958558e-17
  outer loop
    vertex 205.30387589775552 515.6214143736174 -3.58870697048097e-11
    vertex 205.5474345789541 520.4395805966541 0.19999999996358242
    vertex 205.5474345789541 520.4395805966541 -3.64285032694589e-11
  endloop
endfacet
facet normal -0.96219414413106 0.2723645149425619 -2.920153452761891e-16
  outer loop
    vertex 207.7587447715018 530.6232197179205 0.19999999996374032
    vertex 206.36151825221188 525.6871759195245 -3.6338264342017367e-11
    vertex 206.36151825221188 525.6871759195245 0.19999999996367265
  endloop
endfacet
facet normal -0.96219414413106 0.2723645149425619 -2.920153452761891e-16
  outer loop
    vertex 206.36151825221188 525.6871759195245 -3.6338264342017367e-11
    vertex 207.7587447715018 530.6232197179205 0.19999999996374032
    vertex 207.7587447715018 530.6232197179205 -3.627058514643621e-11
  endloop
endfacet
facet normal -0.12391553979390271 0.9922927687923488 -7.051370825141015e-17
  outer loop
    vertex 220.02875133953268 543.5668740061537 -3.622546568271545e-11
    vertex 224.97975145188008 544.1851450152108 0.19999999996371776
    vertex 224.97975145188008 544.1851450152108 -3.62931448782966e-11
  endloop
endfacet
facet normal -0.12391553979390271 0.9922927687923488 -7.051370825141015e-17
  outer loop
    vertex 224.97975145188008 544.1851450152108 0.19999999996371776
    vertex 220.02875133953268 543.5668740061537 -3.622546568271545e-11
    vertex 220.02875133953268 543.5668740061537 0.19999999996378545
  endloop
endfacet
facet normal 4.147265443679896e-16 -1.6275850820357566e-14 1.0
  outer loop
    vertex 214.82633175470076 515.6214143736174 0.9999999999649007
    vertex 207.54789909430323 543.2199642215159 0.9999999999653293
    vertex 207.54789909430323 515.6214143736174 0.9999999999649007
  endloop
endfacet
facet normal 4.147265443679896e-16 -1.6275850820357566e-14 1.0
  outer loop
    vertex 207.54789909430323 543.2199642215159 0.9999999999653293
    vertex 214.82633175470076 515.6214143736174 0.9999999999649007
    vertex 214.6649569621128 528.1808153000554 0.9999999999653293
  endloop
endfacet
facet normal 4.147265443679896e-16 -1.6275850820357566e-14 1.0
  outer loop
    vertex 214.6649569621128 528.1808153000554 0.9999999999653293
    vertex 214.82633175470076 515.6214143736174 0.9999999999649007
    vertex 214.82633175470076 526.4317702571901 0.9999999999653293
  endloop
endfacet
facet normal 4.147265443679896e-16 -1.6275850820357566e-14 1.0
  outer loop
    vertex 214.82633175470076 526.4317702571901 0.9999999999653293
    vertex 214.82633175470076 515.6214143736174 0.9999999999649007
    vertex 214.82633175470076 524.9238670146572 0.9999999999653293
  endloop
endfacet
facet normal 4.147265443679896e-16 -1.6275850820357566e-14 1.0
  outer loop
    vertex 214.6649569621128 528.1808153000554 0.9999999999653293
    vertex 214.94659585868334 543.2199642215159 0.9999999999653293
    vertex 207.54789909430323 543.2199642215159 0.9999999999653293
  endloop
endfacet
facet normal 4.147265443679896e-16 -1.6275850820357566e-14 1.0
  outer loop
    vertex 214.94659585868334 543.2199642215159 0.9999999999653293
    vertex 214.6649569621128 528.1808153000554 0.9999999999653293
    vertex 215.50956685564122 526.512150857301 0.9999999999653293
  endloop
endfacet
facet normal 4.147265443679896e-16 -1.6275850820357566e-14 1.0
  outer loop
    vertex 214.94659585868334 543.2199642215159 0.9999999999653293
    vertex 215.50956685564122 526.512150857301 0.9999999999653293
    vertex 228.514076582916 515.6214143736174 0.9999999999649007
  endloop
endfacet
facet normal 4.147265443679896e-16 -1.6275850820357566e-14 1.0
  outer loop
    vertex 228.514076582916 515.6214143736174 0.9999999999649007
    vertex 215.50956685564122 526.512150857301 0.9999999999653293
    vertex 216.31367965293072 524.8833699184182 0.9999999999653293
  endloop
endfacet
facet normal 4.147265443679896e-16 -1.6275850820357566e-14 1.0
  outer loop
    vertex 228.514076582916 515.6214143736174 0.9999999999649007
    vertex 216.31367965293072 524.8833699184182 0.9999999999653293
    vertex 220.93492627881483 515.6214143736174 0.9999999999649007
  endloop
endfacet
facet normal 0.9881729977613009 0.1533431657930809 1.6760489584199415e-16
  outer loop
    vertex 243.63817495160328 525.6871759195245 -3.6338264342017367e-11
    vertex 244.45248872199866 520.4395805966541 0.19999999996358242
    vertex 244.45248872199866 520.4395805966541 -3.64285032694589e-11
  endloop
endfacet
facet normal 0.9881729977613009 0.1533431657930809 1.6760489584199415e-16
  outer loop
    vertex 244.45248872199866 520.4395805966541 0.19999999996358242
    vertex 243.63817495160328 525.6871759195245 -3.6338264342017367e-11
    vertex 243.63817495160328 525.6871759195245 0.19999999996367265
  endloop
endfacet
facet normal 0.0 -1.0 0.0
  outer loop
    vertex 244.69611624397788 515.6214143736174 0.19999999996412385
    vertex 236.75755428344155 515.6214143736174 -3.58870697048097e-11
    vertex 244.69611624397788 515.6214143736174 -3.58870697048097e-11
  endloop
endfacet
facet normal 0.0 -1.0 0.0
  outer loop
    vertex 236.75755428344155 515.6214143736174 -3.58870697048097e-11
    vertex 244.69611624397788 515.6214143736174 0.19999999996412385
    vertex 236.75755428344155 515.6214143736174 0.19999999996412385
  endloop
endfacet
facet normal 0.12317148933523907 0.9923854010488765 -2.0295628377221546e-16
  outer loop
    vertex 224.97975145188008 544.1851450152108 0.19999999996371776
    vertex 229.96112438640685 543.5668740061537 -3.622546568271545e-11
    vertex 224.97975145188008 544.1851450152108 -3.62931448782966e-11
  endloop
endfacet
facet normal 0.12317148933523907 0.9923854010488765 -2.0295628377221546e-16
  outer loop
    vertex 229.96112438640685 543.5668740061537 -3.622546568271545e-11
    vertex 224.97975145188008 544.1851450152108 0.19999999996371776
    vertex 229.96112438640685 543.5668740061537 0.19999999996378545
  endloop
endfacet
facet normal 0.9967628015230974 -0.08039849190020158 8.242479861962494e-17
  outer loop
    vertex 213.82096066095076 523.2947792795909 -3.6338264342017367e-11
    vertex 213.2020300936207 515.6214143736174 0.19999999996412385
    vertex 213.2020300936207 515.6214143736174 -3.58870697048097e-11
  endloop
endfacet
facet normal 0.9967628015230974 -0.08039849190020158 8.242479861962494e-17
  outer loop
    vertex 213.2020300936207 515.6214143736174 0.19999999996412385
    vertex 213.82096066095076 523.2947792795909 -3.6338264342017367e-11
    vertex 213.82096066095076 523.2947792795909 0.19999999996367265
  endloop
endfacet
facet normal -0.6486656094723536 0.7610735359266279 -1.0873828786824014e-16
  outer loop
    vertex 212.4689098797008 538.8116865580065 0.19999999996367265
    vertex 215.87189314850576 541.7120609789828 -3.6202905950855066e-11
    vertex 212.4689098797008 538.8116865580065 -3.6338264342017367e-11
  endloop
endfacet
facet normal -0.6486656094723536 0.7610735359266279 -1.0873828786824014e-16
  outer loop
    vertex 215.87189314850576 541.7120609789828 -3.6202905950855066e-11
    vertex 212.4689098797008 538.8116865580065 0.19999999996367265
    vertex 215.87189314850576 541.7120609789828 0.19999999996380802
  endloop
endfacet
facet normal 0.9987240685909283 0.05049984967485435 8.390532610175206e-17
  outer loop
    vertex 244.45248872199866 520.4395805966541 -3.64285032694589e-11
    vertex 244.69611624397788 515.6214143736174 0.19999999996412385
    vertex 244.69611624397788 515.6214143736174 -3.58870697048097e-11
  endloop
endfacet
facet normal 0.9987240685909283 0.05049984967485435 8.390532610175206e-17
  outer loop
    vertex 244.69611624397788 515.6214143736174 0.19999999996412385
    vertex 244.45248872199866 520.4395805966541 -3.64285032694589e-11
    vertex 244.45248872199866 520.4395805966541 0.19999999996358242
  endloop
endfacet
facet normal 0.9099482045772914 0.414721912836257 3.8660486589263588e-16
  outer loop
    vertex 240.2201586698002 535.0567313675334 -3.62931448782966e-11
    vertex 242.24079503422212 530.6232197179205 0.19999999996374032
    vertex 242.24079503422212 530.6232197179205 -3.627058514643621e-11
  endloop
endfacet
facet normal 0.9099482045772914 0.414721912836257 3.8660486589263588e-16
  outer loop
    vertex 242.24079503422212 530.6232197179205 0.19999999996374032
    vertex 240.2201586698002 535.0567313675334 -3.62931448782966e-11
    vertex 240.2201586698002 535.0567313675334 0.19999999996371776
  endloop
endfacet
facet normal 0.40665483484688353 0.9135818766239039 4.10343689829124e-16
  outer loop
    vertex 229.96112438640685 543.5668740061537 0.19999999996378545
    vertex 234.12810685149262 541.7120609789828 -3.6202905950855066e-11
    vertex 229.96112438640685 543.5668740061537 -3.622546568271545e-11
  endloop
endfacet
facet normal 0.40665483484688353 0.9135818766239039 4.10343689829124e-16
  outer loop
    vertex 234.12810685149262 541.7120609789828 -3.6202905950855066e-11
    vertex 229.96112438640685 543.5668740061537 0.19999999996378545
    vertex 234.12810685149262 541.7120609789828 0.19999999996380802
  endloop
endfacet
facet normal 0.6486740779992617 0.7610663180904854 5.961935781887583e-17
  outer loop
    vertex 234.12810685149262 541.7120609789828 -3.6202905950855066e-11
    vertex 237.53101342125197 538.8116865580065 0.19999999996367265
    vertex 237.53101342125197 538.8116865580065 -3.6338264342017367e-11
  endloop
endfacet
facet normal 0.6486740779992617 0.7610663180904854 5.961935781887583e-17
  outer loop
    vertex 237.53101342125197 538.8116865580065 0.19999999996367265
    vertex 234.12810685149262 541.7120609789828 -3.6202905950855066e-11
    vertex 234.12810685149262 541.7120609789828 0.19999999996380802
  endloop
endfacet
facet normal -0.9099363231009399 0.41474798119043566 4.653292023225287e-16
  outer loop
    vertex 209.77953453401494 535.0567313675334 0.19999999996371776
    vertex 207.7587447715018 530.6232197179205 -3.627058514643621e-11
    vertex 207.7587447715018 530.6232197179205 0.19999999996374032
  endloop
endfacet
facet normal -0.9099363231009399 0.41474798119043566 4.653292023225287e-16
  outer loop
    vertex 207.7587447715018 530.6232197179205 -3.627058514643621e-11
    vertex 209.77953453401494 535.0567313675334 0.19999999996371776
    vertex 209.77953453401494 535.0567313675334 -3.62931448782966e-11
  endloop
endfacet
facet normal 0.1503163881913048 -0.9886379435572564 7.30450584048047e-17
  outer loop
    vertex 224.97975145188008 537.1079706512727 -3.6202905950855066e-11
    vertex 222.00398186877712 536.6555229794667 0.19999999996369522
    vertex 222.00398186877712 536.6555229794667 -3.631570461015698e-11
  endloop
endfacet
facet normal 0.1503163881913048 -0.9886379435572564 7.30450584048047e-17
  outer loop
    vertex 222.00398186877712 536.6555229794667 0.19999999996369522
    vertex 224.97975145188008 537.1079706512727 -3.6202905950855066e-11
    vertex 224.97975145188008 537.1079706512727 0.19999999996380802
  endloop
endfacet
facet normal -0.9606937572625617 -0.2776103469915021 1.7080055155506418e-16
  outer loop
    vertex 234.10816509955671 530.0504312430866 0.19999999996369522
    vertex 236.1590975871124 522.953008331029 -3.627058514643621e-11
    vertex 236.1590975871124 522.953008331029 0.19999999996374032
  endloop
endfacet
facet normal -0.9606937572625617 -0.2776103469915021 1.7080055155506418e-16
  outer loop
    vertex 236.1590975871124 522.953008331029 -3.627058514643621e-11
    vertex 234.10816509955671 530.0504312430866 0.19999999996369522
    vertex 234.10816509955671 530.0504312430866 -3.631570461015698e-11
  endloop
endfacet
facet normal 0.9621863073912402 0.2723921986195822 2.99542711866203e-16
  outer loop
    vertex 242.24079503422212 530.6232197179205 -3.627058514643621e-11
    vertex 243.63817495160328 525.6871759195245 0.19999999996367265
    vertex 243.63817495160328 525.6871759195245 -3.6338264342017367e-11
  endloop
endfacet
facet normal 0.9621863073912402 0.2723921986195822 2.99542711866203e-16
  outer loop
    vertex 243.63817495160328 525.6871759195245 0.19999999996367265
    vertex 242.24079503422212 530.6232197179205 -3.627058514643621e-11
    vertex 242.24079503422212 530.6232197179205 0.19999999996374032
  endloop
endfacet
facet normal -0.9881795626026459 0.15330085470878285 2.4849182040412396e-16
  outer loop
    vertex 206.36151825221188 525.6871759195245 0.19999999996367265
    vertex 205.5474345789541 520.4395805966541 -3.64285032694589e-11
    vertex 205.5474345789541 520.4395805966541 0.19999999996358242
  endloop
endfacet
facet normal -0.9881795626026459 0.15330085470878285 2.4849182040412396e-16
  outer loop
    vertex 205.5474345789541 520.4395805966541 -3.64285032694589e-11
    vertex 206.36151825221188 525.6871759195245 0.19999999996367265
    vertex 206.36151825221188 525.6871759195245 -3.6338264342017367e-11
  endloop
endfacet
facet normal -0.16008187864436713 -0.9871037392947563 1.11223224144896e-20
  outer loop
    vertex 227.955521034983 536.6253802544252 0.19999999996367265
    vertex 224.97975145188008 537.1079706512727 -3.6202905950855066e-11
    vertex 227.955521034983 536.6253802544252 -3.6338264342017367e-11
  endloop
endfacet
facet normal -0.16008187864436713 -0.9871037392947563 1.11223224144896e-20
  outer loop
    vertex 224.97975145188008 537.1079706512727 -3.6202905950855066e-11
    vertex 227.955521034983 536.6253802544252 0.19999999996367265
    vertex 224.97975145188008 537.1079706512727 0.19999999996380802
  endloop
endfacet
facet normal -0.9966850652510277 -0.08135650376924372 7.225386653780124e-18
  outer loop
    vertex 236.1590975871124 522.953008331029 0.19999999996374032
    vertex 236.75755428344155 515.6214143736174 -3.58870697048097e-11
    vertex 236.75755428344155 515.6214143736174 0.19999999996412385
  endloop
endfacet
facet normal -0.9966850652510277 -0.08135650376924372 7.225386653780124e-18
  outer loop
    vertex 236.75755428344155 515.6214143736174 -3.58870697048097e-11
    vertex 236.1590975871124 522.953008331029 0.19999999996374032
    vertex 236.1590975871124 522.953008331029 -3.627058514643621e-11
  endloop
endfacet
facet normal 0.0 -1.0 0.0
  outer loop
    vertex 214.82633175470076 515.6214143736174 0.9999999999649007
    vertex 207.54789909430323 515.6214143736174 0.799999999964901
    vertex 214.82633175470076 515.6214143736174 0.799999999964901
  endloop
endfacet
facet normal 0.0 -1.0 0.0
  outer loop
    vertex 207.54789909430323 515.6214143736174 0.799999999964901
    vertex 214.82633175470076 515.6214143736174 0.9999999999649007
    vertex 207.54789909430323 515.6214143736174 0.9999999999649007
  endloop
endfacet
facet normal -0.5021663232173993 -0.8647710586197476 0.0
  outer loop
    vertex 230.44870022123882 535.1776090638831 0.19999999996367265
    vertex 227.955521034983 536.6253802544252 -3.6338264342017367e-11
    vertex 230.44870022123882 535.1776090638831 -3.6338264342017367e-11
  endloop
endfacet
facet normal -0.5021663232173993 -0.8647710586197476 0.0
  outer loop
    vertex 227.955521034983 536.6253802544252 -3.6338264342017367e-11
    vertex 230.44870022123882 535.1776090638831 0.19999999996367265
    vertex 227.955521034983 536.6253802544252 0.19999999996367265
  endloop
endfacet
facet normal -0.896678969203229 -0.442681404837198 0.0
  outer loop
    vertex 215.50956685564122 526.512150857301 0.9999999999653293
    vertex 216.31367965293072 524.8833699184182 0.7999999999653297
    vertex 216.31367965293072 524.8833699184182 0.9999999999653293
  endloop
endfacet
facet normal -0.896678969203229 -0.442681404837198 0.0
  outer loop
    vertex 216.31367965293072 524.8833699184182 0.7999999999653297
    vertex 215.50956685564122 526.512150857301 0.9999999999653293
    vertex 215.50956685564122 526.512150857301 0.7999999999653297
  endloop
endfacet
facet normal -1.0 0.0 0.0
  outer loop
    vertex 207.54789909430323 543.2199642215159 0.9999999999653293
    vertex 207.54789909430323 515.6214143736174 0.799999999964901
    vertex 207.54789909430323 515.6214143736174 0.9999999999649007
  endloop
endfacet
facet normal -1.0 0.0 0.0
  outer loop
    vertex 207.54789909430323 515.6214143736174 0.799999999964901
    vertex 207.54789909430323 543.2199642215159 0.9999999999653293
    vertex 207.54789909430323 543.2199642215159 0.7999999999653297
  endloop
endfacet
facet normal 1.0 -0.0 -0.0
  outer loop
    vertex 214.82633175470076 526.4317702571901 0.7999999999653297
    vertex 214.82633175470076 524.9238670146572 0.9999999999653293
    vertex 214.82633175470076 524.9238670146572 0.7999999999653297
  endloop
endfacet
facet normal 1.0 -0.0 -0.0
  outer loop
    vertex 214.82633175470076 524.9238670146572 0.9999999999653293
    vertex 214.82633175470076 526.4317702571901 0.7999999999653297
    vertex 214.82633175470076 526.4317702571901 0.9999999999653293
  endloop
endfacet
facet normal -0.0 1.0 -0.0
  outer loop
    vertex 207.54789909430323 543.2199642215159 0.9999999999653293
    vertex 214.94659585868334 543.2199642215159 0.7999999999653297
    vertex 207.54789909430323 543.2199642215159 0.7999999999653297
  endloop
endfacet
facet normal -0.0 1.0 -0.0
  outer loop
    vertex 214.94659585868334 543.2199642215159 0.7999999999653297
    vertex 207.54789909430323 543.2199642215159 0.9999999999653293
    vertex 214.94659585868334 543.2199642215159 0.9999999999653293
  endloop
endfacet
facet normal 1.0 -0.0 -0.0
  outer loop
    vertex 242.45210090569657 543.2199642215159 0.7999999999653297
    vertex 242.45210090569657 515.6214143736174 0.9999999999649007
    vertex 242.45210090569657 515.6214143736174 0.799999999964901
  endloop
endfacet
facet normal 1.0 -0.0 -0.0
  outer loop
    vertex 242.45210090569657 515.6214143736174 0.9999999999649007
    vertex 242.45210090569657 543.2199642215159 0.7999999999653297
    vertex 242.45210090569657 543.2199642215159 0.9999999999653293
  endloop
endfacet
facet normal 0.8669935846162112 -0.49831929948009523 6.226125305132219e-16
  outer loop
    vertex 217.47505660605637 533.1617280403075 -3.64285032694589e-11
    vertex 215.87158635232254 530.371953643529 0.19999999996369522
    vertex 215.87158635232254 530.371953643529 -3.631570461015698e-11
  endloop
endfacet
facet normal 0.8669935846162112 -0.49831929948009523 6.226125305132219e-16
  outer loop
    vertex 215.87158635232254 530.371953643529 0.19999999996369522
    vertex 217.47505660605637 533.1617280403075 -3.64285032694589e-11
    vertex 217.47505660605637 533.1617280403075 0.19999999996358242
  endloop
endfacet
facet normal 0.7239636081906772 -0.689838165090578 7.177875539659086e-16
  outer loop
    vertex 219.510802682522 535.2981799640489 -3.6338264342017367e-11
    vertex 217.47505660605637 533.1617280403075 0.19999999996358242
    vertex 217.47505660605637 533.1617280403075 -3.64285032694589e-11
  endloop
endfacet
facet normal 0.7239636081906772 -0.689838165090578 7.177875539659086e-16
  outer loop
    vertex 217.47505660605637 533.1617280403075 0.19999999996358242
    vertex 219.510802682522 535.2981799640489 -3.6338264342017367e-11
    vertex 219.510802682522 535.2981799640489 0.19999999996367265
  endloop
endfacet
facet normal 0.9957706133158708 0.091874292685901 -0.0
  outer loop
    vertex 214.6649569621128 528.1808153000554 0.7999999999653297
    vertex 214.82633175470076 526.4317702571901 0.9999999999653293
    vertex 214.82633175470076 526.4317702571901 0.7999999999653297
  endloop
endfacet
facet normal 0.9957706133158708 0.091874292685901 -0.0
  outer loop
    vertex 214.82633175470076 526.4317702571901 0.9999999999653293
    vertex 214.6649569621128 528.1808153000554 0.7999999999653297
    vertex 214.6649569621128 528.1808153000554 0.9999999999653293
  endloop
endfacet
facet normal 0.47815344591721226 -0.8782763131028274 5.261088095928932e-17
  outer loop
    vertex 222.00398186877712 536.6555229794667 -3.631570461015698e-11
    vertex 219.510802682522 535.2981799640489 0.19999999996367265
    vertex 219.510802682522 535.2981799640489 -3.6338264342017367e-11
  endloop
endfacet
facet normal 0.47815344591721226 -0.8782763131028274 5.261088095928932e-17
  outer loop
    vertex 219.510802682522 535.2981799640489 0.19999999996367265
    vertex 222.00398186877712 536.6555229794667 -3.631570461015698e-11
    vertex 222.00398186877712 536.6555229794667 0.19999999996369522
  endloop
endfacet
facet normal 0.9604928238372302 -0.27830475266725757 -4.801211520984794e-16
  outer loop
    vertex 215.87158635232254 530.371953643529 -3.631570461015698e-11
    vertex 213.82096066095076 523.2947792795909 0.19999999996367265
    vertex 213.82096066095076 523.2947792795909 -3.6338264342017367e-11
  endloop
endfacet
facet normal 0.9604928238372302 -0.27830475266725757 -4.801211520984794e-16
  outer loop
    vertex 213.82096066095076 523.2947792795909 0.19999999996367265
    vertex 215.87158635232254 530.371953643529 -3.631570461015698e-11
    vertex 215.87158635232254 530.371953643529 0.19999999996369522
  endloop
endfacet
facet normal 0.0 -1.0 0.0
  outer loop
    vertex 242.45210090569657 515.6214143736174 0.9999999999649007
    vertex 235.21355174917016 515.6214143736174 0.799999999964901
    vertex 242.45210090569657 515.6214143736174 0.799999999964901
  endloop
endfacet
facet normal 0.0 -1.0 0.0
  outer loop
    vertex 235.21355174917016 515.6214143736174 0.799999999964901
    vertex 242.45210090569657 515.6214143736174 0.9999999999649007
    vertex 235.21355174917016 515.6214143736174 0.9999999999649007
  endloop
endfacet
facet normal -0.8922182390562399 -0.45160448834725153 0.0
  outer loop
    vertex 214.6649569621128 528.1808153000554 0.9999999999653293
    vertex 215.50956685564122 526.512150857301 0.7999999999653297
    vertex 215.50956685564122 526.512150857301 0.9999999999653293
  endloop
endfacet
facet normal -0.8922182390562399 -0.45160448834725153 0.0
  outer loop
    vertex 215.50956685564122 526.512150857301 0.7999999999653297
    vertex 214.6649569621128 528.1808153000554 0.9999999999653293
    vertex 214.6649569621128 528.1808153000554 0.7999999999653297
  endloop
endfacet
facet normal -4.147265443679849e-16 1.627585082035757e-14 -1.0
  outer loop
    vertex 214.94659585868334 543.2199642215159 0.7999999999653297
    vertex 207.54789909430323 515.6214143736174 0.799999999964901
    vertex 207.54789909430323 543.2199642215159 0.7999999999653297
  endloop
endfacet
facet normal -4.147265443679849e-16 1.627585082035757e-14 -1.0
  outer loop
    vertex 207.54789909430323 515.6214143736174 0.799999999964901
    vertex 214.94659585868334 543.2199642215159 0.7999999999653297
    vertex 214.6649569621128 528.1808153000554 0.7999999999653297
  endloop
endfacet
facet normal -4.147265443679849e-16 1.627585082035757e-14 -1.0
  outer loop
    vertex 214.6649569621128 528.1808153000554 0.7999999999653297
    vertex 214.94659585868334 543.2199642215159 0.7999999999653297
    vertex 215.50956685564122 526.512150857301 0.7999999999653297
  endloop
endfacet
facet normal -4.147265443679849e-16 1.627585082035757e-14 -1.0
  outer loop
    vertex 215.50956685564122 526.512150857301 0.7999999999653297
    vertex 214.94659585868334 543.2199642215159 0.7999999999653297
    vertex 228.514076582916 515.6214143736174 0.799999999964901
  endloop
endfacet
facet normal -4.147265443679849e-16 1.627585082035757e-14 -1.0
  outer loop
    vertex 215.50956685564122 526.512150857301 0.7999999999653297
    vertex 228.514076582916 515.6214143736174 0.799999999964901
    vertex 216.31367965293072 524.8833699184182 0.7999999999653297
  endloop
endfacet
facet normal -4.147265443679849e-16 1.627585082035757e-14 -1.0
  outer loop
    vertex 216.31367965293072 524.8833699184182 0.7999999999653297
    vertex 228.514076582916 515.6214143736174 0.799999999964901
    vertex 220.93492627881483 515.6214143736174 0.799999999964901
  endloop
endfacet
facet normal -4.147265443679849e-16 1.627585082035757e-14 -1.0
  outer loop
    vertex 214.6649569621128 528.1808153000554 0.7999999999653297
    vertex 214.82633175470076 515.6214143736174 0.799999999964901
    vertex 207.54789909430323 515.6214143736174 0.799999999964901
  endloop
endfacet
facet normal -4.147265443679849e-16 1.627585082035757e-14 -1.0
  outer loop
    vertex 214.82633175470076 515.6214143736174 0.799999999964901
    vertex 214.6649569621128 528.1808153000554 0.7999999999653297
    vertex 214.82633175470076 526.4317702571901 0.7999999999653297
  endloop
endfacet
facet normal -4.147265443679849e-16 1.627585082035757e-14 -1.0
  outer loop
    vertex 214.82633175470076 515.6214143736174 0.799999999964901
    vertex 214.82633175470076 526.4317702571901 0.7999999999653297
    vertex 214.82633175470076 524.9238670146572 0.7999999999653297
  endloop
endfacet
facet normal 0.0 1.55310662230291e-14 -1.0
  outer loop
    vertex 242.45210090569657 543.2199642215159 0.7999999999653297
    vertex 235.21355174917016 515.6214143736174 0.799999999964901
    vertex 235.21355174917016 543.2199642215159 0.7999999999653297
  endloop
endfacet
facet normal 0.0 1.55310662230291e-14 -1.0
  outer loop
    vertex 235.21355174917016 515.6214143736174 0.799999999964901
    vertex 242.45210090569657 543.2199642215159 0.7999999999653297
    vertex 242.45210090569657 515.6214143736174 0.799999999964901
  endloop
endfacet
facet normal -0.40748098137446537 0.9132136934026465 2.2103599180128163e-16
  outer loop
    vertex 215.87189314850576 541.7120609789828 -3.6202905950855066e-11
    vertex 220.02875133953268 543.5668740061537 0.19999999996378545
    vertex 220.02875133953268 543.5668740061537 -3.622546568271545e-11
  endloop
endfacet
facet normal -0.40748098137446537 0.9132136934026465 2.2103599180128163e-16
  outer loop
    vertex 220.02875133953268 543.5668740061537 0.19999999996378545
    vertex 215.87189314850576 541.7120609789828 -3.6202905950855066e-11
    vertex 215.87189314850576 541.7120609789828 0.19999999996380802
  endloop
endfacet
facet normal 0.8130124760638212 0.5822462655651598 5.301294917783946e-17
  outer loop
    vertex 237.53101342125197 538.8116865580065 -3.6338264342017367e-11
    vertex 240.2201586698002 535.0567313675334 0.19999999996371776
    vertex 240.2201586698002 535.0567313675334 -3.62931448782966e-11
  endloop
endfacet
facet normal 0.8130124760638212 0.5822462655651598 5.301294917783946e-17
  outer loop
    vertex 240.2201586698002 535.0567313675334 0.19999999996371776
    vertex 237.53101342125197 538.8116865580065 -3.6338264342017367e-11
    vertex 237.53101342125197 538.8116865580065 0.19999999996367265
  endloop
endfacet
facet normal 0.0 -1.0 0.0
  outer loop
    vertex 213.2020300936207 515.6214143736174 0.19999999996412385
    vertex 205.30387589775552 515.6214143736174 -3.58870697048097e-11
    vertex 213.2020300936207 515.6214143736174 -3.58870697048097e-11
  endloop
endfacet
facet normal 0.0 -1.0 0.0
  outer loop
    vertex 205.30387589775552 515.6214143736174 -3.58870697048097e-11
    vertex 213.2020300936207 515.6214143736174 0.19999999996412385
    vertex 205.30387589775552 515.6214143736174 0.19999999996412385
  endloop
endfacet
facet normal -0.894802927481259 -0.4464613319997252 5.771766038467022e-16
  outer loop
    vertex 216.31367965293072 524.8833699184182 0.9999999999653293
    vertex 220.93492627881483 515.6214143736174 0.799999999964901
    vertex 220.93492627881483 515.6214143736174 0.9999999999649007
  endloop
endfacet
facet normal -0.894802927481259 -0.4464613319997252 5.771766038467022e-16
  outer loop
    vertex 220.93492627881483 515.6214143736174 0.799999999964901
    vertex 216.31367965293072 524.8833699184182 0.9999999999653293
    vertex 216.31367965293072 524.8833699184182 0.7999999999653297
  endloop
endfacet
facet normal -0.740250984943526 -0.6723306324198977 4.948873743901729e-18
  outer loop
    vertex 230.44870022123882 535.1776090638831 0.19999999996367265
    vertex 232.48950843473426 532.930633814989 -3.638338380573813e-11
    vertex 232.48950843473426 532.930633814989 0.19999999996362752
  endloop
endfacet
facet normal -0.740250984943526 -0.6723306324198977 4.948873743901729e-18
  outer loop
    vertex 232.48950843473426 532.930633814989 -3.638338380573813e-11
    vertex 230.44870022123882 535.1776090638831 0.19999999996367265
    vertex 230.44870022123882 535.1776090638831 -3.6338264342017367e-11
  endloop
endfacet
facet normal 1.0 -0.0 -0.0
  outer loop
    vertex 214.82633175470076 524.9238670146572 0.7999999999653297
    vertex 214.82633175470076 515.6214143736174 0.9999999999649007
    vertex 214.82633175470076 515.6214143736174 0.799999999964901
  endloop
endfacet
facet normal 1.0 -0.0 -0.0
  outer loop
    vertex 214.82633175470076 515.6214143736174 0.9999999999649007
    vertex 214.82633175470076 524.9238670146572 0.7999999999653297
    vertex 214.82633175470076 524.9238670146572 0.9999999999653293
  endloop
endfacet
facet normal -0.8129888926173967 0.5822791946143525 2.6401163880159996e-16
  outer loop
    vertex 212.4689098797008 538.8116865580065 0.19999999996367265
    vertex 209.77953453401494 535.0567313675334 -3.62931448782966e-11
    vertex 209.77953453401494 535.0567313675334 0.19999999996371776
  endloop
endfacet
facet normal -0.8129888926173967 0.5822791946143525 2.6401163880159996e-16
  outer loop
    vertex 209.77953453401494 535.0567313675334 -3.62931448782966e-11
    vertex 212.4689098797008 538.8116865580065 0.19999999996367265
    vertex 212.4689098797008 538.8116865580065 -3.6338264342017367e-11
  endloop
endfacet
facet normal 0.0 -1.0 0.0
  outer loop
    vertex 228.514076582916 515.6214143736174 0.9999999999649007
    vertex 220.93492627881483 515.6214143736174 0.799999999964901
    vertex 228.514076582916 515.6214143736174 0.799999999964901
  endloop
endfacet
facet normal 0.0 -1.0 0.0
  outer loop
    vertex 220.93492627881483 515.6214143736174 0.799999999964901
    vertex 228.514076582916 515.6214143736174 0.9999999999649007
    vertex 220.93492627881483 515.6214143736174 0.9999999999649007
  endloop
endfacet
facet normal 0.897421765615121 0.441173633165264 6.308510960022398e-16
  outer loop
    vertex 214.94659585868334 543.2199642215159 0.7999999999653297
    vertex 228.514076582916 515.6214143736174 0.9999999999649007
    vertex 228.514076582916 515.6214143736174 0.799999999964901
  endloop
endfacet
facet normal 0.897421765615121 0.441173633165264 6.308510960022398e-16
  outer loop
    vertex 228.514076582916 515.6214143736174 0.9999999999649007
    vertex 214.94659585868334 543.2199642215159 0.7999999999653297
    vertex 214.94659585868334 543.2199642215159 0.9999999999653293
  endloop
endfacet
facet normal -1.0 0.0 0.0
  outer loop
    vertex 235.21355174917016 543.2199642215159 0.9999999999653293
    vertex 235.21355174917016 515.6214143736174 0.799999999964901
    vertex 235.21355174917016 515.6214143736174 0.9999999999649007
  endloop
endfacet
facet normal -1.0 0.0 0.0
  outer loop
    vertex 235.21355174917016 515.6214143736174 0.799999999964901
    vertex 235.21355174917016 543.2199642215159 0.9999999999653293
    vertex 235.21355174917016 543.2199642215159 0.7999999999653297
  endloop
endfacet
facet normal 2.0210365326103823e-16 -8.1360877733215e-15 -1.0
  outer loop
    vertex 205.5474345789541 520.4395805966541 -3.64285032694589e-11
    vertex 213.2020300936207 515.6214143736174 -3.58870697048097e-11
    vertex 205.30387589775552 515.6214143736174 -3.58870697048097e-11
  endloop
endfacet
facet normal 2.0210365326103823e-16 -8.1360877733215e-15 -1.0
  outer loop
    vertex 213.2020300936207 515.6214143736174 -3.58870697048097e-11
    vertex 205.5474345789541 520.4395805966541 -3.64285032694589e-11
    vertex 206.36151825221188 525.6871759195245 -3.6338264342017367e-11
  endloop
endfacet
facet normal 2.0210365326103823e-16 -8.1360877733215e-15 -1.0
  outer loop
    vertex 213.2020300936207 515.6214143736174 -3.58870697048097e-11
    vertex 206.36151825221188 525.6871759195245 -3.6338264342017367e-11
    vertex 207.7587447715018 530.6232197179205 -3.627058514643621e-11
  endloop
endfacet
facet normal 2.0210365326103823e-16 -8.1360877733215e-15 -1.0
  outer loop
    vertex 213.2020300936207 515.6214143736174 -3.58870697048097e-11
    vertex 207.7587447715018 530.6232197179205 -3.627058514643621e-11
    vertex 209.77953453401494 535.0567313675334 -3.62931448782966e-11
  endloop
endfacet
facet normal 2.0210365326103823e-16 -8.1360877733215e-15 -1.0
  outer loop
    vertex 213.2020300936207 515.6214143736174 -3.58870697048097e-11
    vertex 209.77953453401494 535.0567313675334 -3.62931448782966e-11
    vertex 212.4689098797008 538.8116865580065 -3.6338264342017367e-11
  endloop
endfacet
facet normal 2.0210365326103823e-16 -8.1360877733215e-15 -1.0
  outer loop
    vertex 213.2020300936207 515.6214143736174 -3.58870697048097e-11
    vertex 212.4689098797008 538.8116865580065 -3.6338264342017367e-11
    vertex 213.82096066095076 523.2947792795909 -3.6338264342017367e-11
  endloop
endfacet
facet normal 2.0210365326103823e-16 -8.1360877733215e-15 -1.0
  outer loop
    vertex 213.82096066095076 523.2947792795909 -3.6338264342017367e-11
    vertex 212.4689098797008 538.8116865580065 -3.6338264342017367e-11
    vertex 215.87189314850576 541.7120609789828 -3.6202905950855066e-11
  endloop
endfacet
facet normal 2.0210365326103823e-16 -8.1360877733215e-15 -1.0
  outer loop
    vertex 213.82096066095076 523.2947792795909 -3.6338264342017367e-11
    vertex 215.87189314850576 541.7120609789828 -3.6202905950855066e-11
    vertex 215.87158635232254 530.371953643529 -3.631570461015698e-11
  endloop
endfacet
facet normal 2.0210365326103823e-16 -8.1360877733215e-15 -1.0
  outer loop
    vertex 215.87158635232254 530.371953643529 -3.631570461015698e-11
    vertex 215.87189314850576 541.7120609789828 -3.6202905950855066e-11
    vertex 217.47505660605637 533.1617280403075 -3.64285032694589e-11
  endloop
endfacet
facet normal 2.0210365326103823e-16 -8.1360877733215e-15 -1.0
  outer loop
    vertex 217.47505660605637 533.1617280403075 -3.64285032694589e-11
    vertex 215.87189314850576 541.7120609789828 -3.6202905950855066e-11
    vertex 220.02875133953268 543.5668740061537 -3.622546568271545e-11
  endloop
endfacet
facet normal 2.0210365326103823e-16 -8.1360877733215e-15 -1.0
  outer loop
    vertex 217.47505660605637 533.1617280403075 -3.64285032694589e-11
    vertex 220.02875133953268 543.5668740061537 -3.622546568271545e-11
    vertex 219.510802682522 535.2981799640489 -3.6338264342017367e-11
  endloop
endfacet
facet normal 2.0210365326103823e-16 -8.1360877733215e-15 -1.0
  outer loop
    vertex 219.510802682522 535.2981799640489 -3.6338264342017367e-11
    vertex 220.02875133953268 543.5668740061537 -3.622546568271545e-11
    vertex 222.00398186877712 536.6555229794667 -3.631570461015698e-11
  endloop
endfacet
facet normal 2.0210365326103823e-16 -8.1360877733215e-15 -1.0
  outer loop
    vertex 222.00398186877712 536.6555229794667 -3.631570461015698e-11
    vertex 220.02875133953268 543.5668740061537 -3.622546568271545e-11
    vertex 224.97975145188008 544.1851450152108 -3.62931448782966e-11
  endloop
endfacet
facet normal 2.0210365326103823e-16 -8.1360877733215e-15 -1.0
  outer loop
    vertex 222.00398186877712 536.6555229794667 -3.631570461015698e-11
    vertex 224.97975145188008 544.1851450152108 -3.62931448782966e-11
    vertex 224.97975145188008 537.1079706512727 -3.6202905950855066e-11
  endloop
endfacet
facet normal 2.0210365326103823e-16 -8.1360877733215e-15 -1.0
  outer loop
    vertex 224.97975145188008 537.1079706512727 -3.6202905950855066e-11
    vertex 224.97975145188008 544.1851450152108 -3.62931448782966e-11
    vertex 229.96112438640685 543.5668740061537 -3.622546568271545e-11
  endloop
endfacet
facet normal 2.0210365326103823e-16 -8.1360877733215e-15 -1.0
  outer loop
    vertex 224.97975145188008 537.1079706512727 -3.6202905950855066e-11
    vertex 229.96112438640685 543.5668740061537 -3.622546568271545e-11
    vertex 227.955521034983 536.6253802544252 -3.6338264342017367e-11
  endloop
endfacet
facet normal 2.0210365326103823e-16 -8.1360877733215e-15 -1.0
  outer loop
    vertex 227.955521034983 536.6253802544252 -3.6338264342017367e-11
    vertex 229.96112438640685 543.5668740061537 -3.622546568271545e-11
    vertex 230.44870022123882 535.1776090638831 -3.6338264342017367e-11
  endloop
endfacet
facet normal 2.0210365326103823e-16 -8.1360877733215e-15 -1.0
  outer loop
    vertex 230.44870022123882 535.1776090638831 -3.6338264342017367e-11
    vertex 229.96112438640685 543.5668740061537 -3.622546568271545e-11
    vertex 234.12810685149262 541.7120609789828 -3.6202905950855066e-11
  endloop
endfacet
facet normal 2.0210365326103823e-16 -8.1360877733215e-15 -1.0
  outer loop
    vertex 230.44870022123882 535.1776090638831 -3.6338264342017367e-11
    vertex 234.12810685149262 541.7120609789828 -3.6202905950855066e-11
    vertex 232.48950843473426 532.930633814989 -3.638338380573813e-11
  endloop
endfacet
facet normal 2.0210365326103823e-16 -8.1360877733215e-15 -1.0
  outer loop
    vertex 232.48950843473426 532.930633814989 -3.638338380573813e-11
    vertex 234.12810685149262 541.7120609789828 -3.6202905950855066e-11
    vertex 234.10816509955671 530.0504312430866 -3.631570461015698e-11
  endloop
endfacet
facet normal 2.0210365326103823e-16 -8.1360877733215e-15 -1.0
  outer loop
    vertex 234.10816509955671 530.0504312430866 -3.631570461015698e-11
    vertex 234.12810685149262 541.7120609789828 -3.6202905950855066e-11
    vertex 236.1590975871124 522.953008331029 -3.627058514643621e-11
  endloop
endfacet
facet normal 2.0210365326103823e-16 -8.1360877733215e-15 -1.0
  outer loop
    vertex 236.1590975871124 522.953008331029 -3.627058514643621e-11
    vertex 234.12810685149262 541.7120609789828 -3.6202905950855066e-11
    vertex 237.53101342125197 538.8116865580065 -3.6338264342017367e-11
  endloop
endfacet
facet normal 2.0210365326103823e-16 -8.1360877733215e-15 -1.0
  outer loop
    vertex 236.1590975871124 522.953008331029 -3.627058514643621e-11
    vertex 237.53101342125197 538.8116865580065 -3.6338264342017367e-11
    vertex 236.75755428344155 515.6214143736174 -3.58870697048097e-11
  endloop
endfacet
facet normal 2.0210365326103823e-16 -8.1360877733215e-15 -1.0
  outer loop
    vertex 236.75755428344155 515.6214143736174 -3.58870697048097e-11
    vertex 237.53101342125197 538.8116865580065 -3.6338264342017367e-11
    vertex 244.69611624397788 515.6214143736174 -3.58870697048097e-11
  endloop
endfacet
facet normal 2.0210365326103823e-16 -8.1360877733215e-15 -1.0
  outer loop
    vertex 244.69611624397788 515.6214143736174 -3.58870697048097e-11
    vertex 237.53101342125197 538.8116865580065 -3.6338264342017367e-11
    vertex 240.2201586698002 535.0567313675334 -3.62931448782966e-11
  endloop
endfacet
facet normal 2.0210365326103823e-16 -8.1360877733215e-15 -1.0
  outer loop
    vertex 244.69611624397788 515.6214143736174 -3.58870697048097e-11
    vertex 240.2201586698002 535.0567313675334 -3.62931448782966e-11
    vertex 242.24079503422212 530.6232197179205 -3.627058514643621e-11
  endloop
endfacet
facet normal 2.0210365326103823e-16 -8.1360877733215e-15 -1.0
  outer loop
    vertex 244.69611624397788 515.6214143736174 -3.58870697048097e-11
    vertex 242.24079503422212 530.6232197179205 -3.627058514643621e-11
    vertex 243.63817495160328 525.6871759195245 -3.6338264342017367e-11
  endloop
endfacet
facet normal 2.0210365326103823e-16 -8.1360877733215e-15 -1.0
  outer loop
    vertex 244.69611624397788 515.6214143736174 -3.58870697048097e-11
    vertex 243.63817495160328 525.6871759195245 -3.6338264342017367e-11
    vertex 244.45248872199866 520.4395805966541 -3.64285032694589e-11
  endloop
endfacet
facet normal -0.0 1.0 -0.0
  outer loop
    vertex 235.21355174917016 543.2199642215159 0.9999999999653293
    vertex 242.45210090569657 543.2199642215159 0.7999999999653297
    vertex 235.21355174917016 543.2199642215159 0.7999999999653297
  endloop
endfacet
facet normal -0.0 1.0 -0.0
  outer loop
    vertex 242.45210090569657 543.2199642215159 0.7999999999653297
    vertex 235.21355174917016 543.2199642215159 0.9999999999653293
    vertex 242.45210090569657 543.2199642215159 0.9999999999653293
  endloop
endfacet
facet normal -2.0210365326103857e-16 8.1360877733215e-15 1.0
  outer loop
    vertex 213.2020300936207 515.6214143736174 0.19999999996412385
    vertex 205.5474345789541 520.4395805966541 0.19999999996358242
    vertex 205.30387589775552 515.6214143736174 0.19999999996412385
  endloop
endfacet
facet normal -2.0210365326103857e-16 8.1360877733215e-15 1.0
  outer loop
    vertex 205.5474345789541 520.4395805966541 0.19999999996358242
    vertex 213.2020300936207 515.6214143736174 0.19999999996412385
    vertex 206.36151825221188 525.6871759195245 0.19999999996367265
  endloop
endfacet
facet normal -2.0210365326103857e-16 8.1360877733215e-15 1.0
  outer loop
    vertex 206.36151825221188 525.6871759195245 0.19999999996367265
    vertex 213.2020300936207 515.6214143736174 0.19999999996412385
    vertex 207.7587447715018 530.6232197179205 0.19999999996374032
  endloop
endfacet
facet normal -2.0210365326103857e-16 8.1360877733215e-15 1.0
  outer loop
    vertex 207.7587447715018 530.6232197179205 0.19999999996374032
    vertex 213.2020300936207 515.6214143736174 0.19999999996412385
    vertex 209.77953453401494 535.0567313675334 0.19999999996371776
  endloop
endfacet
facet normal -2.0210365326103857e-16 8.1360877733215e-15 1.0
  outer loop
    vertex 209.77953453401494 535.0567313675334 0.19999999996371776
    vertex 213.2020300936207 515.6214143736174 0.19999999996412385
    vertex 212.4689098797008 538.8116865580065 0.19999999996367265
  endloop
endfacet
facet normal -2.0210365326103857e-16 8.1360877733215e-15 1.0
  outer loop
    vertex 212.4689098797008 538.8116865580065 0.19999999996367265
    vertex 213.2020300936207 515.6214143736174 0.19999999996412385
    vertex 213.82096066095076 523.2947792795909 0.19999999996367265
  endloop
endfacet
facet normal -2.0210365326103857e-16 8.1360877733215e-15 1.0
  outer loop
    vertex 212.4689098797008 538.8116865580065 0.19999999996367265
    vertex 213.82096066095076 523.2947792795909 0.19999999996367265
    vertex 215.87189314850576 541.7120609789828 0.19999999996380802
  endloop
endfacet
facet normal -2.0210365326103857e-16 8.1360877733215e-15 1.0
  outer loop
    vertex 215.87189314850576 541.7120609789828 0.19999999996380802
    vertex 213.82096066095076 523.2947792795909 0.19999999996367265
    vertex 215.87158635232254 530.371953643529 0.19999999996369522
  endloop
endfacet
facet normal -2.0210365326103857e-16 8.1360877733215e-15 1.0
  outer loop
    vertex 215.87189314850576 541.7120609789828 0.19999999996380802
    vertex 215.87158635232254 530.371953643529 0.19999999996369522
    vertex 217.47505660605637 533.1617280403075 0.19999999996358242
  endloop
endfacet
facet normal -2.0210365326103857e-16 8.1360877733215e-15 1.0
  outer loop
    vertex 215.87189314850576 541.7120609789828 0.19999999996380802
    vertex 217.47505660605637 533.1617280403075 0.19999999996358242
    vertex 220.02875133953268 543.5668740061537 0.19999999996378545
  endloop
endfacet
facet normal -2.0210365326103857e-16 8.1360877733215e-15 1.0
  outer loop
    vertex 220.02875133953268 543.5668740061537 0.19999999996378545
    vertex 217.47505660605637 533.1617280403075 0.19999999996358242
    vertex 219.510802682522 535.2981799640489 0.19999999996367265
  endloop
endfacet
facet normal -2.0210365326103857e-16 8.1360877733215e-15 1.0
  outer loop
    vertex 220.02875133953268 543.5668740061537 0.19999999996378545
    vertex 219.510802682522 535.2981799640489 0.19999999996367265
    vertex 222.00398186877712 536.6555229794667 0.19999999996369522
  endloop
endfacet
facet normal -2.0210365326103857e-16 8.1360877733215e-15 1.0
  outer loop
    vertex 220.02875133953268 543.5668740061537 0.19999999996378545
    vertex 222.00398186877712 536.6555229794667 0.19999999996369522
    vertex 224.97975145188008 544.1851450152108 0.19999999996371776
  endloop
endfacet
facet normal -2.0210365326103857e-16 8.1360877733215e-15 1.0
  outer loop
    vertex 224.97975145188008 544.1851450152108 0.19999999996371776
    vertex 222.00398186877712 536.6555229794667 0.19999999996369522
    vertex 224.97975145188008 537.1079706512727 0.19999999996380802
  endloop
endfacet
facet normal -2.0210365326103857e-16 8.1360877733215e-15 1.0
  outer loop
    vertex 224.97975145188008 544.1851450152108 0.19999999996371776
    vertex 224.97975145188008 537.1079706512727 0.19999999996380802
    vertex 227.955521034983 536.6253802544252 0.19999999996367265
  endloop
endfacet
facet normal -2.0210365326103857e-16 8.1360877733215e-15 1.0
  outer loop
    vertex 224.97975145188008 544.1851450152108 0.19999999996371776
    vertex 227.955521034983 536.6253802544252 0.19999999996367265
    vertex 229.96112438640685 543.5668740061537 0.19999999996378545
  endloop
endfacet
facet normal -2.0210365326103857e-16 8.1360877733215e-15 1.0
  outer loop
    vertex 229.96112438640685 543.5668740061537 0.19999999996378545
    vertex 227.955521034983 536.6253802544252 0.19999999996367265
    vertex 230.44870022123882 535.1776090638831 0.19999999996367265
  endloop
endfacet
facet normal -2.0210365326103857e-16 8.1360877733215e-15 1.0
  outer loop
    vertex 229.96112438640685 543.5668740061537 0.19999999996378545
    vertex 230.44870022123882 535.1776090638831 0.19999999996367265
    vertex 234.12810685149262 541.7120609789828 0.19999999996380802
  endloop
endfacet
facet normal -2.0210365326103857e-16 8.1360877733215e-15 1.0
  outer loop
    vertex 234.12810685149262 541.7120609789828 0.19999999996380802
    vertex 230.44870022123882 535.1776090638831 0.19999999996367265
    vertex 232.48950843473426 532.930633814989 0.19999999996362752
  endloop
endfacet
facet normal -2.0210365326103857e-16 8.1360877733215e-15 1.0
  outer loop
    vertex 234.12810685149262 541.7120609789828 0.19999999996380802
    vertex 232.48950843473426 532.930633814989 0.19999999996362752
    vertex 234.10816509955671 530.0504312430866 0.19999999996369522
  endloop
endfacet
facet normal -2.0210365326103857e-16 8.1360877733215e-15 1.0
  outer loop
    vertex 234.12810685149262 541.7120609789828 0.19999999996380802
    vertex 234.10816509955671 530.0504312430866 0.19999999996369522
    vertex 236.1590975871124 522.953008331029 0.19999999996374032
  endloop
endfacet
facet normal -2.0210365326103857e-16 8.1360877733215e-15 1.0
  outer loop
    vertex 234.12810685149262 541.7120609789828 0.19999999996380802
    vertex 236.1590975871124 522.953008331029 0.19999999996374032
    vertex 237.53101342125197 538.8116865580065 0.19999999996367265
  endloop
endfacet
facet normal -2.0210365326103857e-16 8.1360877733215e-15 1.0
  outer loop
    vertex 237.53101342125197 538.8116865580065 0.19999999996367265
    vertex 236.1590975871124 522.953008331029 0.19999999996374032
    vertex 236.75755428344155 515.6214143736174 0.19999999996412385
  endloop
endfacet
facet normal -2.0210365326103857e-16 8.1360877733215e-15 1.0
  outer loop
    vertex 237.53101342125197 538.8116865580065 0.19999999996367265
    vertex 236.75755428344155 515.6214143736174 0.19999999996412385
    vertex 244.69611624397788 515.6214143736174 0.19999999996412385
  endloop
endfacet
facet normal -2.0210365326103857e-16 8.1360877733215e-15 1.0
  outer loop
    vertex 237.53101342125197 538.8116865580065 0.19999999996367265
    vertex 244.69611624397788 515.6214143736174 0.19999999996412385
    vertex 240.2201586698002 535.0567313675334 0.19999999996371776
  endloop
endfacet
facet normal -2.0210365326103857e-16 8.1360877733215e-15 1.0
  outer loop
    vertex 240.2201586698002 535.0567313675334 0.19999999996371776
    vertex 244.69611624397788 515.6214143736174 0.19999999996412385
    vertex 242.24079503422212 530.6232197179205 0.19999999996374032
  endloop
endfacet
facet normal -2.0210365326103857e-16 8.1360877733215e-15 1.0
  outer loop
    vertex 242.24079503422212 530.6232197179205 0.19999999996374032
    vertex 244.69611624397788 515.6214143736174 0.19999999996412385
    vertex 243.63817495160328 525.6871759195245 0.19999999996367265
  endloop
endfacet
facet normal -2.0210365326103857e-16 8.1360877733215e-15 1.0
  outer loop
    vertex 243.63817495160328 525.6871759195245 0.19999999996367265
    vertex 244.69611624397788 515.6214143736174 0.19999999996412385
    vertex 244.45248872199866 520.4395805966541 0.19999999996358242
  endloop
endfacet
facet normal -0.0 -1.55310662230291e-14 1.0
  outer loop
    vertex 242.45210090569657 515.6214143736174 0.9999999999649007
    vertex 235.21355174917016 543.2199642215159 0.9999999999653293
    vertex 235.21355174917016 515.6214143736174 0.9999999999649007
  endloop
endfacet
facet normal -0.0 -1.55310662230291e-14 1.0
  outer loop
    vertex 235.21355174917016 543.2199642215159 0.9999999999653293
    vertex 242.45210090569657 515.6214143736174 0.9999999999649007
    vertex 242.45210090569657 543.2199642215159 0.9999999999653293
  endloop
endfacet
endsolid v1_flaps_250mmbed
