solid Extra-Characters_1_export
facet normal 1.0 -0.0 -0.0
  outer loop
    vertex 55.00000000000048 69.85708552303754 8.967493414502314e-12
    vertex 55.00000000000048 69.82301134932707 0.24118095490649458
    vertex 55.00000000000048 69.72311092682233 9.057732341943846e-12
  endloop
endfacet
facet normal 1.0 -0.0 -0.0
  outer loop
    vertex 55.00000000000048 69.82301134932707 0.24118095490649458
    vertex 55.00000000000048 69.85708552303754 8.967493414502314e-12
    vertex 55.00000000000048 69.8570855230379 0.5000000000091188
  endloop
endfacet
facet normal -0.0 0.923879532511929 0.38268343236353947
  outer loop
    vertex 1.3535839116229907e-13 69.72311092682233 1.0000000000091913
    vertex 5.000000000000532 69.82301134932653 0.7588190451116079
    vertex 1.3535839116229907e-13 69.82301134932653 0.7588190451116079
  endloop
endfacet
facet normal -0.0 0.923879532511929 0.38268343236353947
  outer loop
    vertex 5.000000000000532 69.82301134932653 0.7588190451116079
    vertex 1.3535839116229907e-13 69.72311092682233 1.0000000000091913
    vertex 5.000000000000532 69.72311092682233 1.0000000000091913
  endloop
endfacet
facet normal 1.0 -0.0 -0.0
  outer loop
    vertex 55.00000000000048 69.82301134932653 0.7588190451116079
    vertex 55.00000000000048 69.85708552303754 1.0000000000090559
    vertex 55.00000000000048 69.72311092682233 1.0000000000091913
  endloop
endfacet
facet normal 1.0 -0.0 -0.0
  outer loop
    vertex 55.00000000000048 69.85708552303754 1.0000000000090559
    vertex 55.00000000000048 69.82301134932653 0.7588190451116079
    vertex 55.00000000000048 69.8570855230379 0.5000000000091188
  endloop
endfacet
facet normal 0.0 -0.9238795325113642 -0.3826834323649028
  outer loop
    vertex 59.999999999999346 67.89115969674882 0.24118095490640434
    vertex 55.00000000000048 67.99106011925338 8.956213548572122e-12
    vertex 59.999999999999346 67.99106011925338 8.956213548572122e-12
  endloop
endfacet
facet normal 0.0 -0.9238795325113642 -0.3826834323649028
  outer loop
    vertex 55.00000000000048 67.99106011925338 8.956213548572122e-12
    vertex 59.999999999999346 67.89115969674882 0.24118095490640434
    vertex 55.00000000000048 67.89115969674882 0.24118095490640434
  endloop
endfacet
facet normal 5.337302715672761e-16 2.1061233200842342e-14 -1.0
  outer loop
    vertex 28.988415819378815 67.97631267289015 0.20000000001042223
    vertex 30.965180793695843 58.46390262029757 0.20000000001028687
    vertex 26.863622614769184 62.16355779867136 0.2000000000102756
  endloop
endfacet
facet normal 5.337302715672761e-16 2.1061233200842342e-14 -1.0
  outer loop
    vertex 30.965180793695843 58.46390262029757 0.20000000001028687
    vertex 28.988415819378815 67.97631267289015 0.20000000001042223
    vertex 32.33226458794393 65.78283237693466 0.2000000000103771
  endloop
endfacet
facet normal 5.337302715672761e-16 2.1061233200842342e-14 -1.0
  outer loop
    vertex 30.965180793695843 58.46390262029757 0.20000000001028687
    vertex 32.33226458794393 65.78283237693466 0.2000000000103771
    vertex 32.12625095063758 56.27744291862459 0.2000000000102079
  endloop
endfacet
facet normal 5.337302715672761e-16 2.1061233200842342e-14 -1.0
  outer loop
    vertex 32.12625095063758 56.27744291862459 0.2000000000102079
    vertex 32.33226458794393 65.78283237693466 0.2000000000103771
    vertex 32.513274336284596 53.77943169247693 0.20000000001018536
  endloop
endfacet
facet normal 5.337302715672761e-16 2.1061233200842342e-14 -1.0
  outer loop
    vertex 32.513274336284596 53.77943169247693 0.20000000001018536
    vertex 32.33226458794393 65.78283237693466 0.2000000000103771
    vertex 35.227500172844046 63.319719216674656 0.200000000010332
  endloop
endfacet
facet normal 5.337302715672761e-16 2.1061233200842342e-14 -1.0
  outer loop
    vertex 32.513274336284596 53.77943169247693 0.20000000001018536
    vertex 35.227500172844046 63.319719216674656 0.200000000010332
    vertex 33.05599678512273 42.78140210176909 0.20000000000989207
  endloop
endfacet
facet normal 5.337302715672761e-16 2.1061233200842342e-14 -1.0
  outer loop
    vertex 33.05599678512273 42.78140210176909 0.20000000000989207
    vertex 35.227500172844046 63.319719216674656 0.200000000010332
    vertex 35.73517115770319 44.641200566924034 0.20000000000988644
  endloop
endfacet
facet normal 5.337302715672761e-16 2.1061233200842342e-14 -1.0
  outer loop
    vertex 35.73517115770319 44.641200566924034 0.20000000000988644
    vertex 35.227500172844046 63.319719216674656 0.200000000010332
    vertex 37.51957446073134 60.55502540790811 0.2000000000102925
  endloop
endfacet
facet normal 5.337302715672761e-16 2.1061233200842342e-14 -1.0
  outer loop
    vertex 35.73517115770319 44.641200566924034 0.20000000000988644
    vertex 37.51957446073134 60.55502540790811 0.2000000000102925
    vertex 37.78096480918278 47.12440887721154 0.2000000000100105
  endloop
endfacet
facet normal 5.337302715672761e-16 2.1061233200842342e-14 -1.0
  outer loop
    vertex 37.78096480918278 47.12440887721154 0.2000000000100105
    vertex 37.51957446073134 60.55502540790811 0.2000000000102925
    vertex 39.012444690266975 57.35307033842524 0.20000000001026996
  endloop
endfacet
facet normal 5.337302715672761e-16 2.1061233200842342e-14 -1.0
  outer loop
    vertex 37.78096480918278 47.12440887721154 0.2000000000100105
    vertex 39.012444690266975 57.35307033842524 0.20000000001026996
    vertex 39.07779227737965 50.135306623339645 0.20000000001007257
  endloop
endfacet
facet normal 5.337302715672761e-16 2.1061233200842342e-14 -1.0
  outer loop
    vertex 39.07779227737965 50.135306623339645 0.20000000001007257
    vertex 39.012444690266975 57.35307033842524 0.20000000001026996
    vertex 39.51006810011218 53.578173396016524 0.20000000001019663
  endloop
endfacet
facet normal 5.337302715672761e-16 2.1061233200842342e-14 -1.0
  outer loop
    vertex 19.363683109791435 42.660831201603294 0.2000000000098695
    vertex 20.082353169940184 50.88933494365212 0.20000000001012896
    vertex 22.590642068239728 41.59018921978617 0.20000000000989207
  endloop
endfacet
facet normal 5.337302715672761e-16 2.1061233200842342e-14 -1.0
  outer loop
    vertex 20.082353169940184 50.88933494365212 0.20000000001012896
    vertex 19.363683109791435 42.660831201603294 0.2000000000098695
    vertex 19.645015210178595 53.3775286919237 0.20000000001014587
  endloop
endfacet
facet normal 5.337302715672761e-16 2.1061233200842342e-14 -1.0
  outer loop
    vertex 22.590642068239728 41.59018921978617 0.20000000000989207
    vertex 20.082353169940184 50.88933494365212 0.20000000001012896
    vertex 21.394367049227117 48.97408306830648 0.2000000000100218
  endloop
endfacet
facet normal 5.337302715672761e-16 2.1061233200842342e-14 -1.0
  outer loop
    vertex 22.590642068239728 41.59018921978617 0.20000000000989207
    vertex 21.394367049227117 48.97408306830648 0.2000000000100218
    vertex 23.420142249724446 47.752497364144524 0.20000000000993157
  endloop
endfacet
facet normal 5.337302715672761e-16 2.1061233200842342e-14 -1.0
  outer loop
    vertex 22.590642068239728 41.59018921978617 0.20000000000989207
    vertex 23.420142249724446 47.752497364144524 0.20000000000993157
    vertex 26.159525373342454 41.233308559180614 0.20000000000989207
  endloop
endfacet
facet normal 5.337302715672761e-16 2.1061233200842342e-14 -1.0
  outer loop
    vertex 26.159525373342454 41.233308559180614 0.20000000000989207
    vertex 23.420142249724446 47.752497364144524 0.20000000000993157
    vertex 25.99876417312091 47.34530212942384 0.20000000000997104
  endloop
endfacet
facet normal 5.337302715672761e-16 2.1061233200842342e-14 -1.0
  outer loop
    vertex 26.159525373342454 41.233308559180614 0.20000000000989207
    vertex 25.99876417312091 47.34530212942384 0.20000000000997104
    vertex 28.497005496406427 47.77259251417222 0.2000000000099372
  endloop
endfacet
facet normal 5.337302715672761e-16 2.1061233200842342e-14 -1.0
  outer loop
    vertex 26.159525373342454 41.233308559180614 0.20000000000989207
    vertex 28.497005496406427 47.77259251417222 0.2000000000099372
    vertex 29.833946565612887 41.62033194482762 0.20000000000988644
  endloop
endfacet
facet normal 5.337302715672761e-16 2.1061233200842342e-14 -1.0
  outer loop
    vertex 29.833946565612887 41.62033194482762 0.20000000000988644
    vertex 28.497005496406427 47.77259251417222 0.2000000000099372
    vertex 30.603161297014886 49.05446366841707 0.20000000001001617
  endloop
endfacet
facet normal 5.337302715672761e-16 2.1061233200842342e-14 -1.0
  outer loop
    vertex 29.833946565612887 41.62033194482762 0.20000000000988644
    vertex 30.603161297014886 49.05446366841707 0.20000000001001617
    vertex 33.05599678512273 42.78140210176909 0.20000000000989207
  endloop
endfacet
facet normal 5.337302715672761e-16 2.1061233200842342e-14 -1.0
  outer loop
    vertex 33.05599678512273 42.78140210176909 0.20000000000989207
    vertex 30.603161297014886 49.05446366841707 0.20000000001001617
    vertex 32.035746076467255 51.09028644392869 0.20000000001011203
  endloop
endfacet
facet normal 5.337302715672761e-16 2.1061233200842342e-14 -1.0
  outer loop
    vertex 33.05599678512273 42.78140210176909 0.20000000000989207
    vertex 32.035746076467255 51.09028644392869 0.20000000001011203
    vertex 32.513274336284596 53.77943169247693 0.20000000001018536
  endloop
endfacet
facet normal 5.337302715672761e-16 2.1061233200842342e-14 -1.0
  outer loop
    vertex 30.52160291438136 69.8571712527643 0.2000000000104448
    vertex 15.98616392422732 68.67806796183523 0.2000000000104448
    vertex 14.48152579798951 69.8571712527643 0.2000000000104448
  endloop
endfacet
facet normal 5.337302715672761e-16 2.1061233200842342e-14 -1.0
  outer loop
    vertex 15.98616392422732 68.67806796183523 0.2000000000104448
    vertex 30.52160291438136 69.8571712527643 0.2000000000104448
    vertex 18.982253471438224 66.90040863590767 0.2000000000104053
  endloop
endfacet
facet normal 5.337302715672761e-16 2.1061233200842342e-14 -1.0
  outer loop
    vertex 18.982253471438224 66.90040863590767 0.2000000000104053
    vertex 30.52160291438136 69.8571712527643 0.2000000000104448
    vertex 28.988415819378815 67.97631267289015 0.20000000001042223
  endloop
endfacet
facet normal 5.337302715672761e-16 2.1061233200842342e-14 -1.0
  outer loop
    vertex 18.982253471438224 66.90040863590767 0.2000000000104053
    vertex 28.988415819378815 67.97631267289015 0.20000000001042223
    vertex 25.152578648065674 63.1976621666329 0.2000000000103207
  endloop
endfacet
facet normal 5.337302715672761e-16 2.1061233200842342e-14 -1.0
  outer loop
    vertex 18.982253471438224 66.90040863590767 0.2000000000104053
    vertex 25.152578648065674 63.1976621666329 0.2000000000103207
    vertex 22.70162558766748 60.11293210729977 0.20000000001028687
  endloop
endfacet
facet normal 5.337302715672761e-16 2.1061233200842342e-14 -1.0
  outer loop
    vertex 18.982253471438224 66.90040863590767 0.2000000000104053
    vertex 22.70162558766748 60.11293210729977 0.20000000001028687
    vertex 20.328863903485484 56.393335176990156 0.20000000001018536
  endloop
endfacet
facet normal 5.337302715672761e-16 2.1061233200842342e-14 -1.0
  outer loop
    vertex 18.982253471438224 66.90040863590767 0.2000000000104053
    vertex 20.328863903485484 56.393335176990156 0.20000000001018536
    vertex 19.645015210178595 53.3775286919237 0.20000000001014587
  endloop
endfacet
facet normal 5.337302715672761e-16 2.1061233200842342e-14 -1.0
  outer loop
    vertex 18.982253471438224 66.90040863590767 0.2000000000104053
    vertex 19.645015210178595 53.3775286919237 0.20000000001014587
    vertex 19.363683109791435 42.660831201603294 0.2000000000098695
  endloop
endfacet
facet normal 5.337302715672761e-16 2.1061233200842342e-14 -1.0
  outer loop
    vertex 25.152578648065674 63.1976621666329 0.2000000000103207
    vertex 28.988415819378815 67.97631267289015 0.20000000001042223
    vertex 26.863622614769184 62.16355779867136 0.2000000000102756
  endloop
endfacet
facet normal 5.337302715672761e-16 2.1061233200842342e-14 -1.0
  outer loop
    vertex 13.653592540101073 58.52434146847234 0.20000000001025303
    vertex 13.105654556140559 49.838711412816984 0.20000000001003307
    vertex 12.648221446351096 53.41741219579534 0.2000000000101628
  endloop
endfacet
facet normal 5.337302715672761e-16 2.1061233200842342e-14 -1.0
  outer loop
    vertex 13.105654556140559 49.838711412816984 0.20000000001003307
    vertex 13.653592540101073 58.52434146847234 0.20000000001025303
    vertex 14.47795388551039 46.82282822870491 0.20000000000995977
  endloop
endfacet
facet normal 5.337302715672761e-16 2.1061233200842342e-14 -1.0
  outer loop
    vertex 14.47795388551039 46.82282822870491 0.20000000000995977
    vertex 13.653592540101073 58.52434146847234 0.20000000001025303
    vertex 16.62920872511187 63.81228048948991 0.20000000001039966
  endloop
endfacet
facet normal 5.337302715672761e-16 2.1061233200842342e-14 -1.0
  outer loop
    vertex 14.47795388551039 46.82282822870491 0.20000000000995977
    vertex 16.62920872511187 63.81228048948991 0.20000000001039966
    vertex 16.61425241116012 44.41509177958999 0.20000000000994847
  endloop
endfacet
facet normal 5.337302715672761e-16 2.1061233200842342e-14 -1.0
  outer loop
    vertex 16.61425241116012 44.41509177958999 0.20000000000994847
    vertex 16.62920872511187 63.81228048948991 0.20000000001039966
    vertex 19.363683109791435 42.660831201603294 0.2000000000098695
  endloop
endfacet
facet normal 5.337302715672761e-16 2.1061233200842342e-14 -1.0
  outer loop
    vertex 19.363683109791435 42.660831201603294 0.2000000000098695
    vertex 16.62920872511187 63.81228048948991 0.20000000001039966
    vertex 18.982253471438224 66.90040863590767 0.2000000000104053
  endloop
endfacet
facet normal 0.0 -0.9238795325117992 0.38268343236385255
  outer loop
    vertex 59.999999999999346 67.99106011925319 1.0000000000089544
    vertex 55.00000000000048 67.891159696749 0.7588190451116023
    vertex 59.999999999999346 67.891159696749 0.7588190451116023
  endloop
endfacet
facet normal 0.0 -0.9238795325117992 0.38268343236385255
  outer loop
    vertex 55.00000000000048 67.891159696749 0.7588190451116023
    vertex 59.999999999999346 67.99106011925319 1.0000000000089544
    vertex 55.00000000000048 67.99106011925319 1.0000000000089544
  endloop
endfacet
facet normal 0.0 -0.9914448613736939 0.13052619222093648
  outer loop
    vertex 5.000000000000532 67.891159696749 0.7588190451116023
    vertex 1.3535839116229907e-13 67.85708552303781 0.5000000000089384
    vertex 5.000000000000532 67.85708552303781 0.5000000000089384
  endloop
endfacet
facet normal 0.0 -0.9914448613736939 0.13052619222093648
  outer loop
    vertex 1.3535839116229907e-13 67.85708552303781 0.5000000000089384
    vertex 5.000000000000532 67.891159696749 0.7588190451116023
    vertex 1.3535839116229907e-13 67.891159696749 0.7588190451116023
  endloop
endfacet
facet normal -1.0 0.0 0.0
  outer loop
    vertex 5.000000000000532 69.85708552303754 1.0000000000090559
    vertex 5.000000000000532 69.82301134932653 0.7588190451116079
    vertex 5.000000000000532 69.72311092682233 1.0000000000091913
  endloop
endfacet
facet normal -1.0 0.0 0.0
  outer loop
    vertex 5.000000000000532 69.82301134932653 0.7588190451116079
    vertex 5.000000000000532 69.85708552303754 1.0000000000090559
    vertex 5.000000000000532 69.8570855230379 0.5000000000091188
  endloop
endfacet
facet normal 0.0 -0.991444861373775 -0.13052619222032122
  outer loop
    vertex 5.000000000000532 67.85708552303781 0.5000000000089384
    vertex 1.3535839116229907e-13 67.89115969674882 0.24118095490640434
    vertex 5.000000000000532 67.89115969674882 0.24118095490640434
  endloop
endfacet
facet normal 0.0 -0.991444861373775 -0.13052619222032122
  outer loop
    vertex 1.3535839116229907e-13 67.89115969674882 0.24118095490640434
    vertex 5.000000000000532 67.85708552303781 0.5000000000089384
    vertex 1.3535839116229907e-13 67.85708552303781 0.5000000000089384
  endloop
endfacet
facet normal 0.0 -0.9914448613736939 0.13052619222093645
  outer loop
    vertex 59.999999999999346 67.891159696749 0.7588190451116023
    vertex 55.00000000000048 67.85708552303781 0.5000000000089384
    vertex 59.999999999999346 67.85708552303781 0.5000000000089384
  endloop
endfacet
facet normal 0.0 -0.9914448613736939 0.13052619222093645
  outer loop
    vertex 55.00000000000048 67.85708552303781 0.5000000000089384
    vertex 59.999999999999346 67.891159696749 0.7588190451116023
    vertex 55.00000000000048 67.891159696749 0.7588190451116023
  endloop
endfacet
facet normal -0.0 0.9914448613738703 -0.13052619221959696
  outer loop
    vertex 1.3535839116229907e-13 69.8570855230379 0.5000000000091188
    vertex 5.000000000000532 69.82301134932707 0.24118095490649458
    vertex 1.3535839116229907e-13 69.82301134932707 0.24118095490649458
  endloop
endfacet
facet normal -0.0 0.9914448613738703 -0.13052619221959696
  outer loop
    vertex 5.000000000000532 69.82301134932707 0.24118095490649458
    vertex 1.3535839116229907e-13 69.8570855230379 0.5000000000091188
    vertex 5.000000000000532 69.8570855230379 0.5000000000091188
  endloop
endfacet
facet normal -0.0 0.9914448613735931 0.1305261922217027
  outer loop
    vertex 1.3535839116229907e-13 69.82301134932653 0.7588190451116079
    vertex 5.000000000000532 69.8570855230379 0.5000000000091188
    vertex 1.3535839116229907e-13 69.8570855230379 0.5000000000091188
  endloop
endfacet
facet normal -0.0 0.9914448613735931 0.1305261922217027
  outer loop
    vertex 5.000000000000532 69.8570855230379 0.5000000000091188
    vertex 1.3535839116229907e-13 69.82301134932653 0.7588190451116079
    vertex 5.000000000000532 69.82301134932653 0.7588190451116079
  endloop
endfacet
facet normal -1.0 0.0 0.0
  outer loop
    vertex 5.000000000000532 67.99106011925319 1.0000000000090898
    vertex 5.000000000000532 35.47858562638243 9.711964565894958e-12
    vertex 5.000000000000532 35.47858562638243 1.000000000009665
  endloop
endfacet
facet normal -1.0 0.0 0.0
  outer loop
    vertex 5.000000000000532 35.47858562638243 9.711964565894958e-12
    vertex 5.000000000000532 67.99106011925319 1.0000000000090898
    vertex 5.000000000000532 67.891159696749 0.7588190451116023
  endloop
endfacet
facet normal -1.0 0.0 0.0
  outer loop
    vertex 5.000000000000532 35.47858562638243 9.711964565894958e-12
    vertex 5.000000000000532 67.891159696749 0.7588190451116023
    vertex 5.000000000000532 67.85708552303781 0.5000000000089384
  endloop
endfacet
facet normal -1.0 0.0 0.0
  outer loop
    vertex 5.000000000000532 35.47858562638243 9.711964565894958e-12
    vertex 5.000000000000532 67.89115969674882 0.24118095490640434
    vertex 5.000000000000532 67.99106011925338 8.956213548572122e-12
  endloop
endfacet
facet normal -1.0 0.0 0.0
  outer loop
    vertex 5.000000000000532 67.89115969674882 0.24118095490640434
    vertex 5.000000000000532 35.47858562638243 9.711964565894958e-12
    vertex 5.000000000000532 67.85708552303781 0.5000000000089384
  endloop
endfacet
facet normal 1.0 -0.0 -0.0
  outer loop
    vertex 55.00000000000048 67.99106011925338 8.956213548572122e-12
    vertex 55.00000000000048 35.47858562638243 1.000000000009665
    vertex 55.00000000000048 35.47858562638243 9.711964565894958e-12
  endloop
endfacet
facet normal 1.0 -0.0 -0.0
  outer loop
    vertex 55.00000000000048 35.47858562638243 1.000000000009665
    vertex 55.00000000000048 67.99106011925338 8.956213548572122e-12
    vertex 55.00000000000048 67.89115969674882 0.24118095490640434
  endloop
endfacet
facet normal 1.0 -0.0 -0.0
  outer loop
    vertex 55.00000000000048 35.47858562638243 1.000000000009665
    vertex 55.00000000000048 67.89115969674882 0.24118095490640434
    vertex 55.00000000000048 67.85708552303781 0.5000000000089384
  endloop
endfacet
facet normal 1.0 -0.0 -0.0
  outer loop
    vertex 55.00000000000048 35.47858562638243 1.000000000009665
    vertex 55.00000000000048 67.891159696749 0.7588190451116023
    vertex 55.00000000000048 67.99106011925319 1.0000000000089544
  endloop
endfacet
facet normal 1.0 -0.0 -0.0
  outer loop
    vertex 55.00000000000048 67.891159696749 0.7588190451116023
    vertex 55.00000000000048 35.47858562638243 1.000000000009665
    vertex 55.00000000000048 67.85708552303781 0.5000000000089384
  endloop
endfacet
facet normal 0.8178123270257092 -0.5754850108949794 3.871626589831559e-16
  outer loop
    vertex 32.035746076467255 51.09028644392869 1.0196998800893197e-11
    vertex 30.603161297014886 49.05446366841707 0.20000000001001617
    vertex 30.603161297014886 49.05446366841707 1.0095480007521473e-11
  endloop
endfacet
facet normal 0.8178123270257092 -0.5754850108949794 3.871626589831559e-16
  outer loop
    vertex 30.603161297014886 49.05446366841707 0.20000000001001617
    vertex 32.035746076467255 51.09028644392869 1.0196998800893197e-11
    vertex 32.035746076467255 51.09028644392869 0.20000000001011203
  endloop
endfacet
facet normal -0.33901207481152507 0.94078202211351 -2.5268273396938576e-16
  outer loop
    vertex 29.833946565612887 41.62033194482762 0.20000000000988644
    vertex 33.05599678512273 42.781402101769 9.948841750428982e-12
    vertex 29.833946565612887 41.62033194482771 9.89808235374312e-12
  endloop
endfacet
facet normal -0.33901207481152507 0.94078202211351 -2.5268273396938576e-16
  outer loop
    vertex 33.05599678512273 42.781402101769 9.948841750428982e-12
    vertex 29.833946565612887 41.62033194482762 0.20000000000988644
    vertex 33.05599678512273 42.78140210176909 0.20000000000989207
  endloop
endfacet
facet normal -0.0 0.923879532511929 0.3826834323635394
  outer loop
    vertex 55.00000000000048 69.72311092682233 1.0000000000091913
    vertex 59.999999999999346 69.82301134932653 0.7588190451116079
    vertex 55.00000000000048 69.82301134932653 0.7588190451116079
  endloop
endfacet
facet normal -0.0 0.923879532511929 0.3826834323635394
  outer loop
    vertex 59.999999999999346 69.82301134932653 0.7588190451116079
    vertex 55.00000000000048 69.72311092682233 1.0000000000091913
    vertex 59.999999999999346 69.72311092682233 1.0000000000091913
  endloop
endfacet
facet normal -0.0 0.9238795325111134 -0.38268343236550817
  outer loop
    vertex 55.00000000000048 69.82301134932707 0.24118095490649458
    vertex 59.999999999999346 69.72311092682233 9.057732341943846e-12
    vertex 55.00000000000048 69.72311092682233 9.057732341943846e-12
  endloop
endfacet
facet normal -0.0 0.9238795325111134 -0.38268343236550817
  outer loop
    vertex 59.999999999999346 69.72311092682233 9.057732341943846e-12
    vertex 55.00000000000048 69.82301134932707 0.24118095490649458
    vertex 59.999999999999346 69.82301134932707 0.24118095490649458
  endloop
endfacet
facet normal 0.8714945052625609 -0.4904052684231321 -1.1013641419689172e-13
  outer loop
    vertex 13.653592540101073 58.52434146847243 1.0321077326125305e-11
    vertex 16.62920872511187 63.81228048948991 0.20000000001039966
    vertex 13.653592540101073 58.52434146847234 0.20000000001025303
  endloop
endfacet
facet normal 0.8714945052625609 -0.4904052684231321 -1.1013641419689172e-13
  outer loop
    vertex 16.62920872511187 63.81228048948991 0.20000000001039966
    vertex 13.653592540101073 58.52434146847243 1.0321077326125305e-11
    vertex 16.62920872511187 63.81228048948991 1.0422596119497029e-11
  endloop
endfacet
facet normal -1.0 0.0 0.0
  outer loop
    vertex 5.000000000000532 69.82301134932707 0.24118095490649458
    vertex 5.000000000000532 69.85708552303754 8.967493414502314e-12
    vertex 5.000000000000532 69.72311092682233 9.057732341943846e-12
  endloop
endfacet
facet normal -1.0 0.0 0.0
  outer loop
    vertex 5.000000000000532 69.85708552303754 8.967493414502314e-12
    vertex 5.000000000000532 69.82301134932707 0.24118095490649458
    vertex 5.000000000000532 69.8570855230379 0.5000000000091188
  endloop
endfacet
facet normal -0.0 0.9914448613735931 0.1305261922217027
  outer loop
    vertex 55.00000000000048 69.82301134932653 0.7588190451116079
    vertex 59.999999999999346 69.8570855230379 0.5000000000091188
    vertex 55.00000000000048 69.8570855230379 0.5000000000091188
  endloop
endfacet
facet normal -0.0 0.9914448613735931 0.1305261922217027
  outer loop
    vertex 59.999999999999346 69.8570855230379 0.5000000000091188
    vertex 55.00000000000048 69.82301134932653 0.7588190451116079
    vertex 59.999999999999346 69.82301134932653 0.7588190451116079
  endloop
endfacet
facet normal -0.9752418888633498 0.22114081081122489 6.770479997693857e-17
  outer loop
    vertex 20.328863903485484 56.393335176990156 0.20000000001018536
    vertex 19.645015210178595 53.3775286919237 1.0202638733858293e-11
    vertex 19.645015210178595 53.3775286919237 0.20000000001014587
  endloop
endfacet
facet normal -0.9752418888633498 0.22114081081122489 6.770479997693857e-17
  outer loop
    vertex 19.645015210178595 53.3775286919237 1.0202638733858293e-11
    vertex 20.328863903485484 56.393335176990156 0.20000000001018536
    vertex 20.328863903485484 56.393335176990156 1.0230838398683772e-11
  endloop
endfacet
facet normal 1.0 -0.0 -0.0
  outer loop
    vertex 59.999999999999346 67.89115969674882 0.24118095490640434
    vertex 59.999999999999346 67.891159696749 0.7588190451116023
    vertex 59.999999999999346 67.85708552303781 0.5000000000089384
  endloop
endfacet
facet normal 1.0 -0.0 -0.0
  outer loop
    vertex 59.999999999999346 67.891159696749 0.7588190451116023
    vertex 59.999999999999346 67.89115969674882 0.24118095490640434
    vertex 59.999999999999346 67.99106011925338 8.956213548572122e-12
  endloop
endfacet
facet normal 1.0 -0.0 -0.0
  outer loop
    vertex 59.999999999999346 67.891159696749 0.7588190451116023
    vertex 59.999999999999346 67.99106011925338 8.956213548572122e-12
    vertex 59.999999999999346 67.99106011925319 1.0000000000089544
  endloop
endfacet
facet normal 1.0 -0.0 -0.0
  outer loop
    vertex 59.999999999999346 67.99106011925319 1.0000000000089544
    vertex 59.999999999999346 67.99106011925338 8.956213548572122e-12
    vertex 59.999999999999346 69.72311092682233 1.0000000000091913
  endloop
endfacet
facet normal 1.0 -0.0 -0.0
  outer loop
    vertex 59.999999999999346 69.72311092682233 1.0000000000091913
    vertex 59.999999999999346 67.99106011925338 8.956213548572122e-12
    vertex 59.999999999999346 69.72311092682233 9.057732341943846e-12
  endloop
endfacet
facet normal 1.0 -0.0 -0.0
  outer loop
    vertex 59.999999999999346 69.72311092682233 1.0000000000091913
    vertex 59.999999999999346 69.72311092682233 9.057732341943846e-12
    vertex 59.999999999999346 69.82301134932707 0.24118095490649458
  endloop
endfacet
facet normal 1.0 -0.0 -0.0
  outer loop
    vertex 59.999999999999346 69.72311092682233 1.0000000000091913
    vertex 59.999999999999346 69.82301134932707 0.24118095490649458
    vertex 59.999999999999346 69.82301134932653 0.7588190451116079
  endloop
endfacet
facet normal 1.0 -0.0 -0.0
  outer loop
    vertex 59.999999999999346 69.82301134932653 0.7588190451116079
    vertex 59.999999999999346 69.82301134932707 0.24118095490649458
    vertex 59.999999999999346 69.8570855230379 0.5000000000091188
  endloop
endfacet
facet normal -1.0 0.0 0.0
  outer loop
    vertex 1.3535839116229907e-13 67.891159696749 0.7588190451116023
    vertex 1.3535839116229907e-13 67.89115969674882 0.24118095490640434
    vertex 1.3535839116229907e-13 67.85708552303781 0.5000000000089384
  endloop
endfacet
facet normal -1.0 0.0 0.0
  outer loop
    vertex 1.3535839116229907e-13 67.89115969674882 0.24118095490640434
    vertex 1.3535839116229907e-13 67.891159696749 0.7588190451116023
    vertex 1.3535839116229907e-13 67.99106011925338 8.956213548572122e-12
  endloop
endfacet
facet normal -1.0 0.0 0.0
  outer loop
    vertex 1.3535839116229907e-13 67.99106011925338 8.956213548572122e-12
    vertex 1.3535839116229907e-13 67.891159696749 0.7588190451116023
    vertex 1.3535839116229907e-13 67.99106011925319 1.0000000000090898
  endloop
endfacet
facet normal -1.0 0.0 0.0
  outer loop
    vertex 1.3535839116229907e-13 67.99106011925338 8.956213548572122e-12
    vertex 1.3535839116229907e-13 67.99106011925319 1.0000000000090898
    vertex 1.3535839116229907e-13 69.72311092682233 1.0000000000091913
  endloop
endfacet
facet normal -1.0 0.0 0.0
  outer loop
    vertex 1.3535839116229907e-13 67.99106011925338 8.956213548572122e-12
    vertex 1.3535839116229907e-13 69.72311092682233 1.0000000000091913
    vertex 1.3535839116229907e-13 69.72311092682233 9.057732341943846e-12
  endloop
endfacet
facet normal -1.0 0.0 0.0
  outer loop
    vertex 1.3535839116229907e-13 69.72311092682233 9.057732341943846e-12
    vertex 1.3535839116229907e-13 69.72311092682233 1.0000000000091913
    vertex 1.3535839116229907e-13 69.82301134932653 0.7588190451116079
  endloop
endfacet
facet normal -1.0 0.0 0.0
  outer loop
    vertex 1.3535839116229907e-13 69.72311092682233 9.057732341943846e-12
    vertex 1.3535839116229907e-13 69.82301134932653 0.7588190451116079
    vertex 1.3535839116229907e-13 69.82301134932707 0.24118095490649458
  endloop
endfacet
facet normal -1.0 0.0 0.0
  outer loop
    vertex 1.3535839116229907e-13 69.82301134932707 0.24118095490649458
    vertex 1.3535839116229907e-13 69.82301134932653 0.7588190451116079
    vertex 1.3535839116229907e-13 69.8570855230379 0.5000000000091188
  endloop
endfacet
facet normal -0.7751066905324446 0.6318303714541119 -6.350840122083133e-13
  outer loop
    vertex 28.988415819378815 67.97631267289015 0.20000000001042223
    vertex 30.521602914381543 69.85717125276422 1.0151879337172431e-11
    vertex 28.988415819378815 67.97631267289005 1.0490275315078179e-11
  endloop
endfacet
facet normal -0.7751066905324446 0.6318303714541119 -6.350840122083133e-13
  outer loop
    vertex 30.521602914381543 69.85717125276422 1.0151879337172431e-11
    vertex 28.988415819378815 67.97631267289015 0.20000000001042223
    vertex 30.52160291438136 69.8571712527643 0.2000000000104448
  endloop
endfacet
facet normal -0.10474962044261917 0.9944986259503465 2.2432735124534457e-13
  outer loop
    vertex 26.159525373342454 41.233308559180614 9.954481683394079e-12
    vertex 29.833946565612887 41.62033194482762 0.20000000000988644
    vertex 29.833946565612887 41.62033194482771 9.89808235374312e-12
  endloop
endfacet
facet normal -0.10474962044261917 0.9944986259503465 2.2432735124534457e-13
  outer loop
    vertex 29.833946565612887 41.62033194482762 0.20000000000988644
    vertex 26.159525373342454 41.233308559180614 9.954481683394079e-12
    vertex 26.159525373342454 41.233308559180614 0.20000000000989207
  endloop
endfacet
facet normal 0.0 -0.9238795325118752 0.38268343236366925
  outer loop
    vertex 5.000000000000532 67.99106011925319 1.0000000000090898
    vertex 1.3535839116229907e-13 67.891159696749 0.7588190451116023
    vertex 5.000000000000532 67.891159696749 0.7588190451116023
  endloop
endfacet
facet normal 0.0 -0.9238795325118752 0.38268343236366925
  outer loop
    vertex 1.3535839116229907e-13 67.891159696749 0.7588190451116023
    vertex 5.000000000000532 67.99106011925319 1.0000000000090898
    vertex 1.3535839116229907e-13 67.99106011925319 1.0000000000090898
  endloop
endfacet
facet normal -0.0 0.9914448613738703 -0.13052619221959696
  outer loop
    vertex 55.00000000000048 69.8570855230379 0.5000000000091188
    vertex 59.999999999999346 69.82301134932707 0.24118095490649458
    vertex 55.00000000000048 69.82301134932707 0.24118095490649458
  endloop
endfacet
facet normal -0.0 0.9914448613738703 -0.13052619221959696
  outer loop
    vertex 59.999999999999346 69.82301134932707 0.24118095490649458
    vertex 55.00000000000048 69.8570855230379 0.5000000000091188
    vertex 59.999999999999346 69.8570855230379 0.5000000000091188
  endloop
endfacet
facet normal 0.0 -0.9238795325113642 -0.3826834323649029
  outer loop
    vertex 5.000000000000532 67.89115969674882 0.24118095490640434
    vertex 1.3535839116229907e-13 67.99106011925338 8.956213548572122e-12
    vertex 5.000000000000532 67.99106011925338 8.956213548572122e-12
  endloop
endfacet
facet normal 0.0 -0.9238795325113642 -0.3826834323649029
  outer loop
    vertex 1.3535839116229907e-13 67.99106011925338 8.956213548572122e-12
    vertex 5.000000000000532 67.89115969674882 0.24118095490640434
    vertex 1.3535839116229907e-13 67.89115969674882 0.24118095490640434
  endloop
endfacet
facet normal 0.0 -0.991444861373775 -0.13052619222032122
  outer loop
    vertex 59.999999999999346 67.85708552303781 0.5000000000089384
    vertex 55.00000000000048 67.89115969674882 0.24118095490640434
    vertex 59.999999999999346 67.89115969674882 0.24118095490640434
  endloop
endfacet
facet normal 0.0 -0.991444861373775 -0.13052619222032122
  outer loop
    vertex 55.00000000000048 67.89115969674882 0.24118095490640434
    vertex 59.999999999999346 67.85708552303781 0.5000000000089384
    vertex 55.00000000000048 67.85708552303781 0.5000000000089384
  endloop
endfacet
facet normal -0.15597916926041897 -0.9877603447986915 1.9311456656323659e-16
  outer loop
    vertex 25.99876417312091 47.34530212942384 1.0016520946010131e-11
    vertex 23.420142249724446 47.752497364144524 0.20000000000993157
    vertex 23.420142249724446 47.752497364144524 9.993961214149748e-12
  endloop
endfacet
facet normal -0.15597916926041897 -0.9877603447986915 1.9311456656323659e-16
  outer loop
    vertex 23.420142249724446 47.752497364144524 0.20000000000993157
    vertex 25.99876417312091 47.34530212942384 1.0016520946010131e-11
    vertex 25.99876417312091 47.34530212942384 0.20000000000997104
  endloop
endfacet
facet normal 0.0 -1.0 0.0
  outer loop
    vertex 55.00000000000048 35.47858562638243 1.000000000009665
    vertex 5.000000000000532 35.47858562638243 9.711964565894958e-12
    vertex 55.00000000000048 35.47858562638243 9.711964565894958e-12
  endloop
endfacet
facet normal 0.0 -1.0 0.0
  outer loop
    vertex 5.000000000000532 35.47858562638243 9.711964565894958e-12
    vertex 55.00000000000048 35.47858562638243 1.000000000009665
    vertex 5.000000000000532 35.47858562638243 1.000000000009665
  endloop
endfacet
facet normal 0.31490098809204403 0.9491245269713845 2.1389606824114226e-13
  outer loop
    vertex 19.363683109791435 42.660831201603294 0.2000000000098695
    vertex 22.590642068239728 41.59018921978626 9.943201817463886e-12
    vertex 19.363683109791435 42.660831201603294 9.9262820185686e-12
  endloop
endfacet
facet normal 0.31490098809204403 0.9491245269713845 2.1389606824114226e-13
  outer loop
    vertex 22.590642068239728 41.59018921978626 9.943201817463886e-12
    vertex 19.363683109791435 42.660831201603294 0.2000000000098695
    vertex 22.590642068239728 41.59018921978617 0.20000000000989207
  endloop
endfacet
facet normal -0.9922097148632323 0.12457881734477695 1.704627545234454e-17
  outer loop
    vertex 39.51006810011218 53.578173396016524 0.20000000001019663
    vertex 39.07779227737965 50.135306623339645 1.0095480007521473e-11
    vertex 39.07779227737965 50.135306623339645 0.20000000001007257
  endloop
endfacet
facet normal -0.9922097148632323 0.12457881734477695 1.704627545234454e-17
  outer loop
    vertex 39.07779227737965 50.135306623339645 1.0095480007521473e-11
    vertex 39.51006810011218 53.578173396016524 0.20000000001019663
    vertex 39.51006810011218 53.578173396016524 1.0253398130544155e-11
  endloop
endfacet
facet normal -0.9063322812304472 -0.4225657297978785 2.0159252188998037e-17
  outer loop
    vertex 37.51957446073134 60.55502540790811 0.2000000000102925
    vertex 39.012444690266975 57.35307033842524 1.028723772833473e-11
    vertex 39.012444690266975 57.35307033842524 0.20000000001026996
  endloop
endfacet
facet normal -0.9063322812304472 -0.4225657297978785 2.0159252188998037e-17
  outer loop
    vertex 39.012444690266975 57.35307033842524 1.028723772833473e-11
    vertex 37.51957446073134 60.55502540790811 0.2000000000102925
    vertex 37.51957446073134 60.55502540790811 1.0354916923915879e-11
  endloop
endfacet
facet normal -0.7698398595208008 -0.6382370959862751 -3.2305549870481793e-16
  outer loop
    vertex 35.227500172844046 63.319719216674656 0.200000000010332
    vertex 37.51957446073134 60.55502540790811 1.0354916923915879e-11
    vertex 37.51957446073134 60.55502540790811 0.2000000000102925
  endloop
endfacet
facet normal -0.7698398595208008 -0.6382370959862751 -3.2305549870481793e-16
  outer loop
    vertex 37.51957446073134 60.55502540790811 1.0354916923915879e-11
    vertex 35.227500172844046 63.319719216674656 0.200000000010332
    vertex 35.227500172844046 63.319719216674656 1.0400036387636646e-11
  endloop
endfacet
facet normal -0.9849022205908334 -0.17311157059897916 2.56659253011756e-17
  outer loop
    vertex 19.645015210178595 53.3775286919237 0.20000000001014587
    vertex 20.082353169940184 50.88933494365212 1.0151879337172431e-11
    vertex 20.082353169940184 50.88933494365212 0.20000000001012896
  endloop
endfacet
facet normal -0.9849022205908334 -0.17311157059897916 2.56659253011756e-17
  outer loop
    vertex 20.082353169940184 50.88933494365212 1.0151879337172431e-11
    vertex 19.645015210178595 53.3775286919237 0.20000000001014587
    vertex 19.645015210178595 53.3775286919237 1.0202638733858293e-11
  endloop
endfacet
facet normal -0.9184319704466378 0.3955789626124047 1.0882791166031957e-17
  outer loop
    vertex 39.07779227737965 50.135306623339645 0.20000000001007257
    vertex 37.78096480918278 47.12440887721154 1.0016520946010131e-11
    vertex 37.78096480918278 47.12440887721154 0.2000000000100105
  endloop
endfacet
facet normal -0.9184319704466378 0.3955789626124047 1.0882791166031957e-17
  outer loop
    vertex 37.78096480918278 47.12440887721154 1.0016520946010131e-11
    vertex 39.07779227737965 50.135306623339645 0.20000000001007257
    vertex 39.07779227737965 50.135306623339645 1.0095480007521473e-11
  endloop
endfacet
facet normal 0.5199064845768305 -0.8542231835386827 1.0157597650242493e-16
  outer loop
    vertex 30.603161297014886 49.05446366841707 1.0095480007521473e-11
    vertex 28.497005496406427 47.77259251417222 0.2000000000099372
    vertex 28.497005496406427 47.77259251417222 9.971401482289365e-12
  endloop
endfacet
facet normal 0.5199064845768305 -0.8542231835386827 1.0157597650242493e-16
  outer loop
    vertex 28.497005496406427 47.77259251417222 0.2000000000099372
    vertex 30.603161297014886 49.05446366841707 1.0095480007521473e-11
    vertex 30.603161297014886 49.05446366841707 0.20000000001001617
  endloop
endfacet
facet normal 0.16858835045280424 -0.9856865465712732 2.876150890749118e-17
  outer loop
    vertex 28.497005496406427 47.77259251417222 0.2000000000099372
    vertex 25.99876417312091 47.34530212942384 1.0016520946010131e-11
    vertex 28.497005496406427 47.77259251417222 9.971401482289365e-12
  endloop
endfacet
facet normal 0.16858835045280424 -0.9856865465712732 2.876150890749118e-17
  outer loop
    vertex 25.99876417312091 47.34530212942384 1.0016520946010131e-11
    vertex 28.497005496406427 47.77259251417222 0.2000000000099372
    vertex 25.99876417312091 47.34530212942384 0.20000000000997104
  endloop
endfacet
facet normal 0.9811679113572475 -0.19315674909993955 -4.3611096810743214e-14
  outer loop
    vertex 13.653592540101073 58.52434146847243 1.0321077326125305e-11
    vertex 12.648221446351096 53.41741219579534 0.2000000000101628
    vertex 12.648221446351096 53.41741219579534 1.0213918599788484e-11
  endloop
endfacet
facet normal 0.9811679113572475 -0.19315674909993955 -4.3611096810743214e-14
  outer loop
    vertex 12.648221446351096 53.41741219579534 0.2000000000101628
    vertex 13.653592540101073 58.52434146847243 1.0321077326125305e-11
    vertex 13.653592540101073 58.52434146847234 0.20000000001025303
  endloop
endfacet
facet normal -0.9914227961198822 -0.13069368513373078 -3.0054254531904225e-17
  outer loop
    vertex 39.012444690266975 57.35307033842524 0.20000000001026996
    vertex 39.51006810011218 53.578173396016524 1.0253398130544155e-11
    vertex 39.51006810011218 53.578173396016524 0.20000000001019663
  endloop
endfacet
facet normal -0.9914227961198822 -0.13069368513373078 -3.0054254531904225e-17
  outer loop
    vertex 39.51006810011218 53.578173396016524 1.0253398130544155e-11
    vertex 39.012444690266975 57.35307033842524 0.20000000001026996
    vertex 39.012444690266975 57.35307033842524 1.028723772833473e-11
  endloop
endfacet
facet normal 2.972083047392731e-15 2.313697988447261e-14 -1.0
  outer loop
    vertex 20.328863903485484 56.393335176990156 1.0230838398683772e-11
    vertex 20.082353169940184 50.88933494365212 1.0151879337172431e-11
    vertex 19.645015210178595 53.3775286919237 1.0202638733858293e-11
  endloop
endfacet
facet normal 2.972083047392731e-15 2.313697988447261e-14 -1.0
  outer loop
    vertex 20.082353169940184 50.88933494365212 1.0151879337172431e-11
    vertex 20.328863903485484 56.393335176990156 1.0230838398683772e-11
    vertex 21.394367049227117 48.97408306830648 1.0027800811940323e-11
  endloop
endfacet
facet normal 2.972083047392731e-15 2.313697988447261e-14 -1.0
  outer loop
    vertex 21.394367049227117 48.97408306830648 1.0027800811940323e-11
    vertex 20.328863903485484 56.393335176990156 1.0230838398683772e-11
    vertex 22.70162558766748 60.112932107299685 1.0354916923915879e-11
  endloop
endfacet
facet normal 2.972083047392731e-15 2.313697988447261e-14 -1.0
  outer loop
    vertex 21.394367049227117 48.97408306830648 1.0027800811940323e-11
    vertex 22.70162558766748 60.112932107299685 1.0354916923915879e-11
    vertex 23.420142249724446 47.752497364144524 9.993961214149748e-12
  endloop
endfacet
facet normal 2.972083047392731e-15 2.313697988447261e-14 -1.0
  outer loop
    vertex 23.420142249724446 47.752497364144524 9.993961214149748e-12
    vertex 22.70162558766748 60.112932107299685 1.0354916923915879e-11
    vertex 25.152578648065674 63.1976621666329 1.0321077326125305e-11
  endloop
endfacet
facet normal 2.972083047392731e-15 2.313697988447261e-14 -1.0
  outer loop
    vertex 23.420142249724446 47.752497364144524 9.993961214149748e-12
    vertex 25.152578648065674 63.1976621666329 1.0321077326125305e-11
    vertex 25.99876417312091 47.34530212942384 1.0016520946010131e-11
  endloop
endfacet
facet normal 2.972083047392731e-15 2.313697988447261e-14 -1.0
  outer loop
    vertex 25.99876417312091 47.34530212942384 1.0016520946010131e-11
    vertex 25.152578648065674 63.1976621666329 1.0321077326125305e-11
    vertex 26.863622614769184 62.16355779867136 1.0360556856880975e-11
  endloop
endfacet
facet normal 2.972083047392731e-15 2.313697988447261e-14 -1.0
  outer loop
    vertex 25.99876417312091 47.34530212942384 1.0016520946010131e-11
    vertex 26.863622614769184 62.16355779867136 1.0360556856880975e-11
    vertex 28.497005496406427 47.77259251417222 9.971401482289365e-12
  endloop
endfacet
facet normal 2.972083047392731e-15 2.313697988447261e-14 -1.0
  outer loop
    vertex 28.497005496406427 47.77259251417222 9.971401482289365e-12
    vertex 26.863622614769184 62.16355779867136 1.0360556856880975e-11
    vertex 30.965180793695843 58.46390262029757 1.0315437393160209e-11
  endloop
endfacet
facet normal 2.972083047392731e-15 2.313697988447261e-14 -1.0
  outer loop
    vertex 28.497005496406427 47.77259251417222 9.971401482289365e-12
    vertex 30.965180793695843 58.46390262029757 1.0315437393160209e-11
    vertex 30.603161297014886 49.05446366841707 1.0095480007521473e-11
  endloop
endfacet
facet normal 2.972083047392731e-15 2.313697988447261e-14 -1.0
  outer loop
    vertex 30.603161297014886 49.05446366841707 1.0095480007521473e-11
    vertex 30.965180793695843 58.46390262029757 1.0315437393160209e-11
    vertex 32.035746076467255 51.09028644392869 1.0196998800893197e-11
  endloop
endfacet
facet normal 2.972083047392731e-15 2.313697988447261e-14 -1.0
  outer loop
    vertex 32.035746076467255 51.09028644392869 1.0196998800893197e-11
    vertex 30.965180793695843 58.46390262029757 1.0315437393160209e-11
    vertex 32.12625095063758 56.27744291862459 1.0253398130544155e-11
  endloop
endfacet
facet normal 2.972083047392731e-15 2.313697988447261e-14 -1.0
  outer loop
    vertex 32.035746076467255 51.09028644392869 1.0196998800893197e-11
    vertex 32.12625095063758 56.27744291862459 1.0253398130544155e-11
    vertex 32.513274336284596 53.77943169247693 1.0242118264613963e-11
  endloop
endfacet
facet normal -0.5702428710653806 0.821476151813984 -1.8531150593924349e-13
  outer loop
    vertex 33.05599678512273 42.78140210176909 0.20000000000989207
    vertex 35.73517115770319 44.641200566924034 9.954481683394079e-12
    vertex 33.05599678512273 42.781402101769 9.948841750428982e-12
  endloop
endfacet
facet normal -0.5702428710653806 0.821476151813984 -1.8531150593924349e-13
  outer loop
    vertex 35.73517115770319 44.641200566924034 9.954481683394079e-12
    vertex 33.05599678512273 42.78140210176909 0.20000000000989207
    vertex 35.73517115770319 44.641200566924034 0.20000000000988644
  endloop
endfacet
facet normal 0.9845966879402313 -0.17484096229753263 3.9163586118708545e-18
  outer loop
    vertex 32.513274336284596 53.77943169247693 1.0242118264613963e-11
    vertex 32.035746076467255 51.09028644392869 0.20000000001011203
    vertex 32.035746076467255 51.09028644392869 1.0196998800893197e-11
  endloop
endfacet
facet normal 0.9845966879402313 -0.17484096229753263 3.9163586118708545e-18
  outer loop
    vertex 32.035746076467255 51.09028644392869 0.20000000001011203
    vertex 32.513274336284596 53.77943169247693 1.0242118264613963e-11
    vertex 32.513274336284596 53.77943169247693 0.20000000001018536
  endloop
endfacet
facet normal -0.5163969409865123 -0.8563493442163499 3.2020169931712257e-17
  outer loop
    vertex 23.420142249724446 47.752497364144524 0.20000000000993157
    vertex 21.394367049227117 48.97408306830648 1.0027800811940323e-11
    vertex 23.420142249724446 47.752497364144524 9.993961214149748e-12
  endloop
endfacet
facet normal -0.5163969409865123 -0.8563493442163499 3.2020169931712257e-17
  outer loop
    vertex 21.394367049227117 48.97408306830648 1.0027800811940323e-11
    vertex 23.420142249724446 47.752497364144524 0.20000000000993157
    vertex 21.394367049227117 48.97408306830648 0.2000000000100218
  endloop
endfacet
facet normal -0.5484955499142292 -0.8361534737859356 1.8844546778451415e-13
  outer loop
    vertex 32.33226458794393 65.78283237693466 0.2000000000103771
    vertex 28.988415819378815 67.97631267289005 1.0490275315078179e-11
    vertex 32.33226458794393 65.78283237693466 1.0411316253566837e-11
  endloop
endfacet
facet normal -0.5484955499142292 -0.8361534737859356 1.8844546778451415e-13
  outer loop
    vertex 28.988415819378815 67.97631267289005 1.0490275315078179e-11
    vertex 32.33226458794393 65.78283237693466 0.2000000000103771
    vertex 28.988415819378815 67.97631267289015 0.20000000001042223
  endloop
endfacet
facet normal 0.9919296537783653 0.12678943944640111 -1.6994098553966924e-16
  outer loop
    vertex 12.648221446351096 53.41741219579534 1.0213918599788484e-11
    vertex 13.105654556140559 49.838711412816984 0.20000000001003307
    vertex 13.105654556140559 49.838711412816984 1.0084200141591281e-11
  endloop
endfacet
facet normal 0.9919296537783653 0.12678943944640111 -1.6994098553966924e-16
  outer loop
    vertex 13.105654556140559 49.838711412816984 0.20000000001003307
    vertex 12.648221446351096 53.41741219579534 1.0213918599788484e-11
    vertex 12.648221446351096 53.41741219579534 0.2000000000101628
  endloop
endfacet
facet normal 2.0751659147668917e-07 0.999999998371663 5.70668994801354e-05
  outer loop
    vertex 5.000000000000532 69.8570855230379 0.5000000000091188
    vertex 14.48152579798915 69.85717125276422 1.0151879337172431e-11
    vertex 5.000000000000532 69.85708552303754 8.967493414502314e-12
  endloop
endfacet
facet normal 2.0751659147668917e-07 0.999999998371663 5.70668994801354e-05
  outer loop
    vertex 14.48152579798915 69.85717125276422 1.0151879337172431e-11
    vertex 5.000000000000532 69.8570855230379 0.5000000000091188
    vertex 14.48152579798951 69.8571712527643 0.2000000000104448
  endloop
endfacet
facet normal 2.0751659147668917e-07 0.999999998371663 5.70668994801354e-05
  outer loop
    vertex 14.48152579798951 69.8571712527643 0.2000000000104448
    vertex 5.000000000000532 69.8570855230379 0.5000000000091188
    vertex 30.52160291438136 69.8571712527643 0.2000000000104448
  endloop
endfacet
facet normal 2.0751659147668917e-07 0.999999998371663 5.70668994801354e-05
  outer loop
    vertex 30.521602914381543 69.85717125276422 1.0151879337172431e-11
    vertex 55.00000000000048 69.8570855230379 0.5000000000091188
    vertex 55.00000000000048 69.85708552303754 8.967493414502314e-12
  endloop
endfacet
facet normal 2.0751659147668917e-07 0.999999998371663 5.70668994801354e-05
  outer loop
    vertex 55.00000000000048 69.8570855230379 0.5000000000091188
    vertex 30.521602914381543 69.85717125276422 1.0151879337172431e-11
    vertex 30.52160291438136 69.8571712527643 0.2000000000104448
  endloop
endfacet
facet normal 2.0751659147668917e-07 0.999999998371663 5.70668994801354e-05
  outer loop
    vertex 55.00000000000048 69.8570855230379 0.5000000000091188
    vertex 30.52160291438136 69.8571712527643 0.2000000000104448
    vertex 5.000000000000532 69.8570855230379 0.5000000000091188
  endloop
endfacet
facet normal 2.0751659147668917e-07 0.999999998371663 5.70668994801354e-05
  outer loop
    vertex 55.00000000000048 69.8570855230379 0.5000000000091188
    vertex 5.000000000000532 69.8570855230379 0.5000000000091188
    vertex 11.402015348451469 69.85708552303763 0.8000000000090224
  endloop
endfacet
facet normal 2.0751659147668917e-07 0.999999998371663 5.70668994801354e-05
  outer loop
    vertex 11.402015348451469 69.85708552303763 0.8000000000090224
    vertex 5.000000000000532 69.8570855230379 0.5000000000091188
    vertex 5.000000000000532 69.85708552303754 1.0000000000090559
  endloop
endfacet
facet normal 2.0751659147668917e-07 0.999999998371663 5.70668994801354e-05
  outer loop
    vertex 11.402015348451469 69.85708552303763 0.8000000000090224
    vertex 5.000000000000532 69.85708552303754 1.0000000000090559
    vertex 11.402015348451469 69.85708552303754 1.0000000000090163
  endloop
endfacet
facet normal 2.0751659147668917e-07 0.999999998371663 5.70668994801354e-05
  outer loop
    vertex 55.00000000000048 69.8570855230379 0.5000000000091188
    vertex 48.59798465154802 69.85708552303763 0.8000000000090224
    vertex 55.00000000000048 69.85708552303754 1.0000000000090559
  endloop
endfacet
facet normal 2.0751659147668917e-07 0.999999998371663 5.70668994801354e-05
  outer loop
    vertex 48.59798465154802 69.85708552303763 0.8000000000090224
    vertex 55.00000000000048 69.8570855230379 0.5000000000091188
    vertex 11.402015348451469 69.85708552303763 0.8000000000090224
  endloop
endfacet
facet normal 2.0751659147668917e-07 0.999999998371663 5.70668994801354e-05
  outer loop
    vertex 55.00000000000048 69.85708552303754 1.0000000000090559
    vertex 48.59798465154802 69.85708552303763 0.8000000000090224
    vertex 48.59798465154802 69.85708552303754 1.0000000000090163
  endloop
endfacet
facet normal 0.883197136517834 0.4690019382120917 2.0228751800977368e-16
  outer loop
    vertex 30.965180793695843 58.46390262029757 1.0315437393160209e-11
    vertex 32.12625095063758 56.27744291862459 0.2000000000102079
    vertex 32.12625095063758 56.27744291862459 1.0253398130544155e-11
  endloop
endfacet
facet normal 0.883197136517834 0.4690019382120917 2.0228751800977368e-16
  outer loop
    vertex 32.12625095063758 56.27744291862459 0.2000000000102079
    vertex 30.965180793695843 58.46390262029757 1.0315437393160209e-11
    vertex 30.965180793695843 58.46390262029757 0.20000000001028687
  endloop
endfacet
facet normal 0.09950160175366853 0.9950374019344472 2.243781441532524e-13
  outer loop
    vertex 22.590642068239728 41.59018921978617 0.20000000000989207
    vertex 26.159525373342454 41.233308559180614 9.954481683394079e-12
    vertex 22.590642068239728 41.59018921978626 9.943201817463886e-12
  endloop
endfacet
facet normal 0.09950160175366853 0.9950374019344472 2.243781441532524e-13
  outer loop
    vertex 26.159525373342454 41.233308559180614 9.954481683394079e-12
    vertex 22.590642068239728 41.59018921978617 0.20000000000989207
    vertex 26.159525373342454 41.233308559180614 0.20000000000989207
  endloop
endfacet
facet normal 0.7480124370626319 0.6636847097829075 2.938668806995036e-16
  outer loop
    vertex 14.47795388551039 46.82282822870491 9.982681348219558e-12
    vertex 16.61425241116012 44.41509177958999 0.20000000000994847
    vertex 16.61425241116012 44.41509177958999 9.943201817463886e-12
  endloop
endfacet
facet normal 0.7480124370626319 0.6636847097829075 2.938668806995036e-16
  outer loop
    vertex 16.61425241116012 44.41509177958999 0.20000000000994847
    vertex 14.47795388551039 46.82282822870491 9.982681348219558e-12
    vertex 14.47795388551039 46.82282822870491 0.20000000000995977
  endloop
endfacet
facet normal 0.8406571357887298 0.5415677058757188 -0.0
  outer loop
    vertex 31.628474142698607 60.09259782945389 0.8000000000090224
    vertex 37.017042311947236 51.72810667901143 1.000000000008977
    vertex 37.017042311947236 51.72810667901143 0.8000000000090224
  endloop
endfacet
facet normal 0.8406571357887298 0.5415677058757188 -0.0
  outer loop
    vertex 37.017042311947236 51.72810667901143 1.000000000008977
    vertex 31.628474142698607 60.09259782945389 0.8000000000090224
    vertex 31.628474142698607 60.09259782945389 1.000000000008977
  endloop
endfacet
facet normal -0.8249902788269301 -0.565146918810555 2.141095450852875e-16
  outer loop
    vertex 20.082353169940184 50.88933494365212 0.20000000001012896
    vertex 21.394367049227117 48.97408306830648 1.0027800811940323e-11
    vertex 21.394367049227117 48.97408306830648 0.2000000000100218
  endloop
endfacet
facet normal -0.8249902788269301 -0.565146918810555 2.141095450852875e-16
  outer loop
    vertex 21.394367049227117 48.97408306830648 1.0027800811940323e-11
    vertex 20.082353169940184 50.88933494365212 0.20000000001012896
    vertex 20.082353169940184 50.88933494365212 1.0151879337172431e-11
  endloop
endfacet
facet normal 1.0 -0.0 -0.0
  outer loop
    vertex 11.402015348451469 69.85708552303763 0.8000000000090224
    vertex 11.402015348451469 66.32546909604685 1.000000000008977
    vertex 11.402015348451469 66.32546909604685 0.8000000000090224
  endloop
endfacet
facet normal 1.0 -0.0 -0.0
  outer loop
    vertex 11.402015348451469 66.32546909604685 1.000000000008977
    vertex 11.402015348451469 69.85708552303763 0.8000000000090224
    vertex 11.402015348451469 69.85708552303754 1.0000000000090163
  endloop
endfacet
facet normal 0.6697897884053705 0.7425507655021905 -2.6486835833628353e-16
  outer loop
    vertex 26.863622614769184 62.16355779867136 1.0360556856880975e-11
    vertex 30.965180793695843 58.46390262029757 0.20000000001028687
    vertex 30.965180793695843 58.46390262029757 1.0315437393160209e-11
  endloop
endfacet
facet normal 0.6697897884053705 0.7425507655021905 -2.6486835833628353e-16
  outer loop
    vertex 30.965180793695843 58.46390262029757 0.20000000001028687
    vertex 26.863622614769184 62.16355779867136 1.0360556856880975e-11
    vertex 26.863622614769184 62.16355779867136 0.2000000000102756
  endloop
endfacet
facet normal -0.958947675928281 0.2835830651356827 0.0
  outer loop
    vertex 29.97975145187997 65.80268839914416 1.000000000008977
    vertex 28.291145257190962 60.09259782945389 0.8000000000090224
    vertex 28.291145257190962 60.09259782945389 1.000000000008977
  endloop
endfacet
facet normal -0.958947675928281 0.2835830651356827 0.0
  outer loop
    vertex 28.291145257190962 60.09259782945389 0.8000000000090224
    vertex 29.97975145187997 65.80268839914416 1.000000000008977
    vertex 29.97975145187997 65.80268839914416 0.8000000000090224
  endloop
endfacet
facet normal 0.5378839935622439 0.843018866615411 2.1500994058224554e-16
  outer loop
    vertex 16.61425241116012 44.41509177958999 9.943201817463886e-12
    vertex 19.363683109791435 42.660831201603294 0.2000000000098695
    vertex 19.363683109791435 42.660831201603294 9.9262820185686e-12
  endloop
endfacet
facet normal 0.5378839935622439 0.843018866615411 2.1500994058224554e-16
  outer loop
    vertex 19.363683109791435 42.660831201603294 0.2000000000098695
    vertex 16.61425241116012 44.41509177958999 9.943201817463886e-12
    vertex 16.61425241116012 44.41509177958999 0.20000000000994847
  endloop
endfacet
facet normal -0.8430711380049755 0.537802060486008 -1.2083848849777377e-13
  outer loop
    vertex 22.70162558766748 60.11293210729977 0.20000000001028687
    vertex 20.328863903485484 56.393335176990156 1.0230838398683772e-11
    vertex 20.328863903485484 56.393335176990156 0.20000000001018536
  endloop
endfacet
facet normal -0.8430711380049755 0.537802060486008 -1.2083848849777377e-13
  outer loop
    vertex 20.328863903485484 56.393335176990156 1.0230838398683772e-11
    vertex 22.70162558766748 60.11293210729977 0.20000000001028687
    vertex 22.70162558766748 60.112932107299685 1.0354916923915879e-11
  endloop
endfacet
facet normal -0.6479786954540264 -0.7616584603598243 -3.29239723939791e-16
  outer loop
    vertex 35.227500172844046 63.319719216674656 0.200000000010332
    vertex 32.33226458794393 65.78283237693466 1.0411316253566837e-11
    vertex 35.227500172844046 63.319719216674656 1.0400036387636646e-11
  endloop
endfacet
facet normal -0.6479786954540264 -0.7616584603598243 -3.29239723939791e-16
  outer loop
    vertex 32.33226458794393 65.78283237693466 1.0411316253566837e-11
    vertex 35.227500172844046 63.319719216674656 0.200000000010332
    vertex 32.33226458794393 65.78283237693466 0.2000000000103771
  endloop
endfacet
facet normal 0.2135320045840098 0.9769360690538222 -0.0
  outer loop
    vertex 33.598719233960416 67.65266938642293 1.000000000008977
    vertex 39.670829300332194 66.32546909604685 0.8000000000090224
    vertex 33.598719233960416 67.65266938642293 0.8000000000090224
  endloop
endfacet
facet normal 0.2135320045840098 0.9769360690538222 -0.0
  outer loop
    vertex 39.670829300332194 66.32546909604685 0.8000000000090224
    vertex 33.598719233960416 67.65266938642293 1.000000000008977
    vertex 39.670829300332194 66.32546909604685 1.000000000008977
  endloop
endfacet
facet normal -3.0165733514726757e-15 -1.3925663983749614e-14 -1.0
  outer loop
    vertex 5.000000000000532 69.72311092682233 9.057732341943846e-12
    vertex 1.3535839116229907e-13 67.99106011925338 8.956213548572122e-12
    vertex 1.3535839116229907e-13 69.72311092682233 9.057732341943846e-12
  endloop
endfacet
facet normal -3.0165733514726757e-15 -1.3925663983749614e-14 -1.0
  outer loop
    vertex 1.3535839116229907e-13 67.99106011925338 8.956213548572122e-12
    vertex 5.000000000000532 69.72311092682233 9.057732341943846e-12
    vertex 5.000000000000532 67.99106011925338 8.956213548572122e-12
  endloop
endfacet
facet normal -3.0165733514726757e-15 -1.3925663983749614e-14 -1.0
  outer loop
    vertex 14.48152579798915 69.85717125276422 1.0151879337172431e-11
    vertex 5.000000000000532 69.72311092682233 9.057732341943846e-12
    vertex 5.000000000000532 69.85708552303754 8.967493414502314e-12
  endloop
endfacet
facet normal -3.0165733514726757e-15 -1.3925663983749614e-14 -1.0
  outer loop
    vertex 5.000000000000532 69.72311092682233 9.057732341943846e-12
    vertex 14.48152579798915 69.85717125276422 1.0151879337172431e-11
    vertex 5.000000000000532 67.99106011925338 8.956213548572122e-12
  endloop
endfacet
facet normal -3.0165733514726757e-15 -1.3925663983749614e-14 -1.0
  outer loop
    vertex 5.000000000000532 67.99106011925338 8.956213548572122e-12
    vertex 14.48152579798915 69.85717125276422 1.0151879337172431e-11
    vertex 5.000000000000532 35.47858562638243 9.711964565894958e-12
  endloop
endfacet
facet normal -3.0165733514726757e-15 -1.3925663983749614e-14 -1.0
  outer loop
    vertex 5.000000000000532 35.47858562638243 9.711964565894958e-12
    vertex 14.48152579798915 69.85717125276422 1.0151879337172431e-11
    vertex 12.648221446351096 53.41741219579534 1.0213918599788484e-11
  endloop
endfacet
facet normal -3.0165733514726757e-15 -1.3925663983749614e-14 -1.0
  outer loop
    vertex 12.648221446351096 53.41741219579534 1.0213918599788484e-11
    vertex 14.48152579798915 69.85717125276422 1.0151879337172431e-11
    vertex 13.653592540101073 58.52434146847243 1.0321077326125305e-11
  endloop
endfacet
facet normal -3.0165733514726757e-15 -1.3925663983749614e-14 -1.0
  outer loop
    vertex 13.653592540101073 58.52434146847243 1.0321077326125305e-11
    vertex 14.48152579798915 69.85717125276422 1.0151879337172431e-11
    vertex 16.62920872511187 63.81228048948991 1.0422596119497029e-11
  endloop
endfacet
facet normal -3.0165733514726757e-15 -1.3925663983749614e-14 -1.0
  outer loop
    vertex 16.62920872511187 63.81228048948991 1.0422596119497029e-11
    vertex 14.48152579798915 69.85717125276422 1.0151879337172431e-11
    vertex 15.98616392422732 68.67806796183523 1.0495915248043274e-11
  endloop
endfacet
facet normal -3.0165733514726757e-15 -1.3925663983749614e-14 -1.0
  outer loop
    vertex 16.62920872511187 63.81228048948991 1.0422596119497029e-11
    vertex 15.98616392422732 68.67806796183523 1.0495915248043274e-11
    vertex 18.982253471438224 66.90040863590767 1.0484635382113083e-11
  endloop
endfacet
facet normal -3.0165733514726757e-15 -1.3925663983749614e-14 -1.0
  outer loop
    vertex 30.521602914381543 69.85717125276422 1.0151879337172431e-11
    vertex 32.33226458794393 65.78283237693466 1.0411316253566837e-11
    vertex 28.988415819378815 67.97631267289005 1.0490275315078179e-11
  endloop
endfacet
facet normal -3.0165733514726757e-15 -1.3925663983749614e-14 -1.0
  outer loop
    vertex 32.33226458794393 65.78283237693466 1.0411316253566837e-11
    vertex 30.521602914381543 69.85717125276422 1.0151879337172431e-11
    vertex 55.00000000000048 69.85708552303754 8.967493414502314e-12
  endloop
endfacet
facet normal -3.0165733514726757e-15 -1.3925663983749614e-14 -1.0
  outer loop
    vertex 32.33226458794393 65.78283237693466 1.0411316253566837e-11
    vertex 55.00000000000048 69.85708552303754 8.967493414502314e-12
    vertex 35.227500172844046 63.319719216674656 1.0400036387636646e-11
  endloop
endfacet
facet normal -3.0165733514726757e-15 -1.3925663983749614e-14 -1.0
  outer loop
    vertex 35.227500172844046 63.319719216674656 1.0400036387636646e-11
    vertex 55.00000000000048 69.85708552303754 8.967493414502314e-12
    vertex 37.51957446073134 60.55502540790811 1.0354916923915879e-11
  endloop
endfacet
facet normal -3.0165733514726757e-15 -1.3925663983749614e-14 -1.0
  outer loop
    vertex 37.51957446073134 60.55502540790811 1.0354916923915879e-11
    vertex 55.00000000000048 69.85708552303754 8.967493414502314e-12
    vertex 39.012444690266975 57.35307033842524 1.028723772833473e-11
  endloop
endfacet
facet normal -3.0165733514726757e-15 -1.3925663983749614e-14 -1.0
  outer loop
    vertex 39.012444690266975 57.35307033842524 1.028723772833473e-11
    vertex 55.00000000000048 69.85708552303754 8.967493414502314e-12
    vertex 39.51006810011218 53.578173396016524 1.0253398130544155e-11
  endloop
endfacet
facet normal -3.0165733514726757e-15 -1.3925663983749614e-14 -1.0
  outer loop
    vertex 59.999999999999346 69.72311092682233 9.057732341943846e-12
    vertex 55.00000000000048 67.99106011925338 8.956213548572122e-12
    vertex 55.00000000000048 69.72311092682233 9.057732341943846e-12
  endloop
endfacet
facet normal -3.0165733514726757e-15 -1.3925663983749614e-14 -1.0
  outer loop
    vertex 55.00000000000048 67.99106011925338 8.956213548572122e-12
    vertex 59.999999999999346 69.72311092682233 9.057732341943846e-12
    vertex 59.999999999999346 67.99106011925338 8.956213548572122e-12
  endloop
endfacet
facet normal -3.0165733514726757e-15 -1.3925663983749614e-14 -1.0
  outer loop
    vertex 5.000000000000532 35.47858562638243 9.711964565894958e-12
    vertex 22.590642068239728 41.59018921978626 9.943201817463886e-12
    vertex 55.00000000000048 35.47858562638243 9.711964565894958e-12
  endloop
endfacet
facet normal -3.0165733514726757e-15 -1.3925663983749614e-14 -1.0
  outer loop
    vertex 22.590642068239728 41.59018921978626 9.943201817463886e-12
    vertex 5.000000000000532 35.47858562638243 9.711964565894958e-12
    vertex 19.363683109791435 42.660831201603294 9.9262820185686e-12
  endloop
endfacet
facet normal -3.0165733514726757e-15 -1.3925663983749614e-14 -1.0
  outer loop
    vertex 19.363683109791435 42.660831201603294 9.9262820185686e-12
    vertex 5.000000000000532 35.47858562638243 9.711964565894958e-12
    vertex 16.61425241116012 44.41509177958999 9.943201817463886e-12
  endloop
endfacet
facet normal -3.0165733514726757e-15 -1.3925663983749614e-14 -1.0
  outer loop
    vertex 16.61425241116012 44.41509177958999 9.943201817463886e-12
    vertex 5.000000000000532 35.47858562638243 9.711964565894958e-12
    vertex 14.47795388551039 46.82282822870491 9.982681348219558e-12
  endloop
endfacet
facet normal -3.0165733514726757e-15 -1.3925663983749614e-14 -1.0
  outer loop
    vertex 14.47795388551039 46.82282822870491 9.982681348219558e-12
    vertex 5.000000000000532 35.47858562638243 9.711964565894958e-12
    vertex 13.105654556140559 49.838711412816984 1.0084200141591281e-11
  endloop
endfacet
facet normal -3.0165733514726757e-15 -1.3925663983749614e-14 -1.0
  outer loop
    vertex 13.105654556140559 49.838711412816984 1.0084200141591281e-11
    vertex 5.000000000000532 35.47858562638243 9.711964565894958e-12
    vertex 12.648221446351096 53.41741219579534 1.0213918599788484e-11
  endloop
endfacet
facet normal -3.0165733514726757e-15 -1.3925663983749614e-14 -1.0
  outer loop
    vertex 55.00000000000048 35.47858562638243 9.711964565894958e-12
    vertex 22.590642068239728 41.59018921978626 9.943201817463886e-12
    vertex 26.159525373342454 41.233308559180614 9.954481683394079e-12
  endloop
endfacet
facet normal -3.0165733514726757e-15 -1.3925663983749614e-14 -1.0
  outer loop
    vertex 55.00000000000048 35.47858562638243 9.711964565894958e-12
    vertex 26.159525373342454 41.233308559180614 9.954481683394079e-12
    vertex 29.833946565612887 41.62033194482771 9.89808235374312e-12
  endloop
endfacet
facet normal -3.0165733514726757e-15 -1.3925663983749614e-14 -1.0
  outer loop
    vertex 55.00000000000048 35.47858562638243 9.711964565894958e-12
    vertex 29.833946565612887 41.62033194482771 9.89808235374312e-12
    vertex 33.05599678512273 42.781402101769 9.948841750428982e-12
  endloop
endfacet
facet normal -3.0165733514726757e-15 -1.3925663983749614e-14 -1.0
  outer loop
    vertex 55.00000000000048 35.47858562638243 9.711964565894958e-12
    vertex 33.05599678512273 42.781402101769 9.948841750428982e-12
    vertex 35.73517115770319 44.641200566924034 9.954481683394079e-12
  endloop
endfacet
facet normal -3.0165733514726757e-15 -1.3925663983749614e-14 -1.0
  outer loop
    vertex 55.00000000000048 35.47858562638243 9.711964565894958e-12
    vertex 35.73517115770319 44.641200566924034 9.954481683394079e-12
    vertex 37.78096480918278 47.12440887721154 1.0016520946010131e-11
  endloop
endfacet
facet normal -3.0165733514726757e-15 -1.3925663983749614e-14 -1.0
  outer loop
    vertex 55.00000000000048 35.47858562638243 9.711964565894958e-12
    vertex 37.78096480918278 47.12440887721154 1.0016520946010131e-11
    vertex 39.07779227737965 50.135306623339645 1.0095480007521473e-11
  endloop
endfacet
facet normal -3.0165733514726757e-15 -1.3925663983749614e-14 -1.0
  outer loop
    vertex 55.00000000000048 35.47858562638243 9.711964565894958e-12
    vertex 39.07779227737965 50.135306623339645 1.0095480007521473e-11
    vertex 39.51006810011218 53.578173396016524 1.0253398130544155e-11
  endloop
endfacet
facet normal -3.0165733514726757e-15 -1.3925663983749614e-14 -1.0
  outer loop
    vertex 55.00000000000048 35.47858562638243 9.711964565894958e-12
    vertex 39.51006810011218 53.578173396016524 1.0253398130544155e-11
    vertex 55.00000000000048 69.85708552303754 8.967493414502314e-12
  endloop
endfacet
facet normal -3.0165733514726757e-15 -1.3925663983749614e-14 -1.0
  outer loop
    vertex 55.00000000000048 35.47858562638243 9.711964565894958e-12
    vertex 55.00000000000048 69.85708552303754 8.967493414502314e-12
    vertex 55.00000000000048 69.72311092682233 9.057732341943846e-12
  endloop
endfacet
facet normal -3.0165733514726757e-15 -1.3925663983749614e-14 -1.0
  outer loop
    vertex 55.00000000000048 35.47858562638243 9.711964565894958e-12
    vertex 55.00000000000048 69.72311092682233 9.057732341943846e-12
    vertex 55.00000000000048 67.99106011925338 8.956213548572122e-12
  endloop
endfacet
facet normal -0.8458048554417776 -0.5334924052984388 0.0
  outer loop
    vertex 37.94172600940342 63.39004321109107 1.000000000008977
    vertex 42.88789408185765 55.54833275755121 0.8000000000090224
    vertex 42.88789408185765 55.54833275755121 1.000000000008977
  endloop
endfacet
facet normal -0.8458048554417776 -0.5334924052984388 0.0
  outer loop
    vertex 42.88789408185765 55.54833275755121 0.8000000000090224
    vertex 37.94172600940342 63.39004321109107 1.000000000008977
    vertex 37.94172600940342 63.39004321109107 0.8000000000090224
  endloop
endfacet
facet normal -1.0 0.0 0.0
  outer loop
    vertex 48.59798465154802 69.85708552303754 1.0000000000090163
    vertex 48.59798465154802 66.32546909604685 0.8000000000090224
    vertex 48.59798465154802 66.32546909604685 1.000000000008977
  endloop
endfacet
facet normal -1.0 0.0 0.0
  outer loop
    vertex 48.59798465154802 66.32546909604685 0.8000000000090224
    vertex 48.59798465154802 69.85708552303754 1.0000000000090163
    vertex 48.59798465154802 69.85708552303763 0.8000000000090224
  endloop
endfacet
facet normal 0.9882097846764396 0.1531059158548263 7.89855686469513e-17
  outer loop
    vertex 32.12625095063758 56.27744291862459 1.0253398130544155e-11
    vertex 32.513274336284596 53.77943169247693 0.20000000001018536
    vertex 32.513274336284596 53.77943169247693 1.0242118264613963e-11
  endloop
endfacet
facet normal 0.9882097846764396 0.1531059158548263 7.89855686469513e-17
  outer loop
    vertex 32.513274336284596 53.77943169247693 0.20000000001018536
    vertex 32.12625095063758 56.27744291862459 1.0253398130544155e-11
    vertex 32.12625095063758 56.27744291862459 0.2000000000102079
  endloop
endfacet
facet normal -0.7718084218419646 0.6358551407150971 2.135433264023803e-16
  outer loop
    vertex 37.78096480918278 47.12440887721154 0.2000000000100105
    vertex 35.73517115770319 44.641200566924034 9.954481683394079e-12
    vertex 35.73517115770319 44.641200566924034 0.20000000000988644
  endloop
endfacet
facet normal -0.7718084218419646 0.6358551407150971 2.135433264023803e-16
  outer loop
    vertex 35.73517115770319 44.641200566924034 9.954481683394079e-12
    vertex 37.78096480918278 47.12440887721154 0.2000000000100105
    vertex 37.78096480918278 47.12440887721154 1.0016520946010131e-11
  endloop
endfacet
facet normal -0.5454070455850603 0.8381713157977767 -0.0
  outer loop
    vertex 37.017042311947236 51.72810667901143 1.000000000008977
    vertex 42.88789408185765 55.54833275755121 0.8000000000090224
    vertex 37.017042311947236 51.72810667901143 0.8000000000090224
  endloop
endfacet
facet normal -0.5454070455850603 0.8381713157977767 -0.0
  outer loop
    vertex 42.88789408185765 55.54833275755121 0.8000000000090224
    vertex 37.017042311947236 51.72810667901143 1.000000000008977
    vertex 42.88789408185765 55.54833275755121 1.000000000008977
  endloop
endfacet
facet normal 0.6972030668008657 -0.7168736873700049 0.0
  outer loop
    vertex 26.360783669801148 67.65266938642293 1.000000000008977
    vertex 21.977893390486244 63.39004321109107 0.8000000000090224
    vertex 26.360783669801148 67.65266938642293 0.8000000000090224
  endloop
endfacet
facet normal 0.6972030668008657 -0.7168736873700049 0.0
  outer loop
    vertex 21.977893390486244 63.39004321109107 0.8000000000090224
    vertex 26.360783669801148 67.65266938642293 1.000000000008977
    vertex 21.977893390486244 63.39004321109107 1.000000000008977
  endloop
endfacet
facet normal -0.8406571357887257 0.5415677058757253 0.0
  outer loop
    vertex 28.291145257190962 60.09259782945389 1.000000000008977
    vertex 22.902577087942245 51.72810667901143 0.8000000000090224
    vertex 22.902577087942245 51.72810667901143 1.000000000008977
  endloop
endfacet
facet normal -0.8406571357887257 0.5415677058757253 0.0
  outer loop
    vertex 22.902577087942245 51.72810667901143 0.8000000000090224
    vertex 28.291145257190962 60.09259782945389 1.000000000008977
    vertex 28.291145257190962 60.09259782945389 0.8000000000090224
  endloop
endfacet
facet normal -0.0 -0.0 1.0
  outer loop
    vertex 22.902577087942245 51.72810667901143 0.8000000000090224
    vertex 21.977893390486244 63.39004321109107 0.8000000000090224
    vertex 17.031725318030336 55.54833275755121 0.8000000000090224
  endloop
endfacet
facet normal -0.0 -0.0 1.0
  outer loop
    vertex 21.977893390486244 63.39004321109107 0.8000000000090224
    vertex 22.902577087942245 51.72810667901143 0.8000000000090224
    vertex 26.360783669801148 67.65266938642293 0.8000000000090224
  endloop
endfacet
facet normal -0.0 -0.0 1.0
  outer loop
    vertex 26.360783669801148 67.65266938642293 0.8000000000090224
    vertex 22.902577087942245 51.72810667901143 0.8000000000090224
    vertex 28.291145257190962 60.09259782945389 0.8000000000090224
  endloop
endfacet
facet normal -0.0 -0.0 1.0
  outer loop
    vertex 37.017042311947236 51.72810667901143 0.8000000000090224
    vertex 33.598719233960416 67.65266938642293 0.8000000000090224
    vertex 31.628474142698607 60.09259782945389 0.8000000000090224
  endloop
endfacet
facet normal -0.0 -0.0 1.0
  outer loop
    vertex 33.598719233960416 67.65266938642293 0.8000000000090224
    vertex 37.017042311947236 51.72810667901143 0.8000000000090224
    vertex 37.94172600940342 63.39004321109107 0.8000000000090224
  endloop
endfacet
facet normal -0.0 -0.0 1.0
  outer loop
    vertex 37.94172600940342 63.39004321109107 0.8000000000090224
    vertex 37.017042311947236 51.72810667901143 0.8000000000090224
    vertex 42.88789408185765 55.54833275755121 0.8000000000090224
  endloop
endfacet
facet normal -0.0 -0.0 1.0
  outer loop
    vertex 20.288673603429377 66.32546909604685 0.8000000000090224
    vertex 11.402015348451469 69.85708552303763 0.8000000000090224
    vertex 11.402015348451469 66.32546909604685 0.8000000000090224
  endloop
endfacet
facet normal -0.0 -0.0 1.0
  outer loop
    vertex 11.402015348451469 69.85708552303763 0.8000000000090224
    vertex 20.288673603429377 66.32546909604685 0.8000000000090224
    vertex 26.360783669801148 67.65266938642293 0.8000000000090224
  endloop
endfacet
facet normal -0.0 -0.0 1.0
  outer loop
    vertex 11.402015348451469 69.85708552303763 0.8000000000090224
    vertex 26.360783669801148 67.65266938642293 0.8000000000090224
    vertex 48.59798465154802 69.85708552303763 0.8000000000090224
  endloop
endfacet
facet normal -0.0 -0.0 1.0
  outer loop
    vertex 48.59798465154802 69.85708552303763 0.8000000000090224
    vertex 26.360783669801148 67.65266938642293 0.8000000000090224
    vertex 33.598719233960416 67.65266938642293 0.8000000000090224
  endloop
endfacet
facet normal -0.0 -0.0 1.0
  outer loop
    vertex 33.598719233960416 67.65266938642293 0.8000000000090224
    vertex 26.360783669801148 67.65266938642293 0.8000000000090224
    vertex 29.97975145187997 65.80268839914416 0.8000000000090224
  endloop
endfacet
facet normal -0.0 -0.0 1.0
  outer loop
    vertex 29.97975145187997 65.80268839914416 0.8000000000090224
    vertex 26.360783669801148 67.65266938642293 0.8000000000090224
    vertex 28.291145257190962 60.09259782945389 0.8000000000090224
  endloop
endfacet
facet normal -0.0 -0.0 1.0
  outer loop
    vertex 33.598719233960416 67.65266938642293 0.8000000000090224
    vertex 29.97975145187997 65.80268839914416 0.8000000000090224
    vertex 31.628474142698607 60.09259782945389 0.8000000000090224
  endloop
endfacet
facet normal -0.0 -0.0 1.0
  outer loop
    vertex 48.59798465154802 69.85708552303763 0.8000000000090224
    vertex 33.598719233960416 67.65266938642293 0.8000000000090224
    vertex 39.670829300332194 66.32546909604685 0.8000000000090224
  endloop
endfacet
facet normal -0.0 -0.0 1.0
  outer loop
    vertex 48.59798465154802 69.85708552303763 0.8000000000090224
    vertex 39.670829300332194 66.32546909604685 0.8000000000090224
    vertex 48.59798465154802 66.32546909604685 0.8000000000090224
  endloop
endfacet
facet normal 0.5172433860211925 0.8558383489989987 1.145795826159781e-16
  outer loop
    vertex 25.152578648065674 63.1976621666329 0.2000000000103207
    vertex 26.863622614769184 62.16355779867136 1.0360556856880975e-11
    vertex 25.152578648065674 63.1976621666329 1.0321077326125305e-11
  endloop
endfacet
facet normal 0.5172433860211925 0.8558383489989987 1.145795826159781e-16
  outer loop
    vertex 26.863622614769184 62.16355779867136 1.0360556856880975e-11
    vertex 25.152578648065674 63.1976621666329 0.2000000000103207
    vertex 26.863622614769184 62.16355779867136 0.2000000000102756
  endloop
endfacet
facet normal -0.0 1.0 -0.0
  outer loop
    vertex 39.670829300332194 66.32546909604685 1.000000000008977
    vertex 48.59798465154802 66.32546909604685 0.8000000000090224
    vertex 39.670829300332194 66.32546909604685 0.8000000000090224
  endloop
endfacet
facet normal -0.0 1.0 -0.0
  outer loop
    vertex 48.59798465154802 66.32546909604685 0.8000000000090224
    vertex 39.670829300332194 66.32546909604685 1.000000000008977
    vertex 48.59798465154802 66.32546909604685 1.000000000008977
  endloop
endfacet
facet normal 0.6168143642999947 0.7871086583142085 -7.342143619187423e-13
  outer loop
    vertex 14.48152579798951 69.8571712527643 0.2000000000104448
    vertex 15.98616392422732 68.67806796183523 1.0495915248043274e-11
    vertex 14.48152579798915 69.85717125276422 1.0151879337172431e-11
  endloop
endfacet
facet normal 0.6168143642999947 0.7871086583142085 -7.342143619187423e-13
  outer loop
    vertex 15.98616392422732 68.67806796183523 1.0495915248043274e-11
    vertex 14.48152579798951 69.8571712527643 0.2000000000104448
    vertex 15.98616392422732 68.67806796183523 0.2000000000104448
  endloop
endfacet
facet normal 0.9607527121716251 0.2774062473248694 -0.0
  outer loop
    vertex 29.97975145187997 65.80268839914416 0.8000000000090224
    vertex 31.628474142698607 60.09259782945389 1.000000000008977
    vertex 31.628474142698607 60.09259782945389 0.8000000000090224
  endloop
endfacet
facet normal 0.9607527121716251 0.2774062473248694 -0.0
  outer loop
    vertex 31.628474142698607 60.09259782945389 1.000000000008977
    vertex 29.97975145187997 65.80268839914416 0.8000000000090224
    vertex 29.97975145187997 65.80268839914416 1.000000000008977
  endloop
endfacet
facet normal 0.7954087232081948 -0.6060733974068729 -1.73429413734336e-16
  outer loop
    vertex 18.982253471438224 66.90040863590767 1.0484635382113083e-11
    vertex 16.62920872511187 63.81228048948991 0.20000000001039966
    vertex 16.62920872511187 63.81228048948991 1.0422596119497029e-11
  endloop
endfacet
facet normal 0.7954087232081948 -0.6060733974068729 -1.73429413734336e-16
  outer loop
    vertex 16.62920872511187 63.81228048948991 0.20000000001039966
    vertex 18.982253471438224 66.90040863590767 1.0484635382113083e-11
    vertex 18.982253471438224 66.90040863590767 0.2000000000104053
  endloop
endfacet
facet normal 0.8458048554416965 -0.5334924052985677 -0.0
  outer loop
    vertex 21.977893390486244 63.39004321109107 0.8000000000090224
    vertex 17.031725318030336 55.54833275755121 1.000000000008977
    vertex 17.031725318030336 55.54833275755121 0.8000000000090224
  endloop
endfacet
facet normal 0.8458048554416965 -0.5334924052985677 -0.0
  outer loop
    vertex 17.031725318030336 55.54833275755121 1.000000000008977
    vertex 21.977893390486244 63.39004321109107 0.8000000000090224
    vertex 21.977893390486244 63.39004321109107 1.000000000008977
  endloop
endfacet
facet normal 6.864839224030917e-16 1.2101810920184305e-14 1.0
  outer loop
    vertex 5.000000000000532 67.99106011925319 1.0000000000090898
    vertex 1.3535839116229907e-13 69.72311092682233 1.0000000000091913
    vertex 1.3535839116229907e-13 67.99106011925319 1.0000000000090898
  endloop
endfacet
facet normal 6.864839224030917e-16 1.2101810920184305e-14 1.0
  outer loop
    vertex 1.3535839116229907e-13 69.72311092682233 1.0000000000091913
    vertex 5.000000000000532 67.99106011925319 1.0000000000090898
    vertex 5.000000000000532 69.72311092682233 1.0000000000091913
  endloop
endfacet
facet normal 6.864839224030917e-16 1.2101810920184305e-14 1.0
  outer loop
    vertex 59.999999999999346 67.99106011925319 1.0000000000089544
    vertex 55.00000000000048 69.72311092682233 1.0000000000091913
    vertex 55.00000000000048 67.99106011925319 1.0000000000089544
  endloop
endfacet
facet normal 6.864839224030917e-16 1.2101810920184305e-14 1.0
  outer loop
    vertex 55.00000000000048 69.72311092682233 1.0000000000091913
    vertex 59.999999999999346 67.99106011925319 1.0000000000089544
    vertex 59.999999999999346 69.72311092682233 1.0000000000091913
  endloop
endfacet
facet normal 6.864839224030917e-16 1.2101810920184305e-14 1.0
  outer loop
    vertex 5.000000000000532 35.47858562638243 1.000000000009665
    vertex 17.031725318030336 55.54833275755121 1.000000000008977
    vertex 5.000000000000532 67.99106011925319 1.0000000000090898
  endloop
endfacet
facet normal 6.864839224030917e-16 1.2101810920184305e-14 1.0
  outer loop
    vertex 17.031725318030336 55.54833275755121 1.000000000008977
    vertex 5.000000000000532 35.47858562638243 1.000000000009665
    vertex 22.902577087942245 51.72810667901143 1.000000000008977
  endloop
endfacet
facet normal 6.864839224030917e-16 1.2101810920184305e-14 1.0
  outer loop
    vertex 22.902577087942245 51.72810667901143 1.000000000008977
    vertex 5.000000000000532 35.47858562638243 1.000000000009665
    vertex 55.00000000000048 35.47858562638243 1.000000000009665
  endloop
endfacet
facet normal 6.864839224030917e-16 1.2101810920184305e-14 1.0
  outer loop
    vertex 5.000000000000532 67.99106011925319 1.0000000000090898
    vertex 17.031725318030336 55.54833275755121 1.000000000008977
    vertex 5.000000000000532 69.72311092682233 1.0000000000091913
  endloop
endfacet
facet normal 6.864839224030917e-16 1.2101810920184305e-14 1.0
  outer loop
    vertex 5.000000000000532 69.72311092682233 1.0000000000091913
    vertex 17.031725318030336 55.54833275755121 1.000000000008977
    vertex 5.000000000000532 69.85708552303754 1.0000000000090559
  endloop
endfacet
facet normal 6.864839224030917e-16 1.2101810920184305e-14 1.0
  outer loop
    vertex 5.000000000000532 69.85708552303754 1.0000000000090559
    vertex 17.031725318030336 55.54833275755121 1.000000000008977
    vertex 11.402015348451469 66.32546909604685 1.000000000008977
  endloop
endfacet
facet normal 6.864839224030917e-16 1.2101810920184305e-14 1.0
  outer loop
    vertex 22.902577087942245 51.72810667901143 1.000000000008977
    vertex 55.00000000000048 35.47858562638243 1.000000000009665
    vertex 37.017042311947236 51.72810667901143 1.000000000008977
  endloop
endfacet
facet normal 6.864839224030917e-16 1.2101810920184305e-14 1.0
  outer loop
    vertex 22.902577087942245 51.72810667901143 1.000000000008977
    vertex 37.017042311947236 51.72810667901143 1.000000000008977
    vertex 28.291145257190962 60.09259782945389 1.000000000008977
  endloop
endfacet
facet normal 6.864839224030917e-16 1.2101810920184305e-14 1.0
  outer loop
    vertex 28.291145257190962 60.09259782945389 1.000000000008977
    vertex 37.017042311947236 51.72810667901143 1.000000000008977
    vertex 31.628474142698607 60.09259782945389 1.000000000008977
  endloop
endfacet
facet normal 6.864839224030917e-16 1.2101810920184305e-14 1.0
  outer loop
    vertex 28.291145257190962 60.09259782945389 1.000000000008977
    vertex 31.628474142698607 60.09259782945389 1.000000000008977
    vertex 29.97975145187997 65.80268839914416 1.000000000008977
  endloop
endfacet
facet normal 6.864839224030917e-16 1.2101810920184305e-14 1.0
  outer loop
    vertex 37.017042311947236 51.72810667901143 1.000000000008977
    vertex 55.00000000000048 35.47858562638243 1.000000000009665
    vertex 42.88789408185765 55.54833275755121 1.000000000008977
  endloop
endfacet
facet normal 6.864839224030917e-16 1.2101810920184305e-14 1.0
  outer loop
    vertex 42.88789408185765 55.54833275755121 1.000000000008977
    vertex 55.00000000000048 35.47858562638243 1.000000000009665
    vertex 48.59798465154802 66.32546909604685 1.000000000008977
  endloop
endfacet
facet normal 6.864839224030917e-16 1.2101810920184305e-14 1.0
  outer loop
    vertex 48.59798465154802 66.32546909604685 1.000000000008977
    vertex 55.00000000000048 35.47858562638243 1.000000000009665
    vertex 48.59798465154802 69.85708552303754 1.0000000000090163
  endloop
endfacet
facet normal 6.864839224030917e-16 1.2101810920184305e-14 1.0
  outer loop
    vertex 48.59798465154802 69.85708552303754 1.0000000000090163
    vertex 55.00000000000048 35.47858562638243 1.000000000009665
    vertex 55.00000000000048 69.85708552303754 1.0000000000090559
  endloop
endfacet
facet normal 6.864839224030917e-16 1.2101810920184305e-14 1.0
  outer loop
    vertex 55.00000000000048 69.85708552303754 1.0000000000090559
    vertex 55.00000000000048 35.47858562638243 1.000000000009665
    vertex 55.00000000000048 67.99106011925319 1.0000000000089544
  endloop
endfacet
facet normal 6.864839224030917e-16 1.2101810920184305e-14 1.0
  outer loop
    vertex 55.00000000000048 69.85708552303754 1.0000000000090559
    vertex 55.00000000000048 67.99106011925319 1.0000000000089544
    vertex 55.00000000000048 69.72311092682233 1.0000000000091913
  endloop
endfacet
facet normal 6.864839224030917e-16 1.2101810920184305e-14 1.0
  outer loop
    vertex 37.94172600940342 63.39004321109107 1.000000000008977
    vertex 39.670829300332194 66.32546909604685 1.000000000008977
    vertex 33.598719233960416 67.65266938642293 1.000000000008977
  endloop
endfacet
facet normal 6.864839224030917e-16 1.2101810920184305e-14 1.0
  outer loop
    vertex 39.670829300332194 66.32546909604685 1.000000000008977
    vertex 37.94172600940342 63.39004321109107 1.000000000008977
    vertex 42.88789408185765 55.54833275755121 1.000000000008977
  endloop
endfacet
facet normal 6.864839224030917e-16 1.2101810920184305e-14 1.0
  outer loop
    vertex 39.670829300332194 66.32546909604685 1.000000000008977
    vertex 42.88789408185765 55.54833275755121 1.000000000008977
    vertex 48.59798465154802 66.32546909604685 1.000000000008977
  endloop
endfacet
facet normal 6.864839224030917e-16 1.2101810920184305e-14 1.0
  outer loop
    vertex 17.031725318030336 55.54833275755121 1.000000000008977
    vertex 20.288673603429377 66.32546909604685 1.000000000008977
    vertex 11.402015348451469 66.32546909604685 1.000000000008977
  endloop
endfacet
facet normal 6.864839224030917e-16 1.2101810920184305e-14 1.0
  outer loop
    vertex 20.288673603429377 66.32546909604685 1.000000000008977
    vertex 17.031725318030336 55.54833275755121 1.000000000008977
    vertex 21.977893390486244 63.39004321109107 1.000000000008977
  endloop
endfacet
facet normal 6.864839224030917e-16 1.2101810920184305e-14 1.0
  outer loop
    vertex 20.288673603429377 66.32546909604685 1.000000000008977
    vertex 21.977893390486244 63.39004321109107 1.000000000008977
    vertex 26.360783669801148 67.65266938642293 1.000000000008977
  endloop
endfacet
facet normal 6.864839224030917e-16 1.2101810920184305e-14 1.0
  outer loop
    vertex 11.402015348451469 69.85708552303754 1.0000000000090163
    vertex 5.000000000000532 69.85708552303754 1.0000000000090559
    vertex 11.402015348451469 66.32546909604685 1.000000000008977
  endloop
endfacet
facet normal -0.0 0.9238795325111134 -0.38268343236550817
  outer loop
    vertex 1.3535839116229907e-13 69.82301134932707 0.24118095490649458
    vertex 5.000000000000532 69.72311092682233 9.057732341943846e-12
    vertex 1.3535839116229907e-13 69.72311092682233 9.057732341943846e-12
  endloop
endfacet
facet normal -0.0 0.9238795325111134 -0.38268343236550817
  outer loop
    vertex 5.000000000000532 69.72311092682233 9.057732341943846e-12
    vertex 1.3535839116229907e-13 69.82301134932707 0.24118095490649458
    vertex 5.000000000000532 69.82301134932707 0.24118095490649458
  endloop
endfacet
facet normal 0.5102694460757019 0.8600145884818448 -8.135292370216526e-17
  outer loop
    vertex 15.98616392422732 68.67806796183523 1.0495915248043274e-11
    vertex 18.982253471438224 66.90040863590767 0.2000000000104053
    vertex 18.982253471438224 66.90040863590767 1.0484635382113083e-11
  endloop
endfacet
facet normal 0.5102694460757019 0.8600145884818448 -8.135292370216526e-17
  outer loop
    vertex 18.982253471438224 66.90040863590767 0.2000000000104053
    vertex 15.98616392422732 68.67806796183523 1.0495915248043274e-11
    vertex 15.98616392422732 68.67806796183523 0.2000000000104448
  endloop
endfacet
facet normal -0.7004715207433785 -0.7136803546598848 0.0
  outer loop
    vertex 37.94172600940342 63.39004321109107 1.000000000008977
    vertex 33.598719233960416 67.65266938642293 0.8000000000090224
    vertex 37.94172600940342 63.39004321109107 0.8000000000090224
  endloop
endfacet
facet normal -0.7004715207433785 -0.7136803546598848 0.0
  outer loop
    vertex 33.598719233960416 67.65266938642293 0.8000000000090224
    vertex 37.94172600940342 63.39004321109107 1.000000000008977
    vertex 33.598719233960416 67.65266938642293 1.000000000008977
  endloop
endfacet
facet normal 0.9102023087936668 0.4141639253564685 2.219116107543098e-16
  outer loop
    vertex 13.105654556140559 49.838711412816984 1.0084200141591281e-11
    vertex 14.47795388551039 46.82282822870491 0.20000000000995977
    vertex 14.47795388551039 46.82282822870491 9.982681348219558e-12
  endloop
endfacet
facet normal 0.9102023087936668 0.4141639253564685 2.219116107543098e-16
  outer loop
    vertex 14.47795388551039 46.82282822870491 0.20000000000995977
    vertex 13.105654556140559 49.838711412816984 1.0084200141591281e-11
    vertex 13.105654556140559 49.838711412816984 0.20000000001003307
  endloop
endfacet
facet normal -0.0 1.0 -0.0
  outer loop
    vertex 11.402015348451469 66.32546909604685 1.000000000008977
    vertex 20.288673603429377 66.32546909604685 0.8000000000090224
    vertex 11.402015348451469 66.32546909604685 0.8000000000090224
  endloop
endfacet
facet normal -0.0 1.0 -0.0
  outer loop
    vertex 20.288673603429377 66.32546909604685 0.8000000000090224
    vertex 11.402015348451469 66.32546909604685 1.000000000008977
    vertex 20.288673603429377 66.32546909604685 1.000000000008977
  endloop
endfacet
facet normal 0.5454070455849629 0.8381713157978399 -0.0
  outer loop
    vertex 17.031725318030336 55.54833275755121 1.000000000008977
    vertex 22.902577087942245 51.72810667901143 0.8000000000090224
    vertex 17.031725318030336 55.54833275755121 0.8000000000090224
  endloop
endfacet
facet normal 0.5454070455849629 0.8381713157978399 -0.0
  outer loop
    vertex 22.902577087942245 51.72810667901143 0.8000000000090224
    vertex 17.031725318030336 55.54833275755121 1.000000000008977
    vertex 22.902577087942245 51.72810667901143 1.000000000008977
  endloop
endfacet
facet normal -0.782948339789417 0.6220867280540519 -1.403325320472414e-13
  outer loop
    vertex 22.70162558766748 60.11293210729977 0.20000000001028687
    vertex 25.152578648065674 63.1976621666329 1.0321077326125305e-11
    vertex 22.70162558766748 60.112932107299685 1.0354916923915879e-11
  endloop
endfacet
facet normal -0.782948339789417 0.6220867280540519 -1.403325320472414e-13
  outer loop
    vertex 25.152578648065674 63.1976621666329 1.0321077326125305e-11
    vertex 22.70162558766748 60.11293210729977 0.20000000001028687
    vertex 25.152578648065674 63.1976621666329 0.2000000000103207
  endloop
endfacet
facet normal -0.2135320045840098 0.9769360690538222 -0.0
  outer loop
    vertex 20.288673603429377 66.32546909604685 1.000000000008977
    vertex 26.360783669801148 67.65266938642293 0.8000000000090224
    vertex 20.288673603429377 66.32546909604685 0.8000000000090224
  endloop
endfacet
facet normal -0.2135320045840098 0.9769360690538222 -0.0
  outer loop
    vertex 26.360783669801148 67.65266938642293 0.8000000000090224
    vertex 20.288673603429377 66.32546909604685 1.000000000008977
    vertex 26.360783669801148 67.65266938642293 1.000000000008977
  endloop
endfacet
endsolid Extra-Characters_1_export
