solid Extra-Characters_1_export
facet normal 0.9922097148632318 -0.1245788173447802 -8.059293801062372e-17
  outer loop
    vertex 39.51006810011223 53.57817339601643 1.0253398130544155e-11
    vertex 39.07779227737969 50.135306623339645 0.20000000001009552
    vertex 39.07779227737969 50.135306623339645 1.0095480007521473e-11
  endloop
endfacet
facet normal 0.9922097148632318 -0.1245788173447802 -8.059293801062372e-17
  outer loop
    vertex 39.07779227737969 50.135306623339645 0.20000000001009552
    vertex 39.51006810011223 53.57817339601643 1.0253398130544155e-11
    vertex 39.51006810011223 53.57817339601643 0.20000000001025342
  endloop
endfacet
facet normal 0.9184319704466422 -0.3955789626123948 3.551226631817402e-17
  outer loop
    vertex 39.07779227737969 50.135306623339645 1.0095480007521473e-11
    vertex 37.78096480918282 47.12440887721145 0.20000000001001655
    vertex 37.78096480918282 47.12440887721145 1.0016520946010131e-11
  endloop
endfacet
facet normal 0.9184319704466422 -0.3955789626123948 3.551226631817402e-17
  outer loop
    vertex 37.78096480918282 47.12440887721145 0.20000000001001655
    vertex 39.07779227737969 50.135306623339645 1.0095480007521473e-11
    vertex 39.07779227737969 50.135306623339645 0.20000000001009552
  endloop
endfacet
facet normal -0.8714945052625628 0.49040526842312904 2.174224636490428e-16
  outer loop
    vertex 16.629208725111916 63.81228048948991 0.20000000001042262
    vertex 13.653592540101117 58.52434146847234 1.0321077326125305e-11
    vertex 13.653592540101117 58.52434146847234 0.20000000001032112
  endloop
endfacet
facet normal -0.8714945052625628 0.49040526842312904 2.174224636490428e-16
  outer loop
    vertex 13.653592540101117 58.52434146847234 1.0321077326125305e-11
    vertex 16.629208725111916 63.81228048948991 0.20000000001042262
    vertex 16.629208725111916 63.81228048948991 1.0422596119497029e-11
  endloop
endfacet
facet normal 0.7698398595208112 0.6382370959862628 -1.5323661415273148e-16
  outer loop
    vertex 35.227500172844096 63.319719216674656 1.0400036387636646e-11
    vertex 37.51957446073139 60.555025407908026 0.20000000001035495
    vertex 37.51957446073139 60.555025407908026 1.0354916923915879e-11
  endloop
endfacet
facet normal 0.7698398595208112 0.6382370959862628 -1.5323661415273148e-16
  outer loop
    vertex 37.51957446073139 60.555025407908026 0.20000000001035495
    vertex 35.227500172844096 63.319719216674656 1.0400036387636646e-11
    vertex 35.227500172844096 63.319719216674656 0.20000000001040005
  endloop
endfacet
facet normal 0.7829483397894214 -0.6220867280540462 5.571137889906337e-17
  outer loop
    vertex 25.152578648065717 63.1976621666329 1.0321077326125305e-11
    vertex 22.701625587667525 60.112932107299685 0.20000000001035495
    vertex 22.701625587667525 60.112932107299685 1.0354916923915879e-11
  endloop
endfacet
facet normal 0.7829483397894214 -0.6220867280540462 5.571137889906337e-17
  outer loop
    vertex 22.701625587667525 60.112932107299685 0.20000000001035495
    vertex 25.152578648065717 63.1976621666329 1.0321077326125305e-11
    vertex 25.152578648065717 63.1976621666329 0.20000000001032112
  endloop
endfacet
facet normal -0.6168143642999342 -0.7871086583142559 -1.7829999899145438e-16
  outer loop
    vertex 15.986163924227366 68.67806796183523 1.0495915248043274e-11
    vertex 14.481525797989194 69.85717125276422 0.20000000001015192
    vertex 14.481525797989194 69.85717125276422 1.0151879337172431e-11
  endloop
endfacet
facet normal -0.6168143642999342 -0.7871086583142559 -1.7829999899145438e-16
  outer loop
    vertex 14.481525797989194 69.85717125276422 0.20000000001015192
    vertex 15.986163924227366 68.67806796183523 1.0495915248043274e-11
    vertex 15.986163924227366 68.67806796183523 0.20000000001049595
  endloop
endfacet
facet normal -0.09950160175368093 -0.9950374019344459 6.309722483024919e-17
  outer loop
    vertex 26.1595253733425 41.23330855918052 9.954481683394079e-12
    vertex 22.59064206823977 41.59018921978617 0.20000000000994322
    vertex 22.59064206823977 41.59018921978617 9.943201817463886e-12
  endloop
endfacet
facet normal -0.09950160175368093 -0.9950374019344459 6.309722483024919e-17
  outer loop
    vertex 22.59064206823977 41.59018921978617 0.20000000000994322
    vertex 26.1595253733425 41.23330855918052 9.954481683394079e-12
    vertex 26.1595253733425 41.23330855918052 0.20000000000995452
  endloop
endfacet
facet normal 0.9752418888633512 -0.22114081081121856 -7.676970032239235e-18
  outer loop
    vertex 20.32886390348553 56.393335176990156 1.0230838398683772e-11
    vertex 19.645015210178638 53.377528691923615 0.20000000001020266
    vertex 19.645015210178638 53.377528691923615 1.0202638733858293e-11
  endloop
endfacet
facet normal 0.9752418888633512 -0.22114081081121856 -7.676970032239235e-18
  outer loop
    vertex 19.645015210178638 53.377528691923615 0.20000000001020266
    vertex 20.32886390348553 56.393335176990156 1.0230838398683772e-11
    vertex 20.32886390348553 56.393335176990156 0.20000000001023086
  endloop
endfacet
facet normal 0.7718084218419646 -0.6358551407150971 7.177932201651606e-16
  outer loop
    vertex 37.78096480918282 47.12440887721145 1.0016520946010131e-11
    vertex 35.73517115770324 44.64120056692394 0.20000000000995452
    vertex 35.73517115770324 44.64120056692394 9.954481683394079e-12
  endloop
endfacet
facet normal 0.7718084218419646 -0.6358551407150971 7.177932201651606e-16
  outer loop
    vertex 35.73517115770324 44.64120056692394 0.20000000000995452
    vertex 37.78096480918282 47.12440887721145 1.0016520946010131e-11
    vertex 37.78096480918282 47.12440887721145 0.20000000001001655
  endloop
endfacet
facet normal 0.15597916926041897 0.9877603447986915 -2.292970563806822e-16
  outer loop
    vertex 23.42014224972449 47.75249736414443 0.200000000009994
    vertex 25.998764173120957 47.34530212942375 1.0016520946010131e-11
    vertex 23.42014224972449 47.75249736414443 9.993961214149748e-12
  endloop
endfacet
facet normal 0.15597916926041897 0.9877603447986915 -2.292970563806822e-16
  outer loop
    vertex 25.998764173120957 47.34530212942375 1.0016520946010131e-11
    vertex 23.42014224972449 47.75249736414443 0.200000000009994
    vertex 25.998764173120957 47.34530212942375 0.20000000001001655
  endloop
endfacet
facet normal 0.9849022205908323 0.17311157059898524 5.31634736102326e-17
  outer loop
    vertex 19.645015210178638 53.377528691923615 1.0202638733858293e-11
    vertex 20.082353169940227 50.88933494365212 0.20000000001015192
    vertex 20.082353169940227 50.88933494365212 1.0151879337172431e-11
  endloop
endfacet
facet normal 0.9849022205908323 0.17311157059898524 5.31634736102326e-17
  outer loop
    vertex 20.082353169940227 50.88933494365212 0.20000000001015192
    vertex 19.645015210178638 53.377528691923615 1.0202638733858293e-11
    vertex 19.645015210178638 53.377528691923615 0.20000000001020266
  endloop
endfacet
facet normal -0.0 1.0 -0.0
  outer loop
    vertex 14.481525797989194 69.85717125276422 0.20000000001015192
    vertex 30.52160291438159 69.85717125276422 1.0151879337172431e-11
    vertex 14.481525797989194 69.85717125276422 1.0151879337172431e-11
  endloop
endfacet
facet normal -0.0 1.0 -0.0
  outer loop
    vertex 30.52160291438159 69.85717125276422 1.0151879337172431e-11
    vertex 14.481525797989194 69.85717125276422 0.20000000001015192
    vertex 30.52160291438159 69.85717125276422 0.20000000001015192
  endloop
endfacet
facet normal 0.7751066905324265 -0.6318303714541342 -3.154054892438878e-16
  outer loop
    vertex 30.52160291438159 69.85717125276422 1.0151879337172431e-11
    vertex 28.98841581937886 67.97631267289005 0.20000000001049031
    vertex 28.98841581937886 67.97631267289005 1.0490275315078179e-11
  endloop
endfacet
facet normal 0.7751066905324265 -0.6318303714541342 -3.154054892438878e-16
  outer loop
    vertex 28.98841581937886 67.97631267289005 0.20000000001049031
    vertex 30.52160291438159 69.85717125276422 1.0151879337172431e-11
    vertex 30.52160291438159 69.85717125276422 0.20000000001015192
  endloop
endfacet
facet normal 0.9063322812304426 0.42256572979788837 1.5449731760784738e-16
  outer loop
    vertex 37.51957446073139 60.555025407908026 1.0354916923915879e-11
    vertex 39.01244469026702 57.35307033842524 0.20000000001028725
    vertex 39.01244469026702 57.35307033842524 1.028723772833473e-11
  endloop
endfacet
facet normal 0.9063322812304426 0.42256572979788837 1.5449731760784738e-16
  outer loop
    vertex 39.01244469026702 57.35307033842524 0.20000000001028725
    vertex 37.51957446073139 60.555025407908026 1.0354916923915879e-11
    vertex 37.51957446073139 60.555025407908026 0.20000000001035495
  endloop
endfacet
facet normal 0.5484955499142213 0.8361534737859407 4.453960630751908e-16
  outer loop
    vertex 28.98841581937886 67.97631267289005 1.0490275315078179e-11
    vertex 32.33226458794398 65.78283237693466 0.20000000001041135
    vertex 32.33226458794398 65.78283237693466 1.0411316253566837e-11
  endloop
endfacet
facet normal 0.5484955499142213 0.8361534737859407 4.453960630751908e-16
  outer loop
    vertex 32.33226458794398 65.78283237693466 0.20000000001041135
    vertex 28.98841581937886 67.97631267289005 1.0490275315078179e-11
    vertex 28.98841581937886 67.97631267289005 0.20000000001049031
  endloop
endfacet
facet normal -0.6972030668008657 0.7168736873700049 -0.0
  outer loop
    vertex 21.97789339048629 63.39004321109107 1.000000000008977
    vertex 26.360783669801194 67.65266938642293 0.800000000008977
    vertex 21.97789339048629 63.39004321109107 0.800000000008977
  endloop
endfacet
facet normal -0.6972030668008657 0.7168736873700049 -0.0
  outer loop
    vertex 26.360783669801194 67.65266938642293 0.800000000008977
    vertex 21.97789339048629 63.39004321109107 1.000000000008977
    vertex 26.360783669801194 67.65266938642293 1.000000000008977
  endloop
endfacet
facet normal -0.5102694460757018 -0.8600145884818446 6.36608037154892e-16
  outer loop
    vertex 18.98225347143827 66.90040863590767 0.20000000001048465
    vertex 15.986163924227366 68.67806796183523 1.0495915248043274e-11
    vertex 18.98225347143827 66.90040863590767 1.0484635382113083e-11
  endloop
endfacet
facet normal -0.5102694460757018 -0.8600145884818446 6.36608037154892e-16
  outer loop
    vertex 15.986163924227366 68.67806796183523 1.0495915248043274e-11
    vertex 18.98225347143827 66.90040863590767 0.20000000001048465
    vertex 15.986163924227366 68.67806796183523 0.20000000001049595
  endloop
endfacet
facet normal 0.10474962044263122 -0.9944986259503452 -2.657259745409231e-17
  outer loop
    vertex 29.833946565612933 41.62033194482762 0.20000000000989812
    vertex 26.1595253733425 41.23330855918052 9.954481683394079e-12
    vertex 29.833946565612933 41.62033194482762 9.89808235374312e-12
  endloop
endfacet
facet normal 0.10474962044263122 -0.9944986259503452 -2.657259745409231e-17
  outer loop
    vertex 26.1595253733425 41.23330855918052 9.954481683394079e-12
    vertex 29.833946565612933 41.62033194482762 0.20000000000989812
    vertex 26.1595253733425 41.23330855918052 0.20000000000995452
  endloop
endfacet
facet normal 0.5163969409865402 0.856349344216333 -5.851228951062708e-17
  outer loop
    vertex 21.394367049227164 48.97408306830648 1.0027800811940323e-11
    vertex 23.42014224972449 47.75249736414443 0.200000000009994
    vertex 23.42014224972449 47.75249736414443 9.993961214149748e-12
  endloop
endfacet
facet normal 0.5163969409865402 0.856349344216333 -5.851228951062708e-17
  outer loop
    vertex 23.42014224972449 47.75249736414443 0.200000000009994
    vertex 21.394367049227164 48.97408306830648 1.0027800811940323e-11
    vertex 21.394367049227164 48.97408306830648 0.20000000001002782
  endloop
endfacet
facet normal 0.8249902788269301 0.565146918810555 -2.2388775356197736e-16
  outer loop
    vertex 20.082353169940227 50.88933494365212 1.0151879337172431e-11
    vertex 21.394367049227164 48.97408306830648 0.20000000001002782
    vertex 21.394367049227164 48.97408306830648 1.0027800811940323e-11
  endloop
endfacet
facet normal 0.8249902788269301 0.565146918810555 -2.2388775356197736e-16
  outer loop
    vertex 21.394367049227164 48.97408306830648 0.20000000001002782
    vertex 20.082353169940227 50.88933494365212 1.0151879337172431e-11
    vertex 20.082353169940227 50.88933494365212 0.20000000001015192
  endloop
endfacet
facet normal 0.5702428710653712 -0.8214761518139906 8.562141120773323e-17
  outer loop
    vertex 35.73517115770324 44.64120056692394 9.954481683394079e-12
    vertex 33.05599678512278 42.781402101769 0.20000000000994886
    vertex 33.05599678512278 42.781402101769 9.948841750428982e-12
  endloop
endfacet
facet normal 0.5702428710653712 -0.8214761518139906 8.562141120773323e-17
  outer loop
    vertex 33.05599678512278 42.781402101769 0.20000000000994886
    vertex 35.73517115770324 44.64120056692394 9.954481683394079e-12
    vertex 35.73517115770324 44.64120056692394 0.20000000000995452
  endloop
endfacet
facet normal -0.8458048554416991 0.5334924052985632 0.0
  outer loop
    vertex 21.97789339048629 63.39004321109107 1.000000000008977
    vertex 17.031725318030382 55.548332757551115 0.800000000008977
    vertex 17.031725318030382 55.548332757551115 1.000000000008977
  endloop
endfacet
facet normal -0.8458048554416991 0.5334924052985632 0.0
  outer loop
    vertex 17.031725318030382 55.548332757551115 0.800000000008977
    vertex 21.97789339048629 63.39004321109107 1.000000000008977
    vertex 21.97789339048629 63.39004321109107 0.800000000008977
  endloop
endfacet
facet normal -0.9102023087936715 -0.4141639253564582 -1.7477873196899007e-16
  outer loop
    vertex 13.105654556140603 49.838711412816984 0.20000000001008422
    vertex 14.477953885510436 46.822828228704815 9.982681348219558e-12
    vertex 14.477953885510436 46.822828228704815 0.20000000000998272
  endloop
endfacet
facet normal -0.9102023087936715 -0.4141639253564582 -1.7477873196899007e-16
  outer loop
    vertex 14.477953885510436 46.822828228704815 9.982681348219558e-12
    vertex 13.105654556140603 49.838711412816984 0.20000000001008422
    vertex 13.105654556140603 49.838711412816984 1.0084200141591281e-11
  endloop
endfacet
facet normal -0.748012437062632 -0.6636847097829075 3.821415331368226e-16
  outer loop
    vertex 14.477953885510436 46.822828228704815 0.20000000000998272
    vertex 16.614252411160162 44.4150917795899 9.943201817463886e-12
    vertex 16.614252411160162 44.4150917795899 0.20000000000994322
  endloop
endfacet
facet normal -0.748012437062632 -0.6636847097829075 3.821415331368226e-16
  outer loop
    vertex 16.614252411160162 44.4150917795899 9.943201817463886e-12
    vertex 14.477953885510436 46.822828228704815 0.20000000000998272
    vertex 14.477953885510436 46.822828228704815 9.982681348219558e-12
  endloop
endfacet
facet normal -0.5172433860211924 -0.8558383489989987 4.816545499970248e-16
  outer loop
    vertex 26.86362261476923 62.16355779867136 1.0360556856880975e-11
    vertex 25.152578648065717 63.1976621666329 0.20000000001032112
    vertex 25.152578648065717 63.1976621666329 1.0321077326125305e-11
  endloop
endfacet
facet normal -0.5172433860211924 -0.8558383489989987 4.816545499970248e-16
  outer loop
    vertex 25.152578648065717 63.1976621666329 0.20000000001032112
    vertex 26.86362261476923 62.16355779867136 1.0360556856880975e-11
    vertex 26.86362261476923 62.16355779867136 0.20000000001036058
  endloop
endfacet
facet normal -0.5199064845768573 0.8542231835386663 1.4105583365639707e-16
  outer loop
    vertex 28.497005496406473 47.772592514172125 0.20000000000997142
    vertex 30.603161297014932 49.05446366841707 1.0095480007521473e-11
    vertex 28.497005496406473 47.772592514172125 9.971401482289365e-12
  endloop
endfacet
facet normal -0.5199064845768573 0.8542231835386663 1.4105583365639707e-16
  outer loop
    vertex 30.603161297014932 49.05446366841707 1.0095480007521473e-11
    vertex 28.497005496406473 47.772592514172125 0.20000000000997142
    vertex 30.603161297014932 49.05446366841707 0.20000000001009552
  endloop
endfacet
facet normal -0.9919296537783648 -0.12678943944640422 1.6994098557653293e-16
  outer loop
    vertex 12.64822144635114 53.41741219579525 0.20000000001021395
    vertex 13.105654556140603 49.838711412816984 1.0084200141591281e-11
    vertex 13.105654556140603 49.838711412816984 0.20000000001008422
  endloop
endfacet
facet normal -0.9919296537783648 -0.12678943944640422 1.6994098557653293e-16
  outer loop
    vertex 13.105654556140603 49.838711412816984 1.0084200141591281e-11
    vertex 12.64822144635114 53.41741219579525 0.20000000001021395
    vertex 12.64822144635114 53.41741219579525 1.0213918599788484e-11
  endloop
endfacet
facet normal -0.8406571357887325 -0.5415677058757149 0.0
  outer loop
    vertex 31.628474142698654 60.09259782945389 1.000000000008977
    vertex 37.01704231194728 51.72810667901134 0.800000000008977
    vertex 37.01704231194728 51.72810667901134 1.000000000008977
  endloop
endfacet
facet normal -0.8406571357887325 -0.5415677058757149 0.0
  outer loop
    vertex 37.01704231194728 51.72810667901134 0.800000000008977
    vertex 31.628474142698654 60.09259782945389 1.000000000008977
    vertex 31.628474142698654 60.09259782945389 0.800000000008977
  endloop
endfacet
facet normal 0.8458048554417827 0.533492405298431 -0.0
  outer loop
    vertex 37.94172600940346 63.39004321109107 0.800000000008977
    vertex 42.88789408185765 55.548332757551115 1.000000000008977
    vertex 42.88789408185765 55.548332757551115 0.800000000008977
  endloop
endfacet
facet normal 0.8458048554417827 0.533492405298431 -0.0
  outer loop
    vertex 42.88789408185765 55.548332757551115 1.000000000008977
    vertex 37.94172600940346 63.39004321109107 0.800000000008977
    vertex 37.94172600940346 63.39004321109107 1.000000000008977
  endloop
endfacet
facet normal -0.0 1.0 -0.0
  outer loop
    vertex 11.402015348451513 69.85708552303754 1.0000000000090163
    vertex 48.59798465154802 69.85708552303754 0.8000000000090164
    vertex 11.402015348451513 69.85708552303754 0.8000000000090164
  endloop
endfacet
facet normal -0.0 1.0 -0.0
  outer loop
    vertex 48.59798465154802 69.85708552303754 0.8000000000090164
    vertex 11.402015348451513 69.85708552303754 1.0000000000090163
    vertex 48.59798465154802 69.85708552303754 1.0000000000090163
  endloop
endfacet
facet normal 0.9914227961198826 0.13069368513372775 6.709643715244842e-17
  outer loop
    vertex 39.01244469026702 57.35307033842524 1.028723772833473e-11
    vertex 39.51006810011223 53.57817339601643 0.20000000001025342
    vertex 39.51006810011223 53.57817339601643 1.0253398130544155e-11
  endloop
endfacet
facet normal 0.9914227961198826 0.13069368513372775 6.709643715244842e-17
  outer loop
    vertex 39.51006810011223 53.57817339601643 0.20000000001025342
    vertex 39.01244469026702 57.35307033842524 1.028723772833473e-11
    vertex 39.01244469026702 57.35307033842524 0.20000000001028725
  endloop
endfacet
facet normal 0.3390120748115251 -0.94078202211351 -2.408460623672379e-18
  outer loop
    vertex 33.05599678512278 42.781402101769 9.948841750428982e-12
    vertex 29.833946565612933 41.62033194482762 0.20000000000989812
    vertex 29.833946565612933 41.62033194482762 9.89808235374312e-12
  endloop
endfacet
facet normal 0.3390120748115251 -0.94078202211351 -2.408460623672379e-18
  outer loop
    vertex 29.833946565612933 41.62033194482762 0.20000000000989812
    vertex 33.05599678512278 42.781402101769 9.948841750428982e-12
    vertex 33.05599678512278 42.781402101769 0.20000000000994886
  endloop
endfacet
facet normal -0.31490098809203204 -0.9491245269713885 2.000859880602161e-16
  outer loop
    vertex 22.59064206823977 41.59018921978617 9.943201817463886e-12
    vertex 19.36368310979148 42.6608312016032 0.20000000000992632
    vertex 19.36368310979148 42.6608312016032 9.9262820185686e-12
  endloop
endfacet
facet normal -0.31490098809203204 -0.9491245269713885 2.000859880602161e-16
  outer loop
    vertex 19.36368310979148 42.6608312016032 0.20000000000992632
    vertex 22.59064206823977 41.59018921978617 9.943201817463886e-12
    vertex 22.59064206823977 41.59018921978617 0.20000000000994322
  endloop
endfacet
facet normal -0.16858835045280424 0.9856865465712732 -4.762715517625921e-19
  outer loop
    vertex 25.998764173120957 47.34530212942375 1.0016520946010131e-11
    vertex 28.497005496406473 47.772592514172125 0.20000000000997142
    vertex 28.497005496406473 47.772592514172125 9.971401482289365e-12
  endloop
endfacet
facet normal -0.16858835045280424 0.9856865465712732 -4.762715517625921e-19
  outer loop
    vertex 28.497005496406473 47.772592514172125 0.20000000000997142
    vertex 25.998764173120957 47.34530212942375 1.0016520946010131e-11
    vertex 25.998764173120957 47.34530212942375 0.20000000001001655
  endloop
endfacet
facet normal 1.0 -0.0 -0.0
  outer loop
    vertex 48.59798465154802 69.85708552303754 0.8000000000090164
    vertex 48.59798465154802 66.32546909604685 1.000000000008977
    vertex 48.59798465154802 66.32546909604685 0.800000000008977
  endloop
endfacet
facet normal 1.0 -0.0 -0.0
  outer loop
    vertex 48.59798465154802 66.32546909604685 1.000000000008977
    vertex 48.59798465154802 69.85708552303754 0.8000000000090164
    vertex 48.59798465154802 69.85708552303754 1.0000000000090163
  endloop
endfacet
facet normal 0.8430711380049725 -0.5378020604860126 -1.196550687979173e-16
  outer loop
    vertex 22.701625587667525 60.112932107299685 1.0354916923915879e-11
    vertex 20.32886390348553 56.393335176990156 0.20000000001023086
    vertex 20.32886390348553 56.393335176990156 1.0230838398683772e-11
  endloop
endfacet
facet normal 0.8430711380049725 -0.5378020604860126 -1.196550687979173e-16
  outer loop
    vertex 20.32886390348553 56.393335176990156 0.20000000001023086
    vertex 22.701625587667525 60.112932107299685 1.0354916923915879e-11
    vertex 22.701625587667525 60.112932107299685 0.20000000001035495
  endloop
endfacet
facet normal -0.5378839935622439 -0.843018866615411 2.949254129924375e-16
  outer loop
    vertex 19.36368310979148 42.6608312016032 0.20000000000992632
    vertex 16.614252411160162 44.4150917795899 9.943201817463886e-12
    vertex 19.36368310979148 42.6608312016032 9.9262820185686e-12
  endloop
endfacet
facet normal -0.5378839935622439 -0.843018866615411 2.949254129924375e-16
  outer loop
    vertex 16.614252411160162 44.4150917795899 9.943201817463886e-12
    vertex 19.36368310979148 42.6608312016032 0.20000000000992632
    vertex 16.614252411160162 44.4150917795899 0.20000000000994322
  endloop
endfacet
facet normal -0.5454070455849629 -0.8381713157978399 0.0
  outer loop
    vertex 22.902577087942287 51.72810667901134 1.000000000008977
    vertex 17.031725318030382 55.548332757551115 0.800000000008977
    vertex 22.902577087942287 51.72810667901134 0.800000000008977
  endloop
endfacet
facet normal -0.5454070455849629 -0.8381713157978399 0.0
  outer loop
    vertex 17.031725318030382 55.548332757551115 0.800000000008977
    vertex 22.902577087942287 51.72810667901134 1.000000000008977
    vertex 17.031725318030382 55.548332757551115 1.000000000008977
  endloop
endfacet
facet normal -0.9811679113572478 0.19315674909993788 -2.540785971476776e-17
  outer loop
    vertex 13.653592540101117 58.52434146847234 0.20000000001032112
    vertex 12.64822144635114 53.41741219579525 1.0213918599788484e-11
    vertex 12.64822144635114 53.41741219579525 0.20000000001021395
  endloop
endfacet
facet normal -0.9811679113572478 0.19315674909993788 -2.540785971476776e-17
  outer loop
    vertex 12.64822144635114 53.41741219579525 1.0213918599788484e-11
    vertex 13.653592540101117 58.52434146847234 0.20000000001032112
    vertex 13.653592540101117 58.52434146847234 1.0321077326125305e-11
  endloop
endfacet
facet normal 0.21353200458400984 -0.9769360690538222 0.0
  outer loop
    vertex 26.360783669801194 67.65266938642293 1.000000000008977
    vertex 20.288673603429423 66.32546909604685 0.800000000008977
    vertex 26.360783669801194 67.65266938642293 0.800000000008977
  endloop
endfacet
facet normal 0.21353200458400984 -0.9769360690538222 0.0
  outer loop
    vertex 20.288673603429423 66.32546909604685 0.800000000008977
    vertex 26.360783669801194 67.65266938642293 1.000000000008977
    vertex 20.288673603429423 66.32546909604685 1.000000000008977
  endloop
endfacet
facet normal -0.7954087232081948 0.6060733974068729 5.001424005567516e-16
  outer loop
    vertex 18.98225347143827 66.90040863590767 0.20000000001048465
    vertex 16.629208725111916 63.81228048948991 1.0422596119497029e-11
    vertex 16.629208725111916 63.81228048948991 0.20000000001042262
  endloop
endfacet
facet normal -0.7954087232081948 0.6060733974068729 5.001424005567516e-16
  outer loop
    vertex 16.629208725111916 63.81228048948991 1.0422596119497029e-11
    vertex 18.98225347143827 66.90040863590767 0.20000000001048465
    vertex 18.98225347143827 66.90040863590767 1.0484635382113083e-11
  endloop
endfacet
facet normal -0.9607527121716251 -0.27740624732486935 0.0
  outer loop
    vertex 29.979751451880016 65.80268839914416 1.000000000008977
    vertex 31.628474142698654 60.09259782945389 0.800000000008977
    vertex 31.628474142698654 60.09259782945389 1.000000000008977
  endloop
endfacet
facet normal -0.9607527121716251 -0.27740624732486935 0.0
  outer loop
    vertex 31.628474142698654 60.09259782945389 0.800000000008977
    vertex 29.979751451880016 65.80268839914416 1.000000000008977
    vertex 29.979751451880016 65.80268839914416 0.800000000008977
  endloop
endfacet
facet normal -0.883197136517826 -0.46900193821210673 -1.3551299729061456e-16
  outer loop
    vertex 30.96518079369589 58.463902620297475 0.20000000001031545
    vertex 32.12625095063763 56.27744291862459 1.0253398130544155e-11
    vertex 32.12625095063763 56.27744291862459 0.20000000001025342
  endloop
endfacet
facet normal -0.883197136517826 -0.46900193821210673 -1.3551299729061456e-16
  outer loop
    vertex 32.12625095063763 56.27744291862459 1.0253398130544155e-11
    vertex 30.96518079369589 58.463902620297475 0.20000000001031545
    vertex 30.96518079369589 58.463902620297475 1.0315437393160209e-11
  endloop
endfacet
facet normal 0.8406571357887284 -0.5415677058757212 -0.0
  outer loop
    vertex 28.29114525719101 60.09259782945389 0.800000000008977
    vertex 22.902577087942287 51.72810667901134 1.000000000008977
    vertex 22.902577087942287 51.72810667901134 0.800000000008977
  endloop
endfacet
facet normal 0.8406571357887284 -0.5415677058757212 -0.0
  outer loop
    vertex 22.902577087942287 51.72810667901134 1.000000000008977
    vertex 28.29114525719101 60.09259782945389 0.800000000008977
    vertex 28.29114525719101 60.09259782945389 1.000000000008977
  endloop
endfacet
facet normal 0.958947675928281 -0.2835830651356827 -0.0
  outer loop
    vertex 29.979751451880016 65.80268839914416 0.800000000008977
    vertex 28.29114525719101 60.09259782945389 1.000000000008977
    vertex 28.29114525719101 60.09259782945389 0.800000000008977
  endloop
endfacet
facet normal 0.958947675928281 -0.2835830651356827 -0.0
  outer loop
    vertex 28.29114525719101 60.09259782945389 1.000000000008977
    vertex 29.979751451880016 65.80268839914416 0.800000000008977
    vertex 29.979751451880016 65.80268839914416 1.000000000008977
  endloop
endfacet
facet normal 3.4665829780682603e-19 9.752903706266846e-16 -1.0
  outer loop
    vertex 21.97789339048629 63.39004321109107 0.800000000008977
    vertex 22.902577087942287 51.72810667901134 0.800000000008977
    vertex 17.031725318030382 55.548332757551115 0.800000000008977
  endloop
endfacet
facet normal 3.4665829780682603e-19 9.752903706266846e-16 -1.0
  outer loop
    vertex 22.902577087942287 51.72810667901134 0.800000000008977
    vertex 21.97789339048629 63.39004321109107 0.800000000008977
    vertex 26.360783669801194 67.65266938642293 0.800000000008977
  endloop
endfacet
facet normal 3.4665829780682603e-19 9.752903706266846e-16 -1.0
  outer loop
    vertex 22.902577087942287 51.72810667901134 0.800000000008977
    vertex 26.360783669801194 67.65266938642293 0.800000000008977
    vertex 28.29114525719101 60.09259782945389 0.800000000008977
  endloop
endfacet
facet normal 3.4665829780682603e-19 9.752903706266846e-16 -1.0
  outer loop
    vertex 48.59798465154802 69.85708552303754 0.8000000000090164
    vertex 11.402015348451513 66.32546909604685 0.800000000008977
    vertex 11.402015348451513 69.85708552303754 0.8000000000090164
  endloop
endfacet
facet normal 3.4665829780682603e-19 9.752903706266846e-16 -1.0
  outer loop
    vertex 11.402015348451513 66.32546909604685 0.800000000008977
    vertex 48.59798465154802 69.85708552303754 0.8000000000090164
    vertex 26.360783669801194 67.65266938642293 0.800000000008977
  endloop
endfacet
facet normal 3.4665829780682603e-19 9.752903706266846e-16 -1.0
  outer loop
    vertex 11.402015348451513 66.32546909604685 0.800000000008977
    vertex 26.360783669801194 67.65266938642293 0.800000000008977
    vertex 20.288673603429423 66.32546909604685 0.800000000008977
  endloop
endfacet
facet normal 3.4665829780682603e-19 9.752903706266846e-16 -1.0
  outer loop
    vertex 26.360783669801194 67.65266938642293 0.800000000008977
    vertex 48.59798465154802 69.85708552303754 0.8000000000090164
    vertex 33.598719233960466 67.65266938642293 0.800000000008977
  endloop
endfacet
facet normal 3.4665829780682603e-19 9.752903706266846e-16 -1.0
  outer loop
    vertex 26.360783669801194 67.65266938642293 0.800000000008977
    vertex 33.598719233960466 67.65266938642293 0.800000000008977
    vertex 29.979751451880016 65.80268839914416 0.800000000008977
  endloop
endfacet
facet normal 3.4665829780682603e-19 9.752903706266846e-16 -1.0
  outer loop
    vertex 26.360783669801194 67.65266938642293 0.800000000008977
    vertex 29.979751451880016 65.80268839914416 0.800000000008977
    vertex 28.29114525719101 60.09259782945389 0.800000000008977
  endloop
endfacet
facet normal 3.4665829780682603e-19 9.752903706266846e-16 -1.0
  outer loop
    vertex 29.979751451880016 65.80268839914416 0.800000000008977
    vertex 33.598719233960466 67.65266938642293 0.800000000008977
    vertex 31.628474142698654 60.09259782945389 0.800000000008977
  endloop
endfacet
facet normal 3.4665829780682603e-19 9.752903706266846e-16 -1.0
  outer loop
    vertex 33.598719233960466 67.65266938642293 0.800000000008977
    vertex 48.59798465154802 69.85708552303754 0.8000000000090164
    vertex 39.67082930033224 66.32546909604685 0.800000000008977
  endloop
endfacet
facet normal 3.4665829780682603e-19 9.752903706266846e-16 -1.0
  outer loop
    vertex 39.67082930033224 66.32546909604685 0.800000000008977
    vertex 48.59798465154802 69.85708552303754 0.8000000000090164
    vertex 48.59798465154802 66.32546909604685 0.800000000008977
  endloop
endfacet
facet normal 3.4665829780682603e-19 9.752903706266846e-16 -1.0
  outer loop
    vertex 33.598719233960466 67.65266938642293 0.800000000008977
    vertex 37.01704231194728 51.72810667901134 0.800000000008977
    vertex 31.628474142698654 60.09259782945389 0.800000000008977
  endloop
endfacet
facet normal 3.4665829780682603e-19 9.752903706266846e-16 -1.0
  outer loop
    vertex 37.01704231194728 51.72810667901134 0.800000000008977
    vertex 33.598719233960466 67.65266938642293 0.800000000008977
    vertex 37.94172600940346 63.39004321109107 0.800000000008977
  endloop
endfacet
facet normal 3.4665829780682603e-19 9.752903706266846e-16 -1.0
  outer loop
    vertex 37.01704231194728 51.72810667901134 0.800000000008977
    vertex 37.94172600940346 63.39004321109107 0.800000000008977
    vertex 42.88789408185765 55.548332757551115 0.800000000008977
  endloop
endfacet
facet normal 0.0 -1.0 0.0
  outer loop
    vertex 20.288673603429423 66.32546909604685 1.000000000008977
    vertex 11.402015348451513 66.32546909604685 0.800000000008977
    vertex 20.288673603429423 66.32546909604685 0.800000000008977
  endloop
endfacet
facet normal 0.0 -1.0 0.0
  outer loop
    vertex 11.402015348451513 66.32546909604685 0.800000000008977
    vertex 20.288673603429423 66.32546909604685 1.000000000008977
    vertex 11.402015348451513 66.32546909604685 1.000000000008977
  endloop
endfacet
facet normal -0.6697897884053795 -0.7425507655021824 3.5830560083304294e-16
  outer loop
    vertex 30.96518079369589 58.463902620297475 0.20000000001031545
    vertex 26.86362261476923 62.16355779867136 1.0360556856880975e-11
    vertex 30.96518079369589 58.463902620297475 1.0315437393160209e-11
  endloop
endfacet
facet normal -0.6697897884053795 -0.7425507655021824 3.5830560083304294e-16
  outer loop
    vertex 26.86362261476923 62.16355779867136 1.0360556856880975e-11
    vertex 30.96518079369589 58.463902620297475 0.20000000001031545
    vertex 26.86362261476923 62.16355779867136 0.20000000001036058
  endloop
endfacet
facet normal 0.7004715207433785 0.7136803546598847 -0.0
  outer loop
    vertex 33.598719233960466 67.65266938642293 1.000000000008977
    vertex 37.94172600940346 63.39004321109107 0.800000000008977
    vertex 33.598719233960466 67.65266938642293 0.800000000008977
  endloop
endfacet
facet normal 0.7004715207433785 0.7136803546598847 -0.0
  outer loop
    vertex 37.94172600940346 63.39004321109107 0.800000000008977
    vertex 33.598719233960466 67.65266938642293 1.000000000008977
    vertex 37.94172600940346 63.39004321109107 1.000000000008977
  endloop
endfacet
facet normal 0.0 -1.0 0.0
  outer loop
    vertex 48.59798465154802 66.32546909604685 1.000000000008977
    vertex 39.67082930033224 66.32546909604685 0.800000000008977
    vertex 48.59798465154802 66.32546909604685 0.800000000008977
  endloop
endfacet
facet normal 0.0 -1.0 0.0
  outer loop
    vertex 39.67082930033224 66.32546909604685 0.800000000008977
    vertex 48.59798465154802 66.32546909604685 1.000000000008977
    vertex 39.67082930033224 66.32546909604685 1.000000000008977
  endloop
endfacet
facet normal 0.6479786954540264 0.7616584603598243 -8.344432779678807e-16
  outer loop
    vertex 32.33226458794398 65.78283237693466 1.0411316253566837e-11
    vertex 35.227500172844096 63.319719216674656 0.20000000001040005
    vertex 35.227500172844096 63.319719216674656 1.0400036387636646e-11
  endloop
endfacet
facet normal 0.6479786954540264 0.7616584603598243 -8.344432779678807e-16
  outer loop
    vertex 35.227500172844096 63.319719216674656 0.20000000001040005
    vertex 32.33226458794398 65.78283237693466 1.0411316253566837e-11
    vertex 32.33226458794398 65.78283237693466 0.20000000001041135
  endloop
endfacet
facet normal -0.8178123270257092 0.5754850108949795 -6.756455115883048e-17
  outer loop
    vertex 32.035746076467305 51.09028644392869 0.20000000001019702
    vertex 30.603161297014932 49.05446366841707 1.0095480007521473e-11
    vertex 30.603161297014932 49.05446366841707 0.20000000001009552
  endloop
endfacet
facet normal -0.8178123270257092 0.5754850108949795 -6.756455115883048e-17
  outer loop
    vertex 30.603161297014932 49.05446366841707 1.0095480007521473e-11
    vertex 32.035746076467305 51.09028644392869 0.20000000001019702
    vertex 32.035746076467305 51.09028644392869 1.0196998800893197e-11
  endloop
endfacet
facet normal -0.9845966879402313 0.17484096229753265 -1.0263560940704747e-17
  outer loop
    vertex 32.51327433628464 53.77943169247693 0.20000000001024215
    vertex 32.035746076467305 51.09028644392869 1.0196998800893197e-11
    vertex 32.035746076467305 51.09028644392869 0.20000000001019702
  endloop
endfacet
facet normal -0.9845966879402313 0.17484096229753265 -1.0263560940704747e-17
  outer loop
    vertex 32.035746076467305 51.09028644392869 1.0196998800893197e-11
    vertex 32.51327433628464 53.77943169247693 0.20000000001024215
    vertex 32.51327433628464 53.77943169247693 1.0242118264613963e-11
  endloop
endfacet
facet normal 0.545407045585063 -0.8381713157977747 0.0
  outer loop
    vertex 42.88789408185765 55.548332757551115 1.000000000008977
    vertex 37.01704231194728 51.72810667901134 0.800000000008977
    vertex 42.88789408185765 55.548332757551115 0.800000000008977
  endloop
endfacet
facet normal 0.545407045585063 -0.8381713157977747 0.0
  outer loop
    vertex 37.01704231194728 51.72810667901134 0.800000000008977
    vertex 42.88789408185765 55.548332757551115 1.000000000008977
    vertex 37.01704231194728 51.72810667901134 1.000000000008977
  endloop
endfacet
facet normal -0.21353200458400984 -0.9769360690538222 0.0
  outer loop
    vertex 39.67082930033224 66.32546909604685 1.000000000008977
    vertex 33.598719233960466 67.65266938642293 0.800000000008977
    vertex 39.67082930033224 66.32546909604685 0.800000000008977
  endloop
endfacet
facet normal -0.21353200458400984 -0.9769360690538222 0.0
  outer loop
    vertex 33.598719233960466 67.65266938642293 0.800000000008977
    vertex 39.67082930033224 66.32546909604685 1.000000000008977
    vertex 33.598719233960466 67.65266938642293 1.000000000008977
  endloop
endfacet
facet normal -1.0 0.0 0.0
  outer loop
    vertex 11.402015348451513 69.85708552303754 1.0000000000090163
    vertex 11.402015348451513 66.32546909604685 0.800000000008977
    vertex 11.402015348451513 66.32546909604685 1.000000000008977
  endloop
endfacet
facet normal -1.0 0.0 0.0
  outer loop
    vertex 11.402015348451513 66.32546909604685 0.800000000008977
    vertex 11.402015348451513 69.85708552303754 1.0000000000090163
    vertex 11.402015348451513 69.85708552303754 0.8000000000090164
  endloop
endfacet
facet normal -3.4665829780685747e-19 -9.752903706266852e-16 1.0
  outer loop
    vertex 22.902577087942287 51.72810667901134 1.000000000008977
    vertex 21.97789339048629 63.39004321109107 1.000000000008977
    vertex 17.031725318030382 55.548332757551115 1.000000000008977
  endloop
endfacet
facet normal -3.4665829780685747e-19 -9.752903706266852e-16 1.0
  outer loop
    vertex 21.97789339048629 63.39004321109107 1.000000000008977
    vertex 22.902577087942287 51.72810667901134 1.000000000008977
    vertex 26.360783669801194 67.65266938642293 1.000000000008977
  endloop
endfacet
facet normal -3.4665829780685747e-19 -9.752903706266852e-16 1.0
  outer loop
    vertex 26.360783669801194 67.65266938642293 1.000000000008977
    vertex 22.902577087942287 51.72810667901134 1.000000000008977
    vertex 28.29114525719101 60.09259782945389 1.000000000008977
  endloop
endfacet
facet normal -3.4665829780685747e-19 -9.752903706266852e-16 1.0
  outer loop
    vertex 37.01704231194728 51.72810667901134 1.000000000008977
    vertex 33.598719233960466 67.65266938642293 1.000000000008977
    vertex 31.628474142698654 60.09259782945389 1.000000000008977
  endloop
endfacet
facet normal -3.4665829780685747e-19 -9.752903706266852e-16 1.0
  outer loop
    vertex 33.598719233960466 67.65266938642293 1.000000000008977
    vertex 37.01704231194728 51.72810667901134 1.000000000008977
    vertex 37.94172600940346 63.39004321109107 1.000000000008977
  endloop
endfacet
facet normal -3.4665829780685747e-19 -9.752903706266852e-16 1.0
  outer loop
    vertex 37.94172600940346 63.39004321109107 1.000000000008977
    vertex 37.01704231194728 51.72810667901134 1.000000000008977
    vertex 42.88789408185765 55.548332757551115 1.000000000008977
  endloop
endfacet
facet normal -3.4665829780685747e-19 -9.752903706266852e-16 1.0
  outer loop
    vertex 20.288673603429423 66.32546909604685 1.000000000008977
    vertex 11.402015348451513 69.85708552303754 1.0000000000090163
    vertex 11.402015348451513 66.32546909604685 1.000000000008977
  endloop
endfacet
facet normal -3.4665829780685747e-19 -9.752903706266852e-16 1.0
  outer loop
    vertex 11.402015348451513 69.85708552303754 1.0000000000090163
    vertex 20.288673603429423 66.32546909604685 1.000000000008977
    vertex 26.360783669801194 67.65266938642293 1.000000000008977
  endloop
endfacet
facet normal -3.4665829780685747e-19 -9.752903706266852e-16 1.0
  outer loop
    vertex 11.402015348451513 69.85708552303754 1.0000000000090163
    vertex 26.360783669801194 67.65266938642293 1.000000000008977
    vertex 48.59798465154802 69.85708552303754 1.0000000000090163
  endloop
endfacet
facet normal -3.4665829780685747e-19 -9.752903706266852e-16 1.0
  outer loop
    vertex 48.59798465154802 69.85708552303754 1.0000000000090163
    vertex 26.360783669801194 67.65266938642293 1.000000000008977
    vertex 33.598719233960466 67.65266938642293 1.000000000008977
  endloop
endfacet
facet normal -3.4665829780685747e-19 -9.752903706266852e-16 1.0
  outer loop
    vertex 33.598719233960466 67.65266938642293 1.000000000008977
    vertex 26.360783669801194 67.65266938642293 1.000000000008977
    vertex 29.979751451880016 65.80268839914416 1.000000000008977
  endloop
endfacet
facet normal -3.4665829780685747e-19 -9.752903706266852e-16 1.0
  outer loop
    vertex 29.979751451880016 65.80268839914416 1.000000000008977
    vertex 26.360783669801194 67.65266938642293 1.000000000008977
    vertex 28.29114525719101 60.09259782945389 1.000000000008977
  endloop
endfacet
facet normal -3.4665829780685747e-19 -9.752903706266852e-16 1.0
  outer loop
    vertex 33.598719233960466 67.65266938642293 1.000000000008977
    vertex 29.979751451880016 65.80268839914416 1.000000000008977
    vertex 31.628474142698654 60.09259782945389 1.000000000008977
  endloop
endfacet
facet normal -3.4665829780685747e-19 -9.752903706266852e-16 1.0
  outer loop
    vertex 48.59798465154802 69.85708552303754 1.0000000000090163
    vertex 33.598719233960466 67.65266938642293 1.000000000008977
    vertex 39.67082930033224 66.32546909604685 1.000000000008977
  endloop
endfacet
facet normal -3.4665829780685747e-19 -9.752903706266852e-16 1.0
  outer loop
    vertex 48.59798465154802 69.85708552303754 1.0000000000090163
    vertex 39.67082930033224 66.32546909604685 1.000000000008977
    vertex 48.59798465154802 66.32546909604685 1.000000000008977
  endloop
endfacet
facet normal -0.9882097846764396 -0.1531059158548263 1.085927209918587e-16
  outer loop
    vertex 32.12625095063763 56.27744291862459 0.20000000001025342
    vertex 32.51327433628464 53.77943169247693 1.0242118264613963e-11
    vertex 32.51327433628464 53.77943169247693 0.20000000001024215
  endloop
endfacet
facet normal -0.9882097846764396 -0.1531059158548263 1.085927209918587e-16
  outer loop
    vertex 32.51327433628464 53.77943169247693 1.0242118264613963e-11
    vertex 32.12625095063763 56.27744291862459 0.20000000001025342
    vertex 32.12625095063763 56.27744291862459 1.0253398130544155e-11
  endloop
endfacet
facet normal 1.1789682210209207e-15 1.75876377814101e-14 -1.0
  outer loop
    vertex 13.653592540101117 58.52434146847234 1.0321077326125305e-11
    vertex 13.105654556140603 49.838711412816984 1.0084200141591281e-11
    vertex 12.64822144635114 53.41741219579525 1.0213918599788484e-11
  endloop
endfacet
facet normal 1.1789682210209207e-15 1.75876377814101e-14 -1.0
  outer loop
    vertex 13.105654556140603 49.838711412816984 1.0084200141591281e-11
    vertex 13.653592540101117 58.52434146847234 1.0321077326125305e-11
    vertex 14.477953885510436 46.822828228704815 9.982681348219558e-12
  endloop
endfacet
facet normal 1.1789682210209207e-15 1.75876377814101e-14 -1.0
  outer loop
    vertex 14.477953885510436 46.822828228704815 9.982681348219558e-12
    vertex 13.653592540101117 58.52434146847234 1.0321077326125305e-11
    vertex 16.629208725111916 63.81228048948991 1.0422596119497029e-11
  endloop
endfacet
facet normal 1.1789682210209207e-15 1.75876377814101e-14 -1.0
  outer loop
    vertex 14.477953885510436 46.822828228704815 9.982681348219558e-12
    vertex 16.629208725111916 63.81228048948991 1.0422596119497029e-11
    vertex 16.614252411160162 44.4150917795899 9.943201817463886e-12
  endloop
endfacet
facet normal 1.1789682210209207e-15 1.75876377814101e-14 -1.0
  outer loop
    vertex 16.614252411160162 44.4150917795899 9.943201817463886e-12
    vertex 16.629208725111916 63.81228048948991 1.0422596119497029e-11
    vertex 19.36368310979148 42.6608312016032 9.9262820185686e-12
  endloop
endfacet
facet normal 1.1789682210209207e-15 1.75876377814101e-14 -1.0
  outer loop
    vertex 19.36368310979148 42.6608312016032 9.9262820185686e-12
    vertex 16.629208725111916 63.81228048948991 1.0422596119497029e-11
    vertex 18.98225347143827 66.90040863590767 1.0484635382113083e-11
  endloop
endfacet
facet normal 1.1789682210209207e-15 1.75876377814101e-14 -1.0
  outer loop
    vertex 30.52160291438159 69.85717125276422 1.0151879337172431e-11
    vertex 15.986163924227366 68.67806796183523 1.0495915248043274e-11
    vertex 14.481525797989194 69.85717125276422 1.0151879337172431e-11
  endloop
endfacet
facet normal 1.1789682210209207e-15 1.75876377814101e-14 -1.0
  outer loop
    vertex 15.986163924227366 68.67806796183523 1.0495915248043274e-11
    vertex 30.52160291438159 69.85717125276422 1.0151879337172431e-11
    vertex 18.98225347143827 66.90040863590767 1.0484635382113083e-11
  endloop
endfacet
facet normal 1.1789682210209207e-15 1.75876377814101e-14 -1.0
  outer loop
    vertex 18.98225347143827 66.90040863590767 1.0484635382113083e-11
    vertex 30.52160291438159 69.85717125276422 1.0151879337172431e-11
    vertex 28.98841581937886 67.97631267289005 1.0490275315078179e-11
  endloop
endfacet
facet normal 1.1789682210209207e-15 1.75876377814101e-14 -1.0
  outer loop
    vertex 18.98225347143827 66.90040863590767 1.0484635382113083e-11
    vertex 28.98841581937886 67.97631267289005 1.0490275315078179e-11
    vertex 25.152578648065717 63.1976621666329 1.0321077326125305e-11
  endloop
endfacet
facet normal 1.1789682210209207e-15 1.75876377814101e-14 -1.0
  outer loop
    vertex 18.98225347143827 66.90040863590767 1.0484635382113083e-11
    vertex 25.152578648065717 63.1976621666329 1.0321077326125305e-11
    vertex 22.701625587667525 60.112932107299685 1.0354916923915879e-11
  endloop
endfacet
facet normal 1.1789682210209207e-15 1.75876377814101e-14 -1.0
  outer loop
    vertex 18.98225347143827 66.90040863590767 1.0484635382113083e-11
    vertex 22.701625587667525 60.112932107299685 1.0354916923915879e-11
    vertex 20.32886390348553 56.393335176990156 1.0230838398683772e-11
  endloop
endfacet
facet normal 1.1789682210209207e-15 1.75876377814101e-14 -1.0
  outer loop
    vertex 18.98225347143827 66.90040863590767 1.0484635382113083e-11
    vertex 20.32886390348553 56.393335176990156 1.0230838398683772e-11
    vertex 19.645015210178638 53.377528691923615 1.0202638733858293e-11
  endloop
endfacet
facet normal 1.1789682210209207e-15 1.75876377814101e-14 -1.0
  outer loop
    vertex 18.98225347143827 66.90040863590767 1.0484635382113083e-11
    vertex 19.645015210178638 53.377528691923615 1.0202638733858293e-11
    vertex 19.36368310979148 42.6608312016032 9.9262820185686e-12
  endloop
endfacet
facet normal 1.1789682210209207e-15 1.75876377814101e-14 -1.0
  outer loop
    vertex 25.152578648065717 63.1976621666329 1.0321077326125305e-11
    vertex 28.98841581937886 67.97631267289005 1.0490275315078179e-11
    vertex 26.86362261476923 62.16355779867136 1.0360556856880975e-11
  endloop
endfacet
facet normal 1.1789682210209207e-15 1.75876377814101e-14 -1.0
  outer loop
    vertex 28.98841581937886 67.97631267289005 1.0490275315078179e-11
    vertex 30.96518079369589 58.463902620297475 1.0315437393160209e-11
    vertex 26.86362261476923 62.16355779867136 1.0360556856880975e-11
  endloop
endfacet
facet normal 1.1789682210209207e-15 1.75876377814101e-14 -1.0
  outer loop
    vertex 30.96518079369589 58.463902620297475 1.0315437393160209e-11
    vertex 28.98841581937886 67.97631267289005 1.0490275315078179e-11
    vertex 32.33226458794398 65.78283237693466 1.0411316253566837e-11
  endloop
endfacet
facet normal 1.1789682210209207e-15 1.75876377814101e-14 -1.0
  outer loop
    vertex 30.96518079369589 58.463902620297475 1.0315437393160209e-11
    vertex 32.33226458794398 65.78283237693466 1.0411316253566837e-11
    vertex 32.12625095063763 56.27744291862459 1.0253398130544155e-11
  endloop
endfacet
facet normal 1.1789682210209207e-15 1.75876377814101e-14 -1.0
  outer loop
    vertex 32.12625095063763 56.27744291862459 1.0253398130544155e-11
    vertex 32.33226458794398 65.78283237693466 1.0411316253566837e-11
    vertex 32.51327433628464 53.77943169247693 1.0242118264613963e-11
  endloop
endfacet
facet normal 1.1789682210209207e-15 1.75876377814101e-14 -1.0
  outer loop
    vertex 32.51327433628464 53.77943169247693 1.0242118264613963e-11
    vertex 32.33226458794398 65.78283237693466 1.0411316253566837e-11
    vertex 35.227500172844096 63.319719216674656 1.0400036387636646e-11
  endloop
endfacet
facet normal 1.1789682210209207e-15 1.75876377814101e-14 -1.0
  outer loop
    vertex 32.51327433628464 53.77943169247693 1.0242118264613963e-11
    vertex 35.227500172844096 63.319719216674656 1.0400036387636646e-11
    vertex 33.05599678512278 42.781402101769 9.948841750428982e-12
  endloop
endfacet
facet normal 1.1789682210209207e-15 1.75876377814101e-14 -1.0
  outer loop
    vertex 33.05599678512278 42.781402101769 9.948841750428982e-12
    vertex 35.227500172844096 63.319719216674656 1.0400036387636646e-11
    vertex 35.73517115770324 44.64120056692394 9.954481683394079e-12
  endloop
endfacet
facet normal 1.1789682210209207e-15 1.75876377814101e-14 -1.0
  outer loop
    vertex 35.73517115770324 44.64120056692394 9.954481683394079e-12
    vertex 35.227500172844096 63.319719216674656 1.0400036387636646e-11
    vertex 37.51957446073139 60.555025407908026 1.0354916923915879e-11
  endloop
endfacet
facet normal 1.1789682210209207e-15 1.75876377814101e-14 -1.0
  outer loop
    vertex 35.73517115770324 44.64120056692394 9.954481683394079e-12
    vertex 37.51957446073139 60.555025407908026 1.0354916923915879e-11
    vertex 37.78096480918282 47.12440887721145 1.0016520946010131e-11
  endloop
endfacet
facet normal 1.1789682210209207e-15 1.75876377814101e-14 -1.0
  outer loop
    vertex 37.78096480918282 47.12440887721145 1.0016520946010131e-11
    vertex 37.51957446073139 60.555025407908026 1.0354916923915879e-11
    vertex 39.01244469026702 57.35307033842524 1.028723772833473e-11
  endloop
endfacet
facet normal 1.1789682210209207e-15 1.75876377814101e-14 -1.0
  outer loop
    vertex 37.78096480918282 47.12440887721145 1.0016520946010131e-11
    vertex 39.01244469026702 57.35307033842524 1.028723772833473e-11
    vertex 39.07779227737969 50.135306623339645 1.0095480007521473e-11
  endloop
endfacet
facet normal 1.1789682210209207e-15 1.75876377814101e-14 -1.0
  outer loop
    vertex 39.07779227737969 50.135306623339645 1.0095480007521473e-11
    vertex 39.01244469026702 57.35307033842524 1.028723772833473e-11
    vertex 39.51006810011223 53.57817339601643 1.0253398130544155e-11
  endloop
endfacet
facet normal 1.1789682210209207e-15 1.75876377814101e-14 -1.0
  outer loop
    vertex 19.36368310979148 42.6608312016032 9.9262820185686e-12
    vertex 20.082353169940227 50.88933494365212 1.0151879337172431e-11
    vertex 22.59064206823977 41.59018921978617 9.943201817463886e-12
  endloop
endfacet
facet normal 1.1789682210209207e-15 1.75876377814101e-14 -1.0
  outer loop
    vertex 20.082353169940227 50.88933494365212 1.0151879337172431e-11
    vertex 19.36368310979148 42.6608312016032 9.9262820185686e-12
    vertex 19.645015210178638 53.377528691923615 1.0202638733858293e-11
  endloop
endfacet
facet normal 1.1789682210209207e-15 1.75876377814101e-14 -1.0
  outer loop
    vertex 22.59064206823977 41.59018921978617 9.943201817463886e-12
    vertex 20.082353169940227 50.88933494365212 1.0151879337172431e-11
    vertex 21.394367049227164 48.97408306830648 1.0027800811940323e-11
  endloop
endfacet
facet normal 1.1789682210209207e-15 1.75876377814101e-14 -1.0
  outer loop
    vertex 22.59064206823977 41.59018921978617 9.943201817463886e-12
    vertex 21.394367049227164 48.97408306830648 1.0027800811940323e-11
    vertex 23.42014224972449 47.75249736414443 9.993961214149748e-12
  endloop
endfacet
facet normal 1.1789682210209207e-15 1.75876377814101e-14 -1.0
  outer loop
    vertex 22.59064206823977 41.59018921978617 9.943201817463886e-12
    vertex 23.42014224972449 47.75249736414443 9.993961214149748e-12
    vertex 26.1595253733425 41.23330855918052 9.954481683394079e-12
  endloop
endfacet
facet normal 1.1789682210209207e-15 1.75876377814101e-14 -1.0
  outer loop
    vertex 26.1595253733425 41.23330855918052 9.954481683394079e-12
    vertex 23.42014224972449 47.75249736414443 9.993961214149748e-12
    vertex 25.998764173120957 47.34530212942375 1.0016520946010131e-11
  endloop
endfacet
facet normal 1.1789682210209207e-15 1.75876377814101e-14 -1.0
  outer loop
    vertex 26.1595253733425 41.23330855918052 9.954481683394079e-12
    vertex 25.998764173120957 47.34530212942375 1.0016520946010131e-11
    vertex 28.497005496406473 47.772592514172125 9.971401482289365e-12
  endloop
endfacet
facet normal 1.1789682210209207e-15 1.75876377814101e-14 -1.0
  outer loop
    vertex 26.1595253733425 41.23330855918052 9.954481683394079e-12
    vertex 28.497005496406473 47.772592514172125 9.971401482289365e-12
    vertex 29.833946565612933 41.62033194482762 9.89808235374312e-12
  endloop
endfacet
facet normal 1.1789682210209207e-15 1.75876377814101e-14 -1.0
  outer loop
    vertex 29.833946565612933 41.62033194482762 9.89808235374312e-12
    vertex 28.497005496406473 47.772592514172125 9.971401482289365e-12
    vertex 30.603161297014932 49.05446366841707 1.0095480007521473e-11
  endloop
endfacet
facet normal 1.1789682210209207e-15 1.75876377814101e-14 -1.0
  outer loop
    vertex 29.833946565612933 41.62033194482762 9.89808235374312e-12
    vertex 30.603161297014932 49.05446366841707 1.0095480007521473e-11
    vertex 33.05599678512278 42.781402101769 9.948841750428982e-12
  endloop
endfacet
facet normal 1.1789682210209207e-15 1.75876377814101e-14 -1.0
  outer loop
    vertex 33.05599678512278 42.781402101769 9.948841750428982e-12
    vertex 30.603161297014932 49.05446366841707 1.0095480007521473e-11
    vertex 32.035746076467305 51.09028644392869 1.0196998800893197e-11
  endloop
endfacet
facet normal 1.1789682210209207e-15 1.75876377814101e-14 -1.0
  outer loop
    vertex 33.05599678512278 42.781402101769 9.948841750428982e-12
    vertex 32.035746076467305 51.09028644392869 1.0196998800893197e-11
    vertex 32.51327433628464 53.77943169247693 1.0242118264613963e-11
  endloop
endfacet
facet normal -1.1789682210209201e-15 -1.7587637781410098e-14 1.0
  outer loop
    vertex 13.105654556140603 49.838711412816984 0.20000000001008422
    vertex 13.653592540101117 58.52434146847234 0.20000000001032112
    vertex 12.64822144635114 53.41741219579525 0.20000000001021395
  endloop
endfacet
facet normal -1.1789682210209201e-15 -1.7587637781410098e-14 1.0
  outer loop
    vertex 13.653592540101117 58.52434146847234 0.20000000001032112
    vertex 13.105654556140603 49.838711412816984 0.20000000001008422
    vertex 14.477953885510436 46.822828228704815 0.20000000000998272
  endloop
endfacet
facet normal -1.1789682210209201e-15 -1.7587637781410098e-14 1.0
  outer loop
    vertex 13.653592540101117 58.52434146847234 0.20000000001032112
    vertex 14.477953885510436 46.822828228704815 0.20000000000998272
    vertex 16.629208725111916 63.81228048948991 0.20000000001042262
  endloop
endfacet
facet normal -1.1789682210209201e-15 -1.7587637781410098e-14 1.0
  outer loop
    vertex 16.629208725111916 63.81228048948991 0.20000000001042262
    vertex 14.477953885510436 46.822828228704815 0.20000000000998272
    vertex 16.614252411160162 44.4150917795899 0.20000000000994322
  endloop
endfacet
facet normal -1.1789682210209201e-15 -1.7587637781410098e-14 1.0
  outer loop
    vertex 16.629208725111916 63.81228048948991 0.20000000001042262
    vertex 16.614252411160162 44.4150917795899 0.20000000000994322
    vertex 19.36368310979148 42.6608312016032 0.20000000000992632
  endloop
endfacet
facet normal -1.1789682210209201e-15 -1.7587637781410098e-14 1.0
  outer loop
    vertex 16.629208725111916 63.81228048948991 0.20000000001042262
    vertex 19.36368310979148 42.6608312016032 0.20000000000992632
    vertex 18.98225347143827 66.90040863590767 0.20000000001048465
  endloop
endfacet
facet normal -1.1789682210209201e-15 -1.7587637781410098e-14 1.0
  outer loop
    vertex 19.36368310979148 42.6608312016032 0.20000000000992632
    vertex 20.082353169940227 50.88933494365212 0.20000000001015192
    vertex 19.645015210178638 53.377528691923615 0.20000000001020266
  endloop
endfacet
facet normal -1.1789682210209201e-15 -1.7587637781410098e-14 1.0
  outer loop
    vertex 20.082353169940227 50.88933494365212 0.20000000001015192
    vertex 19.36368310979148 42.6608312016032 0.20000000000992632
    vertex 22.59064206823977 41.59018921978617 0.20000000000994322
  endloop
endfacet
facet normal -1.1789682210209201e-15 -1.7587637781410098e-14 1.0
  outer loop
    vertex 20.082353169940227 50.88933494365212 0.20000000001015192
    vertex 22.59064206823977 41.59018921978617 0.20000000000994322
    vertex 21.394367049227164 48.97408306830648 0.20000000001002782
  endloop
endfacet
facet normal -1.1789682210209201e-15 -1.7587637781410098e-14 1.0
  outer loop
    vertex 21.394367049227164 48.97408306830648 0.20000000001002782
    vertex 22.59064206823977 41.59018921978617 0.20000000000994322
    vertex 23.42014224972449 47.75249736414443 0.200000000009994
  endloop
endfacet
facet normal -1.1789682210209201e-15 -1.7587637781410098e-14 1.0
  outer loop
    vertex 23.42014224972449 47.75249736414443 0.200000000009994
    vertex 22.59064206823977 41.59018921978617 0.20000000000994322
    vertex 26.1595253733425 41.23330855918052 0.20000000000995452
  endloop
endfacet
facet normal -1.1789682210209201e-15 -1.7587637781410098e-14 1.0
  outer loop
    vertex 23.42014224972449 47.75249736414443 0.200000000009994
    vertex 26.1595253733425 41.23330855918052 0.20000000000995452
    vertex 25.998764173120957 47.34530212942375 0.20000000001001655
  endloop
endfacet
facet normal -1.1789682210209201e-15 -1.7587637781410098e-14 1.0
  outer loop
    vertex 25.998764173120957 47.34530212942375 0.20000000001001655
    vertex 26.1595253733425 41.23330855918052 0.20000000000995452
    vertex 28.497005496406473 47.772592514172125 0.20000000000997142
  endloop
endfacet
facet normal -1.1789682210209201e-15 -1.7587637781410098e-14 1.0
  outer loop
    vertex 28.497005496406473 47.772592514172125 0.20000000000997142
    vertex 26.1595253733425 41.23330855918052 0.20000000000995452
    vertex 29.833946565612933 41.62033194482762 0.20000000000989812
  endloop
endfacet
facet normal -1.1789682210209201e-15 -1.7587637781410098e-14 1.0
  outer loop
    vertex 28.497005496406473 47.772592514172125 0.20000000000997142
    vertex 29.833946565612933 41.62033194482762 0.20000000000989812
    vertex 30.603161297014932 49.05446366841707 0.20000000001009552
  endloop
endfacet
facet normal -1.1789682210209201e-15 -1.7587637781410098e-14 1.0
  outer loop
    vertex 30.603161297014932 49.05446366841707 0.20000000001009552
    vertex 29.833946565612933 41.62033194482762 0.20000000000989812
    vertex 33.05599678512278 42.781402101769 0.20000000000994886
  endloop
endfacet
facet normal -1.1789682210209201e-15 -1.7587637781410098e-14 1.0
  outer loop
    vertex 30.603161297014932 49.05446366841707 0.20000000001009552
    vertex 33.05599678512278 42.781402101769 0.20000000000994886
    vertex 32.035746076467305 51.09028644392869 0.20000000001019702
  endloop
endfacet
facet normal -1.1789682210209201e-15 -1.7587637781410098e-14 1.0
  outer loop
    vertex 32.035746076467305 51.09028644392869 0.20000000001019702
    vertex 33.05599678512278 42.781402101769 0.20000000000994886
    vertex 32.51327433628464 53.77943169247693 0.20000000001024215
  endloop
endfacet
facet normal -1.1789682210209201e-15 -1.7587637781410098e-14 1.0
  outer loop
    vertex 30.96518079369589 58.463902620297475 0.20000000001031545
    vertex 28.98841581937886 67.97631267289005 0.20000000001049031
    vertex 26.86362261476923 62.16355779867136 0.20000000001036058
  endloop
endfacet
facet normal -1.1789682210209201e-15 -1.7587637781410098e-14 1.0
  outer loop
    vertex 28.98841581937886 67.97631267289005 0.20000000001049031
    vertex 30.96518079369589 58.463902620297475 0.20000000001031545
    vertex 32.33226458794398 65.78283237693466 0.20000000001041135
  endloop
endfacet
facet normal -1.1789682210209201e-15 -1.7587637781410098e-14 1.0
  outer loop
    vertex 32.33226458794398 65.78283237693466 0.20000000001041135
    vertex 30.96518079369589 58.463902620297475 0.20000000001031545
    vertex 32.12625095063763 56.27744291862459 0.20000000001025342
  endloop
endfacet
facet normal -1.1789682210209201e-15 -1.7587637781410098e-14 1.0
  outer loop
    vertex 32.33226458794398 65.78283237693466 0.20000000001041135
    vertex 32.12625095063763 56.27744291862459 0.20000000001025342
    vertex 32.51327433628464 53.77943169247693 0.20000000001024215
  endloop
endfacet
facet normal -1.1789682210209201e-15 -1.7587637781410098e-14 1.0
  outer loop
    vertex 32.33226458794398 65.78283237693466 0.20000000001041135
    vertex 32.51327433628464 53.77943169247693 0.20000000001024215
    vertex 35.227500172844096 63.319719216674656 0.20000000001040005
  endloop
endfacet
facet normal -1.1789682210209201e-15 -1.7587637781410098e-14 1.0
  outer loop
    vertex 35.227500172844096 63.319719216674656 0.20000000001040005
    vertex 32.51327433628464 53.77943169247693 0.20000000001024215
    vertex 33.05599678512278 42.781402101769 0.20000000000994886
  endloop
endfacet
facet normal -1.1789682210209201e-15 -1.7587637781410098e-14 1.0
  outer loop
    vertex 35.227500172844096 63.319719216674656 0.20000000001040005
    vertex 33.05599678512278 42.781402101769 0.20000000000994886
    vertex 35.73517115770324 44.64120056692394 0.20000000000995452
  endloop
endfacet
facet normal -1.1789682210209201e-15 -1.7587637781410098e-14 1.0
  outer loop
    vertex 35.227500172844096 63.319719216674656 0.20000000001040005
    vertex 35.73517115770324 44.64120056692394 0.20000000000995452
    vertex 37.51957446073139 60.555025407908026 0.20000000001035495
  endloop
endfacet
facet normal -1.1789682210209201e-15 -1.7587637781410098e-14 1.0
  outer loop
    vertex 37.51957446073139 60.555025407908026 0.20000000001035495
    vertex 35.73517115770324 44.64120056692394 0.20000000000995452
    vertex 37.78096480918282 47.12440887721145 0.20000000001001655
  endloop
endfacet
facet normal -1.1789682210209201e-15 -1.7587637781410098e-14 1.0
  outer loop
    vertex 37.51957446073139 60.555025407908026 0.20000000001035495
    vertex 37.78096480918282 47.12440887721145 0.20000000001001655
    vertex 39.01244469026702 57.35307033842524 0.20000000001028725
  endloop
endfacet
facet normal -1.1789682210209201e-15 -1.7587637781410098e-14 1.0
  outer loop
    vertex 39.01244469026702 57.35307033842524 0.20000000001028725
    vertex 37.78096480918282 47.12440887721145 0.20000000001001655
    vertex 39.07779227737969 50.135306623339645 0.20000000001009552
  endloop
endfacet
facet normal -1.1789682210209201e-15 -1.7587637781410098e-14 1.0
  outer loop
    vertex 39.01244469026702 57.35307033842524 0.20000000001028725
    vertex 39.07779227737969 50.135306623339645 0.20000000001009552
    vertex 39.51006810011223 53.57817339601643 0.20000000001025342
  endloop
endfacet
facet normal -1.1789682210209201e-15 -1.7587637781410098e-14 1.0
  outer loop
    vertex 15.986163924227366 68.67806796183523 0.20000000001049595
    vertex 30.52160291438159 69.85717125276422 0.20000000001015192
    vertex 14.481525797989194 69.85717125276422 0.20000000001015192
  endloop
endfacet
facet normal -1.1789682210209201e-15 -1.7587637781410098e-14 1.0
  outer loop
    vertex 30.52160291438159 69.85717125276422 0.20000000001015192
    vertex 15.986163924227366 68.67806796183523 0.20000000001049595
    vertex 18.98225347143827 66.90040863590767 0.20000000001048465
  endloop
endfacet
facet normal -1.1789682210209201e-15 -1.7587637781410098e-14 1.0
  outer loop
    vertex 30.52160291438159 69.85717125276422 0.20000000001015192
    vertex 18.98225347143827 66.90040863590767 0.20000000001048465
    vertex 28.98841581937886 67.97631267289005 0.20000000001049031
  endloop
endfacet
facet normal -1.1789682210209201e-15 -1.7587637781410098e-14 1.0
  outer loop
    vertex 28.98841581937886 67.97631267289005 0.20000000001049031
    vertex 18.98225347143827 66.90040863590767 0.20000000001048465
    vertex 25.152578648065717 63.1976621666329 0.20000000001032112
  endloop
endfacet
facet normal -1.1789682210209201e-15 -1.7587637781410098e-14 1.0
  outer loop
    vertex 25.152578648065717 63.1976621666329 0.20000000001032112
    vertex 18.98225347143827 66.90040863590767 0.20000000001048465
    vertex 22.701625587667525 60.112932107299685 0.20000000001035495
  endloop
endfacet
facet normal -1.1789682210209201e-15 -1.7587637781410098e-14 1.0
  outer loop
    vertex 22.701625587667525 60.112932107299685 0.20000000001035495
    vertex 18.98225347143827 66.90040863590767 0.20000000001048465
    vertex 20.32886390348553 56.393335176990156 0.20000000001023086
  endloop
endfacet
facet normal -1.1789682210209201e-15 -1.7587637781410098e-14 1.0
  outer loop
    vertex 20.32886390348553 56.393335176990156 0.20000000001023086
    vertex 18.98225347143827 66.90040863590767 0.20000000001048465
    vertex 19.645015210178638 53.377528691923615 0.20000000001020266
  endloop
endfacet
facet normal -1.1789682210209201e-15 -1.7587637781410098e-14 1.0
  outer loop
    vertex 19.645015210178638 53.377528691923615 0.20000000001020266
    vertex 18.98225347143827 66.90040863590767 0.20000000001048465
    vertex 19.36368310979148 42.6608312016032 0.20000000000992632
  endloop
endfacet
facet normal -1.1789682210209201e-15 -1.7587637781410098e-14 1.0
  outer loop
    vertex 28.98841581937886 67.97631267289005 0.20000000001049031
    vertex 25.152578648065717 63.1976621666329 0.20000000001032112
    vertex 26.86362261476923 62.16355779867136 0.20000000001036058
  endloop
endfacet
endsolid Extra-Characters_1_export
