solid v1_flaps_250mmbed
facet normal -3.5649879743651194e-18 -7.881585853331634e-15 -1.0
  outer loop
    vertex 39.68090981573364 194.27004390173963 -1.6781347732426445e-11
    vertex 22.464655050042452 187.43401133813325 -1.6770067866496252e-11
    vertex 20.358076734653622 194.27004390173963 -1.6781347732426445e-11
  endloop
endfacet
facet normal -3.5649879743651194e-18 -7.881585853331634e-15 -1.0
  outer loop
    vertex 22.464655050042452 187.43401133813325 -1.6770067866496252e-11
    vertex 39.68090981573364 194.27004390173963 -1.6781347732426445e-11
    vertex 37.55363757752972 187.43401133813325 -1.6770067866496252e-11
  endloop
endfacet
facet normal -3.5649879743651194e-18 -7.881585853331634e-15 -1.0
  outer loop
    vertex 37.55363757752972 187.43401133813325 -1.6770067866496252e-11
    vertex 42.76781643062694 180.14291447696118 -1.646551148638108e-11
    vertex 35.28475605970331 180.14291447696118 -1.646551148638108e-11
  endloop
endfacet
facet normal -3.5649879743651194e-18 -7.881585853331634e-15 -1.0
  outer loop
    vertex 42.76781643062694 180.14291447696118 -1.646551148638108e-11
    vertex 37.55363757752972 187.43401133813325 -1.6770067866496252e-11
    vertex 39.68090981573364 194.27004390173963 -1.6781347732426445e-11
  endloop
endfacet
facet normal -3.5649879743651194e-18 -7.881585853331634e-15 -1.0
  outer loop
    vertex 42.76781643062694 180.14291447696118 -1.646551148638108e-11
    vertex 39.68090981573364 194.27004390173963 -1.6781347732426445e-11
    vertex 43.873016627488894 207.7414643248591 -1.6719308469810392e-11
  endloop
endfacet
facet normal -3.5649879743651194e-18 -7.881585853331634e-15 -1.0
  outer loop
    vertex 42.76781643062694 180.14291447696118 -1.646551148638108e-11
    vertex 43.873016627488894 207.7414643248591 -1.6719308469810392e-11
    vertex 51.87548828124976 207.7414643248591 -1.6719308469810392e-11
  endloop
endfacet
facet normal -3.5649879743651194e-18 -7.881585853331634e-15 -1.0
  outer loop
    vertex 16.2067503802542 207.7414643248591 -1.6719308469810392e-11
    vertex 17.192477753787887 180.14291447696118 -1.646551148638108e-11
    vertex 8.12451171874979 207.7414643248591 -1.6719308469810392e-11
  endloop
endfacet
facet normal -3.5649879743651194e-18 -7.881585853331634e-15 -1.0
  outer loop
    vertex 17.192477753787887 180.14291447696118 -1.646551148638108e-11
    vertex 16.2067503802542 207.7414643248591 -1.6719308469810392e-11
    vertex 20.358076734653622 194.27004390173963 -1.6781347732426445e-11
  endloop
endfacet
facet normal -3.5649879743651194e-18 -7.881585853331634e-15 -1.0
  outer loop
    vertex 17.192477753787887 180.14291447696118 -1.646551148638108e-11
    vertex 20.358076734653622 194.27004390173963 -1.6781347732426445e-11
    vertex 22.464655050042452 187.43401133813325 -1.6770067866496252e-11
  endloop
endfacet
facet normal -3.5649879743651194e-18 -7.881585853331634e-15 -1.0
  outer loop
    vertex 17.192477753787887 180.14291447696118 -1.646551148638108e-11
    vertex 22.464655050042452 187.43401133813325 -1.6770067866496252e-11
    vertex 24.711465082065267 180.14291447696118 -1.646551148638108e-11
  endloop
endfacet
facet normal 0.0 -1.0 1.1279865930190322e-12
  outer loop
    vertex 37.55363757752972 187.43401133813367 0.3999999999832749
    vertex 22.464655050042452 187.43401133813325 -1.6770067866496252e-11
    vertex 37.55363757752972 187.43401133813325 -1.6770067866496252e-11
  endloop
endfacet
facet normal 0.0 -1.0 1.1279865930190322e-12
  outer loop
    vertex 22.464655050042452 187.43401133813325 -1.6770067866496252e-11
    vertex 37.55363757752972 187.43401133813367 0.3999999999832749
    vertex 22.464655050042452 187.43401133813367 0.3999999999832749
  endloop
endfacet
facet normal -0.9548367044557678 0.29713106169508535 2.006252651922045e-13
  outer loop
    vertex 37.55363757752972 187.43401133813367 0.3999999999832749
    vertex 35.28475605970331 180.14291447696118 -1.646551148638108e-11
    vertex 35.28475605970331 180.14291447696021 0.3999999999835118
  endloop
endfacet
facet normal -0.9548367044557678 0.29713106169508535 2.006252651922045e-13
  outer loop
    vertex 35.28475605970331 180.14291447696118 -1.646551148638108e-11
    vertex 37.55363757752972 187.43401133813367 0.3999999999832749
    vertex 37.55363757752972 187.43401133813325 -1.6770067866496252e-11
  endloop
endfacet
facet normal 8.459421460140112e-18 -1.0007430785112343e-14 1.0
  outer loop
    vertex 17.192477753787887 180.14291447696021 0.3999999999835118
    vertex 16.2067503802542 207.741464324859 0.39999999998375996
    vertex 8.12451171874979 207.741464324859 0.39999999998375996
  endloop
endfacet
facet normal 8.459421460140112e-18 -1.0007430785112343e-14 1.0
  outer loop
    vertex 16.2067503802542 207.741464324859 0.39999999998375996
    vertex 17.192477753787887 180.14291447696021 0.3999999999835118
    vertex 20.358076734653622 194.27004390173963 0.3999999999830155
  endloop
endfacet
facet normal 8.459421460140112e-18 -1.0007430785112343e-14 1.0
  outer loop
    vertex 20.358076734653622 194.27004390173963 0.3999999999830155
    vertex 17.192477753787887 180.14291447696021 0.3999999999835118
    vertex 24.711465082065267 180.14291447696021 0.3999999999835118
  endloop
endfacet
facet normal 8.459421460140112e-18 -1.0007430785112343e-14 1.0
  outer loop
    vertex 20.358076734653622 194.27004390173963 0.3999999999830155
    vertex 24.711465082065267 180.14291447696021 0.3999999999835118
    vertex 22.464655050042452 187.43401133813367 0.3999999999832749
  endloop
endfacet
facet normal 8.459421460140112e-18 -1.0007430785112343e-14 1.0
  outer loop
    vertex 42.76781643062694 180.14291447696021 0.3999999999835118
    vertex 37.55363757752972 187.43401133813367 0.3999999999832749
    vertex 35.28475605970331 180.14291447696021 0.3999999999835118
  endloop
endfacet
facet normal 8.459421460140112e-18 -1.0007430785112343e-14 1.0
  outer loop
    vertex 37.55363757752972 187.43401133813367 0.3999999999832749
    vertex 42.76781643062694 180.14291447696021 0.3999999999835118
    vertex 39.68090981573364 194.27004390173963 0.3999999999830155
  endloop
endfacet
facet normal 8.459421460140112e-18 -1.0007430785112343e-14 1.0
  outer loop
    vertex 39.68090981573364 194.27004390173963 0.3999999999830155
    vertex 42.76781643062694 180.14291447696021 0.3999999999835118
    vertex 43.873016627488894 207.741464324859 0.39999999998375996
  endloop
endfacet
facet normal 8.459421460140112e-18 -1.0007430785112343e-14 1.0
  outer loop
    vertex 43.873016627488894 207.741464324859 0.39999999998375996
    vertex 42.76781643062694 180.14291447696021 0.3999999999835118
    vertex 51.87548828124976 207.741464324859 0.39999999998375996
  endloop
endfacet
facet normal 8.459421460140112e-18 -1.0007430785112343e-14 1.0
  outer loop
    vertex 22.464655050042452 187.43401133813367 0.3999999999832749
    vertex 39.68090981573364 194.27004390173963 0.3999999999830155
    vertex 20.358076734653622 194.27004390173963 0.3999999999830155
  endloop
endfacet
facet normal 8.459421460140112e-18 -1.0007430785112343e-14 1.0
  outer loop
    vertex 39.68090981573364 194.27004390173963 0.3999999999830155
    vertex 22.464655050042452 187.43401133813367 0.3999999999832749
    vertex 37.55363757752972 187.43401133813367 0.3999999999832749
  endloop
endfacet
facet normal 0.0 -1.0 -2.481570504642291e-12
  outer loop
    vertex 42.76781643062694 180.14291447696021 0.3999999999835118
    vertex 35.28475605970331 180.14291447696118 -1.646551148638108e-11
    vertex 42.76781643062694 180.14291447696118 -1.646551148638108e-11
  endloop
endfacet
facet normal 0.0 -1.0 -2.481570504642291e-12
  outer loop
    vertex 35.28475605970331 180.14291447696118 -1.646551148638108e-11
    vertex 42.76781643062694 180.14291447696021 0.3999999999835118
    vertex 35.28475605970331 180.14291447696021 0.3999999999835118
  endloop
endfacet
facet normal 0.9556538221735805 0.2944923974655825 1.9887466708970652e-13
  outer loop
    vertex 24.711465082065267 180.14291447696118 -1.646551148638108e-11
    vertex 22.464655050042452 187.43401133813367 0.3999999999832749
    vertex 24.711465082065267 180.14291447696021 0.3999999999835118
  endloop
endfacet
facet normal 0.9556538221735805 0.2944923974655825 1.9887466708970652e-13
  outer loop
    vertex 22.464655050042452 187.43401133813367 0.3999999999832749
    vertex 24.711465082065267 180.14291447696118 -1.646551148638108e-11
    vertex 22.464655050042452 187.43401133813325 -1.6770067866496252e-11
  endloop
endfacet
facet normal 0.0 -1.0 -2.481570504642291e-12
  outer loop
    vertex 24.711465082065267 180.14291447696021 0.3999999999835118
    vertex 17.192477753787887 180.14291447696118 -1.646551148638108e-11
    vertex 24.711465082065267 180.14291447696118 -1.646551148638108e-11
  endloop
endfacet
facet normal 0.0 -1.0 -2.481570504642291e-12
  outer loop
    vertex 17.192477753787887 180.14291447696118 -1.646551148638108e-11
    vertex 24.711465082065267 180.14291447696021 0.3999999999835118
    vertex 17.192477753787887 180.14291447696021 0.3999999999835118
  endloop
endfacet
facet normal 0.9496271090278968 -0.31338212105881075 -4.245641719423886e-13
  outer loop
    vertex 42.76781643062694 180.14291447696118 -1.646551148638108e-11
    vertex 51.87548828124976 207.741464324859 0.39999999998375996
    vertex 42.76781643062694 180.14291447696021 0.3999999999835118
  endloop
endfacet
facet normal 0.9496271090278968 -0.31338212105881075 -4.245641719423886e-13
  outer loop
    vertex 51.87548828124976 207.741464324859 0.39999999998375996
    vertex 42.76781643062694 180.14291447696118 -1.646551148638108e-11
    vertex 51.87548828124976 207.7414643248591 -1.6719308469810392e-11
  endloop
endfacet
facet normal -0.0 1.0 2.255973186035615e-13
  outer loop
    vertex 43.873016627488894 207.741464324859 0.39999999998375996
    vertex 51.87548828124976 207.7414643248591 -1.6719308469810392e-11
    vertex 43.873016627488894 207.7414643248591 -1.6719308469810392e-11
  endloop
endfacet
facet normal -0.0 1.0 2.255973186035615e-13
  outer loop
    vertex 51.87548828124976 207.7414643248591 -1.6719308469810392e-11
    vertex 43.873016627488894 207.741464324859 0.39999999998375996
    vertex 51.87548828124976 207.741464324859 0.39999999998375996
  endloop
endfacet
facet normal -0.9500330650502516 -0.3121492836948767 -4.2140057003434116e-13
  outer loop
    vertex 8.12451171874979 207.741464324859 0.39999999998375996
    vertex 17.192477753787887 180.14291447696118 -1.646551148638108e-11
    vertex 17.192477753787887 180.14291447696021 0.3999999999835118
  endloop
endfacet
facet normal -0.9500330650502516 -0.3121492836948767 -4.2140057003434116e-13
  outer loop
    vertex 17.192477753787887 180.14291447696118 -1.646551148638108e-11
    vertex 8.12451171874979 207.741464324859 0.39999999998375996
    vertex 8.12451171874979 207.7414643248591 -1.6719308469810392e-11
  endloop
endfacet
facet normal -0.0 1.0 -0.0
  outer loop
    vertex 20.358076734653622 194.27004390173963 0.3999999999830155
    vertex 39.68090981573364 194.27004390173963 -1.6781347732426445e-11
    vertex 20.358076734653622 194.27004390173963 -1.6781347732426445e-11
  endloop
endfacet
facet normal -0.0 1.0 -0.0
  outer loop
    vertex 39.68090981573364 194.27004390173963 -1.6781347732426445e-11
    vertex 20.358076734653622 194.27004390173963 0.3999999999830155
    vertex 39.68090981573364 194.27004390173963 0.3999999999830155
  endloop
endfacet
facet normal 0.9556538221735706 0.294492397465615 3.3981384074203583e-14
  outer loop
    vertex 16.2067503802542 207.7414643248591 -1.6719308469810392e-11
    vertex 20.358076734653622 194.27004390173963 0.3999999999830155
    vertex 20.358076734653622 194.27004390173963 -1.6781347732426445e-11
  endloop
endfacet
facet normal 0.9556538221735706 0.294492397465615 3.3981384074203583e-14
  outer loop
    vertex 20.358076734653622 194.27004390173963 0.3999999999830155
    vertex 16.2067503802542 207.7414643248591 -1.6719308469810392e-11
    vertex 16.2067503802542 207.741464324859 0.39999999998375996
  endloop
endfacet
facet normal -0.0 1.0 2.255973186035615e-13
  outer loop
    vertex 8.12451171874979 207.741464324859 0.39999999998375996
    vertex 16.2067503802542 207.7414643248591 -1.6719308469810392e-11
    vertex 8.12451171874979 207.7414643248591 -1.6719308469810392e-11
  endloop
endfacet
facet normal -0.0 1.0 2.255973186035615e-13
  outer loop
    vertex 16.2067503802542 207.7414643248591 -1.6719308469810392e-11
    vertex 8.12451171874979 207.741464324859 0.39999999998375996
    vertex 16.2067503802542 207.741464324859 0.39999999998375996
  endloop
endfacet
facet normal -0.9548367044557545 0.2971310616951282 3.382038359262546e-14
  outer loop
    vertex 43.873016627488894 207.741464324859 0.39999999998375996
    vertex 39.68090981573364 194.27004390173963 -1.6781347732426445e-11
    vertex 39.68090981573364 194.27004390173963 0.3999999999830155
  endloop
endfacet
facet normal -0.9548367044557545 0.2971310616951282 3.382038359262546e-14
  outer loop
    vertex 39.68090981573364 194.27004390173963 -1.6781347732426445e-11
    vertex 43.873016627488894 207.741464324859 0.39999999998375996
    vertex 43.873016627488894 207.7414643248591 -1.6719308469810392e-11
  endloop
endfacet
endsolid v1_flaps_250mmbed
