solid v1_flaps_250mmbed
facet normal 0.0 -0.9914448613737381 0.1305261922206009
  outer loop
    vertex 4.999999999999946 180.17698865067337 0.7588190450913446
    vertex 0.0 180.1429144769623 0.49999999998868927
    vertex 4.999999999999946 180.1429144769623 0.49999999998868927
  endloop
endfacet
facet normal 0.0 -0.9914448613737381 0.1305261922206009
  outer loop
    vertex 0.0 180.1429144769623 0.49999999998868927
    vertex 4.999999999999946 180.17698865067337 0.7588190450913446
    vertex 0.0 180.17698865067337 0.7588190450913446
  endloop
endfacet
facet normal 0.0 0.9238795325111262 -0.3826834323654777
  outer loop
    vertex 54.999999999999766 182.10884030325158 0.2411809548863244
    vertex 59.99999999999971 182.00893988074685 -1.1134990152150692e-11
    vertex 54.999999999999766 182.00893988074685 -1.1134990152150692e-11
  endloop
endfacet
facet normal 0.0 0.9238795325111262 -0.3826834323654777
  outer loop
    vertex 59.99999999999971 182.00893988074685 -1.1134990152150692e-11
    vertex 54.999999999999766 182.10884030325158 0.2411809548863244
    vertex 59.99999999999971 182.10884030325158 0.2411809548863244
  endloop
endfacet
facet normal -5.541485033612189e-19 -9.393271347862055e-15 -1.0
  outer loop
    vertex 4.999999999999946 182.00893988074685 -1.1134990152150692e-11
    vertex 0.0 180.27688907317824 -1.1120890319737952e-11
    vertex 0.0 182.00893988074685 -1.1134990152150692e-11
  endloop
endfacet
facet normal -5.541485033612189e-19 -9.393271347862055e-15 -1.0
  outer loop
    vertex 0.0 180.27688907317824 -1.1120890319737952e-11
    vertex 4.999999999999946 182.00893988074685 -1.1134990152150692e-11
    vertex 4.999999999999946 180.27688907317824 -1.1120890319737952e-11
  endloop
endfacet
facet normal -5.541485033612189e-19 -9.393271347862055e-15 -1.0
  outer loop
    vertex 4.999999999999946 214.52150010334353 -1.1309828074068662e-11
    vertex 8.12451171874979 207.7414643248591 -1.162002438714893e-11
    vertex 4.999999999999946 182.00893988074685 -1.1134990152150692e-11
  endloop
endfacet
facet normal -5.541485033612189e-19 -9.393271347862055e-15 -1.0
  outer loop
    vertex 8.12451171874979 207.7414643248591 -1.162002438714893e-11
    vertex 4.999999999999946 214.52150010334353 -1.1309828074068662e-11
    vertex 54.999999999999766 214.52150010334353 -1.1309828074068662e-11
  endloop
endfacet
facet normal -5.541485033612189e-19 -9.393271347862055e-15 -1.0
  outer loop
    vertex 4.999999999999946 182.00893988074685 -1.1134990152150692e-11
    vertex 8.12451171874979 207.7414643248591 -1.162002438714893e-11
    vertex 4.999999999999946 180.27688907317824 -1.1120890319737952e-11
  endloop
endfacet
facet normal -5.541485033612189e-19 -9.393271347862055e-15 -1.0
  outer loop
    vertex 4.999999999999946 180.27688907317824 -1.1120890319737952e-11
    vertex 8.12451171874979 207.7414643248591 -1.162002438714893e-11
    vertex 4.999999999999946 180.14291447696263 -1.1236508945522416e-11
  endloop
endfacet
facet normal -5.541485033612189e-19 -9.393271347862055e-15 -1.0
  outer loop
    vertex 8.12451171874979 207.7414643248591 -1.162002438714893e-11
    vertex 54.999999999999766 214.52150010334353 -1.1309828074068662e-11
    vertex 16.206750380254288 207.7414643248591 -1.162002438714893e-11
  endloop
endfacet
facet normal -5.541485033612189e-19 -9.393271347862055e-15 -1.0
  outer loop
    vertex 16.206750380254288 207.7414643248591 -1.162002438714893e-11
    vertex 54.999999999999766 214.52150010334353 -1.1309828074068662e-11
    vertex 20.358076734653437 194.27004390174062 -1.167360375031734e-11
  endloop
endfacet
facet normal -5.541485033612189e-19 -9.393271347862055e-15 -1.0
  outer loop
    vertex 20.358076734653437 194.27004390174062 -1.167360375031734e-11
    vertex 54.999999999999766 214.52150010334353 -1.1309828074068662e-11
    vertex 43.87301662748887 207.7414643248591 -1.162002438714893e-11
  endloop
endfacet
facet normal -5.541485033612189e-19 -9.393271347862055e-15 -1.0
  outer loop
    vertex 20.358076734653437 194.27004390174062 -1.167360375031734e-11
    vertex 43.87301662748887 207.7414643248591 -1.162002438714893e-11
    vertex 39.68090981573363 194.27004390174062 -1.167360375031734e-11
  endloop
endfacet
facet normal -5.541485033612189e-19 -9.393271347862055e-15 -1.0
  outer loop
    vertex 43.87301662748887 207.7414643248591 -1.162002438714893e-11
    vertex 54.999999999999766 214.52150010334353 -1.1309828074068662e-11
    vertex 51.87548828124992 207.7414643248591 -1.162002438714893e-11
  endloop
endfacet
facet normal -5.541485033612189e-19 -9.393271347862055e-15 -1.0
  outer loop
    vertex 59.99999999999971 182.00893988074685 -1.1134990152150692e-11
    vertex 54.999999999999766 180.27688907317824 -1.1120890319737952e-11
    vertex 54.999999999999766 182.00893988074685 -1.1134990152150692e-11
  endloop
endfacet
facet normal -5.541485033612189e-19 -9.393271347862055e-15 -1.0
  outer loop
    vertex 54.999999999999766 180.27688907317824 -1.1120890319737952e-11
    vertex 59.99999999999971 182.00893988074685 -1.1134990152150692e-11
    vertex 59.99999999999971 180.27688907317824 -1.1120890319737952e-11
  endloop
endfacet
facet normal -5.541485033612189e-19 -9.393271347862055e-15 -1.0
  outer loop
    vertex 51.87548828124992 207.7414643248591 -1.162002438714893e-11
    vertex 54.999999999999766 180.14291447696263 -1.1236508945522416e-11
    vertex 42.76781643062692 180.1429144769626 -1.1600284621771095e-11
  endloop
endfacet
facet normal -5.541485033612189e-19 -9.393271347862055e-15 -1.0
  outer loop
    vertex 54.999999999999766 180.14291447696263 -1.1236508945522416e-11
    vertex 51.87548828124992 207.7414643248591 -1.162002438714893e-11
    vertex 54.999999999999766 214.52150010334353 -1.1309828074068662e-11
  endloop
endfacet
facet normal -5.541485033612189e-19 -9.393271347862055e-15 -1.0
  outer loop
    vertex 54.999999999999766 180.14291447696263 -1.1236508945522416e-11
    vertex 54.999999999999766 214.52150010334353 -1.1309828074068662e-11
    vertex 54.999999999999766 182.00893988074685 -1.1134990152150692e-11
  endloop
endfacet
facet normal -5.541485033612189e-19 -9.393271347862055e-15 -1.0
  outer loop
    vertex 54.999999999999766 180.14291447696263 -1.1236508945522416e-11
    vertex 54.999999999999766 182.00893988074685 -1.1134990152150692e-11
    vertex 54.999999999999766 180.27688907317824 -1.1120890319737952e-11
  endloop
endfacet
facet normal -5.541485033612189e-19 -9.393271347862055e-15 -1.0
  outer loop
    vertex 17.192477753787976 180.1429144769626 -1.1600284621771095e-11
    vertex 4.999999999999946 180.14291447696263 -1.1236508945522416e-11
    vertex 8.12451171874979 207.7414643248591 -1.162002438714893e-11
  endloop
endfacet
facet normal 0.0 0.9914448613738204 -0.13052619221997727
  outer loop
    vertex 0.0 182.1429144769625 0.4999999999888669
    vertex 4.999999999999946 182.10884030325158 0.2411809548863244
    vertex 0.0 182.10884030325158 0.2411809548863244
  endloop
endfacet
facet normal 0.0 0.9914448613738204 -0.13052619221997727
  outer loop
    vertex 4.999999999999946 182.10884030325158 0.2411809548863244
    vertex 0.0 182.1429144769625 0.4999999999888669
    vertex 4.999999999999946 182.1429144769625 0.4999999999888669
  endloop
endfacet
facet normal 1.0 0.0 0.0
  outer loop
    vertex 54.999999999999766 180.17698865067337 0.7588190450913446
    vertex 54.999999999999766 180.14291447696232 0.9999999999887448
    vertex 54.999999999999766 180.1429144769623 0.49999999998868927
  endloop
endfacet
facet normal 1.0 0.0 0.0
  outer loop
    vertex 54.999999999999766 180.14291447696232 0.9999999999887448
    vertex 54.999999999999766 180.17698865067337 0.7588190450913446
    vertex 54.999999999999766 180.27688907317815 0.999999999988897
  endloop
endfacet
facet normal -1.0 0.0 0.0
  outer loop
    vertex 4.999999999999946 180.14291447696232 0.9999999999887448
    vertex 4.999999999999946 180.17698865067337 0.7588190450913446
    vertex 4.999999999999946 180.1429144769623 0.49999999998868927
  endloop
endfacet
facet normal -1.0 0.0 0.0
  outer loop
    vertex 4.999999999999946 180.17698865067337 0.7588190450913446
    vertex 4.999999999999946 180.14291447696232 0.9999999999887448
    vertex 4.999999999999946 180.27688907317815 0.999999999988897
  endloop
endfacet
facet normal -7.271600030621955e-19 -1.0 -3.079205456631589e-13
  outer loop
    vertex 54.999999999999766 180.14291447696263 -1.1236508945522416e-11
    vertex 42.767816430626745 180.1429144769626 0.3999999999880835
    vertex 42.76781643062692 180.1429144769626 -1.1600284621771095e-11
  endloop
endfacet
facet normal -7.271600030621955e-19 -1.0 -3.079205456631589e-13
  outer loop
    vertex 42.767816430626745 180.1429144769626 0.3999999999880835
    vertex 54.999999999999766 180.14291447696263 -1.1236508945522416e-11
    vertex 54.999999999999766 180.1429144769623 0.49999999998868927
  endloop
endfacet
facet normal -7.271600030621955e-19 -1.0 -3.079205456631589e-13
  outer loop
    vertex 42.767816430626745 180.1429144769626 0.3999999999880835
    vertex 54.999999999999766 180.1429144769623 0.49999999998868927
    vertex 35.284756059703106 180.1429144769626 0.3999999999880835
  endloop
endfacet
facet normal -7.271600030621955e-19 -1.0 -3.079205456631589e-13
  outer loop
    vertex 35.284756059703106 180.1429144769626 0.3999999999880835
    vertex 54.999999999999766 180.1429144769623 0.49999999998868927
    vertex 24.711465082065274 180.1429144769626 0.3999999999880835
  endloop
endfacet
facet normal -7.271600030621955e-19 -1.0 -3.079205456631589e-13
  outer loop
    vertex 24.711465082065274 180.1429144769626 0.3999999999880835
    vertex 54.999999999999766 180.1429144769623 0.49999999998868927
    vertex 17.192477753787976 180.1429144769626 0.3999999999880835
  endloop
endfacet
facet normal -7.271600030621955e-19 -1.0 -3.079205456631589e-13
  outer loop
    vertex 17.192477753787976 180.1429144769626 0.3999999999880835
    vertex 4.999999999999946 180.14291447696263 -1.1236508945522416e-11
    vertex 17.192477753787976 180.1429144769626 -1.1600284621771095e-11
  endloop
endfacet
facet normal -7.271600030621955e-19 -1.0 -3.079205456631589e-13
  outer loop
    vertex 4.999999999999946 180.14291447696263 -1.1236508945522416e-11
    vertex 17.192477753787976 180.1429144769626 0.3999999999880835
    vertex 4.999999999999946 180.1429144769623 0.49999999998868927
  endloop
endfacet
facet normal -7.271600030621955e-19 -1.0 -3.079205456631589e-13
  outer loop
    vertex 4.999999999999946 180.1429144769623 0.49999999998868927
    vertex 17.192477753787976 180.1429144769626 0.3999999999880835
    vertex 54.999999999999766 180.1429144769623 0.49999999998868927
  endloop
endfacet
facet normal -7.271600030621955e-19 -1.0 -3.079205456631589e-13
  outer loop
    vertex 4.999999999999946 180.1429144769623 0.49999999998868927
    vertex 54.999999999999766 180.1429144769623 0.49999999998868927
    vertex 54.999999999999766 180.14291447696232 0.9999999999887448
  endloop
endfacet
facet normal -7.271600030621955e-19 -1.0 -3.079205456631589e-13
  outer loop
    vertex 4.999999999999946 180.1429144769623 0.49999999998868927
    vertex 54.999999999999766 180.14291447696232 0.9999999999887448
    vertex 4.999999999999946 180.14291447696232 0.9999999999887448
  endloop
endfacet
facet normal -7.271600030621955e-19 -1.0 -3.079205456631589e-13
  outer loop
    vertex 35.284756059703106 180.1429144769626 0.3999999999880835
    vertex 24.711465082065274 180.1429144769626 -1.1600284621771095e-11
    vertex 35.284756059703106 180.1429144769626 -1.1600284621771095e-11
  endloop
endfacet
facet normal -7.271600030621955e-19 -1.0 -3.079205456631589e-13
  outer loop
    vertex 24.711465082065274 180.1429144769626 -1.1600284621771095e-11
    vertex 35.284756059703106 180.1429144769626 0.3999999999880835
    vertex 24.711465082065274 180.1429144769626 0.3999999999880835
  endloop
endfacet
facet normal 6.492480971447566e-16 9.171950766352581e-15 1.0
  outer loop
    vertex 59.99999999999971 180.27688907317815 0.999999999988897
    vertex 54.999999999999766 182.00893988074685 0.9999999999888463
    vertex 54.999999999999766 180.27688907317815 0.999999999988897
  endloop
endfacet
facet normal 6.492480971447566e-16 9.171950766352581e-15 1.0
  outer loop
    vertex 54.999999999999766 182.00893988074685 0.9999999999888463
    vertex 59.99999999999971 180.27688907317815 0.999999999988897
    vertex 59.99999999999971 182.00893988074685 0.9999999999888463
  endloop
endfacet
facet normal 6.492480971447566e-16 9.171950766352581e-15 1.0
  outer loop
    vertex 54.999999999999766 180.14291447696232 0.9999999999887448
    vertex 4.999999999999946 180.27688907317815 0.999999999988897
    vertex 4.999999999999946 180.14291447696232 0.9999999999887448
  endloop
endfacet
facet normal 6.492480971447566e-16 9.171950766352581e-15 1.0
  outer loop
    vertex 4.999999999999946 180.27688907317815 0.999999999988897
    vertex 54.999999999999766 180.14291447696232 0.9999999999887448
    vertex 4.999999999999946 182.00893988074694 0.9999999999889477
  endloop
endfacet
facet normal 6.492480971447566e-16 9.171950766352581e-15 1.0
  outer loop
    vertex 4.999999999999946 182.00893988074694 0.9999999999889477
    vertex 54.999999999999766 180.14291447696232 0.9999999999887448
    vertex 4.999999999999946 214.52150010334307 0.9999999999885529
  endloop
endfacet
facet normal 6.492480971447566e-16 9.171950766352581e-15 1.0
  outer loop
    vertex 4.999999999999946 214.52150010334307 0.9999999999885529
    vertex 54.999999999999766 180.14291447696232 0.9999999999887448
    vertex 54.999999999999766 214.52150010334307 0.9999999999885529
  endloop
endfacet
facet normal 6.492480971447566e-16 9.171950766352581e-15 1.0
  outer loop
    vertex 54.999999999999766 214.52150010334307 0.9999999999885529
    vertex 54.999999999999766 180.14291447696232 0.9999999999887448
    vertex 54.999999999999766 180.27688907317815 0.999999999988897
  endloop
endfacet
facet normal 6.492480971447566e-16 9.171950766352581e-15 1.0
  outer loop
    vertex 54.999999999999766 214.52150010334307 0.9999999999885529
    vertex 54.999999999999766 180.27688907317815 0.999999999988897
    vertex 54.999999999999766 182.00893988074685 0.9999999999888463
  endloop
endfacet
facet normal 6.492480971447566e-16 9.171950766352581e-15 1.0
  outer loop
    vertex 4.999999999999946 180.27688907317815 0.999999999988897
    vertex 0.0 182.00893988074694 0.9999999999889477
    vertex 0.0 180.27688907317815 0.999999999988897
  endloop
endfacet
facet normal 6.492480971447566e-16 9.171950766352581e-15 1.0
  outer loop
    vertex 0.0 182.00893988074694 0.9999999999889477
    vertex 4.999999999999946 180.27688907317815 0.999999999988897
    vertex 4.999999999999946 182.00893988074694 0.9999999999889477
  endloop
endfacet
facet normal 0.9500330650502442 0.31214928369489886 3.424889829978827e-14
  outer loop
    vertex 8.12451171874979 207.7414643248591 -1.162002438714893e-11
    vertex 17.192477753787976 180.1429144769626 0.3999999999880835
    vertex 17.192477753787976 180.1429144769626 -1.1600284621771095e-11
  endloop
endfacet
facet normal 0.9500330650502442 0.31214928369489886 3.424889829978827e-14
  outer loop
    vertex 17.192477753787976 180.1429144769626 0.3999999999880835
    vertex 8.12451171874979 207.7414643248591 -1.162002438714893e-11
    vertex 8.12451171874979 207.741464324859 0.39999999998841906
  endloop
endfacet
facet normal -0.955653822173569 -0.2944923974656204 3.34267271538292e-14
  outer loop
    vertex 22.464655050042264 187.43401133813498 0.39999999998834573
    vertex 24.711465082065274 180.1429144769626 -1.1600284621771095e-11
    vertex 24.711465082065274 180.1429144769626 0.3999999999880835
  endloop
endfacet
facet normal -0.955653822173569 -0.2944923974656204 3.34267271538292e-14
  outer loop
    vertex 24.711465082065274 180.1429144769626 -1.1600284621771095e-11
    vertex 22.464655050042264 187.43401133813498 0.39999999998834573
    vertex 22.464655050042264 187.4340113381349 -1.1569264990463067e-11
  endloop
endfacet
facet normal -0.9496271090278876 0.3133821210588384 -1.8051717209438e-13
  outer loop
    vertex 51.87548828124992 207.741464324859 0.39999999998841906
    vertex 42.76781643062692 180.1429144769626 -1.1600284621771095e-11
    vertex 42.767816430626745 180.1429144769626 0.3999999999880835
  endloop
endfacet
facet normal -0.9496271090278876 0.3133821210588384 -1.8051717209438e-13
  outer loop
    vertex 42.76781643062692 180.1429144769626 -1.1600284621771095e-11
    vertex 51.87548828124992 207.741464324859 0.39999999998841906
    vertex 51.87548828124992 207.7414643248591 -1.162002438714893e-11
  endloop
endfacet
facet normal 0.0 -1.0 -2.2559731860380977e-13
  outer loop
    vertex 16.206750380254288 207.741464324859 0.39999999998841906
    vertex 8.12451171874979 207.7414643248591 -1.162002438714893e-11
    vertex 16.206750380254288 207.7414643248591 -1.162002438714893e-11
  endloop
endfacet
facet normal 0.0 -1.0 -2.2559731860380977e-13
  outer loop
    vertex 8.12451171874979 207.7414643248591 -1.162002438714893e-11
    vertex 16.206750380254288 207.741464324859 0.39999999998841906
    vertex 8.12451171874979 207.741464324859 0.39999999998841906
  endloop
endfacet
facet normal -1.0 0.0 0.0
  outer loop
    vertex 4.999999999999946 214.52150010334307 0.9999999999885529
    vertex 4.999999999999946 182.1088403032514 0.7588190450914433
    vertex 4.999999999999946 182.00893988074694 0.9999999999889477
  endloop
endfacet
facet normal -1.0 0.0 0.0
  outer loop
    vertex 4.999999999999946 182.1088403032514 0.7588190450914433
    vertex 4.999999999999946 214.52150010334307 0.9999999999885529
    vertex 4.999999999999946 182.1429144769625 0.4999999999888669
  endloop
endfacet
facet normal -1.0 0.0 0.0
  outer loop
    vertex 4.999999999999946 182.10884030325158 0.2411809548863244
    vertex 4.999999999999946 214.52150010334353 -1.1309828074068662e-11
    vertex 4.999999999999946 182.00893988074685 -1.1134990152150692e-11
  endloop
endfacet
facet normal -1.0 0.0 0.0
  outer loop
    vertex 4.999999999999946 214.52150010334353 -1.1309828074068662e-11
    vertex 4.999999999999946 182.10884030325158 0.2411809548863244
    vertex 4.999999999999946 182.1429144769625 0.4999999999888669
  endloop
endfacet
facet normal -1.0 0.0 0.0
  outer loop
    vertex 4.999999999999946 214.52150010334353 -1.1309828074068662e-11
    vertex 4.999999999999946 182.1429144769625 0.4999999999888669
    vertex 4.999999999999946 214.52150010334307 0.9999999999885529
  endloop
endfacet
facet normal 0.0 1.0 4.5119463720772546e-13
  outer loop
    vertex 4.999999999999946 214.52150010334307 0.9999999999885529
    vertex 54.999999999999766 214.52150010334353 -1.1309828074068662e-11
    vertex 4.999999999999946 214.52150010334353 -1.1309828074068662e-11
  endloop
endfacet
facet normal 0.0 1.0 4.5119463720772546e-13
  outer loop
    vertex 54.999999999999766 214.52150010334353 -1.1309828074068662e-11
    vertex 4.999999999999946 214.52150010334307 0.9999999999885529
    vertex 54.999999999999766 214.52150010334307 0.9999999999885529
  endloop
endfacet
facet normal 0.0 -0.9238795325109412 -0.38268343236592406
  outer loop
    vertex 59.99999999999971 180.17698865067337 0.24118095488633567
    vertex 54.999999999999766 180.27688907317824 -1.1120890319737952e-11
    vertex 59.99999999999971 180.27688907317824 -1.1120890319737952e-11
  endloop
endfacet
facet normal 0.0 -0.9238795325109412 -0.38268343236592406
  outer loop
    vertex 54.999999999999766 180.27688907317824 -1.1120890319737952e-11
    vertex 59.99999999999971 180.17698865067337 0.24118095488633567
    vertex 54.999999999999766 180.17698865067337 0.24118095488633567
  endloop
endfacet
facet normal 0.0 0.991444861373733 0.13052619222064007
  outer loop
    vertex 54.999999999999766 182.1088403032514 0.7588190450914433
    vertex 59.99999999999971 182.1429144769625 0.4999999999888669
    vertex 54.999999999999766 182.1429144769625 0.4999999999888669
  endloop
endfacet
facet normal 0.0 0.991444861373733 0.13052619222064007
  outer loop
    vertex 59.99999999999971 182.1429144769625 0.4999999999888669
    vertex 54.999999999999766 182.1088403032514 0.7588190450914433
    vertex 59.99999999999971 182.1088403032514 0.7588190450914433
  endloop
endfacet
facet normal 0.0 -0.9238795325111173 0.3826834323654992
  outer loop
    vertex 4.999999999999946 180.27688907317815 0.999999999988897
    vertex 0.0 180.17698865067337 0.7588190450913446
    vertex 4.999999999999946 180.17698865067337 0.7588190450913446
  endloop
endfacet
facet normal 0.0 -0.9238795325111173 0.3826834323654992
  outer loop
    vertex 0.0 180.17698865067337 0.7588190450913446
    vertex 4.999999999999946 180.27688907317815 0.999999999988897
    vertex 0.0 180.27688907317815 0.999999999988897
  endloop
endfacet
facet normal 0.0 0.991444861373733 0.13052619222064007
  outer loop
    vertex 0.0 182.1088403032514 0.7588190450914433
    vertex 4.999999999999946 182.1429144769625 0.4999999999888669
    vertex 0.0 182.1429144769625 0.4999999999888669
  endloop
endfacet
facet normal 0.0 0.991444861373733 0.13052619222064007
  outer loop
    vertex 4.999999999999946 182.1429144769625 0.4999999999888669
    vertex 0.0 182.1088403032514 0.7588190450914433
    vertex 4.999999999999946 182.1088403032514 0.7588190450914433
  endloop
endfacet
facet normal 1.0 0.0 0.0
  outer loop
    vertex 54.999999999999766 214.52150010334353 -1.1309828074068662e-11
    vertex 54.999999999999766 182.10884030325158 0.2411809548863244
    vertex 54.999999999999766 182.00893988074685 -1.1134990152150692e-11
  endloop
endfacet
facet normal 1.0 0.0 0.0
  outer loop
    vertex 54.999999999999766 182.10884030325158 0.2411809548863244
    vertex 54.999999999999766 214.52150010334353 -1.1309828074068662e-11
    vertex 54.999999999999766 182.1429144769625 0.4999999999888669
  endloop
endfacet
facet normal 1.0 0.0 0.0
  outer loop
    vertex 54.999999999999766 182.1429144769625 0.4999999999888669
    vertex 54.999999999999766 214.52150010334353 -1.1309828074068662e-11
    vertex 54.999999999999766 214.52150010334307 0.9999999999885529
  endloop
endfacet
facet normal 1.0 0.0 0.0
  outer loop
    vertex 54.999999999999766 182.1088403032514 0.7588190450914433
    vertex 54.999999999999766 214.52150010334307 0.9999999999885529
    vertex 54.999999999999766 182.00893988074685 0.9999999999888463
  endloop
endfacet
facet normal 1.0 0.0 0.0
  outer loop
    vertex 54.999999999999766 214.52150010334307 0.9999999999885529
    vertex 54.999999999999766 182.1088403032514 0.7588190450914433
    vertex 54.999999999999766 182.1429144769625 0.4999999999888669
  endloop
endfacet
facet normal -1.0 0.0 0.0
  outer loop
    vertex 4.999999999999946 180.17698865067337 0.24118095488633567
    vertex 4.999999999999946 180.14291447696263 -1.1236508945522416e-11
    vertex 4.999999999999946 180.1429144769623 0.49999999998868927
  endloop
endfacet
facet normal -1.0 0.0 0.0
  outer loop
    vertex 4.999999999999946 180.14291447696263 -1.1236508945522416e-11
    vertex 4.999999999999946 180.17698865067337 0.24118095488633567
    vertex 4.999999999999946 180.27688907317824 -1.1120890319737952e-11
  endloop
endfacet
facet normal -5.38601506221188e-32 4.254453328307497e-15 -1.0
  outer loop
    vertex 37.55363757752987 187.4340113381349 -1.1569264990463067e-11
    vertex 24.711465082065274 180.1429144769626 -1.1600284621771095e-11
    vertex 22.464655050042264 187.4340113381349 -1.1569264990463067e-11
  endloop
endfacet
facet normal -5.38601506221188e-32 4.254453328307497e-15 -1.0
  outer loop
    vertex 24.711465082065274 180.1429144769626 -1.1600284621771095e-11
    vertex 37.55363757752987 187.4340113381349 -1.1569264990463067e-11
    vertex 35.284756059703106 180.1429144769626 -1.1600284621771095e-11
  endloop
endfacet
facet normal 0.0 0.9914448613738204 -0.13052619221997727
  outer loop
    vertex 54.999999999999766 182.1429144769625 0.4999999999888669
    vertex 59.99999999999971 182.10884030325158 0.2411809548863244
    vertex 54.999999999999766 182.10884030325158 0.2411809548863244
  endloop
endfacet
facet normal 0.0 0.9914448613738204 -0.13052619221997727
  outer loop
    vertex 59.99999999999971 182.10884030325158 0.2411809548863244
    vertex 54.999999999999766 182.1429144769625 0.4999999999888669
    vertex 59.99999999999971 182.1429144769625 0.4999999999888669
  endloop
endfacet
facet normal 0.9548367044557499 -0.29713106169514353 3.342091100016165e-14
  outer loop
    vertex 37.55363757752987 187.4340113381349 -1.1569264990463067e-11
    vertex 35.284756059703106 180.1429144769626 0.3999999999880835
    vertex 35.284756059703106 180.1429144769626 -1.1600284621771095e-11
  endloop
endfacet
facet normal 0.9548367044557499 -0.29713106169514353 3.342091100016165e-14
  outer loop
    vertex 35.284756059703106 180.1429144769626 0.3999999999880835
    vertex 37.55363757752987 187.4340113381349 -1.1569264990463067e-11
    vertex 37.55363757752987 187.43401133813498 0.39999999998834573
  endloop
endfacet
facet normal 0.0 -0.9238795325111173 0.3826834323654992
  outer loop
    vertex 59.99999999999971 180.27688907317815 0.999999999988897
    vertex 54.999999999999766 180.17698865067337 0.7588190450913446
    vertex 59.99999999999971 180.17698865067337 0.7588190450913446
  endloop
endfacet
facet normal 0.0 -0.9238795325111173 0.3826834323654992
  outer loop
    vertex 54.999999999999766 180.17698865067337 0.7588190450913446
    vertex 59.99999999999971 180.27688907317815 0.999999999988897
    vertex 54.999999999999766 180.27688907317815 0.999999999988897
  endloop
endfacet
facet normal 0.0 -0.9914448613737185 -0.1305261922207505
  outer loop
    vertex 59.99999999999971 180.1429144769623 0.49999999998868927
    vertex 54.999999999999766 180.17698865067337 0.24118095488633567
    vertex 59.99999999999971 180.17698865067337 0.24118095488633567
  endloop
endfacet
facet normal 0.0 -0.9914448613737185 -0.1305261922207505
  outer loop
    vertex 54.999999999999766 180.17698865067337 0.24118095488633567
    vertex 59.99999999999971 180.1429144769623 0.49999999998868927
    vertex 54.999999999999766 180.1429144769623 0.49999999998868927
  endloop
endfacet
facet normal -0.9556538221735695 -0.2944923974656178 -3.1438433821086546e-17
  outer loop
    vertex 20.358076734653437 194.27004390174073 0.3999999999882668
    vertex 16.206750380254288 207.7414643248591 -1.162002438714893e-11
    vertex 20.358076734653437 194.27004390174062 -1.167360375031734e-11
  endloop
endfacet
facet normal -0.9556538221735695 -0.2944923974656178 -3.1438433821086546e-17
  outer loop
    vertex 16.206750380254288 207.7414643248591 -1.162002438714893e-11
    vertex 20.358076734653437 194.27004390174073 0.3999999999882668
    vertex 16.206750380254288 207.741464324859 0.39999999998841906
  endloop
endfacet
facet normal 0.9548367044557481 -0.297131061695149 -2.6870123417750598e-17
  outer loop
    vertex 43.87301662748887 207.7414643248591 -1.162002438714893e-11
    vertex 39.68090981573363 194.27004390174073 0.3999999999882668
    vertex 39.68090981573363 194.27004390174062 -1.167360375031734e-11
  endloop
endfacet
facet normal 0.9548367044557481 -0.297131061695149 -2.6870123417750598e-17
  outer loop
    vertex 39.68090981573363 194.27004390174073 0.3999999999882668
    vertex 43.87301662748887 207.7414643248591 -1.162002438714893e-11
    vertex 43.87301662748887 207.741464324859 0.39999999998841906
  endloop
endfacet
facet normal 0.0 1.0 -2.255973186038797e-13
  outer loop
    vertex 22.464655050042264 187.43401133813498 0.39999999998834573
    vertex 37.55363757752987 187.4340113381349 -1.1569264990463067e-11
    vertex 22.464655050042264 187.4340113381349 -1.1569264990463067e-11
  endloop
endfacet
facet normal 0.0 1.0 -2.255973186038797e-13
  outer loop
    vertex 37.55363757752987 187.4340113381349 -1.1569264990463067e-11
    vertex 22.464655050042264 187.43401133813498 0.39999999998834573
    vertex 37.55363757752987 187.43401133813498 0.39999999998834573
  endloop
endfacet
facet normal 0.0 -1.0 2.2559731860386538e-13
  outer loop
    vertex 39.68090981573363 194.27004390174073 0.3999999999882668
    vertex 20.358076734653437 194.27004390174062 -1.167360375031734e-11
    vertex 39.68090981573363 194.27004390174062 -1.167360375031734e-11
  endloop
endfacet
facet normal 0.0 -1.0 2.2559731860386538e-13
  outer loop
    vertex 20.358076734653437 194.27004390174062 -1.167360375031734e-11
    vertex 39.68090981573363 194.27004390174073 0.3999999999882668
    vertex 20.358076734653437 194.27004390174073 0.3999999999882668
  endloop
endfacet
facet normal 0.0 -1.0 -2.2559731860380977e-13
  outer loop
    vertex 51.87548828124992 207.741464324859 0.39999999998841906
    vertex 43.87301662748887 207.7414643248591 -1.162002438714893e-11
    vertex 51.87548828124992 207.7414643248591 -1.162002438714893e-11
  endloop
endfacet
facet normal 0.0 -1.0 -2.2559731860380977e-13
  outer loop
    vertex 43.87301662748887 207.7414643248591 -1.162002438714893e-11
    vertex 51.87548828124992 207.741464324859 0.39999999998841906
    vertex 43.87301662748887 207.741464324859 0.39999999998841906
  endloop
endfacet
facet normal 1.3446846799562489e-18 1.0986717458503012e-14 -1.0
  outer loop
    vertex 16.206750380254288 207.741464324859 0.39999999998841906
    vertex 17.192477753787976 180.1429144769626 0.3999999999880835
    vertex 8.12451171874979 207.741464324859 0.39999999998841906
  endloop
endfacet
facet normal 1.3446846799562489e-18 1.0986717458503012e-14 -1.0
  outer loop
    vertex 17.192477753787976 180.1429144769626 0.3999999999880835
    vertex 16.206750380254288 207.741464324859 0.39999999998841906
    vertex 20.358076734653437 194.27004390174073 0.3999999999882668
  endloop
endfacet
facet normal 1.3446846799562489e-18 1.0986717458503012e-14 -1.0
  outer loop
    vertex 17.192477753787976 180.1429144769626 0.3999999999880835
    vertex 20.358076734653437 194.27004390174073 0.3999999999882668
    vertex 24.711465082065274 180.1429144769626 0.3999999999880835
  endloop
endfacet
facet normal 1.3446846799562489e-18 1.0986717458503012e-14 -1.0
  outer loop
    vertex 24.711465082065274 180.1429144769626 0.3999999999880835
    vertex 20.358076734653437 194.27004390174073 0.3999999999882668
    vertex 22.464655050042264 187.43401133813498 0.39999999998834573
  endloop
endfacet
facet normal 1.3446846799562489e-18 1.0986717458503012e-14 -1.0
  outer loop
    vertex 39.68090981573363 194.27004390174073 0.3999999999882668
    vertex 22.464655050042264 187.43401133813498 0.39999999998834573
    vertex 20.358076734653437 194.27004390174073 0.3999999999882668
  endloop
endfacet
facet normal 1.3446846799562489e-18 1.0986717458503012e-14 -1.0
  outer loop
    vertex 22.464655050042264 187.43401133813498 0.39999999998834573
    vertex 39.68090981573363 194.27004390174073 0.3999999999882668
    vertex 37.55363757752987 187.43401133813498 0.39999999998834573
  endloop
endfacet
facet normal 1.3446846799562489e-18 1.0986717458503012e-14 -1.0
  outer loop
    vertex 37.55363757752987 187.43401133813498 0.39999999998834573
    vertex 42.767816430626745 180.1429144769626 0.3999999999880835
    vertex 35.284756059703106 180.1429144769626 0.3999999999880835
  endloop
endfacet
facet normal 1.3446846799562489e-18 1.0986717458503012e-14 -1.0
  outer loop
    vertex 42.767816430626745 180.1429144769626 0.3999999999880835
    vertex 37.55363757752987 187.43401133813498 0.39999999998834573
    vertex 39.68090981573363 194.27004390174073 0.3999999999882668
  endloop
endfacet
facet normal 1.3446846799562489e-18 1.0986717458503012e-14 -1.0
  outer loop
    vertex 42.767816430626745 180.1429144769626 0.3999999999880835
    vertex 39.68090981573363 194.27004390174073 0.3999999999882668
    vertex 43.87301662748887 207.741464324859 0.39999999998841906
  endloop
endfacet
facet normal 1.3446846799562489e-18 1.0986717458503012e-14 -1.0
  outer loop
    vertex 42.767816430626745 180.1429144769626 0.3999999999880835
    vertex 43.87301662748887 207.741464324859 0.39999999998841906
    vertex 51.87548828124992 207.741464324859 0.39999999998841906
  endloop
endfacet
facet normal 0.0 -0.9914448613737185 -0.1305261922207505
  outer loop
    vertex 4.999999999999946 180.1429144769623 0.49999999998868927
    vertex 0.0 180.17698865067337 0.24118095488633567
    vertex 4.999999999999946 180.17698865067337 0.24118095488633567
  endloop
endfacet
facet normal 0.0 -0.9914448613737185 -0.1305261922207505
  outer loop
    vertex 0.0 180.17698865067337 0.24118095488633567
    vertex 4.999999999999946 180.1429144769623 0.49999999998868927
    vertex 0.0 180.1429144769623 0.49999999998868927
  endloop
endfacet
facet normal 1.0 0.0 0.0
  outer loop
    vertex 54.999999999999766 180.14291447696263 -1.1236508945522416e-11
    vertex 54.999999999999766 180.17698865067337 0.24118095488633567
    vertex 54.999999999999766 180.1429144769623 0.49999999998868927
  endloop
endfacet
facet normal 1.0 0.0 0.0
  outer loop
    vertex 54.999999999999766 180.17698865067337 0.24118095488633567
    vertex 54.999999999999766 180.14291447696263 -1.1236508945522416e-11
    vertex 54.999999999999766 180.27688907317824 -1.1120890319737952e-11
  endloop
endfacet
facet normal 0.0 -0.9914448613737381 0.1305261922206009
  outer loop
    vertex 59.99999999999971 180.17698865067337 0.7588190450913446
    vertex 54.999999999999766 180.1429144769623 0.49999999998868927
    vertex 59.99999999999971 180.1429144769623 0.49999999998868927
  endloop
endfacet
facet normal 0.0 -0.9914448613737381 0.1305261922206009
  outer loop
    vertex 54.999999999999766 180.1429144769623 0.49999999998868927
    vertex 59.99999999999971 180.17698865067337 0.7588190450913446
    vertex 54.999999999999766 180.17698865067337 0.7588190450913446
  endloop
endfacet
facet normal 0.0 0.9238795325115181 0.3826834323645314
  outer loop
    vertex 0.0 182.00893988074694 0.9999999999889477
    vertex 4.999999999999946 182.1088403032514 0.7588190450914433
    vertex 0.0 182.1088403032514 0.7588190450914433
  endloop
endfacet
facet normal 0.0 0.9238795325115181 0.3826834323645314
  outer loop
    vertex 4.999999999999946 182.1088403032514 0.7588190450914433
    vertex 0.0 182.00893988074694 0.9999999999889477
    vertex 4.999999999999946 182.00893988074694 0.9999999999889477
  endloop
endfacet
facet normal -1.0 0.0 0.0
  outer loop
    vertex 0.0 180.17698865067337 0.7588190450913446
    vertex 0.0 180.17698865067337 0.24118095488633567
    vertex 0.0 180.1429144769623 0.49999999998868927
  endloop
endfacet
facet normal -1.0 0.0 0.0
  outer loop
    vertex 0.0 180.17698865067337 0.24118095488633567
    vertex 0.0 180.17698865067337 0.7588190450913446
    vertex 0.0 180.27688907317815 0.999999999988897
  endloop
endfacet
facet normal -1.0 0.0 0.0
  outer loop
    vertex 0.0 180.17698865067337 0.24118095488633567
    vertex 0.0 180.27688907317815 0.999999999988897
    vertex 0.0 180.27688907317824 -1.1120890319737952e-11
  endloop
endfacet
facet normal -1.0 0.0 0.0
  outer loop
    vertex 0.0 180.27688907317824 -1.1120890319737952e-11
    vertex 0.0 180.27688907317815 0.999999999988897
    vertex 0.0 182.00893988074694 0.9999999999889477
  endloop
endfacet
facet normal -1.0 0.0 0.0
  outer loop
    vertex 0.0 180.27688907317824 -1.1120890319737952e-11
    vertex 0.0 182.00893988074694 0.9999999999889477
    vertex 0.0 182.00893988074685 -1.1134990152150692e-11
  endloop
endfacet
facet normal -1.0 0.0 0.0
  outer loop
    vertex 0.0 182.00893988074685 -1.1134990152150692e-11
    vertex 0.0 182.00893988074694 0.9999999999889477
    vertex 0.0 182.10884030325158 0.2411809548863244
  endloop
endfacet
facet normal -1.0 0.0 0.0
  outer loop
    vertex 0.0 182.10884030325158 0.2411809548863244
    vertex 0.0 182.00893988074694 0.9999999999889477
    vertex 0.0 182.1088403032514 0.7588190450914433
  endloop
endfacet
facet normal -1.0 0.0 0.0
  outer loop
    vertex 0.0 182.10884030325158 0.2411809548863244
    vertex 0.0 182.1088403032514 0.7588190450914433
    vertex 0.0 182.1429144769625 0.4999999999888669
  endloop
endfacet
facet normal 0.0 -0.9238795325109412 -0.38268343236592406
  outer loop
    vertex 4.999999999999946 180.17698865067337 0.24118095488633567
    vertex 0.0 180.27688907317824 -1.1120890319737952e-11
    vertex 4.999999999999946 180.27688907317824 -1.1120890319737952e-11
  endloop
endfacet
facet normal 0.0 -0.9238795325109412 -0.38268343236592406
  outer loop
    vertex 0.0 180.27688907317824 -1.1120890319737952e-11
    vertex 4.999999999999946 180.17698865067337 0.24118095488633567
    vertex 0.0 180.17698865067337 0.24118095488633567
  endloop
endfacet
facet normal 0.0 0.923879532511339 0.3826834323649639
  outer loop
    vertex 54.999999999999766 182.00893988074685 0.9999999999888463
    vertex 59.99999999999971 182.1088403032514 0.7588190450914433
    vertex 54.999999999999766 182.1088403032514 0.7588190450914433
  endloop
endfacet
facet normal 0.0 0.923879532511339 0.3826834323649639
  outer loop
    vertex 59.99999999999971 182.1088403032514 0.7588190450914433
    vertex 54.999999999999766 182.00893988074685 0.9999999999888463
    vertex 59.99999999999971 182.00893988074685 0.9999999999888463
  endloop
endfacet
facet normal 0.0 0.9238795325111262 -0.3826834323654777
  outer loop
    vertex 0.0 182.10884030325158 0.2411809548863244
    vertex 4.999999999999946 182.00893988074685 -1.1134990152150692e-11
    vertex 0.0 182.00893988074685 -1.1134990152150692e-11
  endloop
endfacet
facet normal 0.0 0.9238795325111262 -0.3826834323654777
  outer loop
    vertex 4.999999999999946 182.00893988074685 -1.1134990152150692e-11
    vertex 0.0 182.10884030325158 0.2411809548863244
    vertex 4.999999999999946 182.10884030325158 0.2411809548863244
  endloop
endfacet
facet normal 1.0 -1.6390303983694233e-43 1.254342210265716e-29
  outer loop
    vertex 59.99999999999971 180.17698865067337 0.24118095488633567
    vertex 59.99999999999971 180.17698865067337 0.7588190450913446
    vertex 59.99999999999971 180.1429144769623 0.49999999998868927
  endloop
endfacet
facet normal 1.0 -1.6390303983694233e-43 1.254342210265716e-29
  outer loop
    vertex 59.99999999999971 180.17698865067337 0.7588190450913446
    vertex 59.99999999999971 180.17698865067337 0.24118095488633567
    vertex 59.99999999999971 180.27688907317824 -1.1120890319737952e-11
  endloop
endfacet
facet normal 1.0 -1.6390303983694233e-43 1.254342210265716e-29
  outer loop
    vertex 59.99999999999971 180.17698865067337 0.7588190450913446
    vertex 59.99999999999971 180.27688907317824 -1.1120890319737952e-11
    vertex 59.99999999999971 180.27688907317815 0.999999999988897
  endloop
endfacet
facet normal 1.0 -1.6390303983694233e-43 1.254342210265716e-29
  outer loop
    vertex 59.99999999999971 180.27688907317815 0.999999999988897
    vertex 59.99999999999971 180.27688907317824 -1.1120890319737952e-11
    vertex 59.99999999999971 182.00893988074685 0.9999999999888463
  endloop
endfacet
facet normal 1.0 -1.6390303983694233e-43 1.254342210265716e-29
  outer loop
    vertex 59.99999999999971 182.00893988074685 0.9999999999888463
    vertex 59.99999999999971 180.27688907317824 -1.1120890319737952e-11
    vertex 59.99999999999971 182.00893988074685 -1.1134990152150692e-11
  endloop
endfacet
facet normal 1.0 -1.6390303983694233e-43 1.254342210265716e-29
  outer loop
    vertex 59.99999999999971 182.00893988074685 0.9999999999888463
    vertex 59.99999999999971 182.00893988074685 -1.1134990152150692e-11
    vertex 59.99999999999971 182.10884030325158 0.2411809548863244
  endloop
endfacet
facet normal 1.0 -1.6390303983694233e-43 1.254342210265716e-29
  outer loop
    vertex 59.99999999999971 182.00893988074685 0.9999999999888463
    vertex 59.99999999999971 182.10884030325158 0.2411809548863244
    vertex 59.99999999999971 182.1088403032514 0.7588190450914433
  endloop
endfacet
facet normal 1.0 -1.6390303983694233e-43 1.254342210265716e-29
  outer loop
    vertex 59.99999999999971 182.1088403032514 0.7588190450914433
    vertex 59.99999999999971 182.10884030325158 0.2411809548863244
    vertex 59.99999999999971 182.1429144769625 0.4999999999888669
  endloop
endfacet
endsolid v1_flaps_250mmbed
