solid v1_flaps_250mmbed
facet normal -1.526046175398583e-15 1.3005795492862146e-14 -1.0
  outer loop
    vertex 134.26656699391518 243.21987849178856 -1.95558947507779e-11
    vertex 141.86652205475596 235.98194292762895 -1.9826611533102498e-11
    vertex 134.26656699391518 215.62132864388977 -1.9781492069381732e-11
  endloop
endfacet
facet normal -1.526046175398583e-15 1.3005795492862146e-14 -1.0
  outer loop
    vertex 141.86652205475596 235.98194292762895 -1.9826611533102498e-11
    vertex 134.26656699391518 243.21987849178856 -1.95558947507779e-11
    vertex 169.733433006083 243.21987849178856 -1.95558947507779e-11
  endloop
endfacet
facet normal -1.526046175398583e-15 1.3005795492862146e-14 -1.0
  outer loop
    vertex 141.86652205475596 235.98194292762895 -1.9826611533102498e-11
    vertex 169.733433006083 243.21987849178856 -1.95558947507779e-11
    vertex 169.733433006083 235.98194292762895 -1.9826611533102498e-11
  endloop
endfacet
facet normal -1.526046175398583e-15 1.3005795492862146e-14 -1.0
  outer loop
    vertex 134.26656699391518 215.62132864388977 -1.9781492069381732e-11
    vertex 141.86652205475596 217.72511563227494 -2.0165007511008246e-11
    vertex 159.47969095685772 215.62132864388977 -1.9781492069381732e-11
  endloop
endfacet
facet normal -1.526046175398583e-15 1.3005795492862146e-14 -1.0
  outer loop
    vertex 141.86652205475596 217.72511563227494 -2.0165007511008246e-11
    vertex 134.26656699391518 215.62132864388977 -1.9781492069381732e-11
    vertex 141.86652205475596 235.98194292762895 -1.9826611533102498e-11
  endloop
endfacet
facet normal -1.526046175398583e-15 1.3005795492862146e-14 -1.0
  outer loop
    vertex 159.47969095685772 215.62132864388977 -1.9781492069381732e-11
    vertex 141.86652205475596 217.72511563227494 -2.0165007511008246e-11
    vertex 159.47969095685772 217.72511563227494 -2.0165007511008246e-11
  endloop
endfacet
facet normal -0.801256531723521 -0.598320959327345 0.0
  outer loop
    vertex 157.2480555171453 232.32747251797574 0.999999999979368
    vertex 159.27873945658115 229.60803114629408 0.599999999979368
    vertex 159.27873945658115 229.60803114629408 0.999999999979368
  endloop
endfacet
facet normal -0.801256531723521 -0.598320959327345 0.0
  outer loop
    vertex 159.27873945658115 229.60803114629408 0.599999999979368
    vertex 157.2480555171453 232.32747251797574 0.999999999979368
    vertex 157.2480555171453 232.32747251797574 0.599999999979368
  endloop
endfacet
facet normal 0.0 -1.0 0.0
  outer loop
    vertex 147.85825152101685 236.1832869538163 0.999999999979368
    vertex 140.98172186117176 236.1832869538163 0.599999999979368
    vertex 147.85825152101685 236.1832869538163 0.599999999979368
  endloop
endfacet
facet normal 0.0 -1.0 0.0
  outer loop
    vertex 140.98172186117176 236.1832869538163 0.599999999979368
    vertex 147.85825152101685 236.1832869538163 0.999999999979368
    vertex 140.98172186117176 236.1832869538163 0.999999999979368
  endloop
endfacet
facet normal -0.9943770872223736 -0.1058971595801703 6.671719076822362e-17
  outer loop
    vertex 161.8723943929749 222.81218888274336 0.999999999979368
    vertex 162.63819208081154 215.6213286438894 0.5999999999800293
    vertex 162.63819208081154 215.6213286438894 0.9999999999800293
  endloop
endfacet
facet normal -0.9943770872223736 -0.1058971595801703 6.671719076822362e-17
  outer loop
    vertex 162.63819208081154 215.6213286438894 0.5999999999800293
    vertex 161.8723943929749 222.81218888274336 0.999999999979368
    vertex 161.8723943929749 222.81218888274336 0.599999999979368
  endloop
endfacet
facet normal 1.7546377865033585e-15 1.224984856503282e-14 -1.0
  outer loop
    vertex 140.9938276937918 214.52141437361723 -2.1467832025945376e-11
    vertex 133.36681048637925 209.70309475248897 -2.1738548808269974e-11
    vertex 133.09166871362578 214.52141437361723 -2.1467832025945376e-11
  endloop
endfacet
facet normal 1.7546377865033585e-15 1.224984856503282e-14 -1.0
  outer loop
    vertex 133.36681048637925 209.70309475248897 -2.1738548808269974e-11
    vertex 140.9938276937918 214.52141437361723 -2.1467832025945376e-11
    vertex 134.2865087458509 204.4553460315266 -2.1738548808269974e-11
  endloop
endfacet
facet normal 1.7546377865033585e-15 1.224984856503282e-14 -1.0
  outer loop
    vertex 134.2865087458509 204.4553460315266 -2.1738548808269974e-11
    vertex 140.9938276937918 214.52141437361723 -2.1467832025945376e-11
    vertex 135.84963530143722 199.52436437016075 -2.1828787735711505e-11
  endloop
endfacet
facet normal 1.7546377865033585e-15 1.224984856503282e-14 -1.0
  outer loop
    vertex 135.84963530143722 199.52436437016075 -2.1828787735711505e-11
    vertex 140.9938276937918 214.52141437361723 -2.1467832025945376e-11
    vertex 138.08648627627122 195.10603913163712 -2.200926559059457e-11
  endloop
endfacet
facet normal 1.7546377865033585e-15 1.224984856503282e-14 -1.0
  outer loop
    vertex 138.08648627627122 195.10603913163712 -2.200926559059457e-11
    vertex 140.9938276937918 214.52141437361723 -2.1467832025945376e-11
    vertex 141.03717527136266 191.3662703522541 -2.1738548808269974e-11
  endloop
endfacet
facet normal 1.7546377865033585e-15 1.224984856503282e-14 -1.0
  outer loop
    vertex 141.03717527136266 191.3662703522541 -2.1738548808269974e-11
    vertex 140.9938276937918 214.52141437361723 -2.1467832025945376e-11
    vertex 141.6655705544794 207.41102046460168 -2.1828787735711505e-11
  endloop
endfacet
facet normal 1.7546377865033585e-15 1.224984856503282e-14 -1.0
  outer loop
    vertex 141.03717527136266 191.3662703522541 -2.1738548808269974e-11
    vertex 141.6655705544794 207.41102046460168 -2.1828787735711505e-11
    vertex 144.7418158877206 188.4709580683079 -2.191902666315304e-11
  endloop
endfacet
facet normal 1.7546377865033585e-15 1.224984856503282e-14 -1.0
  outer loop
    vertex 144.7418158877206 188.4709580683079 -2.191902666315304e-11
    vertex 141.6655705544794 207.41102046460168 -2.1828787735711505e-11
    vertex 143.9775865943024 200.27340725248908 -2.1828787735711505e-11
  endloop
endfacet
facet normal 1.7546377865033585e-15 1.224984856503282e-14 -1.0
  outer loop
    vertex 144.7418158877206 188.4709580683079 -2.191902666315304e-11
    vertex 143.9775865943024 200.27340725248908 -2.1828787735711505e-11
    vertex 145.81721321038367 197.3379046684875 -2.1828787735711505e-11
  endloop
endfacet
facet normal 1.7546377865033585e-15 1.224984856503282e-14 -1.0
  outer loop
    vertex 144.7418158877206 188.4709580683079 -2.191902666315304e-11
    vertex 145.81721321038367 197.3379046684875 -2.1828787735711505e-11
    vertex 149.2204265763268 186.61614504113695 -2.191902666315304e-11
  endloop
endfacet
facet normal 1.7546377865033585e-15 1.224984856503282e-14 -1.0
  outer loop
    vertex 149.2204265763268 186.61614504113695 -2.191902666315304e-11
    vertex 145.81721321038367 197.3379046684875 -2.1828787735711505e-11
    vertex 148.1595253733401 195.04590707964618 -2.191902666315304e-11
  endloop
endfacet
facet normal 1.7546377865033585e-15 1.224984856503282e-14 -1.0
  outer loop
    vertex 149.2204265763268 186.61614504113695 -2.191902666315304e-11
    vertex 148.1595253733401 195.04590707964618 -2.191902666315304e-11
    vertex 151.0397279452426 193.56822326120025 -2.191902666315304e-11
  endloop
endfacet
facet normal 1.7546377865033585e-15 1.224984856503282e-14 -1.0
  outer loop
    vertex 149.2204265763268 186.61614504113695 -2.191902666315304e-11
    vertex 151.0397279452426 193.56822326120025 -2.191902666315304e-11
    vertex 154.49302578816287 185.99787403207995 -2.1828787735711505e-11
  endloop
endfacet
facet normal 1.7546377865033585e-15 1.224984856503282e-14 -1.0
  outer loop
    vertex 154.49302578816287 185.99787403207995 -2.1828787735711505e-11
    vertex 151.0397279452426 193.56822326120025 -2.191902666315304e-11
    vertex 154.49302578816287 193.07566198838518 -2.1828787735711505e-11
  endloop
endfacet
facet normal 1.7546377865033585e-15 1.224984856503282e-14 -1.0
  outer loop
    vertex 154.49302578816287 185.99787403207995 -2.1828787735711505e-11
    vertex 154.49302578816287 193.07566198838518 -2.1828787735711505e-11
    vertex 157.63477210660872 193.56323782321647 -2.1828787735711505e-11
  endloop
endfacet
facet normal 1.7546377865033585e-15 1.224984856503282e-14 -1.0
  outer loop
    vertex 154.49302578816287 185.99787403207995 -2.1828787735711505e-11
    vertex 157.63477210660872 193.56323782321647 -2.1828787735711505e-11
    vertex 158.6499606782349 186.3748498427134 -2.191902666315304e-11
  endloop
endfacet
facet normal 1.7546377865033585e-15 1.224984856503282e-14 -1.0
  outer loop
    vertex 158.6499606782349 186.3748498427134 -2.191902666315304e-11
    vertex 157.63477210660872 193.56323782321647 -2.1828787735711505e-11
    vertex 160.0626037057515 195.02596532771028 -2.191902666315304e-11
  endloop
endfacet
facet normal 1.7546377865033585e-15 1.224984856503282e-14 -1.0
  outer loop
    vertex 158.6499606782349 186.3748498427134 -2.191902666315304e-11
    vertex 160.0626037057515 195.02596532771028 -2.191902666315304e-11
    vertex 162.1132293971233 187.50577727461297 -2.191902666315304e-11
  endloop
endfacet
facet normal 1.7546377865033585e-15 1.224984856503282e-14 -1.0
  outer loop
    vertex 162.1132293971233 187.50577727461297 -2.191902666315304e-11
    vertex 160.0626037057515 195.02596532771028 -2.191902666315304e-11
    vertex 163.66132293971168 199.91169455199133 -2.1738548808269974e-11
  endloop
endfacet
facet normal 1.7546377865033585e-15 1.224984856503282e-14 -1.0
  outer loop
    vertex 162.1132293971233 187.50577727461297 -2.191902666315304e-11
    vertex 163.66132293971168 199.91169455199133 -2.1738548808269974e-11
    vertex 164.95324166897038 189.23488056554237 -2.1738548808269974e-11
  endloop
endfacet
facet normal 1.7546377865033585e-15 1.224984856503282e-14 -1.0
  outer loop
    vertex 164.95324166897038 189.23488056554237 -2.1738548808269974e-11
    vertex 163.66132293971168 199.91169455199133 -2.1738548808269974e-11
    vertex 170.4169749032067 196.4129908738939 -2.191902666315304e-11
  endloop
endfacet
facet normal 1.7546377865033585e-15 1.224984856503282e-14 -1.0
  outer loop
    vertex 164.95324166897038 189.23488056554237 -2.1738548808269974e-11
    vertex 170.4169749032067 196.4129908738939 -2.191902666315304e-11
    vertex 167.24040721791914 191.40638395326351 -2.1738548808269974e-11
  endloop
endfacet
facet normal -2.8447905106578754e-15 7.588690372742869e-15 1.0
  outer loop
    vertex 133.38176680033118 186.92286452571918 0.999999999979368
    vertex 140.98172186117176 193.96015538578544 0.999999999979368
    vertex 133.38176680033118 214.52141437361723 0.9999999999791522
  endloop
endfacet
facet normal -2.8447905106578754e-15 7.588690372742869e-15 1.0
  outer loop
    vertex 140.98172186117176 193.96015538578544 0.999999999979368
    vertex 133.38176680033118 186.92286452571918 0.999999999979368
    vertex 146.53105123064094 186.92286452571918 0.999999999979368
  endloop
endfacet
facet normal -2.8447905106578754e-15 7.588690372742869e-15 1.0
  outer loop
    vertex 140.98172186117176 193.96015538578544 0.999999999979368
    vertex 146.53105123064094 186.92286452571918 0.999999999979368
    vertex 146.97345132743305 193.96015538578544 0.999999999979368
  endloop
endfacet
facet normal -2.8447905106578754e-15 7.588690372742869e-15 1.0
  outer loop
    vertex 146.97345132743305 193.96015538578544 0.999999999979368
    vertex 146.53105123064094 186.92286452571918 0.999999999979368
    vertex 152.90988078159484 187.55624524681988 0.999999999979368
  endloop
endfacet
facet normal -2.8447905106578754e-15 7.588690372742869e-15 1.0
  outer loop
    vertex 146.97345132743305 193.96015538578544 0.999999999979368
    vertex 152.90988078159484 187.55624524681988 0.999999999979368
    vertex 151.1406638896564 194.4276360705892 0.999999999979368
  endloop
endfacet
facet normal -2.8447905106578754e-15 7.588690372742869e-15 1.0
  outer loop
    vertex 151.1406638896564 194.4276360705892 0.999999999979368
    vertex 152.90988078159484 187.55624524681988 0.999999999979368
    vertex 154.55377143252147 195.83007812500048 0.999999999979368
  endloop
endfacet
facet normal -2.8447905106578754e-15 7.588690372742869e-15 1.0
  outer loop
    vertex 154.55377143252147 195.83007812500048 0.999999999979368
    vertex 152.90988078159484 187.55624524681988 0.999999999979368
    vertex 158.13254891454574 189.45638741012198 0.999999999979368
  endloop
endfacet
facet normal -2.8447905106578754e-15 7.588690372742869e-15 1.0
  outer loop
    vertex 154.55377143252147 195.83007812500048 0.999999999979368
    vertex 158.13254891454574 189.45638741012198 0.999999999979368
    vertex 157.27812154314094 198.0065669507054 0.999999999979368
  endloop
endfacet
facet normal -2.8447905106578754e-15 7.588690372742869e-15 1.0
  outer loop
    vertex 157.27812154314094 198.0065669507054 0.999999999979368
    vertex 158.13254891454574 189.45638741012198 0.999999999979368
    vertex 159.37906180862765 200.79618794939157 0.999999999979368
  endloop
endfacet
facet normal -2.8447905106578754e-15 7.588690372742869e-15 1.0
  outer loop
    vertex 159.37906180862765 200.79618794939157 0.999999999979368
    vertex 158.13254891454574 189.45638741012198 0.999999999979368
    vertex 162.30459351666144 192.40201426818348 0.999999999979368
  endloop
endfacet
facet normal -2.8447905106578754e-15 7.588690372742869e-15 1.0
  outer loop
    vertex 159.37906180862765 200.79618794939157 0.999999999979368
    vertex 162.30459351666144 192.40201426818348 0.999999999979368
    vertex 160.9120456391725 204.05328963288184 0.999999999979368
  endloop
endfacet
facet normal -2.8447905106578754e-15 7.588690372742869e-15 1.0
  outer loop
    vertex 160.9120456391725 204.05328963288184 0.999999999979368
    vertex 162.30459351666144 192.40201426818348 0.999999999979368
    vertex 161.9325264449662 207.63222051299772 0.999999999979368
  endloop
endfacet
facet normal -2.8447905106578754e-15 7.588690372742869e-15 1.0
  outer loop
    vertex 161.9325264449662 207.63222051299772 0.999999999979368
    vertex 162.30459351666144 192.40201426818348 0.999999999979368
    vertex 162.64025417124458 214.52141437361723 0.9999999999791522
  endloop
endfacet
facet normal -2.8447905106578754e-15 7.588690372742869e-15 1.0
  outer loop
    vertex 162.64025417124458 214.52141437361723 0.9999999999791522
    vertex 162.30459351666144 192.40201426818348 0.999999999979368
    vertex 165.53155247510958 196.17184907356233 0.999999999979368
  endloop
endfacet
facet normal -2.8447905106578754e-15 7.588690372742869e-15 1.0
  outer loop
    vertex 162.64025417124458 214.52141437361723 0.9999999999791522
    vertex 165.53155247510958 196.17184907356233 0.999999999979368
    vertex 170.58521026345238 214.52141437361723 0.9999999999791522
  endloop
endfacet
facet normal -2.8447905106578754e-15 7.588690372742869e-15 1.0
  outer loop
    vertex 170.58521026345238 214.52141437361723 0.9999999999791522
    vertex 165.53155247510958 196.17184907356233 0.999999999979368
    vertex 167.88889765106393 200.54484517595407 0.999999999979368
  endloop
endfacet
facet normal -2.8447905106578754e-15 7.588690372742869e-15 1.0
  outer loop
    vertex 170.58521026345238 214.52141437361723 0.9999999999791522
    vertex 167.88889765106393 200.54484517595407 0.999999999979368
    vertex 169.45210090569566 205.2999559250554 0.999999999979368
  endloop
endfacet
facet normal -2.8447905106578754e-15 7.588690372742869e-15 1.0
  outer loop
    vertex 170.58521026345238 214.52141437361723 0.9999999999791522
    vertex 169.45210090569566 205.2999559250554 0.999999999979368
    vertex 170.32670012617393 210.2159045734235 0.999999999979368
  endloop
endfacet
facet normal -2.8447905106578754e-15 7.588690372742869e-15 1.0
  outer loop
    vertex 140.98172186117176 214.52141437361723 0.9999999999791522
    vertex 133.38176680033118 214.52141437361723 0.9999999999791522
    vertex 140.98172186117176 193.96015538578544 0.999999999979368
  endloop
endfacet
facet normal -0.6326954955618403 -0.7744006778766128 0.0
  outer loop
    vertex 157.2480555171453 232.32747251797574 0.999999999979368
    vertex 154.6945908808069 234.4136865666483 0.599999999979368
    vertex 157.2480555171453 232.32747251797574 0.599999999979368
  endloop
endfacet
facet normal -0.6326954955618403 -0.7744006778766128 0.0
  outer loop
    vertex 154.6945908808069 234.4136865666483 0.599999999979368
    vertex 157.2480555171453 232.32747251797574 0.999999999979368
    vertex 154.6945908808069 234.4136865666483 0.999999999979368
  endloop
endfacet
facet normal 8.561657427411104e-15 2.333691994357709e-14 1.0
  outer loop
    vertex 140.98172186117176 215.6213286438894 0.9999999999800293
    vertex 133.38176680033118 243.21996422151543 0.999999999979368
    vertex 133.38176680033118 215.6213286438894 0.9999999999800293
  endloop
endfacet
facet normal 8.561657427411104e-15 2.333691994357709e-14 1.0
  outer loop
    vertex 133.38176680033118 243.21996422151543 0.999999999979368
    vertex 140.98172186117176 215.6213286438894 0.9999999999800293
    vertex 140.98172186117176 236.1832869538163 0.999999999979368
  endloop
endfacet
facet normal 8.561657427411104e-15 2.333691994357709e-14 1.0
  outer loop
    vertex 133.38176680033118 243.21996422151543 0.999999999979368
    vertex 140.98172186117176 236.1832869538163 0.999999999979368
    vertex 146.85318722345065 243.21996422151543 0.999999999979368
  endloop
endfacet
facet normal 8.561657427411104e-15 2.333691994357709e-14 1.0
  outer loop
    vertex 146.85318722345065 243.21996422151543 0.999999999979368
    vertex 140.98172186117176 236.1832869538163 0.999999999979368
    vertex 147.85825152101685 236.1832869538163 0.999999999979368
  endloop
endfacet
facet normal 8.561657427411104e-15 2.333691994357709e-14 1.0
  outer loop
    vertex 146.85318722345065 243.21996422151543 0.999999999979368
    vertex 147.85825152101685 236.1832869538163 0.999999999979368
    vertex 152.92989923257673 242.6218650615323 0.999999999979368
  endloop
endfacet
facet normal 8.561657427411104e-15 2.333691994357709e-14 1.0
  outer loop
    vertex 152.92989923257673 242.6218650615323 0.999999999979368
    vertex 147.85825152101685 236.1832869538163 0.999999999979368
    vertex 151.57807854846433 235.74088685702458 0.999999999979368
  endloop
endfacet
facet normal 8.561657427411104e-15 2.333691994357709e-14 1.0
  outer loop
    vertex 152.92989923257673 242.6218650615323 0.999999999979368
    vertex 151.57807854846433 235.74088685702458 0.999999999979368
    vertex 154.6945908808069 234.4136865666483 0.999999999979368
  endloop
endfacet
facet normal 8.561657427411104e-15 2.333691994357709e-14 1.0
  outer loop
    vertex 152.92989923257673 242.6218650615323 0.999999999979368
    vertex 154.6945908808069 234.4136865666483 0.999999999979368
    vertex 157.97148091814097 240.82756758158183 0.999999999979368
  endloop
endfacet
facet normal 8.561657427411104e-15 2.333691994357709e-14 1.0
  outer loop
    vertex 157.97148091814097 240.82756758158183 0.999999999979368
    vertex 154.6945908808069 234.4136865666483 0.999999999979368
    vertex 157.2480555171453 232.32747251797574 0.999999999979368
  endloop
endfacet
facet normal 8.561657427411104e-15 2.333691994357709e-14 1.0
  outer loop
    vertex 157.97148091814097 240.82756758158183 0.999999999979368
    vertex 157.2480555171453 232.32747251797574 0.999999999979368
    vertex 159.27873945658115 229.60803114629408 0.999999999979368
  endloop
endfacet
facet normal 8.561657427411104e-15 2.333691994357709e-14 1.0
  outer loop
    vertex 157.97148091814097 240.82756758158183 0.999999999979368
    vertex 159.27873945658115 229.60803114629408 0.999999999979368
    vertex 162.06322161919192 238.02291356989792 0.999999999979368
  endloop
endfacet
facet normal 8.561657427411104e-15 2.333691994357709e-14 1.0
  outer loop
    vertex 162.06322161919192 238.02291356989792 0.999999999979368
    vertex 159.27873945658115 229.60803114629408 0.999999999979368
    vertex 160.81179998617182 226.39104306381358 0.999999999979368
  endloop
endfacet
facet normal 8.561657427411104e-15 2.333691994357709e-14 1.0
  outer loop
    vertex 162.06322161919192 238.02291356989792 0.999999999979368
    vertex 160.81179998617182 226.39104306381358 0.999999999979368
    vertex 161.8723943929749 222.81218888274336 0.999999999979368
  endloop
endfacet
facet normal 8.561657427411104e-15 2.333691994357709e-14 1.0
  outer loop
    vertex 162.06322161919192 238.02291356989792 0.999999999979368
    vertex 161.8723943929749 222.81218888274336 0.999999999979368
    vertex 162.63819208081154 215.6213286438894 0.9999999999800293
  endloop
endfacet
facet normal 8.561657427411104e-15 2.333691994357709e-14 1.0
  outer loop
    vertex 162.06322161919192 238.02291356989792 0.999999999979368
    vertex 162.63819208081154 215.6213286438894 0.9999999999800293
    vertex 165.29041067477797 234.3937448147124 0.999999999979368
  endloop
endfacet
facet normal 8.561657427411104e-15 2.333691994357709e-14 1.0
  outer loop
    vertex 165.29041067477797 234.3937448147124 0.999999999979368
    vertex 162.63819208081154 215.6213286438894 0.9999999999800293
    vertex 170.5847660085294 215.6213286438894 0.9999999999800293
  endloop
endfacet
facet normal 8.561657427411104e-15 2.333691994357709e-14 1.0
  outer loop
    vertex 165.29041067477797 234.3937448147124 0.999999999979368
    vertex 170.5847660085294 215.6213286438894 0.9999999999800293
    vertex 167.70320926092302 230.11102348935265 0.999999999979368
  endloop
endfacet
facet normal 8.561657427411104e-15 2.333691994357709e-14 1.0
  outer loop
    vertex 167.70320926092302 230.11102348935265 0.999999999979368
    vertex 170.5847660085294 215.6213286438894 0.9999999999800293
    vertex 169.35177855364898 225.3457117671458 0.999999999979368
  endloop
endfacet
facet normal 8.561657427411104e-15 2.333691994357709e-14 1.0
  outer loop
    vertex 169.35177855364898 225.3457117671458 0.999999999979368
    vertex 170.5847660085294 215.6213286438894 0.9999999999800293
    vertex 170.30161953816264 220.27383395844834 0.999999999979368
  endloop
endfacet
facet normal 0.09031538891750503 -0.9959132143538814 -1.1304912693071044e-17
  outer loop
    vertex 158.6499606782349 186.3748498427134 0.3999999999780813
    vertex 154.49302578816287 185.99787403207995 -2.1828787735711505e-11
    vertex 158.6499606782349 186.3748498427134 -2.191902666315304e-11
  endloop
endfacet
facet normal 0.09031538891750503 -0.9959132143538814 -1.1304912693071044e-17
  outer loop
    vertex 154.49302578816287 185.99787403207995 -2.1828787735711505e-11
    vertex 158.6499606782349 186.3748498427134 0.3999999999780813
    vertex 154.49302578816287 185.99787403207995 0.3999999999781715
  endloop
endfacet
facet normal -0.9983735851348516 -0.05701038944774359 2.1451990075948855e-17
  outer loop
    vertex 133.09166871362578 214.52141437361723 0.3999999999785325
    vertex 133.36681048637925 209.70309475248897 -2.1738548808269974e-11
    vertex 133.36681048637925 209.70309475248897 0.39999999997826174
  endloop
endfacet
facet normal -0.9983735851348516 -0.05701038944774359 2.1451990075948855e-17
  outer loop
    vertex 133.36681048637925 209.70309475248897 -2.1738548808269974e-11
    vertex 133.09166871362578 214.52141437361723 0.3999999999785325
    vertex 133.09166871362578 214.52141437361723 -2.1467832025945376e-11
  endloop
endfacet
facet normal -0.11148139124293598 0.9937665215766425 -0.0
  outer loop
    vertex 146.97345132743305 193.96015538578544 0.999999999979368
    vertex 151.1406638896564 194.4276360705892 0.599999999979368
    vertex 146.97345132743305 193.96015538578544 0.599999999979368
  endloop
endfacet
facet normal -0.11148139124293598 0.9937665215766425 -0.0
  outer loop
    vertex 151.1406638896564 194.4276360705892 0.599999999979368
    vertex 146.97345132743305 193.96015538578544 0.999999999979368
    vertex 151.1406638896564 194.4276360705892 0.999999999979368
  endloop
endfacet
facet normal 0.31041769972569566 -0.950600258624522 0.0
  outer loop
    vertex 162.1132293971233 187.50577727461297 0.3999999999780813
    vertex 158.6499606782349 186.3748498427134 -2.191902666315304e-11
    vertex 162.1132293971233 187.50577727461297 -2.191902666315304e-11
  endloop
endfacet
facet normal 0.31041769972569566 -0.950600258624522 0.0
  outer loop
    vertex 158.6499606782349 186.3748498427134 -2.191902666315304e-11
    vertex 162.1132293971233 187.50577727461297 0.3999999999780813
    vertex 158.6499606782349 186.3748498427134 0.3999999999780813
  endloop
endfacet
facet normal 0.8443829862523027 -0.5357400232646838 -5.537516953797256e-17
  outer loop
    vertex 170.4169749032067 196.4129908738939 -2.191902666315304e-11
    vertex 167.24040721791914 191.40638395326351 0.39999999997826174
    vertex 167.24040721791914 191.40638395326351 -2.1738548808269974e-11
  endloop
endfacet
facet normal 0.8443829862523027 -0.5357400232646838 -5.537516953797256e-17
  outer loop
    vertex 167.24040721791914 191.40638395326351 0.39999999997826174
    vertex 170.4169749032067 196.4129908738939 -2.191902666315304e-11
    vertex 170.4169749032067 196.4129908738939 0.3999999999780813
  endloop
endfacet
facet normal -0.9849876585617007 -0.17262477365991985 0.0
  outer loop
    vertex 133.36681048637925 209.70309475248897 0.39999999997826174
    vertex 134.2865087458509 204.4553460315266 -2.1738548808269974e-11
    vertex 134.2865087458509 204.4553460315266 0.39999999997826174
  endloop
endfacet
facet normal -0.9849876585617007 -0.17262477365991985 0.0
  outer loop
    vertex 134.2865087458509 204.4553460315266 -2.1738548808269974e-11
    vertex 133.36681048637925 209.70309475248897 0.39999999997826174
    vertex 133.36681048637925 209.70309475248897 -2.1738548808269974e-11
  endloop
endfacet
facet normal -0.0 1.0 -0.0
  outer loop
    vertex 134.26656699391518 243.21987849178856 0.3999999999804444
    vertex 169.733433006083 243.21987849178856 -1.95558947507779e-11
    vertex 134.26656699391518 243.21987849178856 -1.95558947507779e-11
  endloop
endfacet
facet normal -0.0 1.0 -0.0
  outer loop
    vertex 169.733433006083 243.21987849178856 -1.95558947507779e-11
    vertex 134.26656699391518 243.21987849178856 0.3999999999804444
    vertex 169.733433006083 243.21987849178856 0.3999999999804444
  endloop
endfacet
facet normal 0.9981532241431973 0.060746531856068986 3.008411592476113e-17
  outer loop
    vertex 170.30161953816264 220.27383395844834 0.599999999979368
    vertex 170.5847660085294 215.6213286438894 0.9999999999800293
    vertex 170.5847660085294 215.6213286438894 0.5999999999800293
  endloop
endfacet
facet normal 0.9981532241431973 0.060746531856068986 3.008411592476113e-17
  outer loop
    vertex 170.5847660085294 215.6213286438894 0.9999999999800293
    vertex 170.30161953816264 220.27383395844834 0.599999999979368
    vertex 170.30161953816264 220.27383395844834 0.999999999979368
  endloop
endfacet
facet normal -1.0 0.0 0.0
  outer loop
    vertex 134.26656699391518 243.21987849178856 0.3999999999804444
    vertex 134.26656699391518 215.62132864388977 -1.9781492069381732e-11
    vertex 134.26656699391518 215.62132864388977 0.3999999999802188
  endloop
endfacet
facet normal -1.0 0.0 0.0
  outer loop
    vertex 134.26656699391518 215.62132864388977 -1.9781492069381732e-11
    vertex 134.26656699391518 243.21987849178856 0.3999999999804444
    vertex 134.26656699391518 243.21987849178856 -1.95558947507779e-11
  endloop
endfacet
facet normal 0.5200347599100181 -0.8541450980280398 -2.0697654265950094e-16
  outer loop
    vertex 164.95324166897038 189.23488056554237 -2.1738548808269974e-11
    vertex 162.1132293971233 187.50577727461297 0.3999999999780813
    vertex 162.1132293971233 187.50577727461297 -2.191902666315304e-11
  endloop
endfacet
facet normal 0.5200347599100181 -0.8541450980280398 -2.0697654265950094e-16
  outer loop
    vertex 162.1132293971233 187.50577727461297 0.3999999999780813
    vertex 164.95324166897038 189.23488056554237 -2.1738548808269974e-11
    vertex 164.95324166897038 189.23488056554237 0.39999999997826174
  endloop
endfacet
facet normal 0.6885321218757247 -0.7252058446712302 0.0
  outer loop
    vertex 167.24040721791914 191.40638395326351 0.39999999997826174
    vertex 164.95324166897038 189.23488056554237 -2.1738548808269974e-11
    vertex 167.24040721791914 191.40638395326351 -2.1738548808269974e-11
  endloop
endfacet
facet normal 0.6885321218757247 -0.7252058446712302 0.0
  outer loop
    vertex 164.95324166897038 189.23488056554237 -2.1738548808269974e-11
    vertex 167.24040721791914 191.40638395326351 0.39999999997826174
    vertex 164.95324166897038 189.23488056554237 0.39999999997826174
  endloop
endfacet
facet normal 0.0 -1.0 0.0
  outer loop
    vertex 140.98172186117176 215.6213286438894 0.9999999999800293
    vertex 133.38176680033118 215.6213286438894 0.5999999999800293
    vertex 140.98172186117176 215.6213286438894 0.5999999999800293
  endloop
endfacet
facet normal 0.0 -1.0 0.0
  outer loop
    vertex 133.38176680033118 215.6213286438894 0.5999999999800293
    vertex 140.98172186117176 215.6213286438894 0.9999999999800293
    vertex 133.38176680033118 215.6213286438894 0.9999999999800293
  endloop
endfacet
facet normal -0.11646318185023352 -0.993195009690101 -6.385701414168102e-18
  outer loop
    vertex 154.49302578816287 185.99787403207995 -2.1828787735711505e-11
    vertex 149.2204265763268 186.61614504113695 0.3999999999780813
    vertex 149.2204265763268 186.61614504113695 -2.191902666315304e-11
  endloop
endfacet
facet normal -0.11646318185023352 -0.993195009690101 -6.385701414168102e-18
  outer loop
    vertex 149.2204265763268 186.61614504113695 0.3999999999780813
    vertex 154.49302578816287 185.99787403207995 -2.1828787735711505e-11
    vertex 154.49302578816287 185.99787403207995 0.3999999999781715
  endloop
endfacet
facet normal 0.7472803460777733 0.6645089046550718 -0.0
  outer loop
    vertex 162.06322161919192 238.02291356989792 0.599999999979368
    vertex 165.29041067477797 234.3937448147124 0.999999999979368
    vertex 165.29041067477797 234.3937448147124 0.599999999979368
  endloop
endfacet
facet normal 0.7472803460777733 0.6645089046550718 -0.0
  outer loop
    vertex 165.29041067477797 234.3937448147124 0.999999999979368
    vertex 162.06322161919192 238.02291356989792 0.599999999979368
    vertex 162.06322161919192 238.02291356989792 0.999999999979368
  endloop
endfacet
facet normal -0.39181131044035916 -0.9200455950717924 0.0
  outer loop
    vertex 154.6945908808069 234.4136865666483 0.999999999979368
    vertex 151.57807854846433 235.74088685702458 0.599999999979368
    vertex 154.6945908808069 234.4136865666483 0.599999999979368
  endloop
endfacet
facet normal -0.39181131044035916 -0.9200455950717924 0.0
  outer loop
    vertex 151.57807854846433 235.74088685702458 0.599999999979368
    vertex 154.6945908808069 234.4136865666483 0.999999999979368
    vertex 151.57807854846433 235.74088685702458 0.999999999979368
  endloop
endfacet
facet normal -0.9027339681935892 -0.43019923601682086 0.0
  outer loop
    vertex 159.27873945658115 229.60803114629408 0.999999999979368
    vertex 160.81179998617182 226.39104306381358 0.599999999979368
    vertex 160.81179998617182 226.39104306381358 0.999999999979368
  endloop
endfacet
facet normal -0.9027339681935892 -0.43019923601682086 0.0
  outer loop
    vertex 160.81179998617182 226.39104306381358 0.599999999979368
    vertex 159.27873945658115 229.60803114629408 0.999999999979368
    vertex 159.27873945658115 229.60803114629408 0.599999999979368
  endloop
endfacet
facet normal -0.9587840156396433 -0.2841359029653247 0.0
  outer loop
    vertex 160.81179998617182 226.39104306381358 0.999999999979368
    vertex 161.8723943929749 222.81218888274336 0.599999999979368
    vertex 161.8723943929749 222.81218888274336 0.999999999979368
  endloop
endfacet
facet normal -0.9587840156396433 -0.2841359029653247 0.0
  outer loop
    vertex 161.8723943929749 222.81218888274336 0.599999999979368
    vertex 160.81179998617182 226.39104306381358 0.999999999979368
    vertex 160.81179998617182 226.39104306381358 0.599999999979368
  endloop
endfacet
facet normal -0.11809800641778745 -0.9930019440465081 0.0
  outer loop
    vertex 151.57807854846433 235.74088685702458 0.999999999979368
    vertex 147.85825152101685 236.1832869538163 0.599999999979368
    vertex 151.57807854846433 235.74088685702458 0.599999999979368
  endloop
endfacet
facet normal -0.11809800641778745 -0.9930019440465081 0.0
  outer loop
    vertex 147.85825152101685 236.1832869538163 0.599999999979368
    vertex 151.57807854846433 235.74088685702458 0.999999999979368
    vertex 147.85825152101685 236.1832869538163 0.999999999979368
  endloop
endfacet
facet normal 0.45647730148169613 0.8897350578863288 -0.0
  outer loop
    vertex 148.1595253733401 195.04590707964618 0.3999999999780813
    vertex 151.0397279452426 193.56822326120025 -2.191902666315304e-11
    vertex 148.1595253733401 195.04590707964618 -2.191902666315304e-11
  endloop
endfacet
facet normal 0.45647730148169613 0.8897350578863288 -0.0
  outer loop
    vertex 151.0397279452426 193.56822326120025 -2.191902666315304e-11
    vertex 148.1595253733401 195.04590707964618 0.3999999999780813
    vertex 151.0397279452426 193.56822326120025 0.3999999999780813
  endloop
endfacet
facet normal 0.5767686898774356 -0.8169075090712942 0.0
  outer loop
    vertex 162.30459351666144 192.40201426818348 0.999999999979368
    vertex 158.13254891454574 189.45638741012198 0.599999999979368
    vertex 162.30459351666144 192.40201426818348 0.599999999979368
  endloop
endfacet
facet normal 0.5767686898774356 -0.8169075090712942 0.0
  outer loop
    vertex 158.13254891454574 189.45638741012198 0.599999999979368
    vertex 162.30459351666144 192.40201426818348 0.999999999979368
    vertex 158.13254891454574 189.45638741012198 0.999999999979368
  endloop
endfacet
facet normal 0.9513356184683754 0.30815668260382384 -0.0
  outer loop
    vertex 141.6655705544794 207.41102046460168 -2.1828787735711505e-11
    vertex 143.9775865943024 200.27340725248908 0.3999999999781715
    vertex 143.9775865943024 200.27340725248908 -2.1828787735711505e-11
  endloop
endfacet
facet normal 0.9513356184683754 0.30815668260382384 -0.0
  outer loop
    vertex 143.9775865943024 200.27340725248908 0.3999999999781715
    vertex 141.6655705544794 207.41102046460168 -2.1828787735711505e-11
    vertex 141.6655705544794 207.41102046460168 0.3999999999781715
  endloop
endfacet
facet normal 0.8802479176707296 -0.4745140708517973 -0.0
  outer loop
    vertex 167.88889765106393 200.54484517595407 0.599999999979368
    vertex 165.53155247510958 196.17184907356233 0.999999999979368
    vertex 165.53155247510958 196.17184907356233 0.599999999979368
  endloop
endfacet
facet normal 0.8802479176707296 -0.4745140708517973 -0.0
  outer loop
    vertex 165.53155247510958 196.17184907356233 0.999999999979368
    vertex 167.88889765106393 200.54484517595407 0.599999999979368
    vertex 167.88889765106393 200.54484517595407 0.999999999979368
  endloop
endfacet
facet normal -0.0 1.0 -0.0
  outer loop
    vertex 140.98172186117176 193.96015538578544 0.999999999979368
    vertex 146.97345132743305 193.96015538578544 0.599999999979368
    vertex 140.98172186117176 193.96015538578544 0.599999999979368
  endloop
endfacet
facet normal -0.0 1.0 -0.0
  outer loop
    vertex 146.97345132743305 193.96015538578544 0.599999999979368
    vertex 140.98172186117176 193.96015538578544 0.999999999979368
    vertex 146.97345132743305 193.96015538578544 0.999999999979368
  endloop
endfacet
facet normal -0.7987992480107872 0.6015976740126255 0.0
  outer loop
    vertex 159.37906180862765 200.79618794939157 0.999999999979368
    vertex 157.27812154314094 198.0065669507054 0.599999999979368
    vertex 157.27812154314094 198.0065669507054 0.999999999979368
  endloop
endfacet
facet normal -0.7987992480107872 0.6015976740126255 0.0
  outer loop
    vertex 157.27812154314094 198.0065669507054 0.599999999979368
    vertex 159.37906180862765 200.79618794939157 0.999999999979368
    vertex 159.37906180862765 200.79618794939157 0.599999999979368
  endloop
endfacet
facet normal 0.8473571226026371 0.5310234521888647 -0.0
  outer loop
    vertex 143.9775865943024 200.27340725248908 -2.1828787735711505e-11
    vertex 145.81721321038367 197.3379046684875 0.3999999999781715
    vertex 145.81721321038367 197.3379046684875 -2.1828787735711505e-11
  endloop
endfacet
facet normal 0.8473571226026371 0.5310234521888647 -0.0
  outer loop
    vertex 145.81721321038367 197.3379046684875 0.3999999999781715
    vertex 143.9775865943024 200.27340725248908 -2.1828787735711505e-11
    vertex 143.9775865943024 200.27340725248908 0.3999999999781715
  endloop
endfacet
facet normal -0.5160588011225922 0.8565531587612722 -1.0421607347381738e-16
  outer loop
    vertex 157.63477210660872 193.56323782321647 -2.1828787735711505e-11
    vertex 160.0626037057515 195.02596532771028 0.3999999999780813
    vertex 160.0626037057515 195.02596532771028 -2.191902666315304e-11
  endloop
endfacet
facet normal -0.5160588011225922 0.8565531587612722 -1.0421607347381738e-16
  outer loop
    vertex 160.0626037057515 195.02596532771028 0.3999999999780813
    vertex 157.63477210660872 193.56323782321647 -2.1828787735711505e-11
    vertex 157.63477210660872 193.56323782321647 0.3999999999781715
  endloop
endfacet
facet normal 0.9955670432197389 0.09405457168424411 -1.820179337830076e-17
  outer loop
    vertex 140.9938276937918 214.52141437361723 -2.1467832025945376e-11
    vertex 141.6655705544794 207.41102046460168 0.3999999999781715
    vertex 141.6655705544794 207.41102046460168 -2.1828787735711505e-11
  endloop
endfacet
facet normal 0.9955670432197389 0.09405457168424411 -1.820179337830076e-17
  outer loop
    vertex 141.6655705544794 207.41102046460168 0.3999999999781715
    vertex 140.9938276937918 214.52141437361723 -2.1467832025945376e-11
    vertex 140.9938276937918 214.52141437361723 0.3999999999785325
  endloop
endfacet
facet normal 0.7596873909502162 -0.6502884498676363 -0.0
  outer loop
    vertex 165.53155247510958 196.17184907356233 0.599999999979368
    vertex 162.30459351666144 192.40201426818348 0.999999999979368
    vertex 162.30459351666144 192.40201426818348 0.599999999979368
  endloop
endfacet
facet normal 0.7596873909502162 -0.6502884498676363 -0.0
  outer loop
    vertex 162.30459351666144 192.40201426818348 0.999999999979368
    vertex 165.53155247510958 196.17184907356233 0.599999999979368
    vertex 165.53155247510958 196.17184907356233 0.999999999979368
  endloop
endfacet
facet normal -0.9616707970417547 0.27420663397714595 0.0
  outer loop
    vertex 161.9325264449662 207.63222051299772 0.999999999979368
    vertex 160.9120456391725 204.05328963288184 0.599999999979368
    vertex 160.9120456391725 204.05328963288184 0.999999999979368
  endloop
endfacet
facet normal -0.9616707970417547 0.27420663397714595 0.0
  outer loop
    vertex 160.9120456391725 204.05328963288184 0.599999999979368
    vertex 161.9325264449662 207.63222051299772 0.999999999979368
    vertex 161.9325264449662 207.63222051299772 0.599999999979368
  endloop
endfacet
facet normal 0.6993885236236718 0.7147416967153244 -1.2624506087753568e-16
  outer loop
    vertex 145.81721321038367 197.3379046684875 -2.1828787735711505e-11
    vertex 148.1595253733401 195.04590707964618 0.3999999999780813
    vertex 148.1595253733401 195.04590707964618 -2.191902666315304e-11
  endloop
endfacet
facet normal 0.6993885236236718 0.7147416967153244 -1.2624506087753568e-16
  outer loop
    vertex 148.1595253733401 195.04590707964618 0.3999999999780813
    vertex 145.81721321038367 197.3379046684875 -2.1828787735711505e-11
    vertex 145.81721321038367 197.3379046684875 0.3999999999781715
  endloop
endfacet
facet normal 0.09795149317056245 0.9951911901668228 -0.0
  outer loop
    vertex 146.85318722345065 243.21996422151543 0.999999999979368
    vertex 152.92989923257673 242.6218650615323 0.599999999979368
    vertex 146.85318722345065 243.21996422151543 0.599999999979368
  endloop
endfacet
facet normal 0.09795149317056245 0.9951911901668228 -0.0
  outer loop
    vertex 152.92989923257673 242.6218650615323 0.599999999979368
    vertex 146.85318722345065 243.21996422151543 0.999999999979368
    vertex 152.92989923257673 242.6218650615323 0.999999999979368
  endloop
endfacet
facet normal -0.15335682514571855 0.9881708780272902 -0.0
  outer loop
    vertex 154.49302578816287 193.07566198838518 0.3999999999781715
    vertex 157.63477210660872 193.56323782321647 -2.1828787735711505e-11
    vertex 154.49302578816287 193.07566198838518 -2.1828787735711505e-11
  endloop
endfacet
facet normal -0.15335682514571855 0.9881708780272902 -0.0
  outer loop
    vertex 157.63477210660872 193.56323782321647 -2.1828787735711505e-11
    vertex 154.49302578816287 193.07566198838518 0.3999999999781715
    vertex 157.63477210660872 193.56323782321647 0.3999999999781715
  endloop
endfacet
facet normal 1.0 -0.0 -0.0
  outer loop
    vertex 140.98172186117176 236.1832869538163 0.599999999979368
    vertex 140.98172186117176 215.6213286438894 0.9999999999800293
    vertex 140.98172186117176 215.6213286438894 0.5999999999800293
  endloop
endfacet
facet normal 1.0 -0.0 -0.0
  outer loop
    vertex 140.98172186117176 215.6213286438894 0.9999999999800293
    vertex 140.98172186117176 236.1832869538163 0.599999999979368
    vertex 140.98172186117176 236.1832869538163 0.999999999979368
  endloop
endfacet
facet normal -0.805157488835249 0.5930610577103477 -4.570983502035361e-16
  outer loop
    vertex 163.66132293971168 199.91169455199133 0.39999999997826174
    vertex 160.0626037057515 195.02596532771028 -2.191902666315304e-11
    vertex 160.0626037057515 195.02596532771028 0.3999999999780813
  endloop
endfacet
facet normal -0.805157488835249 0.5930610577103477 -4.570983502035361e-16
  outer loop
    vertex 160.0626037057515 195.02596532771028 -2.191902666315304e-11
    vertex 163.66132293971168 199.91169455199133 0.39999999997826174
    vertex 163.66132293971168 199.91169455199133 -2.1738548808269974e-11
  endloop
endfacet
facet normal -0.0 1.0 -0.0
  outer loop
    vertex 141.86652205475596 217.72511563227494 0.39999999997983526
    vertex 159.47969095685772 217.72511563227494 -2.0165007511008246e-11
    vertex 141.86652205475596 217.72511563227494 -2.0165007511008246e-11
  endloop
endfacet
facet normal -0.0 1.0 -0.0
  outer loop
    vertex 159.47969095685772 217.72511563227494 -2.0165007511008246e-11
    vertex 141.86652205475596 217.72511563227494 0.39999999997983526
    vertex 159.47969095685772 217.72511563227494 0.39999999997983526
  endloop
endfacet
facet normal 0.982912044325732 0.18407583524029011 -0.0
  outer loop
    vertex 169.35177855364898 225.3457117671458 0.599999999979368
    vertex 170.30161953816264 220.27383395844834 0.999999999979368
    vertex 170.30161953816264 220.27383395844834 0.599999999979368
  endloop
endfacet
facet normal 0.982912044325732 0.18407583524029011 -0.0
  outer loop
    vertex 170.30161953816264 220.27383395844834 0.999999999979368
    vertex 169.35177855364898 225.3457117671458 0.599999999979368
    vertex 169.35177855364898 225.3457117671458 0.999999999979368
  endloop
endfacet
facet normal -0.0 1.0 -0.0
  outer loop
    vertex 133.38176680033118 214.52141437361723 0.9999999999791522
    vertex 140.98172186117176 214.52141437361723 0.5999999999791523
    vertex 133.38176680033118 214.52141437361723 0.5999999999791523
  endloop
endfacet
facet normal -0.0 1.0 -0.0
  outer loop
    vertex 140.98172186117176 214.52141437361723 0.5999999999791523
    vertex 133.38176680033118 214.52141437361723 0.9999999999791522
    vertex 140.98172186117176 214.52141437361723 0.9999999999791522
  endloop
endfacet
facet normal -0.892179595431774 -0.45168082701748136 -2.321719668402079e-17
  outer loop
    vertex 135.84963530143722 199.52436437016075 0.3999999999781715
    vertex 138.08648627627122 195.10603913163712 -2.200926559059457e-11
    vertex 138.08648627627122 195.10603913163712 0.399999999977991
  endloop
endfacet
facet normal -0.892179595431774 -0.45168082701748136 -2.321719668402079e-17
  outer loop
    vertex 138.08648627627122 195.10603913163712 -2.200926559059457e-11
    vertex 135.84963530143722 199.52436437016075 0.3999999999781715
    vertex 135.84963530143722 199.52436437016075 -2.1828787735711505e-11
  endloop
endfacet
facet normal 1.0 -0.0 -0.0
  outer loop
    vertex 169.733433006083 243.21987849178856 -1.95558947507779e-11
    vertex 169.733433006083 235.98194292762895 0.39999999998017366
    vertex 169.733433006083 235.98194292762895 -1.9826611533102498e-11
  endloop
endfacet
facet normal 1.0 -0.0 -0.0
  outer loop
    vertex 169.733433006083 235.98194292762895 0.39999999998017366
    vertex 169.733433006083 243.21987849178856 -1.95558947507779e-11
    vertex 169.733433006083 243.21987849178856 0.3999999999804444
  endloop
endfacet
facet normal -1.754637786503354e-15 -1.2249848565032818e-14 1.0
  outer loop
    vertex 133.36681048637925 209.70309475248897 0.39999999997826174
    vertex 140.9938276937918 214.52141437361723 0.3999999999785325
    vertex 133.09166871362578 214.52141437361723 0.3999999999785325
  endloop
endfacet
facet normal -1.754637786503354e-15 -1.2249848565032818e-14 1.0
  outer loop
    vertex 140.9938276937918 214.52141437361723 0.3999999999785325
    vertex 133.36681048637925 209.70309475248897 0.39999999997826174
    vertex 134.2865087458509 204.4553460315266 0.39999999997826174
  endloop
endfacet
facet normal -1.754637786503354e-15 -1.2249848565032818e-14 1.0
  outer loop
    vertex 140.9938276937918 214.52141437361723 0.3999999999785325
    vertex 134.2865087458509 204.4553460315266 0.39999999997826174
    vertex 135.84963530143722 199.52436437016075 0.3999999999781715
  endloop
endfacet
facet normal -1.754637786503354e-15 -1.2249848565032818e-14 1.0
  outer loop
    vertex 140.9938276937918 214.52141437361723 0.3999999999785325
    vertex 135.84963530143722 199.52436437016075 0.3999999999781715
    vertex 138.08648627627122 195.10603913163712 0.399999999977991
  endloop
endfacet
facet normal -1.754637786503354e-15 -1.2249848565032818e-14 1.0
  outer loop
    vertex 140.9938276937918 214.52141437361723 0.3999999999785325
    vertex 138.08648627627122 195.10603913163712 0.399999999977991
    vertex 141.03717527136266 191.3662703522541 0.39999999997826174
  endloop
endfacet
facet normal -1.754637786503354e-15 -1.2249848565032818e-14 1.0
  outer loop
    vertex 140.9938276937918 214.52141437361723 0.3999999999785325
    vertex 141.03717527136266 191.3662703522541 0.39999999997826174
    vertex 141.6655705544794 207.41102046460168 0.3999999999781715
  endloop
endfacet
facet normal -1.754637786503354e-15 -1.2249848565032818e-14 1.0
  outer loop
    vertex 141.6655705544794 207.41102046460168 0.3999999999781715
    vertex 141.03717527136266 191.3662703522541 0.39999999997826174
    vertex 144.7418158877206 188.4709580683079 0.3999999999780813
  endloop
endfacet
facet normal -1.754637786503354e-15 -1.2249848565032818e-14 1.0
  outer loop
    vertex 141.6655705544794 207.41102046460168 0.3999999999781715
    vertex 144.7418158877206 188.4709580683079 0.3999999999780813
    vertex 143.9775865943024 200.27340725248908 0.3999999999781715
  endloop
endfacet
facet normal -1.754637786503354e-15 -1.2249848565032818e-14 1.0
  outer loop
    vertex 143.9775865943024 200.27340725248908 0.3999999999781715
    vertex 144.7418158877206 188.4709580683079 0.3999999999780813
    vertex 145.81721321038367 197.3379046684875 0.3999999999781715
  endloop
endfacet
facet normal -1.754637786503354e-15 -1.2249848565032818e-14 1.0
  outer loop
    vertex 145.81721321038367 197.3379046684875 0.3999999999781715
    vertex 144.7418158877206 188.4709580683079 0.3999999999780813
    vertex 149.2204265763268 186.61614504113695 0.3999999999780813
  endloop
endfacet
facet normal -1.754637786503354e-15 -1.2249848565032818e-14 1.0
  outer loop
    vertex 145.81721321038367 197.3379046684875 0.3999999999781715
    vertex 149.2204265763268 186.61614504113695 0.3999999999780813
    vertex 148.1595253733401 195.04590707964618 0.3999999999780813
  endloop
endfacet
facet normal -1.754637786503354e-15 -1.2249848565032818e-14 1.0
  outer loop
    vertex 148.1595253733401 195.04590707964618 0.3999999999780813
    vertex 149.2204265763268 186.61614504113695 0.3999999999780813
    vertex 151.0397279452426 193.56822326120025 0.3999999999780813
  endloop
endfacet
facet normal -1.754637786503354e-15 -1.2249848565032818e-14 1.0
  outer loop
    vertex 151.0397279452426 193.56822326120025 0.3999999999780813
    vertex 149.2204265763268 186.61614504113695 0.3999999999780813
    vertex 154.49302578816287 185.99787403207995 0.3999999999781715
  endloop
endfacet
facet normal -1.754637786503354e-15 -1.2249848565032818e-14 1.0
  outer loop
    vertex 151.0397279452426 193.56822326120025 0.3999999999780813
    vertex 154.49302578816287 185.99787403207995 0.3999999999781715
    vertex 154.49302578816287 193.07566198838518 0.3999999999781715
  endloop
endfacet
facet normal -1.754637786503354e-15 -1.2249848565032818e-14 1.0
  outer loop
    vertex 154.49302578816287 193.07566198838518 0.3999999999781715
    vertex 154.49302578816287 185.99787403207995 0.3999999999781715
    vertex 158.6499606782349 186.3748498427134 0.3999999999780813
  endloop
endfacet
facet normal -1.754637786503354e-15 -1.2249848565032818e-14 1.0
  outer loop
    vertex 154.49302578816287 193.07566198838518 0.3999999999781715
    vertex 158.6499606782349 186.3748498427134 0.3999999999780813
    vertex 157.63477210660872 193.56323782321647 0.3999999999781715
  endloop
endfacet
facet normal -1.754637786503354e-15 -1.2249848565032818e-14 1.0
  outer loop
    vertex 157.63477210660872 193.56323782321647 0.3999999999781715
    vertex 158.6499606782349 186.3748498427134 0.3999999999780813
    vertex 160.0626037057515 195.02596532771028 0.3999999999780813
  endloop
endfacet
facet normal -1.754637786503354e-15 -1.2249848565032818e-14 1.0
  outer loop
    vertex 160.0626037057515 195.02596532771028 0.3999999999780813
    vertex 158.6499606782349 186.3748498427134 0.3999999999780813
    vertex 162.1132293971233 187.50577727461297 0.3999999999780813
  endloop
endfacet
facet normal -1.754637786503354e-15 -1.2249848565032818e-14 1.0
  outer loop
    vertex 160.0626037057515 195.02596532771028 0.3999999999780813
    vertex 162.1132293971233 187.50577727461297 0.3999999999780813
    vertex 163.66132293971168 199.91169455199133 0.39999999997826174
  endloop
endfacet
facet normal -1.754637786503354e-15 -1.2249848565032818e-14 1.0
  outer loop
    vertex 163.66132293971168 199.91169455199133 0.39999999997826174
    vertex 162.1132293971233 187.50577727461297 0.3999999999780813
    vertex 164.95324166897038 189.23488056554237 0.39999999997826174
  endloop
endfacet
facet normal -1.754637786503354e-15 -1.2249848565032818e-14 1.0
  outer loop
    vertex 163.66132293971168 199.91169455199133 0.39999999997826174
    vertex 164.95324166897038 189.23488056554237 0.39999999997826174
    vertex 170.4169749032067 196.4129908738939 0.3999999999780813
  endloop
endfacet
facet normal -1.754637786503354e-15 -1.2249848565032818e-14 1.0
  outer loop
    vertex 170.4169749032067 196.4129908738939 0.3999999999780813
    vertex 164.95324166897038 189.23488056554237 0.39999999997826174
    vertex 167.24040721791914 191.40638395326351 0.39999999997826174
  endloop
endfacet
facet normal 1.5260461753985806e-15 -1.3005795492862144e-14 1.0
  outer loop
    vertex 134.26656699391518 215.62132864388977 0.3999999999802188
    vertex 141.86652205475596 217.72511563227494 0.39999999997983526
    vertex 134.26656699391518 243.21987849178856 0.3999999999804444
  endloop
endfacet
facet normal 1.5260461753985806e-15 -1.3005795492862144e-14 1.0
  outer loop
    vertex 141.86652205475596 217.72511563227494 0.39999999997983526
    vertex 134.26656699391518 215.62132864388977 0.3999999999802188
    vertex 159.47969095685772 215.62132864388977 0.3999999999802188
  endloop
endfacet
facet normal 1.5260461753985806e-15 -1.3005795492862144e-14 1.0
  outer loop
    vertex 141.86652205475596 217.72511563227494 0.39999999997983526
    vertex 159.47969095685772 215.62132864388977 0.3999999999802188
    vertex 159.47969095685772 217.72511563227494 0.39999999997983526
  endloop
endfacet
facet normal 1.5260461753985806e-15 -1.3005795492862144e-14 1.0
  outer loop
    vertex 134.26656699391518 243.21987849178856 0.3999999999804444
    vertex 141.86652205475596 235.98194292762895 0.39999999998017366
    vertex 169.733433006083 243.21987849178856 0.3999999999804444
  endloop
endfacet
facet normal 1.5260461753985806e-15 -1.3005795492862144e-14 1.0
  outer loop
    vertex 141.86652205475596 235.98194292762895 0.39999999998017366
    vertex 134.26656699391518 243.21987849178856 0.3999999999804444
    vertex 141.86652205475596 217.72511563227494 0.39999999997983526
  endloop
endfacet
facet normal 1.5260461753985806e-15 -1.3005795492862144e-14 1.0
  outer loop
    vertex 169.733433006083 243.21987849178856 0.3999999999804444
    vertex 141.86652205475596 235.98194292762895 0.39999999998017366
    vertex 169.733433006083 235.98194292762895 0.39999999998017366
  endloop
endfacet
facet normal 1.0 -0.0 -0.0
  outer loop
    vertex 159.47969095685772 217.72511563227494 -2.0165007511008246e-11
    vertex 159.47969095685772 215.62132864388977 0.3999999999802188
    vertex 159.47969095685772 215.62132864388977 -1.9781492069381732e-11
  endloop
endfacet
facet normal 1.0 -0.0 -0.0
  outer loop
    vertex 159.47969095685772 215.62132864388977 0.3999999999802188
    vertex 159.47969095685772 217.72511563227494 -2.0165007511008246e-11
    vertex 159.47969095685772 217.72511563227494 0.39999999997983526
  endloop
endfacet
facet normal 0.0 -1.0 0.0
  outer loop
    vertex 169.733433006083 235.98194292762895 0.39999999998017366
    vertex 141.86652205475596 235.98194292762895 -1.9826611533102498e-11
    vertex 169.733433006083 235.98194292762895 -1.9826611533102498e-11
  endloop
endfacet
facet normal 0.0 -1.0 0.0
  outer loop
    vertex 141.86652205475596 235.98194292762895 -1.9826611533102498e-11
    vertex 169.733433006083 235.98194292762895 0.39999999998017366
    vertex 141.86652205475596 235.98194292762895 0.39999999998017366
  endloop
endfacet
facet normal 0.9982023559286957 -0.05993376859835974 7.10361509365852e-18
  outer loop
    vertex 170.58521026345238 214.52141437361723 0.5999999999791523
    vertex 170.32670012617393 210.2159045734235 0.999999999979368
    vertex 170.32670012617393 210.2159045734235 0.599999999979368
  endloop
endfacet
facet normal 0.9982023559286957 -0.05993376859835974 7.10361509365852e-18
  outer loop
    vertex 170.32670012617393 210.2159045734235 0.999999999979368
    vertex 170.58521026345238 214.52141437361723 0.5999999999791523
    vertex 170.58521026345238 214.52141437361723 0.9999999999791522
  endloop
endfacet
facet normal -0.3826326745529493 -0.923900555451969 0.0
  outer loop
    vertex 149.2204265763268 186.61614504113695 0.3999999999780813
    vertex 144.7418158877206 188.4709580683079 -2.191902666315304e-11
    vertex 149.2204265763268 186.61614504113695 -2.191902666315304e-11
  endloop
endfacet
facet normal -0.3826326745529493 -0.923900555451969 0.0
  outer loop
    vertex 144.7418158877206 188.4709580683079 -2.191902666315304e-11
    vertex 149.2204265763268 186.61614504113695 0.3999999999780813
    vertex 144.7418158877206 188.4709580683079 0.3999999999780813
  endloop
endfacet
facet normal 0.8712478157060752 0.49084340030950113 -0.0
  outer loop
    vertex 165.29041067477797 234.3937448147124 0.599999999979368
    vertex 167.70320926092302 230.11102348935265 0.999999999979368
    vertex 167.70320926092302 230.11102348935265 0.599999999979368
  endloop
endfacet
facet normal 0.8712478157060752 0.49084340030950113 -0.0
  outer loop
    vertex 167.70320926092302 230.11102348935265 0.999999999979368
    vertex 165.29041067477797 234.3937448147124 0.599999999979368
    vertex 165.29041067477797 234.3937448147124 0.999999999979368
  endloop
endfacet
facet normal -0.9532504321726437 -0.3021814249133596 -2.3368270799804697e-17
  outer loop
    vertex 134.2865087458509 204.4553460315266 0.39999999997826174
    vertex 135.84963530143722 199.52436437016075 -2.1828787735711505e-11
    vertex 135.84963530143722 199.52436437016075 0.3999999999781715
  endloop
endfacet
facet normal -0.9532504321726437 -0.3021814249133596 -2.3368270799804697e-17
  outer loop
    vertex 135.84963530143722 199.52436437016075 -2.1828787735711505e-11
    vertex 134.2865087458509 204.4553460315266 0.39999999997826174
    vertex 134.2865087458509 204.4553460315266 -2.1738548808269974e-11
  endloop
endfacet
facet normal -8.561657427411104e-15 -2.3336919943577103e-14 -1.0
  outer loop
    vertex 133.38176680033118 243.21996422151543 0.599999999979368
    vertex 140.98172186117176 236.1832869538163 0.599999999979368
    vertex 133.38176680033118 215.6213286438894 0.5999999999800293
  endloop
endfacet
facet normal -8.561657427411104e-15 -2.3336919943577103e-14 -1.0
  outer loop
    vertex 140.98172186117176 236.1832869538163 0.599999999979368
    vertex 133.38176680033118 243.21996422151543 0.599999999979368
    vertex 146.85318722345065 243.21996422151543 0.599999999979368
  endloop
endfacet
facet normal -8.561657427411104e-15 -2.3336919943577103e-14 -1.0
  outer loop
    vertex 140.98172186117176 236.1832869538163 0.599999999979368
    vertex 146.85318722345065 243.21996422151543 0.599999999979368
    vertex 147.85825152101685 236.1832869538163 0.599999999979368
  endloop
endfacet
facet normal -8.561657427411104e-15 -2.3336919943577103e-14 -1.0
  outer loop
    vertex 147.85825152101685 236.1832869538163 0.599999999979368
    vertex 146.85318722345065 243.21996422151543 0.599999999979368
    vertex 152.92989923257673 242.6218650615323 0.599999999979368
  endloop
endfacet
facet normal -8.561657427411104e-15 -2.3336919943577103e-14 -1.0
  outer loop
    vertex 147.85825152101685 236.1832869538163 0.599999999979368
    vertex 152.92989923257673 242.6218650615323 0.599999999979368
    vertex 151.57807854846433 235.74088685702458 0.599999999979368
  endloop
endfacet
facet normal -8.561657427411104e-15 -2.3336919943577103e-14 -1.0
  outer loop
    vertex 151.57807854846433 235.74088685702458 0.599999999979368
    vertex 152.92989923257673 242.6218650615323 0.599999999979368
    vertex 154.6945908808069 234.4136865666483 0.599999999979368
  endloop
endfacet
facet normal -8.561657427411104e-15 -2.3336919943577103e-14 -1.0
  outer loop
    vertex 154.6945908808069 234.4136865666483 0.599999999979368
    vertex 152.92989923257673 242.6218650615323 0.599999999979368
    vertex 157.97148091814097 240.82756758158183 0.599999999979368
  endloop
endfacet
facet normal -8.561657427411104e-15 -2.3336919943577103e-14 -1.0
  outer loop
    vertex 154.6945908808069 234.4136865666483 0.599999999979368
    vertex 157.97148091814097 240.82756758158183 0.599999999979368
    vertex 157.2480555171453 232.32747251797574 0.599999999979368
  endloop
endfacet
facet normal -8.561657427411104e-15 -2.3336919943577103e-14 -1.0
  outer loop
    vertex 157.2480555171453 232.32747251797574 0.599999999979368
    vertex 157.97148091814097 240.82756758158183 0.599999999979368
    vertex 159.27873945658115 229.60803114629408 0.599999999979368
  endloop
endfacet
facet normal -8.561657427411104e-15 -2.3336919943577103e-14 -1.0
  outer loop
    vertex 159.27873945658115 229.60803114629408 0.599999999979368
    vertex 157.97148091814097 240.82756758158183 0.599999999979368
    vertex 162.06322161919192 238.02291356989792 0.599999999979368
  endloop
endfacet
facet normal -8.561657427411104e-15 -2.3336919943577103e-14 -1.0
  outer loop
    vertex 159.27873945658115 229.60803114629408 0.599999999979368
    vertex 162.06322161919192 238.02291356989792 0.599999999979368
    vertex 160.81179998617182 226.39104306381358 0.599999999979368
  endloop
endfacet
facet normal -8.561657427411104e-15 -2.3336919943577103e-14 -1.0
  outer loop
    vertex 160.81179998617182 226.39104306381358 0.599999999979368
    vertex 162.06322161919192 238.02291356989792 0.599999999979368
    vertex 161.8723943929749 222.81218888274336 0.599999999979368
  endloop
endfacet
facet normal -8.561657427411104e-15 -2.3336919943577103e-14 -1.0
  outer loop
    vertex 161.8723943929749 222.81218888274336 0.599999999979368
    vertex 162.06322161919192 238.02291356989792 0.599999999979368
    vertex 162.63819208081154 215.6213286438894 0.5999999999800293
  endloop
endfacet
facet normal -8.561657427411104e-15 -2.3336919943577103e-14 -1.0
  outer loop
    vertex 162.63819208081154 215.6213286438894 0.5999999999800293
    vertex 162.06322161919192 238.02291356989792 0.599999999979368
    vertex 165.29041067477797 234.3937448147124 0.599999999979368
  endloop
endfacet
facet normal -8.561657427411104e-15 -2.3336919943577103e-14 -1.0
  outer loop
    vertex 162.63819208081154 215.6213286438894 0.5999999999800293
    vertex 165.29041067477797 234.3937448147124 0.599999999979368
    vertex 170.5847660085294 215.6213286438894 0.5999999999800293
  endloop
endfacet
facet normal -8.561657427411104e-15 -2.3336919943577103e-14 -1.0
  outer loop
    vertex 170.5847660085294 215.6213286438894 0.5999999999800293
    vertex 165.29041067477797 234.3937448147124 0.599999999979368
    vertex 167.70320926092302 230.11102348935265 0.599999999979368
  endloop
endfacet
facet normal -8.561657427411104e-15 -2.3336919943577103e-14 -1.0
  outer loop
    vertex 170.5847660085294 215.6213286438894 0.5999999999800293
    vertex 167.70320926092302 230.11102348935265 0.599999999979368
    vertex 169.35177855364898 225.3457117671458 0.599999999979368
  endloop
endfacet
facet normal -8.561657427411104e-15 -2.3336919943577103e-14 -1.0
  outer loop
    vertex 170.5847660085294 215.6213286438894 0.5999999999800293
    vertex 169.35177855364898 225.3457117671458 0.599999999979368
    vertex 170.30161953816264 220.27383395844834 0.599999999979368
  endloop
endfacet
facet normal -8.561657427411104e-15 -2.3336919943577103e-14 -1.0
  outer loop
    vertex 140.98172186117176 215.6213286438894 0.5999999999800293
    vertex 133.38176680033118 215.6213286438894 0.5999999999800293
    vertex 140.98172186117176 236.1832869538163 0.599999999979368
  endloop
endfacet
facet normal 0.949983764703708 -0.3122992904240582 -0.0
  outer loop
    vertex 169.45210090569566 205.2999559250554 0.599999999979368
    vertex 167.88889765106393 200.54484517595407 0.999999999979368
    vertex 167.88889765106393 200.54484517595407 0.599999999979368
  endloop
endfacet
facet normal 0.949983764703708 -0.3122992904240582 -0.0
  outer loop
    vertex 167.88889765106393 200.54484517595407 0.999999999979368
    vertex 169.45210090569566 205.2999559250554 0.599999999979368
    vertex 169.45210090569566 205.2999559250554 0.999999999979368
  endloop
endfacet
facet normal -0.0 1.0 -0.0
  outer loop
    vertex 133.38176680033118 243.21996422151543 0.999999999979368
    vertex 146.85318722345065 243.21996422151543 0.599999999979368
    vertex 133.38176680033118 243.21996422151543 0.599999999979368
  endloop
endfacet
facet normal -0.0 1.0 -0.0
  outer loop
    vertex 146.85318722345065 243.21996422151543 0.599999999979368
    vertex 133.38176680033118 243.21996422151543 0.999999999979368
    vertex 146.85318722345065 243.21996422151543 0.999999999979368
  endloop
endfacet
facet normal -0.7850624248580608 -0.6194166522430455 -1.0375394804211073e-17
  outer loop
    vertex 138.08648627627122 195.10603913163712 0.399999999977991
    vertex 141.03717527136266 191.3662703522541 -2.1738548808269974e-11
    vertex 141.03717527136266 191.3662703522541 0.39999999997826174
  endloop
endfacet
facet normal -0.7850624248580608 -0.6194166522430455 -1.0375394804211073e-17
  outer loop
    vertex 141.03717527136266 191.3662703522541 -2.1738548808269974e-11
    vertex 138.08648627627122 195.10603913163712 0.399999999977991
    vertex 138.08648627627122 195.10603913163712 -2.200926559059457e-11
  endloop
endfacet
facet normal 0.4598792320392297 0.887981470493055 -3.5823499762577914e-17
  outer loop
    vertex 163.66132293971168 199.91169455199133 -2.1738548808269974e-11
    vertex 170.4169749032067 196.4129908738939 0.3999999999780813
    vertex 170.4169749032067 196.4129908738939 -2.191902666315304e-11
  endloop
endfacet
facet normal 0.4598792320392297 0.887981470493055 -3.5823499762577914e-17
  outer loop
    vertex 170.4169749032067 196.4129908738939 0.3999999999780813
    vertex 163.66132293971168 199.91169455199133 -2.1738548808269974e-11
    vertex 163.66132293971168 199.91169455199133 0.39999999997826174
  endloop
endfacet
facet normal 1.0 -0.0 -0.0
  outer loop
    vertex 141.86652205475596 235.98194292762895 -1.9826611533102498e-11
    vertex 141.86652205475596 217.72511563227494 0.39999999997983526
    vertex 141.86652205475596 217.72511563227494 -2.0165007511008246e-11
  endloop
endfacet
facet normal 1.0 -0.0 -0.0
  outer loop
    vertex 141.86652205475596 217.72511563227494 0.39999999997983526
    vertex 141.86652205475596 235.98194292762895 -1.9826611533102498e-11
    vertex 141.86652205475596 235.98194292762895 0.39999999998017366
  endloop
endfacet
facet normal 0.3419004072822851 -0.9397361925030917 0.0
  outer loop
    vertex 158.13254891454574 189.45638741012198 0.999999999979368
    vertex 152.90988078159484 187.55624524681988 0.599999999979368
    vertex 158.13254891454574 189.45638741012198 0.599999999979368
  endloop
endfacet
facet normal 0.3419004072822851 -0.9397361925030917 0.0
  outer loop
    vertex 152.90988078159484 187.55624524681988 0.599999999979368
    vertex 158.13254891454574 189.45638741012198 0.999999999979368
    vertex 152.90988078159484 187.55624524681988 0.999999999979368
  endloop
endfacet
facet normal 0.9845399693645599 -0.17516006600715697 -0.0
  outer loop
    vertex 170.32670012617393 210.2159045734235 0.599999999979368
    vertex 169.45210090569566 205.2999559250554 0.999999999979368
    vertex 169.45210090569566 205.2999559250554 0.599999999979368
  endloop
endfacet
facet normal 0.9845399693645599 -0.17516006600715697 -0.0
  outer loop
    vertex 169.45210090569566 205.2999559250554 0.999999999979368
    vertex 170.32670012617393 210.2159045734235 0.599999999979368
    vertex 170.32670012617393 210.2159045734235 0.999999999979368
  endloop
endfacet
facet normal -0.6157842671488319 -0.787914802711547 1.973892114542965e-16
  outer loop
    vertex 144.7418158877206 188.4709580683079 0.3999999999780813
    vertex 141.03717527136266 191.3662703522541 -2.1738548808269974e-11
    vertex 144.7418158877206 188.4709580683079 -2.191902666315304e-11
  endloop
endfacet
facet normal -0.6157842671488319 -0.787914802711547 1.973892114542965e-16
  outer loop
    vertex 141.03717527136266 191.3662703522541 -2.1738548808269974e-11
    vertex 144.7418158877206 188.4709580683079 0.3999999999780813
    vertex 141.03717527136266 191.3662703522541 0.39999999997826174
  endloop
endfacet
facet normal 0.0988082938202435 -0.9951064873029081 0.0
  outer loop
    vertex 152.90988078159484 187.55624524681988 0.999999999979368
    vertex 146.53105123064094 186.92286452571918 0.599999999979368
    vertex 152.90988078159484 187.55624524681988 0.599999999979368
  endloop
endfacet
facet normal 0.0988082938202435 -0.9951064873029081 0.0
  outer loop
    vertex 146.53105123064094 186.92286452571918 0.599999999979368
    vertex 152.90988078159484 187.55624524681988 0.999999999979368
    vertex 146.53105123064094 186.92286452571918 0.999999999979368
  endloop
endfacet
facet normal 0.9450450123770424 0.3269402461938205 -0.0
  outer loop
    vertex 167.70320926092302 230.11102348935265 0.599999999979368
    vertex 169.35177855364898 225.3457117671458 0.999999999979368
    vertex 169.35177855364898 225.3457117671458 0.599999999979368
  endloop
endfacet
facet normal 0.9450450123770424 0.3269402461938205 -0.0
  outer loop
    vertex 169.35177855364898 225.3457117671458 0.999999999979368
    vertex 167.70320926092302 230.11102348935265 0.599999999979368
    vertex 167.70320926092302 230.11102348935265 0.999999999979368
  endloop
endfacet
facet normal 0.0 -1.0 0.0
  outer loop
    vertex 159.47969095685772 215.62132864388977 0.3999999999802188
    vertex 134.26656699391518 215.62132864388977 -1.9781492069381732e-11
    vertex 159.47969095685772 215.62132864388977 -1.9781492069381732e-11
  endloop
endfacet
facet normal 0.0 -1.0 0.0
  outer loop
    vertex 134.26656699391518 215.62132864388977 -1.9781492069381732e-11
    vertex 159.47969095685772 215.62132864388977 0.3999999999802188
    vertex 134.26656699391518 215.62132864388977 0.3999999999802188
  endloop
endfacet
facet normal 0.5653760071728189 0.8248332986205885 -0.0
  outer loop
    vertex 157.97148091814097 240.82756758158183 0.999999999979368
    vertex 162.06322161919192 238.02291356989792 0.599999999979368
    vertex 157.97148091814097 240.82756758158183 0.599999999979368
  endloop
endfacet
facet normal 0.5653760071728189 0.8248332986205885 -0.0
  outer loop
    vertex 162.06322161919192 238.02291356989792 0.599999999979368
    vertex 157.97148091814097 240.82756758158183 0.999999999979368
    vertex 162.06322161919192 238.02291356989792 0.999999999979368
  endloop
endfacet
facet normal 0.0 -1.0 0.0
  outer loop
    vertex 170.5847660085294 215.6213286438894 0.9999999999800293
    vertex 162.63819208081154 215.6213286438894 0.5999999999800293
    vertex 170.5847660085294 215.6213286438894 0.5999999999800293
  endloop
endfacet
facet normal 0.0 -1.0 0.0
  outer loop
    vertex 162.63819208081154 215.6213286438894 0.5999999999800293
    vertex 170.5847660085294 215.6213286438894 0.9999999999800293
    vertex 162.63819208081154 215.6213286438894 0.9999999999800293
  endloop
endfacet
facet normal 0.33529749844278783 0.9421123009164081 -0.0
  outer loop
    vertex 152.92989923257673 242.6218650615323 0.999999999979368
    vertex 157.97148091814097 240.82756758158183 0.599999999979368
    vertex 152.92989923257673 242.6218650615323 0.599999999979368
  endloop
endfacet
facet normal 0.33529749844278783 0.9421123009164081 -0.0
  outer loop
    vertex 157.97148091814097 240.82756758158183 0.599999999979368
    vertex 152.92989923257673 242.6218650615323 0.999999999979368
    vertex 157.97148091814097 240.82756758158183 0.999999999979368
  endloop
endfacet
facet normal -0.38006494402859653 0.9249598036242116 -0.0
  outer loop
    vertex 151.1406638896564 194.4276360705892 0.999999999979368
    vertex 154.55377143252147 195.83007812500048 0.599999999979368
    vertex 151.1406638896564 194.4276360705892 0.599999999979368
  endloop
endfacet
facet normal -0.38006494402859653 0.9249598036242116 -0.0
  outer loop
    vertex 154.55377143252147 195.83007812500048 0.599999999979368
    vertex 151.1406638896564 194.4276360705892 0.999999999979368
    vertex 154.55377143252147 195.83007812500048 0.999999999979368
  endloop
endfacet
facet normal -0.9947646630176162 0.1021922952646065 -1.5277060071818223e-16
  outer loop
    vertex 162.64025417124458 214.52141437361723 0.9999999999791522
    vertex 161.9325264449662 207.63222051299772 0.599999999979368
    vertex 161.9325264449662 207.63222051299772 0.999999999979368
  endloop
endfacet
facet normal -0.9947646630176162 0.1021922952646065 -1.5277060071818223e-16
  outer loop
    vertex 161.9325264449662 207.63222051299772 0.599999999979368
    vertex 162.64025417124458 214.52141437361723 0.9999999999791522
    vertex 162.64025417124458 214.52141437361723 0.5999999999791523
  endloop
endfacet
facet normal 0.14120587211051686 0.9899802531775614 3.399009963336664e-17
  outer loop
    vertex 151.0397279452426 193.56822326120025 0.3999999999780813
    vertex 154.49302578816287 193.07566198838518 -2.1828787735711505e-11
    vertex 151.0397279452426 193.56822326120025 -2.191902666315304e-11
  endloop
endfacet
facet normal 0.14120587211051686 0.9899802531775614 3.399009963336664e-17
  outer loop
    vertex 154.49302578816287 193.07566198838518 -2.1828787735711505e-11
    vertex 151.0397279452426 193.56822326120025 0.3999999999780813
    vertex 154.49302578816287 193.07566198838518 0.3999999999781715
  endloop
endfacet
facet normal 1.0 -0.0 -0.0
  outer loop
    vertex 140.98172186117176 214.52141437361723 0.5999999999791523
    vertex 140.98172186117176 193.96015538578544 0.999999999979368
    vertex 140.98172186117176 193.96015538578544 0.599999999979368
  endloop
endfacet
facet normal 1.0 -0.0 -0.0
  outer loop
    vertex 140.98172186117176 193.96015538578544 0.999999999979368
    vertex 140.98172186117176 214.52141437361723 0.5999999999791523
    vertex 140.98172186117176 214.52141437361723 0.9999999999791522
  endloop
endfacet
facet normal -0.9047940746891584 0.42584936586472677 0.0
  outer loop
    vertex 160.9120456391725 204.05328963288184 0.999999999979368
    vertex 159.37906180862765 200.79618794939157 0.599999999979368
    vertex 159.37906180862765 200.79618794939157 0.999999999979368
  endloop
endfacet
facet normal -0.9047940746891584 0.42584936586472677 0.0
  outer loop
    vertex 159.37906180862765 200.79618794939157 0.599999999979368
    vertex 160.9120456391725 204.05328963288184 0.999999999979368
    vertex 160.9120456391725 204.05328963288184 0.599999999979368
  endloop
endfacet
facet normal -1.0 0.0 0.0
  outer loop
    vertex 133.38176680033118 243.21996422151543 0.999999999979368
    vertex 133.38176680033118 215.6213286438894 0.5999999999800293
    vertex 133.38176680033118 215.6213286438894 0.9999999999800293
  endloop
endfacet
facet normal -1.0 0.0 0.0
  outer loop
    vertex 133.38176680033118 215.6213286438894 0.5999999999800293
    vertex 133.38176680033118 243.21996422151543 0.999999999979368
    vertex 133.38176680033118 243.21996422151543 0.599999999979368
  endloop
endfacet
facet normal 2.8447905106578754e-15 -7.588690372742872e-15 -1.0
  outer loop
    vertex 140.98172186117176 214.52141437361723 0.5999999999791523
    vertex 133.38176680033118 186.92286452571918 0.599999999979368
    vertex 133.38176680033118 214.52141437361723 0.5999999999791523
  endloop
endfacet
facet normal 2.8447905106578754e-15 -7.588690372742872e-15 -1.0
  outer loop
    vertex 133.38176680033118 186.92286452571918 0.599999999979368
    vertex 140.98172186117176 214.52141437361723 0.5999999999791523
    vertex 140.98172186117176 193.96015538578544 0.599999999979368
  endloop
endfacet
facet normal 2.8447905106578754e-15 -7.588690372742872e-15 -1.0
  outer loop
    vertex 133.38176680033118 186.92286452571918 0.599999999979368
    vertex 140.98172186117176 193.96015538578544 0.599999999979368
    vertex 146.53105123064094 186.92286452571918 0.599999999979368
  endloop
endfacet
facet normal 2.8447905106578754e-15 -7.588690372742872e-15 -1.0
  outer loop
    vertex 146.53105123064094 186.92286452571918 0.599999999979368
    vertex 140.98172186117176 193.96015538578544 0.599999999979368
    vertex 146.97345132743305 193.96015538578544 0.599999999979368
  endloop
endfacet
facet normal 2.8447905106578754e-15 -7.588690372742872e-15 -1.0
  outer loop
    vertex 146.53105123064094 186.92286452571918 0.599999999979368
    vertex 146.97345132743305 193.96015538578544 0.599999999979368
    vertex 152.90988078159484 187.55624524681988 0.599999999979368
  endloop
endfacet
facet normal 2.8447905106578754e-15 -7.588690372742872e-15 -1.0
  outer loop
    vertex 152.90988078159484 187.55624524681988 0.599999999979368
    vertex 146.97345132743305 193.96015538578544 0.599999999979368
    vertex 151.1406638896564 194.4276360705892 0.599999999979368
  endloop
endfacet
facet normal 2.8447905106578754e-15 -7.588690372742872e-15 -1.0
  outer loop
    vertex 152.90988078159484 187.55624524681988 0.599999999979368
    vertex 151.1406638896564 194.4276360705892 0.599999999979368
    vertex 154.55377143252147 195.83007812500048 0.599999999979368
  endloop
endfacet
facet normal 2.8447905106578754e-15 -7.588690372742872e-15 -1.0
  outer loop
    vertex 152.90988078159484 187.55624524681988 0.599999999979368
    vertex 154.55377143252147 195.83007812500048 0.599999999979368
    vertex 158.13254891454574 189.45638741012198 0.599999999979368
  endloop
endfacet
facet normal 2.8447905106578754e-15 -7.588690372742872e-15 -1.0
  outer loop
    vertex 158.13254891454574 189.45638741012198 0.599999999979368
    vertex 154.55377143252147 195.83007812500048 0.599999999979368
    vertex 157.27812154314094 198.0065669507054 0.599999999979368
  endloop
endfacet
facet normal 2.8447905106578754e-15 -7.588690372742872e-15 -1.0
  outer loop
    vertex 158.13254891454574 189.45638741012198 0.599999999979368
    vertex 157.27812154314094 198.0065669507054 0.599999999979368
    vertex 159.37906180862765 200.79618794939157 0.599999999979368
  endloop
endfacet
facet normal 2.8447905106578754e-15 -7.588690372742872e-15 -1.0
  outer loop
    vertex 158.13254891454574 189.45638741012198 0.599999999979368
    vertex 159.37906180862765 200.79618794939157 0.599999999979368
    vertex 162.30459351666144 192.40201426818348 0.599999999979368
  endloop
endfacet
facet normal 2.8447905106578754e-15 -7.588690372742872e-15 -1.0
  outer loop
    vertex 162.30459351666144 192.40201426818348 0.599999999979368
    vertex 159.37906180862765 200.79618794939157 0.599999999979368
    vertex 160.9120456391725 204.05328963288184 0.599999999979368
  endloop
endfacet
facet normal 2.8447905106578754e-15 -7.588690372742872e-15 -1.0
  outer loop
    vertex 162.30459351666144 192.40201426818348 0.599999999979368
    vertex 160.9120456391725 204.05328963288184 0.599999999979368
    vertex 161.9325264449662 207.63222051299772 0.599999999979368
  endloop
endfacet
facet normal 2.8447905106578754e-15 -7.588690372742872e-15 -1.0
  outer loop
    vertex 162.30459351666144 192.40201426818348 0.599999999979368
    vertex 161.9325264449662 207.63222051299772 0.599999999979368
    vertex 162.64025417124458 214.52141437361723 0.5999999999791523
  endloop
endfacet
facet normal 2.8447905106578754e-15 -7.588690372742872e-15 -1.0
  outer loop
    vertex 162.30459351666144 192.40201426818348 0.599999999979368
    vertex 162.64025417124458 214.52141437361723 0.5999999999791523
    vertex 165.53155247510958 196.17184907356233 0.599999999979368
  endloop
endfacet
facet normal 2.8447905106578754e-15 -7.588690372742872e-15 -1.0
  outer loop
    vertex 165.53155247510958 196.17184907356233 0.599999999979368
    vertex 162.64025417124458 214.52141437361723 0.5999999999791523
    vertex 170.58521026345238 214.52141437361723 0.5999999999791523
  endloop
endfacet
facet normal 2.8447905106578754e-15 -7.588690372742872e-15 -1.0
  outer loop
    vertex 165.53155247510958 196.17184907356233 0.599999999979368
    vertex 170.58521026345238 214.52141437361723 0.5999999999791523
    vertex 167.88889765106393 200.54484517595407 0.599999999979368
  endloop
endfacet
facet normal 2.8447905106578754e-15 -7.588690372742872e-15 -1.0
  outer loop
    vertex 167.88889765106393 200.54484517595407 0.599999999979368
    vertex 170.58521026345238 214.52141437361723 0.5999999999791523
    vertex 169.45210090569566 205.2999559250554 0.599999999979368
  endloop
endfacet
facet normal 2.8447905106578754e-15 -7.588690372742872e-15 -1.0
  outer loop
    vertex 169.45210090569566 205.2999559250554 0.599999999979368
    vertex 170.58521026345238 214.52141437361723 0.5999999999791523
    vertex 170.32670012617393 210.2159045734235 0.599999999979368
  endloop
endfacet
facet normal 0.0 -1.0 0.0
  outer loop
    vertex 146.53105123064094 186.92286452571918 0.999999999979368
    vertex 133.38176680033118 186.92286452571918 0.599999999979368
    vertex 146.53105123064094 186.92286452571918 0.599999999979368
  endloop
endfacet
facet normal 0.0 -1.0 0.0
  outer loop
    vertex 133.38176680033118 186.92286452571918 0.599999999979368
    vertex 146.53105123064094 186.92286452571918 0.999999999979368
    vertex 133.38176680033118 186.92286452571918 0.999999999979368
  endloop
endfacet
facet normal -0.6241718390441114 0.7812870889399696 -0.0
  outer loop
    vertex 154.55377143252147 195.83007812500048 0.999999999979368
    vertex 157.27812154314094 198.0065669507054 0.599999999979368
    vertex 154.55377143252147 195.83007812500048 0.599999999979368
  endloop
endfacet
facet normal -0.6241718390441114 0.7812870889399696 -0.0
  outer loop
    vertex 157.27812154314094 198.0065669507054 0.599999999979368
    vertex 154.55377143252147 195.83007812500048 0.999999999979368
    vertex 157.27812154314094 198.0065669507054 0.999999999979368
  endloop
endfacet
facet normal -1.0 0.0 0.0
  outer loop
    vertex 133.38176680033118 214.52141437361723 0.9999999999791522
    vertex 133.38176680033118 186.92286452571918 0.599999999979368
    vertex 133.38176680033118 186.92286452571918 0.999999999979368
  endloop
endfacet
facet normal -1.0 0.0 0.0
  outer loop
    vertex 133.38176680033118 186.92286452571918 0.599999999979368
    vertex 133.38176680033118 214.52141437361723 0.9999999999791522
    vertex 133.38176680033118 214.52141437361723 0.5999999999791523
  endloop
endfacet
facet normal -0.0 1.0 -0.0
  outer loop
    vertex 162.64025417124458 214.52141437361723 0.9999999999791522
    vertex 170.58521026345238 214.52141437361723 0.5999999999791523
    vertex 162.64025417124458 214.52141437361723 0.5999999999791523
  endloop
endfacet
facet normal -0.0 1.0 -0.0
  outer loop
    vertex 170.58521026345238 214.52141437361723 0.5999999999791523
    vertex 162.64025417124458 214.52141437361723 0.9999999999791522
    vertex 170.58521026345238 214.52141437361723 0.9999999999791522
  endloop
endfacet
facet normal -0.0 1.0 -0.0
  outer loop
    vertex 133.09166871362578 214.52141437361723 0.3999999999785325
    vertex 140.9938276937918 214.52141437361723 -2.1467832025945376e-11
    vertex 133.09166871362578 214.52141437361723 -2.1467832025945376e-11
  endloop
endfacet
facet normal -0.0 1.0 -0.0
  outer loop
    vertex 140.9938276937918 214.52141437361723 -2.1467832025945376e-11
    vertex 133.09166871362578 214.52141437361723 0.3999999999785325
    vertex 140.9938276937918 214.52141437361723 0.3999999999785325
  endloop
endfacet
endsolid v1_flaps_250mmbed
