solid v1_flaps_250mmbed
facet normal 0.0 -1.0 0.0
  outer loop
    vertex 230.97936725902355 235.98202865735638 0.999999999979368
    vertex 202.6295591146651 235.98202865735638 0.599999999979368
    vertex 230.97936725902355 235.98202865735638 0.599999999979368
  endloop
endfacet
facet normal 0.0 -1.0 0.0
  outer loop
    vertex 202.6295591146651 235.98202865735638 0.599999999979368
    vertex 230.97936725902355 235.98202865735638 0.999999999979368
    vertex 202.6295591146651 235.98202865735638 0.999999999979368
  endloop
endfacet
facet normal -0.3896394565386776 0.9209674771175388 2.922156336629393e-16
  outer loop
    vertex 205.10264315089233 241.75216554931083 0.3999999999774552
    vertex 209.4155072012935 243.57683585144034 -2.242662063001166e-11
    vertex 205.10264315089233 241.75216554931083 -2.2545059222278672e-11
  endloop
endfacet
facet normal -0.3896394565386776 0.9209674771175388 2.922156336629393e-16
  outer loop
    vertex 209.4155072012935 243.57683585144034 -2.242662063001166e-11
    vertex 205.10264315089233 241.75216554931083 0.3999999999774552
    vertex 209.4155072012935 243.57683585144034 0.3999999999775737
  endloop
endfacet
facet normal 7.147965267442682e-16 -2.4135145652632575e-15 1.0
  outer loop
    vertex 202.6295591146651 186.92286452571898 0.999999999979368
    vertex 195.02960405382433 214.5213286438899 0.9999999999794681
    vertex 195.02960405382433 186.92286452571898 0.999999999979368
  endloop
endfacet
facet normal 7.147965267442682e-16 -2.4135145652632575e-15 1.0
  outer loop
    vertex 195.02960405382433 214.5213286438899 0.9999999999794681
    vertex 202.6295591146651 186.92286452571898 0.999999999979368
    vertex 202.6295591146651 212.41762738523195 0.999999999979368
  endloop
endfacet
facet normal 7.147965267442682e-16 -2.4135145652632575e-15 1.0
  outer loop
    vertex 195.02960405382433 214.5213286438899 0.9999999999794681
    vertex 202.6295591146651 212.41762738523195 0.999999999979368
    vertex 222.6952567086907 214.5213286438899 0.9999999999794681
  endloop
endfacet
facet normal 7.147965267442682e-16 -2.4135145652632575e-15 1.0
  outer loop
    vertex 222.6952567086907 214.5213286438899 0.9999999999794681
    vertex 202.6295591146651 212.41762738523195 0.999999999979368
    vertex 222.6952567086907 212.41762738523195 0.999999999979368
  endloop
endfacet
facet normal -1.772786223809744e-15 -5.146420813608176e-15 -1.0
  outer loop
    vertex 194.02423296007436 220.5048424540397 -2.2539419289313577e-11
    vertex 201.69621478251483 215.62132864389 -2.223627289243968e-11
    vertex 193.75317940001787 215.62132864389 -2.223627289243968e-11
  endloop
endfacet
facet normal -1.772786223809744e-15 -5.146420813608176e-15 -1.0
  outer loop
    vertex 201.69621478251483 215.62132864389 -2.223627289243968e-11
    vertex 194.02423296007436 220.5048424540397 -2.2539419289313577e-11
    vertex 194.92897490559446 225.78771933802733 -2.242944059649421e-11
  endloop
endfacet
facet normal -1.772786223809744e-15 -5.146420813608176e-15 -1.0
  outer loop
    vertex 201.69621478251483 215.62132864389 -2.223627289243968e-11
    vertex 194.92897490559446 225.78771933802733 -2.242944059649421e-11
    vertex 196.46203543518527 230.73388741048322 -2.2485839926145167e-11
  endloop
endfacet
facet normal -1.772786223809744e-15 -5.146420813608176e-15 -1.0
  outer loop
    vertex 201.69621478251483 215.62132864389 -2.223627289243968e-11
    vertex 196.46203543518527 230.73388741048322 -2.2485839926145167e-11
    vertex 198.64857183590414 235.15727478603628 -2.2542239255796125e-11
  endloop
endfacet
facet normal -1.772786223809744e-15 -5.146420813608176e-15 -1.0
  outer loop
    vertex 201.69621478251483 215.62132864389 -2.223627289243968e-11
    vertex 198.64857183590414 235.15727478603628 -2.2542239255796125e-11
    vertex 201.51872683279288 238.8869959904061 -2.2505579691523e-11
  endloop
endfacet
facet normal -1.772786223809744e-15 -5.146420813608176e-15 -1.0
  outer loop
    vertex 201.69621478251483 215.62132864389 -2.223627289243968e-11
    vertex 201.51872683279288 238.8869959904061 -2.2505579691523e-11
    vertex 202.40866586245264 223.23425470168897 -2.2542239255796125e-11
  endloop
endfacet
facet normal -1.772786223809744e-15 -5.146420813608176e-15 -1.0
  outer loop
    vertex 202.40866586245264 223.23425470168897 -2.2542239255796125e-11
    vertex 201.51872683279288 238.8869959904061 -2.2505579691523e-11
    vertex 205.10264315089233 241.75216554931083 -2.2545059222278672e-11
  endloop
endfacet
facet normal -1.772786223809744e-15 -5.146420813608176e-15 -1.0
  outer loop
    vertex 202.40866586245264 223.23425470168897 -2.2542239255796125e-11
    vertex 205.10264315089233 241.75216554931083 -2.2545059222278672e-11
    vertex 204.72068190227512 230.31173586181063 -2.260145855192963e-11
  endloop
endfacet
facet normal -1.772786223809744e-15 -5.146420813608176e-15 -1.0
  outer loop
    vertex 204.72068190227512 230.31173586181063 -2.260145855192963e-11
    vertex 205.10264315089233 241.75216554931083 -2.2545059222278672e-11
    vertex 206.48997549325955 233.1216821076626 -2.255492910496759e-11
  endloop
endfacet
facet normal -1.772786223809744e-15 -5.146420813608176e-15 -1.0
  outer loop
    vertex 206.48997549325955 233.1216821076626 -2.255492910496759e-11
    vertex 205.10264315089233 241.75216554931083 -2.2545059222278672e-11
    vertex 209.4155072012935 243.57683585144034 -2.242662063001166e-11
  endloop
endfacet
facet normal -1.772786223809744e-15 -5.146420813608176e-15 -1.0
  outer loop
    vertex 206.48997549325955 233.1216821076626 -2.255492910496759e-11
    vertex 209.4155072012935 243.57683585144034 -2.242662063001166e-11
    vertex 208.70166918103607 235.278152482386 -2.245482029483714e-11
  endloop
endfacet
facet normal -1.772786223809744e-15 -5.146420813608176e-15 -1.0
  outer loop
    vertex 208.70166918103607 235.278152482386 -2.245482029483714e-11
    vertex 209.4155072012935 243.57683585144034 -2.242662063001166e-11
    vertex 211.36082510263446 236.6504518117555 -2.2546469205519947e-11
  endloop
endfacet
facet normal -1.772786223809744e-15 -5.146420813608176e-15 -1.0
  outer loop
    vertex 211.36082510263446 236.6504518117555 -2.2546469205519947e-11
    vertex 209.4155072012935 243.57683585144034 -2.242662063001166e-11
    vertex 214.47250539508448 244.1850592854834 -2.2502759725040453e-11
  endloop
endfacet
facet normal -1.772786223809744e-15 -5.146420813608176e-15 -1.0
  outer loop
    vertex 211.36082510263446 236.6504518117555 -2.2546469205519947e-11
    vertex 214.47250539508448 244.1850592854834 -2.2502759725040453e-11
    vertex 214.47250539508448 237.1078849215453 -2.2477380026697522e-11
  endloop
endfacet
facet normal -1.772786223809744e-15 -5.146420813608176e-15 -1.0
  outer loop
    vertex 214.47250539508448 237.1078849215453 -2.2477380026697522e-11
    vertex 214.47250539508448 244.1850592854834 -2.2502759725040453e-11
    vertex 219.25269673219785 243.5667882764264 -2.2488659892627714e-11
  endloop
endfacet
facet normal -1.772786223809744e-15 -5.146420813608176e-15 -1.0
  outer loop
    vertex 214.47250539508448 237.1078849215453 -2.2477380026697522e-11
    vertex 219.25269673219785 243.5667882764264 -2.2488659892627714e-11
    vertex 218.7049121463293 236.25836628907834 -2.244777037863077e-11
  endloop
endfacet
facet normal -1.772786223809744e-15 -5.146420813608176e-15 -1.0
  outer loop
    vertex 218.7049121463293 236.25836628907834 -2.244777037863077e-11
    vertex 219.25269673219785 243.5667882764264 -2.2488659892627714e-11
    vertex 221.8313186555935 233.70981039167813 -2.2567618954139056e-11
  endloop
endfacet
facet normal -1.772786223809744e-15 -5.146420813608176e-15 -1.0
  outer loop
    vertex 221.8313186555935 233.70981039167813 -2.2567618954139056e-11
    vertex 219.25269673219785 243.5667882764264 -2.2488659892627714e-11
    vertex 223.5401733984038 241.71197524925543 -2.25436492390374e-11
  endloop
endfacet
facet normal -1.772786223809744e-15 -5.146420813608176e-15 -1.0
  outer loop
    vertex 221.8313186555935 233.70981039167813 -2.2567618954139056e-11
    vertex 223.5401733984038 241.71197524925543 -2.25436492390374e-11
    vertex 223.76137344679947 229.80414157599745 -2.2595818618964535e-11
  endloop
endfacet
facet normal -1.772786223809744e-15 -5.146420813608176e-15 -1.0
  outer loop
    vertex 223.76137344679947 229.80414157599745 -2.2595818618964535e-11
    vertex 223.5401733984038 241.71197524925543 -2.25436492390374e-11
    vertex 227.15914118048343 238.6507629290123 -2.253377935634848e-11
  endloop
endfacet
facet normal -1.772786223809744e-15 -5.146420813608176e-15 -1.0
  outer loop
    vertex 223.76137344679947 229.80414157599745 -2.2595818618964535e-11
    vertex 227.15914118048343 238.6507629290123 -2.253377935634848e-11
    vertex 224.40472504386813 224.88328418869116 -2.257889882006925e-11
  endloop
endfacet
facet normal -1.772786223809744e-15 -5.146420813608176e-15 -1.0
  outer loop
    vertex 224.40472504386813 224.88328418869116 -2.257889882006925e-11
    vertex 227.15914118048343 238.6507629290123 -2.253377935634848e-11
    vertex 224.40472504386813 222.5909031046203 -2.2618378350824917e-11
  endloop
endfacet
facet normal -1.772786223809744e-15 -5.146420813608176e-15 -1.0
  outer loop
    vertex 224.40472504386813 222.5909031046203 -2.2618378350824917e-11
    vertex 214.31174419486368 215.62132864389 -2.223627289243968e-11
    vertex 214.31174419486368 222.5909031046203 -2.2618378350824917e-11
  endloop
endfacet
facet normal -1.772786223809744e-15 -5.146420813608176e-15 -1.0
  outer loop
    vertex 214.31174419486368 215.62132864389 -2.223627289243968e-11
    vertex 224.40472504386813 222.5909031046203 -2.2618378350824917e-11
    vertex 232.2863190012798 215.62132864389 -2.223627289243968e-11
  endloop
endfacet
facet normal -1.772786223809744e-15 -5.146420813608176e-15 -1.0
  outer loop
    vertex 232.2863190012798 215.62132864389 -2.223627289243968e-11
    vertex 224.40472504386813 222.5909031046203 -2.2618378350824917e-11
    vertex 227.15914118048343 238.6507629290123 -2.253377935634848e-11
  endloop
endfacet
facet normal -1.772786223809744e-15 -5.146420813608176e-15 -1.0
  outer loop
    vertex 232.2863190012798 215.62132864389 -2.223627289243968e-11
    vertex 227.15914118048343 238.6507629290123 -2.253377935634848e-11
    vertex 229.93380586521783 234.41329404073772 -2.2583128769793068e-11
  endloop
endfacet
facet normal -1.772786223809744e-15 -5.146420813608176e-15 -1.0
  outer loop
    vertex 232.2863190012798 215.62132864389 -2.223627289243968e-11
    vertex 229.93380586521783 234.41329404073772 -2.2583128769793068e-11
    vertex 231.69819071726425 229.0448977205636 -2.248301995966262e-11
  endloop
endfacet
facet normal -1.772786223809744e-15 -5.146420813608176e-15 -1.0
  outer loop
    vertex 232.2863190012798 215.62132864389 -2.223627289243968e-11
    vertex 231.69819071726425 229.0448977205636 -2.248301995966262e-11
    vertex 232.2863190012798 222.5909031046203 -2.2618378350824917e-11
  endloop
endfacet
facet normal -0.0 1.0 -0.0
  outer loop
    vertex 202.6295591146651 219.61567944551976 0.999999999979368
    vertex 222.6952567086907 219.61567944551976 0.599999999979368
    vertex 202.6295591146651 219.61567944551976 0.599999999979368
  endloop
endfacet
facet normal -0.0 1.0 -0.0
  outer loop
    vertex 222.6952567086907 219.61567944551976 0.599999999979368
    vertex 202.6295591146651 219.61567944551976 0.999999999979368
    vertex 222.6952567086907 219.61567944551976 0.999999999979368
  endloop
endfacet
facet normal 0.0 -1.0 0.0
  outer loop
    vertex 220.48417661328205 210.52706357198736 0.3999999999787355
    vertex 202.87100771118062 210.52706357198736 -2.1264794439201926e-11
    vertex 220.48417661328205 210.52706357198736 -2.1264794439201926e-11
  endloop
endfacet
facet normal 0.0 -1.0 0.0
  outer loop
    vertex 202.87100771118062 210.52706357198736 -2.1264794439201926e-11
    vertex 220.48417661328205 210.52706357198736 0.3999999999787355
    vertex 202.87100771118062 210.52706357198736 0.3999999999787355
  endloop
endfacet
facet normal -1.1934120103038123e-15 -1.337820901377989e-14 1.0
  outer loop
    vertex 195.02960405382433 215.62132864388963 0.9999999999788273
    vertex 202.6295591146651 219.61567944551976 0.999999999979368
    vertex 195.02960405382433 243.21996422151565 0.999999999979368
  endloop
endfacet
facet normal -1.1934120103038123e-15 -1.337820901377989e-14 1.0
  outer loop
    vertex 202.6295591146651 219.61567944551976 0.999999999979368
    vertex 195.02960405382433 215.62132864388963 0.9999999999788273
    vertex 222.6952567086907 215.62132864388963 0.9999999999788273
  endloop
endfacet
facet normal -1.1934120103038123e-15 -1.337820901377989e-14 1.0
  outer loop
    vertex 202.6295591146651 219.61567944551976 0.999999999979368
    vertex 222.6952567086907 215.62132864388963 0.9999999999788273
    vertex 222.6952567086907 219.61567944551976 0.999999999979368
  endloop
endfacet
facet normal -1.1934120103038123e-15 -1.337820901377989e-14 1.0
  outer loop
    vertex 195.02960405382433 243.21996422151565 0.999999999979368
    vertex 202.6295591146651 235.98202865735638 0.999999999979368
    vertex 230.97936725902355 243.21996422151565 0.999999999979368
  endloop
endfacet
facet normal -1.1934120103038123e-15 -1.337820901377989e-14 1.0
  outer loop
    vertex 202.6295591146651 235.98202865735638 0.999999999979368
    vertex 195.02960405382433 243.21996422151565 0.999999999979368
    vertex 202.6295591146651 219.61567944551976 0.999999999979368
  endloop
endfacet
facet normal -1.1934120103038123e-15 -1.337820901377989e-14 1.0
  outer loop
    vertex 230.97936725902355 243.21996422151565 0.999999999979368
    vertex 202.6295591146651 235.98202865735638 0.999999999979368
    vertex 230.97936725902355 235.98202865735638 0.999999999979368
  endloop
endfacet
facet normal 0.14544203700448857 -0.989366774190434 5.540409459332137e-17
  outer loop
    vertex 214.47250539508448 237.1078849215453 -2.2477380026697522e-11
    vertex 211.36082510263446 236.6504518117555 0.39999999997745384
    vertex 211.36082510263446 236.6504518117555 -2.2546469205519947e-11
  endloop
endfacet
facet normal 0.14544203700448857 -0.989366774190434 5.540409459332137e-17
  outer loop
    vertex 211.36082510263446 236.6504518117555 0.39999999997745384
    vertex 214.47250539508448 237.1078849215453 -2.2477380026697522e-11
    vertex 214.47250539508448 237.1078849215453 0.3999999999775229
  endloop
endfacet
facet normal 1.0 -0.0 -0.0
  outer loop
    vertex 202.6295591146651 212.41762738523195 0.599999999979368
    vertex 202.6295591146651 186.92286452571898 0.999999999979368
    vertex 202.6295591146651 186.92286452571898 0.599999999979368
  endloop
endfacet
facet normal 1.0 -0.0 -0.0
  outer loop
    vertex 202.6295591146651 186.92286452571898 0.999999999979368
    vertex 202.6295591146651 212.41762738523195 0.599999999979368
    vertex 202.6295591146651 212.41762738523195 0.999999999979368
  endloop
endfacet
facet normal 1.0 -0.0 -0.0
  outer loop
    vertex 229.00881537157863 194.1607143601514 -2.1512951489666142e-11
    vertex 229.00881537157863 186.92277879599212 0.3999999999782787
    vertex 229.00881537157863 186.92277879599212 -2.1721629009374687e-11
  endloop
endfacet
facet normal 1.0 -0.0 -0.0
  outer loop
    vertex 229.00881537157863 186.92277879599212 0.3999999999782787
    vertex 229.00881537157863 194.1607143601514 -2.1512951489666142e-11
    vertex 229.00881537157863 194.1607143601514 0.39999999997848734
  endloop
endfacet
facet normal -1.0 0.0 0.0
  outer loop
    vertex 195.02960405382433 243.21996422151565 0.999999999979368
    vertex 195.02960405382433 215.62132864388963 0.5999999999788272
    vertex 195.02960405382433 215.62132864388963 0.9999999999788273
  endloop
endfacet
facet normal -1.0 0.0 0.0
  outer loop
    vertex 195.02960405382433 215.62132864388963 0.5999999999788272
    vertex 195.02960405382433 243.21996422151565 0.999999999979368
    vertex 195.02960405382433 243.21996422151565 0.599999999979368
  endloop
endfacet
facet normal 0.6458203727556497 0.7634893883570052 -3.640005136518348e-16
  outer loop
    vertex 223.5401733984038 241.71197524925543 0.3999999999774566
    vertex 227.15914118048343 238.6507629290123 -2.253377935634848e-11
    vertex 223.5401733984038 241.71197524925543 -2.25436492390374e-11
  endloop
endfacet
facet normal 0.6458203727556497 0.7634893883570052 -3.640005136518348e-16
  outer loop
    vertex 227.15914118048343 238.6507629290123 -2.253377935634848e-11
    vertex 223.5401733984038 241.71197524925543 0.3999999999774566
    vertex 227.15914118048343 238.6507629290123 0.3999999999774665
  endloop
endfacet
facet normal 1.0 -0.0 -0.0
  outer loop
    vertex 220.48417661328205 214.5213286438899 -2.0745920606413115e-11
    vertex 220.48417661328205 210.52706357198736 0.3999999999787355
    vertex 220.48417661328205 210.52706357198736 -2.1264794439201926e-11
  endloop
endfacet
facet normal 1.0 -0.0 -0.0
  outer loop
    vertex 220.48417661328205 210.52706357198736 0.3999999999787355
    vertex 220.48417661328205 214.5213286438899 -2.0745920606413115e-11
    vertex 220.48417661328205 214.5213286438899 0.39999999997925434
  endloop
endfacet
facet normal -0.0 1.0 -0.0
  outer loop
    vertex 195.02960405382433 243.21996422151565 0.999999999979368
    vertex 230.97936725902355 243.21996422151565 0.599999999979368
    vertex 195.02960405382433 243.21996422151565 0.599999999979368
  endloop
endfacet
facet normal -0.0 1.0 -0.0
  outer loop
    vertex 230.97936725902355 243.21996422151565 0.599999999979368
    vertex 195.02960405382433 243.21996422151565 0.999999999979368
    vertex 230.97936725902355 243.21996422151565 0.999999999979368
  endloop
endfacet
facet normal -0.6244340836779106 0.7810775090484479 1.7339109424079883e-16
  outer loop
    vertex 201.51872683279288 238.8869959904061 -2.2505579691523e-11
    vertex 205.10264315089233 241.75216554931083 0.3999999999774552
    vertex 205.10264315089233 241.75216554931083 -2.2545059222278672e-11
  endloop
endfacet
facet normal -0.6244340836779106 0.7810775090484479 1.7339109424079883e-16
  outer loop
    vertex 205.10264315089233 241.75216554931083 0.3999999999774552
    vertex 201.51872683279288 238.8869959904061 -2.2505579691523e-11
    vertex 201.51872683279288 238.8869959904061 0.3999999999774947
  endloop
endfacet
facet normal 1.0 -0.0 -0.0
  outer loop
    vertex 222.6952567086907 219.61567944551976 0.599999999979368
    vertex 222.6952567086907 215.62132864388963 0.9999999999788273
    vertex 222.6952567086907 215.62132864388963 0.5999999999788272
  endloop
endfacet
facet normal 1.0 -0.0 -0.0
  outer loop
    vertex 222.6952567086907 215.62132864388963 0.9999999999788273
    vertex 222.6952567086907 219.61567944551976 0.599999999979368
    vertex 222.6952567086907 219.61567944551976 0.999999999979368
  endloop
endfacet
facet normal 1.0 -0.0 -0.0
  outer loop
    vertex 202.6295591146651 235.98202865735638 0.599999999979368
    vertex 202.6295591146651 219.61567944551976 0.999999999979368
    vertex 202.6295591146651 219.61567944551976 0.599999999979368
  endloop
endfacet
facet normal 1.0 -0.0 -0.0
  outer loop
    vertex 202.6295591146651 219.61567944551976 0.999999999979368
    vertex 202.6295591146651 235.98202865735638 0.599999999979368
    vertex 202.6295591146651 235.98202865735638 0.999999999979368
  endloop
endfacet
facet normal 8.719688130873879e-16 -2.9313760646811904e-14 1.0
  outer loop
    vertex 195.27105265033987 186.92277879599212 0.3999999999782787
    vertex 202.87100771118062 194.1607143601514 0.39999999997848734
    vertex 195.27105265033987 214.5213286438899 0.39999999997925434
  endloop
endfacet
facet normal 8.719688130873879e-16 -2.9313760646811904e-14 1.0
  outer loop
    vertex 202.87100771118062 194.1607143601514 0.39999999997848734
    vertex 195.27105265033987 186.92277879599212 0.3999999999782787
    vertex 229.00881537157863 186.92277879599212 0.3999999999782787
  endloop
endfacet
facet normal 8.719688130873879e-16 -2.9313760646811904e-14 1.0
  outer loop
    vertex 202.87100771118062 194.1607143601514 0.39999999997848734
    vertex 229.00881537157863 186.92277879599212 0.3999999999782787
    vertex 229.00881537157863 194.1607143601514 0.39999999997848734
  endloop
endfacet
facet normal 8.719688130873879e-16 -2.9313760646811904e-14 1.0
  outer loop
    vertex 195.27105265033987 214.5213286438899 0.39999999997925434
    vertex 202.87100771118062 210.52706357198736 0.3999999999787355
    vertex 220.48417661328205 214.5213286438899 0.39999999997925434
  endloop
endfacet
facet normal 8.719688130873879e-16 -2.9313760646811904e-14 1.0
  outer loop
    vertex 202.87100771118062 210.52706357198736 0.3999999999787355
    vertex 195.27105265033987 214.5213286438899 0.39999999997925434
    vertex 202.87100771118062 194.1607143601514 0.39999999997848734
  endloop
endfacet
facet normal 8.719688130873879e-16 -2.9313760646811904e-14 1.0
  outer loop
    vertex 220.48417661328205 214.5213286438899 0.39999999997925434
    vertex 202.87100771118062 210.52706357198736 0.3999999999787355
    vertex 220.48417661328205 210.52706357198736 0.3999999999787355
  endloop
endfacet
facet normal 0.8366066317365508 0.5478041107315857 6.185791762181111e-17
  outer loop
    vertex 227.15914118048343 238.6507629290123 -2.253377935634848e-11
    vertex 229.93380586521783 234.41329404073772 0.39999999997741714
    vertex 229.93380586521783 234.41329404073772 -2.2583128769793068e-11
  endloop
endfacet
facet normal 0.8366066317365508 0.5478041107315857 6.185791762181111e-17
  outer loop
    vertex 229.93380586521783 234.41329404073772 0.39999999997741714
    vertex 227.15914118048343 238.6507629290123 -2.253377935634848e-11
    vertex 227.15914118048343 238.6507629290123 0.3999999999774665
  endloop
endfacet
facet normal 0.0 -1.0 0.0
  outer loop
    vertex 202.6295591146651 186.92286452571898 0.999999999979368
    vertex 195.02960405382433 186.92286452571898 0.599999999979368
    vertex 202.6295591146651 186.92286452571898 0.599999999979368
  endloop
endfacet
facet normal 0.0 -1.0 0.0
  outer loop
    vertex 195.02960405382433 186.92286452571898 0.599999999979368
    vertex 202.6295591146651 186.92286452571898 0.999999999979368
    vertex 195.02960405382433 186.92286452571898 0.999999999979368
  endloop
endfacet
facet normal 0.0 -1.0 0.0
  outer loop
    vertex 222.6952567086907 215.62132864388963 0.9999999999788273
    vertex 195.02960405382433 215.62132864388963 0.5999999999788272
    vertex 222.6952567086907 215.62132864388963 0.5999999999788272
  endloop
endfacet
facet normal 0.0 -1.0 0.0
  outer loop
    vertex 195.02960405382433 215.62132864388963 0.5999999999788272
    vertex 222.6952567086907 215.62132864388963 0.9999999999788273
    vertex 195.02960405382433 215.62132864388963 0.9999999999788273
  endloop
endfacet
facet normal 0.9500063877011354 0.312230465084751 1.804514358183784e-16
  outer loop
    vertex 229.93380586521783 234.41329404073772 -2.2583128769793068e-11
    vertex 231.69819071726425 229.0448977205636 0.3999999999775173
    vertex 231.69819071726425 229.0448977205636 -2.248301995966262e-11
  endloop
endfacet
facet normal 0.9500063877011354 0.312230465084751 1.804514358183784e-16
  outer loop
    vertex 231.69819071726425 229.0448977205636 0.3999999999775173
    vertex 229.93380586521783 234.41329404073772 -2.2583128769793068e-11
    vertex 229.93380586521783 234.41329404073772 0.39999999997741714
  endloop
endfacet
facet normal 0.9956495358841059 -0.09317725953130862 6.374046034255987e-18
  outer loop
    vertex 202.40866586245264 223.23425470168897 -2.2542239255796125e-11
    vertex 201.69621478251483 215.62132864389 0.39999999997776403
    vertex 201.69621478251483 215.62132864389 -2.223627289243968e-11
  endloop
endfacet
facet normal 0.9956495358841059 -0.09317725953130862 6.374046034255987e-18
  outer loop
    vertex 201.69621478251483 215.62132864389 0.39999999997776403
    vertex 202.40866586245264 223.23425470168897 -2.2542239255796125e-11
    vertex 202.40866586245264 223.23425470168897 0.39999999997745805
  endloop
endfacet
facet normal 0.0 -1.0 0.0
  outer loop
    vertex 232.2863190012798 215.62132864389 0.39999999997776403
    vertex 214.31174419486368 215.62132864389 -2.223627289243968e-11
    vertex 232.2863190012798 215.62132864389 -2.223627289243968e-11
  endloop
endfacet
facet normal 0.0 -1.0 0.0
  outer loop
    vertex 214.31174419486368 215.62132864389 -2.223627289243968e-11
    vertex 232.2863190012798 215.62132864389 0.39999999997776403
    vertex 214.31174419486368 215.62132864389 0.39999999997776403
  endloop
endfacet
facet normal -0.7925070456587554 0.6098627571685546 1.9742901324693455e-17
  outer loop
    vertex 201.51872683279288 238.8869959904061 0.3999999999774947
    vertex 198.64857183590414 235.15727478603628 -2.2542239255796125e-11
    vertex 198.64857183590414 235.15727478603628 0.39999999997745805
  endloop
endfacet
facet normal -0.7925070456587554 0.6098627571685546 1.9742901324693455e-17
  outer loop
    vertex 198.64857183590414 235.15727478603628 -2.2542239255796125e-11
    vertex 201.51872683279288 238.8869959904061 0.3999999999774947
    vertex 201.51872683279288 238.8869959904061 -2.2505579691523e-11
  endloop
endfacet
facet normal -0.9551710651738284 0.29605444812516213 -1.7656851271529796e-16
  outer loop
    vertex 196.46203543518527 230.73388741048322 0.39999999997751445
    vertex 194.92897490559446 225.78771933802733 -2.242944059649421e-11
    vertex 194.92897490559446 225.78771933802733 0.39999999997757085
  endloop
endfacet
facet normal -0.9551710651738284 0.29605444812516213 -1.7656851271529796e-16
  outer loop
    vertex 194.92897490559446 225.78771933802733 -2.242944059649421e-11
    vertex 196.46203543518527 230.73388741048322 0.39999999997751445
    vertex 196.46203543518527 230.73388741048322 -2.2485839926145167e-11
  endloop
endfacet
facet normal 0.4585985221809873 -0.8886435705351243 -1.044353187978828e-17
  outer loop
    vertex 211.36082510263446 236.6504518117555 0.39999999997745384
    vertex 208.70166918103607 235.278152482386 -2.245482029483714e-11
    vertex 211.36082510263446 236.6504518117555 -2.2546469205519947e-11
  endloop
endfacet
facet normal 0.4585985221809873 -0.8886435705351243 -1.044353187978828e-17
  outer loop
    vertex 208.70166918103607 235.278152482386 -2.245482029483714e-11
    vertex 211.36082510263446 236.6504518117555 0.39999999997745384
    vertex 208.70166918103607 235.278152482386 0.3999999999775455
  endloop
endfacet
facet normal -0.8964572722022066 0.443130183034037 -1.1014168951729563e-16
  outer loop
    vertex 198.64857183590414 235.15727478603628 0.39999999997745805
    vertex 196.46203543518527 230.73388741048322 -2.2485839926145167e-11
    vertex 196.46203543518527 230.73388741048322 0.39999999997751445
  endloop
endfacet
facet normal -0.8964572722022066 0.443130183034037 -1.1014168951729563e-16
  outer loop
    vertex 196.46203543518527 230.73388741048322 -2.2485839926145167e-11
    vertex 198.64857183590414 235.15727478603628 0.39999999997745805
    vertex 198.64857183590414 235.15727478603628 -2.2542239255796125e-11
  endloop
endfacet
facet normal -0.0 1.0 -0.0
  outer loop
    vertex 202.87100771118062 194.1607143601514 0.39999999997848734
    vertex 229.00881537157863 194.1607143601514 -2.1512951489666142e-11
    vertex 202.87100771118062 194.1607143601514 -2.1512951489666142e-11
  endloop
endfacet
facet normal -0.0 1.0 -0.0
  outer loop
    vertex 229.00881537157863 194.1607143601514 -2.1512951489666142e-11
    vertex 202.87100771118062 194.1607143601514 0.39999999997848734
    vertex 229.00881537157863 194.1607143601514 0.39999999997848734
  endloop
endfacet
facet normal 1.7727862238097434e-15 5.1464208136081744e-15 1.0
  outer loop
    vertex 232.2863190012798 215.62132864389 0.39999999997776403
    vertex 214.31174419486368 222.5909031046203 0.3999999999773819
    vertex 214.31174419486368 215.62132864389 0.39999999997776403
  endloop
endfacet
facet normal 1.7727862238097434e-15 5.1464208136081744e-15 1.0
  outer loop
    vertex 214.31174419486368 222.5909031046203 0.3999999999773819
    vertex 232.2863190012798 215.62132864389 0.39999999997776403
    vertex 224.40472504386813 222.5909031046203 0.3999999999773819
  endloop
endfacet
facet normal 1.7727862238097434e-15 5.1464208136081744e-15 1.0
  outer loop
    vertex 224.40472504386813 222.5909031046203 0.3999999999773819
    vertex 232.2863190012798 215.62132864389 0.39999999997776403
    vertex 224.40472504386813 224.88328418869116 0.39999999997742136
  endloop
endfacet
facet normal 1.7727862238097434e-15 5.1464208136081744e-15 1.0
  outer loop
    vertex 224.40472504386813 224.88328418869116 0.39999999997742136
    vertex 232.2863190012798 215.62132864389 0.39999999997776403
    vertex 227.15914118048343 238.6507629290123 0.3999999999774665
  endloop
endfacet
facet normal 1.7727862238097434e-15 5.1464208136081744e-15 1.0
  outer loop
    vertex 227.15914118048343 238.6507629290123 0.3999999999774665
    vertex 232.2863190012798 215.62132864389 0.39999999997776403
    vertex 229.93380586521783 234.41329404073772 0.39999999997741714
  endloop
endfacet
facet normal 1.7727862238097434e-15 5.1464208136081744e-15 1.0
  outer loop
    vertex 229.93380586521783 234.41329404073772 0.39999999997741714
    vertex 232.2863190012798 215.62132864389 0.39999999997776403
    vertex 231.69819071726425 229.0448977205636 0.3999999999775173
  endloop
endfacet
facet normal 1.7727862238097434e-15 5.1464208136081744e-15 1.0
  outer loop
    vertex 231.69819071726425 229.0448977205636 0.3999999999775173
    vertex 232.2863190012798 215.62132864389 0.39999999997776403
    vertex 232.2863190012798 222.5909031046203 0.3999999999773819
  endloop
endfacet
facet normal 1.7727862238097434e-15 5.1464208136081744e-15 1.0
  outer loop
    vertex 201.69621478251483 215.62132864389 0.39999999997776403
    vertex 194.02423296007436 220.5048424540397 0.3999999999774609
    vertex 193.75317940001787 215.62132864389 0.39999999997776403
  endloop
endfacet
facet normal 1.7727862238097434e-15 5.1464208136081744e-15 1.0
  outer loop
    vertex 194.02423296007436 220.5048424540397 0.3999999999774609
    vertex 201.69621478251483 215.62132864389 0.39999999997776403
    vertex 194.92897490559446 225.78771933802733 0.39999999997757085
  endloop
endfacet
facet normal 1.7727862238097434e-15 5.1464208136081744e-15 1.0
  outer loop
    vertex 194.92897490559446 225.78771933802733 0.39999999997757085
    vertex 201.69621478251483 215.62132864389 0.39999999997776403
    vertex 196.46203543518527 230.73388741048322 0.39999999997751445
  endloop
endfacet
facet normal 1.7727862238097434e-15 5.1464208136081744e-15 1.0
  outer loop
    vertex 196.46203543518527 230.73388741048322 0.39999999997751445
    vertex 201.69621478251483 215.62132864389 0.39999999997776403
    vertex 198.64857183590414 235.15727478603628 0.39999999997745805
  endloop
endfacet
facet normal 1.7727862238097434e-15 5.1464208136081744e-15 1.0
  outer loop
    vertex 198.64857183590414 235.15727478603628 0.39999999997745805
    vertex 201.69621478251483 215.62132864389 0.39999999997776403
    vertex 201.51872683279288 238.8869959904061 0.3999999999774947
  endloop
endfacet
facet normal 1.7727862238097434e-15 5.1464208136081744e-15 1.0
  outer loop
    vertex 201.51872683279288 238.8869959904061 0.3999999999774947
    vertex 201.69621478251483 215.62132864389 0.39999999997776403
    vertex 202.40866586245264 223.23425470168897 0.39999999997745805
  endloop
endfacet
facet normal 1.7727862238097434e-15 5.1464208136081744e-15 1.0
  outer loop
    vertex 201.51872683279288 238.8869959904061 0.3999999999774947
    vertex 202.40866586245264 223.23425470168897 0.39999999997745805
    vertex 205.10264315089233 241.75216554931083 0.3999999999774552
  endloop
endfacet
facet normal 1.7727862238097434e-15 5.1464208136081744e-15 1.0
  outer loop
    vertex 205.10264315089233 241.75216554931083 0.3999999999774552
    vertex 202.40866586245264 223.23425470168897 0.39999999997745805
    vertex 204.72068190227512 230.31173586181063 0.3999999999773988
  endloop
endfacet
facet normal 1.7727862238097434e-15 5.1464208136081744e-15 1.0
  outer loop
    vertex 205.10264315089233 241.75216554931083 0.3999999999774552
    vertex 204.72068190227512 230.31173586181063 0.3999999999773988
    vertex 206.48997549325955 233.1216821076626 0.39999999997744534
  endloop
endfacet
facet normal 1.7727862238097434e-15 5.1464208136081744e-15 1.0
  outer loop
    vertex 205.10264315089233 241.75216554931083 0.3999999999774552
    vertex 206.48997549325955 233.1216821076626 0.39999999997744534
    vertex 209.4155072012935 243.57683585144034 0.3999999999775737
  endloop
endfacet
facet normal 1.7727862238097434e-15 5.1464208136081744e-15 1.0
  outer loop
    vertex 209.4155072012935 243.57683585144034 0.3999999999775737
    vertex 206.48997549325955 233.1216821076626 0.39999999997744534
    vertex 208.70166918103607 235.278152482386 0.3999999999775455
  endloop
endfacet
facet normal 1.7727862238097434e-15 5.1464208136081744e-15 1.0
  outer loop
    vertex 209.4155072012935 243.57683585144034 0.3999999999775737
    vertex 208.70166918103607 235.278152482386 0.3999999999775455
    vertex 211.36082510263446 236.6504518117555 0.39999999997745384
  endloop
endfacet
facet normal 1.7727862238097434e-15 5.1464208136081744e-15 1.0
  outer loop
    vertex 209.4155072012935 243.57683585144034 0.3999999999775737
    vertex 211.36082510263446 236.6504518117555 0.39999999997745384
    vertex 214.47250539508448 244.1850592854834 0.3999999999774975
  endloop
endfacet
facet normal 1.7727862238097434e-15 5.1464208136081744e-15 1.0
  outer loop
    vertex 214.47250539508448 244.1850592854834 0.3999999999774975
    vertex 211.36082510263446 236.6504518117555 0.39999999997745384
    vertex 214.47250539508448 237.1078849215453 0.3999999999775229
  endloop
endfacet
facet normal 1.7727862238097434e-15 5.1464208136081744e-15 1.0
  outer loop
    vertex 214.47250539508448 244.1850592854834 0.3999999999774975
    vertex 214.47250539508448 237.1078849215453 0.3999999999775229
    vertex 218.7049121463293 236.25836628907834 0.39999999997755253
  endloop
endfacet
facet normal 1.7727862238097434e-15 5.1464208136081744e-15 1.0
  outer loop
    vertex 214.47250539508448 244.1850592854834 0.3999999999774975
    vertex 218.7049121463293 236.25836628907834 0.39999999997755253
    vertex 219.25269673219785 243.5667882764264 0.3999999999775116
  endloop
endfacet
facet normal 1.7727862238097434e-15 5.1464208136081744e-15 1.0
  outer loop
    vertex 219.25269673219785 243.5667882764264 0.3999999999775116
    vertex 218.7049121463293 236.25836628907834 0.39999999997755253
    vertex 221.8313186555935 233.70981039167813 0.3999999999774327
  endloop
endfacet
facet normal 1.7727862238097434e-15 5.1464208136081744e-15 1.0
  outer loop
    vertex 219.25269673219785 243.5667882764264 0.3999999999775116
    vertex 221.8313186555935 233.70981039167813 0.3999999999774327
    vertex 223.5401733984038 241.71197524925543 0.3999999999774566
  endloop
endfacet
facet normal 1.7727862238097434e-15 5.1464208136081744e-15 1.0
  outer loop
    vertex 223.5401733984038 241.71197524925543 0.3999999999774566
    vertex 221.8313186555935 233.70981039167813 0.3999999999774327
    vertex 223.76137344679947 229.80414157599745 0.3999999999774045
  endloop
endfacet
facet normal 1.7727862238097434e-15 5.1464208136081744e-15 1.0
  outer loop
    vertex 223.5401733984038 241.71197524925543 0.3999999999774566
    vertex 223.76137344679947 229.80414157599745 0.3999999999774045
    vertex 227.15914118048343 238.6507629290123 0.3999999999774665
  endloop
endfacet
facet normal 1.7727862238097434e-15 5.1464208136081744e-15 1.0
  outer loop
    vertex 227.15914118048343 238.6507629290123 0.3999999999774665
    vertex 223.76137344679947 229.80414157599745 0.3999999999774045
    vertex 224.40472504386813 224.88328418869116 0.39999999997742136
  endloop
endfacet
facet normal -0.9856500218937968 0.16880176047884676 1.1635307089643727e-16
  outer loop
    vertex 194.92897490559446 225.78771933802733 0.39999999997757085
    vertex 194.02423296007436 220.5048424540397 -2.2539419289313577e-11
    vertex 194.02423296007436 220.5048424540397 0.3999999999774609
  endloop
endfacet
facet normal -0.9856500218937968 0.16880176047884676 1.1635307089643727e-16
  outer loop
    vertex 194.02423296007436 220.5048424540397 -2.2539419289313577e-11
    vertex 194.92897490559446 225.78771933802733 0.39999999997757085
    vertex 194.92897490559446 225.78771933802733 -2.242944059649421e-11
  endloop
endfacet
facet normal -0.0 1.0 -0.0
  outer loop
    vertex 195.27105265033987 214.5213286438899 0.39999999997925434
    vertex 220.48417661328205 214.5213286438899 -2.0745920606413115e-11
    vertex 195.27105265033987 214.5213286438899 -2.0745920606413115e-11
  endloop
endfacet
facet normal -0.0 1.0 -0.0
  outer loop
    vertex 220.48417661328205 214.5213286438899 -2.0745920606413115e-11
    vertex 195.27105265033987 214.5213286438899 0.39999999997925434
    vertex 220.48417661328205 214.5213286438899 0.39999999997925434
  endloop
endfacet
facet normal 1.0 -0.0 -0.0
  outer loop
    vertex 230.97936725902355 243.21996422151565 0.599999999979368
    vertex 230.97936725902355 235.98202865735638 0.999999999979368
    vertex 230.97936725902355 235.98202865735638 0.599999999979368
  endloop
endfacet
facet normal 1.0 -0.0 -0.0
  outer loop
    vertex 230.97936725902355 235.98202865735638 0.999999999979368
    vertex 230.97936725902355 243.21996422151565 0.599999999979368
    vertex 230.97936725902355 243.21996422151565 0.999999999979368
  endloop
endfacet
facet normal -0.0 1.0 -0.0
  outer loop
    vertex 214.31174419486368 222.5909031046203 0.3999999999773819
    vertex 224.40472504386813 222.5909031046203 -2.2618378350824917e-11
    vertex 214.31174419486368 222.5909031046203 -2.2618378350824917e-11
  endloop
endfacet
facet normal -0.0 1.0 -0.0
  outer loop
    vertex 224.40472504386813 222.5909031046203 -2.2618378350824917e-11
    vertex 214.31174419486368 222.5909031046203 0.3999999999773819
    vertex 224.40472504386813 222.5909031046203 0.3999999999773819
  endloop
endfacet
facet normal 1.193412010303813e-15 1.3378209013779893e-14 -1.0
  outer loop
    vertex 195.02960405382433 243.21996422151565 0.599999999979368
    vertex 202.6295591146651 235.98202865735638 0.599999999979368
    vertex 195.02960405382433 215.62132864388963 0.5999999999788272
  endloop
endfacet
facet normal 1.193412010303813e-15 1.3378209013779893e-14 -1.0
  outer loop
    vertex 202.6295591146651 235.98202865735638 0.599999999979368
    vertex 195.02960405382433 243.21996422151565 0.599999999979368
    vertex 230.97936725902355 243.21996422151565 0.599999999979368
  endloop
endfacet
facet normal 1.193412010303813e-15 1.3378209013779893e-14 -1.0
  outer loop
    vertex 202.6295591146651 235.98202865735638 0.599999999979368
    vertex 230.97936725902355 243.21996422151565 0.599999999979368
    vertex 230.97936725902355 235.98202865735638 0.599999999979368
  endloop
endfacet
facet normal 1.193412010303813e-15 1.3378209013779893e-14 -1.0
  outer loop
    vertex 195.02960405382433 215.62132864388963 0.5999999999788272
    vertex 202.6295591146651 219.61567944551976 0.599999999979368
    vertex 222.6952567086907 215.62132864388963 0.5999999999788272
  endloop
endfacet
facet normal 1.193412010303813e-15 1.3378209013779893e-14 -1.0
  outer loop
    vertex 202.6295591146651 219.61567944551976 0.599999999979368
    vertex 195.02960405382433 215.62132864388963 0.5999999999788272
    vertex 202.6295591146651 235.98202865735638 0.599999999979368
  endloop
endfacet
facet normal 1.193412010303813e-15 1.3378209013779893e-14 -1.0
  outer loop
    vertex 222.6952567086907 215.62132864388963 0.5999999999788272
    vertex 202.6295591146651 219.61567944551976 0.599999999979368
    vertex 222.6952567086907 219.61567944551976 0.599999999979368
  endloop
endfacet
facet normal -1.0 0.0 0.0
  outer loop
    vertex 224.40472504386813 224.88328418869116 0.39999999997742136
    vertex 224.40472504386813 222.5909031046203 -2.2618378350824917e-11
    vertex 224.40472504386813 222.5909031046203 0.3999999999773819
  endloop
endfacet
facet normal -1.0 0.0 0.0
  outer loop
    vertex 224.40472504386813 222.5909031046203 -2.2618378350824917e-11
    vertex 224.40472504386813 224.88328418869116 0.39999999997742136
    vertex 224.40472504386813 224.88328418869116 -2.257889882006925e-11
  endloop
endfacet
facet normal 1.0 -0.0 -0.0
  outer loop
    vertex 232.2863190012798 222.5909031046203 -2.2618378350824917e-11
    vertex 232.2863190012798 215.62132864389 0.39999999997776403
    vertex 232.2863190012798 215.62132864389 -2.223627289243968e-11
  endloop
endfacet
facet normal 1.0 -0.0 -0.0
  outer loop
    vertex 232.2863190012798 215.62132864389 0.39999999997776403
    vertex 232.2863190012798 222.5909031046203 -2.2618378350824917e-11
    vertex 232.2863190012798 222.5909031046203 0.3999999999773819
  endloop
endfacet
facet normal 0.397049839976624 0.91779704977437 -3.940623271396819e-17
  outer loop
    vertex 219.25269673219785 243.5667882764264 -2.2488659892627714e-11
    vertex 223.5401733984038 241.71197524925543 0.3999999999774566
    vertex 223.5401733984038 241.71197524925543 -2.25436492390374e-11
  endloop
endfacet
facet normal 0.397049839976624 0.91779704977437 -3.940623271396819e-17
  outer loop
    vertex 223.5401733984038 241.71197524925543 0.3999999999774566
    vertex 219.25269673219785 243.5667882764264 -2.2488659892627714e-11
    vertex 219.25269673219785 243.5667882764264 0.3999999999775116
  endloop
endfacet
facet normal -0.9915615854897246 -0.12963650018842518 1.9382924425929495e-17
  outer loop
    vertex 223.76137344679947 229.80414157599745 0.3999999999774045
    vertex 224.40472504386813 224.88328418869116 -2.257889882006925e-11
    vertex 224.40472504386813 224.88328418869116 0.39999999997742136
  endloop
endfacet
facet normal -0.9915615854897246 -0.12963650018842518 1.9382924425929495e-17
  outer loop
    vertex 224.40472504386813 224.88328418869116 -2.257889882006925e-11
    vertex 223.76137344679947 229.80414157599745 0.3999999999774045
    vertex 223.76137344679947 229.80414157599745 -2.2595818618964535e-11
  endloop
endfacet
facet normal -0.19679261946937512 -0.9804451361103189 7.971827861409223e-17
  outer loop
    vertex 218.7049121463293 236.25836628907834 -2.244777037863077e-11
    vertex 214.47250539508448 237.1078849215453 0.3999999999775229
    vertex 214.47250539508448 237.1078849215453 -2.2477380026697522e-11
  endloop
endfacet
facet normal -0.19679261946937512 -0.9804451361103189 7.971827861409223e-17
  outer loop
    vertex 214.47250539508448 237.1078849215453 0.3999999999775229
    vertex 218.7049121463293 236.25836628907834 -2.244777037863077e-11
    vertex 218.7049121463293 236.25836628907834 0.39999999997755253
  endloop
endfacet
facet normal -0.11941301331885666 0.9928446667279381 6.096031209045717e-18
  outer loop
    vertex 209.4155072012935 243.57683585144034 -2.242662063001166e-11
    vertex 214.47250539508448 244.1850592854834 0.3999999999774975
    vertex 214.47250539508448 244.1850592854834 -2.2502759725040453e-11
  endloop
endfacet
facet normal -0.11941301331885666 0.9928446667279381 6.096031209045717e-18
  outer loop
    vertex 214.47250539508448 244.1850592854834 0.3999999999774975
    vertex 209.4155072012935 243.57683585144034 -2.242662063001166e-11
    vertex 209.4155072012935 243.57683585144034 0.3999999999775737
  endloop
endfacet
facet normal 1.0 -0.0 -0.0
  outer loop
    vertex 222.6952567086907 214.5213286438899 0.5999999999794682
    vertex 222.6952567086907 212.41762738523195 0.999999999979368
    vertex 222.6952567086907 212.41762738523195 0.599999999979368
  endloop
endfacet
facet normal 1.0 -0.0 -0.0
  outer loop
    vertex 222.6952567086907 212.41762738523195 0.999999999979368
    vertex 222.6952567086907 214.5213286438899 0.5999999999794682
    vertex 222.6952567086907 214.5213286438899 0.9999999999794681
  endloop
endfacet
facet normal -1.0 0.0 0.0
  outer loop
    vertex 195.02960405382433 214.5213286438899 0.9999999999794681
    vertex 195.02960405382433 186.92286452571898 0.599999999979368
    vertex 195.02960405382433 186.92286452571898 0.999999999979368
  endloop
endfacet
facet normal -1.0 0.0 0.0
  outer loop
    vertex 195.02960405382433 186.92286452571898 0.599999999979368
    vertex 195.02960405382433 214.5213286438899 0.9999999999794681
    vertex 195.02960405382433 214.5213286438899 0.5999999999794682
  endloop
endfacet
facet normal -0.6318388537986102 -0.7750997760485153 3.199356429934946e-16
  outer loop
    vertex 221.8313186555935 233.70981039167813 0.3999999999774327
    vertex 218.7049121463293 236.25836628907834 -2.244777037863077e-11
    vertex 221.8313186555935 233.70981039167813 -2.2567618954139056e-11
  endloop
endfacet
facet normal -0.6318388537986102 -0.7750997760485153 3.199356429934946e-16
  outer loop
    vertex 218.7049121463293 236.25836628907834 -2.244777037863077e-11
    vertex 221.8313186555935 233.70981039167813 0.3999999999774327
    vertex 218.7049121463293 236.25836628907834 0.39999999997755253
  endloop
endfacet
facet normal 0.9958736848423093 0.09075022776059999 6.115818632997819e-17
  outer loop
    vertex 231.69819071726425 229.0448977205636 -2.248301995966262e-11
    vertex 232.2863190012798 222.5909031046203 0.3999999999773819
    vertex 232.2863190012798 222.5909031046203 -2.2618378350824917e-11
  endloop
endfacet
facet normal 0.9958736848423093 0.09075022776059999 6.115818632997819e-17
  outer loop
    vertex 232.2863190012798 222.5909031046203 0.3999999999773819
    vertex 231.69819071726425 229.0448977205636 -2.248301995966262e-11
    vertex 231.69819071726425 229.0448977205636 0.3999999999775173
  endloop
endfacet
facet normal -7.147965267442682e-16 2.4135145652632575e-15 -1.0
  outer loop
    vertex 195.02960405382433 214.5213286438899 0.5999999999794682
    vertex 202.6295591146651 212.41762738523195 0.599999999979368
    vertex 195.02960405382433 186.92286452571898 0.599999999979368
  endloop
endfacet
facet normal -7.147965267442682e-16 2.4135145652632575e-15 -1.0
  outer loop
    vertex 202.6295591146651 212.41762738523195 0.599999999979368
    vertex 195.02960405382433 214.5213286438899 0.5999999999794682
    vertex 222.6952567086907 214.5213286438899 0.5999999999794682
  endloop
endfacet
facet normal -7.147965267442682e-16 2.4135145652632575e-15 -1.0
  outer loop
    vertex 202.6295591146651 212.41762738523195 0.599999999979368
    vertex 222.6952567086907 214.5213286438899 0.5999999999794682
    vertex 222.6952567086907 212.41762738523195 0.599999999979368
  endloop
endfacet
facet normal -7.147965267442682e-16 2.4135145652632575e-15 -1.0
  outer loop
    vertex 202.6295591146651 186.92286452571898 0.599999999979368
    vertex 195.02960405382433 186.92286452571898 0.599999999979368
    vertex 202.6295591146651 212.41762738523195 0.599999999979368
  endloop
endfacet
facet normal 0.6981115922257078 -0.7159889697475004 -1.4439294763063024e-16
  outer loop
    vertex 208.70166918103607 235.278152482386 -2.245482029483714e-11
    vertex 206.48997549325955 233.1216821076626 0.39999999997744534
    vertex 206.48997549325955 233.1216821076626 -2.255492910496759e-11
  endloop
endfacet
facet normal 0.6981115922257078 -0.7159889697475004 -1.4439294763063024e-16
  outer loop
    vertex 206.48997549325955 233.1216821076626 0.39999999997744534
    vertex 208.70166918103607 235.278152482386 -2.245482029483714e-11
    vertex 208.70166918103607 235.278152482386 0.3999999999775455
  endloop
endfacet
facet normal 0.1282717499278717 0.9917390574997244 8.470410571115568e-17
  outer loop
    vertex 214.47250539508448 244.1850592854834 0.3999999999774975
    vertex 219.25269673219785 243.5667882764264 -2.2488659892627714e-11
    vertex 214.47250539508448 244.1850592854834 -2.2502759725040453e-11
  endloop
endfacet
facet normal 0.1282717499278717 0.9917390574997244 8.470410571115568e-17
  outer loop
    vertex 219.25269673219785 243.5667882764264 -2.2488659892627714e-11
    vertex 214.47250539508448 244.1850592854834 0.3999999999774975
    vertex 219.25269673219785 243.5667882764264 0.3999999999775116
  endloop
endfacet
facet normal -0.0 1.0 -0.0
  outer loop
    vertex 195.02960405382433 214.5213286438899 0.9999999999794681
    vertex 222.6952567086907 214.5213286438899 0.5999999999794682
    vertex 195.02960405382433 214.5213286438899 0.5999999999794682
  endloop
endfacet
facet normal -0.0 1.0 -0.0
  outer loop
    vertex 222.6952567086907 214.5213286438899 0.5999999999794682
    vertex 195.02960405382433 214.5213286438899 0.9999999999794681
    vertex 222.6952567086907 214.5213286438899 0.9999999999794681
  endloop
endfacet
facet normal 0.0 -1.0 0.0
  outer loop
    vertex 222.6952567086907 212.41762738523195 0.999999999979368
    vertex 202.6295591146651 212.41762738523195 0.599999999979368
    vertex 222.6952567086907 212.41762738523195 0.599999999979368
  endloop
endfacet
facet normal 0.0 -1.0 0.0
  outer loop
    vertex 202.6295591146651 212.41762738523195 0.599999999979368
    vertex 222.6952567086907 212.41762738523195 0.999999999979368
    vertex 202.6295591146651 212.41762738523195 0.999999999979368
  endloop
endfacet
facet normal 0.950565747682928 -0.3105233635847646 3.342505086432619e-17
  outer loop
    vertex 204.72068190227512 230.31173586181063 -2.260145855192963e-11
    vertex 202.40866586245264 223.23425470168897 0.39999999997745805
    vertex 202.40866586245264 223.23425470168897 -2.2542239255796125e-11
  endloop
endfacet
facet normal 0.950565747682928 -0.3105233635847646 3.342505086432619e-17
  outer loop
    vertex 202.40866586245264 223.23425470168897 0.39999999997745805
    vertex 204.72068190227512 230.31173586181063 -2.260145855192963e-11
    vertex 204.72068190227512 230.31173586181063 0.3999999999773988
  endloop
endfacet
facet normal 0.0 -1.0 0.0
  outer loop
    vertex 201.69621478251483 215.62132864389 0.39999999997776403
    vertex 193.75317940001787 215.62132864389 -2.223627289243968e-11
    vertex 201.69621478251483 215.62132864389 -2.223627289243968e-11
  endloop
endfacet
facet normal 0.0 -1.0 0.0
  outer loop
    vertex 193.75317940001787 215.62132864389 -2.223627289243968e-11
    vertex 201.69621478251483 215.62132864389 0.39999999997776403
    vertex 193.75317940001787 215.62132864389 0.39999999997776403
  endloop
endfacet
facet normal 0.0 -1.0 0.0
  outer loop
    vertex 229.00881537157863 186.92277879599212 0.3999999999782787
    vertex 195.27105265033987 186.92277879599212 -2.1721629009374687e-11
    vertex 229.00881537157863 186.92277879599212 -2.1721629009374687e-11
  endloop
endfacet
facet normal 0.0 -1.0 0.0
  outer loop
    vertex 195.27105265033987 186.92277879599212 -2.1721629009374687e-11
    vertex 229.00881537157863 186.92277879599212 0.3999999999782787
    vertex 195.27105265033987 186.92277879599212 0.3999999999782787
  endloop
endfacet
facet normal -0.8965089465126799 -0.44302562998400546 1.2302471566407037e-16
  outer loop
    vertex 221.8313186555935 233.70981039167813 0.3999999999774327
    vertex 223.76137344679947 229.80414157599745 -2.2595818618964535e-11
    vertex 223.76137344679947 229.80414157599745 0.3999999999774045
  endloop
endfacet
facet normal -0.8965089465126799 -0.44302562998400546 1.2302471566407037e-16
  outer loop
    vertex 223.76137344679947 229.80414157599745 -2.2595818618964535e-11
    vertex 221.8313186555935 233.70981039167813 0.3999999999774327
    vertex 221.8313186555935 233.70981039167813 -2.2567618954139056e-11
  endloop
endfacet
facet normal 0.8462235825528979 -0.5328279725496202 -6.543495434069544e-17
  outer loop
    vertex 206.48997549325955 233.1216821076626 -2.255492910496759e-11
    vertex 204.72068190227512 230.31173586181063 0.3999999999773988
    vertex 204.72068190227512 230.31173586181063 -2.260145855192963e-11
  endloop
endfacet
facet normal 0.8462235825528979 -0.5328279725496202 -6.543495434069544e-17
  outer loop
    vertex 204.72068190227512 230.31173586181063 0.3999999999773988
    vertex 206.48997549325955 233.1216821076626 -2.255492910496759e-11
    vertex 206.48997549325955 233.1216821076626 0.39999999997744534
  endloop
endfacet
facet normal 1.0 -0.0 -0.0
  outer loop
    vertex 202.87100771118062 210.52706357198736 -2.1264794439201926e-11
    vertex 202.87100771118062 194.1607143601514 0.39999999997848734
    vertex 202.87100771118062 194.1607143601514 -2.1512951489666142e-11
  endloop
endfacet
facet normal 1.0 -0.0 -0.0
  outer loop
    vertex 202.87100771118062 194.1607143601514 0.39999999997848734
    vertex 202.87100771118062 210.52706357198736 -2.1264794439201926e-11
    vertex 202.87100771118062 210.52706357198736 0.3999999999787355
  endloop
endfacet
facet normal -1.0 0.0 0.0
  outer loop
    vertex 214.31174419486368 222.5909031046203 0.3999999999773819
    vertex 214.31174419486368 215.62132864389 -2.223627289243968e-11
    vertex 214.31174419486368 215.62132864389 0.39999999997776403
  endloop
endfacet
facet normal -1.0 0.0 0.0
  outer loop
    vertex 214.31174419486368 215.62132864389 -2.223627289243968e-11
    vertex 214.31174419486368 222.5909031046203 0.3999999999773819
    vertex 214.31174419486368 222.5909031046203 -2.2618378350824917e-11
  endloop
endfacet
facet normal -1.0 0.0 0.0
  outer loop
    vertex 195.27105265033987 214.5213286438899 0.39999999997925434
    vertex 195.27105265033987 186.92277879599212 -2.1721629009374687e-11
    vertex 195.27105265033987 186.92277879599212 0.3999999999782787
  endloop
endfacet
facet normal -1.0 0.0 0.0
  outer loop
    vertex 195.27105265033987 186.92277879599212 -2.1721629009374687e-11
    vertex 195.27105265033987 214.5213286438899 0.39999999997925434
    vertex 195.27105265033987 214.5213286438899 -2.0745920606413115e-11
  endloop
endfacet
facet normal -0.9984632140884272 0.05541849972894976 -2.9523678451100184e-17
  outer loop
    vertex 194.02423296007436 220.5048424540397 0.3999999999774609
    vertex 193.75317940001787 215.62132864389 -2.223627289243968e-11
    vertex 193.75317940001787 215.62132864389 0.39999999997776403
  endloop
endfacet
facet normal -0.9984632140884272 0.05541849972894976 -2.9523678451100184e-17
  outer loop
    vertex 193.75317940001787 215.62132864389 -2.223627289243968e-11
    vertex 194.02423296007436 220.5048424540397 0.3999999999774609
    vertex 194.02423296007436 220.5048424540397 -2.2539419289313577e-11
  endloop
endfacet
facet normal -8.719688130873876e-16 2.93137606468119e-14 -1.0
  outer loop
    vertex 195.27105265033987 214.5213286438899 -2.0745920606413115e-11
    vertex 202.87100771118062 210.52706357198736 -2.1264794439201926e-11
    vertex 195.27105265033987 186.92277879599212 -2.1721629009374687e-11
  endloop
endfacet
facet normal -8.719688130873876e-16 2.93137606468119e-14 -1.0
  outer loop
    vertex 202.87100771118062 210.52706357198736 -2.1264794439201926e-11
    vertex 195.27105265033987 214.5213286438899 -2.0745920606413115e-11
    vertex 220.48417661328205 214.5213286438899 -2.0745920606413115e-11
  endloop
endfacet
facet normal -8.719688130873876e-16 2.93137606468119e-14 -1.0
  outer loop
    vertex 202.87100771118062 210.52706357198736 -2.1264794439201926e-11
    vertex 220.48417661328205 214.5213286438899 -2.0745920606413115e-11
    vertex 220.48417661328205 210.52706357198736 -2.1264794439201926e-11
  endloop
endfacet
facet normal -8.719688130873876e-16 2.93137606468119e-14 -1.0
  outer loop
    vertex 195.27105265033987 186.92277879599212 -2.1721629009374687e-11
    vertex 202.87100771118062 194.1607143601514 -2.1512951489666142e-11
    vertex 229.00881537157863 186.92277879599212 -2.1721629009374687e-11
  endloop
endfacet
facet normal -8.719688130873876e-16 2.93137606468119e-14 -1.0
  outer loop
    vertex 202.87100771118062 194.1607143601514 -2.1512951489666142e-11
    vertex 195.27105265033987 186.92277879599212 -2.1721629009374687e-11
    vertex 202.87100771118062 210.52706357198736 -2.1264794439201926e-11
  endloop
endfacet
facet normal -8.719688130873876e-16 2.93137606468119e-14 -1.0
  outer loop
    vertex 229.00881537157863 186.92277879599212 -2.1721629009374687e-11
    vertex 202.87100771118062 194.1607143601514 -2.1512951489666142e-11
    vertex 229.00881537157863 194.1607143601514 -2.1512951489666142e-11
  endloop
endfacet
endsolid v1_flaps_250mmbed
